<svg xmlns="http://www.w3.org/2000/svg" width="1200" height="600" viewBox="0 0 1200 600" font-family="Inter, Arial, sans-serif">
<style>
    .lane { fill:#f5f7fb; stroke:#c9d2e5; stroke-width:1; }
    .box { fill:#ffffff; stroke:#334155; stroke-width:1; rx:6; ry:6; }
    .title { font-weight:bold; fill:#0f172a; font-size:16px; }
    .text { fill:#0f172a; font-size:12px; }
    .caption { fill:#475569; font-size:11px; }
    .arrow { stroke:#334155; stroke-width:1.5; marker-end:url(#arrow); fill:none; }
</style>
<defs>
  <marker id="arrow" markerWidth="10" markerHeight="7" refX="10" refY="3.5" orient="auto">
    <polygon points="0 0, 10 3.5, 0 7" fill="#334155"/>
  </marker>
</defs>
<text x="20" y="30" class="title">Lead → Client Swimlane (Marketing • Sales Ops • AE • Ops)</text>
<rect x="10" y="40" width="1180" height="140" class="lane"/>
<text x="20" y="55" class="caption">Marketing</text>
<rect x="10" y="180" width="1180" height="140" class="lane"/>
<text x="20" y="195" class="caption">Sales Ops</text>
<rect x="10" y="320" width="1180" height="140" class="lane"/>
<text x="20" y="335" class="caption">AE</text>
<rect x="10" y="460" width="1180" height="140" class="lane"/>
<text x="20" y="475" class="caption">Ops</text>
<rect x="60" y="60" width="120" height="40" class="box"/>
<text x="70" y="85" class="text">Attract</text>
<rect x="240" y="60" width="120" height="40" class="box"/>
<text x="250" y="85" class="text">Capture</text>
<rect x="420" y="60" width="120" height="40" class="box"/>
<text x="430" y="85" class="text">Nurture</text>
<rect x="600" y="200" width="180" height="40" class="box"/>
<text x="610" y="225" class="text">Qualify (Score ≥20?)</text>
<rect x="820" y="340" width="150" height="40" class="box"/>
<text x="830" y="365" class="text">Discovery Call</text>
<rect x="1020" y="340" width="150" height="40" class="box"/>
<text x="1030" y="365" class="text">Proposal / eSign</text>
<rect x="1020" y="480" width="150" height="40" class="box"/>
<text x="1030" y="505" class="text">Auto-Provision</text>
<line x1="180" y1="100" x2="240" y2="100" class="arrow"/>
<line x1="360" y1="100" x2="420" y2="100" class="arrow"/>
<line x1="540" y1="100" x2="600" y2="240" class="arrow"/>
<line x1="780" y1="240" x2="820" y2="380" class="arrow"/>
<line x1="970" y1="380" x2="1020" y2="380" class="arrow"/>
<line x1="1095" y1="400" x2="1095" y2="500" class="arrow"/>
</svg>