<svg xmlns="http://www.w3.org/2000/svg" xmlns:xlink="http://www.w3.org/1999/xlink" contentStyleType="text/css" data-diagram-type="STATE" height="877px" preserveAspectRatio="none" style="width:252px;height:877px;background:#FFFFFF;" version="1.1" viewBox="0 0 252 877" width="252px" zoomAndPan="magnify"><defs/><g><g id="IDEA"><rect fill="#F1F1F1" height="50" rx="12.5" ry="12.5" style="stroke:#181818;stroke-width:0.5;" width="77.0254" x="22.61" y="87"/><line style="stroke:#181818;stroke-width:0.5;" x1="22.61" x2="99.6354" y1="113.2969" y2="113.2969"/><text fill="#000000" font-family="sans-serif" font-size="14" lengthAdjust="spacing" textLength="57.0254" x="32.61" y="104.9951">Ideation</text></g><g id="SCRIPT"><rect fill="#F1F1F1" height="50" rx="12.5" ry="12.5" style="stroke:#181818;stroke-width:0.5;" width="82.2549" x="20" y="214"/><line style="stroke:#181818;stroke-width:0.5;" x1="20" x2="102.2549" y1="240.2969" y2="240.2969"/><text fill="#000000" font-family="sans-serif" font-size="14" lengthAdjust="spacing" textLength="62.2549" x="30" y="231.9951">Scripting</text></g><g id="REC"><rect fill="#F1F1F1" height="50" rx="12.5" ry="12.5" style="stroke:#181818;stroke-width:0.5;" width="90.8955" x="15.68" y="341"/><line style="stroke:#181818;stroke-width:0.5;" x1="15.68" x2="106.5755" y1="367.2969" y2="367.2969"/><text fill="#000000" font-family="sans-serif" font-size="14" lengthAdjust="spacing" textLength="70.8955" x="25.68" y="358.9951">Recording</text></g><g id="EDIT"><rect fill="#F1F1F1" height="50" rx="12.5" ry="12.5" style="stroke:#181818;stroke-width:0.5;" width="68.7607" x="26.75" y="468"/><line style="stroke:#181818;stroke-width:0.5;" x1="26.75" x2="95.5107" y1="494.2969" y2="494.2969"/><text fill="#000000" font-family="sans-serif" font-size="14" lengthAdjust="spacing" textLength="48.7607" x="36.75" y="485.9951">Editing</text></g><g id="DIST"><rect fill="#F1F1F1" height="50" rx="12.5" ry="12.5" style="stroke:#181818;stroke-width:0.5;" width="101.6758" x="10.29" y="595"/><line style="stroke:#181818;stroke-width:0.5;" x1="10.29" x2="111.9658" y1="621.2969" y2="621.2969"/><text fill="#000000" font-family="sans-serif" font-size="14" lengthAdjust="spacing" textLength="81.6758" x="20.29" y="612.9951">Distribution</text></g><g id="REPURP"><rect fill="#F1F1F1" height="50" rx="12.5" ry="12.5" style="stroke:#181818;stroke-width:0.5;" width="108.252" x="7" y="722"/><line style="stroke:#181818;stroke-width:0.5;" x1="7" x2="115.252" y1="748.2969" y2="748.2969"/><text fill="#000000" font-family="sans-serif" font-size="14" lengthAdjust="spacing" textLength="88.252" x="17" y="739.9951">Repurposing</text></g><ellipse cx="61.13" cy="16" fill="#222222" rx="10" ry="10" style="stroke:#222222;stroke-width:1;"/><ellipse cx="61.13" cy="860" fill="none" rx="11" ry="11" style="stroke:#222222;stroke-width:1;"/><ellipse cx="61.13" cy="860" fill="#222222" rx="6" ry="6" style="stroke:#222222;stroke-width:1;"/><!--link *start* to IDEA--><g class="link" data-entity-1=".start." data-entity-2="IDEA" data-source-line="8" data-uid="lnk3" id="link_.start._IDEA"><path d="M61.13,26.36 C61.13,40.29 61.13,60.95 61.13,80.65" fill="none" id="*start*-to-IDEA" style="stroke:#181818;stroke-width:1;"/><polygon fill="#181818" points="61.13,86.65,65.13,77.65,61.13,81.65,57.13,77.65,61.13,86.65" style="stroke:#181818;stroke-width:1;"/></g><!--link IDEA to SCRIPT--><g class="link" data-entity-1="IDEA" data-entity-2="SCRIPT" data-source-line="9" data-uid="lnk4" id="link_IDEA_SCRIPT"><path d="M61.13,137.4 C61.13,159.42 61.13,185.66 61.13,207.66" fill="none" id="IDEA-to-SCRIPT" style="stroke:#181818;stroke-width:1;"/><polygon fill="#181818" points="61.13,213.66,65.13,204.66,61.13,208.66,57.13,204.66,61.13,213.66" style="stroke:#181818;stroke-width:1;"/><text fill="#000000" font-family="sans-serif" font-size="13" lengthAdjust="spacing" textLength="102.8955" x="62.13" y="180.0669">Outline Created</text></g><!--link SCRIPT to REC--><g class="link" data-entity-1="SCRIPT" data-entity-2="REC" data-source-line="10" data-uid="lnk5" id="link_SCRIPT_REC"><path d="M61.13,264.4 C61.13,286.42 61.13,312.66 61.13,334.66" fill="none" id="SCRIPT-to-REC" style="stroke:#181818;stroke-width:1;"/><polygon fill="#181818" points="61.13,340.66,65.13,331.66,61.13,335.66,57.13,331.66,61.13,340.66" style="stroke:#181818;stroke-width:1;"/><text fill="#000000" font-family="sans-serif" font-size="13" lengthAdjust="spacing" textLength="133.5293" x="62.13" y="307.0669">Teleprompter Ready</text></g><!--link REC to EDIT--><g class="link" data-entity-1="REC" data-entity-2="EDIT" data-source-line="11" data-uid="lnk6" id="link_REC_EDIT"><path d="M61.13,391.4 C61.13,413.42 61.13,439.66 61.13,461.66" fill="none" id="REC-to-EDIT" style="stroke:#181818;stroke-width:1;"/><polygon fill="#181818" points="61.13,467.66,65.13,458.66,61.13,462.66,57.13,458.66,61.13,467.66" style="stroke:#181818;stroke-width:1;"/><text fill="#000000" font-family="sans-serif" font-size="13" lengthAdjust="spacing" textLength="127.1689" x="62.13" y="434.0669">Raw Files Uploaded</text></g><!--link EDIT to DIST--><g class="link" data-entity-1="EDIT" data-entity-2="DIST" data-source-line="12" data-uid="lnk7" id="link_EDIT_DIST"><path d="M61.13,518.4 C61.13,540.42 61.13,566.66 61.13,588.66" fill="none" id="EDIT-to-DIST" style="stroke:#181818;stroke-width:1;"/><polygon fill="#181818" points="61.13,594.66,65.13,585.66,61.13,589.66,57.13,585.66,61.13,594.66" style="stroke:#181818;stroke-width:1;"/><text fill="#000000" font-family="sans-serif" font-size="13" lengthAdjust="spacing" textLength="124.2236" x="62.13" y="561.0669">Final Cut Approved</text></g><!--link DIST to REPURP--><g class="link" data-entity-1="DIST" data-entity-2="REPURP" data-source-line="13" data-uid="lnk8" id="link_DIST_REPURP"><path d="M61.13,645.4 C61.13,667.42 61.13,693.66 61.13,715.66" fill="none" id="DIST-to-REPURP" style="stroke:#181818;stroke-width:1;"/><polygon fill="#181818" points="61.13,721.66,65.13,712.66,61.13,716.66,57.13,712.66,61.13,721.66" style="stroke:#181818;stroke-width:1;"/><text fill="#000000" font-family="sans-serif" font-size="13" lengthAdjust="spacing" textLength="110.5444" x="62.13" y="688.0669">Posted to Socials</text></g><!--link REPURP to *end*--><g class="link" data-entity-1="REPURP" data-entity-2=".end." data-source-line="14" data-uid="lnk10" id="link_REPURP_.end."><path d="M61.13,772.36 C61.13,796.23 61.13,825.46 61.13,842.71" fill="none" id="REPURP-to-*end*" style="stroke:#181818;stroke-width:1;"/><polygon fill="#181818" points="61.13,848.71,65.13,839.71,61.13,843.71,57.13,839.71,61.13,848.71" style="stroke:#181818;stroke-width:1;"/><text fill="#000000" font-family="sans-serif" font-size="13" lengthAdjust="spacing" textLength="182.5713" x="62.13" y="815.0669">Turned into Blog/Newsletter</text></g><!--SRC=[JO-nQiCm441tVSMHCH2wToYajWDUMYCdK-cWMaSuK2KXdHBwzptPiTj58DxJwLrcmmYxtg9X2du79aFVTaUL5p1EYIAJlyvaR7G_d5UcSGh9hantpGewIzkJhkst1orbJlHLjf_QVlmtBPOKG_wRDrpqeDJ7_XCEXvUbgXxpRIc1PtWlxCWZD4asGAiUe3fI9C8P7SOKlYDZ0et6_gWAgb3RnD3c3YTocE4INJ1MfioaAhLGb1Dvuw0f3CSemswYp6JvfeQAD8Gi1S01nZ2HSLazKBNg6X9JaXU5l4YlBboVtl2U7RAq_G80]--></g></svg>