<?xml version="1.0" encoding="UTF-8" standalone="no"?>
<!DOCTYPE svg PUBLIC "-//W3C//DTD SVG 1.1//EN"
 "http://www.w3.org/Graphics/SVG/1.1/DTD/svg11.dtd">
<!-- Generated by graphviz version 10.0.1 (20240210.2158)
 -->
<!-- Title: Flywheel Pages: 1 -->
<svg width="1853pt" height="493pt"
 viewBox="0.00 0.00 1852.99 493.47" xmlns="http://www.w3.org/2000/svg" xmlns:xlink="http://www.w3.org/1999/xlink">
<g id="graph0" class="graph" transform="scale(1 1) rotate(0) translate(4 489.47)">
<title>Flywheel</title>
<polygon fill="white" stroke="none" points="-4,4 -4,-489.47 1848.99,-489.47 1848.99,4 -4,4"/>
<!-- Structure -->
<g id="node1" class="node">
<title>Structure</title>
<ellipse fill="lightblue" stroke="black" cx="153.82" cy="-158.65" rx="153.82" ry="153.82"/>
<text text-anchor="middle" x="153.82" y="-153.75" font-family="Times,serif" font-size="14.00">Sovereign Structure (Book 1)</text>
</g>
<!-- Assets -->
<g id="node2" class="node">
<title>Assets</title>
<ellipse fill="lightblue" stroke="black" cx="552.7" cy="-321.65" rx="151.06" ry="151.06"/>
<text text-anchor="middle" x="552.7" y="-316.75" font-family="Times,serif" font-size="14.00">Asset Accumulation (Book 2)</text>
</g>
<!-- Structure&#45;&gt;Assets -->
<g id="edge1" class="edge">
<title>Structure&#45;&gt;Assets</title>
<path fill="none" stroke="black" d="M296.7,-216.92C330.89,-230.96 367.51,-246 402.03,-260.18"/>
<polygon fill="black" stroke="black" points="400.7,-263.41 411.28,-263.98 403.36,-256.94 400.7,-263.41"/>
<text text-anchor="middle" x="354.64" y="-254.15" font-family="Times,serif" font-size="14.00">Protects</text>
</g>
<!-- Revenue -->
<g id="node3" class="node">
<title>Revenue</title>
<ellipse fill="lightblue" stroke="black" cx="965.59" cy="-331.65" rx="153.82" ry="153.82"/>
<text text-anchor="middle" x="965.59" y="-326.75" font-family="Times,serif" font-size="14.00">Revenue Generation (Book 3)</text>
</g>
<!-- Assets&#45;&gt;Revenue -->
<g id="edge2" class="edge">
<title>Assets&#45;&gt;Revenue</title>
<path fill="none" stroke="black" d="M704.08,-325.31C735.34,-326.07 768.43,-326.88 800.17,-327.65"/>
<polygon fill="black" stroke="black" points="799.73,-331.14 809.82,-327.88 799.9,-324.14 799.73,-331.14"/>
<text text-anchor="middle" x="757.77" y="-330.15" font-family="Times,serif" font-size="14.00">Generates</text>
</g>
<!-- Revenue&#45;&gt;Assets -->
<g id="edge6" class="edge">
<title>Revenue&#45;&gt;Assets</title>
<path fill="none" stroke="black" d="M813.38,-306.65C806.76,-305.96 800.2,-305.35 793.77,-304.85 768.16,-302.85 741.01,-302.78 714.54,-303.83"/>
<polygon fill="black" stroke="black" points="714.58,-300.33 704.75,-304.28 714.9,-307.32 714.58,-300.33"/>
<text text-anchor="middle" x="757.77" y="-308.15" font-family="Times,serif" font-size="14.00">Reinvests</text>
</g>
<!-- Defense -->
<g id="node4" class="node">
<title>Defense</title>
<ellipse fill="lightblue" stroke="black" cx="1317.05" cy="-310.65" rx="118.64" ry="118.64"/>
<text text-anchor="middle" x="1317.05" y="-305.75" font-family="Times,serif" font-size="14.00">Risk Defense (Book 4)</text>
</g>
<!-- Revenue&#45;&gt;Defense -->
<g id="edge3" class="edge">
<title>Revenue&#45;&gt;Defense</title>
<path fill="none" stroke="black" d="M1119.61,-322.45C1142.04,-321.11 1164.95,-319.73 1186.84,-318.41"/>
<polygon fill="black" stroke="black" points="1186.9,-321.92 1196.67,-317.82 1186.48,-314.93 1186.9,-321.92"/>
<text text-anchor="middle" x="1158.91" y="-324.15" font-family="Times,serif" font-size="14.00">Funds</text>
</g>
<!-- Legacy -->
<g id="node5" class="node">
<title>Legacy</title>
<ellipse fill="lightblue" stroke="black" cx="1686.34" cy="-158.65" rx="158.65" ry="158.65"/>
<text text-anchor="middle" x="1686.34" y="-153.75" font-family="Times,serif" font-size="14.00">Philanthropic Legacy (Book 6)</text>
</g>
<!-- Defense&#45;&gt;Legacy -->
<g id="edge4" class="edge">
<title>Defense&#45;&gt;Legacy</title>
<path fill="none" stroke="black" d="M1427.26,-265.46C1459.07,-252.29 1494.47,-237.64 1528.6,-223.52"/>
<polygon fill="black" stroke="black" points="1529.85,-226.79 1537.75,-219.73 1527.17,-220.32 1529.85,-226.79"/>
<text text-anchor="middle" x="1481.69" y="-257.15" font-family="Times,serif" font-size="14.00">Secures</text>
</g>
<!-- Legacy&#45;&gt;Structure -->
<g id="edge5" class="edge">
<title>Legacy&#45;&gt;Structure</title>
<path fill="none" stroke="black" d="M1527.67,-148.77C1462.77,-145.48 1386.83,-142.65 1318.05,-142.65 551.7,-142.65 551.7,-142.65 551.7,-142.65 475.12,-142.65 390.29,-145.66 318.78,-149.07"/>
<polygon fill="black" stroke="black" points="318.75,-145.57 308.93,-149.55 319.09,-152.56 318.75,-145.57"/>
<text text-anchor="middle" x="965.59" y="-146.15" font-family="Times,serif" font-size="14.00">Strengthens (Reputation)</text>
</g>
</g>
</svg>
