<svg xmlns="http://www.w3.org/2000/svg" xmlns:xlink="http://www.w3.org/1999/xlink" contentStyleType="text/css" data-diagram-type="DESCRIPTION" height="827.0833px" preserveAspectRatio="none" style="width:1482px;height:827px;" version="1.1" viewBox="0 0 1482 827" width="1482.2917px" zoomAndPan="magnify"><defs><linearGradient id="g15m31lyeuwcnx0" x1="50%" x2="50%" y1="0%" y2="100%"><stop offset="0%" stop-color="#B8B8B8"/><stop offset="100%" stop-color="#6B6B6B"/></linearGradient><linearGradient id="g15m31lyeuwcnx1" x1="50%" x2="50%" y1="0%" y2="100%"><stop offset="0%" stop-color="#7C9AB9"/><stop offset="100%" stop-color="#304D6D"/></linearGradient></defs><g><!--cluster Benefit Layer (Tax Free/Deferred)--><g class="cluster" data-entity="Benefit Layer .Tax Free.Deferred." data-source-line="8" data-uid="ent0002" id="cluster_Benefit Layer .Tax Free.Deferred."><path d="M20.8333,149.5521 L267.6921,149.5521 A6.25,6.25 0 0 1 271.8587,153.7188 L279.1504,180.7695 L277.0833,180.7695 A4.1667,4.1667 0 0 1 281.25,184.9362 L281.25,554.5208 A4.1667,4.1667 0 0 1 277.0833,558.6875 L20.8333,558.6875 A4.1667,4.1667 0 0 1 16.6667,554.5208 L16.6667,153.7188 A4.1667,4.1667 0 0 1 20.8333,149.5521" fill="url(#g15m31lyeuwcnx0)" style="stroke:#446E9B;stroke-width:2.0833;"/><line style="stroke:#446E9B;stroke-width:2.0833;" x1="16.6667" x2="279.1504" y1="180.7695" y2="180.7695"/><text fill="#446E9B" font-family="'Verdana'" font-size="12.5" font-weight="bold" lengthAdjust="spacing" textLength="238.5254" x="26.0417" y="168.4465">Benefit Layer (Tax Free/Deferred)</text></g><!--cluster Sovereignty Layer--><g class="cluster" data-entity="Sovereignty Layer" data-source-line="15" data-uid="ent0006" id="cluster_Sovereignty Layer"><path d="M684.375,16.6667 L821.3643,16.6667 A6.25,6.25 0 0 1 825.531,20.8333 L832.8227,47.8841 L1030.2083,47.8841 A4.1667,4.1667 0 0 1 1034.375,52.0508 L1034.375,403.9063 A4.1667,4.1667 0 0 1 1030.2083,408.0729 L684.375,408.0729 A4.1667,4.1667 0 0 1 680.2083,403.9063 L680.2083,20.8333 A4.1667,4.1667 0 0 1 684.375,16.6667" fill="url(#g15m31lyeuwcnx0)" style="stroke:#446E9B;stroke-width:2.0833;"/><line style="stroke:#446E9B;stroke-width:2.0833;" x1="680.2083" x2="832.8227" y1="47.8841" y2="47.8841"/><text fill="#446E9B" font-family="'Verdana'" font-size="12.5" font-weight="bold" lengthAdjust="spacing" textLength="128.656" x="689.5833" y="35.5611">Sovereignty Layer</text></g><!--cluster Treasury Layer--><g class="cluster" data-entity="Treasury Layer" data-source-line="25" data-uid="ent0011" id="cluster_Treasury Layer"><path d="M1282.2917,275.1771 L1396.4233,275.1771 A6.25,6.25 0 0 1 1400.59,279.3438 L1407.8817,306.3945 L1465.625,306.3945 A4.1667,4.1667 0 0 1 1469.7917,310.5612 L1469.7917,561.7917 A4.1667,4.1667 0 0 1 1465.625,565.9583 L1282.2917,565.9583 A4.1667,4.1667 0 0 1 1278.125,561.7917 L1278.125,279.3438 A4.1667,4.1667 0 0 1 1282.2917,275.1771" fill="url(#g15m31lyeuwcnx0)" style="stroke:#446E9B;stroke-width:2.0833;"/><line style="stroke:#446E9B;stroke-width:2.0833;" x1="1278.125" x2="1407.8817" y1="306.3945" y2="306.3945"/><text fill="#446E9B" font-family="'Verdana'" font-size="12.5" font-weight="bold" lengthAdjust="spacing" textLength="105.7983" x="1287.5" y="294.0715">Treasury Layer</text></g><!--cluster Passive Zone (Schedule E)--><g class="cluster" data-entity="Passive Zone .Schedule E." data-source-line="31" data-uid="ent0014" id="cluster_Passive Zone .Schedule E."><path d="M777.0833,433.0729 L971.2504,433.0729 A6.25,6.25 0 0 1 975.4171,437.2396 L982.7087,464.2904 L1163.5417,464.2904 A4.1667,4.1667 0 0 1 1167.7083,468.457 L1167.7083,561.7917 A4.1667,4.1667 0 0 1 1163.5417,565.9583 L777.0833,565.9583 A4.1667,4.1667 0 0 1 772.9167,561.7917 L772.9167,437.2396 A4.1667,4.1667 0 0 1 777.0833,433.0729" fill="url(#g15m31lyeuwcnx0)" style="stroke:#446E9B;stroke-width:2.0833;"/><line style="stroke:#446E9B;stroke-width:2.0833;" x1="772.9167" x2="982.7087" y1="464.2904" y2="464.2904"/><text fill="#446E9B" font-family="'Verdana'" font-size="12.5" font-weight="bold" lengthAdjust="spacing" textLength="185.8337" x="782.2917" y="451.9674">Passive Zone (Schedule E)</text></g><!--cluster Active Zone (Ordinary Income)--><g class="cluster" data-entity="Active Zone .Ordinary Income." data-source-line="37" data-uid="ent0017" id="cluster_Active Zone .Ordinary Income."><path d="M310.4167,433.0729 L534.9487,433.0729 A6.25,6.25 0 0 1 539.1154,437.2396 L546.4071,464.2904 L743.75,464.2904 A4.1667,4.1667 0 0 1 747.9167,468.457 L747.9167,810.9167 A4.1667,4.1667 0 0 1 743.75,815.0833 L310.4167,815.0833 A4.1667,4.1667 0 0 1 306.25,810.9167 L306.25,437.2396 A4.1667,4.1667 0 0 1 310.4167,433.0729" fill="url(#g15m31lyeuwcnx0)" style="stroke:#446E9B;stroke-width:2.0833;"/><line style="stroke:#446E9B;stroke-width:2.0833;" x1="306.25" x2="546.4071" y1="464.2904" y2="464.2904"/><text fill="#446E9B" font-family="'Verdana'" font-size="12.5" font-weight="bold" lengthAdjust="spacing" textLength="216.1987" x="315.625" y="451.9674">Active Zone (Ordinary Income)</text></g><!--entity 401K--><g class="entity" data-entity="401K" data-source-line="9" data-uid="ent0003" id="entity_401K"><rect fill="#008000" height="57.9264" rx="4.1667" ry="4.1667" style="stroke:#304D6D;stroke-width:1.0417;" width="152.4048" x="112.3438" y="193.3021"/><text fill="#FFFFFF" font-family="'Verdana'" font-size="12.5" lengthAdjust="spacing" textLength="97.8577" x="127.9688" y="220.5299">Solo 401k Trust</text><text fill="#FFFFFF" font-family="'Verdana'" font-size="10.4167" lengthAdjust="spacing" textLength="121.1548" x="127.9688" y="233.1469">Tax: Exempt (5500-EZ)</text></g><!--entity HSA--><g class="entity" data-entity="HSA" data-source-line="10" data-uid="ent0004" id="entity_HSA"><rect fill="#008000" height="57.9264" rx="4.1667" ry="4.1667" style="stroke:#304D6D;stroke-width:1.0417;" width="165.034" x="45.6042" y="326.1979"/><text fill="#FFFFFF" font-family="'Verdana'" font-size="12.5" lengthAdjust="spacing" textLength="80.5481" x="61.2292" y="353.4257">HSA Account</text><text fill="#FFFFFF" font-family="'Verdana'" font-size="10.4167" lengthAdjust="spacing" textLength="133.784" x="61.2292" y="366.0427">Tax: Exempt (Form 8889)</text></g><!--entity SDIRA--><g class="entity" data-entity="SDIRA" data-source-line="11" data-uid="ent0005" id="entity_SDIRA"><rect fill="#008000" height="57.9264" rx="4.1667" ry="4.1667" style="stroke:#304D6D;stroke-width:1.0417;" width="149.8006" x="83.4375" y="484.0938"/><text fill="#FFFFFF" font-family="'Verdana'" font-size="12.5" lengthAdjust="spacing" textLength="65.1123" x="99.0625" y="511.3215">SDIRA LLC</text><text fill="#FFFFFF" font-family="'Verdana'" font-size="10.4167" lengthAdjust="spacing" textLength="118.5506" x="99.0625" y="523.9385">Tax: Disregarded (IRA)</text></g><!--entity PR--><g class="entity" data-entity="PR" data-source-line="16" data-uid="ent0007" id="entity_PR"><rect fill="url(#g15m31lyeuwcnx1)" height="72.4772" rx="4.1667" ry="4.1667" style="stroke:#304D6D;stroke-width:1.0417;" width="113.5966" x="703.6146" y="60.4167"/><text fill="#FFFFFF" font-family="'Verdana'" font-size="12.5" lengthAdjust="spacing" textLength="59.9976" x="719.2396" y="87.6444">Principals</text><text fill="#FFFFFF" font-family="'Verdana'" font-size="12.5" lengthAdjust="spacing" textLength="71.0571" x="719.2396" y="102.1952">(Managers)</text><text fill="#FFFFFF" font-family="'Verdana'" font-size="10.4167" lengthAdjust="spacing" textLength="82.3466" x="719.2396" y="114.8122">Tax: Form 1040</text></g><!--entity DT--><g class="entity" data-entity="DT" data-source-line="17" data-uid="ent0008" id="entity_DT"><rect fill="#000080" height="72.4772" rx="4.1667" ry="4.1667" style="stroke:#304D6D;stroke-width:1.0417;" width="126.0376" x="796.3542" y="186.0313"/><text fill="#FFFFFF" font-family="'Verdana'" font-size="12.5" lengthAdjust="spacing" textLength="87.5" x="811.9792" y="213.259">Dynasty Trust</text><text fill="#FFFFFF" font-family="'Verdana'" font-size="12.5" lengthAdjust="spacing" textLength="94.7876" x="811.9792" y="227.8098">(South Dakota)</text><text fill="#FFFFFF" font-family="'Verdana'" font-size="10.4167" lengthAdjust="spacing" textLength="82.3466" x="811.9792" y="240.4268">Tax: Form 1041</text></g><!--entity OE--><g class="entity" data-entity="OE" data-source-line="18" data-uid="ent0009" id="entity_OE"><rect fill="#008000" height="72.4772" rx="4.1667" ry="4.1667" style="stroke:#304D6D;stroke-width:1.0417;" width="128.8818" x="888.6875" y="318.9271"/><text fill="#FFFFFF" font-family="'Verdana'" font-size="12.5" lengthAdjust="spacing" textLength="71.2524" x="904.3125" y="346.1549">Origin Eyes</text><text fill="#FFFFFF" font-family="'Verdana'" font-size="12.5" lengthAdjust="spacing" textLength="97.6318" x="904.3125" y="360.7056">(501c3 Charity)</text><text fill="#FFFFFF" font-family="'Verdana'" font-size="10.4167" lengthAdjust="spacing" textLength="75.7192" x="904.3125" y="373.3226">Tax: Form 990</text></g><!--entity SUBT--><g class="entity" data-entity="SUBT" data-source-line="21" data-uid="ent0010" id="entity_SUBT"><rect fill="#000080" height="72.4772" rx="4.1667" ry="4.1667" style="stroke:#304D6D;stroke-width:1.0417;" width="139.3738" x="696.9792" y="318.9271"/><text fill="#FFFFFF" font-family="'Verdana'" font-size="12.5" lengthAdjust="spacing" textLength="108.1238" x="712.6042" y="346.1549">Gen 2 Sub-Trusts</text><text fill="#FFFFFF" font-family="'Verdana'" font-size="12.5" lengthAdjust="spacing" textLength="90.3259" x="712.6042" y="360.7056">(Beneficiaries)</text><text fill="#FFFFFF" font-family="'Verdana'" font-size="10.4167" lengthAdjust="spacing" textLength="82.3466" x="712.6042" y="373.3226">Tax: Form 1041</text></g><!--entity PNR--><g class="entity" data-entity="PNR" data-source-line="26" data-uid="ent0012" id="entity_PNR"><rect fill="#000000" height="72.4772" rx="4.1667" ry="4.1667" style="stroke:#304D6D;stroke-width:1.0417;" width="158.9844" x="1294.4688" y="318.9271"/><text fill="#FFFFFF" font-family="'Verdana'" font-size="12.5" lengthAdjust="spacing" textLength="110.4736" x="1310.0938" y="346.1549">PNR Holdings LLC</text><text fill="#FFFFFF" font-family="'Verdana'" font-size="12.5" lengthAdjust="spacing" textLength="127.7344" x="1310.0938" y="360.7056">(Wyoming Treasury)</text><text fill="#FFFFFF" font-family="'Verdana'" font-size="10.4167" lengthAdjust="spacing" textLength="123.5402" x="1310.0938" y="373.3226">Tax: Partnership (1065)</text></g><!--entity CAP--><g class="entity" data-entity="CAP" data-source-line="27" data-uid="ent0013" id="entity_CAP"><rect fill="#008000" height="72.4772" rx="4.1667" ry="4.1667" style="stroke:#304D6D;stroke-width:1.0417;" width="144.3359" x="1309.0833" y="476.8229"/><text fill="#FFFFFF" font-family="'Verdana'" font-size="12.5" lengthAdjust="spacing" textLength="113.0859" x="1324.7083" y="504.0507">Captive Insurance</text><text fill="#FFFFFF" font-family="'Verdana'" font-size="12.5" lengthAdjust="spacing" textLength="111.2" x="1324.7083" y="518.6015">(831b Risk Mgmt)</text><text fill="#FFFFFF" font-family="'Verdana'" font-size="10.4167" lengthAdjust="spacing" textLength="99.6602" x="1324.7083" y="531.2185">Tax: Form 1120-PC</text></g><!--entity OBU--><g class="entity" data-entity="OBU" data-source-line="32" data-uid="ent0015" id="entity_OBU"><rect fill="#008000" height="72.4772" rx="4.1667" ry="4.1667" style="stroke:#304D6D;stroke-width:1.0417;" width="154.7902" x="789.2708" y="476.8229"/><text fill="#FFFFFF" font-family="'Verdana'" font-size="12.5" lengthAdjust="spacing" textLength="67.2546" x="804.8958" y="504.0507">Obuke LLC</text><text fill="#FFFFFF" font-family="'Verdana'" font-size="12.5" lengthAdjust="spacing" textLength="80.7983" x="804.8958" y="518.6015">(Real Estate)</text><text fill="#FFFFFF" font-family="'Verdana'" font-size="10.4167" lengthAdjust="spacing" textLength="123.5402" x="804.8958" y="531.2185">Tax: Partnership (1065)</text></g><!--entity TORI--><g class="entity" data-entity="TORI" data-source-line="33" data-uid="ent0016" id="entity_TORI"><rect fill="#008000" height="72.4772" rx="4.1667" ry="4.1667" style="stroke:#304D6D;stroke-width:1.0417;" width="154.7902" x="996.5625" y="476.8229"/><text fill="#FFFFFF" font-family="'Verdana'" font-size="12.5" lengthAdjust="spacing" textLength="88.0676" x="1012.1875" y="504.0507">ToriMedia LLC</text><text fill="#FFFFFF" font-family="'Verdana'" font-size="12.5" lengthAdjust="spacing" textLength="69.7815" x="1012.1875" y="518.6015">(IP HoldCo)</text><text fill="#FFFFFF" font-family="'Verdana'" font-size="10.4167" lengthAdjust="spacing" textLength="123.5402" x="1012.1875" y="531.2185">Tax: Partnership (1065)</text></g><!--entity CXI--><g class="entity" data-entity="CXI" data-source-line="38" data-uid="ent0018" id="entity_CXI"><rect fill="#0000FF" height="72.4772" rx="4.1667" ry="4.1667" style="stroke:#304D6D;stroke-width:1.0417;" width="140.213" x="385.1042" y="476.8229"/><text fill="#FFFFFF" font-family="'Verdana'" font-size="12.5" lengthAdjust="spacing" textLength="47.6074" x="400.7292" y="504.0507">CXI LLC</text><text fill="#FFFFFF" font-family="'Verdana'" font-size="12.5" lengthAdjust="spacing" textLength="92.0959" x="400.7292" y="518.6015">(Management)</text><text fill="#FFFFFF" font-family="'Verdana'" font-size="10.4167" lengthAdjust="spacing" textLength="108.963" x="400.7292" y="531.2185">Tax: S-Corp (1120-S)</text></g><!--entity KW--><g class="entity" data-entity="KW" data-source-line="39" data-uid="ent0019" id="entity_KW"><rect fill="#FF0000" height="72.4772" rx="4.1667" ry="4.1667" style="stroke:#304D6D;stroke-width:1.0417;" width="120.9259" x="395.7917" y="725.9375"/><text fill="#FFFFFF" font-family="'Verdana'" font-size="12.5" lengthAdjust="spacing" textLength="68.3228" x="411.4167" y="753.1653">Kwode LLC</text><text fill="#FFFFFF" font-family="'Verdana'" font-size="12.5" lengthAdjust="spacing" textLength="89.1541" x="411.4167" y="767.7161">(Hybrid OpCo)</text><text fill="#FFFFFF" font-family="'Verdana'" font-size="10.4167" lengthAdjust="spacing" textLength="89.6759" x="411.4167" y="780.333">Tax: Disregarded</text></g><!--entity NEAT--><g class="entity" data-entity="NEAT" data-source-line="40" data-uid="ent0020" id="entity_NEAT"><rect fill="#FF0000" height="72.4772" rx="4.1667" ry="4.1667" style="stroke:#304D6D;stroke-width:1.0417;" width="126.8311" x="604.2917" y="601.375"/><text fill="#FFFFFF" font-family="'Verdana'" font-size="12.5" lengthAdjust="spacing" textLength="95.5811" x="619.9167" y="628.6028">Neat Circle LLC</text><text fill="#FFFFFF" font-family="'Verdana'" font-size="12.5" lengthAdjust="spacing" textLength="82.5562" x="619.9167" y="643.1536">(Automation)</text><text fill="#FFFFFF" font-family="'Verdana'" font-size="10.4167" lengthAdjust="spacing" textLength="89.6759" x="619.9167" y="655.7705">Tax: Disregarded</text></g><!--entity LODGE--><g class="entity" data-entity="LODGE" data-source-line="41" data-uid="ent0021" id="entity_LODGE"><rect fill="#FF0000" height="72.4772" rx="4.1667" ry="4.1667" style="stroke:#304D6D;stroke-width:1.0417;" width="162.2742" x="568.8646" y="725.9375"/><text fill="#FFFFFF" font-family="'Verdana'" font-size="12.5" lengthAdjust="spacing" textLength="131.0242" x="584.4896" y="753.1653">Lodging Connections</text><text fill="#FFFFFF" font-family="'Verdana'" font-size="12.5" lengthAdjust="spacing" textLength="76.5259" x="584.4896" y="767.7161">(Hospitality)</text><text fill="#FFFFFF" font-family="'Verdana'" font-size="10.4167" lengthAdjust="spacing" textLength="89.6759" x="584.4896" y="780.333">Tax: Disregarded</text></g><!--entity ULOR--><g class="entity" data-entity="ULOR" data-source-line="42" data-uid="ent0022" id="entity_ULOR"><rect fill="#FF0000" height="72.4772" rx="4.1667" ry="4.1667" style="stroke:#304D6D;stroke-width:1.0417;" width="120.9259" x="431.2083" y="601.375"/><text fill="#FFFFFF" font-family="'Verdana'" font-size="12.5" lengthAdjust="spacing" textLength="52.0386" x="446.8333" y="628.6028">Ulor LLC</text><text fill="#FFFFFF" font-family="'Verdana'" font-size="12.5" lengthAdjust="spacing" textLength="78.4363" x="446.8333" y="643.1536">(Acquisition)</text><text fill="#FFFFFF" font-family="'Verdana'" font-size="10.4167" lengthAdjust="spacing" textLength="89.6759" x="446.8333" y="655.7705">Tax: Disregarded</text></g><!--link PR to DT--><!--link PR to DT--><g class="link" data-entity-1="PR" data-entity-2="DT" data-source-line="72" data-uid="lnk38" id="link_PR_DT"><path d="M810.2604,133.3229 C810.2604,149.8333 810.2604,163.0313 810.2604,179.5208" fill="none" id="PR-to-DT" style="stroke:#446E9B;stroke-width:3.125;"/><polygon fill="#446E9B" points="810.2604,185.7708,814.4271,176.3958,810.2604,180.5625,806.0938,176.3958,810.2604,185.7708" style="stroke:#446E9B;stroke-width:3.125;"/><text fill="#FFFFFF" font-family="'Verdana'" font-size="12.5" lengthAdjust="spacing" textLength="54.6082" x="749.8438" y="151.3528">Grantors</text></g><!--link DT to PNR--><!--link DT to PNR--><g class="link" data-entity-1="DT" data-entity-2="PNR" data-source-line="73" data-uid="lnk39" id="link_DT_PNR"><path d="M922.6875,234.875 C1054.75,234.875 1347.4583,234.875 1347.4583,234.875 C1347.4583,234.875 1347.4583,276.7917 1347.4583,312.1667" fill="none" id="DT-to-PNR" style="stroke:#446E9B;stroke-width:3.125;"/><polygon fill="#446E9B" points="1347.4583,318.4167,1351.625,309.0417,1347.4583,313.2083,1343.2917,309.0417,1347.4583,318.4167" style="stroke:#446E9B;stroke-width:3.125;"/><text fill="#FFFFFF" font-family="'Verdana'" font-size="12.5" lengthAdjust="spacing" textLength="74.2065" x="1096.6354" y="226.6861">Owns 100%</text></g><!--link PNR to CXI--><!--link PNR to CXI--><g class="link" data-entity-1="PNR" data-entity-2="CXI" data-source-line="81" data-uid="lnk45" id="link_PNR_CXI"><path d="M1345.1667,391.6875 C1345.1667,409.25 1345.1667,426.5417 1345.1667,426.5417 C1345.1667,426.5417 478.5729,426.5417 478.5729,426.5417 C478.5729,426.5417 478.5729,446.5417 478.5729,470.1146" fill="none" id="PNR-to-CXI" style="stroke:#446E9B;stroke-width:3.125;"/><polygon fill="#446E9B" points="478.5729,476.3646,482.7396,466.9896,478.5729,471.1563,474.4063,466.9896,478.5729,476.3646" style="stroke:#446E9B;stroke-width:3.125;"/></g><!--link 401K to HSA--><!--link HSA to SDIRA--><!--link 401K to PR--><!--link PR to 401K--><g class="link" data-entity-1="PR" data-entity-2="401K" data-source-line="66" data-uid="lnk34" id="link_PR_401K"><path d="M765.4479,133.1354 C765.4479,173.4583 765.4479,232.7917 765.4479,232.7917 C765.4479,232.7917 428.3333,232.7917 271.3958,232.7917" fill="none" id="PR-to-401K" style="stroke:#446E9B;stroke-width:3.125;"/><polygon fill="#446E9B" points="265.1458,232.7917,274.5208,236.9583,270.3542,232.7917,274.5208,228.625,265.1458,232.7917" style="stroke:#446E9B;stroke-width:3.125;"/><text fill="#FFFFFF" font-family="'Verdana'" font-size="12.5" lengthAdjust="spacing" textLength="67.4744" x="492.2083" y="224.6028">Participant</text></g><!--link DT to SUBT--><!--link DT to SUBT--><g class="link" data-entity-1="DT" data-entity-2="SUBT" data-source-line="75" data-uid="lnk41" id="link_DT_SUBT"><path d="M823.0208,258.9375 C823.0208,277.5313 823.0208,293.7917 823.0208,312.3646" fill="none" id="DT-to-SUBT" style="stroke:#446E9B;stroke-width:3.125;stroke-dasharray:7.2917,7.2917;"/><polygon fill="#446E9B" points="823.0208,318.6146,827.1875,309.2396,823.0208,313.4063,818.8542,309.2396,823.0208,318.6146" style="stroke:#446E9B;stroke-width:3.125;"/><text fill="#FFFFFF" font-family="'Verdana'" font-size="12.5" lengthAdjust="spacing" textLength="68.0847" x="749.0625" y="280.5819">Distributes</text></g><!--link OE to DT--><!--link DT to OE--><g class="link" data-entity-1="DT" data-entity-2="OE" data-source-line="74" data-uid="lnk40" id="link_DT_OE"><path d="M899.9167,258.9375 C899.9167,277.5313 899.9167,293.7917 899.9167,312.3646" fill="none" id="DT-to-OE" style="stroke:#446E9B;stroke-width:3.125;stroke-dasharray:7.2917,7.2917;"/><polygon fill="#446E9B" points="899.9167,318.6146,904.0833,309.2396,899.9167,313.4063,895.75,309.2396,899.9167,318.6146" style="stroke:#446E9B;stroke-width:3.125;"/><text fill="#FFFFFF" font-family="'Verdana'" font-size="12.5" lengthAdjust="spacing" textLength="70.2942" x="823.875" y="306.6236">Beneficiary</text></g><!--link PNR to CAP--><!--link PNR to CAP--><g class="link" data-entity-1="PNR" data-entity-2="CAP" data-source-line="78" data-uid="lnk42" id="link_PNR_CAP"><path d="M1417.3333,391.7813 C1417.3333,417.1979 1417.3333,444.6771 1417.3333,470.1146" fill="none" id="PNR-to-CAP" style="stroke:#446E9B;stroke-width:3.125;"/><polygon fill="#446E9B" points="1417.3333,476.3646,1421.5,466.9896,1417.3333,471.1563,1413.1667,466.9896,1417.3333,476.3646" style="stroke:#446E9B;stroke-width:3.125;"/></g><!--link OBU to CXI--><!--link PR to HSA--><g class="link" data-entity-1="PR" data-entity-2="HSA" data-source-line="67" data-uid="lnk35" id="link_PR_HSA"><path d="M703.1979,97.375 C539.1667,97.375 78.9688,97.375 78.9688,97.375 C78.9688,97.375 78.9688,252.4271 78.9688,319.8438" fill="none" id="PR-to-HSA" style="stroke:#446E9B;stroke-width:3.125;"/><polygon fill="#446E9B" points="78.9688,326.0938,83.1354,316.7188,78.9688,320.8854,74.8021,316.7188,78.9688,326.0938" style="stroke:#446E9B;stroke-width:3.125;"/><text fill="#FFFFFF" font-family="'Verdana'" font-size="12.5" lengthAdjust="spacing" textLength="40.8142" x="229.8542" y="89.1861">Owner</text></g><!--link CXI to 401K--><g class="link" data-entity-1="CXI" data-entity-2="401K" data-source-line="68" data-uid="lnk36" id="link_CXI_401K"><path d="M384.8125,514.0417 C325.0729,514.0417 248.9896,514.0417 248.9896,514.0417 C248.9896,514.0417 248.9896,331.8229 248.9896,257.8333" fill="none" id="CXI-to-401K" style="stroke:#446E9B;stroke-width:3.125;"/><polygon fill="#446E9B" points="248.9896,251.5833,244.8229,260.9583,248.9896,256.7917,253.1563,260.9583,248.9896,251.5833" style="stroke:#446E9B;stroke-width:3.125;"/><text fill="#FFFFFF" font-family="'Verdana'" font-size="12.5" lengthAdjust="spacing" textLength="101.4709" x="141.6979" y="442.5403">Employer Match</text></g><!--link 401K to SDIRA--><g class="link" data-entity-1="401K" data-entity-2="SDIRA" data-source-line="69" data-uid="lnk37" id="link_401K_SDIRA"><path d="M221.9375,251.75 C221.9375,307.625 221.9375,422.0729 221.9375,477.6771" fill="none" id="401K-to-SDIRA" style="stroke:#446E9B;stroke-width:3.125;"/><polygon fill="#446E9B" points="221.9375,483.9271,226.1042,474.5521,221.9375,478.7188,217.7708,474.5521,221.9375,483.9271" style="stroke:#446E9B;stroke-width:3.125;"/><text fill="#FFFFFF" font-family="'Verdana'" font-size="12.5" lengthAdjust="spacing" textLength="102.3621" x="228.1875" y="359.6549">Funds (Rollover)</text></g><!--link PNR to OBU--><g class="link" data-entity-1="PNR" data-entity-2="OBU" data-source-line="79" data-uid="lnk43" id="link_PNR_OBU"><path d="M1300.7292,391.7813 C1300.7292,421.9792 1300.7292,459.875 1300.7292,459.875 C1300.7292,459.875 916.375,459.875 916.375,459.875 C916.375,459.875 916.375,460.9479 916.375,470.1563" fill="none" id="PNR-to-OBU" style="stroke:#446E9B;stroke-width:3.125;"/><polygon fill="#446E9B" points="916.375,476.4063,920.5417,467.0313,916.375,471.1979,912.2083,467.0313,916.375,476.4063" style="stroke:#446E9B;stroke-width:3.125;"/></g><!--link PNR to TORI--><g class="link" data-entity-1="PNR" data-entity-2="TORI" data-source-line="80" data-uid="lnk44" id="link_PNR_TORI"><path d="M1302.8229,391.6146 C1302.8229,438.5208 1302.8229,514.0417 1302.8229,514.0417 C1302.8229,514.0417 1224.3542,514.0417 1158.0104,514.0417" fill="none" id="PNR-to-TORI" style="stroke:#446E9B;stroke-width:3.125;"/><polygon fill="#446E9B" points="1151.7604,514.0417,1161.1354,518.2083,1156.9688,514.0417,1161.1354,509.875,1151.7604,514.0417" style="stroke:#446E9B;stroke-width:3.125;"/></g><!--link PNR to KW--><g class="link" data-entity-1="PNR" data-entity-2="KW" data-source-line="82" data-uid="lnk46" id="link_PNR_KW"><path d="M1294.0104,355.7083 C1257.7813,355.7083 1222.9063,355.7083 1222.9063,355.7083 C1222.9063,355.7083 1222.9063,708.8333 1222.9063,708.8333 C1222.9063,708.8333 488.2083,708.8333 488.2083,708.8333 C488.2083,708.8333 488.2083,709.9271 488.2083,719.1667" fill="none" id="PNR-to-KW" style="stroke:#446E9B;stroke-width:3.125;"/><polygon fill="#446E9B" points="488.2083,725.4167,492.375,716.0417,488.2083,720.2083,484.0417,716.0417,488.2083,725.4167" style="stroke:#446E9B;stroke-width:3.125;"/></g><!--link PNR to NEAT--><g class="link" data-entity-1="PNR" data-entity-2="NEAT" data-source-line="83" data-uid="lnk47" id="link_PNR_NEAT"><path d="M1304.9063,391.6771 C1304.9063,470.6875 1304.9063,650.5 1304.9063,650.5 C1304.9063,650.5 899.0521,650.5 737.6771,650.5" fill="none" id="PNR-to-NEAT" style="stroke:#446E9B;stroke-width:3.125;"/><polygon fill="#446E9B" points="731.4271,650.5,740.8021,654.6667,736.6354,650.5,740.8021,646.3333,731.4271,650.5" style="stroke:#446E9B;stroke-width:3.125;"/></g><!--link PNR to LODGE--><g class="link" data-entity-1="PNR" data-entity-2="LODGE" data-source-line="84" data-uid="lnk48" id="link_PNR_LODGE"><path d="M1306.9896,391.6354 C1306.9896,493.6563 1306.9896,774.4583 1306.9896,774.4583 C1306.9896,774.4583 913.75,774.4583 737.8021,774.4583" fill="none" id="PNR-to-LODGE" style="stroke:#446E9B;stroke-width:3.125;"/><polygon fill="#446E9B" points="731.5521,774.4583,740.9271,778.625,736.7604,774.4583,740.9271,770.2917,731.5521,774.4583" style="stroke:#446E9B;stroke-width:3.125;"/></g><!--link PNR to ULOR--><g class="link" data-entity-1="PNR" data-entity-2="ULOR" data-source-line="85" data-uid="lnk49" id="link_PNR_ULOR"><path d="M1298.6458,391.4792 C1298.6458,415.7396 1298.6458,443.2083 1298.6458,443.2083 C1298.6458,443.2083 534.25,443.2083 534.25,443.2083 C534.25,443.2083 534.25,538.4896 534.25,594.8021" fill="none" id="PNR-to-ULOR" style="stroke:#446E9B;stroke-width:3.125;"/><polygon fill="#446E9B" points="534.25,601.0521,538.4167,591.6771,534.25,595.8438,530.0833,591.6771,534.25,601.0521" style="stroke:#446E9B;stroke-width:3.125;"/></g><!--link CXI to KW--><g class="link" data-entity-1="CXI" data-entity-2="KW" data-source-line="88" data-uid="lnk50" id="link_CXI_KW"><path d="M413.5,549.8125 C413.5,597.0521 413.5,672.3125 413.5,719.4271" fill="none" id="CXI-to-KW" style="stroke:#446E9B;stroke-width:3.125;stroke-dasharray:7.2917,7.2917;"/><polygon fill="#446E9B" points="413.5,725.6771,417.6667,716.3021,413.5,720.4688,409.3333,716.3021,413.5,725.6771" style="stroke:#446E9B;stroke-width:3.125;"/><text fill="#FFFFFF" font-family="'Verdana'" font-size="12.5" lengthAdjust="spacing" textLength="56.1646" x="352.0417" y="629.5611">Manages</text></g><!--link CXI to NEAT--><g class="link" data-entity-1="CXI" data-entity-2="NEAT" data-source-line="89" data-uid="lnk51" id="link_CXI_NEAT"><path d="M525.7604,521.3333 C581.7396,521.3333 650.6354,521.3333 650.6354,521.3333 C650.6354,521.3333 650.6354,560.7917 650.6354,594.8958" fill="none" id="CXI-to-NEAT" style="stroke:#446E9B;stroke-width:3.125;stroke-dasharray:7.2917,7.2917;"/><polygon fill="#446E9B" points="650.6354,601.1458,654.8021,591.7708,650.6354,595.9375,646.4688,591.7708,650.6354,601.1458" style="stroke:#446E9B;stroke-width:3.125;"/><text fill="#FFFFFF" font-family="'Verdana'" font-size="12.5" lengthAdjust="spacing" textLength="56.1646" x="566.6458" y="539.1861">Manages</text></g><!--link CXI to LODGE--><g class="link" data-entity-1="CXI" data-entity-2="LODGE" data-source-line="90" data-uid="lnk52" id="link_CXI_LODGE"><path d="M525.5104,534.875 C556.7396,534.875 586.5729,534.875 586.5729,534.875 C586.5729,534.875 586.5729,655.1563 586.5729,719.4063" fill="none" id="CXI-to-LODGE" style="stroke:#446E9B;stroke-width:3.125;stroke-dasharray:7.2917,7.2917;"/><polygon fill="#446E9B" points="586.5729,725.6563,590.7396,716.2813,586.5729,720.4479,582.4063,716.2813,586.5729,725.6563" style="stroke:#446E9B;stroke-width:3.125;"/><text fill="#FFFFFF" font-family="'Verdana'" font-size="12.5" lengthAdjust="spacing" textLength="56.1646" x="525.1146" y="591.5403">Manages</text></g><!--link CXI to ULOR--><g class="link" data-entity-1="CXI" data-entity-2="ULOR" data-source-line="91" data-uid="lnk53" id="link_CXI_ULOR"><path d="M478.2604,549.7604 C478.2604,565.9688 478.2604,578.7396 478.2604,594.9271" fill="none" id="CXI-to-ULOR" style="stroke:#446E9B;stroke-width:3.125;stroke-dasharray:7.2917,7.2917;"/><polygon fill="#446E9B" points="478.2604,601.1771,482.4271,591.8021,478.2604,595.9688,474.0938,591.8021,478.2604,601.1771" style="stroke:#446E9B;stroke-width:3.125;"/><text fill="#FFFFFF" font-family="'Verdana'" font-size="12.5" lengthAdjust="spacing" textLength="56.1646" x="416.8021" y="567.2799">Manages</text></g><!--link TORI to KW--><g class="link" data-entity-1="TORI" data-entity-2="KW" data-source-line="93" data-uid="lnk54" id="link_TORI_KW"><path d="M1073.9583,549.7396 C1073.9583,602.1354 1073.9583,692.1667 1073.9583,692.1667 C1073.9583,692.1667 459.7083,692.1667 459.7083,692.1667 C459.7083,692.1667 459.7083,702.3438 459.7083,719.2813" fill="none" id="TORI-to-KW" style="stroke:#446E9B;stroke-width:3.125;stroke-dasharray:7.2917,7.2917;"/><polygon fill="#446E9B" points="459.7083,725.5313,463.875,716.1563,459.7083,720.3229,455.5417,716.1563,459.7083,725.5313" style="stroke:#446E9B;stroke-width:3.125;"/><text fill="#FFFFFF" font-family="'Verdana'" font-size="12.5" lengthAdjust="spacing" textLength="68.8354" x="746.3646" y="683.9778">Licenses IP</text></g><!--link TORI to NEAT--><g class="link" data-entity-1="TORI" data-entity-2="NEAT" data-source-line="94" data-uid="lnk55" id="link_TORI_NEAT"><path d="M1035.2604,549.5938 C1035.2604,582.7604 1035.2604,626.5417 1035.2604,626.5417 C1035.2604,626.5417 842.7604,626.5417 737.5625,626.5417" fill="none" id="TORI-to-NEAT" style="stroke:#446E9B;stroke-width:3.125;stroke-dasharray:7.2917,7.2917;"/><polygon fill="#446E9B" points="731.3125,626.5417,740.6875,630.7083,736.5208,626.5417,740.6875,622.375,731.3125,626.5417" style="stroke:#446E9B;stroke-width:3.125;"/><text fill="#FFFFFF" font-family="'Verdana'" font-size="12.5" lengthAdjust="spacing" textLength="68.8354" x="846.7604" y="618.3528">Licenses IP</text></g><!--link TORI to LODGE--><g class="link" data-entity-1="TORI" data-entity-2="LODGE" data-source-line="95" data-uid="lnk56" id="link_TORI_LODGE"><path d="M1112.6563,549.6354 C1112.6563,616.2396 1112.6563,750.5 1112.6563,750.5 C1112.6563,750.5 870.7188,750.5 737.8958,750.5" fill="none" id="TORI-to-LODGE" style="stroke:#446E9B;stroke-width:3.125;stroke-dasharray:7.2917,7.2917;"/><polygon fill="#446E9B" points="731.6458,750.5,741.0208,754.6667,736.8542,750.5,741.0208,746.3333,731.6458,750.5" style="stroke:#446E9B;stroke-width:3.125;"/><text fill="#FFFFFF" font-family="'Verdana'" font-size="12.5" lengthAdjust="spacing" textLength="68.8354" x="947.5833" y="742.3111">Licenses IP</text></g><!--link NEAT to KW--><g class="link" data-entity-1="NEAT" data-entity-2="KW" data-source-line="97" data-uid="lnk57" id="link_NEAT_KW"><path d="M603.7917,638 C580.8333,638 560.5,638 560.5,638 C560.5,638 560.5,763 560.5,763 C560.5,763 546.25,763 523.4375,763" fill="none" id="NEAT-to-KW" style="stroke:#446E9B;stroke-width:3.125;stroke-dasharray:7.2917,7.2917;"/><polygon fill="#446E9B" points="517.1875,763,526.5625,767.1667,522.3958,763,526.5625,758.8333,517.1875,763" style="stroke:#446E9B;stroke-width:3.125;"/><text fill="#FFFFFF" font-family="'Verdana'" font-size="12.5" lengthAdjust="spacing" textLength="67.9626" x="486.5417" y="692.3111">Automates</text></g><!--link NEAT to LODGE--><g class="link" data-entity-1="NEAT" data-entity-2="LODGE" data-source-line="98" data-uid="lnk58" id="link_NEAT_LODGE"><path d="M667.7083,674.3125 C667.7083,690.5313 667.7083,703.3021 667.7083,719.4896" fill="none" id="NEAT-to-LODGE" style="stroke:#446E9B;stroke-width:3.125;stroke-dasharray:7.2917,7.2917;"/><polygon fill="#446E9B" points="667.7083,725.7396,671.875,716.3646,667.7083,720.5313,663.5417,716.3646,667.7083,725.7396" style="stroke:#446E9B;stroke-width:3.125;"/><text fill="#FFFFFF" font-family="'Verdana'" font-size="12.5" lengthAdjust="spacing" textLength="67.9626" x="593.75" y="691.8424">Automates</text></g><!--reverse link OBU to ULOR--><g class="link" data-entity-1="OBU" data-entity-2="ULOR" data-source-line="100" data-uid="lnk60" id="link_OBU_ULOR"><path d="M782.5208,506.75 C686.8125,506.75 543.1875,506.75 543.1875,506.75 C543.1875,506.75 543.1875,562.4375 543.1875,601.1667" fill="none" id="OBU-backto-ULOR" style="stroke:#446E9B;stroke-width:3.125;stroke-dasharray:7.2917,7.2917;"/><polygon fill="#446E9B" points="788.7708,506.75,779.3958,502.5833,783.5625,506.75,779.3958,510.9167,788.7708,506.75" style="stroke:#446E9B;stroke-width:3.125;"/><text fill="#FFFFFF" font-family="'Verdana'" font-size="12.5" lengthAdjust="spacing" textLength="105.1636" x="625.0313" y="498.5611">Assigns Contract</text></g><!--SRC=[bLRRRk9847ttLzHEj1hoG0PoMILe5Ca19w0GZ6mdcUj3nwv02zFjxMudmwxstxVQpSMGH9hm07PrzQdxAVumKvmZw8AbcBC7Jy-uA9XYSqZbl902XOdD8aTGc1ec9ZdML78kq2mA1AdCLDOEXCnGOm4dhPfGCJ5R2hsFq6msOHZS1KDeTU0Y60MNWmI6_jSWWiOObPQ2vP2mNn1FCJSasBTNFF9pnYO87ovGu2CtC6GBLD2mcfSAyLCF7r4fpFO_mByUqETxB7C9nwts319LQlD3VDRy7-oqM-TqgGF1BvmN1Xed9wrMC_Ys__cJFJx_2KpRMzUmTqMumc7rOn_yD9MbU1FdKgevd9wUdcqXsOjreBWtY7mO3hkxC3sk5KwOoZ231kbieRXRIvp_jjFOxa0StWLHCBWQ9L-tanNB9rJ89y8iNCBMoHahBb9Ui5p_48qR9aYTKhthL1LJktNSgZipZXn4Ro6O9k1bTXknBCqKUcmc3NiJgLr7wYMmDs9F2uSNAZxX0e85MfzEMktq2BfJfhXPl0vtThRbLnZKCrrzVOIuV6XM3cgue4PCfyxM5Geuh1sIGTTOAIU3g7_F__ZsOXN1Jb4EEv14WH_VHZiLIHGoNQeNvHX5q9TvniL4k-vet2_ad5vXTUE5IsEcZA2gJNa1ZNRhhvEjbh68UnSvsNKMkgmm_0bX80YC4e5aulIe_G0HrpEucSpD6p6t3rlDSRSEtVN7R_JY4Ndbn_7WBW3w2P9uE_Wnqzhwy8tu1HfnEiMi98e9DZCRFfGpN2OWGcA2G1jcy9snXnUtMqENICLlCEDiYJmOLydkodVY9c4qU2FoumxutSG67ew3o4y6uMWdU3yrczX3HQLcr0O3GNoBcmHqlmoMJhgXd1CHl_0oRdQbiWxQsiHRBjhxLFOI7TprCp7o4h2_U50yWx1u9UuQ-zJHhkzXByBCOOsG6UXobUOhHByqSiuCb-9t0KU1dzGWXpARs1xlIY5epn2GdSI-r0KtB7zjyD_07OQzgw06V9jBjN8o_Rlach_7ozjX63cmTPNz8T7hJJ1AeD7dMOR2hQLn1CtlqqhmCvFFeacSvX6jxGXf63qxa3jYAfR5Nwuq3NvEL6qhxbKBQ4URLebdrycEkDeDMuxa-6YQrGwpw6kIgy7NFIJMdPAwvJAhNlNdHfD8TLUJ8joAPIacLl3iuBsGko1j4gDWw2QZFnYxwQX7VvdBvogEvhbRm6uSkLrJvCdon6QW0-4pJQbdcxsc7SoBNDf_1JVC4D6x7DAnsvx4PwN8D3GYcUTsB-vNsQbjoBe3bA4EN15H6gbqbIyIsh0hsvfMGUjFApuuEBUBfmERzR5OoQlrK3MPKVoXDAYjnVK6SEP6pfxDtkgPihX-jfIpKVgoURw-Np_QeLg_L9EmVhETR8s61QfgK8bIAxisTTP7cl0EEAhHQs4rfI_5RiXUogjnsOYzYYRNu4EUej2eOJ3Ud2mjl7gsCbC_zAeBQymbyP2njNnrQtFaLNuTbCL1bL9xHkjdGiKZkZ6AfUP_]--></g></svg>