<svg xmlns="http://www.w3.org/2000/svg" xmlns:xlink="http://www.w3.org/1999/xlink" contentStyleType="text/css" data-diagram-type="SEQUENCE" height="684px" preserveAspectRatio="none" style="width:1261px;height:684px;background:#FFFFFF;" version="1.1" viewBox="0 0 1261 684" width="1261px" zoomAndPan="magnify"><defs/><g><rect fill="none" height="81.3984" style="stroke:#000000;stroke-width:1.5;" width="945.2124" x="133" y="69.5938"/><rect fill="none" height="123.5313" style="stroke:#000000;stroke-width:1.5;" width="1122.3311" x="133" y="164.9922"/><rect fill="none" height="87.3984" style="stroke:#000000;stroke-width:1.5;" width="1065.918" x="9" y="302.5234"/><rect fill="none" height="81.3984" style="stroke:#000000;stroke-width:1.5;" width="846.1675" x="269.458" y="403.9219"/><rect fill="none" height="116.5313" style="stroke:#000000;stroke-width:1.5;" width="646.8374" x="269.458" y="499.3203"/><g><title>Operating Co</title><rect fill="#000000" fill-opacity="0.00000" height="580.2578" width="8" x="202.229" y="52.5938"/><line style="stroke:#181818;stroke-width:0.5;stroke-dasharray:5,5;" x1="206" x2="206" y1="52.5938" y2="632.8516"/></g><g><title>Principal .You.</title><rect fill="#000000" fill-opacity="0.00000" height="580.2578" width="8" x="341.1411" y="52.5938"/><line style="stroke:#181818;stroke-width:0.5;stroke-dasharray:5,5;" x1="344.458" x2="344.458" y1="52.5938" y2="632.8516"/></g><g><title>Dynasty Trust . ILIT</title><rect fill="#000000" fill-opacity="0.00000" height="580.2578" width="8" x="576.626" y="52.5938"/><line style="stroke:#181818;stroke-width:0.5;stroke-dasharray:5,5;" x1="580.5127" x2="580.5127" y1="52.5938" y2="632.8516"/></g><g><title>Insurance Carrier</title><rect fill="#000000" fill-opacity="0.00000" height="580.2578" width="8" x="834.6641" y="52.5938"/><line style="stroke:#181818;stroke-width:0.5;stroke-dasharray:5,5;" x1="838.0327" x2="838.0327" y1="52.5938" y2="632.8516"/></g><g><title>Captive Co</title><rect fill="#000000" fill-opacity="0.00000" height="580.2578" width="8" x="1005.5547" y="52.5938"/><line style="stroke:#181818;stroke-width:0.5;stroke-dasharray:5,5;" x1="1009.2954" x2="1009.2954" y1="52.5938" y2="632.8516"/></g><g class="participant participant-head" data-participant="OPCO"><rect fill="#E2E2F0" height="46.5938" rx="2.5" ry="2.5" style="stroke:#181818;stroke-width:0.5;" width="126.458" x="143" y="5"/><text fill="#000000" font-family="sans-serif" font-size="14" lengthAdjust="spacing" textLength="92.7842" x="159.8369" y="24.9951">Operating Co</text><text fill="#000000" font-family="sans-serif" font-size="14" lengthAdjust="spacing" textLength="112.458" x="150" y="41.292">(Tax Deduction)</text></g><g class="participant participant-tail" data-participant="OPCO"><rect fill="#E2E2F0" height="46.5938" rx="2.5" ry="2.5" style="stroke:#181818;stroke-width:0.5;" width="126.458" x="143" y="631.8516"/><text fill="#000000" font-family="sans-serif" font-size="14" lengthAdjust="spacing" textLength="92.7842" x="159.8369" y="651.8467">Operating Co</text><text fill="#000000" font-family="sans-serif" font-size="14" lengthAdjust="spacing" textLength="112.458" x="150" y="668.1436">(Tax Deduction)</text></g><g class="participant participant-head" data-participant="YOU"><rect fill="#E2E2F0" height="46.5938" rx="2.5" ry="2.5" style="stroke:#181818;stroke-width:0.5;" width="131.3662" x="279.458" y="5"/><text fill="#000000" font-family="sans-serif" font-size="14" lengthAdjust="spacing" textLength="101.2676" x="294.5073" y="24.9951">Principal (You)</text><text fill="#000000" font-family="sans-serif" font-size="14" lengthAdjust="spacing" textLength="117.3662" x="286.458" y="41.292">(Personal Funds)</text></g><g class="participant participant-tail" data-participant="YOU"><rect fill="#E2E2F0" height="46.5938" rx="2.5" ry="2.5" style="stroke:#181818;stroke-width:0.5;" width="131.3662" x="279.458" y="631.8516"/><text fill="#000000" font-family="sans-serif" font-size="14" lengthAdjust="spacing" textLength="101.2676" x="294.5073" y="651.8467">Principal (You)</text><text fill="#000000" font-family="sans-serif" font-size="14" lengthAdjust="spacing" textLength="117.3662" x="286.458" y="668.1436">(Personal Funds)</text></g><g class="participant participant-head" data-participant="TRUST"><rect fill="#E2E2F0" height="46.5938" rx="2.5" ry="2.5" style="stroke:#181818;stroke-width:0.5;" width="150.2266" x="505.5127" y="5"/><text fill="#000000" font-family="sans-serif" font-size="14" lengthAdjust="spacing" textLength="136.2266" x="512.5127" y="24.9951">Dynasty Trust / ILIT</text><text fill="#000000" font-family="sans-serif" font-size="14" lengthAdjust="spacing" textLength="132.5898" x="514.3311" y="41.292">(Estate Tax Shield)</text></g><g class="participant participant-tail" data-participant="TRUST"><rect fill="#E2E2F0" height="46.5938" rx="2.5" ry="2.5" style="stroke:#181818;stroke-width:0.5;" width="150.2266" x="505.5127" y="631.8516"/><text fill="#000000" font-family="sans-serif" font-size="14" lengthAdjust="spacing" textLength="136.2266" x="512.5127" y="651.8467">Dynasty Trust / ILIT</text><text fill="#000000" font-family="sans-serif" font-size="14" lengthAdjust="spacing" textLength="132.5898" x="514.3311" y="668.1436">(Estate Tax Shield)</text></g><g class="participant participant-head" data-participant="CARRIER"><rect fill="#E2E2F0" height="30.2969" rx="2.5" ry="2.5" style="stroke:#181818;stroke-width:0.5;" width="135.2627" x="771.0327" y="21.2969"/><text fill="#000000" font-family="sans-serif" font-size="14" lengthAdjust="spacing" textLength="121.2627" x="778.0327" y="41.292">Insurance Carrier</text></g><g class="participant participant-tail" data-participant="CARRIER"><rect fill="#E2E2F0" height="30.2969" rx="2.5" ry="2.5" style="stroke:#181818;stroke-width:0.5;" width="135.2627" x="771.0327" y="631.8516"/><text fill="#000000" font-family="sans-serif" font-size="14" lengthAdjust="spacing" textLength="121.2627" x="778.0327" y="651.8467">Insurance Carrier</text></g><g class="participant participant-head" data-participant="CAPTIVE"><rect fill="#E2E2F0" height="46.5938" rx="2.5" ry="2.5" style="stroke:#181818;stroke-width:0.5;" width="186.5186" x="916.2954" y="5"/><text fill="#000000" font-family="sans-serif" font-size="14" lengthAdjust="spacing" textLength="76.3096" x="971.3999" y="24.9951">Captive Co</text><text fill="#000000" font-family="sans-serif" font-size="14" lengthAdjust="spacing" textLength="172.5186" x="923.2954" y="41.292">(Tax-Free Accumulation)</text></g><g class="participant participant-tail" data-participant="CAPTIVE"><rect fill="#E2E2F0" height="46.5938" rx="2.5" ry="2.5" style="stroke:#181818;stroke-width:0.5;" width="186.5186" x="916.2954" y="631.8516"/><text fill="#000000" font-family="sans-serif" font-size="14" lengthAdjust="spacing" textLength="76.3096" x="971.3999" y="651.8467">Captive Co</text><text fill="#000000" font-family="sans-serif" font-size="14" lengthAdjust="spacing" textLength="172.5186" x="923.2954" y="668.1436">(Tax-Free Accumulation)</text></g><path d="M133,69.5938 L439.0728,69.5938 L439.0728,76.7266 L429.0728,86.7266 L133,86.7266 L133,69.5938" fill="#EEEEEE" style="stroke:#000000;stroke-width:1.5;"/><rect fill="none" height="81.3984" style="stroke:#000000;stroke-width:1.5;" width="945.2124" x="133" y="69.5938"/><text fill="#000000" font-family="sans-serif" font-size="13" font-weight="bold" lengthAdjust="spacing" textLength="261.0728" x="148" y="82.6606">"Executive Protection (Deductible)"</text><g class="message" data-participant-1="OPCO" data-participant-2="CARRIER"><polygon fill="#181818" points="826.6641,106.8594,836.6641,110.8594,826.6641,114.8594,830.6641,110.8594" style="stroke:#181818;stroke-width:1;"/><line style="stroke:#181818;stroke-width:1;" x1="206.229" x2="832.6641" y1="110.8594" y2="110.8594"/><text fill="#000000" font-family="sans-serif" font-size="13" lengthAdjust="spacing" textLength="208.6982" x="213.229" y="105.7935">1. Pays D&amp;O / Cyber / Overhead</text></g><path d="M843,91.7266 L843,116.7266 L1062,116.7266 L1062,101.7266 L1052,91.7266 L843,91.7266" fill="#FEFFDD" style="stroke:#181818;stroke-width:0.5;"/><path d="M1052,91.7266 L1052,101.7266 L1062,101.7266 L1052,91.7266" fill="#FEFFDD" style="stroke:#181818;stroke-width:0.5;"/><text fill="#000000" font-family="sans-serif" font-size="13" lengthAdjust="spacing" textLength="198.5483" x="849" y="108.7935">100% Tax Deductible Expense</text><g class="message" data-participant-1="CARRIER" data-participant-2="OPCO"><polygon fill="#181818" points="217.229,138.9922,207.229,142.9922,217.229,146.9922,213.229,142.9922" style="stroke:#181818;stroke-width:1;"/><line style="stroke:#181818;stroke-width:1;" x1="211.229" x2="837.6641" y1="142.9922" y2="142.9922"/><text fill="#000000" font-family="sans-serif" font-size="13" lengthAdjust="spacing" textLength="208.1777" x="223.229" y="137.9263">2. Provides Indemnity Coverage</text></g><path d="M133,164.9922 L487.626,164.9922 L487.626,172.125 L477.626,182.125 L133,182.125 L133,164.9922" fill="#EEEEEE" style="stroke:#000000;stroke-width:1.5;"/><rect fill="none" height="123.5313" style="stroke:#000000;stroke-width:1.5;" width="1122.3311" x="133" y="164.9922"/><text fill="#000000" font-family="sans-serif" font-size="13" font-weight="bold" lengthAdjust="spacing" textLength="309.626" x="148" y="178.0591">"Wealth Accumulation (Captive Strategy)"</text><g class="message" data-participant-1="OPCO" data-participant-2="CAPTIVE"><polygon fill="#181818" points="997.5547,202.2578,1007.5547,206.2578,997.5547,210.2578,1001.5547,206.2578" style="stroke:#181818;stroke-width:1;"/><line style="stroke:#181818;stroke-width:1;" x1="206.229" x2="1003.5547" y1="206.2578" y2="206.2578"/><text fill="#000000" font-family="sans-serif" font-size="13" lengthAdjust="spacing" textLength="147.1514" x="213.229" y="201.1919">1. Pays Risk Premiums</text></g><path d="M1014,187.125 L1014,212.125 L1174,212.125 L1174,197.125 L1164,187.125 L1014,187.125" fill="#FEFFDD" style="stroke:#181818;stroke-width:0.5;"/><path d="M1164,187.125 L1164,197.125 L1174,197.125 L1164,187.125" fill="#FEFFDD" style="stroke:#181818;stroke-width:0.5;"/><text fill="#000000" font-family="sans-serif" font-size="13" lengthAdjust="spacing" textLength="139.2485" x="1020" y="204.1919">100% Tax Deductible</text><g class="message" data-participant-1="CAPTIVE" data-participant-2="CAPTIVE"><line style="stroke:#181818;stroke-width:1;" x1="1009.5547" x2="1051.5547" y1="238.3906" y2="238.3906"/><line style="stroke:#181818;stroke-width:1;" x1="1051.5547" x2="1051.5547" y1="238.3906" y2="251.3906"/><line style="stroke:#181818;stroke-width:1;" x1="1010.5547" x2="1051.5547" y1="251.3906" y2="251.3906"/><polygon fill="#181818" points="1020.5547,247.3906,1010.5547,251.3906,1020.5547,255.3906,1016.5547,251.3906" style="stroke:#181818;stroke-width:1;"/><text fill="#000000" font-family="sans-serif" font-size="13" lengthAdjust="spacing" textLength="226.7764" x="1016.5547" y="233.3247">2. Invests Reserves (Tax-Deferred)</text></g><g class="message" data-participant-1="CAPTIVE" data-participant-2="TRUST"><polygon fill="#181818" points="591.626,276.5234,581.626,280.5234,591.626,284.5234,587.626,280.5234" style="stroke:#181818;stroke-width:1;"/><line style="stroke:#181818;stroke-width:1;" x1="585.626" x2="1008.5547" y1="280.5234" y2="280.5234"/><text fill="#000000" font-family="sans-serif" font-size="13" lengthAdjust="spacing" textLength="226.5542" x="597.626" y="275.4575">3. Distributes Profit (Capital Gains)</text></g><path d="M9,302.5234 L296.709,302.5234 L296.709,309.6563 L286.709,319.6563 L9,319.6563 L9,302.5234" fill="#EEEEEE" style="stroke:#000000;stroke-width:1.5;"/><rect fill="none" height="87.3984" style="stroke:#000000;stroke-width:1.5;" width="1065.918" x="9" y="302.5234"/><text fill="#000000" font-family="sans-serif" font-size="13" font-weight="bold" lengthAdjust="spacing" textLength="242.709" x="24" y="315.5903">"Key Person (Golden Handcuffs)"</text><g class="message" data-participant-1="OPCO" data-participant-2="CARRIER"><polygon fill="#181818" points="826.6641,339.7891,836.6641,343.7891,826.6641,347.7891,830.6641,343.7891" style="stroke:#181818;stroke-width:1;"/><line style="stroke:#181818;stroke-width:1;" x1="206.229" x2="832.6641" y1="343.7891" y2="343.7891"/><text fill="#000000" font-family="sans-serif" font-size="13" lengthAdjust="spacing" textLength="190.5503" x="213.229" y="338.7231">1. Pays Premiums (After-Tax)</text></g><path d="M843,324.6563 L843,349.6563 L1059,349.6563 L1059,334.6563 L1049,324.6563 L843,324.6563" fill="#FEFFDD" style="stroke:#181818;stroke-width:0.5;"/><path d="M1049,324.6563 L1049,334.6563 L1059,334.6563 L1049,324.6563" fill="#FEFFDD" style="stroke:#181818;stroke-width:0.5;"/><text fill="#000000" font-family="sans-serif" font-size="13" lengthAdjust="spacing" textLength="195.2539" x="849" y="341.7231">NOT Deductible (Crucial Step)</text><g class="message" data-participant-1="CARRIER" data-participant-2="OPCO"><polygon fill="#181818" points="217.229,374.9219,207.229,378.9219,217.229,382.9219,213.229,378.9219" style="stroke:#181818;stroke-width:1;"/><line style="stroke:#181818;stroke-width:1;" x1="211.229" x2="837.6641" y1="378.9219" y2="378.9219"/><text fill="#000000" font-family="sans-serif" font-size="13" lengthAdjust="spacing" textLength="193.7495" x="223.229" y="373.856">2. Pays Death Benefit ($2M+)</text></g><path d="M19,359.7891 L19,384.7891 L200,384.7891 L200,369.7891 L190,359.7891 L19,359.7891" fill="#FEFFDD" style="stroke:#181818;stroke-width:0.5;"/><path d="M190,359.7891 L190,369.7891 L200,369.7891 L190,359.7891" fill="#FEFFDD" style="stroke:#181818;stroke-width:0.5;"/><text fill="#000000" font-family="sans-serif" font-size="13" lengthAdjust="spacing" textLength="160.5386" x="25" y="376.856">100% INCOME TAX FREE</text><path d="M269.458,403.9219 L530.9956,403.9219 L530.9956,411.0547 L520.9956,421.0547 L269.458,421.0547 L269.458,403.9219" fill="#EEEEEE" style="stroke:#000000;stroke-width:1.5;"/><rect fill="none" height="81.3984" style="stroke:#000000;stroke-width:1.5;" width="846.1675" x="269.458" y="403.9219"/><text fill="#000000" font-family="sans-serif" font-size="13" font-weight="bold" lengthAdjust="spacing" textLength="216.5376" x="284.458" y="416.9888">"Personal Defense (Firewall)"</text><g class="message" data-participant-1="YOU" data-participant-2="CARRIER"><polygon fill="#181818" points="826.6641,441.1875,836.6641,445.1875,826.6641,449.1875,830.6641,445.1875" style="stroke:#181818;stroke-width:1;"/><line style="stroke:#181818;stroke-width:1;" x1="345.1411" x2="832.6641" y1="445.1875" y2="445.1875"/><text fill="#000000" font-family="sans-serif" font-size="13" lengthAdjust="spacing" textLength="203.7661" x="352.1411" y="440.1216">1. Pays Umbrella / Home / Auto</text></g><path d="M843,426.0547 L843,451.0547 L1099,451.0547 L1099,436.0547 L1089,426.0547 L843,426.0547" fill="#FEFFDD" style="stroke:#181818;stroke-width:0.5;"/><path d="M1089,426.0547 L1089,436.0547 L1099,436.0547 L1089,426.0547" fill="#FEFFDD" style="stroke:#181818;stroke-width:0.5;"/><text fill="#000000" font-family="sans-serif" font-size="13" lengthAdjust="spacing" textLength="235.9614" x="849" y="443.1216">Personal Expense (No Pierce of Veil)</text><g class="message" data-participant-1="CARRIER" data-participant-2="YOU"><polygon fill="#181818" points="356.1411,473.3203,346.1411,477.3203,356.1411,481.3203,352.1411,477.3203" style="stroke:#181818;stroke-width:1;"/><line style="stroke:#181818;stroke-width:1;" x1="350.1411" x2="837.6641" y1="477.3203" y2="477.3203"/><text fill="#000000" font-family="sans-serif" font-size="13" lengthAdjust="spacing" textLength="176.084" x="362.1411" y="472.2544">2. Protects Personal Assets</text></g><path d="M269.458,499.3203 L598.1919,499.3203 L598.1919,506.4531 L588.1919,516.4531 L269.458,516.4531 L269.458,499.3203" fill="#EEEEEE" style="stroke:#000000;stroke-width:1.5;"/><rect fill="none" height="116.5313" style="stroke:#000000;stroke-width:1.5;" width="646.8374" x="269.458" y="499.3203"/><text fill="#000000" font-family="sans-serif" font-size="13" font-weight="bold" lengthAdjust="spacing" textLength="283.7339" x="284.458" y="512.3872">"Legacy Foundation (Estate Tax Free)"</text><g class="message" data-participant-1="YOU" data-participant-2="TRUST"><polygon fill="#181818" points="568.626,536.5859,578.626,540.5859,568.626,544.5859,572.626,540.5859" style="stroke:#181818;stroke-width:1;"/><line style="stroke:#181818;stroke-width:1;" x1="345.1411" x2="574.626" y1="540.5859" y2="540.5859"/><text fill="#000000" font-family="sans-serif" font-size="13" lengthAdjust="spacing" textLength="211.4849" x="352.1411" y="535.52">1. Gifts Cash (Crummey Powers)</text></g><path d="M585,521.4531 L585,546.4531 L758,546.4531 L758,531.4531 L748,521.4531 L585,521.4531" fill="#FEFFDD" style="stroke:#181818;stroke-width:0.5;"/><path d="M748,521.4531 L748,531.4531 L758,531.4531 L748,521.4531" fill="#FEFFDD" style="stroke:#181818;stroke-width:0.5;"/><text fill="#000000" font-family="sans-serif" font-size="13" lengthAdjust="spacing" textLength="152.769" x="591" y="538.52">Uses Annual Exclusions</text><g class="message" data-participant-1="TRUST" data-participant-2="CARRIER"><polygon fill="#181818" points="826.6641,568.7188,836.6641,572.7188,826.6641,576.7188,830.6641,572.7188" style="stroke:#181818;stroke-width:1;"/><line style="stroke:#181818;stroke-width:1;" x1="580.626" x2="832.6641" y1="572.7188" y2="572.7188"/><text fill="#000000" font-family="sans-serif" font-size="13" lengthAdjust="spacing" textLength="234.0381" x="587.626" y="567.6528">2. Pays Survivorship / Children's IUL</text></g><g class="message" data-participant-1="CARRIER" data-participant-2="TRUST"><polygon fill="#181818" points="591.626,600.8516,581.626,604.8516,591.626,608.8516,587.626,604.8516" style="stroke:#181818;stroke-width:1;"/><line style="stroke:#181818;stroke-width:1;" x1="585.626" x2="837.6641" y1="604.8516" y2="604.8516"/><text fill="#000000" font-family="sans-serif" font-size="13" lengthAdjust="spacing" textLength="140.8228" x="597.626" y="599.7856">3. Pays Death Benefit</text></g><path d="M396,585.7188 L396,610.7188 L574,610.7188 L574,595.7188 L564,585.7188 L396,585.7188" fill="#FEFFDD" style="stroke:#181818;stroke-width:0.5;"/><path d="M564,585.7188 L564,595.7188 L574,595.7188 L564,585.7188" fill="#FEFFDD" style="stroke:#181818;stroke-width:0.5;"/><text fill="#000000" font-family="sans-serif" font-size="13" lengthAdjust="spacing" textLength="157.6948" x="402" y="602.7856">100% ESTATE TAX FREE</text><!--SRC=[ZPHRRvj048NV_Ij6LY-WAccQlkMX4iKuGKq2id7QI7rPms2l2hjeBqxuzndM-4ASglKB2EsSsM_E6JTC6PxpXWa3uwH1nGmNAmZbR-5bx1acMDZSS2dyCJ0DIHece-Qu9bLSTEyLU8_I-bIMej9Iq8Uf5ONUrZqcYs7Pf1LCcnOoPRM1pn3VnXdLHjemWz1rdgyvLiMsF9ijvjbG81RQAYPoX90fnL6vWs4mcyNHR7WqP8tX6zn3dKqL8WHvRcjRiGDS6AHP_12DHYibRGFZw1bpwofJ9GswCO3NJsHPeJyU0VswcS3PjrtlA_Xo3YbhDKm-94GMjajKz4msgDR82bSZI0yKNwqD7R-uU0z7ioPbY9uR51hTsLwtQz6rkeBBy-v26rwWXbWKM0jEammbDM0h7A4ezWW_aLLcFM05RpUFkI6tSTMUSBWn73XcNF-XZbXpM-l_kNv_RISpKAIRnsA3sf0eQbJq2iwH2PQe51R-wrBd_1LyFOS9rqRnfJLKG_WbDuw46qhQDUD2-mFo7zZ2DedWNSkgG04tJ1IvBKlzB-DshE05fK5rHZVqJxZla-pOCIzKDkTqbxd1nl-xSIuOoCYKxoZGKRoxlFjqf5zXkHjhV1ycTn5amI-Opg9e0BXVisvsb1NmfbpX4wkg7ezsxaswHRrKM5MCCdaZQwH7O8qyuTlhzra4xrv2Iej6AoTBU41UdM1IorqykttH1v50QpHw072BAvQtC9NqDz4dysZzknqTWlHH88nhNf9soFJQZRskEw_b4_KwjMcXAI-14DQHv9NLr6cROYSu6D7EeBbL6xwHIgzvqwtmcbU5Gl6Hzcrn-nhw4D5JSzzqDPfdGJPqzGK0]--></g></svg>