<svg xmlns="http://www.w3.org/2000/svg" xmlns:xlink="http://www.w3.org/1999/xlink" contentStyleType="text/css" data-diagram-type="DESCRIPTION" height="259px" preserveAspectRatio="none" style="width:893px;height:259px;background:#FFFFFF;" version="1.1" viewBox="0 0 893 259" width="893px" zoomAndPan="magnify"><defs/><g><!--cluster DIR--><g class="cluster" data-entity="DIR" data-source-line="6" data-uid="ent0002" id="cluster_DIR"><path d="M73.5,6 L293.7285,6 A3.75,3.75 0 0 1 296.2285,8.5 L303.2285,28.2969 L303.5,28.2969 A2.5,2.5 0 0 1 306,30.7969 L306,106.79 A2.5,2.5 0 0 1 303.5,109.29 L73.5,109.29 A2.5,2.5 0 0 1 71,106.79 L71,8.5 A2.5,2.5 0 0 1 73.5,6" fill="#ADD8E6" style="stroke:#000000;stroke-width:1.5;"/><line style="stroke:#000000;stroke-width:1.5;" x1="71" x2="303.2285" y1="28.2969" y2="28.2969"/><text fill="#000000" font-family="sans-serif" font-size="14" font-weight="bold" lengthAdjust="spacing" textLength="219.2285" x="75" y="20.9951">The Directory (Distribution)</text></g><!--cluster PAIN--><g class="cluster" data-entity="PAIN" data-source-line="10" data-uid="ent0004" id="cluster_PAIN"><path d="M440.5,149.29 L639.4277,149.29 A3.75,3.75 0 0 1 641.9277,151.79 L648.9277,171.5869 L877.5,171.5869 A2.5,2.5 0 0 1 880,174.0869 L880,250.09 A2.5,2.5 0 0 1 877.5,252.59 L440.5,252.59 A2.5,2.5 0 0 1 438,250.09 L438,151.79 A2.5,2.5 0 0 1 440.5,149.29" fill="#FFC0CB" style="stroke:#000000;stroke-width:1.5;"/><line style="stroke:#000000;stroke-width:1.5;" x1="438" x2="648.9277" y1="171.5869" y2="171.5869"/><text fill="#000000" font-family="sans-serif" font-size="14" font-weight="bold" lengthAdjust="spacing" textLength="197.9277" x="442" y="164.2851">The Problem (Pain Point)</text></g><!--cluster SAAS--><g class="cluster" data-entity="SAAS" data-source-line="15" data-uid="ent0007" id="cluster_SAAS"><path d="M8.5,157.29 L215.0225,157.29 A3.75,3.75 0 0 1 217.5225,159.79 L224.5225,179.5869 L403.5,179.5869 A2.5,2.5 0 0 1 406,182.0869 L406,242.09 A2.5,2.5 0 0 1 403.5,244.59 L8.5,244.59 A2.5,2.5 0 0 1 6,242.09 L6,159.79 A2.5,2.5 0 0 1 8.5,157.29" fill="#90EE90" style="stroke:#000000;stroke-width:1.5;"/><line style="stroke:#000000;stroke-width:1.5;" x1="6" x2="224.5225" y1="179.5869" y2="179.5869"/><text fill="#000000" font-family="sans-serif" font-size="14" font-weight="bold" lengthAdjust="spacing" textLength="205.5225" x="10" y="172.2851">The Solution (Micro-SaaS)</text></g><!--entity MEM--><g class="entity" data-entity="MEM" data-source-line="7" data-uid="ent0003" id="entity_MEM"><rect fill="#F1F1F1" height="36.2969" rx="2.5" ry="2.5" style="stroke:#181818;stroke-width:0.5;" width="116.127" x="158.94" y="49"/><text fill="#000000" font-family="sans-serif" font-size="14" lengthAdjust="spacing" textLength="96.127" x="168.94" y="71.9951">Member Base</text></g><!--entity P1--><g class="entity" data-entity="P1" data-source-line="11" data-uid="ent0005" id="entity_P1"><rect fill="#F1F1F1" height="36.2969" rx="2.5" ry="2.5" style="stroke:#181818;stroke-width:0.5;" width="138.4121" x="461.79" y="192.29"/><text fill="#000000" font-family="sans-serif" font-size="14" lengthAdjust="spacing" textLength="118.4121" x="471.79" y="215.2851">Manual Invoicing</text></g><!--entity P2--><g class="entity" data-entity="P2" data-source-line="12" data-uid="ent0006" id="entity_P2"><rect fill="#F1F1F1" height="36.2969" rx="2.5" ry="2.5" style="stroke:#181818;stroke-width:0.5;" width="151.6738" x="660.16" y="192.29"/><text fill="#000000" font-family="sans-serif" font-size="14" lengthAdjust="spacing" textLength="131.6738" x="670.16" y="215.2851">Lost Appointments</text></g><!--entity PORTAL--><g class="entity" data-entity="PORTAL" data-source-line="16" data-uid="ent0008" id="entity_PORTAL"><rect fill="#F1F1F1" height="36.2969" rx="2.5" ry="2.5" style="stroke:#181818;stroke-width:0.5;" width="139.7383" x="22.13" y="192.29"/><text fill="#000000" font-family="sans-serif" font-size="14" lengthAdjust="spacing" textLength="119.7383" x="32.13" y="215.2851">Whitelabel Portal</text></g><!--entity AUTO--><g class="entity" data-entity="AUTO" data-source-line="17" data-uid="ent0009" id="entity_AUTO"><rect fill="#F1F1F1" height="36.2969" rx="2.5" ry="2.5" style="stroke:#181818;stroke-width:0.5;" width="167.2666" x="222.37" y="192.29"/><text fill="#000000" font-family="sans-serif" font-size="14" lengthAdjust="spacing" textLength="147.2666" x="232.37" y="215.2851">Automated Workflow</text></g><!--link MEM to PAIN--><g class="link" data-entity-1="MEM" data-entity-2="PAIN" data-source-line="21" data-uid="lnk10" id="link_MEM_PAIN"><path d="M275.41,67.59 C435.95,67.59 872,67.59 872,67.59 C872,67.59 872,100.5675 872,134.8325 C872,139.1156 872,143.4189 872,147.6803 C872,148.213 872,165.0419 872,165.5732" fill="none" id="MEM-to-PAIN" style="stroke:#181818;stroke-width:1;"/><polygon fill="#181818" points="872,171.5732,876,162.5732,872,166.5732,868,162.5732,872,171.5732" style="stroke:#181818;stroke-width:1;"/><text fill="#000000" font-family="sans-serif" font-size="13" lengthAdjust="spacing" textLength="93.5327" x="550.81" y="63.6569">Struggles with</text></g><!--link PAIN to PORTAL--><g class="link" data-entity-1="PAIN" data-entity-2="PORTAL" data-source-line="22" data-uid="lnk11" id="link_PAIN_PORTAL"><path d="M436.3899,246.59 C433.3616,246.59 430.337,246.59 427.3169,246.59 C421.2767,246.59 415.2544,246.59 409.2559,246.59 C385.2617,246.59 361.6484,246.59 338.7969,246.59 C293.0938,246.59 250.4375,246.59 213.875,246.59 C140.75,246.59 92,246.59 92,246.59 C92,246.59 92,243.83 92,234.94" fill="none" id="PAIN-to-PORTAL" style="stroke:#181818;stroke-width:1;"/><polygon fill="#181818" points="92,228.94,88,237.94,92,233.94,96,237.94,92,228.94" style="stroke:#181818;stroke-width:1;"/><text fill="#000000" font-family="sans-serif" font-size="13" lengthAdjust="spacing" textLength="63.8384" x="427.05" y="242.6569">Solved by</text></g><!--link DIR to PORTAL--><g class="link" data-entity-1="DIR" data-entity-2="PORTAL" data-source-line="23" data-uid="lnk12" id="link_DIR_PORTAL"><path d="M92,109.6744 C92,112.7142 92,115.8383 92,119.0187 C92,144.4625 92,167.515 92,185.91" fill="none" id="DIR-to-PORTAL" style="stroke:#181818;stroke-width:1;"/><polygon fill="#181818" points="92,191.91,96,182.91,92,186.91,88,182.91,92,191.91" style="stroke:#181818;stroke-width:1;"/><text fill="#000000" font-family="sans-serif" font-size="13" lengthAdjust="spacing" textLength="46.5347" x="45" y="125.9169">Upsells</text></g><!--link PORTAL to MEM--><g class="link" data-entity-1="PORTAL" data-entity-2="MEM" data-source-line="24" data-uid="lnk13" id="link_PORTAL_MEM"><path d="M125.97,191.97 C125.97,155.47 125.97,77.59 125.97,77.59 C125.97,77.59 134.85,77.59 152.58,77.59" fill="none" id="PORTAL-to-MEM" style="stroke:#181818;stroke-width:1;"/><polygon fill="#181818" points="158.58,77.59,149.58,73.59,153.58,77.59,149.58,81.59,158.58,77.59" style="stroke:#181818;stroke-width:1;"/><text fill="#000000" font-family="sans-serif" font-size="13" lengthAdjust="spacing" textLength="124.541" x="126.97" y="114.5469">Recurring Revenue</text></g><!--SRC=[PP11IyD048Nl-ok6zc0z55JGGmz2IbKAhGrDIm_YOPEEoPBDJDZTj0JnlxkRr59rJyjxZs_cZIqLrTB82hGYT6sDmCOLBEpP8DwZnHeURYv48waCulsbc75LCo6vnBKQmM3c9EKQXQXbLieSOR0f46OgE6nQ6CsKTKQbZLDCrmEG5cRpDGmNAY_SL3S8dmByUrjYbQA1gRJu7bBBfwNu-eED3QSQAnZ5KX74hCZro3YQly8mLbIUSP8QgM5E1rQPehnZnhUzkM3h8Ahh0AXy6TkxT_y69goxnM6qL9dXSI9bqazCeYWvjNWnYFGpTrSeXrgcgFr-nadTerVhJRJe4r7Zk98Ezx1ZKtveFdQHQBjPXVbNyEmbuUl3UFpODvj0uaoJ-pjRE2fNY4xjx0uS0gmF7fcs8fptbxMjBMfjnKa8Ng1FO8rPOum_ZlyTa1hy1W00]--></g></svg>