<svg xmlns="http://www.w3.org/2000/svg" xmlns:xlink="http://www.w3.org/1999/xlink" contentStyleType="text/css" data-diagram-type="SEQUENCE" height="440px" preserveAspectRatio="none" style="width:983px;height:440px;background:#FFFFFF;" version="1.1" viewBox="0 0 983 440" width="983px" zoomAndPan="magnify"><defs/><g><g><title>OpCo .LLC.</title><rect fill="#FFFFFF" height="71.2656" style="stroke:#181818;stroke-width:1;" width="10" x="220.6328" y="112.4297"/></g><g><title>PNR Holdings</title><rect fill="#FFFFFF" height="86.3984" style="stroke:#181818;stroke-width:1;" width="10" x="465.3071" y="183.6953"/></g><g><title>Dynasty Trust</title><rect fill="#FFFFFF" height="71.2656" style="stroke:#181818;stroke-width:1;" width="10" x="696.002" y="270.0938"/></g><g><title>Customer</title><rect fill="#000000" fill-opacity="0.00000" height="278.0625" width="8" x="38.002" y="81.2969"/><line style="stroke:#181818;stroke-width:0.5;stroke-dasharray:5,5;" x1="42" x2="42" y1="81.2969" y2="359.3594"/></g><g><title>OpCo .LLC.</title><rect fill="#000000" fill-opacity="0.00000" height="278.0625" width="8" x="221.6328" y="81.2969"/><line style="stroke:#181818;stroke-width:0.5;stroke-dasharray:5,5;" x1="225.1348" x2="225.1348" y1="81.2969" y2="359.3594"/></g><g><title>PNR Holdings</title><rect fill="#000000" fill-opacity="0.00000" height="278.0625" width="8" x="466.3071" y="81.2969"/><line style="stroke:#181818;stroke-width:0.5;stroke-dasharray:5,5;" x1="469.3545" x2="469.3545" y1="81.2969" y2="359.3594"/></g><g><title>Dynasty Trust</title><rect fill="#000000" fill-opacity="0.00000" height="278.0625" width="8" x="697.002" y="81.2969"/><line style="stroke:#181818;stroke-width:0.5;stroke-dasharray:5,5;" x1="701.002" x2="701.002" y1="81.2969" y2="359.3594"/></g><g><title>Sub-Trusts</title><rect fill="#000000" fill-opacity="0.00000" height="278.0625" width="8" x="916.3472" y="81.2969"/><line style="stroke:#181818;stroke-width:0.5;stroke-dasharray:5,5;" x1="919.7646" x2="919.7646" y1="81.2969" y2="359.3594"/></g><g class="participant participant-head" data-participant="CUST"><text fill="#000000" font-family="sans-serif" font-size="14" lengthAdjust="spacing" textLength="68.0039" x="5" y="77.9951">Customer</text><ellipse cx="42.002" cy="13.5" fill="#E2E2F0" rx="8" ry="8" style="stroke:#181818;stroke-width:0.5;"/><path d="M42.002,21.5 L42.002,48.5 M29.002,29.5 L55.002,29.5 M42.002,48.5 L29.002,63.5 M42.002,48.5 L55.002,63.5" fill="none" style="stroke:#181818;stroke-width:0.5;"/></g><g class="participant participant-tail" data-participant="CUST"><text fill="#000000" font-family="sans-serif" font-size="14" lengthAdjust="spacing" textLength="68.0039" x="5" y="371.3545">Customer</text><ellipse cx="42.002" cy="383.1563" fill="#E2E2F0" rx="8" ry="8" style="stroke:#181818;stroke-width:0.5;"/><path d="M42.002,391.1563 L42.002,418.1563 M29.002,399.1563 L55.002,399.1563 M42.002,418.1563 L29.002,433.1563 M42.002,418.1563 L55.002,433.1563" fill="none" style="stroke:#181818;stroke-width:0.5;"/></g><g class="participant participant-head" data-participant="OPCO"><rect fill="#E2E2F0" height="30.2969" rx="2.5" ry="2.5" style="stroke:#181818;stroke-width:0.5;" width="92.9961" x="179.1348" y="50"/><text fill="#000000" font-family="sans-serif" font-size="14" lengthAdjust="spacing" textLength="78.9961" x="186.1348" y="69.9951">OpCo (LLC)</text></g><g class="participant participant-tail" data-participant="OPCO"><rect fill="#E2E2F0" height="30.2969" rx="2.5" ry="2.5" style="stroke:#181818;stroke-width:0.5;" width="92.9961" x="179.1348" y="358.3594"/><text fill="#000000" font-family="sans-serif" font-size="14" lengthAdjust="spacing" textLength="78.9961" x="186.1348" y="378.3545">OpCo (LLC)</text></g><g class="participant participant-head" data-participant="PNR"><rect fill="#E2E2F0" height="46.5938" rx="2.5" ry="2.5" style="stroke:#181818;stroke-width:0.5;" width="107.9053" x="416.3545" y="33.7031"/><text fill="#000000" font-family="sans-serif" font-size="14" lengthAdjust="spacing" textLength="93.9053" x="423.3545" y="53.6982">PNR Holdings</text><text fill="#000000" font-family="sans-serif" font-size="14" lengthAdjust="spacing" textLength="72.6318" x="433.9912" y="69.9951">(Treasury)</text></g><g class="participant participant-tail" data-participant="PNR"><rect fill="#E2E2F0" height="46.5938" rx="2.5" ry="2.5" style="stroke:#181818;stroke-width:0.5;" width="107.9053" x="416.3545" y="358.3594"/><text fill="#000000" font-family="sans-serif" font-size="14" lengthAdjust="spacing" textLength="93.9053" x="423.3545" y="378.3545">PNR Holdings</text><text fill="#000000" font-family="sans-serif" font-size="14" lengthAdjust="spacing" textLength="72.6318" x="433.9912" y="394.6514">(Treasury)</text></g><g class="participant participant-head" data-participant="TRUST"><rect fill="#E2E2F0" height="46.5938" rx="2.5" ry="2.5" style="stroke:#181818;stroke-width:0.5;" width="112" x="645.002" y="33.7031"/><text fill="#000000" font-family="sans-serif" font-size="14" lengthAdjust="spacing" textLength="98" x="652.002" y="53.6982">Dynasty Trust</text><text fill="#000000" font-family="sans-serif" font-size="14" lengthAdjust="spacing" textLength="81.293" x="660.3555" y="69.9951">(Sovereign)</text></g><g class="participant participant-tail" data-participant="TRUST"><rect fill="#E2E2F0" height="46.5938" rx="2.5" ry="2.5" style="stroke:#181818;stroke-width:0.5;" width="112" x="645.002" y="358.3594"/><text fill="#000000" font-family="sans-serif" font-size="14" lengthAdjust="spacing" textLength="98" x="652.002" y="378.3545">Dynasty Trust</text><text fill="#000000" font-family="sans-serif" font-size="14" lengthAdjust="spacing" textLength="81.293" x="660.3555" y="394.6514">(Sovereign)</text></g><g class="participant participant-head" data-participant="SUB"><rect fill="#E2E2F0" height="46.5938" rx="2.5" ry="2.5" style="stroke:#181818;stroke-width:0.5;" width="115.165" x="862.7646" y="33.7031"/><text fill="#000000" font-family="sans-serif" font-size="14" lengthAdjust="spacing" textLength="74.9561" x="882.8691" y="53.6982">Sub-Trusts</text><text fill="#000000" font-family="sans-serif" font-size="14" lengthAdjust="spacing" textLength="101.165" x="869.7646" y="69.9951">(Beneficiaries)</text></g><g class="participant participant-tail" data-participant="SUB"><rect fill="#E2E2F0" height="46.5938" rx="2.5" ry="2.5" style="stroke:#181818;stroke-width:0.5;" width="115.165" x="862.7646" y="358.3594"/><text fill="#000000" font-family="sans-serif" font-size="14" lengthAdjust="spacing" textLength="74.9561" x="882.8691" y="378.3545">Sub-Trusts</text><text fill="#000000" font-family="sans-serif" font-size="14" lengthAdjust="spacing" textLength="101.165" x="869.7646" y="394.6514">(Beneficiaries)</text></g><g><title>OpCo .LLC.</title><rect fill="#FFFFFF" height="71.2656" style="stroke:#181818;stroke-width:1;" width="10" x="220.6328" y="112.4297"/></g><g><title>PNR Holdings</title><rect fill="#FFFFFF" height="86.3984" style="stroke:#181818;stroke-width:1;" width="10" x="465.3071" y="183.6953"/></g><g><title>Dynasty Trust</title><rect fill="#FFFFFF" height="71.2656" style="stroke:#181818;stroke-width:1;" width="10" x="696.002" y="270.0938"/></g><g class="message" data-participant-1="CUST" data-participant-2="OPCO"><polygon fill="#181818" points="208.6328,108.4297,218.6328,112.4297,208.6328,116.4297,212.6328,112.4297" style="stroke:#181818;stroke-width:1;"/><line style="stroke:#181818;stroke-width:1;" x1="42.002" x2="214.6328" y1="112.4297" y2="112.4297"/><text fill="#000000" font-family="sans-serif" font-size="13" lengthAdjust="spacing" textLength="159.6309" x="49.002" y="107.3638">1. Pays Revenue ($1.00)</text></g><g class="message" data-participant-1="OPCO" data-participant-2="OPCO"><line style="stroke:#181818;stroke-width:1;" x1="230.6328" x2="272.6328" y1="141.5625" y2="141.5625"/><line style="stroke:#181818;stroke-width:1;" x1="272.6328" x2="272.6328" y1="141.5625" y2="154.5625"/><line style="stroke:#181818;stroke-width:1;" x1="231.6328" x2="272.6328" y1="154.5625" y2="154.5625"/><polygon fill="#181818" points="241.6328,150.5625,231.6328,154.5625,241.6328,158.5625,237.6328,154.5625" style="stroke:#181818;stroke-width:1;"/><text fill="#000000" font-family="sans-serif" font-size="13" lengthAdjust="spacing" textLength="164.3726" x="237.6328" y="136.4966">2. Pays Expenses ($0.70)</text></g><g class="message" data-participant-1="OPCO" data-participant-2="PNR"><polygon fill="#181818" points="453.3071,179.6953,463.3071,183.6953,453.3071,187.6953,457.3071,183.6953" style="stroke:#181818;stroke-width:1;"/><line style="stroke:#181818;stroke-width:1;" x1="225.6328" x2="459.3071" y1="183.6953" y2="183.6953"/><text fill="#000000" font-family="sans-serif" font-size="13" lengthAdjust="spacing" textLength="215.6743" x="232.6328" y="178.6294">3. Pays Management Fee ($0.30)</text></g><g class="message" data-participant-1="PNR" data-participant-2="PNR"><line style="stroke:#181818;stroke-width:1;" x1="475.3071" x2="517.3071" y1="227.9609" y2="227.9609"/><line style="stroke:#181818;stroke-width:1;" x1="517.3071" x2="517.3071" y1="227.9609" y2="240.9609"/><line style="stroke:#181818;stroke-width:1;" x1="476.3071" x2="517.3071" y1="240.9609" y2="240.9609"/><polygon fill="#181818" points="486.3071,236.9609,476.3071,240.9609,486.3071,244.9609,482.3071,240.9609" style="stroke:#181818;stroke-width:1;"/><text fill="#000000" font-family="sans-serif" font-size="13" lengthAdjust="spacing" textLength="196.6948" x="482.3071" y="207.7622">4. Pays Asset Protection Costs</text><text fill="#000000" font-family="sans-serif" font-size="13" lengthAdjust="spacing" textLength="149.9443" x="482.3071" y="222.895">(D&amp;O, Software, Legal)</text></g><g class="message" data-participant-1="PNR" data-participant-2="TRUST"><polygon fill="#181818" points="684.002,266.0938,694.002,270.0938,684.002,274.0938,688.002,270.0938" style="stroke:#181818;stroke-width:1;"/><line style="stroke:#181818;stroke-width:1;" x1="470.3071" x2="690.002" y1="270.0938" y2="270.0938"/><text fill="#000000" font-family="sans-serif" font-size="13" lengthAdjust="spacing" textLength="125.8994" x="477.3071" y="265.0278">5. Distributes Profit</text></g><g class="message" data-participant-1="TRUST" data-participant-2="TRUST"><line style="stroke:#181818;stroke-width:1;" x1="706.002" x2="748.002" y1="299.2266" y2="299.2266"/><line style="stroke:#181818;stroke-width:1;" x1="748.002" x2="748.002" y1="299.2266" y2="312.2266"/><line style="stroke:#181818;stroke-width:1;" x1="707.002" x2="748.002" y1="312.2266" y2="312.2266"/><polygon fill="#181818" points="717.002,308.2266,707.002,312.2266,717.002,316.2266,713.002,312.2266" style="stroke:#181818;stroke-width:1;"/><text fill="#000000" font-family="sans-serif" font-size="13" lengthAdjust="spacing" textLength="185.3452" x="713.002" y="294.1606">6. Reinvests in Assets (70%)</text></g><g class="message" data-participant-1="TRUST" data-participant-2="SUB"><polygon fill="#181818" points="908.3472,337.3594,918.3472,341.3594,908.3472,345.3594,912.3472,341.3594" style="stroke:#181818;stroke-width:1;"/><line style="stroke:#181818;stroke-width:1;" x1="701.002" x2="914.3472" y1="341.3594" y2="341.3594"/><text fill="#000000" font-family="sans-serif" font-size="13" lengthAdjust="spacing" textLength="172.104" x="708.002" y="336.2935">7. Distributes HEMS (30%)</text></g><!--SRC=[PP3DRe9058NtFCMDQHj8b61jQ-AYIKKR5xOGmLqterx9f3f3PWOiRzyBemNI3GcPx_pSex-vo9bYPw2luNkUCs4IKvqGs0MrFAFZiBsH2WPXeGtzgm4m3U4sIPsE10PH7afmr-lGQu0e3gC-47zkO2LF1ouo_INSL27JXQeiJezzUb49faq5gQ9OmXDPeaAU2Skdcty5ac8tQkZQVOu2Z_J454Tj9SbsxZXrRnYzDlLW1cCVObPfs629ea1mxyP-47ZroRna1kqP3ToA7g-YvK-EGgCcLU1FINNZwajdCBbY7qom3Cz87TyH6tX2y07x8MrclKLjyUVqT7LwqneDn4eQ95OA2AMzTl4G3I6HHtDX2eUmneoTl9j7CnMvFFkmuDeelYiCbIQR8pVT6dLksy8kRCKTbnUVnkAYH4e6Bcmdcc0Qt7ijJLiJE-qdhfOV2RYJ6koaDffV]--></g></svg>