<svg xmlns="http://www.w3.org/2000/svg" xmlns:xlink="http://www.w3.org/1999/xlink" contentStyleType="text/css" data-diagram-type="ACTIVITY" height="450px" preserveAspectRatio="none" style="width:720px;height:450px;background:#FFFFFF;" version="1.1" viewBox="0 0 720 450" width="720px" zoomAndPan="magnify"><defs/><g><ellipse cx="255.0164" cy="20" fill="#222222" rx="10" ry="10" style="stroke:#222222;stroke-width:1;"/><rect fill="#F1F1F1" height="33.9688" rx="12.5" ry="12.5" style="stroke:#181818;stroke-width:0.5;" width="126.8926" x="191.5701" y="50"/><text fill="#000000" font-family="sans-serif" font-size="12" lengthAdjust="spacing" textLength="106.8926" x="201.5701" y="71.1387">Identify LTC Need</text><polygon fill="#F1F1F1" points="207.7964,103.9688,302.2363,103.9688,314.2363,115.9688,302.2363,127.9688,207.7964,127.9688,195.7964,115.9688,207.7964,103.9688" style="stroke:#181818;stroke-width:0.5;"/><text fill="#000000" font-family="sans-serif" font-size="11" lengthAdjust="spacing" textLength="94.4399" x="207.7964" y="119.7769">Source of Funds?</text><text fill="#000000" font-family="sans-serif" font-size="11" lengthAdjust="spacing" textLength="22.7788" x="173.0176" y="113.3745">HSA</text><text fill="#000000" font-family="sans-serif" font-size="11" lengthAdjust="spacing" textLength="37.5654" x="314.2363" y="113.3745">C-Corp</text><path d="M191.0449,142.3867 L191.0449,150.9531 L171.0449,154.9531 L191.0449,158.9531 L191.0449,167.5195 A0,0 0 0 0 191.0449,167.5195 L310.9224,167.5195 A0,0 0 0 0 310.9224,167.5195 L310.9224,152.3867 L300.9224,142.3867 L191.0449,142.3867 A0,0 0 0 0 191.0449,142.3867" fill="#FEFFDD" style="stroke:#181818;stroke-width:0.5;"/><path d="M300.9224,142.3867 L300.9224,152.3867 L310.9224,152.3867 L300.9224,142.3867" fill="#FEFFDD" style="stroke:#181818;stroke-width:0.5;"/><text fill="#000000" font-family="sans-serif" font-size="13" lengthAdjust="spacing" textLength="98.8774" x="197.0449" y="159.4536">Pre-Tax Dollars</text><rect fill="#F1F1F1" height="33.9688" rx="12.5" ry="12.5" style="stroke:#181818;stroke-width:0.5;" width="160.0449" x="11" y="137.9688"/><text fill="#000000" font-family="sans-serif" font-size="12" lengthAdjust="spacing" textLength="140.0449" x="21" y="159.1074">Pay Premium from HSA</text><path d="M527.0981,142.3867 L527.0981,150.9531 L507.0981,154.9531 L527.0981,158.9531 L527.0981,167.5195 A0,0 0 0 0 527.0981,167.5195 L708.0654,167.5195 A0,0 0 0 0 708.0654,167.5195 L708.0654,152.3867 L698.0654,142.3867 L527.0981,142.3867 A0,0 0 0 0 527.0981,142.3867" fill="#FEFFDD" style="stroke:#181818;stroke-width:0.5;"/><path d="M698.0654,142.3867 L698.0654,152.3867 L708.0654,152.3867 L698.0654,142.3867" fill="#FEFFDD" style="stroke:#181818;stroke-width:0.5;"/><text fill="#000000" font-family="sans-serif" font-size="13" lengthAdjust="spacing" textLength="159.9673" x="533.0981" y="159.4536">Deductible Business Exp</text><rect fill="#F1F1F1" height="33.9688" rx="12.5" ry="12.5" style="stroke:#181818;stroke-width:0.5;" width="176.1758" x="330.9224" y="137.9688"/><text fill="#000000" font-family="sans-serif" font-size="12" lengthAdjust="spacing" textLength="156.1758" x="340.9224" y="159.1074">Pay Premium from C-Corp</text><polygon fill="#F1F1F1" points="255.0164,177.9375,267.0164,189.9375,255.0164,201.9375,243.0164,189.9375,255.0164,177.9375" style="stroke:#181818;stroke-width:0.5;"/><rect fill="#F1F1F1" height="33.9688" rx="12.5" ry="12.5" style="stroke:#181818;stroke-width:0.5;" width="200.7734" x="154.6296" y="221.9375"/><text fill="#000000" font-family="sans-serif" font-size="12" lengthAdjust="spacing" textLength="180.7734" x="164.6296" y="243.0762">Policy Active (Hybrid Life/LTC)</text><polygon fill="#F1F1F1" points="223.1201,275.9063,286.9126,275.9063,298.9126,287.9063,286.9126,299.9063,223.1201,299.9063,211.1201,287.9063,223.1201,275.9063" style="stroke:#181818;stroke-width:0.5;"/><text fill="#000000" font-family="sans-serif" font-size="11" lengthAdjust="spacing" textLength="63.7925" x="223.1201" y="291.7144">Need Care?</text><text fill="#000000" font-family="sans-serif" font-size="11" lengthAdjust="spacing" textLength="20.6519" x="190.4683" y="285.312">YES</text><text fill="#000000" font-family="sans-serif" font-size="11" lengthAdjust="spacing" textLength="106.063" x="298.9126" y="285.312">NO - Die Peacefully</text><rect fill="#F1F1F1" height="33.9688" rx="12.5" ry="12.5" style="stroke:#181818;stroke-width:0.5;" width="158.6504" x="25.9851" y="309.9063"/><text fill="#000000" font-family="sans-serif" font-size="12" lengthAdjust="spacing" textLength="138.6504" x="35.9851" y="331.0449">Advance Death Benefit</text><path d="M192.0613,368.293 L192.0613,376.8594 L172.0613,380.8594 L192.0613,384.8594 L192.0613,393.4258 A0,0 0 0 0 192.0613,393.4258 L320.7429,393.4258 A0,0 0 0 0 320.7429,393.4258 L320.7429,378.293 L310.7429,368.293 L192.0613,368.293 A0,0 0 0 0 192.0613,368.293" fill="#FEFFDD" style="stroke:#181818;stroke-width:0.5;"/><path d="M310.7429,368.293 L310.7429,378.293 L320.7429,378.293 L310.7429,368.293" fill="#FEFFDD" style="stroke:#181818;stroke-width:0.5;"/><text fill="#000000" font-family="sans-serif" font-size="13" lengthAdjust="spacing" textLength="107.6816" x="198.0613" y="385.3599">Tax-Free Benefit</text><rect fill="#F1F1F1" height="33.9688" rx="12.5" ry="12.5" style="stroke:#181818;stroke-width:0.5;" width="133.502" x="38.5593" y="363.875"/><text fill="#000000" font-family="sans-serif" font-size="12" lengthAdjust="spacing" textLength="113.502" x="48.5593" y="385.0137">Pay Care Providers</text><ellipse cx="105.3103" cy="428.8438" fill="none" rx="11" ry="11" style="stroke:#222222;stroke-width:1;"/><ellipse cx="105.3103" cy="428.8438" fill="#222222" rx="6" ry="6" style="stroke:#222222;stroke-width:1;"/><rect fill="#F1F1F1" height="33.9688" rx="12.5" ry="12.5" style="stroke:#181818;stroke-width:0.5;" width="127.959" x="340.7429" y="309.9063"/><text fill="#000000" font-family="sans-serif" font-size="12" lengthAdjust="spacing" textLength="107.959" x="350.7429" y="331.0449">Full Death Benefit</text><path d="M470.8689,368.293 L470.8689,376.8594 L450.8689,380.8594 L470.8689,384.8594 L470.8689,393.4258 A0,0 0 0 0 470.8689,393.4258 L626.8264,393.4258 A0,0 0 0 0 626.8264,393.4258 L626.8264,378.293 L616.8264,368.293 L470.8689,368.293 A0,0 0 0 0 470.8689,368.293" fill="#FEFFDD" style="stroke:#181818;stroke-width:0.5;"/><path d="M616.8264,368.293 L616.8264,378.293 L626.8264,378.293 L616.8264,368.293" fill="#FEFFDD" style="stroke:#181818;stroke-width:0.5;"/><text fill="#000000" font-family="sans-serif" font-size="13" lengthAdjust="spacing" textLength="134.9575" x="476.8689" y="385.3599">Tax-Free Inheritance</text><rect fill="#F1F1F1" height="33.9688" rx="12.5" ry="12.5" style="stroke:#181818;stroke-width:0.5;" width="92.293" x="358.5759" y="363.875"/><text fill="#000000" font-family="sans-serif" font-size="12" lengthAdjust="spacing" textLength="72.293" x="368.5759" y="385.0137">Pay to Heirs</text><ellipse cx="404.7224" cy="428.8438" fill="none" rx="11" ry="11" style="stroke:#222222;stroke-width:1;"/><ellipse cx="404.7224" cy="428.8438" fill="#222222" rx="6" ry="6" style="stroke:#222222;stroke-width:1;"/><line style="stroke:#181818;stroke-width:1;" x1="255.0164" x2="255.0164" y1="30" y2="50"/><polygon fill="#181818" points="251.0164,40,255.0164,50,259.0164,40,255.0164,44" style="stroke:#181818;stroke-width:1;"/><line style="stroke:#181818;stroke-width:1;" x1="195.7964" x2="91.0225" y1="115.9688" y2="115.9688"/><line style="stroke:#181818;stroke-width:1;" x1="91.0225" x2="91.0225" y1="115.9688" y2="137.9688"/><polygon fill="#181818" points="87.0225,127.9688,91.0225,137.9688,95.0225,127.9688,91.0225,131.9688" style="stroke:#181818;stroke-width:1;"/><line style="stroke:#181818;stroke-width:1;" x1="314.2363" x2="419.0103" y1="115.9688" y2="115.9688"/><line style="stroke:#181818;stroke-width:1;" x1="419.0103" x2="419.0103" y1="115.9688" y2="137.9688"/><polygon fill="#181818" points="415.0103,127.9688,419.0103,137.9688,423.0103,127.9688,419.0103,131.9688" style="stroke:#181818;stroke-width:1;"/><line style="stroke:#181818;stroke-width:1;" x1="91.0225" x2="91.0225" y1="171.9375" y2="189.9375"/><line style="stroke:#181818;stroke-width:1;" x1="91.0225" x2="243.0164" y1="189.9375" y2="189.9375"/><polygon fill="#181818" points="233.0164,185.9375,243.0164,189.9375,233.0164,193.9375,237.0164,189.9375" style="stroke:#181818;stroke-width:1;"/><line style="stroke:#181818;stroke-width:1;" x1="419.0103" x2="419.0103" y1="171.9375" y2="189.9375"/><line style="stroke:#181818;stroke-width:1;" x1="419.0103" x2="267.0164" y1="189.9375" y2="189.9375"/><polygon fill="#181818" points="277.0164,185.9375,267.0164,189.9375,277.0164,193.9375,273.0164,189.9375" style="stroke:#181818;stroke-width:1;"/><line style="stroke:#181818;stroke-width:1;" x1="255.0164" x2="255.0164" y1="83.9688" y2="103.9688"/><polygon fill="#181818" points="251.0164,93.9688,255.0164,103.9688,259.0164,93.9688,255.0164,97.9688" style="stroke:#181818;stroke-width:1;"/><line style="stroke:#181818;stroke-width:1;" x1="255.0164" x2="255.0164" y1="201.9375" y2="221.9375"/><polygon fill="#181818" points="251.0164,211.9375,255.0164,221.9375,259.0164,211.9375,255.0164,215.9375" style="stroke:#181818;stroke-width:1;"/><line style="stroke:#181818;stroke-width:1;" x1="105.3103" x2="105.3103" y1="343.875" y2="363.875"/><polygon fill="#181818" points="101.3103,353.875,105.3103,363.875,109.3103,353.875,105.3103,357.875" style="stroke:#181818;stroke-width:1;"/><line style="stroke:#181818;stroke-width:1;" x1="105.3103" x2="105.3103" y1="397.8438" y2="417.8438"/><polygon fill="#181818" points="101.3103,407.8438,105.3103,417.8438,109.3103,407.8438,105.3103,411.8438" style="stroke:#181818;stroke-width:1;"/><line style="stroke:#181818;stroke-width:1;" x1="404.7224" x2="404.7224" y1="343.875" y2="363.875"/><polygon fill="#181818" points="400.7224,353.875,404.7224,363.875,408.7224,353.875,404.7224,357.875" style="stroke:#181818;stroke-width:1;"/><line style="stroke:#181818;stroke-width:1;" x1="404.7224" x2="404.7224" y1="397.8438" y2="417.8438"/><polygon fill="#181818" points="400.7224,407.8438,404.7224,417.8438,408.7224,407.8438,404.7224,411.8438" style="stroke:#181818;stroke-width:1;"/><line style="stroke:#181818;stroke-width:1;" x1="211.1201" x2="105.3103" y1="287.9063" y2="287.9063"/><line style="stroke:#181818;stroke-width:1;" x1="105.3103" x2="105.3103" y1="287.9063" y2="309.9063"/><polygon fill="#181818" points="101.3103,299.9063,105.3103,309.9063,109.3103,299.9063,105.3103,303.9063" style="stroke:#181818;stroke-width:1;"/><line style="stroke:#181818;stroke-width:1;" x1="298.9126" x2="404.7224" y1="287.9063" y2="287.9063"/><line style="stroke:#181818;stroke-width:1;" x1="404.7224" x2="404.7224" y1="287.9063" y2="309.9063"/><polygon fill="#181818" points="400.7224,299.9063,404.7224,309.9063,408.7224,299.9063,404.7224,303.9063" style="stroke:#181818;stroke-width:1;"/><line style="stroke:#181818;stroke-width:1;" x1="255.0164" x2="255.0164" y1="255.9063" y2="275.9063"/><polygon fill="#181818" points="251.0164,265.9063,255.0164,275.9063,259.0164,265.9063,255.0164,269.9063" style="stroke:#181818;stroke-width:1;"/><!--SRC=[VP3DRi8m48JlVeezmY7gFJbKa810GZHIkFHeud6pah6HxI3ozdNIz4T2r2TBEpiptuOeVHJvNi56rWCTJYKT0LK8rhHeNEzRaDEqxQqAhqkA7ImjTirgAIYzl9O3rHuNxY-alRjG6XNJoBe8ylpHnNnKP2TvfyeP8tqGC06qABFI-Uipew_ferS5rRUHpmQqxWDRX42R-rN0AjP2vBKpt0wqIffR2jaDPy-A3gpnak2MXPZ8HaOgfSSFq_kccQkir4tQX5r1nexMiD0SYz-QurhgwcwiuCDZmqIQRJtmlJe9GdJNcVluHXbLd3mWM-ZUc65EtgR_qzZeQ0V-Dt1lEtYEO_i_eUDXFW40]--></g></svg>