<svg xmlns="http://www.w3.org/2000/svg" xmlns:xlink="http://www.w3.org/1999/xlink" contentStyleType="text/css" data-diagram-type="DESCRIPTION" height="322px" preserveAspectRatio="none" style="width:816px;height:322px;background:#FFFFFF;" version="1.1" viewBox="0 0 816 322" width="816px" zoomAndPan="magnify"><defs/><g><!--cluster ORCH--><g class="cluster" data-entity="ORCH" data-source-line="6" data-uid="ent0002" id="cluster_ORCH"><path d="M146.5,6 L447.502,6 A3.75,3.75 0 0 1 450.002,8.5 L457.002,28.2969 L457.5,28.2969 A2.5,2.5 0 0 1 460,30.7969 L460,102.8 A2.5,2.5 0 0 1 457.5,105.3 L146.5,105.3 A2.5,2.5 0 0 1 144,102.8 L144,8.5 A2.5,2.5 0 0 1 146.5,6" fill="#D3D3D3" style="stroke:#000000;stroke-width:1.5;"/><line style="stroke:#000000;stroke-width:1.5;" x1="144" x2="457.002" y1="28.2969" y2="28.2969"/><text fill="#000000" font-family="sans-serif" font-size="14" font-weight="bold" lengthAdjust="spacing" textLength="300.002" x="148" y="20.9951">Orchestration Layer (Make.com / n8n)</text></g><!--cluster The Agent Swarm--><g class="cluster" data-entity="The Agent Swarm" data-source-line="10" data-uid="ent0004" id="cluster_The Agent Swarm"><path d="M8.5,129.3 L149.2266,129.3 A3.75,3.75 0 0 1 151.7266,131.8 L158.7266,151.5969 L806.5,151.5969 A2.5,2.5 0 0 1 809,154.0969 L809,214.09 A2.5,2.5 0 0 1 806.5,216.59 L8.5,216.59 A2.5,2.5 0 0 1 6,214.09 L6,131.8 A2.5,2.5 0 0 1 8.5,129.3" fill="none" style="stroke:#000000;stroke-width:1.5;"/><line style="stroke:#000000;stroke-width:1.5;" x1="6" x2="158.7266" y1="151.5969" y2="151.5969"/><text fill="#000000" font-family="sans-serif" font-size="14" font-weight="bold" lengthAdjust="spacing" textLength="139.7266" x="10" y="144.2951">The Agent Swarm</text></g><!--entity BOSS--><g class="entity" data-entity="BOSS" data-source-line="7" data-uid="ent0003" id="entity_BOSS"><ellipse cx="302.0049" cy="57" fill="#F1F1F1" rx="12" ry="12" style="stroke:#181818;stroke-width:0.5;"/><polygon fill="#181818" points="298.0049,45,304.0049,40,302.0049,45,304.0049,50,298.0049,45" style="stroke:#181818;stroke-width:1;"/><text fill="#000000" font-family="sans-serif" font-size="14" lengthAdjust="spacing" textLength="102.9697" x="250.52" y="85.9951">The Conductor</text></g><!--entity A1--><g class="entity" data-entity="A1" data-source-line="11" data-uid="ent0005" id="entity_A1"><rect fill="#FFC0CB" height="36.2969" rx="2.5" ry="2.5" style="stroke:#181818;stroke-width:0.5;" width="140.0391" x="21.98" y="164.3"/><text fill="#000000" font-family="sans-serif" font-size="14" lengthAdjust="spacing" textLength="120.0391" x="31.98" y="187.2951">Scout (Research)</text></g><!--entity A2--><g class="entity" data-entity="A2" data-source-line="12" data-uid="ent0006" id="entity_A2"><rect fill="#FFC0CB" height="36.2969" rx="2.5" ry="2.5" style="stroke:#181818;stroke-width:0.5;" width="120.7891" x="241.61" y="164.3"/><text fill="#000000" font-family="sans-serif" font-size="14" lengthAdjust="spacing" textLength="100.7891" x="251.61" y="187.2951">Analyst (Data)</text></g><!--entity A3--><g class="entity" data-entity="A3" data-source-line="13" data-uid="ent0007" id="entity_A3"><rect fill="#FFC0CB" height="36.2969" rx="2.5" ry="2.5" style="stroke:#181818;stroke-width:0.5;" width="143.5869" x="442.21" y="164.3"/><text fill="#000000" font-family="sans-serif" font-size="14" lengthAdjust="spacing" textLength="123.5869" x="452.21" y="187.2951">Creator (Content)</text></g><!--entity A4--><g class="entity" data-entity="A4" data-source-line="14" data-uid="ent0008" id="entity_A4"><rect fill="#FFC0CB" height="36.2969" rx="2.5" ry="2.5" style="stroke:#181818;stroke-width:0.5;" width="127.0918" x="665.45" y="164.3"/><text fill="#000000" font-family="sans-serif" font-size="14" lengthAdjust="spacing" textLength="107.0918" x="675.45" y="187.2951">Publisher (Ops)</text></g><!--entity MEMORY--><g class="entity" data-entity="MEMORY" data-source-line="17" data-uid="ent0009" id="entity_MEMORY"><path d="M446.25,270.59 C446.25,260.59 514,260.59 514,260.59 C514,260.59 581.75,260.59 581.75,270.59 L581.75,295.8869 C581.75,305.8869 514,305.8869 514,305.8869 C514,305.8869 446.25,305.8869 446.25,295.8869 L446.25,270.59" fill="#FFD700" style="stroke:#181818;stroke-width:0.5;"/><path d="M446.25,270.59 C446.25,280.59 514,280.59 514,280.59 C514,280.59 581.75,280.59 581.75,270.59" fill="none" style="stroke:#181818;stroke-width:0.5;"/><text fill="#000000" font-family="sans-serif" font-size="14" lengthAdjust="spacing" textLength="115.5" x="456.25" y="297.5851">Knowledge Base</text></g><!--link BOSS to A1--><g class="link" data-entity-1="BOSS" data-entity-2="A1" data-source-line="20" data-uid="lnk10" id="link_BOSS_A1"><path d="M250.21,57.89 C181.47,57.89 68.66,57.89 68.66,57.89 C68.66,57.89 68.66,123.05 68.66,157.8" fill="none" id="BOSS-to-A1" style="stroke:#181818;stroke-width:1;"/><polygon fill="#181818" points="68.66,163.8,72.66,154.8,68.66,158.8,64.66,154.8,68.66,163.8" style="stroke:#181818;stroke-width:1;"/><text fill="#000000" font-family="sans-serif" font-size="13" lengthAdjust="spacing" textLength="76.2607" x="29.48" y="53.9569">Find Trends</text></g><!--link A1 to BOSS--><g class="link" data-entity-1="A1" data-entity-2="BOSS" data-source-line="21" data-uid="lnk11" id="link_A1_BOSS"><path d="M115.34,164.03 C115.34,133.06 115.34,73.89 115.34,73.89 C115.34,73.89 189.25,73.89 244.5,73.89" fill="none" id="A1-to-BOSS" style="stroke:#181818;stroke-width:1;"/><polygon fill="#181818" points="250.5,73.89,241.5,69.89,245.5,73.89,241.5,77.89,250.5,73.89" style="stroke:#181818;stroke-width:1;"/><text fill="#000000" font-family="sans-serif" font-size="13" lengthAdjust="spacing" textLength="53.1997" x="83.85" y="86.9569">Found X</text></g><!--link BOSS to A2--><g class="link" data-entity-1="BOSS" data-entity-2="A2" data-source-line="22" data-uid="lnk12" id="link_BOSS_A2"><path d="M284.84,89.74 C284.84,111.91 284.84,138.01 284.84,158.03" fill="none" id="BOSS-to-A2" style="stroke:#181818;stroke-width:1;"/><polygon fill="#181818" points="284.84,164.03,288.84,155.03,284.84,159.03,280.84,155.03,284.84,164.03" style="stroke:#181818;stroke-width:1;"/><text fill="#000000" font-family="sans-serif" font-size="13" lengthAdjust="spacing" textLength="91.7046" x="192.84" y="122.9569">Get Data on X</text></g><!--link A2 to BOSS--><g class="link" data-entity-1="A2" data-entity-2="BOSS" data-source-line="23" data-uid="lnk13" id="link_A2_BOSS"><path d="M319.16,163.86 C319.16,143.83 319.16,117.87 319.16,95.77" fill="none" id="A2-to-BOSS" style="stroke:#181818;stroke-width:1;"/><polygon fill="#181818" points="319.16,89.77,315.16,98.77,319.16,94.77,323.16,98.77,319.16,89.77" style="stroke:#181818;stroke-width:1;"/><text fill="#000000" font-family="sans-serif" font-size="13" lengthAdjust="spacing" textLength="92.2188" x="320.16" y="122.8769">Enriched Data</text></g><!--link BOSS to A3--><g class="link" data-entity-1="BOSS" data-entity-2="A3" data-source-line="24" data-uid="lnk14" id="link_BOSS_A3"><path d="M353.78,65.89 C423.23,65.89 537.93,65.89 537.93,65.89 C537.93,65.89 537.93,125.11 537.93,157.98" fill="none" id="BOSS-to-A3" style="stroke:#181818;stroke-width:1;"/><polygon fill="#181818" points="537.93,163.98,541.93,154.98,537.93,158.98,533.93,154.98,537.93,163.98" style="stroke:#181818;stroke-width:1;"/><text fill="#000000" font-family="sans-serif" font-size="13" lengthAdjust="spacing" textLength="80.7422" x="413.9" y="61.9569">Write Article</text></g><!--link A3 to BOSS--><g class="link" data-entity-1="A3" data-entity-2="BOSS" data-source-line="26" data-uid="lnk16" id="link_A3_BOSS"><path d="M490.07,164.23 C490.07,134.28 490.07,77.89 490.07,77.89 C490.07,77.89 415.56,77.89 359.89,77.89" fill="none" id="A3-to-BOSS" style="stroke:#181818;stroke-width:1;"/><polygon fill="#181818" points="353.89,77.89,362.89,81.89,358.89,77.89,362.89,73.89,353.89,77.89" style="stroke:#181818;stroke-width:1;"/><text fill="#000000" font-family="sans-serif" font-size="13" lengthAdjust="spacing" textLength="78.0698" x="386.15" y="90.9569">Draft Ready</text></g><!--link A3 to MEMORY--><g class="link" data-entity-1="A3" data-entity-2="MEMORY" data-source-line="25" data-uid="lnk15" id="link_A3_MEMORY"><path d="M514,206.93 C514,223.64 514,236.3 514,254.27" fill="none" id="A3-MEMORY" style="stroke:#181818;stroke-width:1;"/><polygon fill="#181818" points="514,200.93,510,209.93,514,205.93,518,209.93,514,200.93" style="stroke:#181818;stroke-width:1;"/><polygon fill="#181818" points="514,260.27,518,251.27,514,255.27,510,251.27,514,260.27" style="stroke:#181818;stroke-width:1;"/><text fill="#000000" font-family="sans-serif" font-size="13" lengthAdjust="spacing" textLength="122.5796" x="391" y="226.6669">Check Brand Voice</text></g><!--link BOSS to A4--><g class="link" data-entity-1="BOSS" data-entity-2="A4" data-source-line="27" data-uid="lnk17" id="link_BOSS_A4"><path d="M353.93,53.89 C467.73,53.89 729,53.89 729,53.89 C729,53.89 729,122.48 729,158.03" fill="none" id="BOSS-to-A4" style="stroke:#181818;stroke-width:1;"/><polygon fill="#181818" points="729,164.03,733,155.03,729,159.03,725,155.03,729,164.03" style="stroke:#181818;stroke-width:1;"/><text fill="#000000" font-family="sans-serif" font-size="13" lengthAdjust="spacing" textLength="46.5664" x="549.53" y="49.9569">Publish</text></g><!--SRC=[RL9DQzj04BthLmpo8SuXRHg74a89s4xgGcCKhD2qX1ucknDhqNfMpAunelI_TzQ884fqs_Sn-zwiOkkuGy4TUCUK-euWI6f24Ty83fOYTN1rFW85kStWvp5emguBJ9pgr7i28PEGjvwAeaFJufQWhCGq59DWSe7X7diIcAwnfGzgXe_0LtnQ0aQeDijlCBbtsoQj17luKu1-9d2IuA5yR0YMWUtUf217mwAgw-BlwAeicMyr3TG7b5tvDc882S-r2Vi4qutMGyrr-ZlFcN-2oOFZzd_ndD7tKUMtc72GNhmlNGgXneAf9aoA3EhP- -g7_OjtiScBgBeuQ2y7hHQoUjyBHctqdSF1azLo2pqVMw_lrjNc5qnMmTkYE86d8Esh3uSYhmFEpcvodsielpgsy2Z4DfQ5GfavIZ8Nzah-B4UUYuolA44k2_fIoYeuTjsnE7rBUvIClRFCFebBkdv9pdXIxmo-P7A8UmtBXamB2_sDBFm8pb2MZCVV2hucs13QVZpyCdF3nif_]--></g></svg>