<svg xmlns="http://www.w3.org/2000/svg" xmlns:xlink="http://www.w3.org/1999/xlink" contentStyleType="text/css" data-diagram-type="ACTIVITY" height="1319.7917px" preserveAspectRatio="none" style="width:588px;height:1319px;" version="1.1" viewBox="0 0 588 1319" width="588.5417px" zoomAndPan="magnify"><title>Automation Agency: Client Onboarding Flow</title><defs><linearGradient id="gkfqo9iaal0ne0" x1="50%" x2="50%" y1="0%" y2="100%"><stop offset="0%" stop-color="#B8B8B8"/><stop offset="100%" stop-color="#999999"/></linearGradient><linearGradient id="gkfqo9iaal0ne1" x1="50%" x2="50%" y1="0%" y2="100%"><stop offset="0%" stop-color="#B8B8B8"/><stop offset="100%" stop-color="#6B6B6B"/></linearGradient><linearGradient id="gkfqo9iaal0ne2" x1="50%" x2="50%" y1="0%" y2="100%"><stop offset="0%" stop-color="#7C9AB9"/><stop offset="100%" stop-color="#304D6D"/></linearGradient></defs><g><g class="title" data-source-line="2"><rect fill="url(#gkfqo9iaal0ne0)" height="47.168" rx="4.1667" ry="4.1667" style="stroke:#6B6B6B;stroke-width:1.0417;" width="544.7469" x="20.8333" y="20.8333"/><text fill="#304D6D" font-family="'Verdana'" font-size="20.8333" font-weight="bold" lengthAdjust="spacing" textLength="521.8302" x="32.2917" y="51.6296">Automation Agency: Client Onboarding Flow</text></g><!--cluster Trigger Phase--><g class="cluster" data-entity="Trigger Phase" data-source-line="4" data-uid="ent0002" id="cluster_Trigger Phase"><path d="M132.2693,85.7096 L238.8814,85.7096 A6.25,6.25 0 0 1 243.0481,89.8763 L250.3398,116.9271 L344.7693,116.9271 A4.1667,4.1667 0 0 1 348.936,121.0938 L348.936,457.418 A4.1667,4.1667 0 0 1 344.7693,461.5846 L132.2693,461.5846 A4.1667,4.1667 0 0 1 128.1026,457.418 L128.1026,89.8763 A4.1667,4.1667 0 0 1 132.2693,85.7096" fill="url(#gkfqo9iaal0ne1)" style="stroke:#446E9B;stroke-width:2.0833;"/><line style="stroke:#446E9B;stroke-width:2.0833;" x1="128.1026" x2="250.3398" y1="116.9271" y2="116.9271"/><text fill="#446E9B" font-family="'Verdana'" font-size="12.5" font-weight="bold" lengthAdjust="spacing" textLength="98.2788" x="137.4776" y="104.6041">Trigger Phase</text></g><!--cluster Router Phase (Activepieces)--><g class="cluster" data-entity="Router Phase .Activepieces." data-source-line="10" data-uid="ent0010" id="cluster_Router Phase .Activepieces."><path d="M145.811,495.9596 L353.4241,495.9596 A6.25,6.25 0 0 1 357.5907,500.1263 L364.8824,527.1771 L467.686,527.1771 A4.1667,4.1667 0 0 1 471.8526,531.3438 L471.8526,779.2305 A4.1667,4.1667 0 0 1 467.686,783.3971 L145.811,783.3971 A4.1667,4.1667 0 0 1 141.6443,779.2305 L141.6443,500.1263 A4.1667,4.1667 0 0 1 145.811,495.9596" fill="url(#gkfqo9iaal0ne1)" style="stroke:#446E9B;stroke-width:2.0833;"/><line style="stroke:#446E9B;stroke-width:2.0833;" x1="141.6443" x2="364.8824" y1="527.1771" y2="527.1771"/><text fill="#446E9B" font-family="'Verdana'" font-size="12.5" font-weight="bold" lengthAdjust="spacing" textLength="199.2798" x="151.0193" y="514.8541">Router Phase (Activepieces)</text></g><!--cluster Action Phase--><g class="cluster" data-entity="Action Phase" data-source-line="20" data-uid="ent0020" id="cluster_Action Phase"><path d="M134.3526,817.7721 L234.2814,817.7721 A6.25,6.25 0 0 1 238.4481,821.9388 L245.7397,848.9896 L336.436,848.9896 A4.1667,4.1667 0 0 1 340.6026,853.1563 L340.6026,1243.5534 A4.1667,4.1667 0 0 1 336.436,1247.7201 L134.3526,1247.7201 A4.1667,4.1667 0 0 1 130.186,1243.5534 L130.186,821.9388 A4.1667,4.1667 0 0 1 134.3526,817.7721" fill="url(#gkfqo9iaal0ne1)" style="stroke:#446E9B;stroke-width:2.0833;"/><line style="stroke:#446E9B;stroke-width:2.0833;" x1="130.186" x2="245.7397" y1="848.9896" y2="848.9896"/><text fill="#446E9B" font-family="'Verdana'" font-size="12.5" font-weight="bold" lengthAdjust="spacing" textLength="91.5955" x="139.561" y="836.6666">Action Phase</text></g><ellipse cx="238.5193" cy="139.8763" fill="#3399F3" rx="10.4167" ry="10.4167" style="stroke:#304D6D;stroke-width:1.0417;"/><rect fill="url(#gkfqo9iaal0ne2)" height="45.8008" rx="13.0208" ry="13.0208" style="stroke:#304D6D;stroke-width:1.0417;" width="162.7136" x="157.1651" y="193.0013"/><text fill="#FFFFFF" font-family="'Verdana'" font-size="12.5" lengthAdjust="spacing" textLength="131.4636" x="172.7901" y="220.2291">Client Signs Proposal</text><rect fill="url(#gkfqo9iaal0ne2)" height="60.3516" rx="13.0208" ry="13.0208" style="stroke:#304D6D;stroke-width:1.0417;" width="186.4685" x="145.2901" y="281.5117"/><text fill="#FFFFFF" font-family="'Verdana'" font-size="12.5" lengthAdjust="spacing" textLength="67.8528" x="160.9151" y="308.7395">SuiteDash:</text><text fill="#FFFFFF" font-family="'Verdana'" font-size="12.5" lengthAdjust="spacing" textLength="155.2185" x="160.9151" y="323.2903">Change Status to 'Client'</text><rect fill="url(#gkfqo9iaal0ne2)" height="60.3516" rx="13.0208" ry="13.0208" style="stroke:#304D6D;stroke-width:1.0417;" width="117.157" x="179.936" y="384.5638"/><text fill="#FFFFFF" font-family="'Verdana'" font-size="12.5" lengthAdjust="spacing" textLength="67.8528" x="195.561" y="411.7916">SuiteDash:</text><text fill="#FFFFFF" font-family="'Verdana'" font-size="12.5" lengthAdjust="spacing" textLength="85.907" x="195.561" y="426.3424">Fire Webhook</text><rect fill="url(#gkfqo9iaal0ne2)" height="45.8008" rx="13.0208" ry="13.0208" style="stroke:#304D6D;stroke-width:1.0417;" width="156.2683" x="160.3839" y="539.7096"/><text fill="#FFFFFF" font-family="'Verdana'" font-size="12.5" lengthAdjust="spacing" textLength="125.0183" x="176.0089" y="566.9374">Activepieces Router</text><g class="entity" data-entity=".13" data-uid="ent0014" id="entity_.13"><polygon fill="url(#gkfqo9iaal0ne1)" points="238.5193,628.2201,251.0193,640.7201,238.5193,653.2201,226.0193,640.7201,238.5193,628.2201" style="stroke:#6B6B6B;stroke-width:1.0417;"/></g><rect fill="url(#gkfqo9iaal0ne2)" height="45.8008" rx="13.0208" ry="13.0208" style="stroke:#304D6D;stroke-width:1.0417;" width="153.3875" x="158.6964" y="720.9284"/><text fill="#FFFFFF" font-family="'Verdana'" font-size="12.5" lengthAdjust="spacing" textLength="122.1375" x="174.3214" y="748.1562">Path A: Onboarding</text><rect fill="url(#gkfqo9iaal0ne2)" height="45.8008" rx="13.0208" ry="13.0208" style="stroke:#304D6D;stroke-width:1.0417;" width="122.2351" x="332.613" y="720.9284"/><text fill="#FFFFFF" font-family="'Verdana'" font-size="12.5" lengthAdjust="spacing" textLength="90.9851" x="348.238" y="748.1562">Path B: Kickoff</text><rect fill="url(#gkfqo9iaal0ne2)" height="60.3516" rx="13.0208" ry="13.0208" style="stroke:#304D6D;stroke-width:1.0417;" width="156.2683" x="157.2589" y="861.5221"/><text fill="#FFFFFF" font-family="'Verdana'" font-size="12.5" lengthAdjust="spacing" textLength="85.5896" x="172.8839" y="888.7499">Google Drive:</text><text fill="#FFFFFF" font-family="'Verdana'" font-size="12.5" lengthAdjust="spacing" textLength="125.0183" x="172.8839" y="903.3007">Create Client Folder</text><rect fill="url(#gkfqo9iaal0ne2)" height="60.3516" rx="13.0208" ry="13.0208" style="stroke:#304D6D;stroke-width:1.0417;" width="147.3572" x="161.7172" y="964.5846"/><text fill="#FFFFFF" font-family="'Verdana'" font-size="12.5" lengthAdjust="spacing" textLength="37.3901" x="177.3422" y="991.8124">Slack:</text><text fill="#FFFFFF" font-family="'Verdana'" font-size="12.5" lengthAdjust="spacing" textLength="116.1072" x="177.3422" y="1006.3632">Notify #sales-wins</text><rect fill="url(#gkfqo9iaal0ne2)" height="60.3516" rx="13.0208" ry="13.0208" style="stroke:#304D6D;stroke-width:1.0417;" width="176.2878" x="147.2485" y="1067.6367"/><text fill="#FFFFFF" font-family="'Verdana'" font-size="12.5" lengthAdjust="spacing" textLength="47.9614" x="162.8735" y="1094.8645">VBOUT:</text><text fill="#FFFFFF" font-family="'Verdana'" font-size="12.5" lengthAdjust="spacing" textLength="145.0378" x="162.8735" y="1109.4153">Add to 'New Client' List</text><rect fill="url(#gkfqo9iaal0ne2)" height="60.3516" rx="13.0208" ry="13.0208" style="stroke:#304D6D;stroke-width:1.0417;" width="163.269" x="153.7589" y="1170.6992"/><text fill="#FFFFFF" font-family="'Verdana'" font-size="12.5" lengthAdjust="spacing" textLength="67.8528" x="169.3839" y="1197.927">SuiteDash:</text><text fill="#FFFFFF" font-family="'Verdana'" font-size="12.5" lengthAdjust="spacing" textLength="132.019" x="169.3839" y="1212.4778">Send Welcome Email</text><ellipse cx="235.3943" cy="1297.7201" fill="none" rx="11.4583" ry="11.4583" style="stroke:#3399F3;stroke-width:1.0417;"/><ellipse cx="235.3943" cy="1297.7201" fill="none" rx="6.25" ry="6.25" style="stroke:#3399F3;stroke-width:1.0417;"/><!--link start to Client Signs Proposal--><g class="link" data-entity-1="start" data-entity-2="Client Signs Proposal" data-source-line="5" data-uid="lnk5" id="link_start_Client Signs Proposal"><path d="M238.5193,150.5846 C238.5193,161.2305 238.5193,172.4596 238.5193,186.5013" fill="none" id="start-to-Client Signs Proposal" style="stroke:#446E9B;stroke-width:3.125;"/><polygon fill="#446E9B" points="238.5193,192.7513,242.686,183.3763,238.5193,187.543,234.3526,183.3763,238.5193,192.7513" style="stroke:#446E9B;stroke-width:3.125;"/></g><!--link Client Signs Proposal to SuiteDash:\nChange Status to 'Client'--><g class="link" data-entity-1="Client Signs Proposal" data-entity-2="SuiteDash..nChange Status to .Client." data-source-line="6" data-uid="lnk7" id="link_Client Signs Proposal_SuiteDash..nChange Status to .Client."><path d="M238.5193,239.1471 C238.5193,251.6992 238.5193,261.3138 238.5193,274.8971" fill="none" id="Client Signs Proposal-to-SuiteDash:\nChange Status to 'Client'" style="stroke:#446E9B;stroke-width:3.125;"/><polygon fill="#446E9B" points="238.5193,281.1471,242.686,271.7721,238.5193,275.9388,234.3526,271.7721,238.5193,281.1471" style="stroke:#446E9B;stroke-width:3.125;"/></g><!--link SuiteDash:\nChange Status to 'Client' to SuiteDash:\nFire Webhook--><g class="link" data-entity-1="SuiteDash..nChange Status to .Client." data-entity-2="SuiteDash..nFire Webhook" data-source-line="7" data-uid="lnk9" id="link_SuiteDash..nChange Status to .Client._SuiteDash..nFire Webhook"><path d="M238.5193,342.1992 C238.5193,355.4805 238.5193,364.8555 238.5193,378.1159" fill="none" id="SuiteDash:\nChange Status to 'Client'-to-SuiteDash:\nFire Webhook" style="stroke:#446E9B;stroke-width:3.125;"/><polygon fill="#446E9B" points="238.5193,384.3659,242.686,374.9909,238.5193,379.1576,234.3526,374.9909,238.5193,384.3659" style="stroke:#446E9B;stroke-width:3.125;"/></g><!--link SuiteDash:\nFire Webhook to Activepieces Router--><g class="link" data-entity-1="SuiteDash..nFire Webhook" data-entity-2="Activepieces Router" data-source-line="11" data-uid="lnk12" id="link_SuiteDash..nFire Webhook_Activepieces Router"><path d="M238.5193,445.293 C238.5193,473.0742 238.5193,507.8451 238.5193,533.0013" fill="none" id="SuiteDash:\nFire Webhook-to-Activepieces Router" style="stroke:#446E9B;stroke-width:3.125;"/><polygon fill="#446E9B" points="238.5193,539.2513,242.686,529.8763,238.5193,534.043,234.3526,529.8763,238.5193,539.2513" style="stroke:#446E9B;stroke-width:3.125;"/></g><!--link Activepieces Router to #13--><g class="link" data-entity-1="Activepieces Router" data-entity-2=".13" data-source-line="13" data-uid="lnk15" id="link_Activepieces Router_.13"><path d="M238.5193,585.6471 C238.5193,599.3242 238.5193,610.1471 238.5193,621.3971" fill="none" id="Activepieces Router-to-#13" style="stroke:#446E9B;stroke-width:3.125;"/><polygon fill="#446E9B" points="238.5193,627.6471,242.686,618.2721,238.5193,622.4388,234.3526,618.2721,238.5193,627.6471" style="stroke:#446E9B;stroke-width:3.125;"/><text fill="#FFFFFF" font-family="'Verdana'" font-size="12.5" lengthAdjust="spacing" textLength="87.4634" x="129.7758" y="611.7549">Service Type?</text></g><!--link #13 to Path A: Onboarding--><g class="link" data-entity-1=".13" data-entity-2="Path A. Onboarding" data-source-line="14" data-uid="lnk17" id="link_.13_Path A. Onboarding"><path d="M238.1651,653.3555 C237.6547,669.7305 236.9086,693.7126 236.2732,714.4522" fill="none" id="#13-to-Path A: Onboarding" style="stroke:#446E9B;stroke-width:3.125;"/><polygon fill="#446E9B" points="236.0818,720.6992,240.5336,711.4562,236.2413,715.4933,232.2042,711.201,236.0818,720.6992" style="stroke:#446E9B;stroke-width:3.125;"/><text fill="#FFFFFF" font-family="'Verdana'" font-size="12.5" lengthAdjust="spacing" textLength="53.1616" x="243.7276" y="691.9062">Retainer</text></g><!--link #13 to Path B: Kickoff--><g class="link" data-entity-1=".13" data-entity-2="Path B. Kickoff" data-source-line="16" data-uid="lnk19" id="link_.13_Path B. Kickoff"><path d="M247.0193,644.918 C260.5193,650.0846 287.436,661.0951 308.311,674.0534 C330.3005,687.7096 348.3317,702.1411 364.8109,716.5265" fill="none" id="#13-to-Path B: Kickoff" style="stroke:#446E9B;stroke-width:3.125;"/><polygon fill="#446E9B" points="369.5193,720.6367,365.1968,711.3325,365.5956,717.2116,359.7166,717.6104,369.5193,720.6367" style="stroke:#446E9B;stroke-width:3.125;"/><text fill="#FFFFFF" font-family="'Verdana'" font-size="12.5" lengthAdjust="spacing" textLength="43.2617" x="347.8943" y="691.9062">Project</text></g><!--link Path A: Onboarding to Google Drive:\nCreate Client Folder--><g class="link" data-entity-1="Path A. Onboarding" data-entity-2="Google Drive..nCreate Client Folder" data-source-line="21" data-uid="lnk22" id="link_Path A. Onboarding_Google Drive..nCreate Client Folder"><path d="M235.3943,767.0117 C235.3943,792.1888 235.3943,827.1367 235.3943,854.9909" fill="none" id="Path A: Onboarding-to-Google Drive:\nCreate Client Folder" style="stroke:#446E9B;stroke-width:3.125;"/><polygon fill="#446E9B" points="235.3943,861.2409,239.561,851.8659,235.3943,856.0326,231.2276,851.8659,235.3943,861.2409" style="stroke:#446E9B;stroke-width:3.125;"/></g><!--link Google Drive:\nCreate Client Folder to Slack:\nNotify #sales-wins--><g class="link" data-entity-1="Google Drive..nCreate Client Folder" data-entity-2="Slack..nNotify .sales-wins" data-source-line="22" data-uid="lnk24" id="link_Google Drive..nCreate Client Folder_Slack..nNotify .sales-wins"><path d="M235.3943,922.2201 C235.3943,935.4909 235.3943,944.8659 235.3943,958.1263" fill="none" id="Google Drive:\nCreate Client Folder-to-Slack:\nNotify #sales-wins" style="stroke:#446E9B;stroke-width:3.125;"/><polygon fill="#446E9B" points="235.3943,964.3763,239.561,955.0013,235.3943,959.168,231.2276,955.0013,235.3943,964.3763" style="stroke:#446E9B;stroke-width:3.125;"/></g><!--link Slack:\nNotify #sales-wins to VBOUT:\nAdd to 'New Client' List--><g class="link" data-entity-1="Slack..nNotify .sales-wins" data-entity-2="VBOUT..nAdd to .New Client. List" data-source-line="23" data-uid="lnk26" id="link_Slack..nNotify .sales-wins_VBOUT..nAdd to .New Client. List"><path d="M235.3943,1025.2826 C235.3943,1038.5534 235.3943,1047.9284 235.3943,1061.1888" fill="none" id="Slack:\nNotify #sales-wins-to-VBOUT:\nAdd to 'New Client' List" style="stroke:#446E9B;stroke-width:3.125;"/><polygon fill="#446E9B" points="235.3943,1067.4388,239.561,1058.0638,235.3943,1062.2305,231.2276,1058.0638,235.3943,1067.4388" style="stroke:#446E9B;stroke-width:3.125;"/></g><!--link VBOUT:\nAdd to 'New Client' List to SuiteDash:\nSend Welcome Email--><g class="link" data-entity-1="VBOUT..nAdd to .New Client. List" data-entity-2="SuiteDash..nSend Welcome Email" data-source-line="24" data-uid="lnk28" id="link_VBOUT..nAdd to .New Client. List_SuiteDash..nSend Welcome Email"><path d="M235.3943,1128.3346 C235.3943,1141.6055 235.3943,1150.9909 235.3943,1164.2409" fill="none" id="VBOUT:\nAdd to 'New Client' List-to-SuiteDash:\nSend Welcome Email" style="stroke:#446E9B;stroke-width:3.125;"/><polygon fill="#446E9B" points="235.3943,1170.4909,239.561,1161.1159,235.3943,1165.2826,231.2276,1161.1159,235.3943,1170.4909" style="stroke:#446E9B;stroke-width:3.125;"/></g><!--link SuiteDash:\nSend Welcome Email to end--><g class="link" data-entity-1="SuiteDash..nSend Welcome Email" data-entity-2="end" data-source-line="27" data-uid="lnk30" id="link_SuiteDash..nSend Welcome Email_end"><path d="M235.3943,1231.3867 C235.3943,1249.8555 235.3943,1266.3346 235.3943,1279.5221" fill="none" id="SuiteDash:\nSend Welcome Email-to-end" style="stroke:#446E9B;stroke-width:3.125;"/><polygon fill="#446E9B" points="235.3943,1285.7721,239.561,1276.3971,235.3943,1280.5638,231.2276,1276.3971,235.3943,1285.7721" style="stroke:#446E9B;stroke-width:3.125;"/></g><!--SRC=[XLB1JW8n5BplLpph0J3X1_QWMK0yQ800wa4zbExRtIUbtRHl8SJuxvPTDW4ZiOVsq9dfl9bUSO4R15zAXLgk8YRM22Afs6uaapMGv6ZKFeQX9ZGCKxEoqgLaSXXhknDHL4eNM0UeM3hAStGmAwH70LyHXDMzwK6_VmlYgB2Wt7YOELjQBxMeCVNzeYB6aVH5_6w6XJGvme8bLnxOGgTXToxWn-GGNd5LMBiMqVUPgxcjk3K5tKGnRR4aLEXxhSVBMirJfoHez1eZzKPP442t9OMmt9Tu9o34QkgxrktR75cIGVS1OYQvW2G-oR8HG-tnd1HI-aJ5BMSGmoEfjSso8y6abFsQzc0rd6SL_FLYCzY3jNaeVEJ2U8VO7Kh6jkknrMaxQ9EubceTO1FBbEtXElI7lhyZuqz0BuFfypA0aZIjYvlWxYZOWIVoVA71HHWcfAwL3V_nVYD9rpt-Xwc5mXVx0G00]--></g></svg>