<svg xmlns="http://www.w3.org/2000/svg" xmlns:xlink="http://www.w3.org/1999/xlink" contentStyleType="text/css" data-diagram-type="ACTIVITY" height="827px" preserveAspectRatio="none" style="width:503px;height:827px;background:#FFFFFF;" version="1.1" viewBox="0 0 503 827" width="503px" zoomAndPan="magnify"><defs/><g><ellipse cx="268.3276" cy="20" fill="#222222" rx="10" ry="10" style="stroke:#222222;stroke-width:1;"/><rect fill="#F1F1F1" height="33.9688" rx="12.5" ry="12.5" style="stroke:#181818;stroke-width:0.5;" width="133.0977" x="201.7788" y="50"/><text fill="#000000" font-family="sans-serif" font-size="12" lengthAdjust="spacing" textLength="113.0977" x="211.7788" y="71.1387">Start of Fiscal Year</text><rect fill="none" height="416.1094" style="stroke:#000000;stroke-width:1.5;" width="434.1602" x="46.27" y="93.9688"/><path d="M191.7925,93.9688 L191.7925,103.2656 L181.7925,113.2656 L46.27,113.2656" fill="none" style="stroke:#000000;stroke-width:1.5;"/><text fill="#000000" font-family="sans-serif" font-size="14" lengthAdjust="spacing" textLength="135.5225" x="49.27" y="107.9639">Annual Compliance</text><rect fill="#F1F1F1" height="33.9688" rx="12.5" ry="12.5" style="stroke:#181818;stroke-width:0.5;" width="145.0391" x="195.8081" y="130.2656"/><text fill="#000000" font-family="sans-serif" font-size="12" lengthAdjust="spacing" textLength="125.0391" x="205.8081" y="151.4043">Hold Annual Meeting</text><rect fill="#F1F1F1" height="33.9688" rx="12.5" ry="12.5" style="stroke:#181818;stroke-width:0.5;" width="153.7051" x="191.4751" y="184.2344"/><text fill="#000000" font-family="sans-serif" font-size="12" lengthAdjust="spacing" textLength="133.7051" x="201.4751" y="205.373">Draft Meeting Minutes</text><rect fill="#F1F1F1" height="33.9688" rx="12.5" ry="12.5" style="stroke:#181818;stroke-width:0.5;" width="197.8848" x="169.3853" y="238.2031"/><text fill="#000000" font-family="sans-serif" font-size="12" lengthAdjust="spacing" textLength="177.8848" x="179.3853" y="259.3418">Review Operating Agreement</text><polygon fill="#F1F1F1" points="219.1177,292.1719,317.5376,292.1719,329.5376,304.1719,317.5376,316.1719,219.1177,316.1719,207.1177,304.1719,219.1177,292.1719" style="stroke:#181818;stroke-width:0.5;"/><text fill="#000000" font-family="sans-serif" font-size="11" lengthAdjust="spacing" textLength="98.4199" x="219.1177" y="307.98">Changes needed?</text><text fill="#000000" font-family="sans-serif" font-size="11" lengthAdjust="spacing" textLength="19.2178" x="187.8999" y="301.5776">Yes</text><text fill="#000000" font-family="sans-serif" font-size="11" lengthAdjust="spacing" textLength="14.9585" x="329.5376" y="301.5776">No</text><rect fill="#F1F1F1" height="33.9688" rx="12.5" ry="12.5" style="stroke:#181818;stroke-width:0.5;" width="197.0352" x="66.27" y="326.1719"/><text fill="#000000" font-family="sans-serif" font-size="12" lengthAdjust="spacing" textLength="177.0352" x="76.27" y="347.3105">Amend Operating Agreement</text><rect fill="#F1F1F1" height="33.9688" rx="12.5" ry="12.5" style="stroke:#181818;stroke-width:0.5;" width="177.125" x="283.3052" y="326.1719"/><text fill="#000000" font-family="sans-serif" font-size="12" lengthAdjust="spacing" textLength="157.125" x="293.3052" y="347.3105">Ratify Existing Agreement</text><polygon fill="#F1F1F1" points="268.3276,366.1406,280.3276,378.1406,268.3276,390.1406,256.3276,378.1406,268.3276,366.1406" style="stroke:#181818;stroke-width:0.5;"/><rect fill="#F1F1F1" height="33.9688" rx="12.5" ry="12.5" style="stroke:#181818;stroke-width:0.5;" width="166.1914" x="185.2319" y="410.1406"/><text fill="#000000" font-family="sans-serif" font-size="12" lengthAdjust="spacing" textLength="146.1914" x="195.2319" y="431.2793">File State Annual Report</text><rect fill="#F1F1F1" height="33.9688" rx="12.5" ry="12.5" style="stroke:#181818;stroke-width:0.5;" width="135.207" x="200.7241" y="464.1094"/><text fill="#000000" font-family="sans-serif" font-size="12" lengthAdjust="spacing" textLength="115.207" x="210.7241" y="485.248">Pay Franchise Fees</text><rect fill="none" height="200.2344" style="stroke:#000000;stroke-width:1.5;" width="481.4302" x="11" y="520.0781"/><path d="M145.4619,520.0781 L145.4619,529.375 L135.4619,539.375 L11,539.375" fill="none" style="stroke:#000000;stroke-width:1.5;"/><text fill="#000000" font-family="sans-serif" font-size="14" lengthAdjust="spacing" textLength="124.4619" x="14" y="534.0732">Financial Hygiene</text><rect fill="#F1F1F1" height="33.9688" rx="12.5" ry="12.5" style="stroke:#181818;stroke-width:0.5;" width="156.0371" x="190.3091" y="556.375"/><text fill="#000000" font-family="sans-serif" font-size="12" lengthAdjust="spacing" textLength="136.0371" x="200.3091" y="577.5137">Review Bank Accounts</text><polygon fill="#F1F1F1" points="196.457,610.3438,340.1982,610.3438,352.1982,622.3438,340.1982,634.3438,196.457,634.3438,184.457,622.3438,196.457,610.3438" style="stroke:#181818;stroke-width:0.5;"/><text fill="#000000" font-family="sans-serif" font-size="11" lengthAdjust="spacing" textLength="143.7412" x="196.457" y="626.1519">Personal expenses found?</text><text fill="#000000" font-family="sans-serif" font-size="11" lengthAdjust="spacing" textLength="19.2178" x="165.2393" y="619.7495">Yes</text><text fill="#000000" font-family="sans-serif" font-size="11" lengthAdjust="spacing" textLength="14.9585" x="352.1982" y="619.7495">No</text><path d="M214.4121,648.7617 L214.4121,657.3281 L194.4121,661.3281 L214.4121,665.3281 L214.4121,673.8945 A0,0 0 0 0 214.4121,673.8945 L360.9561,673.8945 A0,0 0 0 0 360.9561,673.8945 L360.9561,658.7617 L350.9561,648.7617 L214.4121,648.7617 A0,0 0 0 0 214.4121,648.7617" fill="#FEFFDD" style="stroke:#181818;stroke-width:0.5;"/><path d="M350.9561,648.7617 L350.9561,658.7617 L360.9561,658.7617 L350.9561,648.7617" fill="#FEFFDD" style="stroke:#181818;stroke-width:0.5;"/><text fill="#000000" font-family="sans-serif" font-size="13" lengthAdjust="spacing" textLength="125.5439" x="220.4121" y="665.8286">Danger! Avoid this.</text><rect fill="#F1F1F1" height="33.9688" rx="12.5" ry="12.5" style="stroke:#181818;stroke-width:0.5;" width="171.4121" x="23" y="644.3438"/><text fill="#000000" font-family="sans-serif" font-size="12" lengthAdjust="spacing" textLength="151.4121" x="33" y="665.4824">Reclassify as Distribution</text><rect fill="#F1F1F1" height="33.9688" rx="12.5" ry="12.5" style="stroke:#181818;stroke-width:0.5;" width="93.9863" x="380.9561" y="644.3438"/><text fill="#000000" font-family="sans-serif" font-size="12" lengthAdjust="spacing" textLength="73.9863" x="390.9561" y="665.4824">Books Clean</text><polygon fill="#F1F1F1" points="268.3276,684.3125,280.3276,696.3125,268.3276,708.3125,256.3276,696.3125,268.3276,684.3125" style="stroke:#181818;stroke-width:0.5;"/><rect fill="#F1F1F1" height="33.9688" rx="12.5" ry="12.5" style="stroke:#181818;stroke-width:0.5;" width="144.3828" x="196.1362" y="740.3125"/><text fill="#000000" font-family="sans-serif" font-size="12" lengthAdjust="spacing" textLength="124.3828" x="206.1362" y="761.4512">Corporate Veil Intact</text><ellipse cx="268.3276" cy="805.2813" fill="none" rx="11" ry="11" style="stroke:#222222;stroke-width:1;"/><ellipse cx="268.3276" cy="805.2813" fill="#222222" rx="6" ry="6" style="stroke:#222222;stroke-width:1;"/><line style="stroke:#181818;stroke-width:1;" x1="268.3276" x2="268.3276" y1="30" y2="50"/><polygon fill="#181818" points="264.3276,40,268.3276,50,272.3276,40,268.3276,44" style="stroke:#181818;stroke-width:1;"/><line style="stroke:#181818;stroke-width:1;" x1="268.3276" x2="268.3276" y1="164.2344" y2="184.2344"/><polygon fill="#181818" points="264.3276,174.2344,268.3276,184.2344,272.3276,174.2344,268.3276,178.2344" style="stroke:#181818;stroke-width:1;"/><line style="stroke:#181818;stroke-width:1;" x1="268.3276" x2="268.3276" y1="218.2031" y2="238.2031"/><polygon fill="#181818" points="264.3276,228.2031,268.3276,238.2031,272.3276,228.2031,268.3276,232.2031" style="stroke:#181818;stroke-width:1;"/><line style="stroke:#181818;stroke-width:1;" x1="207.1177" x2="164.7876" y1="304.1719" y2="304.1719"/><line style="stroke:#181818;stroke-width:1;" x1="164.7876" x2="164.7876" y1="304.1719" y2="326.1719"/><polygon fill="#181818" points="160.7876,316.1719,164.7876,326.1719,168.7876,316.1719,164.7876,320.1719" style="stroke:#181818;stroke-width:1;"/><line style="stroke:#181818;stroke-width:1;" x1="329.5376" x2="371.8677" y1="304.1719" y2="304.1719"/><line style="stroke:#181818;stroke-width:1;" x1="371.8677" x2="371.8677" y1="304.1719" y2="326.1719"/><polygon fill="#181818" points="367.8677,316.1719,371.8677,326.1719,375.8677,316.1719,371.8677,320.1719" style="stroke:#181818;stroke-width:1;"/><line style="stroke:#181818;stroke-width:1;" x1="164.7876" x2="164.7876" y1="360.1406" y2="378.1406"/><line style="stroke:#181818;stroke-width:1;" x1="164.7876" x2="256.3276" y1="378.1406" y2="378.1406"/><polygon fill="#181818" points="246.3276,374.1406,256.3276,378.1406,246.3276,382.1406,250.3276,378.1406" style="stroke:#181818;stroke-width:1;"/><line style="stroke:#181818;stroke-width:1;" x1="371.8677" x2="371.8677" y1="360.1406" y2="378.1406"/><line style="stroke:#181818;stroke-width:1;" x1="371.8677" x2="280.3276" y1="378.1406" y2="378.1406"/><polygon fill="#181818" points="290.3276,374.1406,280.3276,378.1406,290.3276,382.1406,286.3276,378.1406" style="stroke:#181818;stroke-width:1;"/><line style="stroke:#181818;stroke-width:1;" x1="268.3276" x2="268.3276" y1="272.1719" y2="292.1719"/><polygon fill="#181818" points="264.3276,282.1719,268.3276,292.1719,272.3276,282.1719,268.3276,286.1719" style="stroke:#181818;stroke-width:1;"/><line style="stroke:#181818;stroke-width:1;" x1="268.3276" x2="268.3276" y1="390.1406" y2="410.1406"/><polygon fill="#181818" points="264.3276,400.1406,268.3276,410.1406,272.3276,400.1406,268.3276,404.1406" style="stroke:#181818;stroke-width:1;"/><line style="stroke:#181818;stroke-width:1;" x1="268.3276" x2="268.3276" y1="444.1094" y2="464.1094"/><polygon fill="#181818" points="264.3276,454.1094,268.3276,464.1094,272.3276,454.1094,268.3276,458.1094" style="stroke:#181818;stroke-width:1;"/><line style="stroke:#181818;stroke-width:1;" x1="268.3276" x2="268.3276" y1="83.9688" y2="130.2656"/><polygon fill="#181818" points="264.3276,120.2656,268.3276,130.2656,272.3276,120.2656,268.3276,124.2656" style="stroke:#181818;stroke-width:1;"/><line style="stroke:#181818;stroke-width:1;" x1="184.457" x2="108.7061" y1="622.3438" y2="622.3438"/><line style="stroke:#181818;stroke-width:1;" x1="108.7061" x2="108.7061" y1="622.3438" y2="644.3438"/><polygon fill="#181818" points="104.7061,634.3438,108.7061,644.3438,112.7061,634.3438,108.7061,638.3438" style="stroke:#181818;stroke-width:1;"/><line style="stroke:#181818;stroke-width:1;" x1="352.1982" x2="427.9492" y1="622.3438" y2="622.3438"/><line style="stroke:#181818;stroke-width:1;" x1="427.9492" x2="427.9492" y1="622.3438" y2="644.3438"/><polygon fill="#181818" points="423.9492,634.3438,427.9492,644.3438,431.9492,634.3438,427.9492,638.3438" style="stroke:#181818;stroke-width:1;"/><line style="stroke:#181818;stroke-width:1;" x1="108.7061" x2="108.7061" y1="678.3125" y2="696.3125"/><line style="stroke:#181818;stroke-width:1;" x1="108.7061" x2="256.3276" y1="696.3125" y2="696.3125"/><polygon fill="#181818" points="246.3276,692.3125,256.3276,696.3125,246.3276,700.3125,250.3276,696.3125" style="stroke:#181818;stroke-width:1;"/><line style="stroke:#181818;stroke-width:1;" x1="427.9492" x2="427.9492" y1="678.3125" y2="696.3125"/><line style="stroke:#181818;stroke-width:1;" x1="427.9492" x2="280.3276" y1="696.3125" y2="696.3125"/><polygon fill="#181818" points="290.3276,692.3125,280.3276,696.3125,290.3276,700.3125,286.3276,696.3125" style="stroke:#181818;stroke-width:1;"/><line style="stroke:#181818;stroke-width:1;" x1="268.3276" x2="268.3276" y1="590.3438" y2="610.3438"/><polygon fill="#181818" points="264.3276,600.3438,268.3276,610.3438,272.3276,600.3438,268.3276,604.3438" style="stroke:#181818;stroke-width:1;"/><line style="stroke:#181818;stroke-width:1;" x1="268.3276" x2="268.3276" y1="498.0781" y2="556.375"/><polygon fill="#181818" points="264.3276,546.375,268.3276,556.375,272.3276,546.375,268.3276,550.375" style="stroke:#181818;stroke-width:1;"/><line style="stroke:#181818;stroke-width:1;" x1="268.3276" x2="268.3276" y1="708.3125" y2="740.3125"/><polygon fill="#181818" points="264.3276,730.3125,268.3276,740.3125,272.3276,730.3125,268.3276,734.3125" style="stroke:#181818;stroke-width:1;"/><line style="stroke:#181818;stroke-width:1;" x1="268.3276" x2="268.3276" y1="774.2813" y2="794.2813"/><polygon fill="#181818" points="264.3276,784.2813,268.3276,794.2813,272.3276,784.2813,268.3276,788.2813" style="stroke:#181818;stroke-width:1;"/><!--SRC=[TP31Ri8m44Jl-Oej9xZq0yAX2g4H76XHAbNYw2QRP8LPHrw7WYh-lHi8XKFnnTBEpDhp91WVelYZly1La94Kni86ZPz6hGufa6CO9SoTpbEtQoqPBd04Fn7eYHVEbZ38AyH0N4ylojoRAbndi2Bk0igWvRWd_8Rt5hqvoqdj4NV8uMAW2iPfOxX60KOiiNoPG6YGORn1cPmzvqM9Pih7Uz0AmlZDtILoDLP7U3sG_9lWaghB9pEo28ecuBLWZgtpWp5UcoDaNc4qf8zas9SxtKFBY5KbpIsEDI7Ve0trPuQta1I5wpZ8hVWQlJZM61vQP544bJeU4SYni4QaxsG4vjhAqrVN_s3wPsAd7JpLJOXXtbFrJv3i7PMwaUJv4QgPSrk1rABXUpYdA4wTLn8zcKya2qiEfb0k4bpx2m00]--></g></svg>