<svg xmlns="http://www.w3.org/2000/svg" xmlns:xlink="http://www.w3.org/1999/xlink" contentStyleType="text/css" data-diagram-type="DESCRIPTION" height="1178px" preserveAspectRatio="none" style="width:668px;height:1178px;background:#FFFFFF;" version="1.1" viewBox="0 0 668 1178" width="668px" zoomAndPan="magnify"><defs/><g><!--cluster OPS--><g class="cluster" data-entity="OPS" data-source-line="7" data-uid="ent0002" id="cluster_OPS"><path d="M223.36,6 L461.2184,6 A3.75,3.75 0 0 1 463.7184,8.5 L470.7184,28.2969 L659.14,28.2969 A2.5,2.5 0 0 1 661.64,30.7969 L661.64,463.5 A2.5,2.5 0 0 1 659.14,466 L223.36,466 A2.5,2.5 0 0 1 220.86,463.5 L220.86,8.5 A2.5,2.5 0 0 1 223.36,6" fill="#FFC0CB" style="stroke:#000000;stroke-width:1.5;"/><line style="stroke:#000000;stroke-width:1.5;" x1="220.86" x2="470.7184" y1="28.2969" y2="28.2969"/><text fill="#000000" font-family="sans-serif" font-size="14" font-weight="bold" lengthAdjust="spacing" textLength="236.8584" x="224.86" y="20.9951">Operational Layer (Risk Zone)</text></g><!--cluster PERS--><g class="cluster" data-entity="PERS" data-source-line="14" data-uid="ent0007" id="cluster_PERS"><path d="M8.5,932 L127.0918,932 A3.75,3.75 0 0 1 129.5918,934.5 L136.5918,954.2969 L174.2,954.2969 A2.5,2.5 0 0 1 176.7,956.7969 L176.7,1032.5 A2.5,2.5 0 0 1 174.2,1035 L8.5,1035 A2.5,2.5 0 0 1 6,1032.5 L6,934.5 A2.5,2.5 0 0 1 8.5,932" fill="#FFFFE0" style="stroke:#000000;stroke-width:1.5;"/><line style="stroke:#000000;stroke-width:1.5;" x1="6" x2="136.5918" y1="954.2969" y2="954.2969"/><text fill="#000000" font-family="sans-serif" font-size="14" font-weight="bold" lengthAdjust="spacing" textLength="117.5918" x="10" y="946.9951">Personal Layer</text></g><!--cluster SHIELD--><g class="cluster" data-entity="SHIELD" data-source-line="18" data-uid="ent0009" id="cluster_SHIELD"><path d="M227.2,524 L455.2762,524 A3.75,3.75 0 0 1 457.7762,526.5 L464.7762,546.2969 L655.7,546.2969 A2.5,2.5 0 0 1 658.2,548.7969 L658.2,1032.5 A2.5,2.5 0 0 1 655.7,1035 L227.2,1035 A2.5,2.5 0 0 1 224.7,1032.5 L224.7,526.5 A2.5,2.5 0 0 1 227.2,524" fill="#ADD8E6" style="stroke:#000000;stroke-width:1.5;"/><line style="stroke:#000000;stroke-width:1.5;" x1="224.7" x2="464.7762" y1="546.2969" y2="546.2969"/><text fill="#000000" font-family="sans-serif" font-size="14" font-weight="bold" lengthAdjust="spacing" textLength="227.0762" x="228.7" y="538.9951">The Shield (Insurance Layer)</text></g><!--cluster SOV--><g class="cluster" data-entity="SOV" data-source-line="26" data-uid="ent0015" id="cluster_SOV"><path d="M244.22,1084 L486.2073,1084 A3.75,3.75 0 0 1 488.7073,1086.5 L495.7073,1106.2969 L593.28,1106.2969 A2.5,2.5 0 0 1 595.78,1108.7969 L595.78,1168.5 A2.5,2.5 0 0 1 593.28,1171 L244.22,1171 A2.5,2.5 0 0 1 241.72,1168.5 L241.72,1086.5 A2.5,2.5 0 0 1 244.22,1084" fill="#90EE90" style="stroke:#000000;stroke-width:1.5;"/><line style="stroke:#000000;stroke-width:1.5;" x1="241.72" x2="495.7073" y1="1106.2969" y2="1106.2969"/><text fill="#000000" font-family="sans-serif" font-size="14" font-weight="bold" lengthAdjust="spacing" textLength="240.9873" x="245.72" y="1098.9951">Sovereignty Layer (Safe Zone)</text></g><!--entity OP1--><g class="entity" data-entity="OP1" data-source-line="8" data-uid="ent0003" id="entity_OP1"><rect fill="#FFFFFF" height="36.2969" rx="2.5" ry="2.5" style="stroke:#181818;stroke-width:0.5;" width="141.8232" x="245.81" y="320.85"/><text fill="#000000" font-family="sans-serif" font-size="14" lengthAdjust="spacing" textLength="121.8232" x="255.81" y="343.8451">OpCo 1: Notroom</text></g><!--entity OP2--><g class="entity" data-entity="OP2" data-source-line="9" data-uid="ent0004" id="entity_OP2"><rect fill="#FFFFFF" height="36.2969" rx="2.5" ry="2.5" style="stroke:#181818;stroke-width:0.5;" width="129.3682" x="252.04" y="184.85"/><text fill="#000000" font-family="sans-serif" font-size="14" lengthAdjust="spacing" textLength="109.3682" x="262.04" y="207.8451">OpCo 2: TaxEar</text></g><!--entity OP3--><g class="entity" data-entity="OP3" data-source-line="10" data-uid="ent0005" id="entity_OP3"><rect fill="#FFFFFF" height="36.2969" rx="2.5" ry="2.5" style="stroke:#181818;stroke-width:0.5;" width="160.3418" x="477.3" y="320.85"/><text fill="#000000" font-family="sans-serif" font-size="14" lengthAdjust="spacing" textLength="140.3418" x="487.3" y="343.8451">OpCo 3: Real Estate</text></g><!--entity PNR--><g class="entity" data-entity="PNR" data-source-line="11" data-uid="ent0006" id="entity_PNR"><rect fill="#FFFFFF" height="36.2969" rx="2.5" ry="2.5" style="stroke:#181818;stroke-width:0.5;" width="143.7305" x="244.86" y="48.85"/><text fill="#000000" font-family="sans-serif" font-size="14" lengthAdjust="spacing" textLength="123.7305" x="254.86" y="71.8451">PNR Holdings LLC</text></g><!--entity YOU--><g class="entity" data-entity="YOU" data-source-line="15" data-uid="ent0008" id="entity_YOU"><rect fill="#FFFFFF" height="52.5938" rx="2.5" ry="2.5" style="stroke:#181818;stroke-width:0.5;" width="138.6992" x="22" y="966.7"/><text fill="#000000" font-family="sans-serif" font-size="14" lengthAdjust="spacing" textLength="118.6992" x="32" y="989.6951">Primary Principal</text><text fill="#000000" font-family="sans-serif" font-size="14" lengthAdjust="spacing" textLength="36.9141" x="32" y="1005.992">(You)</text></g><!--entity CAP--><g class="entity" data-entity="CAP" data-source-line="19" data-uid="ent0010" id="entity_CAP"><rect fill="#FFD700" height="52.5938" rx="2.5" ry="2.5" style="stroke:#181818;stroke-width:0.5;" width="169.4473" x="472.75" y="558.7"/><text fill="#000000" font-family="sans-serif" font-size="14" lengthAdjust="spacing" textLength="149.4473" x="482.75" y="581.6951">Captive Insurance Co</text><text fill="#000000" font-family="sans-serif" font-size="14" lengthAdjust="spacing" textLength="106.8457" x="482.75" y="597.992">(831b Election)</text></g><!--entity UMB--><g class="entity" data-entity="UMB" data-source-line="20" data-uid="ent0011" id="entity_UMB"><rect fill="#FFFFFF" height="52.5938" rx="2.5" ry="2.5" style="stroke:#181818;stroke-width:0.5;" width="128.7188" x="252.36" y="966.7"/><text fill="#000000" font-family="sans-serif" font-size="14" lengthAdjust="spacing" textLength="108.7188" x="262.36" y="989.6951">Umbrella Policy</text><text fill="#000000" font-family="sans-serif" font-size="14" lengthAdjust="spacing" textLength="88.8809" x="262.36" y="1005.992">($10M Limit)</text></g><!--entity KEY--><g class="entity" data-entity="KEY" data-source-line="21" data-uid="ent0012" id="entity_KEY"><rect fill="#FFFFFF" height="36.2969" rx="2.5" ry="2.5" style="stroke:#181818;stroke-width:0.5;" width="143.293" x="245.08" y="830.85"/><text fill="#000000" font-family="sans-serif" font-size="14" lengthAdjust="spacing" textLength="123.293" x="255.08" y="853.8451">Key Person Policy</text></g><!--entity COMM--><g class="entity" data-entity="COMM" data-source-line="22" data-uid="ent0013" id="entity_COMM"><rect fill="#FFFFFF" height="36.2969" rx="2.5" ry="2.5" style="stroke:#181818;stroke-width:0.5;" width="152.0498" x="240.7" y="694.85"/><text fill="#000000" font-family="sans-serif" font-size="14" lengthAdjust="spacing" textLength="132.0498" x="250.7" y="717.8451">D&amp;O / Cyber / E&amp;O</text></g><!--entity PPLI--><g class="entity" data-entity="PPLI" data-source-line="23" data-uid="ent0014" id="entity_PPLI"><rect fill="#FFD700" height="36.2969" rx="2.5" ry="2.5" style="stroke:#181818;stroke-width:0.5;" width="94.0332" x="269.71" y="558.85"/><text fill="#000000" font-family="sans-serif" font-size="14" lengthAdjust="spacing" textLength="74.0332" x="279.71" y="581.8451">PPLI Policy</text></g><!--entity DT--><g class="entity" data-entity="DT" data-source-line="27" data-uid="ent0016" id="entity_DT"><rect fill="#FFFFFF" height="36.2969" rx="2.5" ry="2.5" style="stroke:#181818;stroke-width:0.5;" width="118" x="257.72" y="1118.85"/><text fill="#000000" font-family="sans-serif" font-size="14" lengthAdjust="spacing" textLength="98" x="267.72" y="1141.8451">Dynasty Trust</text></g><!--entity ILIT--><g class="entity" data-entity="ILIT" data-source-line="28" data-uid="ent0017" id="entity_ILIT"><rect fill="#FFFFFF" height="36.2969" rx="2.5" ry="2.5" style="stroke:#181818;stroke-width:0.5;" width="44.6094" x="535.17" y="1118.85"/><text fill="#000000" font-family="sans-serif" font-size="14" lengthAdjust="spacing" textLength="24.6094" x="545.17" y="1141.8451">ILIT</text></g><!--link YOU to UMB--><g class="link" data-entity-1="YOU" data-entity-2="UMB" data-source-line="32" data-uid="lnk18" id="link_YOU_UMB"><path d="M161.12,993 C190.07,993 217.48,993 245.9,993" fill="none" id="YOU-to-UMB" style="stroke:#181818;stroke-width:1;"/><polygon fill="#181818" points="251.9,993,242.9,989,246.9,993,242.9,997,251.9,993" style="stroke:#181818;stroke-width:1;"/><text fill="#000000" font-family="sans-serif" font-size="13" lengthAdjust="spacing" textLength="83.4717" x="207.51" y="993.3169">Protected By</text></g><!--link OPS to COMM--><g class="link" data-entity-1="OPS" data-entity-2="COMM" data-source-line="33" data-uid="lnk19" id="link_OPS_COMM"><path d="M376.64,466.2447 C376.64,466.4048 376.64,466.5671 376.64,466.7315 C376.64,467.0602 376.64,467.3974 376.64,467.7429 C376.64,468.4339 376.64,469.1582 376.64,469.9146 C376.64,471.4274 376.64,473.0688 376.64,474.8297 C376.64,478.3515 376.64,482.3511 376.64,486.7558 C376.64,504.3747 376.64,528.4756 376.64,554.4038 C376.64,606.26 376.64,659.425 376.64,688.66" fill="none" id="OPS-to-COMM" style="stroke:#181818;stroke-width:1;"/><polygon fill="#181818" points="376.64,694.66,380.64,685.66,376.64,689.66,372.64,685.66,376.64,694.66" style="stroke:#181818;stroke-width:1;"/><text fill="#000000" font-family="sans-serif" font-size="13" lengthAdjust="spacing" textLength="83.4717" x="377.64" y="559.7769">Protected By</text></g><!--link OPS to KEY--><g class="link" data-entity-1="OPS" data-entity-2="KEY" data-source-line="34" data-uid="lnk20" id="link_OPS_KEY"><path d="M220.7581,458 C219.9873,458 219.2801,458 218.6419,458 C216.0891,458 214.64,458 214.64,458 C214.64,458 214.64,849 214.64,849 C214.64,849 221.83,849 238.72,849" fill="none" id="OPS-to-KEY" style="stroke:#181818;stroke-width:1;"/><polygon fill="#181818" points="244.72,849,235.72,845,239.72,849,235.72,853,244.72,849" style="stroke:#181818;stroke-width:1;"/><text fill="#000000" font-family="sans-serif" font-size="13" lengthAdjust="spacing" textLength="83.4717" x="130.64" y="630.8869">Protected By</text></g><!--link KEY to OPS--><g class="link" data-entity-1="KEY" data-entity-2="OPS" data-source-line="39" data-uid="lnk23" id="link_KEY_OPS"><path d="M388.77,849 C412.83,849 433.64,849 433.64,849 C433.64,849 433.64,738.5175 433.64,628.035 C433.64,572.7938 433.64,517.5525 433.64,476.1216 C433.64,473.5321 433.64,470.9966 433.64,468.5185 C433.64,467.8989 433.64,473.283 433.64,472.6706" fill="none" id="KEY-to-OPS" style="stroke:#181818;stroke-width:1;"/><polygon fill="#181818" points="433.64,466.6706,429.64,475.6706,433.64,471.6706,437.64,475.6706,433.64,466.6706" style="stroke:#181818;stroke-width:1;"/><text fill="#000000" font-family="sans-serif" font-size="13" lengthAdjust="spacing" textLength="161.2686" x="434.64" y="563.1469">Death Benefit (Tax-Free)</text></g><!--link OPS to CAP--><g class="link" data-entity-1="OPS" data-entity-2="CAP" data-source-line="35" data-uid="lnk21" id="link_OPS_CAP"><path d="M317.64,466.2077 C317.64,466.2808 317.64,466.3541 317.64,466.4279 C317.64,466.7227 317.64,467.0233 317.64,467.3291 C317.64,472.2219 317.64,478.4663 317.64,484.6175 C317.64,496.92 317.64,508.85 317.64,508.85 C317.64,508.85 557.64,508.85 557.64,508.85 C557.64,508.85 557.64,530.41 557.64,552.37" fill="none" id="OPS-to-CAP" style="stroke:#181818;stroke-width:1;"/><polygon fill="#181818" points="557.64,558.37,561.64,549.37,557.64,553.37,553.64,549.37,557.64,558.37" style="stroke:#181818;stroke-width:1;"/><text fill="#000000" font-family="sans-serif" font-size="13" lengthAdjust="spacing" textLength="99.5376" x="337.05" y="521.9169">Pays Premiums</text></g><!--link CAP to DT--><g class="link" data-entity-1="CAP" data-entity-2="DT" data-source-line="38" data-uid="lnk22" id="link_CAP_DT"><path d="M493.64,611.47 C493.64,720.1 493.64,1126.11 493.64,1126.11 C493.64,1126.11 433.52,1126.11 382.13,1126.11" fill="none" id="CAP-to-DT" style="stroke:#181818;stroke-width:1;"/><polygon fill="#181818" points="376.13,1126.11,385.13,1130.11,381.13,1126.11,385.13,1122.11,376.13,1126.11" style="stroke:#181818;stroke-width:1;"/><text fill="#000000" font-family="sans-serif" font-size="13" lengthAdjust="spacing" textLength="64.4414" x="428.64" y="940.6169">Dividends</text></g><!--link DT to CAP--><g class="link" data-entity-1="DT" data-entity-2="CAP" data-source-line="45" data-uid="lnk27" id="link_DT_CAP"><path d="M376.11,1133.37 C434.4,1133.37 514.64,1133.37 514.64,1133.37 C514.64,1133.37 514.64,726.99 514.64,617.45" fill="none" id="DT-to-CAP" style="stroke:#181818;stroke-width:1;"/><polygon fill="#181818" points="514.64,611.45,510.64,620.45,514.64,616.45,518.64,620.45,514.64,611.45" style="stroke:#181818;stroke-width:1;"/></g><!--link PPLI to CAP--><g class="link" data-entity-1="PPLI" data-entity-2="CAP" data-source-line="40" data-uid="lnk24" id="link_PPLI_CAP"><path d="M364,577 C394.81,577 429.91,577 466.3,577" fill="none" id="PPLI-to-CAP" style="stroke:#181818;stroke-width:1;"/><polygon fill="#181818" points="472.3,577,463.3,573,467.3,577,463.3,581,472.3,577" style="stroke:#181818;stroke-width:1;"/><text fill="#000000" font-family="sans-serif" font-size="13" lengthAdjust="spacing" textLength="133.7769" x="419.15" y="590.0669">Investment Wrapper</text></g><!--link ILIT to DT--><g class="link" data-entity-1="ILIT" data-entity-2="DT" data-source-line="41" data-uid="lnk25" id="link_ILIT_DT"><path d="M534.82,1140.63 C498.83,1140.63 433.4,1140.63 382.08,1140.63" fill="none" id="ILIT-to-DT" style="stroke:#181818;stroke-width:1;"/><polygon fill="#181818" points="376.08,1140.63,385.08,1144.63,381.08,1140.63,385.08,1136.63,376.08,1140.63" style="stroke:#181818;stroke-width:1;"/><text fill="#000000" font-family="sans-serif" font-size="13" lengthAdjust="spacing" textLength="161.2686" x="456.45" y="1153.6969">Death Benefit (Tax-Free)</text></g><!--link DT to ILIT--><g class="link" data-entity-1="DT" data-entity-2="ILIT" data-source-line="46" data-uid="lnk28" id="link_DT_ILIT"><path d="M375.93,1147.89 C427.3,1147.89 492.92,1147.89 528.92,1147.89" fill="none" id="DT-to-ILIT" style="stroke:#181818;stroke-width:1;"/><polygon fill="#181818" points="534.92,1147.89,525.92,1143.89,529.92,1147.89,525.92,1151.89,534.92,1147.89" style="stroke:#181818;stroke-width:1;"/></g><!--link DT to PNR--><g class="link" data-entity-1="DT" data-entity-2="PNR" data-source-line="44" data-uid="lnk26" id="link_DT_PNR"><path d="M257.47,1137 C223.54,1137 187.64,1137 187.64,1137 C187.64,1137 187.64,67 187.64,67 C187.64,67 209.07,67 238.64,67" fill="none" id="DT-to-PNR" style="stroke:#181818;stroke-width:1;"/><polygon fill="#181818" points="244.64,67,235.64,63,239.64,67,235.64,71,244.64,67" style="stroke:#181818;stroke-width:1;"/></g><!--SRC=[TLDDRzf04BtxLun2bS811P9BnA5I0IT1CR65eOX-71Oyu1NhNMjt8RMg_lVEsgOOjN1XFVDctioR6RFdCcUQPI2uH5la24hRL7dchqEg10tcqE_r6bRDvDvP7vl6ZSfo9L7Qs1O2GUF6ChaJw0dSMh0ADD-b5XBkF5n9pylPPizs23TXZfev6nCGi08rj6VSxE4hvUlS03CGHZ6q8YxtyCi3-dqByv62_W3UbDLAPJygK1zQovHRR63k1p1dFtscQyZzlv270SoGg7rZcSKQzt21YzvcyA94mkNEG12CIf0prg3VZMuYrERSIbb-vC-e_i09i48XrFkfZKZpZEa2w5zkUCx4TzbUgKEdpByA5__BFqyHufIZIA0zaUP0qzXWHLQ95RzC_61Symt50Kzi8vPRVaGuHuqK4Ju-zDVWYsei5VNeSmIjPsgu2bnaQqrrCuYKu9k2OZxqUrC8UCPj5R2O3Yy4UqLggXIYZYbHh_xg0ZM-3U4EHiMQHdu7_crOaOVJwQNwKJ1ffYc_g_AQmiJgY1hvJjhYj4Onss9ZZUBmIotBiqQK9rt6XMI6WkRwO6p9C9vV53099lFIxXwDcNma0QMiX3EUcrUt-wdKOa0ZLPOycC2myDp-EbVPsXMV4-TQ68s3NAoWtZLc_90PHxwahRKfFD52UGxYe5Jv0CRyo1EKYV5SKcTscSYEZF13bBZb5jfq6Dqd4gBZbOgUcIRoYCPcTComr2ody_JApiy4rn9HLU6xfC6dFFV6LGJToUb9wKzFb_0F]--></g></svg>