<svg xmlns="http://www.w3.org/2000/svg" xmlns:xlink="http://www.w3.org/1999/xlink" contentStyleType="text/css" data-diagram-type="ACTIVITY" height="342px" preserveAspectRatio="none" style="width:600px;height:342px;background:#FFFFFF;" version="1.1" viewBox="0 0 600 342" width="600px" zoomAndPan="magnify"><defs/><g><ellipse cx="293.7654" cy="20" fill="#222222" rx="10" ry="10" style="stroke:#222222;stroke-width:1;"/><rect fill="#F1F1F1" height="33.9688" rx="12.5" ry="12.5" style="stroke:#181818;stroke-width:0.5;" width="174.8926" x="206.3191" y="50"/><text fill="#000000" font-family="sans-serif" font-size="12" lengthAdjust="spacing" textLength="154.8926" x="216.3191" y="71.1387">Issue / Opportunity Arises</text><polygon fill="#F1F1F1" points="36.176,103.9688,110.0447,103.9688,122.0447,115.9688,110.0447,127.9688,36.176,127.9688,24.176,115.9688,36.176,103.9688" style="stroke:#181818;stroke-width:0.5;"/><text fill="#000000" font-family="sans-serif" font-size="11" lengthAdjust="spacing" textLength="19.2178" x="77.1104" y="138.1792">Yes</text><text fill="#000000" font-family="sans-serif" font-size="11" lengthAdjust="spacing" textLength="73.8687" x="36.176" y="119.7769">Cost &lt; $10k?</text><rect fill="#F1F1F1" height="33.9688" rx="12.5" ry="12.5" style="stroke:#181818;stroke-width:0.5;" width="124.2207" x="11" y="160.7734"/><text fill="#000000" font-family="sans-serif" font-size="12" lengthAdjust="spacing" textLength="104.2207" x="21" y="181.9121">Manager Decides</text><ellipse cx="73.1104" cy="229.1445" fill="none" rx="11" ry="11" style="stroke:#222222;stroke-width:1;"/><ellipse cx="73.1104" cy="229.1445" fill="#222222" rx="6" ry="6" style="stroke:#222222;stroke-width:1;"/><polygon fill="#F1F1F1" points="211.1555,103.9688,292.0227,103.9688,304.0227,115.9688,292.0227,127.9688,211.1555,127.9688,199.1555,115.9688,211.1555,103.9688" style="stroke:#181818;stroke-width:0.5;"/><text fill="#000000" font-family="sans-serif" font-size="11" lengthAdjust="spacing" textLength="19.2178" x="255.5891" y="138.1792">Yes</text><text fill="#000000" font-family="sans-serif" font-size="11" lengthAdjust="spacing" textLength="80.8672" x="211.1555" y="119.7769">Cost &lt; $100k?</text><text fill="#000000" font-family="sans-serif" font-size="11" lengthAdjust="spacing" textLength="80.8672" x="304.0227" y="113.3745">Cost &gt; $100k?</text><rect fill="#F1F1F1" height="33.9688" rx="12.5" ry="12.5" style="stroke:#181818;stroke-width:0.5;" width="139.1797" x="181.9993" y="160.7734"/><text fill="#000000" font-family="sans-serif" font-size="12" lengthAdjust="spacing" textLength="119.1797" x="191.9993" y="181.9121">Family Council Vote</text><polygon fill="#F1F1F1" points="206.1309,218.1445,297.0474,218.1445,309.0474,230.1445,297.0474,242.1445,206.1309,242.1445,194.1309,230.1445,206.1309,218.1445" style="stroke:#181818;stroke-width:0.5;"/><text fill="#000000" font-family="sans-serif" font-size="11" lengthAdjust="spacing" textLength="90.9165" x="206.1309" y="233.9526">Majority &gt; 50%?</text><text fill="#000000" font-family="sans-serif" font-size="11" lengthAdjust="spacing" textLength="19.2178" x="174.9131" y="227.5503">Yes</text><text fill="#000000" font-family="sans-serif" font-size="11" lengthAdjust="spacing" textLength="14.9585" x="309.0474" y="227.5503">No</text><rect fill="#F1F1F1" height="33.9688" rx="12.5" ry="12.5" style="stroke:#181818;stroke-width:0.5;" width="77.8203" x="145.2207" y="252.1445"/><text fill="#000000" font-family="sans-serif" font-size="12" lengthAdjust="spacing" textLength="57.8203" x="155.2207" y="273.2832">Approved</text><ellipse cx="184.1309" cy="320.5156" fill="none" rx="11" ry="11" style="stroke:#222222;stroke-width:1;"/><ellipse cx="184.1309" cy="320.5156" fill="#222222" rx="6" ry="6" style="stroke:#222222;stroke-width:1;"/><rect fill="#F1F1F1" height="33.9688" rx="12.5" ry="12.5" style="stroke:#181818;stroke-width:0.5;" width="72.7402" x="282.6772" y="252.1445"/><text fill="#000000" font-family="sans-serif" font-size="12" lengthAdjust="spacing" textLength="52.7402" x="292.6772" y="273.2832">Rejected</text><ellipse cx="319.0474" cy="320.5156" fill="none" rx="11" ry="11" style="stroke:#222222;stroke-width:1;"/><ellipse cx="319.0474" cy="320.5156" fill="#222222" rx="6" ry="6" style="stroke:#222222;stroke-width:1;"/><rect fill="#F1F1F1" height="33.9688" rx="12.5" ry="12.5" style="stroke:#181818;stroke-width:0.5;" width="194.4277" x="394.8899" y="157.3711"/><text fill="#000000" font-family="sans-serif" font-size="12" lengthAdjust="spacing" textLength="174.4277" x="404.8899" y="178.5098">Supermajority Vote Required</text><polygon fill="#F1F1F1" points="456.1873,214.7422,528.0203,214.7422,540.0203,226.7422,528.0203,238.7422,456.1873,238.7422,444.1873,226.7422,456.1873,214.7422" style="stroke:#181818;stroke-width:0.5;"/><text fill="#000000" font-family="sans-serif" font-size="11" lengthAdjust="spacing" textLength="71.833" x="456.1873" y="230.5503">Vote &gt; 75%?</text><text fill="#000000" font-family="sans-serif" font-size="11" lengthAdjust="spacing" textLength="19.2178" x="424.9695" y="224.1479">Yes</text><text fill="#000000" font-family="sans-serif" font-size="11" lengthAdjust="spacing" textLength="14.9585" x="540.0203" y="224.1479">No</text><rect fill="#F1F1F1" height="33.9688" rx="12.5" ry="12.5" style="stroke:#181818;stroke-width:0.5;" width="77.8203" x="395.2771" y="248.7422"/><text fill="#000000" font-family="sans-serif" font-size="12" lengthAdjust="spacing" textLength="57.8203" x="405.2771" y="269.8809">Approved</text><ellipse cx="434.1873" cy="317.1133" fill="none" rx="11" ry="11" style="stroke:#222222;stroke-width:1;"/><ellipse cx="434.1873" cy="317.1133" fill="#222222" rx="6" ry="6" style="stroke:#222222;stroke-width:1;"/><rect fill="#F1F1F1" height="33.9688" rx="12.5" ry="12.5" style="stroke:#181818;stroke-width:0.5;" width="72.7402" x="513.6501" y="248.7422"/><text fill="#000000" font-family="sans-serif" font-size="12" lengthAdjust="spacing" textLength="52.7402" x="523.6501" y="269.8809">Rejected</text><ellipse cx="550.0203" cy="317.1133" fill="none" rx="11" ry="11" style="stroke:#222222;stroke-width:1;"/><ellipse cx="550.0203" cy="317.1133" fill="#222222" rx="6" ry="6" style="stroke:#222222;stroke-width:1;"/><line style="stroke:#181818;stroke-width:1;" x1="293.7654" x2="293.7654" y1="30" y2="50"/><polygon fill="#181818" points="289.7654,40,293.7654,50,297.7654,40,293.7654,44" style="stroke:#181818;stroke-width:1;"/><line style="stroke:#181818;stroke-width:1;" x1="73.1104" x2="73.1104" y1="194.7422" y2="218.1445"/><polygon fill="#181818" points="69.1104,208.1445,73.1104,218.1445,77.1104,208.1445,73.1104,212.1445" style="stroke:#181818;stroke-width:1;"/><line style="stroke:#181818;stroke-width:1;" x1="184.1309" x2="184.1309" y1="286.1133" y2="309.5156"/><polygon fill="#181818" points="180.1309,299.5156,184.1309,309.5156,188.1309,299.5156,184.1309,303.5156" style="stroke:#181818;stroke-width:1;"/><line style="stroke:#181818;stroke-width:1;" x1="319.0474" x2="319.0474" y1="286.1133" y2="309.5156"/><polygon fill="#181818" points="315.0474,299.5156,319.0474,309.5156,323.0474,299.5156,319.0474,303.5156" style="stroke:#181818;stroke-width:1;"/><line style="stroke:#181818;stroke-width:1;" x1="194.1309" x2="184.1309" y1="230.1445" y2="230.1445"/><line style="stroke:#181818;stroke-width:1;" x1="184.1309" x2="184.1309" y1="230.1445" y2="252.1445"/><polygon fill="#181818" points="180.1309,242.1445,184.1309,252.1445,188.1309,242.1445,184.1309,246.1445" style="stroke:#181818;stroke-width:1;"/><line style="stroke:#181818;stroke-width:1;" x1="309.0474" x2="319.0474" y1="230.1445" y2="230.1445"/><line style="stroke:#181818;stroke-width:1;" x1="319.0474" x2="319.0474" y1="230.1445" y2="252.1445"/><polygon fill="#181818" points="315.0474,242.1445,319.0474,252.1445,323.0474,242.1445,319.0474,246.1445" style="stroke:#181818;stroke-width:1;"/><line style="stroke:#181818;stroke-width:1;" x1="251.5891" x2="251.5891" y1="194.7422" y2="218.1445"/><polygon fill="#181818" points="247.5891,208.1445,251.5891,218.1445,255.5891,208.1445,251.5891,212.1445" style="stroke:#181818;stroke-width:1;"/><line style="stroke:#181818;stroke-width:1;" x1="434.1873" x2="434.1873" y1="282.7109" y2="306.1133"/><polygon fill="#181818" points="430.1873,296.1133,434.1873,306.1133,438.1873,296.1133,434.1873,300.1133" style="stroke:#181818;stroke-width:1;"/><line style="stroke:#181818;stroke-width:1;" x1="550.0203" x2="550.0203" y1="282.7109" y2="306.1133"/><polygon fill="#181818" points="546.0203,296.1133,550.0203,306.1133,554.0203,296.1133,550.0203,300.1133" style="stroke:#181818;stroke-width:1;"/><line style="stroke:#181818;stroke-width:1;" x1="444.1873" x2="434.1873" y1="226.7422" y2="226.7422"/><line style="stroke:#181818;stroke-width:1;" x1="434.1873" x2="434.1873" y1="226.7422" y2="248.7422"/><polygon fill="#181818" points="430.1873,238.7422,434.1873,248.7422,438.1873,238.7422,434.1873,242.7422" style="stroke:#181818;stroke-width:1;"/><line style="stroke:#181818;stroke-width:1;" x1="540.0203" x2="550.0203" y1="226.7422" y2="226.7422"/><line style="stroke:#181818;stroke-width:1;" x1="550.0203" x2="550.0203" y1="226.7422" y2="248.7422"/><polygon fill="#181818" points="546.0203,238.7422,550.0203,248.7422,554.0203,238.7422,550.0203,242.7422" style="stroke:#181818;stroke-width:1;"/><line style="stroke:#181818;stroke-width:1;" x1="492.1038" x2="492.1038" y1="191.3398" y2="214.7422"/><polygon fill="#181818" points="488.1038,204.7422,492.1038,214.7422,496.1038,204.7422,492.1038,208.7422" style="stroke:#181818;stroke-width:1;"/><line style="stroke:#181818;stroke-width:1;" x1="73.1104" x2="73.1104" y1="127.9688" y2="160.7734"/><polygon fill="#181818" points="69.1104,150.7734,73.1104,160.7734,77.1104,150.7734,73.1104,154.7734" style="stroke:#181818;stroke-width:1;"/><line style="stroke:#181818;stroke-width:1;" x1="251.5891" x2="251.5891" y1="127.9688" y2="160.7734"/><polygon fill="#181818" points="247.5891,150.7734,251.5891,160.7734,255.5891,150.7734,251.5891,154.7734" style="stroke:#181818;stroke-width:1;"/><line style="stroke:#181818;stroke-width:1;" x1="122.0447" x2="199.1555" y1="115.9688" y2="115.9688"/><polygon fill="#181818" points="189.1555,111.9688,199.1555,115.9688,189.1555,119.9688,193.1555,115.9688" style="stroke:#181818;stroke-width:1;"/><line style="stroke:#181818;stroke-width:1;" x1="293.7654" x2="293.7654" y1="83.9688" y2="88.9688"/><line style="stroke:#181818;stroke-width:1;" x1="293.7654" x2="73.1104" y1="88.9688" y2="88.9688"/><line style="stroke:#181818;stroke-width:1;" x1="73.1104" x2="73.1104" y1="88.9688" y2="103.9688"/><polygon fill="#181818" points="69.1104,93.9688,73.1104,103.9688,77.1104,93.9688,73.1104,97.9688" style="stroke:#181818;stroke-width:1;"/><line style="stroke:#181818;stroke-width:1;" x1="304.0227" x2="492.1038" y1="115.9688" y2="115.9688"/><line style="stroke:#181818;stroke-width:1;" x1="492.1038" x2="492.1038" y1="115.9688" y2="157.3711"/><polygon fill="#181818" points="488.1038,147.3711,492.1038,157.3711,496.1038,147.3711,492.1038,151.3711" style="stroke:#181818;stroke-width:1;"/><!--SRC=[lOx1Qi9048Rl-nHpi92Sj0Sf918HfT235Y88FIx9sAuck-lER25lNoSXKgddpc4PVkRxzoFMWLNsHXGHfl3klGiShU4ELi4GKgxC4PAr8uO5J9vdvsKA_8KMaW-aLC5rigss-XC3RB0ojI2I4Zkli26yvnyMlEhMD1siNRILQU3W68SIORVwv8885J2VFVsb-uQLzy5zOvtVelv_MSG1aftxTLtY2Ij-V6rhSrG3qriNe_MWkeyUGpigYIcKU8acZ6sYtCS5lCp_IrVU7m00]--></g></svg>