<svg xmlns="http://www.w3.org/2000/svg" xmlns:xlink="http://www.w3.org/1999/xlink" contentStyleType="text/css" data-diagram-type="ACTIVITY" height="770px" preserveAspectRatio="none" style="width:859px;height:770px;background:#FFFFFF;" version="1.1" viewBox="0 0 859 770" width="859px" zoomAndPan="magnify"><defs/><g><rect fill="none" height="20.9531" style="stroke:none;stroke-width:1;" width="826.4663" x="15" y="12.7451"/><ellipse cx="131.9189" cy="48.6982" fill="#222222" rx="10" ry="10" style="stroke:#222222;stroke-width:1;"/><rect fill="#F1F1F1" height="33.9688" rx="12.5" ry="12.5" style="stroke:#181818;stroke-width:0.5;" width="162.3008" x="50.7686" y="78.6982"/><text fill="#000000" font-family="sans-serif" font-size="12" lengthAdjust="spacing" textLength="142.3008" x="60.7686" y="99.8369">Receive $1.00 Revenue</text><rect fill="#F1F1F1" height="33.9688" rx="12.5" ry="12.5" style="stroke:#181818;stroke-width:0.5;" width="142.6895" x="60.5742" y="132.667"/><text fill="#000000" font-family="sans-serif" font-size="12" lengthAdjust="spacing" textLength="122.6895" x="70.5742" y="153.8057">Pay Direct Expenses</text><rect fill="#F1F1F1" height="33.9688" rx="12.5" ry="12.5" style="stroke:#181818;stroke-width:0.5;" width="221.8379" x="21" y="186.6357"/><text fill="#000000" font-family="sans-serif" font-size="12" lengthAdjust="spacing" textLength="201.8379" x="31" y="207.7744">Pay Management Fee to Holdings</text><line style="stroke:#000000;stroke-width:1.5;" x1="15" x2="15" y1="12.7451" y2="758.3545"/><rect fill="#F1F1F1" height="33.9688" rx="12.5" ry="12.5" style="stroke:#181818;stroke-width:0.5;" width="93.002" x="330.8291" y="240.6045"/><text fill="#000000" font-family="sans-serif" font-size="12" lengthAdjust="spacing" textLength="73.002" x="340.8291" y="261.7432">Receive Fee</text><rect fill="#F1F1F1" height="33.9688" rx="12.5" ry="12.5" style="stroke:#181818;stroke-width:0.5;" width="248.9844" x="252.8379" y="294.5732"/><text fill="#000000" font-family="sans-serif" font-size="12" lengthAdjust="spacing" textLength="228.9844" x="262.8379" y="315.7119">Pay Shared Services (Software, Legal)</text><rect fill="#F1F1F1" height="33.9688" rx="12.5" ry="12.5" style="stroke:#181818;stroke-width:0.5;" width="136.5137" x="309.0732" y="348.542"/><text fill="#000000" font-family="sans-serif" font-size="12" lengthAdjust="spacing" textLength="116.5137" x="319.0732" y="369.6807">Calculate Net Profit</text><line style="stroke:#000000;stroke-width:1.5;" x1="246.8379" x2="246.8379" y1="12.7451" y2="758.3545"/><rect fill="#F1F1F1" height="33.9688" rx="12.5" ry="12.5" style="stroke:#181818;stroke-width:0.5;" width="91.168" x="630.6714" y="402.5107"/><text fill="#000000" font-family="sans-serif" font-size="12" lengthAdjust="spacing" textLength="71.168" x="640.6714" y="423.6494">Receive K-1</text><polygon fill="#F1F1F1" points="638.0374,456.4795,714.4734,456.4795,726.4734,468.4795,714.4734,480.4795,638.0374,480.4795,626.0374,468.4795,638.0374,456.4795" style="stroke:#181818;stroke-width:0.5;"/><text fill="#000000" font-family="sans-serif" font-size="11" lengthAdjust="spacing" textLength="76.436" x="638.0374" y="472.2876">Tax Strategy?</text><text fill="#000000" font-family="sans-serif" font-size="11" lengthAdjust="spacing" textLength="36.8672" x="589.1702" y="465.8853">S-Corp</text><text fill="#000000" font-family="sans-serif" font-size="11" lengthAdjust="spacing" textLength="63.2124" x="726.4734" y="465.8853">Partnership</text><rect fill="#F1F1F1" height="33.9688" rx="12.5" ry="12.5" style="stroke:#181818;stroke-width:0.5;" width="156.9746" x="511.8223" y="490.4795"/><text fill="#000000" font-family="sans-serif" font-size="12" lengthAdjust="spacing" textLength="136.9746" x="521.8223" y="511.6182">Pay Reasonable Salary</text><rect fill="#F1F1F1" height="33.9688" rx="12.5" ry="12.5" style="stroke:#181818;stroke-width:0.5;" width="122.8379" x="528.8906" y="544.4482"/><text fill="#000000" font-family="sans-serif" font-size="12" lengthAdjust="spacing" textLength="102.8379" x="538.8906" y="565.5869">Take Distribution</text><rect fill="#F1F1F1" height="33.9688" rx="12.5" ry="12.5" style="stroke:#181818;stroke-width:0.5;" width="146.8086" x="688.7969" y="490.4795"/><text fill="#000000" font-family="sans-serif" font-size="12" lengthAdjust="spacing" textLength="126.8086" x="698.7969" y="511.6182">Pass-through Income</text><polygon fill="#F1F1F1" points="676.2554,584.417,688.2554,596.417,676.2554,608.417,664.2554,596.417,676.2554,584.417" style="stroke:#181818;stroke-width:0.5;"/><rect fill="#F1F1F1" height="33.9688" rx="12.5" ry="12.5" style="stroke:#181818;stroke-width:0.5;" width="67.291" x="642.6099" y="628.417"/><text fill="#000000" font-family="sans-serif" font-size="12" lengthAdjust="spacing" textLength="47.291" x="652.6099" y="649.5557">Pay Tax</text><rect fill="#F1F1F1" height="33.9688" rx="12.5" ry="12.5" style="stroke:#181818;stroke-width:0.5;" width="141.5527" x="605.479" y="682.3857"/><text fill="#000000" font-family="sans-serif" font-size="12" lengthAdjust="spacing" textLength="121.5527" x="615.479" y="703.5244">Reinvest Remainder</text><ellipse cx="676.2554" cy="747.3545" fill="none" rx="11" ry="11" style="stroke:#222222;stroke-width:1;"/><ellipse cx="676.2554" cy="747.3545" fill="#222222" rx="6" ry="6" style="stroke:#222222;stroke-width:1;"/><line style="stroke:#000000;stroke-width:1.5;" x1="505.8223" x2="505.8223" y1="12.7451" y2="758.3545"/><line style="stroke:#000000;stroke-width:1.5;" x1="839.6055" x2="839.6055" y1="12.7451" y2="758.3545"/><line style="stroke:#181818;stroke-width:1;" x1="131.9189" x2="131.9189" y1="58.6982" y2="78.6982"/><polygon fill="#181818" points="127.9189,68.6982,131.9189,78.6982,135.9189,68.6982,131.9189,72.6982" style="stroke:#181818;stroke-width:1;"/><line style="stroke:#181818;stroke-width:1;" x1="131.9189" x2="131.9189" y1="112.667" y2="132.667"/><polygon fill="#181818" points="127.9189,122.667,131.9189,132.667,135.9189,122.667,131.9189,126.667" style="stroke:#181818;stroke-width:1;"/><line style="stroke:#181818;stroke-width:1;" x1="131.9189" x2="131.9189" y1="166.6357" y2="186.6357"/><polygon fill="#181818" points="127.9189,176.6357,131.9189,186.6357,135.9189,176.6357,131.9189,180.6357" style="stroke:#181818;stroke-width:1;"/><line style="stroke:#181818;stroke-width:1;" x1="377.3301" x2="377.3301" y1="274.5732" y2="294.5732"/><polygon fill="#181818" points="373.3301,284.5732,377.3301,294.5732,381.3301,284.5732,377.3301,288.5732" style="stroke:#181818;stroke-width:1;"/><line style="stroke:#181818;stroke-width:1;" x1="377.3301" x2="377.3301" y1="328.542" y2="348.542"/><polygon fill="#181818" points="373.3301,338.542,377.3301,348.542,381.3301,338.542,377.3301,342.542" style="stroke:#181818;stroke-width:1;"/><line style="stroke:#181818;stroke-width:1;" x1="590.3096" x2="590.3096" y1="524.4482" y2="544.4482"/><polygon fill="#181818" points="586.3096,534.4482,590.3096,544.4482,594.3096,534.4482,590.3096,538.4482" style="stroke:#181818;stroke-width:1;"/><line style="stroke:#181818;stroke-width:1;" x1="626.0374" x2="590.3096" y1="468.4795" y2="468.4795"/><line style="stroke:#181818;stroke-width:1;" x1="590.3096" x2="590.3096" y1="468.4795" y2="490.4795"/><polygon fill="#181818" points="586.3096,480.4795,590.3096,490.4795,594.3096,480.4795,590.3096,484.4795" style="stroke:#181818;stroke-width:1;"/><line style="stroke:#181818;stroke-width:1;" x1="726.4734" x2="762.2012" y1="468.4795" y2="468.4795"/><line style="stroke:#181818;stroke-width:1;" x1="762.2012" x2="762.2012" y1="468.4795" y2="490.4795"/><polygon fill="#181818" points="758.2012,480.4795,762.2012,490.4795,766.2012,480.4795,762.2012,484.4795" style="stroke:#181818;stroke-width:1;"/><line style="stroke:#181818;stroke-width:1;" x1="590.3096" x2="590.3096" y1="578.417" y2="596.417"/><line style="stroke:#181818;stroke-width:1;" x1="590.3096" x2="664.2554" y1="596.417" y2="596.417"/><polygon fill="#181818" points="654.2554,592.417,664.2554,596.417,654.2554,600.417,658.2554,596.417" style="stroke:#181818;stroke-width:1;"/><line style="stroke:#181818;stroke-width:1;" x1="762.2012" x2="762.2012" y1="524.4482" y2="596.417"/><line style="stroke:#181818;stroke-width:1;" x1="762.2012" x2="688.2554" y1="596.417" y2="596.417"/><polygon fill="#181818" points="698.2554,592.417,688.2554,596.417,698.2554,600.417,694.2554,596.417" style="stroke:#181818;stroke-width:1;"/><line style="stroke:#181818;stroke-width:1;" x1="676.2554" x2="676.2554" y1="436.4795" y2="456.4795"/><polygon fill="#181818" points="672.2554,446.4795,676.2554,456.4795,680.2554,446.4795,676.2554,450.4795" style="stroke:#181818;stroke-width:1;"/><line style="stroke:#181818;stroke-width:1;" x1="676.2554" x2="676.2554" y1="608.417" y2="628.417"/><polygon fill="#181818" points="672.2554,618.417,676.2554,628.417,680.2554,618.417,676.2554,622.417" style="stroke:#181818;stroke-width:1;"/><line style="stroke:#181818;stroke-width:1;" x1="676.2554" x2="676.2554" y1="662.3857" y2="682.3857"/><polygon fill="#181818" points="672.2554,672.3857,676.2554,682.3857,680.2554,672.3857,676.2554,676.3857" style="stroke:#181818;stroke-width:1;"/><line style="stroke:#181818;stroke-width:1;" x1="676.2554" x2="676.2554" y1="716.3545" y2="736.3545"/><polygon fill="#181818" points="672.2554,726.3545,676.2554,736.3545,680.2554,726.3545,676.2554,730.3545" style="stroke:#181818;stroke-width:1;"/><line style="stroke:#181818;stroke-width:1;" x1="131.9189" x2="131.9189" y1="220.6045" y2="225.6045"/><line style="stroke:#181818;stroke-width:1;" x1="131.9189" x2="377.3301" y1="225.6045" y2="225.6045"/><line style="stroke:#181818;stroke-width:1;" x1="377.3301" x2="377.3301" y1="225.6045" y2="240.6045"/><polygon fill="#181818" points="373.3301,230.6045,377.3301,240.6045,381.3301,230.6045,377.3301,234.6045" style="stroke:#181818;stroke-width:1;"/><line style="stroke:#181818;stroke-width:1;" x1="377.3301" x2="377.3301" y1="382.5107" y2="387.5107"/><line style="stroke:#181818;stroke-width:1;" x1="377.3301" x2="676.2554" y1="387.5107" y2="387.5107"/><line style="stroke:#181818;stroke-width:1;" x1="676.2554" x2="676.2554" y1="387.5107" y2="402.5107"/><polygon fill="#181818" points="672.2554,392.5107,676.2554,402.5107,680.2554,392.5107,676.2554,396.5107" style="stroke:#181818;stroke-width:1;"/><text fill="#000000" font-family="sans-serif" font-size="18" lengthAdjust="spacing" textLength="124.9365" x="68.4507" y="29.4531">OpCo (Active)</text><text fill="#000000" font-family="sans-serif" font-size="18" lengthAdjust="spacing" textLength="165.3223" x="293.6689" y="29.4531">Holdings (Passive)</text><text fill="#000000" font-family="sans-serif" font-size="18" lengthAdjust="spacing" textLength="162.7998" x="591.314" y="29.4531">Owner (Taxpayer)</text><!--SRC=[JP1BRy8m48Jl-HLxw26HIWLNSgWgsgfL7o327rYIIMBLs96z2KJYntTvzE6JDJlURyR7PRVmb3wKOWPanoGA1qdcQvHGWMvcTzCfhJ70zSYJ-Of7UZG1fT3JeOEBY5VrWnqtsC49FGCadbwyhOnhr73ykLAwuXWlf5-6sgyxYfO3AYeG1bD2tOMlPQ_QBRsZOPkfRy6sx2qBw1D2g-1h8qfOxXq2fHi-T3mY_D__DfdbYQdFGoeawDjclCz8MZX5J1O-T5b2UiuXrk3e7Myjg63BOSmlimr_GRj72MRRY_4kJs0ZJfM2A3osvczDZ1DfW- -RbbvTwNVQ4AuozQMd1ibF-OmR44M9EpQkGiZr-ttt3G00]--></g></svg>