<svg xmlns="http://www.w3.org/2000/svg" xmlns:xlink="http://www.w3.org/1999/xlink" contentStyleType="text/css" data-diagram-type="STATE" height="750px" preserveAspectRatio="none" style="width:334px;height:750px;background:#FFFFFF;" version="1.1" viewBox="0 0 334 750" width="334px" zoomAndPan="magnify"><defs/><g><g id="CHILD"><rect fill="#F1F1F1" height="50" rx="12.5" ry="12.5" style="stroke:#181818;stroke-width:0.5;" width="133.9893" x="31.94" y="87"/><line style="stroke:#181818;stroke-width:0.5;" x1="31.94" x2="165.9293" y1="113.2969" y2="113.2969"/><text fill="#000000" font-family="sans-serif" font-size="14" lengthAdjust="spacing" textLength="113.9893" x="41.94" y="104.9951">Child (Age 0-12)</text></g><g id="APP"><rect fill="#F1F1F1" height="50" rx="12.5" ry="12.5" style="stroke:#181818;stroke-width:0.5;" width="183.8643" x="7" y="214"/><line style="stroke:#181818;stroke-width:0.5;" x1="7" x2="190.8643" y1="240.2969" y2="240.2969"/><text fill="#000000" font-family="sans-serif" font-size="14" lengthAdjust="spacing" textLength="163.8643" x="17" y="231.9951">Apprentice (Age 12-18)</text></g><g id="EXP"><rect fill="#F1F1F1" height="50" rx="12.5" ry="12.5" style="stroke:#181818;stroke-width:0.5;" width="166.1797" x="15.84" y="341"/><line style="stroke:#181818;stroke-width:0.5;" x1="15.84" x2="182.0197" y1="367.2969" y2="367.2969"/><text fill="#000000" font-family="sans-serif" font-size="14" lengthAdjust="spacing" textLength="146.1797" x="25.84" y="358.9951">Explorer (Age 18-25)</text></g><g id="ASSOC"><rect fill="#F1F1F1" height="50" rx="12.5" ry="12.5" style="stroke:#181818;stroke-width:0.5;" width="163.4453" x="17.21" y="468"/><line style="stroke:#181818;stroke-width:0.5;" x1="17.21" x2="180.6553" y1="494.2969" y2="494.2969"/><text fill="#000000" font-family="sans-serif" font-size="14" lengthAdjust="spacing" textLength="143.4453" x="27.21" y="485.9951">Associate (Age 25+)</text></g><g id="PARTNER"><rect fill="#F1F1F1" height="50" rx="12.5" ry="12.5" style="stroke:#181818;stroke-width:0.5;" width="71.5088" x="63.18" y="595"/><line style="stroke:#181818;stroke-width:0.5;" x1="63.18" x2="134.6888" y1="621.2969" y2="621.2969"/><text fill="#000000" font-family="sans-serif" font-size="14" lengthAdjust="spacing" textLength="51.5088" x="73.18" y="612.9951">Partner</text></g><ellipse cx="98.93" cy="16" fill="#222222" rx="10" ry="10" style="stroke:#222222;stroke-width:1;"/><ellipse cx="98.93" cy="733" fill="none" rx="11" ry="11" style="stroke:#222222;stroke-width:1;"/><ellipse cx="98.93" cy="733" fill="#222222" rx="6" ry="6" style="stroke:#222222;stroke-width:1;"/><!--link *start* to CHILD--><g class="link" data-entity-1=".start." data-entity-2="CHILD" data-source-line="7" data-uid="lnk3" id="link_.start._CHILD"><path d="M98.93,26.36 C98.93,40.29 98.93,60.95 98.93,80.65" fill="none" id="*start*-to-CHILD" style="stroke:#181818;stroke-width:1;"/><polygon fill="#181818" points="98.93,86.65,102.93,77.65,98.93,81.65,94.93,77.65,98.93,86.65" style="stroke:#181818;stroke-width:1;"/></g><!--link CHILD to APP--><g class="link" data-entity-1="CHILD" data-entity-2="APP" data-source-line="8" data-uid="lnk4" id="link_CHILD_APP"><path d="M98.93,137.4 C98.93,159.42 98.93,185.66 98.93,207.66" fill="none" id="CHILD-to-APP" style="stroke:#181818;stroke-width:1;"/><polygon fill="#181818" points="98.93,213.66,102.93,204.66,98.93,208.66,94.93,204.66,98.93,213.66" style="stroke:#181818;stroke-width:1;"/><text fill="#000000" font-family="sans-serif" font-size="13" lengthAdjust="spacing" textLength="151.582" x="99.93" y="180.0669">Complete FinLit Course</text></g><!--link APP to EXP--><g class="link" data-entity-1="APP" data-entity-2="EXP" data-source-line="9" data-uid="lnk5" id="link_APP_EXP"><path d="M98.93,264.4 C98.93,286.42 98.93,312.66 98.93,334.66" fill="none" id="APP-to-EXP" style="stroke:#181818;stroke-width:1;"/><polygon fill="#181818" points="98.93,340.66,102.93,331.66,98.93,335.66,94.93,331.66,98.93,340.66" style="stroke:#181818;stroke-width:1;"/><text fill="#000000" font-family="sans-serif" font-size="13" lengthAdjust="spacing" textLength="112.9375" x="99.93" y="307.0669">High School Grad</text></g><!--link EXP to ASSOC--><g class="link" data-entity-1="EXP" data-entity-2="ASSOC" data-source-line="10" data-uid="lnk6" id="link_EXP_ASSOC"><path d="M98.93,391.4 C98.93,413.42 98.93,439.66 98.93,461.66" fill="none" id="EXP-to-ASSOC" style="stroke:#181818;stroke-width:1;"/><polygon fill="#181818" points="98.93,467.66,102.93,458.66,98.93,462.66,94.93,458.66,98.93,467.66" style="stroke:#181818;stroke-width:1;"/><text fill="#000000" font-family="sans-serif" font-size="13" lengthAdjust="spacing" textLength="211.2183" x="99.93" y="434.0669">Work 2 Years Outside Family Biz</text></g><!--link ASSOC to PARTNER--><g class="link" data-entity-1="ASSOC" data-entity-2="PARTNER" data-source-line="11" data-uid="lnk7" id="link_ASSOC_PARTNER"><path d="M98.93,518.4 C98.93,540.42 98.93,566.66 98.93,588.66" fill="none" id="ASSOC-to-PARTNER" style="stroke:#181818;stroke-width:1;"/><polygon fill="#181818" points="98.93,594.66,102.93,585.66,98.93,589.66,94.93,585.66,98.93,594.66" style="stroke:#181818;stroke-width:1;"/><text fill="#000000" font-family="sans-serif" font-size="13" lengthAdjust="spacing" textLength="226.8081" x="99.93" y="561.0669">Demonstrate Competence &amp; Value</text></g><!--link PARTNER to *end*--><g class="link" data-entity-1="PARTNER" data-entity-2=".end." data-source-line="12" data-uid="lnk9" id="link_PARTNER_.end."><path d="M98.93,645.36 C98.93,669.23 98.93,698.46 98.93,715.71" fill="none" id="PARTNER-to-*end*" style="stroke:#181818;stroke-width:1;"/><polygon fill="#181818" points="98.93,721.71,102.93,712.71,98.93,716.71,94.93,712.71,98.93,721.71" style="stroke:#181818;stroke-width:1;"/><text fill="#000000" font-family="sans-serif" font-size="13" lengthAdjust="spacing" textLength="154.6289" x="99.93" y="688.0669">Eligible for Council Seat</text></g><!--SRC=[FP3RIiGm48RlynJ3NeW72hQmiEo5KBlL5HQtR1SFY1Un7Tl1R58cAQXFRzA3Do6J-Vx9brWd7S8YQqdLS9us2DTHd5miG5h8jW-xZR0ZaNOTetPKuOZ5IHIlHYujYfdAlpjb67bYLb6o79dyvPz9hJKLXUq09SkhQKnPxhCPAYGxZJmqYlHmVCmFGhnTlaCKtKnYmphKNW3Ma9bJfz27xqZloFcwPuiYD0Fa3JoqfQQ5icgDKN3FiXRXU9WHRlV0i-4lIE0L9LlOzyvIxIVA4waVkALVCN8XCMdvp0PFHbl7mJnOU0dj_-aCdgJgKSnW28Kdh25NrD27GlWq73nrHGfAbEuF]--></g></svg>