<svg xmlns="http://www.w3.org/2000/svg" xmlns:xlink="http://www.w3.org/1999/xlink" contentStyleType="text/css" data-diagram-type="SEQUENCE" height="395px" preserveAspectRatio="none" style="width:861px;height:395px;background:#FFFFFF;" version="1.1" viewBox="0 0 861 395" width="861px" zoomAndPan="magnify"><defs/><g><g><title>Trust Protector</title><rect fill="#FFFFFF" height="76.2656" style="stroke:#181818;stroke-width:1;" width="10" x="204.1787" y="120.4297"/></g><g><title>Successor Trustee</title><rect fill="#FFFFFF" height="93.3984" style="stroke:#181818;stroke-width:1;" width="10" x="406.7617" y="196.6953"/></g><g><title>Primary Principal</title><rect fill="#000000" fill-opacity="0.00000" height="233.7969" width="8" x="63.3496" y="81.2969"/><line style="stroke:#181818;stroke-width:0.5;stroke-dasharray:5,5;" x1="67" x2="67" y1="81.2969" y2="315.0938"/></g><g><title>Trust Protector</title><rect fill="#000000" fill-opacity="0.00000" height="233.7969" width="8" x="205.1787" y="81.2969"/><line style="stroke:#181818;stroke-width:0.5;stroke-dasharray:5,5;" x1="208.7847" x2="208.7847" y1="81.2969" y2="315.0938"/></g><g><title>Successor Trustee</title><rect fill="#000000" fill-opacity="0.00000" height="233.7969" width="8" x="407.7617" y="81.2969"/><line style="stroke:#181818;stroke-width:0.5;stroke-dasharray:5,5;" x1="411.603" x2="411.603" y1="81.2969" y2="315.0938"/></g><g><title>Dynasty Trust</title><rect fill="#000000" fill-opacity="0.00000" height="233.7969" width="8" x="645.8833" y="81.2969"/><line style="stroke:#181818;stroke-width:0.5;stroke-dasharray:5,5;" x1="649.8833" x2="649.8833" y1="81.2969" y2="315.0938"/></g><g><title>Banks.Institutions</title><rect fill="#000000" fill-opacity="0.00000" height="233.7969" width="8" x="779.5449" y="81.2969"/><line style="stroke:#181818;stroke-width:0.5;stroke-dasharray:5,5;" x1="782.8833" x2="782.8833" y1="81.2969" y2="315.0938"/></g><g class="participant participant-head" data-participant="PP"><text fill="#000000" font-family="sans-serif" font-size="14" lengthAdjust="spacing" textLength="118.6992" x="5" y="77.9951">Primary Principal</text><ellipse cx="67.3496" cy="13.5" fill="#E2E2F0" rx="8" ry="8" style="stroke:#181818;stroke-width:0.5;"/><path d="M67.3496,21.5 L67.3496,48.5 M54.3496,29.5 L80.3496,29.5 M67.3496,48.5 L54.3496,63.5 M67.3496,48.5 L80.3496,63.5" fill="none" style="stroke:#181818;stroke-width:0.5;"/></g><g class="participant participant-tail" data-participant="PP"><text fill="#000000" font-family="sans-serif" font-size="14" lengthAdjust="spacing" textLength="118.6992" x="5" y="327.0889">Primary Principal</text><ellipse cx="67.3496" cy="338.8906" fill="#E2E2F0" rx="8" ry="8" style="stroke:#181818;stroke-width:0.5;"/><path d="M67.3496,346.8906 L67.3496,373.8906 M54.3496,354.8906 L80.3496,354.8906 M67.3496,373.8906 L54.3496,388.8906 M67.3496,373.8906 L80.3496,388.8906" fill="none" style="stroke:#181818;stroke-width:0.5;"/></g><g class="participant participant-head" data-participant="TP"><text fill="#000000" font-family="sans-serif" font-size="14" lengthAdjust="spacing" textLength="104.7881" x="153.7847" y="77.9951">Trust Protector</text><ellipse cx="209.1787" cy="13.5" fill="#E2E2F0" rx="8" ry="8" style="stroke:#181818;stroke-width:0.5;"/><path d="M209.1787,21.5 L209.1787,48.5 M196.1787,29.5 L222.1787,29.5 M209.1787,48.5 L196.1787,63.5 M209.1787,48.5 L222.1787,63.5" fill="none" style="stroke:#181818;stroke-width:0.5;"/></g><g class="participant participant-tail" data-participant="TP"><text fill="#000000" font-family="sans-serif" font-size="14" lengthAdjust="spacing" textLength="104.7881" x="153.7847" y="327.0889">Trust Protector</text><ellipse cx="209.1787" cy="338.8906" fill="#E2E2F0" rx="8" ry="8" style="stroke:#181818;stroke-width:0.5;"/><path d="M209.1787,346.8906 L209.1787,373.8906 M196.1787,354.8906 L222.1787,354.8906 M209.1787,373.8906 L196.1787,388.8906 M209.1787,373.8906 L222.1787,388.8906" fill="none" style="stroke:#181818;stroke-width:0.5;"/></g><g class="participant participant-head" data-participant="ST"><text fill="#000000" font-family="sans-serif" font-size="14" lengthAdjust="spacing" textLength="128.3174" x="344.603" y="77.9951">Successor Trustee</text><ellipse cx="411.7617" cy="13.5" fill="#E2E2F0" rx="8" ry="8" style="stroke:#181818;stroke-width:0.5;"/><path d="M411.7617,21.5 L411.7617,48.5 M398.7617,29.5 L424.7617,29.5 M411.7617,48.5 L398.7617,63.5 M411.7617,48.5 L424.7617,63.5" fill="none" style="stroke:#181818;stroke-width:0.5;"/></g><g class="participant participant-tail" data-participant="ST"><text fill="#000000" font-family="sans-serif" font-size="14" lengthAdjust="spacing" textLength="128.3174" x="344.603" y="327.0889">Successor Trustee</text><ellipse cx="411.7617" cy="338.8906" fill="#E2E2F0" rx="8" ry="8" style="stroke:#181818;stroke-width:0.5;"/><path d="M411.7617,346.8906 L411.7617,373.8906 M398.7617,354.8906 L424.7617,354.8906 M411.7617,373.8906 L398.7617,388.8906 M411.7617,373.8906 L424.7617,388.8906" fill="none" style="stroke:#181818;stroke-width:0.5;"/></g><g class="participant participant-head" data-participant="DT"><text fill="#000000" font-family="sans-serif" font-size="14" lengthAdjust="spacing" textLength="98" x="597.8833" y="77.9951">Dynasty Trust</text><path d="M631.8833,29 C631.8833,19 649.8833,19 649.8833,19 C649.8833,19 667.8833,19 667.8833,29 L667.8833,55 C667.8833,65 649.8833,65 649.8833,65 C649.8833,65 631.8833,65 631.8833,55 L631.8833,29" fill="#E2E2F0" style="stroke:#181818;stroke-width:0.5;"/><path d="M631.8833,29 C631.8833,39 649.8833,39 649.8833,39 C649.8833,39 667.8833,39 667.8833,29" fill="none" style="stroke:#181818;stroke-width:0.5;"/></g><g class="participant participant-tail" data-participant="DT"><text fill="#000000" font-family="sans-serif" font-size="14" lengthAdjust="spacing" textLength="98" x="597.8833" y="327.0889">Dynasty Trust</text><path d="M631.8833,340.3906 C631.8833,330.3906 649.8833,330.3906 649.8833,330.3906 C649.8833,330.3906 667.8833,330.3906 667.8833,340.3906 L667.8833,366.3906 C667.8833,376.3906 649.8833,376.3906 649.8833,376.3906 C649.8833,376.3906 631.8833,376.3906 631.8833,366.3906 L631.8833,340.3906" fill="#E2E2F0" style="stroke:#181818;stroke-width:0.5;"/><path d="M631.8833,340.3906 C631.8833,350.3906 649.8833,350.3906 649.8833,350.3906 C649.8833,350.3906 667.8833,350.3906 667.8833,340.3906" fill="none" style="stroke:#181818;stroke-width:0.5;"/></g><g class="participant participant-head" data-participant="BANK"><rect fill="#E2E2F0" height="30.2969" style="stroke:#181818;stroke-width:0.5;" width="139.3232" x="715.8833" y="46"/><rect fill="#E2E2F0" height="30.2969" style="stroke:#181818;stroke-width:0.5;" width="139.3232" x="711.8833" y="50"/><text fill="#000000" font-family="sans-serif" font-size="14" lengthAdjust="spacing" textLength="125.3232" x="718.8833" y="69.9951">Banks/Institutions</text></g><g class="participant participant-tail" data-participant="BANK"><rect fill="#E2E2F0" height="30.2969" style="stroke:#181818;stroke-width:0.5;" width="139.3232" x="715.8833" y="314.0938"/><rect fill="#E2E2F0" height="30.2969" style="stroke:#181818;stroke-width:0.5;" width="139.3232" x="711.8833" y="318.0938"/><text fill="#000000" font-family="sans-serif" font-size="14" lengthAdjust="spacing" textLength="125.3232" x="718.8833" y="338.0889">Banks/Institutions</text></g><g><title>Trust Protector</title><rect fill="#FFFFFF" height="76.2656" style="stroke:#181818;stroke-width:1;" width="10" x="204.1787" y="120.4297"/></g><g><title>Successor Trustee</title><rect fill="#FFFFFF" height="93.3984" style="stroke:#181818;stroke-width:1;" width="10" x="406.7617" y="196.6953"/></g><g class="message" data-participant-1="PP" data-participant-2="PP"><line style="stroke:#181818;stroke-width:1;" x1="67.3496" x2="109.3496" y1="112.4297" y2="112.4297"/><line style="stroke:#181818;stroke-width:1;" x1="109.3496" x2="109.3496" y1="112.4297" y2="125.4297"/><line style="stroke:#181818;stroke-width:1;" x1="68.3496" x2="109.3496" y1="125.4297" y2="125.4297"/><polygon fill="#181818" points="78.3496,121.4297,68.3496,125.4297,78.3496,129.4297,74.3496,125.4297" style="stroke:#181818;stroke-width:1;"/><text fill="#000000" font-family="sans-serif" font-size="13" lengthAdjust="spacing" textLength="127.8291" x="74.3496" y="107.3638">Death or Incapacity</text></g><g class="message" data-participant-1="TP" data-participant-2="TP"><line style="stroke:#181818;stroke-width:1;" x1="214.1787" x2="256.1787" y1="154.5625" y2="154.5625"/><line style="stroke:#181818;stroke-width:1;" x1="256.1787" x2="256.1787" y1="154.5625" y2="167.5625"/><line style="stroke:#181818;stroke-width:1;" x1="215.1787" x2="256.1787" y1="167.5625" y2="167.5625"/><polygon fill="#181818" points="225.1787,163.5625,215.1787,167.5625,225.1787,171.5625,221.1787,167.5625" style="stroke:#181818;stroke-width:1;"/><text fill="#000000" font-family="sans-serif" font-size="13" lengthAdjust="spacing" textLength="164.728" x="221.1787" y="149.4966">Verify Event (Death Cert)</text></g><g class="message" data-participant-1="TP" data-participant-2="ST"><polygon fill="#181818" points="394.7617,192.6953,404.7617,196.6953,394.7617,200.6953,398.7617,196.6953" style="stroke:#181818;stroke-width:1;"/><line style="stroke:#181818;stroke-width:1;" x1="209.1787" x2="400.7617" y1="196.6953" y2="196.6953"/><text fill="#000000" font-family="sans-serif" font-size="13" lengthAdjust="spacing" textLength="173.583" x="216.1787" y="191.6294">Appoint Successor Trustee</text></g><g class="message" data-participant-1="ST" data-participant-2="DT"><polygon fill="#181818" points="637.8833,221.8281,647.8833,225.8281,637.8833,229.8281,641.8833,225.8281" style="stroke:#181818;stroke-width:1;"/><line style="stroke:#181818;stroke-width:1;" x1="416.7617" x2="643.8833" y1="225.8281" y2="225.8281"/><text fill="#000000" font-family="sans-serif" font-size="13" lengthAdjust="spacing" textLength="156.9395" x="423.7617" y="220.7622">Assume Control of Trust</text></g><g class="message" data-participant-1="ST" data-participant-2="BANK"><polygon fill="#181818" points="771.5449,250.9609,781.5449,254.9609,771.5449,258.9609,775.5449,254.9609" style="stroke:#181818;stroke-width:1;"/><line style="stroke:#181818;stroke-width:1;" x1="416.7617" x2="777.5449" y1="254.9609" y2="254.9609"/><text fill="#000000" font-family="sans-serif" font-size="13" lengthAdjust="spacing" textLength="177.9248" x="423.7617" y="249.895">Update Signatory Authority</text></g><g class="message" data-participant-1="ST" data-participant-2="ST"><line style="stroke:#181818;stroke-width:1;" x1="416.7617" x2="458.7617" y1="289.0938" y2="289.0938"/><line style="stroke:#181818;stroke-width:1;" x1="458.7617" x2="458.7617" y1="289.0938" y2="302.0938"/><line style="stroke:#181818;stroke-width:1;" x1="411.7617" x2="458.7617" y1="302.0938" y2="302.0938"/><polygon fill="#181818" points="421.7617,298.0938,411.7617,302.0938,421.7617,306.0938,417.7617,302.0938" style="stroke:#181818;stroke-width:1;"/><text fill="#000000" font-family="sans-serif" font-size="13" lengthAdjust="spacing" textLength="204.1216" x="423.7617" y="284.0278">Execute 90-Day Transition Plan</text></g><!--SRC=[PP0nJmCn38Nt_0hh9XWgM650klOwL4WeqWLsaxeqwZKv9Kv5_ZrEhe9AJ8dylcS_6os729sExeonWBpUkXcd3Z21rWeNtSISMDJ0L0jDDR_gcAsbbEJREAAcZqRjaV4J4q4t58-9om8qUJ3AXccIVYxu1DqQ_Iazx7nYnxdL6hRktrwLqXfMBv87dc4Wv2F8h9stEADrN6eETq6cciaqr5JqWw8x5DXUo3FSBSODHRw_GgCHg9_du4J_juJQqstVlo6oc3Z5FpH_IlbCi0cUOvWW71R_5Qdn1NgVzytflZpAoGhqcOyXrkmBrw9ilybcmPuULmFMMw5Fhfu2z8J-DizeVW00]--></g></svg>