<svg xmlns="http://www.w3.org/2000/svg" xmlns:xlink="http://www.w3.org/1999/xlink" contentStyleType="text/css" data-diagram-type="CLASS" height="349px" preserveAspectRatio="none" style="width:429px;height:349px;background:#FFFFFF;" version="1.1" viewBox="0 0 429 349" width="429px" zoomAndPan="magnify"><defs/><g><!--class MASTER--><g class="entity" data-entity="MASTER" data-source-line="1" data-uid="ent0002" id="entity_MASTER"><rect fill="#F1F1F1" height="145.7813" rx="2.5" ry="2.5" style="stroke:#181818;stroke-width:0.5;" width="211.6709" x="108.28" y="7"/><ellipse cx="146.7182" cy="23" fill="#ADD1B2" rx="11" ry="11" style="stroke:#181818;stroke-width:1;"/><path d="M149.687,28.6406 Q149.1089,28.9375 148.4682,29.0781 Q147.8276,29.2344 147.1245,29.2344 Q144.6245,29.2344 143.2964,27.5938 Q141.9839,25.9375 141.9839,22.8125 Q141.9839,19.6875 143.2964,18.0313 Q144.6245,16.375 147.1245,16.375 Q147.8276,16.375 148.4682,16.5313 Q149.1245,16.6875 149.687,16.9844 L149.687,19.7031 Q149.062,19.125 148.4682,18.8594 Q147.8745,18.5781 147.2495,18.5781 Q145.9057,18.5781 145.2182,19.6563 Q144.5307,20.7188 144.5307,22.8125 Q144.5307,24.9063 145.2182,25.9844 Q145.9057,27.0469 147.2495,27.0469 Q147.8745,27.0469 148.4682,26.7813 Q149.062,26.5 149.687,25.9219 L149.687,28.6406 Z " fill="#000000"/><text fill="#000000" font-family="sans-serif" font-size="14" lengthAdjust="spacing" textLength="127.5859" x="165.9267" y="27.8467">Obuke Master LLC</text><line style="stroke:#181818;stroke-width:0.5;" x1="109.28" x2="318.9509" y1="39" y2="39"/><g data-visibility-modifier="PUBLIC_FIELD"><ellipse cx="119.28" cy="52.6484" fill="none" rx="3" ry="3" style="stroke:#038048;stroke-width:1;"/></g><text fill="#000000" font-family="sans-serif" font-size="14" lengthAdjust="spacing" textLength="152.5029" x="128.28" y="55.9951">Operating Agreement</text><g data-visibility-modifier="PUBLIC_METHOD"><ellipse cx="119.28" cy="68.9453" fill="#84BE84" rx="3" ry="3" style="stroke:#038048;stroke-width:1;"/></g><text fill="#000000" font-family="sans-serif" font-size="14" lengthAdjust="spacing" textLength="86.6318" x="128.28" y="72.292">EIN (Master)</text><g data-visibility-modifier="PUBLIC_METHOD"><ellipse cx="119.28" cy="85.2422" fill="#84BE84" rx="3" ry="3" style="stroke:#038048;stroke-width:1;"/></g><text fill="#000000" font-family="sans-serif" font-size="14" lengthAdjust="spacing" textLength="156.625" x="128.28" y="88.5889">Bank Account (Admin)</text><line style="stroke:#181818;stroke-width:1;" x1="109.28" x2="318.9509" y1="95.8906" y2="95.8906"/><text fill="#000000" font-family="sans-serif" font-size="14" lengthAdjust="spacing" textLength="72.3242" x="128.28" y="112.8857">Functions:</text><g data-visibility-modifier="PROTECTED_METHOD"><polygon fill="#FFFF44" points="119.28,120.8359,123.28,124.8359,119.28,128.8359,115.28,124.8359" style="stroke:#B38D22;stroke-width:1;"/></g><text fill="#000000" font-family="sans-serif" font-size="14" lengthAdjust="spacing" textLength="157.0967" x="128.28" y="129.1826">File Tax Return (8825)</text><g data-visibility-modifier="PROTECTED_FIELD"><polygon fill="none" points="119.28,137.1328,123.28,141.1328,119.28,145.1328,115.28,141.1328" style="stroke:#B38D22;stroke-width:1;"/></g><text fill="#000000" font-family="sans-serif" font-size="14" lengthAdjust="spacing" textLength="185.6709" x="128.28" y="145.4795">Manage Property Manager</text></g><!--class CELL1--><g class="entity" data-entity="CELL1" data-source-line="11" data-uid="ent0003" id="entity_CELL1"><rect fill="#F1F1F1" height="113.1875" rx="2.5" ry="2.5" style="stroke:#181818;stroke-width:0.5;" width="190.2402" x="7" y="229.78"/><ellipse cx="54.021" cy="245.78" fill="#ADD1B2" rx="11" ry="11" style="stroke:#181818;stroke-width:1;"/><path d="M56.9897,251.4206 Q56.4116,251.7175 55.771,251.8581 Q55.1304,252.0144 54.4272,252.0144 Q51.9272,252.0144 50.5991,250.3738 Q49.2866,248.7175 49.2866,245.5925 Q49.2866,242.4675 50.5991,240.8113 Q51.9272,239.155 54.4272,239.155 Q55.1304,239.155 55.771,239.3113 Q56.4272,239.4675 56.9897,239.7644 L56.9897,242.4831 Q56.3647,241.905 55.771,241.6394 Q55.1772,241.3581 54.5522,241.3581 Q53.2085,241.3581 52.521,242.4363 Q51.8335,243.4988 51.8335,245.5925 Q51.8335,247.6863 52.521,248.7644 Q53.2085,249.8269 54.5522,249.8269 Q55.1772,249.8269 55.771,249.5613 Q56.3647,249.28 56.9897,248.7019 L56.9897,251.4206 Z " fill="#000000"/><text fill="#000000" font-family="sans-serif" font-size="14" lengthAdjust="spacing" textLength="87.6982" x="74.521" y="250.6267">Series A Cell</text><line style="stroke:#181818;stroke-width:0.5;" x1="8" x2="196.2402" y1="261.78" y2="261.78"/><g data-visibility-modifier="PUBLIC_FIELD"><ellipse cx="18" cy="275.4284" fill="none" rx="3" ry="3" style="stroke:#038048;stroke-width:1;"/></g><text fill="#000000" font-family="sans-serif" font-size="14" lengthAdjust="spacing" textLength="152.3799" x="27" y="278.7751">Property: 123 Main St</text><g data-visibility-modifier="PUBLIC_FIELD"><ellipse cx="18" cy="291.7253" fill="none" rx="3" ry="3" style="stroke:#038048;stroke-width:1;"/></g><text fill="#000000" font-family="sans-serif" font-size="14" lengthAdjust="spacing" textLength="164.2402" x="27" y="295.072">Separate Bank Account</text><g data-visibility-modifier="PUBLIC_FIELD"><ellipse cx="18" cy="308.0222" fill="none" rx="3" ry="3" style="stroke:#038048;stroke-width:1;"/></g><text fill="#000000" font-family="sans-serif" font-size="14" lengthAdjust="spacing" textLength="109.9902" x="27" y="311.3689">Separate Books</text><line style="stroke:#181818;stroke-width:1;" x1="8" x2="196.2402" y1="318.6706" y2="318.6706"/><text fill="#000000" font-family="sans-serif" font-size="14" lengthAdjust="spacing" textLength="119.2119" x="13" y="335.6657">Liability: Isolated</text></g><!--class CELL2--><g class="entity" data-entity="CELL2" data-source-line="19" data-uid="ent0004" id="entity_CELL2"><rect fill="#F1F1F1" height="113.1875" rx="2.5" ry="2.5" style="stroke:#181818;stroke-width:0.5;" width="190.2402" x="232" y="229.78"/><ellipse cx="279.0073" cy="245.78" fill="#ADD1B2" rx="11" ry="11" style="stroke:#181818;stroke-width:1;"/><path d="M281.9761,251.4206 Q281.3979,251.7175 280.7573,251.8581 Q280.1167,252.0144 279.4136,252.0144 Q276.9136,252.0144 275.5854,250.3738 Q274.2729,248.7175 274.2729,245.5925 Q274.2729,242.4675 275.5854,240.8113 Q276.9136,239.155 279.4136,239.155 Q280.1167,239.155 280.7573,239.3113 Q281.4136,239.4675 281.9761,239.7644 L281.9761,242.4831 Q281.3511,241.905 280.7573,241.6394 Q280.1636,241.3581 279.5386,241.3581 Q278.1948,241.3581 277.5073,242.4363 Q276.8198,243.4988 276.8198,245.5925 Q276.8198,247.6863 277.5073,248.7644 Q278.1948,249.8269 279.5386,249.8269 Q280.1636,249.8269 280.7573,249.5613 Q281.3511,249.28 281.9761,248.7019 L281.9761,251.4206 Z " fill="#000000"/><text fill="#000000" font-family="sans-serif" font-size="14" lengthAdjust="spacing" textLength="87.7256" x="299.5073" y="250.6267">Series B Cell</text><line style="stroke:#181818;stroke-width:0.5;" x1="233" x2="421.2402" y1="261.78" y2="261.78"/><g data-visibility-modifier="PUBLIC_FIELD"><ellipse cx="243" cy="275.4284" fill="none" rx="3" ry="3" style="stroke:#038048;stroke-width:1;"/></g><text fill="#000000" font-family="sans-serif" font-size="14" lengthAdjust="spacing" textLength="158.7646" x="252" y="278.7751">Property: 456 Oak Ave</text><g data-visibility-modifier="PUBLIC_FIELD"><ellipse cx="243" cy="291.7253" fill="none" rx="3" ry="3" style="stroke:#038048;stroke-width:1;"/></g><text fill="#000000" font-family="sans-serif" font-size="14" lengthAdjust="spacing" textLength="164.2402" x="252" y="295.072">Separate Bank Account</text><g data-visibility-modifier="PUBLIC_FIELD"><ellipse cx="243" cy="308.0222" fill="none" rx="3" ry="3" style="stroke:#038048;stroke-width:1;"/></g><text fill="#000000" font-family="sans-serif" font-size="14" lengthAdjust="spacing" textLength="109.9902" x="252" y="311.3689">Separate Books</text><line style="stroke:#181818;stroke-width:1;" x1="233" x2="421.2402" y1="318.6706" y2="318.6706"/><text fill="#000000" font-family="sans-serif" font-size="14" lengthAdjust="spacing" textLength="119.2119" x="238" y="335.6657">Liability: Isolated</text></g><!--reverse link MASTER to CELL1--><g class="link" data-entity-1="MASTER" data-entity-2="CELL1" data-source-line="27" data-uid="lnk5" id="link_MASTER_CELL1"><path codeLine="27" d="M168.7155,163.7948 C154.9955,188.8448 145.6,205.99 132.72,229.5" fill="none" id="MASTER-backto-CELL1" style="stroke:#181818;stroke-width:1;"/><polygon fill="#181818" points="174.48,153.27,168.0895,156.6109,168.7155,163.7948,175.106,160.4539,174.48,153.27" style="stroke:#181818;stroke-width:1;"/><text fill="#000000" font-family="sans-serif" font-size="13" lengthAdjust="spacing" textLength="73.3091" x="159.12" y="195.8469">Establishes</text></g><!--reverse link MASTER to CELL2--><g class="link" data-entity-1="MASTER" data-entity-2="CELL2" data-source-line="28" data-uid="lnk6" id="link_MASTER_CELL2"><path codeLine="28" d="M259.9231,163.7735 C273.7631,188.8235 283.25,205.99 296.24,229.5" fill="none" id="MASTER-backto-CELL2" style="stroke:#181818;stroke-width:1;"/><polygon fill="#181818" points="254.12,153.27,253.5204,160.4561,259.9231,163.7735,260.5227,156.5874,254.12,153.27" style="stroke:#181818;stroke-width:1;"/><text fill="#000000" font-family="sans-serif" font-size="13" lengthAdjust="spacing" textLength="73.3091" x="278.12" y="195.8469">Establishes</text></g><!--SRC=[jP7HJeCm58RlUOgJUSCqN0oTMRZh24kMW9Yn5pYm4spesgKjHcDyTojqHZPlxKrp-lMqtzys0es1MLdt7K61nfA6F4zdW0OALksp7Nm4uCOTb2VIQBbiWRMQw4ZIUf9jdo0Sc-T-QOso0zOqgfSMGdOuSZcYA1gcJIyRovKqoL3Um8OBWZs-mOvihoM4grMyd7jOeCIMu5ahvs3VVQs3po1enW0LQKu66AGan62VPdc- -94_joQmYEzTFvTGdVKhEg5BHXFfAwPKPtudo3dMNF3l8xT62RVdSEspdlh4V_WyB1-XH7VlA_s7Z__4soZoBv90PYpMWfiNCfSudk8l]--></g></svg>