<svg xmlns="http://www.w3.org/2000/svg" xmlns:xlink="http://www.w3.org/1999/xlink" contentStyleType="text/css" data-diagram-type="ACTIVITY" height="936.4583px" preserveAspectRatio="none" style="width:835px;height:936px;" version="1.1" viewBox="0 0 835 936" width="835.4167px" zoomAndPan="magnify"><title>Boring Business Modernization (ElectroNeek RPA)</title><defs><linearGradient id="g19g49xdiratdy0" x1="50%" x2="50%" y1="0%" y2="100%"><stop offset="0%" stop-color="#B8B8B8"/><stop offset="100%" stop-color="#999999"/></linearGradient><linearGradient id="g19g49xdiratdy1" x1="50%" x2="50%" y1="0%" y2="100%"><stop offset="0%" stop-color="#7C9AB9"/><stop offset="100%" stop-color="#304D6D"/></linearGradient><linearGradient id="g19g49xdiratdy2" x1="50%" x2="50%" y1="0%" y2="100%"><stop offset="0%" stop-color="#B8B8B8"/><stop offset="100%" stop-color="#6B6B6B"/></linearGradient></defs><g><g class="title" data-source-line="2"><rect fill="url(#g19g49xdiratdy0)" height="47.168" rx="4.1667" ry="4.1667" style="stroke:#6B6B6B;stroke-width:1.0417;" width="610.4818" x="111.233" y="20.8333"/><text fill="#304D6D" font-family="'Verdana'" font-size="20.8333" font-weight="bold" lengthAdjust="spacing" textLength="587.5651" x="122.6913" y="51.6296">Boring Business Modernization (ElectroNeek RPA)</text></g><rect fill="url(#g19g49xdiratdy0)" height="24.9674" style="stroke:url(#g19g49xdiratdy0);stroke-width:1.0417;" width="801.6978" x="15.625" y="80.5013"/><ellipse cx="121.1843" cy="121.0938" fill="#3399F3" rx="10.4167" ry="10.4167" style="stroke:#304D6D;stroke-width:1.0417;"/><rect fill="url(#g19g49xdiratdy1)" height="37.4674" rx="4.1667" ry="4.1667" style="stroke:#304D6D;stroke-width:1.0417;" width="198.6186" x="21.875" y="152.3438"/><text fill="#FFFFFF" font-family="'Verdana'" font-size="12.5" lengthAdjust="spacing" textLength="175.7019" x="33.3333" y="175.4049">Snap Photo of Paper Invoice</text><rect fill="url(#g19g49xdiratdy1)" height="37.4674" rx="4.1667" ry="4.1667" style="stroke:#304D6D;stroke-width:1.0417;" width="183.5856" x="29.3915" y="210.6445"/><text fill="#FFFFFF" font-family="'Verdana'" font-size="12.5" lengthAdjust="spacing" textLength="160.6689" x="40.8498" y="233.7056">Upload to Dropbox Folder</text><line style="stroke:#3399F3;stroke-width:2.0833;" x1="15.625" x2="15.625" y1="80.5013" y2="924.8372"/><rect fill="url(#g19g49xdiratdy1)" height="37.4674" rx="4.1667" ry="4.1667" style="stroke:#304D6D;stroke-width:1.0417;" width="121.6349" x="362.6409" y="268.9453"/><text fill="#FFFFFF" font-family="'Verdana'" font-size="12.5" lengthAdjust="spacing" textLength="98.7183" x="374.0992" y="292.0064">Detect New File</text><rect fill="url(#g19g49xdiratdy1)" height="37.4674" rx="4.1667" ry="4.1667" style="stroke:#304D6D;stroke-width:1.0417;" width="233.8603" x="306.5282" y="327.2461"/><text fill="#FFFFFF" font-family="'Verdana'" font-size="12.5" lengthAdjust="spacing" textLength="210.9436" x="317.9866" y="350.3072">Run OCR (Document Intelligence)</text><polygon fill="url(#g19g49xdiratdy2)" points="356.69,385.5469,490.2267,385.5469,502.7267,398.0469,490.2267,410.5469,356.69,410.5469,344.19,398.0469,356.69,385.5469" style="stroke:#6B6B6B;stroke-width:1.0417;"/><text fill="#FFFFFF" font-family="'Verdana'" font-size="12.5" lengthAdjust="spacing" textLength="123.1201" x="361.8983" y="402.3743">Confidence &gt; 90%?</text><text fill="#FFFFFF" font-family="'Verdana'" font-size="12.5" lengthAdjust="spacing" textLength="21.8384" x="317.1432" y="389.8905">Yes</text><text fill="#FFFFFF" font-family="'Verdana'" font-size="12.5" lengthAdjust="spacing" textLength="16.9983" x="507.9351" y="389.8905">No</text><rect fill="url(#g19g49xdiratdy1)" height="52.0182" rx="4.1667" ry="4.1667" style="stroke:#304D6D;stroke-width:1.0417;" width="188.2792" x="230.9102" y="420.9635"/><text fill="#FFFFFF" font-family="'Verdana'" font-size="12.5" lengthAdjust="spacing" textLength="78.5889" x="242.3686" y="444.0247">Extract Data</text><text fill="#FFFFFF" font-family="'Verdana'" font-size="12.5" lengthAdjust="spacing" textLength="165.3625" x="242.3686" y="458.5754">(Date, Customer, Amount)</text><rect fill="url(#g19g49xdiratdy1)" height="37.4674" rx="4.1667" ry="4.1667" style="stroke:#304D6D;stroke-width:1.0417;" width="163.6882" x="440.0228" y="420.9635"/><text fill="#FFFFFF" font-family="'Verdana'" font-size="12.5" lengthAdjust="spacing" textLength="140.7715" x="451.4811" y="444.0247">Alert Human Reviewer</text><ellipse cx="521.8669" cy="505.2734" fill="none" rx="11.4583" ry="11.4583" style="stroke:#304D6D;stroke-width:1.0417;"/><ellipse cx="521.8669" cy="505.2734" fill="none" rx="6.25" ry="6.25" style="stroke:#304D6D;stroke-width:1.0417;"/><rect fill="url(#g19g49xdiratdy1)" height="37.4674" rx="4.1667" ry="4.1667" style="stroke:#304D6D;stroke-width:1.0417;" width="224.5524" x="311.1821" y="537.5651"/><text fill="#FFFFFF" font-family="'Verdana'" font-size="12.5" lengthAdjust="spacing" textLength="201.6357" x="322.6405" y="560.6262">Open QuickBooks Desktop 2015</text><rect fill="url(#g19g49xdiratdy1)" height="37.4674" rx="4.1667" ry="4.1667" style="stroke:#304D6D;stroke-width:1.0417;" width="196.8241" x="325.0463" y="595.8659"/><text fill="#FFFFFF" font-family="'Verdana'" font-size="12.5" lengthAdjust="spacing" textLength="173.9075" x="336.5046" y="618.927">Navigate to 'Create Invoice'</text><rect fill="url(#g19g49xdiratdy1)" height="37.4674" rx="4.1667" ry="4.1667" style="stroke:#304D6D;stroke-width:1.0417;" width="159.1166" x="343.9" y="654.1667"/><text fill="#FFFFFF" font-family="'Verdana'" font-size="12.5" lengthAdjust="spacing" textLength="136.2" x="355.3584" y="677.2278">Type Customer Name</text><rect fill="url(#g19g49xdiratdy1)" height="37.4674" rx="4.1667" ry="4.1667" style="stroke:#304D6D;stroke-width:1.0417;" width="106.6691" x="370.1238" y="712.4674"/><text fill="#FFFFFF" font-family="'Verdana'" font-size="12.5" lengthAdjust="spacing" textLength="83.7524" x="381.5821" y="735.5286">Type Amount</text><rect fill="url(#g19g49xdiratdy1)" height="37.4674" rx="4.1667" ry="4.1667" style="stroke:#304D6D;stroke-width:1.0417;" width="145.9757" x="350.4705" y="770.7682"/><text fill="#FFFFFF" font-family="'Verdana'" font-size="12.5" lengthAdjust="spacing" textLength="123.0591" x="361.9288" y="793.8293">Click 'Save &amp; Close'</text><line style="stroke:#3399F3;stroke-width:2.0833;" x1="224.6602" x2="224.6602" y1="80.5013" y2="924.8372"/><rect fill="url(#g19g49xdiratdy1)" height="52.0182" rx="4.1667" ry="4.1667" style="stroke:#304D6D;stroke-width:1.0417;" width="192.8752" x="614.1276" y="829.069"/><text fill="#FFFFFF" font-family="'Verdana'" font-size="12.5" lengthAdjust="spacing" textLength="162.3474" x="625.5859" y="852.1301">Receive Slack Notification</text><text fill="#FFFFFF" font-family="'Verdana'" font-size="12.5" lengthAdjust="spacing" textLength="169.9585" x="625.5859" y="866.6809">"Invoice #1234 Processed"</text><ellipse cx="710.5652" cy="913.3789" fill="none" rx="11.4583" ry="11.4583" style="stroke:#304D6D;stroke-width:1.0417;"/><ellipse cx="710.5652" cy="913.3789" fill="none" rx="6.25" ry="6.25" style="stroke:#304D6D;stroke-width:1.0417;"/><line style="stroke:#3399F3;stroke-width:2.0833;" x1="607.8776" x2="607.8776" y1="80.5013" y2="924.8372"/><line style="stroke:#3399F3;stroke-width:2.0833;" x1="811.1694" x2="811.1694" y1="80.5013" y2="924.8372"/><line style="stroke:#446E9B;stroke-width:3.125;" x1="121.1843" x2="121.1843" y1="131.5104" y2="152.3438"/><polygon fill="#446E9B" points="117.0176,141.9271,121.1843,152.3438,125.351,141.9271,121.1843,146.0938" style="stroke:#446E9B;stroke-width:1.0417;"/><line style="stroke:#446E9B;stroke-width:3.125;" x1="121.1843" x2="121.1843" y1="189.8112" y2="210.6445"/><polygon fill="#446E9B" points="117.0176,200.2279,121.1843,210.6445,125.351,200.2279,121.1843,204.3945" style="stroke:#446E9B;stroke-width:1.0417;"/><line style="stroke:#446E9B;stroke-width:3.125;" x1="423.4584" x2="423.4584" y1="306.4128" y2="327.2461"/><polygon fill="#446E9B" points="419.2917,316.8294,423.4584,327.2461,427.625,316.8294,423.4584,320.9961" style="stroke:#446E9B;stroke-width:1.0417;"/><line style="stroke:#446E9B;stroke-width:3.125;" x1="521.8669" x2="521.8669" y1="458.431" y2="493.8151"/><polygon fill="#446E9B" points="517.7002,483.3984,521.8669,493.8151,526.0335,483.3984,521.8669,487.5651" style="stroke:#446E9B;stroke-width:1.0417;"/><line style="stroke:#446E9B;stroke-width:3.125;" x1="344.19" x2="325.0498" y1="398.0469" y2="398.0469"/><line style="stroke:#446E9B;stroke-width:3.125;" x1="325.0498" x2="325.0498" y1="398.0469" y2="420.9635"/><polygon fill="#446E9B" points="320.8832,410.5469,325.0498,420.9635,329.2165,410.5469,325.0498,414.7135" style="stroke:#446E9B;stroke-width:1.0417;"/><line style="stroke:#446E9B;stroke-width:3.125;" x1="502.7267" x2="521.8669" y1="398.0469" y2="398.0469"/><line style="stroke:#446E9B;stroke-width:3.125;" x1="521.8669" x2="521.8669" y1="398.0469" y2="420.9635"/><polygon fill="#446E9B" points="517.7002,410.5469,521.8669,420.9635,526.0335,410.5469,521.8669,414.7135" style="stroke:#446E9B;stroke-width:1.0417;"/><line style="stroke:#446E9B;stroke-width:3.125;" x1="325.0498" x2="325.0498" y1="472.9818" y2="521.9401"/><line style="stroke:#446E9B;stroke-width:3.125;" x1="325.0498" x2="423.4584" y1="521.9401" y2="521.9401"/><line style="stroke:#446E9B;stroke-width:3.125;" x1="423.4584" x2="423.4584" y1="521.9401" y2="537.5651"/><polygon fill="#446E9B" points="419.2917,527.1484,423.4584,537.5651,427.625,527.1484,423.4584,531.3151" style="stroke:#446E9B;stroke-width:1.0417;"/><line style="stroke:#446E9B;stroke-width:3.125;" x1="423.4584" x2="423.4584" y1="364.7135" y2="385.5469"/><polygon fill="#446E9B" points="419.2917,375.1302,423.4584,385.5469,427.625,375.1302,423.4584,379.2969" style="stroke:#446E9B;stroke-width:1.0417;"/><line style="stroke:#446E9B;stroke-width:3.125;" x1="423.4584" x2="423.4584" y1="575.0326" y2="595.8659"/><polygon fill="#446E9B" points="419.2917,585.4492,423.4584,595.8659,427.625,585.4492,423.4584,589.6159" style="stroke:#446E9B;stroke-width:1.0417;"/><line style="stroke:#446E9B;stroke-width:3.125;" x1="423.4584" x2="423.4584" y1="633.3333" y2="654.1667"/><polygon fill="#446E9B" points="419.2917,643.75,423.4584,654.1667,427.625,643.75,423.4584,647.9167" style="stroke:#446E9B;stroke-width:1.0417;"/><line style="stroke:#446E9B;stroke-width:3.125;" x1="423.4584" x2="423.4584" y1="691.6341" y2="712.4674"/><polygon fill="#446E9B" points="419.2917,702.0508,423.4584,712.4674,427.625,702.0508,423.4584,706.2174" style="stroke:#446E9B;stroke-width:1.0417;"/><line style="stroke:#446E9B;stroke-width:3.125;" x1="423.4584" x2="423.4584" y1="749.9349" y2="770.7682"/><polygon fill="#446E9B" points="419.2917,760.3516,423.4584,770.7682,427.625,760.3516,423.4584,764.5182" style="stroke:#446E9B;stroke-width:1.0417;"/><line style="stroke:#446E9B;stroke-width:3.125;" x1="710.5652" x2="710.5652" y1="881.0872" y2="901.9206"/><polygon fill="#446E9B" points="706.3985,891.5039,710.5652,901.9206,714.7319,891.5039,710.5652,895.6706" style="stroke:#446E9B;stroke-width:1.0417;"/><line style="stroke:#446E9B;stroke-width:3.125;" x1="121.1843" x2="121.1843" y1="248.112" y2="253.3203"/><line style="stroke:#446E9B;stroke-width:3.125;" x1="121.1843" x2="423.4584" y1="253.3203" y2="253.3203"/><line style="stroke:#446E9B;stroke-width:3.125;" x1="423.4584" x2="423.4584" y1="253.3203" y2="268.9453"/><polygon fill="#446E9B" points="419.2917,258.5286,423.4584,268.9453,427.625,258.5286,423.4584,262.6953" style="stroke:#446E9B;stroke-width:1.0417;"/><line style="stroke:#446E9B;stroke-width:3.125;" x1="423.4584" x2="423.4584" y1="808.2357" y2="813.444"/><line style="stroke:#446E9B;stroke-width:3.125;" x1="423.4584" x2="710.5652" y1="813.444" y2="813.444"/><line style="stroke:#446E9B;stroke-width:3.125;" x1="710.5652" x2="710.5652" y1="813.444" y2="829.069"/><polygon fill="#446E9B" points="706.3985,818.6523,710.5652,829.069,714.7319,818.6523,710.5652,822.819" style="stroke:#446E9B;stroke-width:1.0417;"/><text fill="#304D6D" font-family="'Verdana'" font-size="12.5" lengthAdjust="spacing" textLength="101.178" x="69.5536" y="97.3124">Field Technician</text><text fill="#304D6D" font-family="'Verdana'" font-size="12.5" lengthAdjust="spacing" textLength="100.6897" x="365.9241" y="97.3124">ElectroNeek Bot</text><text fill="#304D6D" font-family="'Verdana'" font-size="12.5" lengthAdjust="spacing" textLength="87.8662" x="665.5904" y="97.3124">Finance Team</text><!--SRC=[JL71ZXCn3BtdAqmHT2hjONU10rC9rCvi1GTcIriEI7l9PZojrOmzIZBT1VNZSQ0WSabY-xtdPxz81-mHuc0TUlje4YMFC5bA8Dx3Sep462DyaHO3qq-RI1YAEuyk1MaGZx1PBsOJSruH-XPsw0vCZYoVJKms95DksGwmFaWIa0xMTi00d_aav71koc-35zk29kiWmwCymqgyQisDEV-lifHqDcMDIKFGu1Eio6VyPcIuhpPGrEB67ZafTqBlQO_iS3Otr45H2NVKvW1yWFVNhpxEG6shZ-yOPmRqb7VFALYbhcso3rpeXLTGZJ59Z-4A5hsCd9GEVKGe6hd05Xv3WazZRnasU29yogtdb287WznIPqnvFwZQrv7SSIboZ51ZF6eURgzltgc9nfvehufv3DCgO7vUHZJLzEx7WFzwWSRs-3VufotzLLwvORgr9uJNK7c96PctmZRRtg7jTNuRT4XQilLMonj9r97xlTC7dbmKuUNDxPkti0xYTFFOJkOcU_a5]--></g></svg>