<svg xmlns="http://www.w3.org/2000/svg" xmlns:xlink="http://www.w3.org/1999/xlink" contentStyleType="text/css" data-diagram-type="SEQUENCE" height="447px" preserveAspectRatio="none" style="width:1193px;height:447px;background:#FFFFFF;" version="1.1" viewBox="0 0 1193 447" width="1193px" zoomAndPan="magnify"><defs/><g><g><title>Dead Man.s Switch</title><rect fill="#FFFFFF" height="100.3984" style="stroke:#181818;stroke-width:1;" width="10" x="257.7314" y="112.4297"/></g><g><title>Mercenary Devs</title><rect fill="#FFFFFF" height="99.3984" style="stroke:#181818;stroke-width:1;" width="10" x="673.0981" y="212.8281"/></g><g><title>Operations Team</title><rect fill="#FFFFFF" height="34.1328" style="stroke:#181818;stroke-width:1;" width="10" x="918.2847" y="314.2266"/></g><g><title>Trust Protector</title><rect fill="#000000" fill-opacity="0.00000" height="285.0625" width="8" x="56.394" y="81.2969"/><line style="stroke:#181818;stroke-width:0.5;stroke-dasharray:5,5;" x1="60" x2="60" y1="81.2969" y2="366.3594"/></g><g><title>Dead Man.s Switch</title><rect fill="#000000" fill-opacity="0.00000" height="285.0625" width="8" x="258.7314" y="81.2969"/><line style="stroke:#181818;stroke-width:0.5;stroke-dasharray:5,5;" x1="262.3716" x2="262.3716" y1="81.2969" y2="366.3594"/></g><g><title>The Digital Vault</title><rect fill="#000000" fill-opacity="0.00000" height="285.0625" width="8" x="475.9648" y="81.2969"/><line style="stroke:#181818;stroke-width:0.5;stroke-dasharray:5,5;" x1="479.5894" x2="479.5894" y1="81.2969" y2="366.3594"/></g><g><title>Mercenary Devs</title><rect fill="#000000" fill-opacity="0.00000" height="285.0625" width="8" x="674.0981" y="81.2969"/><line style="stroke:#181818;stroke-width:0.5;stroke-dasharray:5,5;" x1="677.2607" x2="677.2607" y1="81.2969" y2="366.3594"/></g><g><title>Operations Team</title><rect fill="#000000" fill-opacity="0.00000" height="285.0625" width="8" x="919.2847" y="81.2969"/><line style="stroke:#181818;stroke-width:0.5;stroke-dasharray:5,5;" x1="922.8857" x2="922.8857" y1="81.2969" y2="366.3594"/></g><g class="participant participant-head" data-participant="PROT"><text fill="#000000" font-family="sans-serif" font-size="14" lengthAdjust="spacing" textLength="104.7881" x="5" y="77.9951">Trust Protector</text><ellipse cx="60.394" cy="13.5" fill="#E2E2F0" rx="8" ry="8" style="stroke:#181818;stroke-width:0.5;"/><path d="M60.394,21.5 L60.394,48.5 M47.394,29.5 L73.394,29.5 M60.394,48.5 L47.394,63.5 M60.394,48.5 L73.394,63.5" fill="none" style="stroke:#181818;stroke-width:0.5;"/></g><g class="participant participant-tail" data-participant="PROT"><text fill="#000000" font-family="sans-serif" font-size="14" lengthAdjust="spacing" textLength="104.7881" x="5" y="378.3545">Trust Protector</text><ellipse cx="60.394" cy="390.1563" fill="#E2E2F0" rx="8" ry="8" style="stroke:#181818;stroke-width:0.5;"/><path d="M60.394,398.1563 L60.394,425.1563 M47.394,406.1563 L73.394,406.1563 M60.394,425.1563 L47.394,440.1563 M60.394,425.1563 L73.394,440.1563" fill="none" style="stroke:#181818;stroke-width:0.5;"/></g><g class="participant participant-head" data-participant="DMS"><rect fill="#E2E2F0" height="30.2969" rx="2.5" ry="2.5" style="stroke:#181818;stroke-width:0.5;" width="146.7197" x="189.3716" y="50"/><text fill="#000000" font-family="sans-serif" font-size="14" lengthAdjust="spacing" textLength="132.7197" x="196.3716" y="69.9951">Dead Man's Switch</text></g><g class="participant participant-tail" data-participant="DMS"><rect fill="#E2E2F0" height="30.2969" rx="2.5" ry="2.5" style="stroke:#181818;stroke-width:0.5;" width="146.7197" x="189.3716" y="365.3594"/><text fill="#000000" font-family="sans-serif" font-size="14" lengthAdjust="spacing" textLength="132.7197" x="196.3716" y="385.3545">Dead Man's Switch</text></g><g class="participant participant-head" data-participant="VAULT"><rect fill="#E2E2F0" height="30.2969" rx="2.5" ry="2.5" style="stroke:#181818;stroke-width:0.5;" width="130.751" x="414.5894" y="50"/><text fill="#000000" font-family="sans-serif" font-size="14" lengthAdjust="spacing" textLength="116.751" x="421.5894" y="69.9951">The Digital Vault</text></g><g class="participant participant-tail" data-participant="VAULT"><rect fill="#E2E2F0" height="30.2969" rx="2.5" ry="2.5" style="stroke:#181818;stroke-width:0.5;" width="130.751" x="414.5894" y="365.3594"/><text fill="#000000" font-family="sans-serif" font-size="14" lengthAdjust="spacing" textLength="116.751" x="421.5894" y="385.3545">The Digital Vault</text></g><g class="participant participant-head" data-participant="DEVS"><rect fill="#E2E2F0" height="30.2969" rx="2.5" ry="2.5" style="stroke:#181818;stroke-width:0.5;" width="127.6748" x="614.2607" y="50"/><text fill="#000000" font-family="sans-serif" font-size="14" lengthAdjust="spacing" textLength="113.6748" x="621.2607" y="69.9951">Mercenary Devs</text></g><g class="participant participant-tail" data-participant="DEVS"><rect fill="#E2E2F0" height="30.2969" rx="2.5" ry="2.5" style="stroke:#181818;stroke-width:0.5;" width="127.6748" x="614.2607" y="365.3594"/><text fill="#000000" font-family="sans-serif" font-size="14" lengthAdjust="spacing" textLength="113.6748" x="621.2607" y="385.3545">Mercenary Devs</text></g><g class="participant participant-head" data-participant="OPS"><rect fill="#E2E2F0" height="30.2969" rx="2.5" ry="2.5" style="stroke:#181818;stroke-width:0.5;" width="134.7979" x="855.8857" y="50"/><text fill="#000000" font-family="sans-serif" font-size="14" lengthAdjust="spacing" textLength="120.7979" x="862.8857" y="69.9951">Operations Team</text></g><g class="participant participant-tail" data-participant="OPS"><rect fill="#E2E2F0" height="30.2969" rx="2.5" ry="2.5" style="stroke:#181818;stroke-width:0.5;" width="134.7979" x="855.8857" y="365.3594"/><text fill="#000000" font-family="sans-serif" font-size="14" lengthAdjust="spacing" textLength="120.7979" x="862.8857" y="385.3545">Operations Team</text></g><g><title>Dead Man.s Switch</title><rect fill="#FFFFFF" height="100.3984" style="stroke:#181818;stroke-width:1;" width="10" x="257.7314" y="112.4297"/></g><g><title>Mercenary Devs</title><rect fill="#FFFFFF" height="99.3984" style="stroke:#181818;stroke-width:1;" width="10" x="673.0981" y="212.8281"/></g><g><title>Operations Team</title><rect fill="#FFFFFF" height="34.1328" style="stroke:#181818;stroke-width:1;" width="10" x="918.2847" y="314.2266"/></g><g class="message" data-participant-1="PROT" data-participant-2="DMS"><polygon fill="#181818" points="245.7314,108.4297,255.7314,112.4297,245.7314,116.4297,249.7314,112.4297" style="stroke:#181818;stroke-width:1;"/><line style="stroke:#181818;stroke-width:1;" x1="60.394" x2="251.7314" y1="112.4297" y2="112.4297"/><text fill="#000000" font-family="sans-serif" font-size="13" lengthAdjust="spacing" textLength="178.3374" x="67.394" y="107.3638">1. Verification of Incapacity</text></g><g class="message" data-participant-1="DMS" data-participant-2="DMS"><line style="stroke:#181818;stroke-width:1;" x1="267.7314" x2="309.7314" y1="141.5625" y2="141.5625"/><line style="stroke:#181818;stroke-width:1;" x1="309.7314" x2="309.7314" y1="141.5625" y2="154.5625"/><line style="stroke:#181818;stroke-width:1;" x1="268.7314" x2="309.7314" y1="154.5625" y2="154.5625"/><polygon fill="#181818" points="278.7314,150.5625,268.7314,154.5625,278.7314,158.5625,274.7314,154.5625" style="stroke:#181818;stroke-width:1;"/><text fill="#000000" font-family="sans-serif" font-size="13" lengthAdjust="spacing" textLength="156.749" x="274.7314" y="136.4966">2. Release "Master Key"</text></g><g class="message" data-participant-1="DMS" data-participant-2="VAULT"><polygon fill="#181818" points="467.9648,179.6953,477.9648,183.6953,467.9648,187.6953,471.9648,183.6953" style="stroke:#181818;stroke-width:1;"/><line style="stroke:#181818;stroke-width:1;" x1="267.7314" x2="473.9648" y1="183.6953" y2="183.6953"/><text fill="#000000" font-family="sans-serif" font-size="13" lengthAdjust="spacing" textLength="188.2334" x="274.7314" y="178.6294">3. Unlock Critical Credentials</text></g><g class="message" data-participant-1="DMS" data-participant-2="DEVS"><polygon fill="#181818" points="661.0981,208.8281,671.0981,212.8281,661.0981,216.8281,665.0981,212.8281" style="stroke:#181818;stroke-width:1;"/><line style="stroke:#181818;stroke-width:1;" x1="262.7314" x2="667.0981" y1="212.8281" y2="212.8281"/><text fill="#000000" font-family="sans-serif" font-size="13" lengthAdjust="spacing" textLength="163.1411" x="269.7314" y="207.7622">4. Send "Code Red" Alert</text></g><g class="message" data-participant-1="DEVS" data-participant-2="VAULT"><polygon fill="#181818" points="490.9648,237.9609,480.9648,241.9609,490.9648,245.9609,486.9648,241.9609" style="stroke:#181818;stroke-width:1;"/><line style="stroke:#181818;stroke-width:1;" x1="484.9648" x2="672.0981" y1="241.9609" y2="241.9609"/><text fill="#000000" font-family="sans-serif" font-size="13" lengthAdjust="spacing" textLength="169.1333" x="496.9648" y="236.895">5. Access Read-Only Docs</text></g><g class="message" data-participant-1="DEVS" data-participant-2="OPS"><polygon fill="#181818" points="911.2847,270.0938,921.2847,274.0938,911.2847,278.0938,915.2847,274.0938" style="stroke:#181818;stroke-width:1;"/><line style="stroke:#181818;stroke-width:1;" x1="683.0981" x2="917.2847" y1="274.0938" y2="274.0938"/><text fill="#000000" font-family="sans-serif" font-size="13" lengthAdjust="spacing" textLength="172.2754" x="690.0981" y="269.0278">6. Establish Admin Control</text></g><path d="M928,254.9609 L928,279.9609 L1186,279.9609 L1186,264.9609 L1176,254.9609 L928,254.9609" fill="#FEFFDD" style="stroke:#181818;stroke-width:0.5;"/><path d="M1176,254.9609 L1176,264.9609 L1186,264.9609 L1176,254.9609" fill="#FEFFDD" style="stroke:#181818;stroke-width:0.5;"/><text fill="#000000" font-family="sans-serif" font-size="13" lengthAdjust="spacing" textLength="237.7578" x="934" y="272.0278">"Keep the Lights On" Protocol Active</text><g class="message" data-participant-1="DEVS" data-participant-2="DEVS"><line style="stroke:#181818;stroke-width:1;" x1="683.0981" x2="725.0981" y1="311.2266" y2="311.2266"/><line style="stroke:#181818;stroke-width:1;" x1="725.0981" x2="725.0981" y1="311.2266" y2="324.2266"/><line style="stroke:#181818;stroke-width:1;" x1="678.0981" x2="725.0981" y1="324.2266" y2="324.2266"/><polygon fill="#181818" points="688.0981,320.2266,678.0981,324.2266,688.0981,328.2266,684.0981,324.2266" style="stroke:#181818;stroke-width:1;"/><text fill="#000000" font-family="sans-serif" font-size="13" lengthAdjust="spacing" textLength="211.1865" x="690.0981" y="306.1606">7. Freeze Non-Essential Updates</text></g><g class="message" data-participant-1="OPS" data-participant-2="PROT"><polygon fill="#181818" points="71.394,344.3594,61.394,348.3594,71.394,352.3594,67.394,348.3594" style="stroke:#181818;stroke-width:1;"/><line style="stroke:#181818;stroke-width:1;" x1="65.394" x2="922.2847" y1="348.3594" y2="348.3594"/><text fill="#000000" font-family="sans-serif" font-size="13" lengthAdjust="spacing" textLength="177.9375" x="77.394" y="343.2935">8. Confirm System Stability</text></g><!--SRC=[NP5FRnen4CNl-ocUzf8JA_LFqef39GHKYX82oWBtgJq4AyPUsPDKzDDtxBG4Sh9alNdpU_F8I4ner-ab2rOf2fUF5fInUbokcu6IEEC62e9sncIne72LqVzsOlPLDrlqbxBrdZ5pJqx8OqilNgfiEzdSV_1RS38SA1qnuzVyPZRVVd1R3fn8N0mPQwP3LIrNVTCKFen-bFqOurE7BIUtSwQA4NUu3OO6CawE3HbnhoHSOSl0QUvpXqVsJ9cLXx9mmXqVs_-YIgsoBnqsmKVpZ6bo2gVHfeaj1t7ayybIwLNyjKFFmQATHijgRrjCF2TfB5-0d66Ls7NwRETrXuandBDQa1qjWzT3HPDFGZs3ocuwpBFGB-_o7XDxS07J62H5tmJj4yazxMMCzevvW6Wtz-L3ZnZQsdWqqUiY9U6JyxyWtphyJCn_60ynZEOvl-N5Ph1AdI_ob0JlWKf31K-zQazZVEyAriwb0_gZtbaVXNQ-r7FceqD_0G00]--></g></svg>