<svg xmlns="http://www.w3.org/2000/svg" xmlns:xlink="http://www.w3.org/1999/xlink" contentStyleType="text/css" data-diagram-type="DESCRIPTION" height="322px" preserveAspectRatio="none" style="width:1051px;height:322px;background:#FFFFFF;" version="1.1" viewBox="0 0 1051 322" width="1051px" zoomAndPan="magnify"><defs/><g><!--cluster INPUT--><g class="cluster" data-entity="INPUT" data-source-line="6" data-uid="ent0002" id="cluster_INPUT"><path d="M40.5,6 L150.9297,6 A3.75,3.75 0 0 1 153.4297,8.5 L160.4297,28.2969 L1041.5,28.2969 A2.5,2.5 0 0 1 1044,30.7969 L1044,90.8 A2.5,2.5 0 0 1 1041.5,93.3 L40.5,93.3 A2.5,2.5 0 0 1 38,90.8 L38,8.5 A2.5,2.5 0 0 1 40.5,6" fill="#D3D3D3" style="stroke:#000000;stroke-width:1.5;"/><line style="stroke:#000000;stroke-width:1.5;" x1="38" x2="160.4297" y1="28.2969" y2="28.2969"/><text fill="#000000" font-family="sans-serif" font-size="14" font-weight="bold" lengthAdjust="spacing" textLength="109.4297" x="42" y="20.9951">Input Sources</text></g><!--cluster ENGINE--><g class="cluster" data-entity="ENGINE" data-source-line="13" data-uid="ent0007" id="cluster_ENGINE"><path d="M8.5,117.3 L133.8252,117.3 A3.75,3.75 0 0 1 136.3252,119.8 L143.3252,139.5969 L738.5,139.5969 A2.5,2.5 0 0 1 741,142.0969 L741,202.09 A2.5,2.5 0 0 1 738.5,204.59 L8.5,204.59 A2.5,2.5 0 0 1 6,202.09 L6,119.8 A2.5,2.5 0 0 1 8.5,117.3" fill="#ADD8E6" style="stroke:#000000;stroke-width:1.5;"/><line style="stroke:#000000;stroke-width:1.5;" x1="6" x2="143.3252" y1="139.5969" y2="139.5969"/><text fill="#000000" font-family="sans-serif" font-size="14" font-weight="bold" lengthAdjust="spacing" textLength="124.3252" x="10" y="132.2951">Analysis Engine</text></g><!--cluster OUTPUT--><g class="cluster" data-entity="OUTPUT" data-source-line="20" data-uid="ent0012" id="cluster_OUTPUT"><path d="M62.5,228.59 L196.0488,228.59 A3.75,3.75 0 0 1 198.5488,231.09 L205.5488,250.8869 L682.5,250.8869 A2.5,2.5 0 0 1 685,253.3869 L685,313.39 A2.5,2.5 0 0 1 682.5,315.89 L62.5,315.89 A2.5,2.5 0 0 1 60,313.39 L60,231.09 A2.5,2.5 0 0 1 62.5,228.59" fill="#90EE90" style="stroke:#000000;stroke-width:1.5;"/><line style="stroke:#000000;stroke-width:1.5;" x1="60" x2="205.5488" y1="250.8869" y2="250.8869"/><text fill="#000000" font-family="sans-serif" font-size="14" font-weight="bold" lengthAdjust="spacing" textLength="132.5488" x="64" y="243.5851">Strategic Output</text></g><!--entity SITE--><g class="entity" data-entity="SITE" data-source-line="7" data-uid="ent0003" id="entity_SITE"><rect fill="#F1F1F1" height="36.2969" rx="2.5" ry="2.5" style="stroke:#181818;stroke-width:0.5;" width="167.041" x="54.48" y="41"/><text fill="#000000" font-family="sans-serif" font-size="14" lengthAdjust="spacing" textLength="147.041" x="64.48" y="63.9951">Competitor Websites</text></g><!--entity SOCIAL--><g class="entity" data-entity="SOCIAL" data-source-line="8" data-uid="ent0004" id="entity_SOCIAL"><rect fill="#F1F1F1" height="36.2969" rx="2.5" ry="2.5" style="stroke:#181818;stroke-width:0.5;" width="204.9258" x="281.54" y="41"/><text fill="#000000" font-family="sans-serif" font-size="14" lengthAdjust="spacing" textLength="184.9258" x="291.54" y="63.9951">Social Media (LinkedIn/FB)</text></g><!--entity SEO--><g class="entity" data-entity="SEO" data-source-line="9" data-uid="ent0005" id="entity_SEO"><rect fill="#F1F1F1" height="36.2969" rx="2.5" ry="2.5" style="stroke:#181818;stroke-width:0.5;" width="213.751" x="546.12" y="41"/><text fill="#000000" font-family="sans-serif" font-size="14" lengthAdjust="spacing" textLength="193.751" x="556.12" y="63.9951">SEO Tools (SpyFu/SEMrush)</text></g><!--entity REVIEWS--><g class="entity" data-entity="REVIEWS" data-source-line="10" data-uid="ent0006" id="entity_REVIEWS"><rect fill="#F1F1F1" height="36.2969" rx="2.5" ry="2.5" style="stroke:#181818;stroke-width:0.5;" width="208.6035" x="819.7" y="41"/><text fill="#000000" font-family="sans-serif" font-size="14" lengthAdjust="spacing" textLength="188.6035" x="829.7" y="63.9951">Review Sites (Google/Yelp)</text></g><!--entity FEATURE--><g class="entity" data-entity="FEATURE" data-source-line="14" data-uid="ent0008" id="entity_FEATURE"><rect fill="#F1F1F1" height="36.2969" rx="2.5" ry="2.5" style="stroke:#181818;stroke-width:0.5;" width="122.5049" x="214.75" y="152.3"/><text fill="#000000" font-family="sans-serif" font-size="14" lengthAdjust="spacing" textLength="102.5049" x="224.75" y="175.2951">Feature Matrix</text></g><!--entity PRICE--><g class="entity" data-entity="PRICE" data-source-line="15" data-uid="ent0009" id="entity_PRICE"><rect fill="#F1F1F1" height="36.2969" rx="2.5" ry="2.5" style="stroke:#181818;stroke-width:0.5;" width="132.8066" x="21.6" y="152.3"/><text fill="#000000" font-family="sans-serif" font-size="14" lengthAdjust="spacing" textLength="112.8066" x="31.6" y="175.2951">Pricing Analyzer</text></g><!--entity GAP--><g class="entity" data-entity="GAP" data-source-line="16" data-uid="ent0010" id="entity_GAP"><rect fill="#F1F1F1" height="36.2969" rx="2.5" ry="2.5" style="stroke:#181818;stroke-width:0.5;" width="144.5576" x="580.72" y="152.3"/><text fill="#000000" font-family="sans-serif" font-size="14" lengthAdjust="spacing" textLength="124.5576" x="590.72" y="175.2951">Gap Identification</text></g><!--entity SWOT--><g class="entity" data-entity="SWOT" data-source-line="17" data-uid="ent0011" id="entity_SWOT"><rect fill="#F1F1F1" height="36.2969" rx="2.5" ry="2.5" style="stroke:#181818;stroke-width:0.5;" width="124.4326" x="396.78" y="152.3"/><text fill="#000000" font-family="sans-serif" font-size="14" lengthAdjust="spacing" textLength="104.4326" x="406.78" y="175.2951">SWOT Analysis</text></g><!--entity DIFF--><g class="entity" data-entity="DIFF" data-source-line="21" data-uid="ent0013" id="entity_DIFF"><rect fill="#F1F1F1" height="36.2969" rx="2.5" ry="2.5" style="stroke:#181818;stroke-width:0.5;" width="185.5938" x="278.2" y="263.59"/><text fill="#000000" font-family="sans-serif" font-size="14" lengthAdjust="spacing" textLength="165.5938" x="288.2" y="286.5851">Differentiation Strategy</text></g><!--entity PROD--><g class="entity" data-entity="PROD" data-source-line="22" data-uid="ent0014" id="entity_PROD"><rect fill="#F1F1F1" height="36.2969" rx="2.5" ry="2.5" style="stroke:#181818;stroke-width:0.5;" width="145.0225" x="523.49" y="263.59"/><text fill="#000000" font-family="sans-serif" font-size="14" lengthAdjust="spacing" textLength="125.0225" x="533.49" y="286.5851">Product Roadmap</text></g><!--entity MARK--><g class="entity" data-entity="MARK" data-source-line="23" data-uid="ent0015" id="entity_MARK"><rect fill="#F1F1F1" height="36.2969" rx="2.5" ry="2.5" style="stroke:#181818;stroke-width:0.5;" width="141.8574" x="76.07" y="263.59"/><text fill="#000000" font-family="sans-serif" font-size="14" lengthAdjust="spacing" textLength="121.8574" x="86.07" y="286.5851">Marketing Angles</text></g><!--link SITE to FEATURE--><g class="link" data-entity-1="SITE" data-entity-2="FEATURE" data-source-line="27" data-uid="lnk16" id="link_SITE_FEATURE"><path d="M222,59.89 C238.87,59.89 251.53,59.89 251.53,59.89 C251.53,59.89 251.53,114.79 251.53,146.19" fill="none" id="SITE-to-FEATURE" style="stroke:#181818;stroke-width:1;"/><polygon fill="#181818" points="251.53,152.19,255.53,143.19,251.53,147.19,247.53,143.19,251.53,152.19" style="stroke:#181818;stroke-width:1;"/><text fill="#000000" font-family="sans-serif" font-size="13" lengthAdjust="spacing" textLength="105.9868" x="145.53" y="104.3369">Scrape Features</text></g><!--reverse link PRICE to SITE--><g class="link" data-entity-1="PRICE" data-entity-2="SITE" data-source-line="28" data-uid="lnk17" id="link_PRICE_SITE"><path d="M104.44,145.82 C104.44,125.15 104.44,98.01 104.44,77.47" fill="none" id="PRICE-backto-SITE" style="stroke:#181818;stroke-width:1;"/><polygon fill="#181818" points="104.44,151.82,108.44,142.82,104.44,146.82,100.44,142.82,104.44,151.82" style="stroke:#181818;stroke-width:1;"/><text fill="#000000" font-family="sans-serif" font-size="13" lengthAdjust="spacing" textLength="93.1392" x="10.44" y="110.7069">Scrape Pricing</text></g><!--link SOCIAL to SWOT--><g class="link" data-entity-1="SOCIAL" data-entity-2="SWOT" data-source-line="29" data-uid="lnk18" id="link_SOCIAL_SWOT"><path d="M441.62,77.78 C441.62,98.44 441.62,125.58 441.62,146.13" fill="none" id="SOCIAL-to-SWOT" style="stroke:#181818;stroke-width:1;"/><polygon fill="#181818" points="441.62,152.13,445.62,143.13,441.62,147.13,437.62,143.13,441.62,152.13" style="stroke:#181818;stroke-width:1;"/><text fill="#000000" font-family="sans-serif" font-size="13" lengthAdjust="spacing" textLength="124.8901" x="316.62" y="111.0169">Sentiment Analysis</text></g><!--link SEO to GAP--><g class="link" data-entity-1="SEO" data-entity-2="GAP" data-source-line="30" data-uid="lnk19" id="link_SEO_GAP"><path d="M653,77.78 C653,98.44 653,125.58 653,146.13" fill="none" id="SEO-to-GAP" style="stroke:#181818;stroke-width:1;"/><polygon fill="#181818" points="653,152.13,657,143.13,653,147.13,649,143.13,653,152.13" style="stroke:#181818;stroke-width:1;"/><text fill="#000000" font-family="sans-serif" font-size="13" lengthAdjust="spacing" textLength="93.5962" x="559" y="111.0169">Keyword Gaps</text></g><!--link REVIEWS to GAP--><g class="link" data-entity-1="REVIEWS" data-entity-2="GAP" data-source-line="31" data-uid="lnk20" id="link_REVIEWS_GAP"><path d="M924,77.6 C924,109.34 924,170.89 924,170.89 C924,170.89 811.9,170.89 731.62,170.89" fill="none" id="REVIEWS-to-GAP" style="stroke:#181818;stroke-width:1;"/><polygon fill="#181818" points="725.62,170.89,734.62,174.89,730.62,170.89,734.62,166.89,725.62,170.89" style="stroke:#181818;stroke-width:1;"/><text fill="#000000" font-family="sans-serif" font-size="13" lengthAdjust="spacing" textLength="71.3032" x="799.46" y="166.9569">Pain Points</text></g><!--link FEATURE to DIFF--><g class="link" data-entity-1="FEATURE" data-entity-2="DIFF" data-source-line="33" data-uid="lnk21" id="link_FEATURE_DIFF"><path d="M307.73,189.07 C307.73,209.74 307.73,236.88 307.73,257.42" fill="none" id="FEATURE-to-DIFF" style="stroke:#181818;stroke-width:1;"/><polygon fill="#181818" points="307.73,263.42,311.73,254.42,307.73,258.42,303.73,254.42,307.73,263.42" style="stroke:#181818;stroke-width:1;"/><text fill="#000000" font-family="sans-serif" font-size="13" lengthAdjust="spacing" textLength="75.2959" x="231.73" y="222.3169">They lack X</text></g><!--link PRICE to MARK--><g class="link" data-entity-1="PRICE" data-entity-2="MARK" data-source-line="34" data-uid="lnk22" id="link_PRICE_MARK"><path d="M115.24,189.07 C115.24,209.74 115.24,236.88 115.24,257.42" fill="none" id="PRICE-to-MARK" style="stroke:#181818;stroke-width:1;"/><polygon fill="#181818" points="115.24,263.42,119.24,254.42,115.24,258.42,111.24,254.42,115.24,263.42" style="stroke:#181818;stroke-width:1;"/><text fill="#000000" font-family="sans-serif" font-size="13" lengthAdjust="spacing" textLength="107.1484" x="7.24" y="222.3169">We offer Y value</text></g><!--link GAP to PROD--><g class="link" data-entity-1="GAP" data-entity-2="PROD" data-source-line="35" data-uid="lnk23" id="link_GAP_PROD"><path d="M624.62,189.07 C624.62,209.74 624.62,236.88 624.62,257.42" fill="none" id="GAP-to-PROD" style="stroke:#181818;stroke-width:1;"/><polygon fill="#181818" points="624.62,263.42,628.62,254.42,624.62,258.42,620.62,254.42,624.62,263.42" style="stroke:#181818;stroke-width:1;"/><text fill="#000000" font-family="sans-serif" font-size="13" lengthAdjust="spacing" textLength="45.6714" x="578.62" y="222.3169">Build Z</text></g><!--link SWOT to DIFF--><g class="link" data-entity-1="SWOT" data-entity-2="DIFF" data-source-line="36" data-uid="lnk24" id="link_SWOT_DIFF"><path d="M430.29,189.07 C430.29,209.74 430.29,236.88 430.29,257.42" fill="none" id="SWOT-to-DIFF" style="stroke:#181818;stroke-width:1;"/><polygon fill="#181818" points="430.29,263.42,434.29,254.42,430.29,258.42,426.29,254.42,430.29,263.42" style="stroke:#181818;stroke-width:1;"/><text fill="#000000" font-family="sans-serif" font-size="13" lengthAdjust="spacing" textLength="114.6958" x="315.29" y="222.3169">Exploit Weakness</text></g><!--SRC=[PLDDZvim5BpxLppHGzD3b9vwgAfA-O08RH8GaARRgWSNNeY5OoFRR9Qk-jzh6zYcAWSEdc4yC- -X6oPQgkWLE1De-XP1AdEHHBy2GbQeiOKFx-yE5HNDVuUblBPIe32vwJc2mj9GKNCafALbGsk481PjPo2NdIfH1q0rn8VqMC2R7QilPgje3oy4xFDzRSNGC2CLdF2dPWRr3yVFuo8S6Bai6UMmnufHcEsOQB2AnI9QlHk8oJfUxaPgc40X9TSmozi-wXPvk5UTlepCC1be6Junl47kBeFPLafhVl68l1ruMVWb3ayv-NqNQ2aexpNJ48hQDkWZXOTjV0Z7J2lUuPGfGcewXR2dHh5dhnc5o-AOZObInKecQl2Ylr1vHfh5wn7VqXRYoXRCpgoaXadX6TjbEiOy9GLCZePezkGVlxbHr63DIaWwOsVX3IV7udu8Y69ol67dCoftexyEnizxBxw9esWoBgkkD919MbrfE_fEDWEwfwgne_J1RAE3i_qoUt3EtaB4vOsuiS9y_dag13v2NYfgzt4iJHDV17oQp_qE_2MChP5Xu5x45s49plZLlbvB8MuJ7CDsPWaFsD-agi0MgyautZiufKn0Afamcf39c8DTSei7nGLxuBPR-1gC_XpiiZduPFycrnyymXErUn0Gf-iOhXp7M7MCL_0j8DxnlNJut7B9Z5r-sWZKElW3]--></g></svg>