<svg xmlns="http://www.w3.org/2000/svg" xmlns:xlink="http://www.w3.org/1999/xlink" contentStyleType="text/css" data-diagram-type="DESCRIPTION" height="943.75px" preserveAspectRatio="none" style="width:722px;height:943px;" version="1.1" viewBox="0 0 722 943" width="722.9167px" zoomAndPan="magnify"><title>Content Repurposing Waterfall (The Machine)</title><defs><linearGradient id="g1dxb3ugbxrphk0" x1="50%" x2="50%" y1="0%" y2="100%"><stop offset="0%" stop-color="#B8B8B8"/><stop offset="100%" stop-color="#999999"/></linearGradient><linearGradient id="g1dxb3ugbxrphk1" x1="50%" x2="50%" y1="0%" y2="100%"><stop offset="0%" stop-color="#B8B8B8"/><stop offset="100%" stop-color="#6B6B6B"/></linearGradient><linearGradient id="g1dxb3ugbxrphk2" x1="50%" x2="50%" y1="0%" y2="100%"><stop offset="0%" stop-color="#7C9AB9"/><stop offset="100%" stop-color="#304D6D"/></linearGradient></defs><g><g class="title" data-source-line="2"><rect fill="url(#g1dxb3ugbxrphk0)" height="47.168" rx="4.1667" ry="4.1667" style="stroke:#6B6B6B;stroke-width:1.0417;" width="563.0371" x="75.2523" y="20.8333"/><text fill="#304D6D" font-family="'Verdana'" font-size="20.8333" font-weight="bold" lengthAdjust="spacing" textLength="540.1204" x="86.7106" y="51.6296">Content Repurposing Waterfall (The Machine)</text></g><!--cluster Core Asset--><g class="cluster" data-entity="Core Asset" data-source-line="4" data-uid="ent0002" id="cluster_Core Asset"><path d="M246.875,85.7096 L330.9713,85.7096 A6.25,6.25 0 0 1 335.1379,89.8763 L342.4296,116.9271 L434.375,116.9271 A4.1667,4.1667 0 0 1 438.5417,121.0938 L438.5417,212.7305 A4.1667,4.1667 0 0 1 434.375,216.8971 L246.875,216.8971 A4.1667,4.1667 0 0 1 242.7083,212.7305 L242.7083,89.8763 A4.1667,4.1667 0 0 1 246.875,85.7096" fill="url(#g1dxb3ugbxrphk1)" style="stroke:#446E9B;stroke-width:2.0833;"/><line style="stroke:#446E9B;stroke-width:2.0833;" x1="242.7083" x2="342.4296" y1="116.9271" y2="116.9271"/><text fill="#446E9B" font-family="'Verdana'" font-size="12.5" font-weight="bold" lengthAdjust="spacing" textLength="75.7629" x="252.0833" y="104.6041">Core Asset</text></g><!--cluster Transformation Layer--><g class="cluster" data-entity="Transformation Layer" data-source-line="8" data-uid="ent0004" id="cluster_Transformation Layer"><path d="M173.9583,276.2721 L334.6965,276.2721 A6.25,6.25 0 0 1 338.8631,280.4388 L346.1548,307.4896 L494.7917,307.4896 A4.1667,4.1667 0 0 1 498.9583,311.6563 L498.9583,562.5951 A4.1667,4.1667 0 0 1 494.7917,566.7617 L173.9583,566.7617 A4.1667,4.1667 0 0 1 169.7917,562.5951 L169.7917,280.4388 A4.1667,4.1667 0 0 1 173.9583,276.2721" fill="url(#g1dxb3ugbxrphk1)" style="stroke:#446E9B;stroke-width:2.0833;"/><line style="stroke:#446E9B;stroke-width:2.0833;" x1="169.7917" x2="346.1548" y1="307.4896" y2="307.4896"/><text fill="#446E9B" font-family="'Verdana'" font-size="12.5" font-weight="bold" lengthAdjust="spacing" textLength="152.4048" x="179.1667" y="295.1666">Transformation Layer</text></g><!--cluster Distribution Layer--><g class="cluster" data-entity="Distribution Layer" data-source-line="14" data-uid="ent0008" id="cluster_Distribution Layer"><path d="M20.8333,626.1367 L156.8278,626.1367 A6.25,6.25 0 0 1 160.9945,630.3034 L168.2861,657.3542 L706.25,657.3542 A4.1667,4.1667 0 0 1 710.4167,661.5208 L710.4167,927.0846 A4.1667,4.1667 0 0 1 706.25,931.2513 L20.8333,931.2513 A4.1667,4.1667 0 0 1 16.6667,927.0846 L16.6667,630.3034 A4.1667,4.1667 0 0 1 20.8333,626.1367" fill="url(#g1dxb3ugbxrphk1)" style="stroke:#446E9B;stroke-width:2.0833;"/><line style="stroke:#446E9B;stroke-width:2.0833;" x1="16.6667" x2="168.2861" y1="657.3542" y2="657.3542"/><text fill="#446E9B" font-family="'Verdana'" font-size="12.5" font-weight="bold" lengthAdjust="spacing" textLength="127.6611" x="26.0417" y="645.0312">Distribution Layer</text></g><!--cluster Channels--><g class="cluster" data-entity="Channels" data-source-line="17" data-uid="ent0010" id="cluster_Channels"><path d="M45.8333,789.6159 L118.6747,789.6159 A6.25,6.25 0 0 1 122.8414,793.7826 L130.1331,820.8333 L681.25,820.8333 A4.1667,4.1667 0 0 1 685.4167,825 L685.4167,902.0846 A4.1667,4.1667 0 0 1 681.25,906.2513 L45.8333,906.2513 A4.1667,4.1667 0 0 1 41.6667,902.0846 L41.6667,793.7826 A4.1667,4.1667 0 0 1 45.8333,789.6159" fill="url(#g1dxb3ugbxrphk1)" style="stroke:#D47500;stroke-width:2.0833;"/><line style="stroke:#D47500;stroke-width:2.0833;" x1="41.6667" x2="130.1331" y1="820.8333" y2="820.8333"/><text fill="#D47500" font-family="'Verdana'" font-size="12.5" font-weight="bold" lengthAdjust="spacing" textLength="64.5081" x="51.0417" y="808.5103">Channels</text></g><!--entity BLOG--><g class="entity" data-entity="BLOG" data-source-line="5" data-uid="ent0003" id="entity_BLOG"><rect fill="url(#g1dxb3ugbxrphk2)" height="70.7682" rx="4.1667" ry="4.1667" style="stroke:#304D6D;stroke-width:1.0417;" width="162.5448" x="259.3542" y="129.4596"/><rect fill="url(#g1dxb3ugbxrphk2)" height="10.4167" style="stroke:#304D6D;stroke-width:1.0417;" width="15.625" x="401.0656" y="134.668"/><rect fill="url(#g1dxb3ugbxrphk2)" height="2.0833" style="stroke:#304D6D;stroke-width:1.0417;" width="4.1667" x="398.9823" y="136.7513"/><rect fill="url(#g1dxb3ugbxrphk2)" height="2.0833" style="stroke:#304D6D;stroke-width:1.0417;" width="4.1667" x="398.9823" y="140.918"/><text fill="#FFFFFF" font-family="'Verdana'" font-size="12.5" lengthAdjust="spacing" textLength="110.4614" x="280.1875" y="167.1041">Blog Post / Article</text><text fill="#FFFFFF" font-family="'Verdana'" font-size="12.5" lengthAdjust="spacing" textLength="94.1284" x="280.1875" y="181.6549">(NeuronWriter)</text></g><!--entity VIDEO--><g class="entity" data-entity="VIDEO" data-source-line="9" data-uid="ent0005" id="entity_VIDEO"><rect fill="url(#g1dxb3ugbxrphk2)" height="70.7682" rx="4.1667" ry="4.1667" style="stroke:#304D6D;stroke-width:1.0417;" width="142.6168" x="185.9792" y="320.0221"/><rect fill="url(#g1dxb3ugbxrphk2)" height="10.4167" style="stroke:#304D6D;stroke-width:1.0417;" width="15.625" x="307.7626" y="325.2305"/><rect fill="url(#g1dxb3ugbxrphk2)" height="2.0833" style="stroke:#304D6D;stroke-width:1.0417;" width="4.1667" x="305.6793" y="327.3138"/><rect fill="url(#g1dxb3ugbxrphk2)" height="2.0833" style="stroke:#304D6D;stroke-width:1.0417;" width="4.1667" x="305.6793" y="331.4805"/><text fill="#FFFFFF" font-family="'Verdana'" font-size="12.5" lengthAdjust="spacing" textLength="56.4209" x="206.8125" y="357.6666">Zebracat</text><text fill="#FFFFFF" font-family="'Verdana'" font-size="12.5" lengthAdjust="spacing" textLength="90.5334" x="206.8125" y="372.2174">(AI Video Gen)</text></g><!--entity EDIT--><g class="entity" data-entity="EDIT" data-source-line="10" data-uid="ent0006" id="entity_EDIT"><rect fill="url(#g1dxb3ugbxrphk2)" height="70.7682" rx="4.1667" ry="4.1667" style="stroke:#304D6D;stroke-width:1.0417;" width="117.7327" x="219.2604" y="479.3346"/><rect fill="url(#g1dxb3ugbxrphk2)" height="10.4167" style="stroke:#304D6D;stroke-width:1.0417;" width="15.625" x="316.1598" y="484.543"/><rect fill="url(#g1dxb3ugbxrphk2)" height="2.0833" style="stroke:#304D6D;stroke-width:1.0417;" width="4.1667" x="314.0765" y="486.6263"/><rect fill="url(#g1dxb3ugbxrphk2)" height="2.0833" style="stroke:#304D6D;stroke-width:1.0417;" width="4.1667" x="314.0765" y="490.793"/><text fill="#FFFFFF" font-family="'Verdana'" font-size="12.5" lengthAdjust="spacing" textLength="49.3591" x="240.0938" y="516.9791">FlexClip</text><text fill="#FFFFFF" font-family="'Verdana'" font-size="12.5" lengthAdjust="spacing" textLength="65.6494" x="240.0938" y="531.5299">(Polishing)</text></g><!--entity IMG--><g class="entity" data-entity="IMG" data-source-line="11" data-uid="ent0007" id="entity_IMG"><rect fill="url(#g1dxb3ugbxrphk2)" height="70.7682" rx="4.1667" ry="4.1667" style="stroke:#304D6D;stroke-width:1.0417;" width="117.0369" x="365.4375" y="320.0221"/><rect fill="url(#g1dxb3ugbxrphk2)" height="10.4167" style="stroke:#304D6D;stroke-width:1.0417;" width="15.625" x="461.6411" y="325.2305"/><rect fill="url(#g1dxb3ugbxrphk2)" height="2.0833" style="stroke:#304D6D;stroke-width:1.0417;" width="4.1667" x="459.5578" y="327.3138"/><rect fill="url(#g1dxb3ugbxrphk2)" height="2.0833" style="stroke:#304D6D;stroke-width:1.0417;" width="4.1667" x="459.5578" y="331.4805"/><text fill="#FFFFFF" font-family="'Verdana'" font-size="12.5" lengthAdjust="spacing" textLength="39.3677" x="386.2708" y="357.6666">Canva</text><text fill="#FFFFFF" font-family="'Verdana'" font-size="12.5" lengthAdjust="spacing" textLength="64.9536" x="386.2708" y="372.2174">(Graphics)</text></g><!--entity VISTA--><g class="entity" data-entity="VISTA" data-source-line="15" data-uid="ent0009" id="entity_VISTA"><rect fill="url(#g1dxb3ugbxrphk2)" height="70.7682" rx="4.1667" ry="4.1667" style="stroke:#304D6D;stroke-width:1.0417;" width="124.4161" x="308.625" y="669.8867"/><rect fill="url(#g1dxb3ugbxrphk2)" height="10.4167" style="stroke:#304D6D;stroke-width:1.0417;" width="15.625" x="412.2078" y="675.0951"/><rect fill="url(#g1dxb3ugbxrphk2)" height="2.0833" style="stroke:#304D6D;stroke-width:1.0417;" width="4.1667" x="410.1244" y="677.1784"/><rect fill="url(#g1dxb3ugbxrphk2)" height="2.0833" style="stroke:#304D6D;stroke-width:1.0417;" width="4.1667" x="410.1244" y="681.3451"/><text fill="#FFFFFF" font-family="'Verdana'" font-size="12.5" lengthAdjust="spacing" textLength="72.1313" x="329.4583" y="707.5312">Vista Social</text><text fill="#FFFFFF" font-family="'Verdana'" font-size="12.5" lengthAdjust="spacing" textLength="72.3328" x="329.4583" y="722.0819">(Scheduler)</text></g><!--entity YouTube Shorts--><g class="entity" data-entity="YouTube Shorts" data-source-line="18" data-uid="ent0011" id="entity_YouTube Shorts"><rect fill="url(#g1dxb3ugbxrphk2)" height="56.2174" rx="4.1667" ry="4.1667" style="stroke:#304D6D;stroke-width:1.0417;" width="150.5025" x="58.0833" y="833.3659"/><rect fill="url(#g1dxb3ugbxrphk2)" height="10.4167" style="stroke:#304D6D;stroke-width:1.0417;" width="15.625" x="187.7525" y="838.5742"/><rect fill="url(#g1dxb3ugbxrphk2)" height="2.0833" style="stroke:#304D6D;stroke-width:1.0417;" width="4.1667" x="185.6692" y="840.6576"/><rect fill="url(#g1dxb3ugbxrphk2)" height="2.0833" style="stroke:#304D6D;stroke-width:1.0417;" width="4.1667" x="185.6692" y="844.8242"/><text fill="#FFFFFF" font-family="'Verdana'" font-size="12.5" lengthAdjust="spacing" textLength="98.4192" x="78.9167" y="871.0103">YouTube Shorts</text></g><!--entity TikTok--><g class="entity" data-entity="TikTok" data-source-line="19" data-uid="ent0012" id="entity_TikTok"><rect fill="url(#g1dxb3ugbxrphk2)" height="56.2174" rx="4.1667" ry="4.1667" style="stroke:#304D6D;stroke-width:1.0417;" width="92.9525" x="245.1875" y="833.3659"/><rect fill="url(#g1dxb3ugbxrphk2)" height="10.4167" style="stroke:#304D6D;stroke-width:1.0417;" width="15.625" x="317.3066" y="838.5742"/><rect fill="url(#g1dxb3ugbxrphk2)" height="2.0833" style="stroke:#304D6D;stroke-width:1.0417;" width="4.1667" x="315.2233" y="840.6576"/><rect fill="url(#g1dxb3ugbxrphk2)" height="2.0833" style="stroke:#304D6D;stroke-width:1.0417;" width="4.1667" x="315.2233" y="844.8242"/><text fill="#FFFFFF" font-family="'Verdana'" font-size="12.5" lengthAdjust="spacing" textLength="40.8691" x="266.0208" y="871.0103">TikTok</text></g><!--entity Instagram Reels--><g class="entity" data-entity="Instagram Reels" data-source-line="20" data-uid="ent0013" id="entity_Instagram Reels"><rect fill="url(#g1dxb3ugbxrphk2)" height="56.2174" rx="4.1667" ry="4.1667" style="stroke:#304D6D;stroke-width:1.0417;" width="153.7008" x="374.1875" y="833.3659"/><rect fill="url(#g1dxb3ugbxrphk2)" height="10.4167" style="stroke:#304D6D;stroke-width:1.0417;" width="15.625" x="507.0549" y="838.5742"/><rect fill="url(#g1dxb3ugbxrphk2)" height="2.0833" style="stroke:#304D6D;stroke-width:1.0417;" width="4.1667" x="504.9716" y="840.6576"/><rect fill="url(#g1dxb3ugbxrphk2)" height="2.0833" style="stroke:#304D6D;stroke-width:1.0417;" width="4.1667" x="504.9716" y="844.8242"/><text fill="#FFFFFF" font-family="'Verdana'" font-size="12.5" lengthAdjust="spacing" textLength="101.6174" x="395.0208" y="871.0103">Instagram Reels</text></g><!--entity LinkedIn--><g class="entity" data-entity="LinkedIn" data-source-line="21" data-uid="ent0014" id="entity_LinkedIn"><rect fill="url(#g1dxb3ugbxrphk2)" height="56.2174" rx="4.1667" ry="4.1667" style="stroke:#304D6D;stroke-width:1.0417;" width="104.9154" x="564.2083" y="833.3659"/><rect fill="url(#g1dxb3ugbxrphk2)" height="10.4167" style="stroke:#304D6D;stroke-width:1.0417;" width="15.625" x="648.2904" y="838.5742"/><rect fill="url(#g1dxb3ugbxrphk2)" height="2.0833" style="stroke:#304D6D;stroke-width:1.0417;" width="4.1667" x="646.207" y="840.6576"/><rect fill="url(#g1dxb3ugbxrphk2)" height="2.0833" style="stroke:#304D6D;stroke-width:1.0417;" width="4.1667" x="646.207" y="844.8242"/><text fill="#FFFFFF" font-family="'Verdana'" font-size="12.5" lengthAdjust="spacing" textLength="52.832" x="585.0417" y="871.0103">LinkedIn</text></g><!--link BLOG to VIDEO--><g class="link" data-entity-1="BLOG" data-entity-2="VIDEO" data-source-line="25" data-uid="lnk15" id="link_BLOG_VIDEO"><path d="M292.0938,200.4805 C282.0417,210.0326 272.6875,221.1992 266.6667,233.5638 C253.625,260.3138 251.8172,288.1657 253.0985,313.3011" fill="none" id="BLOG-to-VIDEO" style="stroke:#446E9B;stroke-width:3.125;"/><polygon fill="#446E9B" points="253.4167,319.543,257.1007,309.968,253.1515,314.3414,248.7781,310.3922,253.4167,319.543" style="stroke:#446E9B;stroke-width:3.125;"/><text fill="#FFFFFF" font-family="'Verdana'" font-size="12.5" lengthAdjust="spacing" textLength="96.8018" x="272.9167" y="251.4166">URL to Video AI</text></g><!--link VIDEO to EDIT--><g class="link" data-entity-1="VIDEO" data-entity-2="EDIT" data-source-line="26" data-uid="lnk16" id="link_VIDEO_EDIT"><path d="M261.8646,390.9492 C265.3229,417.0742 269.2415,446.6075 272.7102,472.7846" fill="none" id="VIDEO-to-EDIT" style="stroke:#446E9B;stroke-width:3.125;"/><polygon fill="#446E9B" points="273.5313,478.9805,276.4303,469.1394,272.8471,473.8173,268.1692,470.2341,273.5313,478.9805" style="stroke:#446E9B;stroke-width:3.125;"/><text fill="#FFFFFF" font-family="'Verdana'" font-size="12.5" lengthAdjust="spacing" textLength="73.9624" x="275" y="439.8958">Raw Output</text></g><!--link EDIT to VISTA--><g class="link" data-entity-1="EDIT" data-entity-2="VISTA" data-source-line="27" data-uid="lnk17" id="link_EDIT_VISTA"><path d="M292.75,550.3242 C300.4688,568.1367 310.3021,590.1367 319.7917,609.4701 C329.6667,629.6055 338.4852,646.2036 348.2768,663.9848" fill="none" id="EDIT-to-VISTA" style="stroke:#446E9B;stroke-width:3.125;"/><polygon fill="#446E9B" points="351.2917,669.4596,350.4193,659.2376,348.7793,664.8973,343.1196,663.2573,351.2917,669.4596" style="stroke:#446E9B;stroke-width:3.125;"/><text fill="#FFFFFF" font-family="'Verdana'" font-size="12.5" lengthAdjust="spacing" textLength="59.967" x="326.0417" y="601.2812">Final MP4</text></g><!--link BLOG to IMG--><g class="link" data-entity-1="BLOG" data-entity-2="IMG" data-source-line="29" data-uid="lnk18" id="link_BLOG_IMG"><path d="M361.7396,200.4388 C367.7292,210.8971 374.0208,222.5326 379.1667,233.5638 C392.3542,261.8451 402.4614,289.2491 410.7635,313.7283" fill="none" id="BLOG-to-IMG" style="stroke:#446E9B;stroke-width:3.125;"/><polygon fill="#446E9B" points="412.7708,319.6471,413.7057,309.4306,411.098,314.7147,405.8139,312.1071,412.7708,319.6471" style="stroke:#446E9B;stroke-width:3.125;"/><text fill="#FFFFFF" font-family="'Verdana'" font-size="12.5" lengthAdjust="spacing" textLength="71.7712" x="395.8333" y="251.4166">Key Quotes</text></g><!--link IMG to VISTA--><g class="link" data-entity-1="IMG" data-entity-2="VISTA" data-source-line="30" data-uid="lnk19" id="link_IMG_VISTA"><path d="M421.7292,391.0638 C418.2188,440.0117 410.25,532.1367 395.8333,609.4701 C392.0938,629.543 388.0653,645.6017 383.0341,663.3934" fill="none" id="IMG-to-VISTA" style="stroke:#446E9B;stroke-width:3.125;"/><polygon fill="#446E9B" points="381.3333,669.4076,387.8939,661.5201,382.7506,664.3958,379.875,659.2525,381.3333,669.4076" style="stroke:#446E9B;stroke-width:3.125;"/><text fill="#FFFFFF" font-family="'Verdana'" font-size="12.5" lengthAdjust="spacing" textLength="104.4067" x="419.7917" y="519.552">Carousel Images</text></g><!--link VISTA to YouTube Shorts--><g class="link" data-entity-1="VISTA" data-entity-2="YouTube Shorts" data-source-line="32" data-uid="lnk20" id="link_VISTA_YouTube Shorts"><path d="M308.2708,735.1784 C282.4063,748.0638 252.5625,764.1888 227.0833,781.2826 C204.0833,796.7096 184.9116,812.6899 167.0366,828.8149" fill="none" id="VISTA-to-YouTube Shorts" style="stroke:#446E9B;stroke-width:3.125;"/><polygon fill="#446E9B" points="162.3958,833.0013,172.1479,829.8155,166.2631,829.5126,166.566,823.6279,162.3958,833.0013" style="stroke:#446E9B;stroke-width:3.125;"/></g><!--link VISTA to TikTok--><g class="link" data-entity-1="VISTA" data-entity-2="TikTok" data-source-line="33" data-uid="lnk21" id="link_VISTA_TikTok"><path d="M353.0625,740.9076 C338.75,768.7721 321.7633,801.8592 308.5446,827.578" fill="none" id="VISTA-to-TikTok" style="stroke:#446E9B;stroke-width:3.125;"/><polygon fill="#446E9B" points="305.6875,833.1367,313.6789,826.7033,308.0684,828.5044,306.2672,822.8939,305.6875,833.1367" style="stroke:#446E9B;stroke-width:3.125;"/></g><!--link VISTA to Instagram Reels--><g class="link" data-entity-1="VISTA" data-entity-2="Instagram Reels" data-source-line="34" data-uid="lnk22" id="link_VISTA_Instagram Reels"><path d="M388.8333,740.9076 C403.3333,768.7721 420.5625,801.8739 433.9479,827.5926" fill="none" id="VISTA-to-Instagram Reels" style="stroke:#446E9B;stroke-width:3.125;"/><polygon fill="#446E9B" points="436.8333,833.1367,436.2012,822.897,434.4288,828.5167,428.8091,826.7442,436.8333,833.1367" style="stroke:#446E9B;stroke-width:3.125;"/></g><!--link VISTA to LinkedIn--><g class="link" data-entity-1="VISTA" data-entity-2="LinkedIn" data-source-line="35" data-uid="lnk23" id="link_VISTA_LinkedIn"><path d="M433.3854,725.5846 C468.4063,738.1576 511.7396,756.8034 545.8333,781.2826 C565.75,795.5846 580.247,811.4711 593.2783,828.1586" fill="none" id="VISTA-to-LinkedIn" style="stroke:#446E9B;stroke-width:3.125;"/><polygon fill="#446E9B" points="597.125,833.0846,594.6389,823.1312,593.9194,828.9796,588.071,828.2601,597.125,833.0846" style="stroke:#446E9B;stroke-width:3.125;"/></g><!--SRC=[RL6nRjim4Dtv5LTFoH1awPIXW68d1X6xTctLGPjcECjdYJ1D2kInRL3attiIwqH1oe73U-yUxpr-u8QE1B75YYnk5Hks1AEnTqoEOKLj2gsFnjLmZqnXZzR2MTaGpB5gZAFpaL8oVC2w7mi4HOp48_YZGCx3jVKrB7rak8GYiAai_N1ddoa5x-w34SlpHy08rxF5L3qFlCg0BkvzE28Rxs26JnHUNB_JDc25B5Q5XetPaOSfkMorqPERHTRTMlezjgOLtT9R4sNZEejk9hhCcZ6wdoY2QS2sCLNCl9w_NMTY8WUpJVzPPYCKmjfN1gtuhAk6TicUWctqkYnwON_jlTrHaAeQT8viFBdqJjzyAjEMODtumF7nbIZDeVI70Q2Tl5a7FCeNYSk0cHbte9rs6NhkGdJTmiN5fzmCNC7NrGpO_-kjq2hZdQAhHGGh_0MBn6rYrIDvM888TsiSMfWlFmwCfIrXxkW9lYJF55K738V667oAP44VfSweL2OwoRlK0-gKUm2zIpxWNhB_1G00]--></g></svg>