<svg xmlns="http://www.w3.org/2000/svg" xmlns:xlink="http://www.w3.org/1999/xlink" contentStyleType="text/css" data-diagram-type="DESCRIPTION" height="826px" preserveAspectRatio="none" style="width:282px;height:826px;background:#FFFFFF;" version="1.1" viewBox="0 0 282 826" width="282px" zoomAndPan="magnify"><title>The M&amp;A Deal Flow Funnel</title><defs/><g><g class="title" data-source-line="6"><text fill="#000000" font-family="sans-serif" font-size="14" font-weight="bold" lengthAdjust="spacing" textLength="211.5176" x="28.2412" y="22.9951">The M&amp;A Deal Flow Funnel</text></g><!--cluster TOP--><g class="cluster" data-entity="TOP" data-source-line="8" data-uid="ent0002" id="cluster_TOP"><path d="M8.5,43.2969 L205.2334,43.2969 A3.75,3.75 0 0 1 207.7334,45.7969 L214.7334,65.5938 L214.5,65.5938 A2.5,2.5 0 0 1 217,68.0938 L217,196.3869 A2.5,2.5 0 0 1 214.5,198.8869 L8.5,198.8869 A2.5,2.5 0 0 1 6,196.3869 L6,45.7969 A2.5,2.5 0 0 1 8.5,43.2969" fill="#FFC0CB" style="stroke:#000000;stroke-width:1.5;"/><line style="stroke:#000000;stroke-width:1.5;" x1="6" x2="214.7334" y1="65.5938" y2="65.5938"/><text fill="#000000" font-family="sans-serif" font-size="14" font-weight="bold" lengthAdjust="spacing" textLength="195.7334" x="10" y="58.292">Top of Funnel (Sourcing)</text></g><!--cluster MID--><g class="cluster" data-entity="MID" data-source-line="13" data-uid="ent0005" id="cluster_MID"><path d="M28.5,222.8869 L262.8789,222.8869 A3.75,3.75 0 0 1 265.3789,225.3869 L272.3789,245.1837 L272.5,245.1837 A2.5,2.5 0 0 1 275,247.6837 L275,458.2769 A2.5,2.5 0 0 1 272.5,460.7769 L28.5,460.7769 A2.5,2.5 0 0 1 26,458.2769 L26,225.3869 A2.5,2.5 0 0 1 28.5,222.8869" fill="#ADD8E6" style="stroke:#000000;stroke-width:1.5;"/><line style="stroke:#000000;stroke-width:1.5;" x1="26" x2="272.3789" y1="245.1837" y2="245.1837"/><text fill="#000000" font-family="sans-serif" font-size="14" font-weight="bold" lengthAdjust="spacing" textLength="233.3789" x="30" y="237.882">Middle of Funnel (Evaluation)</text></g><!--cluster BOT--><g class="cluster" data-entity="BOT" data-source-line="19" data-uid="ent0009" id="cluster_BOT"><path d="M19.5,484.7769 L252.6963,484.7769 A3.75,3.75 0 0 1 255.1963,487.2769 L262.1963,507.0737 L262.5,507.0737 A2.5,2.5 0 0 1 265,509.5737 L265,720.1669 A2.5,2.5 0 0 1 262.5,722.6669 L19.5,722.6669 A2.5,2.5 0 0 1 17,720.1669 L17,487.2769 A2.5,2.5 0 0 1 19.5,484.7769" fill="#90EE90" style="stroke:#000000;stroke-width:1.5;"/><line style="stroke:#000000;stroke-width:1.5;" x1="17" x2="262.1963" y1="507.0737" y2="507.0737"/><text fill="#000000" font-family="sans-serif" font-size="14" font-weight="bold" lengthAdjust="spacing" textLength="232.1963" x="21" y="499.772">Bottom of Funnel (Execution)</text></g><!--cluster POST--><g class="cluster" data-entity="POST" data-source-line="25" data-uid="ent0013" id="cluster_POST"><path d="M27.5,746.6669 L218.2178,746.6669 A3.75,3.75 0 0 1 220.7178,749.1669 L227.7178,768.9638 L227.5,768.9638 A2.5,2.5 0 0 1 230,771.4638 L230,817.4669 A2.5,2.5 0 0 1 227.5,819.9669 L27.5,819.9669 A2.5,2.5 0 0 1 25,817.4669 L25,749.1669 A2.5,2.5 0 0 1 27.5,746.6669" fill="#FFD700" style="stroke:#000000;stroke-width:1.5;"/><line style="stroke:#000000;stroke-width:1.5;" x1="25" x2="227.7178" y1="768.9638" y2="768.9638"/><text fill="#000000" font-family="sans-serif" font-size="14" font-weight="bold" lengthAdjust="spacing" textLength="189.7178" x="29" y="761.662">Post-Close (Integration)</text></g><!--entity LEADS--><g class="entity" data-entity="LEADS" data-source-line="9" data-uid="ent0003" id="entity_LEADS"><rect fill="#F1F1F1" height="22.2969" rx="2.5" ry="2.5" style="stroke:#181818;stroke-width:0.5;" width="92.3447" x="64.83" y="78.2969"/><text fill="#000000" font-family="sans-serif" font-size="14" lengthAdjust="spacing" textLength="72.3447" x="74.83" y="94.292">100 Leads</text></g><!--entity SCREEN--><g class="entity" data-entity="SCREEN" data-source-line="10" data-uid="ent0004" id="entity_SCREEN"><rect fill="#F1F1F1" height="22.2969" rx="2.5" ry="2.5" style="stroke:#181818;stroke-width:0.5;" width="172.25" x="24.88" y="160.5869"/><text fill="#000000" font-family="sans-serif" font-size="14" lengthAdjust="spacing" textLength="152.25" x="34.88" y="176.582">Automated Screening</text></g><!--entity MATCH--><g class="entity" data-entity="MATCH" data-source-line="14" data-uid="ent0006" id="entity_MATCH"><rect fill="#F1F1F1" height="22.2969" rx="2.5" ry="2.5" style="stroke:#181818;stroke-width:0.5;" width="100.8896" x="60.56" y="257.8869"/><text fill="#000000" font-family="sans-serif" font-size="14" lengthAdjust="spacing" textLength="80.8896" x="70.56" y="273.882">20 Matches</text></g><!--entity MEET--><g class="entity" data-entity="MEET" data-source-line="15" data-uid="ent0007" id="entity_MEET"><rect fill="#F1F1F1" height="22.2969" rx="2.5" ry="2.5" style="stroke:#181818;stroke-width:0.5;" width="119.6338" x="51.18" y="340.1869"/><text fill="#000000" font-family="sans-serif" font-size="14" lengthAdjust="spacing" textLength="99.6338" x="61.18" y="356.182">Initial Meeting</text></g><!--entity LOI--><g class="entity" data-entity="LOI" data-source-line="16" data-uid="ent0008" id="entity_LOI"><rect fill="#F1F1F1" height="22.2969" rx="2.5" ry="2.5" style="stroke:#181818;stroke-width:0.5;" width="99.9121" x="61.04" y="422.4869"/><text fill="#000000" font-family="sans-serif" font-size="14" lengthAdjust="spacing" textLength="79.9121" x="71.04" y="438.482">5 LOIs Sent</text></g><!--entity ACCEPT--><g class="entity" data-entity="ACCEPT" data-source-line="20" data-uid="ent0010" id="entity_ACCEPT"><rect fill="#F1F1F1" height="22.2969" rx="2.5" ry="2.5" style="stroke:#181818;stroke-width:0.5;" width="133.5107" x="44.24" y="519.7769"/><text fill="#000000" font-family="sans-serif" font-size="14" lengthAdjust="spacing" textLength="113.5107" x="54.24" y="535.772">2 LOIs Accepted</text></g><!--entity DD--><g class="entity" data-entity="DD" data-source-line="21" data-uid="ent0011" id="entity_DD"><rect fill="#F1F1F1" height="22.2969" rx="2.5" ry="2.5" style="stroke:#181818;stroke-width:0.5;" width="117.8496" x="52.08" y="602.0769"/><text fill="#000000" font-family="sans-serif" font-size="14" lengthAdjust="spacing" textLength="97.8496" x="62.08" y="618.072">Due Diligence</text></g><!--entity CLOSE--><g class="entity" data-entity="CLOSE" data-source-line="22" data-uid="ent0012" id="entity_CLOSE"><rect fill="#F1F1F1" height="22.2969" rx="2.5" ry="2.5" style="stroke:#181818;stroke-width:0.5;" width="116.6943" x="52.65" y="684.3769"/><text fill="#000000" font-family="sans-serif" font-size="14" lengthAdjust="spacing" textLength="96.6943" x="62.65" y="700.372">1 Deal Closed</text></g><!--entity PLAN--><g class="entity" data-entity="PLAN" data-source-line="26" data-uid="ent0014" id="entity_PLAN"><rect fill="#F1F1F1" height="22.2969" rx="2.5" ry="2.5" style="stroke:#181818;stroke-width:0.5;" width="104.7451" x="58.63" y="781.6669"/><text fill="#000000" font-family="sans-serif" font-size="14" lengthAdjust="spacing" textLength="84.7451" x="68.63" y="797.662">90-Day Plan</text></g><!--link LEADS to SCREEN--><g class="link" data-entity-1="LEADS" data-entity-2="SCREEN" data-source-line="30" data-uid="lnk15" id="link_LEADS_SCREEN"><path d="M111,100.8869 C111,116.5169 111,138.4069 111,154.1269" fill="none" id="LEADS-to-SCREEN" style="stroke:#181818;stroke-width:1;"/><polygon fill="#181818" points="111,160.1269,115,151.1269,111,155.1269,107,151.1269,111,160.1269" style="stroke:#181818;stroke-width:1;"/><text fill="#000000" font-family="sans-serif" font-size="13" lengthAdjust="spacing" textLength="92.1743" x="18" y="126.5738">Criteria Check</text></g><!--link SCREEN to MATCH--><g class="link" data-entity-1="SCREEN" data-entity-2="MATCH" data-source-line="31" data-uid="lnk16" id="link_SCREEN_MATCH"><path d="M111,183.2869 C111,202.0069 111,232.7969 111,251.5069" fill="none" id="SCREEN-to-MATCH" style="stroke:#181818;stroke-width:1;"/><polygon fill="#181818" points="111,257.5069,115,248.5069,111,252.5069,107,248.5069,111,257.5069" style="stroke:#181818;stroke-width:1;"/><text fill="#000000" font-family="sans-serif" font-size="13" lengthAdjust="spacing" textLength="66.625" x="44" y="216.4638">Pass Filter</text></g><!--link MATCH to MEET--><g class="link" data-entity-1="MATCH" data-entity-2="MEET" data-source-line="32" data-uid="lnk17" id="link_MATCH_MEET"><path d="M111,280.4769 C111,296.1169 111,317.9969 111,333.7269" fill="none" id="MATCH-to-MEET" style="stroke:#181818;stroke-width:1;"/><polygon fill="#181818" points="111,339.7269,115,330.7269,111,334.7269,107,330.7269,111,339.7269" style="stroke:#181818;stroke-width:1;"/><text fill="#000000" font-family="sans-serif" font-size="13" lengthAdjust="spacing" textLength="62.7656" x="48" y="306.1638">Owner Fit</text></g><!--link MEET to LOI--><g class="link" data-entity-1="MEET" data-entity-2="LOI" data-source-line="33" data-uid="lnk18" id="link_MEET_LOI"><path d="M111,362.7769 C111,378.4069 111,400.2969 111,416.0169" fill="none" id="MEET-to-LOI" style="stroke:#181818;stroke-width:1;"/><polygon fill="#181818" points="111,422.0169,115,413.0169,111,417.0169,107,413.0169,111,422.0169" style="stroke:#181818;stroke-width:1;"/><text fill="#000000" font-family="sans-serif" font-size="13" lengthAdjust="spacing" textLength="78.1904" x="32" y="388.4638">Financial Fit</text></g><!--link LOI to ACCEPT--><g class="link" data-entity-1="LOI" data-entity-2="ACCEPT" data-source-line="34" data-uid="lnk19" id="link_LOI_ACCEPT"><path d="M111,445.1769 C111,463.8969 111,494.6869 111,513.3969" fill="none" id="LOI-to-ACCEPT" style="stroke:#181818;stroke-width:1;"/><polygon fill="#181818" points="111,519.3969,115,510.3969,111,514.3969,107,510.3969,111,519.3969" style="stroke:#181818;stroke-width:1;"/><text fill="#000000" font-family="sans-serif" font-size="13" lengthAdjust="spacing" textLength="75.5054" x="35" y="478.3538">Negotiation</text></g><!--link ACCEPT to DD--><g class="link" data-entity-1="ACCEPT" data-entity-2="DD" data-source-line="35" data-uid="lnk20" id="link_ACCEPT_DD"><path d="M111,542.3669 C111,558.0069 111,579.8869 111,595.6169" fill="none" id="ACCEPT-to-DD" style="stroke:#181818;stroke-width:1;"/><polygon fill="#181818" points="111,601.6169,115,592.6169,111,596.6169,107,592.6169,111,601.6169" style="stroke:#181818;stroke-width:1;"/><text fill="#000000" font-family="sans-serif" font-size="13" lengthAdjust="spacing" textLength="74.0518" x="36" y="568.0638">Verification</text></g><!--link DD to CLOSE--><g class="link" data-entity-1="DD" data-entity-2="CLOSE" data-source-line="36" data-uid="lnk21" id="link_DD_CLOSE"><path d="M111,624.6669 C111,640.3069 111,662.1869 111,677.9069" fill="none" id="DD-to-CLOSE" style="stroke:#181818;stroke-width:1;"/><polygon fill="#181818" points="111,683.9069,115,674.9069,111,678.9069,107,674.9069,111,683.9069" style="stroke:#181818;stroke-width:1;"/><text fill="#000000" font-family="sans-serif" font-size="13" lengthAdjust="spacing" textLength="52.311" x="58" y="650.3538">Funding</text></g><!--link CLOSE to PLAN--><g class="link" data-entity-1="CLOSE" data-entity-2="PLAN" data-source-line="37" data-uid="lnk22" id="link_CLOSE_PLAN"><path d="M111,707.0669 C111,725.7869 111,756.5769 111,775.2869" fill="none" id="CLOSE-to-PLAN" style="stroke:#181818;stroke-width:1;"/><polygon fill="#181818" points="111,781.2869,115,772.2869,111,776.2869,107,772.2869,111,781.2869" style="stroke:#181818;stroke-width:1;"/><text fill="#000000" font-family="sans-serif" font-size="13" lengthAdjust="spacing" textLength="71.4683" x="39" y="740.2438">Operations</text></g><!--SRC=[LP91Zvim48Nl_XMZhDJk7YBHggtK7YeH8Dj8iA22zcwPMMB5iP4ntKPL_tl7Dcs16-yz3T-yORf8FNBBhw2aHdSR4OnrPyEcVuOsFKuumeTa9LgkBrxyj1Q5kOv6etQjkoa4Yy9nFIXap4b7GdT6gDwaa2DNS5Jc5OwprgWO6xcuy05XrvaHpCkYmtrhPYka7Xvsm2VewWRk6galy8i1FOBR7dRlaWHAvFqKCcMHvktAJMTdhjnX3wsmY9g6XLoRVI-A9_PxzUrAzZrHhZvV_E1gvauQ7G6gKmvtfHpExg1ct52yJw3YJfmnObHfbtrRsISjdQIjAqJt5w4gYcuL-GXbVI8mwYzkKfysU0VZQ9KDtayKyt-wGzqjT8z-qorU79uAWIEL4V9fbXNDcY2ddNAfv81QO8Za-RheUBXCcMcPa9LrMsmW6pEvVKZ0_Kax7EoglgPkYV3Hg7x3zZdPv_m6ZU8wnieq7EPj-4TOk2Zizr-Ncy4NoAnqQ2M7x8pYmXRTHqBlb6ZuDC5HAegng0MN6YUpVjLeoNKi2DwXTiWuIisry7VofjUy5tiY-ma7GrVq2x55z7wUa_TCF2zIH9CKRuHw_DXPztHq5j-zurVq82F6VgO_]--></g></svg>