<svg xmlns="http://www.w3.org/2000/svg" xmlns:xlink="http://www.w3.org/1999/xlink" contentStyleType="text/css" data-diagram-type="SEQUENCE" height="898.9583px" preserveAspectRatio="none" style="width:1530px;height:898px;" version="1.1" viewBox="0 0 1530 898" width="1530.2083px" zoomAndPan="magnify"><title>Directory Data Factory Pipeline</title><defs><linearGradient id="giicpn07natkj0" x1="50%" x2="50%" y1="0%" y2="100%"><stop offset="0%" stop-color="#B8B8B8"/><stop offset="100%" stop-color="#999999"/></linearGradient><linearGradient id="giicpn07natkj1" x1="50%" x2="50%" y1="0%" y2="100%"><stop offset="0%" stop-color="#7C9AB9"/><stop offset="100%" stop-color="#304D6D"/></linearGradient><linearGradient id="giicpn07natkj2" x1="50%" x2="50%" y1="0%" y2="100%"><stop offset="0%" stop-color="#707070"/><stop offset="100%" stop-color="#242424"/></linearGradient><linearGradient id="giicpn07natkj3" x1="50%" x2="50%" y1="0%" y2="100%"><stop offset="0%" stop-color="#70B8F7"/><stop offset="100%" stop-color="#246BAA"/></linearGradient></defs><g><rect fill="url(#giicpn07natkj0)" height="47.168" rx="4.1667" ry="4.1667" style="stroke:#6B6B6B;stroke-width:1.0417;" width="392.8202" x="567.2928" y="20.8333"/><text fill="#304D6D" font-family="'Verdana'" font-size="20.8333" font-weight="bold" lengthAdjust="spacing" textLength="369.9036" x="578.7511" y="51.6296">Directory Data Factory Pipeline</text><rect fill="#FFFFE0" height="807.7148" rx="4.1667" ry="4.1667" style="stroke:#333333;stroke-width:1.0417;" width="660.9934" x="53.125" y="80.5013"/><text fill="#333333" font-family="'Verdana'" font-size="12.5" font-weight="bold" lengthAdjust="spacing" textLength="99.7681" x="333.7377" y="97.3124">Data Sourcing</text><rect fill="#90EE90" height="807.7148" rx="4.1667" ry="4.1667" style="stroke:#333333;stroke-width:1.0417;" width="457.1289" x="799.5351" y="80.5013"/><text fill="#333333" font-family="'Verdana'" font-size="12.5" font-weight="bold" lengthAdjust="spacing" textLength="61.0718" x="997.5637" y="97.3124">Platform</text><g><title>Hexomatic</title><rect fill="#000000" fill-opacity="0.00000" height="665.1693" width="8.3333" x="140.9007" y="164.7786"/><line style="stroke:#999999;stroke-width:1.0417;stroke-dasharray:5.2083,5.2083;" x1="144.7917" x2="144.7917" y1="164.7786" y2="829.9479"/></g><g><title>Google Maps</title><rect fill="#000000" fill-opacity="0.00000" height="665.1693" width="8.3333" x="396.9004" y="164.7786"/><line style="stroke:#999999;stroke-width:1.0417;stroke-dasharray:5.2083,5.2083;" x1="400.178" x2="400.178" y1="164.7786" y2="829.9479"/></g><g><title>Target Website</title><rect fill="#000000" fill-opacity="0.00000" height="665.1693" width="8.3333" x="603.8706" y="164.7786"/><line style="stroke:#999999;stroke-width:1.0417;stroke-dasharray:5.2083,5.2083;" x1="607.1645" x2="607.1645" y1="164.7786" y2="829.9479"/></g><g><title>Brilliant Directories</title><rect fill="#000000" fill-opacity="0.00000" height="665.1693" width="8.3333" x="913.8153" y="164.7786"/><line style="stroke:#999999;stroke-width:1.0417;stroke-dasharray:5.2083,5.2083;" x1="917.2434" x2="917.2434" y1="164.7786" y2="829.9479"/></g><g><title>Autobound</title><rect fill="#000000" fill-opacity="0.00000" height="665.1693" width="8.3333" x="1159.9721" y="164.7786"/><line style="stroke:#999999;stroke-width:1.0417;stroke-dasharray:5.2083,5.2083;" x1="1163.2802" x2="1163.2802" y1="164.7786" y2="829.9479"/></g><g><title>Business Owner</title><rect fill="#000000" fill-opacity="0.00000" height="665.1693" width="8.3333" x="1404.5349" y="164.7786"/><line style="stroke:#999999;stroke-width:1.0417;stroke-dasharray:5.2083,5.2083;" x1="1407.7057" x2="1407.7057" y1="164.7786" y2="829.9479"/></g><g class="participant participant-head" data-participant="HEX"><rect fill="url(#giicpn07natkj1)" height="54.1016" rx="4.1667" ry="4.1667" style="stroke:#304D6D;stroke-width:1.0417;" width="92.218" x="98.9583" y="109.6354"/><text fill="#FFFFFF" font-family="'Verdana'" font-size="12.5" lengthAdjust="spacing" textLength="67.218" x="111.4583" y="133.7382">Hexomatic</text><text fill="#FFFFFF" font-family="'Verdana'" font-size="12.5" lengthAdjust="spacing" textLength="58.1238" x="116.0055" y="148.289">(Scraper)</text></g><g class="participant participant-tail" data-participant="HEX"><rect fill="url(#giicpn07natkj1)" height="54.1016" rx="4.1667" ry="4.1667" style="stroke:#304D6D;stroke-width:1.0417;" width="92.218" x="98.9583" y="828.9063"/><text fill="#FFFFFF" font-family="'Verdana'" font-size="12.5" lengthAdjust="spacing" textLength="67.218" x="111.4583" y="853.009">Hexomatic</text><text fill="#FFFFFF" font-family="'Verdana'" font-size="12.5" lengthAdjust="spacing" textLength="58.1238" x="116.0055" y="867.5598">(Scraper)</text></g><g class="participant participant-head" data-participant="MAPS"><rect fill="url(#giicpn07natkj1)" height="39.5508" rx="4.1667" ry="4.1667" style="stroke:#304D6D;stroke-width:1.0417;" width="105.9448" x="348.0947" y="124.1862"/><text fill="#FFFFFF" font-family="'Verdana'" font-size="12.5" lengthAdjust="spacing" textLength="80.9448" x="360.5947" y="148.289">Google Maps</text></g><g class="participant participant-tail" data-participant="MAPS"><rect fill="url(#giicpn07natkj1)" height="39.5508" rx="4.1667" ry="4.1667" style="stroke:#304D6D;stroke-width:1.0417;" width="105.9448" x="348.0947" y="828.9063"/><text fill="#FFFFFF" font-family="'Verdana'" font-size="12.5" lengthAdjust="spacing" textLength="80.9448" x="360.5947" y="853.009">Google Maps</text></g><g class="participant participant-head" data-participant="WEB"><rect fill="url(#giicpn07natkj1)" height="39.5508" rx="4.1667" ry="4.1667" style="stroke:#304D6D;stroke-width:1.0417;" width="120.4956" x="547.7895" y="124.1862"/><text fill="#FFFFFF" font-family="'Verdana'" font-size="12.5" lengthAdjust="spacing" textLength="95.4956" x="560.2895" y="148.289">Target Website</text></g><g class="participant participant-tail" data-participant="WEB"><rect fill="url(#giicpn07natkj1)" height="39.5508" rx="4.1667" ry="4.1667" style="stroke:#304D6D;stroke-width:1.0417;" width="120.4956" x="547.7895" y="828.9063"/><text fill="#FFFFFF" font-family="'Verdana'" font-size="12.5" lengthAdjust="spacing" textLength="95.4956" x="560.2895" y="853.009">Target Website</text></g><g class="participant participant-head" data-participant="BD"><rect fill="url(#giicpn07natkj1)" height="39.5508" rx="4.1667" ry="4.1667" style="stroke:#304D6D;stroke-width:1.0417;" width="145.2271" x="845.3684" y="124.1862"/><text fill="#FFFFFF" font-family="'Verdana'" font-size="12.5" lengthAdjust="spacing" textLength="120.2271" x="857.8684" y="148.289">Brilliant Directories</text></g><g class="participant participant-tail" data-participant="BD"><rect fill="url(#giicpn07natkj1)" height="39.5508" rx="4.1667" ry="4.1667" style="stroke:#304D6D;stroke-width:1.0417;" width="145.2271" x="845.3684" y="828.9063"/><text fill="#FFFFFF" font-family="'Verdana'" font-size="12.5" lengthAdjust="spacing" textLength="120.2271" x="857.8684" y="853.009">Brilliant Directories</text></g><g class="participant participant-head" data-participant="MAIL"><rect fill="url(#giicpn07natkj1)" height="54.1016" rx="4.1667" ry="4.1667" style="stroke:#304D6D;stroke-width:1.0417;" width="93.3838" x="1117.4469" y="109.6354"/><text fill="#FFFFFF" font-family="'Verdana'" font-size="12.5" lengthAdjust="spacing" textLength="68.3838" x="1129.9469" y="133.7382">Autobound</text><text fill="#FFFFFF" font-family="'Verdana'" font-size="12.5" lengthAdjust="spacing" textLength="67.7002" x="1130.2887" y="148.289">(Outreach)</text></g><g class="participant participant-tail" data-participant="MAIL"><rect fill="url(#giicpn07natkj1)" height="54.1016" rx="4.1667" ry="4.1667" style="stroke:#304D6D;stroke-width:1.0417;" width="93.3838" x="1117.4469" y="828.9063"/><text fill="#FFFFFF" font-family="'Verdana'" font-size="12.5" lengthAdjust="spacing" textLength="68.3838" x="1129.9469" y="853.009">Autobound</text><text fill="#FFFFFF" font-family="'Verdana'" font-size="12.5" lengthAdjust="spacing" textLength="67.7002" x="1130.2887" y="867.5598">(Outreach)</text></g><g class="participant participant-head" data-participant="Business Owner"><rect fill="url(#giicpn07natkj1)" height="39.5508" rx="4.1667" ry="4.1667" style="stroke:#304D6D;stroke-width:1.0417;" width="124.9084" x="1346.2474" y="124.1862"/><text fill="#FFFFFF" font-family="'Verdana'" font-size="12.5" lengthAdjust="spacing" textLength="99.9084" x="1358.7474" y="148.289">Business Owner</text></g><g class="participant participant-tail" data-participant="Business Owner"><rect fill="url(#giicpn07natkj1)" height="39.5508" rx="4.1667" ry="4.1667" style="stroke:#304D6D;stroke-width:1.0417;" width="124.9084" x="1346.2474" y="828.9063"/><text fill="#FFFFFF" font-family="'Verdana'" font-size="12.5" lengthAdjust="spacing" textLength="99.9084" x="1358.7474" y="853.009">Business Owner</text></g><rect fill="url(#giicpn07natkj2)" height="3.125" rx="4.1667" ry="4.1667" style="stroke:url(#giicpn07natkj2);stroke-width:1.0417;" width="1507.6141" x="10.4167" y="201.2207"/><line style="stroke:#333333;stroke-width:1.0417;" x1="10.4167" x2="1518.0308" y1="201.2207" y2="201.2207"/><line style="stroke:#333333;stroke-width:1.0417;" x1="10.4167" x2="1518.0308" y1="204.3457" y2="204.3457"/><rect fill="url(#giicpn07natkj2)" height="33.3008" rx="4.1667" ry="4.1667" style="stroke:#333333;stroke-width:2.0833;" width="162.8418" x="682.8028" y="185.612"/><text fill="#EEEEEE" font-family="'Verdana'" font-size="12.5" font-weight="bold" lengthAdjust="spacing" textLength="133.49" x="694.2612" y="206.5898">Step 1: Acquisition</text><g class="message" data-participant-1="HEX" data-participant-2="MAPS"><polygon fill="#446E9B" points="388.5671,256.3802,398.9838,260.5469,388.5671,264.7135,392.7338,260.5469" style="stroke:#446E9B;stroke-width:1.0417;"/><line style="stroke:#446E9B;stroke-width:3.125;" x1="145.0673" x2="394.8171" y1="260.5469" y2="260.5469"/><text fill="#FFFFFF" font-family="'Verdana'" font-size="12.5" font-weight="bold" lengthAdjust="spacing" textLength="8.6975" x="157.5673" y="250.3072">1</text><text fill="#FFFFFF" font-family="'Verdana'" font-size="12.5" lengthAdjust="spacing" textLength="174.823" x="180.8482" y="250.3072">Search "Plumbers in Dallas"</text></g><g class="message" data-participant-1="MAPS" data-participant-2="HEX"><polygon fill="#446E9B" points="156.5257,295.931,146.109,300.0977,156.5257,304.2643,152.359,300.0977" style="stroke:#446E9B;stroke-width:1.0417;"/><line style="stroke:#446E9B;stroke-width:3.125;" x1="150.2757" x2="400.0254" y1="300.0977" y2="300.0977"/><text fill="#FFFFFF" font-family="'Verdana'" font-size="12.5" font-weight="bold" lengthAdjust="spacing" textLength="8.6975" x="167.984" y="289.858">2</text><text fill="#FFFFFF" font-family="'Verdana'" font-size="12.5" lengthAdjust="spacing" textLength="197.3022" x="191.2649" y="289.858">Return List (Name, Phone, Site)</text></g><g class="message" data-participant-1="HEX" data-participant-2="WEB"><polygon fill="#446E9B" points="595.5373,335.4818,605.954,339.6484,595.5373,343.8151,599.704,339.6484" style="stroke:#446E9B;stroke-width:1.0417;"/><line style="stroke:#446E9B;stroke-width:3.125;" x1="145.0673" x2="601.7873" y1="339.6484" y2="339.6484"/><text fill="#FFFFFF" font-family="'Verdana'" font-size="12.5" font-weight="bold" lengthAdjust="spacing" textLength="8.6975" x="157.5673" y="329.4088">3</text><text fill="#FFFFFF" font-family="'Verdana'" font-size="12.5" lengthAdjust="spacing" textLength="110.2173" x="180.8482" y="329.4088">Visit Website URL</text></g><g class="message" data-participant-1="WEB" data-participant-2="HEX"><polygon fill="#446E9B" points="156.5257,375.0326,146.109,379.1992,156.5257,383.3659,152.359,379.1992" style="stroke:#446E9B;stroke-width:1.0417;"/><line style="stroke:#446E9B;stroke-width:3.125;" x1="150.2757" x2="606.9956" y1="379.1992" y2="379.1992"/><text fill="#FFFFFF" font-family="'Verdana'" font-size="12.5" font-weight="bold" lengthAdjust="spacing" textLength="8.6975" x="167.984" y="368.9596">4</text><text fill="#FFFFFF" font-family="'Verdana'" font-size="12.5" lengthAdjust="spacing" textLength="174.2615" x="191.2649" y="368.9596">Extract Email &amp; Social Links</text></g><rect fill="url(#giicpn07natkj2)" height="3.125" rx="4.1667" ry="4.1667" style="stroke:url(#giicpn07natkj2);stroke-width:1.0417;" width="1507.6141" x="10.4167" y="413.5579"/><line style="stroke:#333333;stroke-width:1.0417;" x1="10.4167" x2="1518.0308" y1="413.5579" y2="413.5579"/><line style="stroke:#333333;stroke-width:1.0417;" x1="10.4167" x2="1518.0308" y1="416.6829" y2="416.6829"/><rect fill="url(#giicpn07natkj2)" height="33.3008" rx="4.1667" ry="4.1667" style="stroke:#333333;stroke-width:2.0833;" width="150.3174" x="689.065" y="397.9492"/><text fill="#EEEEEE" font-family="'Verdana'" font-size="12.5" font-weight="bold" lengthAdjust="spacing" textLength="120.9656" x="700.5234" y="418.927">Step 2: Ingestion</text><g class="message" data-participant-1="HEX" data-participant-2="HEX"><line style="stroke:#446E9B;stroke-width:3.125;" x1="145.0673" x2="188.8173" y1="472.8841" y2="472.8841"/><line style="stroke:#446E9B;stroke-width:3.125;" x1="188.8173" x2="188.8173" y1="472.8841" y2="486.4258"/><line style="stroke:#446E9B;stroke-width:3.125;" x1="146.109" x2="188.8173" y1="486.4258" y2="486.4258"/><polygon fill="#446E9B" points="156.5257,482.2591,146.109,486.4258,156.5257,490.5924,152.359,486.4258" style="stroke:#446E9B;stroke-width:1.0417;"/><text fill="#FFFFFF" font-family="'Verdana'" font-size="12.5" font-weight="bold" lengthAdjust="spacing" textLength="8.6975" x="157.5673" y="462.6444">5</text><text fill="#FFFFFF" font-family="'Verdana'" font-size="12.5" lengthAdjust="spacing" textLength="86.6272" x="180.8482" y="462.6444">Export to CSV</text></g><g class="message" data-participant-1="HEX" data-participant-2="BD"><polygon fill="#446E9B" points="905.482,524.9349,915.8986,529.1016,905.482,533.2682,909.6486,529.1016" style="stroke:#446E9B;stroke-width:1.0417;"/><line style="stroke:#446E9B;stroke-width:3.125;" x1="145.0673" x2="911.732" y1="529.1016" y2="529.1016"/><text fill="#FFFFFF" font-family="'Verdana'" font-size="12.5" font-weight="bold" lengthAdjust="spacing" textLength="8.6975" x="157.5673" y="518.8619">6</text><text fill="#FFFFFF" font-family="'Verdana'" font-size="12.5" lengthAdjust="spacing" textLength="101.8555" x="180.8482" y="518.8619">Bulk Import CSV</text></g><path d="M922.9167,504.1341 L922.9167,530.1758 A4.1667,4.1667 0 0 0 927.0833,534.3424 L1140.625,534.3424 A4.1667,4.1667 0 0 0 1144.7917,530.1758 L1144.7917,510.3841 L1134.375,499.9674 L927.0833,499.9674 A4.1667,4.1667 0 0 0 922.9167,504.1341" fill="url(#giicpn07natkj3)" style="stroke:#246BAA;stroke-width:1.0417;"/><path d="M1134.375,499.9674 L1134.375,508.3008 A2.0833,2.0833 0 0 0 1136.4583,510.3841 L1144.7917,510.3841 L1134.375,499.9674" fill="url(#giicpn07natkj3)" style="stroke:#246BAA;stroke-width:1.0417;"/><text fill="#FFFFFF" font-family="'Verdana'" font-size="12.5" lengthAdjust="spacing" textLength="190.2344" x="934.375" y="521.9869">Set Status: "Free / Unclaimed"</text><rect fill="url(#giicpn07natkj2)" height="3.125" rx="4.1667" ry="4.1667" style="stroke:url(#giicpn07natkj2);stroke-width:1.0417;" width="1507.6141" x="10.4167" y="566.5853"/><line style="stroke:#333333;stroke-width:1.0417;" x1="10.4167" x2="1518.0308" y1="566.5853" y2="566.5853"/><line style="stroke:#333333;stroke-width:1.0417;" x1="10.4167" x2="1518.0308" y1="569.7103" y2="569.7103"/><rect fill="url(#giicpn07natkj2)" height="33.3008" rx="4.1667" ry="4.1667" style="stroke:#333333;stroke-width:2.0833;" width="155.8289" x="686.3093" y="550.9766"/><text fill="#EEEEEE" font-family="'Verdana'" font-size="12.5" font-weight="bold" lengthAdjust="spacing" textLength="126.4771" x="697.7676" y="571.9543">Step 3: Activation</text><g class="message" data-participant-1="HEX" data-participant-2="MAIL"><polygon fill="#446E9B" points="1151.6388,621.7448,1162.0555,625.9115,1151.6388,630.0781,1155.8055,625.9115" style="stroke:#446E9B;stroke-width:1.0417;"/><line style="stroke:#446E9B;stroke-width:3.125;" x1="145.0673" x2="1157.8888" y1="625.9115" y2="625.9115"/><text fill="#FFFFFF" font-family="'Verdana'" font-size="12.5" font-weight="bold" lengthAdjust="spacing" textLength="8.6975" x="157.5673" y="615.6718">7</text><text fill="#FFFFFF" font-family="'Verdana'" font-size="12.5" lengthAdjust="spacing" textLength="72.9858" x="180.8482" y="615.6718">Upload CSV</text></g><g class="message" data-participant-1="MAIL" data-participant-2="MAIL"><line style="stroke:#446E9B;stroke-width:3.125;" x1="1164.1388" x2="1207.8888" y1="665.4622" y2="665.4622"/><line style="stroke:#446E9B;stroke-width:3.125;" x1="1207.8888" x2="1207.8888" y1="665.4622" y2="679.0039"/><line style="stroke:#446E9B;stroke-width:3.125;" x1="1165.1805" x2="1207.8888" y1="679.0039" y2="679.0039"/><polygon fill="#446E9B" points="1175.5971,674.8372,1165.1805,679.0039,1175.5971,683.1706,1171.4305,679.0039" style="stroke:#446E9B;stroke-width:1.0417;"/><text fill="#FFFFFF" font-family="'Verdana'" font-size="12.5" font-weight="bold" lengthAdjust="spacing" textLength="8.6975" x="1176.6388" y="655.2226">8</text><text fill="#FFFFFF" font-family="'Verdana'" font-size="12.5" lengthAdjust="spacing" textLength="193.1702" x="1199.9196" y="655.2226">Generate "Claim Listing" Email</text></g><g class="message" data-participant-1="MAIL" data-participant-2="Business Owner"><polygon fill="#446E9B" points="1396.2016,714.388,1406.6182,718.5547,1396.2016,722.7214,1400.3682,718.5547" style="stroke:#446E9B;stroke-width:1.0417;"/><line style="stroke:#446E9B;stroke-width:3.125;" x1="1164.1388" x2="1402.4516" y1="718.5547" y2="718.5547"/><text fill="#FFFFFF" font-family="'Verdana'" font-size="12.5" font-weight="bold" lengthAdjust="spacing" textLength="8.6975" x="1176.6388" y="708.315">9</text><text fill="#FFFFFF" font-family="'Verdana'" font-size="12.5" lengthAdjust="spacing" textLength="70.5261" x="1199.9196" y="708.315">Send Invite</text></g><g class="message" data-participant-1="Business Owner" data-participant-2="BD"><polygon fill="#446E9B" points="929.4403,753.9388,919.0236,758.1055,929.4403,762.2721,925.2736,758.1055" style="stroke:#446E9B;stroke-width:1.0417;"/><line style="stroke:#446E9B;stroke-width:3.125;" x1="923.1903" x2="1407.6599" y1="758.1055" y2="758.1055"/><text fill="#FFFFFF" font-family="'Verdana'" font-size="12.5" font-weight="bold" lengthAdjust="spacing" textLength="17.395" x="940.8986" y="747.8658">10</text><text fill="#FFFFFF" font-family="'Verdana'" font-size="12.5" lengthAdjust="spacing" textLength="125.9216" x="972.877" y="747.8658">Click "Claim Listing"</text></g><g class="message" data-participant-1="BD" data-participant-2="BD"><line style="stroke:#446E9B;stroke-width:3.125;" x1="917.982" x2="961.732" y1="797.6563" y2="797.6563"/><line style="stroke:#446E9B;stroke-width:3.125;" x1="961.732" x2="961.732" y1="797.6563" y2="811.1979"/><line style="stroke:#446E9B;stroke-width:3.125;" x1="919.0236" x2="961.732" y1="811.1979" y2="811.1979"/><polygon fill="#446E9B" points="929.4403,807.0313,919.0236,811.1979,929.4403,815.3646,925.2736,811.1979" style="stroke:#446E9B;stroke-width:1.0417;"/><text fill="#FFFFFF" font-family="'Verdana'" font-size="12.5" font-weight="bold" lengthAdjust="spacing" textLength="17.395" x="930.482" y="787.4166">11</text><text fill="#FFFFFF" font-family="'Verdana'" font-size="12.5" lengthAdjust="spacing" textLength="189.1785" x="962.4603" y="787.4166">Upgrade to "Verified Member"</text></g><!--SRC=[PLBHRjim37ptLt0QC3J0Xc7RMu0CY9Cq3P2iGRsa6x0NncOT8hBaINAR_VqejMw0sY-onDFnUATtuKWDWM-n98s7B73G16hEZifWtJ-OOq2unkVDbblIR4Xbs0LhkkP0BiiEzYmt8gwmdIlPr0hUhxa-Xj-ajNtAGBuMNU2IMpG1r0sTROEo_sEkYj9XIswa03tSB7uDqKjhQn6rmTOdq6QwBOQed-Xg2d1F1y-14l1-aMTaAX21Bogt6iE3TKqlSEc8p90hTwmrnz_U2ARdtlbyY9wA5mVRcKgckUs28ooFenUbg_L5mMG2HQ0MlenXMlxjM7IoDJ2PP38sVFgU1eCn58IkF4QnoM0FR2G6hT6hB4446c-CuOv2vmoisGUu-e4DVOJjqHfP2l5WrFEA3mBUnuQzFx2xMsVn_9LhSGvEOeP5WwpXWsHPCchXDYT_qVvr32jJat-ZlATehGiGBCoAVL_AvrB9Ets2LPFAiMQiI70nWJXk46uCdH-3kfP0u3FiJAcH6whKfVMtQ5lWHnoujbfBYrshBLQ9FPrSAaiov50QgbaaJNQbHvf6VKMhlFFojhs7soUve58IajtAF8fXsQ3SppRJN9xUScTIwW6xjdPOKVH5xSdn0rC56uhPgly0]--></g></svg>