<svg xmlns="http://www.w3.org/2000/svg" xmlns:xlink="http://www.w3.org/1999/xlink" contentStyleType="text/css" data-diagram-type="ACTIVITY" height="792.7083px" preserveAspectRatio="none" style="width:1360px;height:792px;" version="1.1" viewBox="0 0 1360 792" width="1360.4167px" zoomAndPan="magnify"><title>Emergency Succession Response Protocol</title><defs><linearGradient id="g1e0i2g4x4bvje0" x1="50%" x2="50%" y1="0%" y2="100%"><stop offset="0%" stop-color="#B8B8B8"/><stop offset="100%" stop-color="#999999"/></linearGradient><linearGradient id="g1e0i2g4x4bvje1" x1="50%" x2="50%" y1="0%" y2="100%"><stop offset="0%" stop-color="#7C9AB9"/><stop offset="100%" stop-color="#304D6D"/></linearGradient><linearGradient id="g1e0i2g4x4bvje2" x1="50%" x2="50%" y1="0%" y2="100%"><stop offset="0%" stop-color="#B8B8B8"/><stop offset="100%" stop-color="#6B6B6B"/></linearGradient></defs><g><g class="title" data-source-line="2"><rect fill="url(#g1e0i2g4x4bvje0)" height="47.168" rx="4.1667" ry="4.1667" style="stroke:#6B6B6B;stroke-width:1.0417;" width="515.6637" x="421.197" y="20.8333"/><text fill="#304D6D" font-family="'Verdana'" font-size="20.8333" font-weight="bold" lengthAdjust="spacing" textLength="492.747" x="432.6553" y="51.6296">Emergency Succession Response Protocol</text></g><rect fill="url(#g1e0i2g4x4bvje0)" height="24.9674" style="stroke:url(#g1e0i2g4x4bvje0);stroke-width:1.0417;" width="1326.8077" x="15.625" y="80.5013"/><ellipse cx="91.4052" cy="121.0938" fill="#3399F3" rx="10.4167" ry="10.4167" style="stroke:#304D6D;stroke-width:1.0417;"/><rect fill="url(#g1e0i2g4x4bvje1)" height="52.0182" rx="4.1667" ry="4.1667" style="stroke:#304D6D;stroke-width:1.0417;" width="139.0605" x="21.875" y="152.3438"/><text fill="#FFFFFF" font-family="'Verdana'" font-size="12.5" lengthAdjust="spacing" textLength="110.5042" x="33.3333" y="175.4049">Emergency Event</text><text fill="#FFFFFF" font-family="'Verdana'" font-size="12.5" lengthAdjust="spacing" textLength="116.1438" x="33.3333" y="189.9556">(Death/Incapacity)</text><line style="stroke:#3399F3;stroke-width:2.0833;" x1="15.625" x2="15.625" y1="80.5013" y2="781.2174"/><rect fill="#3CB521" height="6.25" rx="2.6042" ry="2.6042" style="stroke:#3CB521;stroke-width:1.0417;" width="550.411" x="171.3521" y="225.1953"/><rect fill="url(#g1e0i2g4x4bvje1)" height="37.4674" rx="4.1667" ry="4.1667" style="stroke:#304D6D;stroke-width:1.0417;" width="155.4423" x="183.8521" y="252.2786"/><text fill="#FFFFFF" font-family="'Verdana'" font-size="12.5" lengthAdjust="spacing" textLength="132.5256" x="195.3105" y="275.3398">Notify Family Council</text><rect fill="url(#g1e0i2g4x4bvje1)" height="37.4674" rx="4.1667" ry="4.1667" style="stroke:#304D6D;stroke-width:1.0417;" width="178.7577" x="349.7111" y="252.2786"/><text fill="#FFFFFF" font-family="'Verdana'" font-size="12.5" lengthAdjust="spacing" textLength="155.8411" x="361.1694" y="275.3398">Secure Accounts &amp; Legal</text><rect fill="url(#g1e0i2g4x4bvje1)" height="37.4674" rx="4.1667" ry="4.1667" style="stroke:#304D6D;stroke-width:1.0417;" width="170.3776" x="538.8855" y="252.2786"/><text fill="#FFFFFF" font-family="'Verdana'" font-size="12.5" lengthAdjust="spacing" textLength="147.4609" x="550.3438" y="275.3398">Activate Interim Leader</text><rect fill="#3CB521" height="6.25" rx="2.6042" ry="2.6042" style="stroke:#3CB521;stroke-width:1.0417;" width="550.411" x="171.3521" y="310.5794"/><line style="stroke:#3399F3;stroke-width:2.0833;" x1="165.1021" x2="165.1021" y1="80.5013" y2="781.2174"/><rect fill="url(#g1e0i2g4x4bvje1)" height="37.4674" rx="4.1667" ry="4.1667" style="stroke:#304D6D;stroke-width:1.0417;" width="187.2111" x="739.1195" y="337.6628"/><text fill="#FFFFFF" font-family="'Verdana'" font-size="12.5" lengthAdjust="spacing" textLength="164.2944" x="750.5778" y="360.7239">Town Hall with Employees</text><rect fill="url(#g1e0i2g4x4bvje1)" height="37.4674" rx="4.1667" ry="4.1667" style="stroke:#304D6D;stroke-width:1.0417;" width="201.0905" x="732.1798" y="395.9635"/><text fill="#FFFFFF" font-family="'Verdana'" font-size="12.5" lengthAdjust="spacing" textLength="178.1738" x="743.6381" y="419.0247">Contact Key Clients/Vendors</text><rect fill="url(#g1e0i2g4x4bvje1)" height="37.4674" rx="4.1667" ry="4.1667" style="stroke:#304D6D;stroke-width:1.0417;" width="156.2724" x="754.5888" y="454.2643"/><text fill="#FFFFFF" font-family="'Verdana'" font-size="12.5" lengthAdjust="spacing" textLength="133.3557" x="766.0472" y="477.3254">Freeze Capital CapEx</text><line style="stroke:#3399F3;stroke-width:2.0833;" x1="725.9298" x2="725.9298" y1="80.5013" y2="781.2174"/><rect fill="url(#g1e0i2g4x4bvje1)" height="37.4674" rx="4.1667" ry="4.1667" style="stroke:#304D6D;stroke-width:1.0417;" width="184.0068" x="1047.14" y="512.5651"/><text fill="#FFFFFF" font-family="'Verdana'" font-size="12.5" lengthAdjust="spacing" textLength="161.0901" x="1058.5983" y="535.6262">Assess Long-Term Impact</text><polygon fill="url(#g1e0i2g4x4bvje2)" points="1077.3951,570.8659,1200.8916,570.8659,1213.3916,583.3659,1200.8916,595.8659,1077.3951,595.8659,1064.8951,583.3659,1077.3951,570.8659" style="stroke:#6B6B6B;stroke-width:1.0417;"/><text fill="#FFFFFF" font-family="'Verdana'" font-size="12.5" lengthAdjust="spacing" textLength="113.0798" x="1082.6035" y="587.6933">Successor Ready?</text><text fill="#FFFFFF" font-family="'Verdana'" font-size="12.5" lengthAdjust="spacing" textLength="21.8384" x="1037.8484" y="575.2096">Yes</text><text fill="#FFFFFF" font-family="'Verdana'" font-size="12.5" lengthAdjust="spacing" textLength="16.9983" x="1218.6" y="575.2096">No</text><rect fill="url(#g1e0i2g4x4bvje1)" height="37.4674" rx="4.1667" ry="4.1667" style="stroke:#304D6D;stroke-width:1.0417;" width="186.2834" x="943.6869" y="606.2826"/><text fill="#FFFFFF" font-family="'Verdana'" font-size="12.5" lengthAdjust="spacing" textLength="163.3667" x="955.1453" y="629.3437">Accelerate Transition Plan</text><rect fill="url(#g1e0i2g4x4bvje1)" height="37.4674" rx="4.1667" ry="4.1667" style="stroke:#304D6D;stroke-width:1.0417;" width="181.309" x="1150.8036" y="606.2826"/><text fill="#FFFFFF" font-family="'Verdana'" font-size="12.5" lengthAdjust="spacing" textLength="158.3923" x="1162.262" y="629.3437">Appoint Professional CEO</text><polygon fill="url(#g1e0i2g4x4bvje2)" points="1139.1434,654.1667,1151.6434,666.6667,1139.1434,679.1667,1126.6434,666.6667,1139.1434,654.1667" style="stroke:#6B6B6B;stroke-width:1.0417;"/><rect fill="url(#g1e0i2g4x4bvje1)" height="37.4674" rx="4.1667" ry="4.1667" style="stroke:#304D6D;stroke-width:1.0417;" width="180.5461" x="1048.8703" y="700"/><text fill="#FFFFFF" font-family="'Verdana'" font-size="12.5" lengthAdjust="spacing" textLength="157.6294" x="1060.3287" y="723.0611">Permanent Restructuring</text><ellipse cx="1139.1434" cy="769.7591" fill="none" rx="11.4583" ry="11.4583" style="stroke:#304D6D;stroke-width:1.0417;"/><ellipse cx="1139.1434" cy="769.7591" fill="none" rx="6.25" ry="6.25" style="stroke:#304D6D;stroke-width:1.0417;"/><line style="stroke:#3399F3;stroke-width:2.0833;" x1="937.4369" x2="937.4369" y1="80.5013" y2="781.2174"/><line style="stroke:#3399F3;stroke-width:2.0833;" x1="1336.2793" x2="1336.2793" y1="80.5013" y2="781.2174"/><line style="stroke:#446E9B;stroke-width:3.125;" x1="91.4052" x2="91.4052" y1="131.5104" y2="152.3438"/><polygon fill="#446E9B" points="87.2386,141.9271,91.4052,152.3438,95.5719,141.9271,91.4052,146.0938" style="stroke:#446E9B;stroke-width:1.0417;"/><line style="stroke:#446E9B;stroke-width:3.125;" x1="261.5733" x2="261.5733" y1="231.4453" y2="252.2786"/><polygon fill="#446E9B" points="257.4066,241.862,261.5733,252.2786,265.7399,241.862,261.5733,246.0286" style="stroke:#446E9B;stroke-width:1.0417;"/><line style="stroke:#446E9B;stroke-width:3.125;" x1="439.09" x2="439.09" y1="231.4453" y2="252.2786"/><polygon fill="#446E9B" points="434.9233,241.862,439.09,252.2786,443.2566,241.862,439.09,246.0286" style="stroke:#446E9B;stroke-width:1.0417;"/><line style="stroke:#446E9B;stroke-width:3.125;" x1="624.0743" x2="624.0743" y1="231.4453" y2="252.2786"/><polygon fill="#446E9B" points="619.9076,241.862,624.0743,252.2786,628.241,241.862,624.0743,246.0286" style="stroke:#446E9B;stroke-width:1.0417;"/><line style="stroke:#446E9B;stroke-width:3.125;" x1="261.5733" x2="261.5733" y1="289.7461" y2="310.5794"/><polygon fill="#446E9B" points="257.4066,300.1628,261.5733,310.5794,265.7399,300.1628,261.5733,304.3294" style="stroke:#446E9B;stroke-width:1.0417;"/><line style="stroke:#446E9B;stroke-width:3.125;" x1="439.09" x2="439.09" y1="289.7461" y2="310.5794"/><polygon fill="#446E9B" points="434.9233,300.1628,439.09,310.5794,443.2566,300.1628,439.09,304.3294" style="stroke:#446E9B;stroke-width:1.0417;"/><line style="stroke:#446E9B;stroke-width:3.125;" x1="624.0743" x2="624.0743" y1="289.7461" y2="310.5794"/><polygon fill="#446E9B" points="619.9076,300.1628,624.0743,310.5794,628.241,300.1628,624.0743,304.3294" style="stroke:#446E9B;stroke-width:1.0417;"/><line style="stroke:#446E9B;stroke-width:3.125;" x1="832.725" x2="832.725" y1="375.1302" y2="395.9635"/><polygon fill="#446E9B" points="828.5583,385.5469,832.725,395.9635,836.8917,385.5469,832.725,389.7135" style="stroke:#446E9B;stroke-width:1.0417;"/><line style="stroke:#446E9B;stroke-width:3.125;" x1="832.725" x2="832.725" y1="433.431" y2="454.2643"/><polygon fill="#446E9B" points="828.5583,443.8477,832.725,454.2643,836.8917,443.8477,832.725,448.0143" style="stroke:#446E9B;stroke-width:1.0417;"/><line style="stroke:#446E9B;stroke-width:3.125;" x1="1064.8951" x2="1036.8286" y1="583.3659" y2="583.3659"/><line style="stroke:#446E9B;stroke-width:3.125;" x1="1036.8286" x2="1036.8286" y1="583.3659" y2="606.2826"/><polygon fill="#446E9B" points="1032.6619,595.8659,1036.8286,606.2826,1040.9953,595.8659,1036.8286,600.0326" style="stroke:#446E9B;stroke-width:1.0417;"/><line style="stroke:#446E9B;stroke-width:3.125;" x1="1213.3916" x2="1241.4581" y1="583.3659" y2="583.3659"/><line style="stroke:#446E9B;stroke-width:3.125;" x1="1241.4581" x2="1241.4581" y1="583.3659" y2="606.2826"/><polygon fill="#446E9B" points="1237.2915,595.8659,1241.4581,606.2826,1245.6248,595.8659,1241.4581,600.0326" style="stroke:#446E9B;stroke-width:1.0417;"/><line style="stroke:#446E9B;stroke-width:3.125;" x1="1036.8286" x2="1036.8286" y1="643.75" y2="666.6667"/><line style="stroke:#446E9B;stroke-width:3.125;" x1="1036.8286" x2="1126.6434" y1="666.6667" y2="666.6667"/><polygon fill="#446E9B" points="1116.2267,662.5,1126.6434,666.6667,1116.2267,670.8333,1120.3934,666.6667" style="stroke:#446E9B;stroke-width:1.0417;"/><line style="stroke:#446E9B;stroke-width:3.125;" x1="1241.4581" x2="1241.4581" y1="643.75" y2="666.6667"/><line style="stroke:#446E9B;stroke-width:3.125;" x1="1241.4581" x2="1151.6434" y1="666.6667" y2="666.6667"/><polygon fill="#446E9B" points="1162.06,662.5,1151.6434,666.6667,1162.06,670.8333,1157.8934,666.6667" style="stroke:#446E9B;stroke-width:1.0417;"/><line style="stroke:#446E9B;stroke-width:3.125;" x1="1139.1434" x2="1139.1434" y1="550.0326" y2="570.8659"/><polygon fill="#446E9B" points="1134.9767,560.4492,1139.1434,570.8659,1143.31,560.4492,1139.1434,564.6159" style="stroke:#446E9B;stroke-width:1.0417;"/><line style="stroke:#446E9B;stroke-width:3.125;" x1="1139.1434" x2="1139.1434" y1="679.1667" y2="700"/><polygon fill="#446E9B" points="1134.9767,689.5833,1139.1434,700,1143.31,689.5833,1139.1434,693.75" style="stroke:#446E9B;stroke-width:1.0417;"/><line style="stroke:#446E9B;stroke-width:3.125;" x1="1139.1434" x2="1139.1434" y1="737.4674" y2="758.3008"/><polygon fill="#446E9B" points="1134.9767,747.8841,1139.1434,758.3008,1143.31,747.8841,1139.1434,752.0508" style="stroke:#446E9B;stroke-width:1.0417;"/><line style="stroke:#446E9B;stroke-width:3.125;" x1="91.4052" x2="91.4052" y1="204.362" y2="209.5703"/><line style="stroke:#446E9B;stroke-width:3.125;" x1="91.4052" x2="446.5576" y1="209.5703" y2="209.5703"/><line style="stroke:#446E9B;stroke-width:3.125;" x1="446.5576" x2="446.5576" y1="209.5703" y2="225.1953"/><polygon fill="#446E9B" points="442.391,214.7786,446.5576,225.1953,450.7243,214.7786,446.5576,218.9453" style="stroke:#446E9B;stroke-width:1.0417;"/><line style="stroke:#446E9B;stroke-width:3.125;" x1="446.5576" x2="446.5576" y1="316.8294" y2="322.0378"/><line style="stroke:#446E9B;stroke-width:3.125;" x1="446.5576" x2="832.725" y1="322.0378" y2="322.0378"/><line style="stroke:#446E9B;stroke-width:3.125;" x1="832.725" x2="832.725" y1="322.0378" y2="337.6628"/><polygon fill="#446E9B" points="828.5583,327.2461,832.725,337.6628,836.8917,327.2461,832.725,331.4128" style="stroke:#446E9B;stroke-width:1.0417;"/><line style="stroke:#446E9B;stroke-width:3.125;" x1="832.725" x2="832.725" y1="491.7318" y2="496.9401"/><line style="stroke:#446E9B;stroke-width:3.125;" x1="832.725" x2="1139.1434" y1="496.9401" y2="496.9401"/><line style="stroke:#446E9B;stroke-width:3.125;" x1="1139.1434" x2="1139.1434" y1="496.9401" y2="512.5651"/><polygon fill="#446E9B" points="1134.9767,502.1484,1139.1434,512.5651,1143.31,502.1484,1139.1434,506.3151" style="stroke:#446E9B;stroke-width:1.0417;"/><text fill="#304D6D" font-family="'Verdana'" font-size="12.5" lengthAdjust="spacing" textLength="44.9463" x="67.8904" y="97.3124">Trigger</text><text fill="#304D6D" font-family="'Verdana'" font-size="12.5" lengthAdjust="spacing" textLength="169.5129" x="360.7595" y="97.3124">Immediate Response (24h)</text><text fill="#304D6D" font-family="'Verdana'" font-size="12.5" lengthAdjust="spacing" textLength="137.6465" x="762.8601" y="97.3124">Stabilization (1 Week)</text><text fill="#304D6D" font-family="'Verdana'" font-size="12.5" lengthAdjust="spacing" textLength="142.3279" x="1065.6942" y="97.3124">Recovery (1-3 Months)</text><!--SRC=[RL5BRzim3BxhLt0z3CcXAFOusOSXo5miMDS5JR1Xm2wiGjj4PT6Gw7GkykD7fIjwcIuyw2E_rnljQI388teAUE-KDH1SD0EbZgAVOJTvJpcpHBYZF4hC1DiaAbx2XNEdVUAketHoMJ6fgrutcoD5_HqNdmcrlzf4ZqR2EYzhMziC0nqObLwlBjv_x9SdrqfwS62lkXNbTePh73ZCi9OfUWxr6G3O8STds8xyb0XMtXj2Cxo56-hmFy2LLpuMoarKIZmO3W-KQaVn06TQTzeftdFW9zJYUF4EVX8zcAfgBuyHlc08yCZQGpECGMQYNBjgBL7HAtmbKndONEUh7tPJKlczJaHF16iSMJ6KsVmf2ToHboEbsKWkFy0tkz7dGhJAsVA66udTvPxI09l1SjFQSGkBVsr8ijZmC7zQWlLdEdzHNhwOj28f5PlxX37psSWsO3IVeSHyAo_GSHIEMkfidoik-fhlvq2uTQxQ6Zz6CrHQqZHvdHB7hhQoPVmB]--></g></svg>