<svg xmlns="http://www.w3.org/2000/svg" xmlns:xlink="http://www.w3.org/1999/xlink" contentStyleType="text/css" data-diagram-type="DESCRIPTION" height="913.5417px" preserveAspectRatio="none" style="width:1407px;height:913px;" version="1.1" viewBox="0 0 1407 913" width="1407.2917px" zoomAndPan="magnify"><defs><linearGradient id="g54zq5evyna8z0" x1="50%" x2="50%" y1="0%" y2="100%"><stop offset="0%" stop-color="#B8B8B8"/><stop offset="100%" stop-color="#6B6B6B"/></linearGradient><linearGradient id="g54zq5evyna8z1" x1="50%" x2="50%" y1="0%" y2="100%"><stop offset="0%" stop-color="#7C9AB9"/><stop offset="100%" stop-color="#304D6D"/></linearGradient><linearGradient id="g54zq5evyna8z2" x1="50%" x2="50%" y1="0%" y2="100%"><stop offset="0%" stop-color="#70B8F7"/><stop offset="100%" stop-color="#246BAA"/></linearGradient></defs><g><!--cluster Sovereignty Layer--><g class="cluster" data-entity="Sovereignty Layer" data-source-line="8" data-uid="ent0002" id="cluster_Sovereignty Layer"><path d="M352.0833,16.6667 L489.0727,16.6667 A6.25,6.25 0 0 1 493.2393,20.8333 L500.531,47.8841 L693.75,47.8841 A4.1667,4.1667 0 0 1 697.9167,52.0508 L697.9167,256.1146 A4.1667,4.1667 0 0 1 693.75,260.2813 L352.0833,260.2813 A4.1667,4.1667 0 0 1 347.9167,256.1146 L347.9167,20.8333 A4.1667,4.1667 0 0 1 352.0833,16.6667" fill="url(#g54zq5evyna8z0)" style="stroke:#446E9B;stroke-width:2.0833;"/><line style="stroke:#446E9B;stroke-width:2.0833;" x1="347.9167" x2="500.531" y1="47.8841" y2="47.8841"/><text fill="#446E9B" font-family="'Verdana'" font-size="12.5" font-weight="bold" lengthAdjust="spacing" textLength="128.656" x="357.2917" y="35.5611">Sovereignty Layer</text></g><!--cluster Treasury Layer (The Bank)--><g class="cluster" data-entity="Treasury Layer .The Bank." data-source-line="15" data-uid="ent0006" id="cluster_Treasury Layer .The Bank."><path d="M527.0833,285.2813 L722.4223,285.2813 A6.25,6.25 0 0 1 726.5889,289.4479 L733.8806,316.4987 L732.2917,316.4987 A4.1667,4.1667 0 0 1 736.4583,320.6654 L736.4583,526.8021 A4.1667,4.1667 0 0 1 732.2917,530.9688 L527.0833,530.9688 A4.1667,4.1667 0 0 1 522.9167,526.8021 L522.9167,289.4479 A4.1667,4.1667 0 0 1 527.0833,285.2813" fill="url(#g54zq5evyna8z0)" style="stroke:#446E9B;stroke-width:2.0833;"/><line style="stroke:#446E9B;stroke-width:2.0833;" x1="522.9167" x2="733.8806" y1="316.4987" y2="316.4987"/><text fill="#446E9B" font-family="'Verdana'" font-size="12.5" font-weight="bold" lengthAdjust="spacing" textLength="187.0056" x="532.2917" y="304.1757">Treasury Layer (The Bank)</text></g><!--cluster PASSIVE ZONE (Assets & Deferral)--><g class="cluster" data-entity="PASSIVE ZONE .Assets . Deferral." data-source-line="22" data-uid="ent0009" id="cluster_PASSIVE ZONE .Assets . Deferral."><path d="M987.5,408.1354 L1238.2284,408.1354 A6.25,6.25 0 0 1 1242.395,412.3021 L1249.6867,439.3529 L1390.625,439.3529 A4.1667,4.1667 0 0 1 1394.7917,443.5195 L1394.7917,651.7188 A4.1667,4.1667 0 0 1 1390.625,655.8854 L987.5,655.8854 A4.1667,4.1667 0 0 1 983.3333,651.7188 L983.3333,412.3021 A4.1667,4.1667 0 0 1 987.5,408.1354" fill="url(#g54zq5evyna8z0)" style="stroke:#446E9B;stroke-width:2.0833;"/><line style="stroke:#446E9B;stroke-width:2.0833;" x1="983.3333" x2="1249.6867" y1="439.3529" y2="439.3529"/><text fill="#446E9B" font-family="'Verdana'" font-size="12.5" font-weight="bold" lengthAdjust="spacing" textLength="242.395" x="992.7083" y="427.0299">PASSIVE ZONE (Assets &amp; Deferral)</text></g><!--cluster ACTIVE ZONE (Operations & Cash Flow)--><g class="cluster" data-entity="ACTIVE ZONE .Operations . Cash Flow." data-source-line="29" data-uid="ent0013" id="cluster_ACTIVE ZONE .Operations . Cash Flow."><path d="M20.8333,408.1354 L306.9255,408.1354 A6.25,6.25 0 0 1 311.0921,412.3021 L318.3838,439.3529 L493.75,439.3529 A4.1667,4.1667 0 0 1 497.9167,443.5195 L497.9167,897.4271 A4.1667,4.1667 0 0 1 493.75,901.5938 L20.8333,901.5938 A4.1667,4.1667 0 0 1 16.6667,897.4271 L16.6667,412.3021 A4.1667,4.1667 0 0 1 20.8333,408.1354" fill="url(#g54zq5evyna8z0)" style="stroke:#446E9B;stroke-width:2.0833;"/><line style="stroke:#446E9B;stroke-width:2.0833;" x1="16.6667" x2="318.3838" y1="439.3529" y2="439.3529"/><text fill="#446E9B" font-family="'Verdana'" font-size="12.5" font-weight="bold" lengthAdjust="spacing" textLength="277.7588" x="26.0417" y="427.0299">ACTIVE ZONE (Operations &amp; Cash Flow)</text></g><!--entity PR--><g class="entity" data-entity="PR" data-source-line="9" data-uid="ent0003" id="entity_PR"><rect fill="url(#g54zq5evyna8z1)" height="60.3516" rx="4.1667" ry="4.1667" style="stroke:#304D6D;stroke-width:1.0417;" width="102.3071" x="567.5938" y="60.4167"/><text fill="#FFFFFF" font-family="'Verdana'" font-size="12.5" lengthAdjust="spacing" textLength="59.9976" x="583.2188" y="87.6444">Principals</text><text fill="#FFFFFF" font-family="'Verdana'" font-size="12.5" lengthAdjust="spacing" textLength="71.0571" x="583.2188" y="102.1952">(Managers)</text></g><!--entity DT--><g class="entity" data-entity="DT" data-source-line="10" data-uid="ent0004" id="entity_DT"><rect fill="#000080" height="60.3516" rx="4.1667" ry="4.1667" style="stroke:#304D6D;stroke-width:1.0417;" width="126.0376" x="555.7292" y="183.2708"/><text fill="#FFFFFF" font-family="'Verdana'" font-size="12.5" lengthAdjust="spacing" textLength="87.5" x="571.3542" y="210.4986">Dynasty Trust</text><text fill="#FFFFFF" font-family="'Verdana'" font-size="12.5" lengthAdjust="spacing" textLength="94.7876" x="571.3542" y="225.0494">(South Dakota)</text></g><!--entity OE--><g class="entity" data-entity="OE" data-source-line="11" data-uid="ent0005" id="entity_OE"><rect fill="#008000" height="60.3516" rx="4.1667" ry="4.1667" style="stroke:#304D6D;stroke-width:1.0417;" width="128.8818" x="364.7292" y="183.2708"/><text fill="#FFFFFF" font-family="'Verdana'" font-size="12.5" lengthAdjust="spacing" textLength="71.2524" x="380.3542" y="210.4986">Origin Eyes</text><text fill="#FFFFFF" font-family="'Verdana'" font-size="12.5" lengthAdjust="spacing" textLength="97.6318" x="380.3542" y="225.0494">(501c3 Charity)</text></g><!--entity PNR--><g class="entity" data-entity="PNR" data-source-line="16" data-uid="ent0007" id="entity_PNR"><rect fill="#000000" height="60.3516" rx="4.1667" ry="4.1667" style="stroke:#304D6D;stroke-width:1.0417;" width="158.9844" x="539.2604" y="329.0313"/><text fill="#FFFFFF" font-family="'Verdana'" font-size="12.5" lengthAdjust="spacing" textLength="110.4736" x="554.8854" y="356.259">PNR Holdings LLC</text><text fill="#FFFFFF" font-family="'Verdana'" font-size="12.5" lengthAdjust="spacing" textLength="127.7344" x="554.8854" y="370.8098">(Wyoming Treasury)</text></g><!--entity CAP--><g class="entity" data-entity="CAP" data-source-line="17" data-uid="ent0008" id="entity_CAP"><rect fill="#008000" height="60.3516" rx="4.1667" ry="4.1667" style="stroke:#304D6D;stroke-width:1.0417;" width="144.3359" x="539.2917" y="453.9583"/><text fill="#FFFFFF" font-family="'Verdana'" font-size="12.5" lengthAdjust="spacing" textLength="113.0859" x="554.9167" y="481.1861">Captive Insurance</text><text fill="#FFFFFF" font-family="'Verdana'" font-size="12.5" lengthAdjust="spacing" textLength="111.2" x="554.9167" y="495.7369">(831b Risk Mgmt)</text></g><g class="entity" data-entity="N_PASSIVE" data-source-line="23" data-uid="ent0010" id="entity_N_PASSIVE"><path d="M999.7188,456.0521 L999.7188,512.2044 A4.1667,4.1667 0 0 0 1003.8854,516.3711 L1076.0417,516.3711 L1080.2083,578.4375 L1084.375,516.3711 L1191.9551,516.3711 A4.1667,4.1667 0 0 0 1196.1217,512.2044 L1196.1217,462.3021 L1185.7051,451.8854 L1003.8854,451.8854 A4.1667,4.1667 0 0 0 999.7188,456.0521" fill="url(#g54zq5evyna8z2)" style="stroke:#246BAA;stroke-width:1.0417;"/><path d="M1185.7051,451.8854 L1185.7051,460.2188 A2.0833,2.0833 0 0 0 1187.7884,462.3021 L1196.1217,462.3021 L1185.7051,451.8854" fill="url(#g54zq5evyna8z2)" style="stroke:#246BAA;stroke-width:1.0417;"/><text fill="#FFFFFF" font-family="'Verdana'" font-size="12.5" lengthAdjust="spacing" textLength="164.1113" x="1011.1771" y="473.9049">Income: Rental / Royalties</text><text fill="#FFFFFF" font-family="'Verdana'" font-size="12.5" lengthAdjust="spacing" textLength="161.2" x="1011.1771" y="488.4556">Tax: Sched E / Form 8825</text><text fill="#FFFFFF" font-family="'Verdana'" font-size="12.5" lengthAdjust="spacing" textLength="116.6809" x="1011.1771" y="503.0064">Goal: Depreciation</text></g><!--entity OBU--><g class="entity" data-entity="OBU" data-source-line="25" data-uid="ent0011" id="entity_OBU"><rect fill="#008000" height="60.3516" rx="4.1667" ry="4.1667" style="stroke:#304D6D;stroke-width:1.0417;" width="160.8521" x="999.7813" y="578.875"/><text fill="#FFFFFF" font-family="'Verdana'" font-size="12.5" lengthAdjust="spacing" textLength="67.2546" x="1015.4063" y="606.1028">Obuke LLC</text><text fill="#FFFFFF" font-family="'Verdana'" font-size="12.5" lengthAdjust="spacing" textLength="129.6021" x="1015.4063" y="620.6536">(Real Estate HoldCo)</text></g><!--entity TORI--><g class="entity" data-entity="TORI" data-source-line="26" data-uid="ent0012" id="entity_TORI"><rect fill="#008000" height="60.3516" rx="4.1667" ry="4.1667" style="stroke:#304D6D;stroke-width:1.0417;" width="119.3176" x="1259.0938" y="453.9583"/><text fill="#FFFFFF" font-family="'Verdana'" font-size="12.5" lengthAdjust="spacing" textLength="88.0676" x="1274.7188" y="481.1861">ToriMedia LLC</text><text fill="#FFFFFF" font-family="'Verdana'" font-size="12.5" lengthAdjust="spacing" textLength="69.7815" x="1274.7188" y="495.7369">(IP HoldCo)</text></g><g class="entity" data-entity="N_ACTIVE" data-source-line="30" data-uid="ent0014" id="entity_N_ACTIVE"><path d="M89.8542,456.0521 L89.8542,512.2044 A4.1667,4.1667 0 0 0 94.0208,516.3711 L252.875,516.3711 L257.0417,578.4375 L261.2083,516.3711 L283.0671,516.3711 A4.1667,4.1667 0 0 0 287.2337,512.2044 L287.2337,462.3021 L276.8171,451.8854 L94.0208,451.8854 A4.1667,4.1667 0 0 0 89.8542,456.0521" fill="url(#g54zq5evyna8z2)" style="stroke:#246BAA;stroke-width:1.0417;"/><path d="M276.8171,451.8854 L276.8171,460.2188 A2.0833,2.0833 0 0 0 278.9004,462.3021 L287.2337,462.3021 L276.8171,451.8854" fill="url(#g54zq5evyna8z2)" style="stroke:#246BAA;stroke-width:1.0417;"/><text fill="#FFFFFF" font-family="'Verdana'" font-size="12.5" lengthAdjust="spacing" textLength="165.0879" x="101.3125" y="473.9049">Income: Ordinary / Earned</text><text fill="#FFFFFF" font-family="'Verdana'" font-size="12.5" lengthAdjust="spacing" textLength="118.9148" x="101.3125" y="488.4556">Tax: Sched C / W-2</text><text fill="#FFFFFF" font-family="'Verdana'" font-size="12.5" lengthAdjust="spacing" textLength="101.3367" x="101.3125" y="503.0064">Goal: Expensing</text></g><!--entity CXI--><g class="entity" data-entity="CXI" data-source-line="32" data-uid="ent0015" id="entity_CXI"><rect fill="#0000FF" height="60.3516" rx="4.1667" ry="4.1667" style="stroke:#304D6D;stroke-width:1.0417;" width="169.2139" x="226.8542" y="578.875"/><text fill="#FFFFFF" font-family="'Verdana'" font-size="12.5" lengthAdjust="spacing" textLength="47.6074" x="242.4792" y="606.1028">CXI LLC</text><text fill="#FFFFFF" font-family="'Verdana'" font-size="12.5" lengthAdjust="spacing" textLength="137.9639" x="242.4792" y="620.6536">(Management S-Corp)</text></g><!--entity KW--><g class="entity" data-entity="KW" data-source-line="33" data-uid="ent0016" id="entity_KW"><rect fill="#FF0000" height="60.3516" rx="4.1667" ry="4.1667" style="stroke:#304D6D;stroke-width:1.0417;" width="120.4041" x="360.6354" y="824.5729"/><text fill="#FFFFFF" font-family="'Verdana'" font-size="12.5" lengthAdjust="spacing" textLength="68.3228" x="376.2604" y="851.8007">Kwode LLC</text><text fill="#FFFFFF" font-family="'Verdana'" font-size="12.5" lengthAdjust="spacing" textLength="89.1541" x="376.2604" y="866.3515">(Hybrid OpCo)</text></g><!--entity NEAT--><g class="entity" data-entity="NEAT" data-source-line="34" data-uid="ent0017" id="entity_NEAT"><rect fill="#FF0000" height="60.3516" rx="4.1667" ry="4.1667" style="stroke:#304D6D;stroke-width:1.0417;" width="126.8311" x="162.625" y="701.7188"/><text fill="#FFFFFF" font-family="'Verdana'" font-size="12.5" lengthAdjust="spacing" textLength="95.5811" x="178.25" y="728.9465">Neat Circle LLC</text><text fill="#FFFFFF" font-family="'Verdana'" font-size="12.5" lengthAdjust="spacing" textLength="82.5562" x="178.25" y="743.4973">(Automation)</text></g><!--entity LODGE--><g class="entity" data-entity="LODGE" data-source-line="35" data-uid="ent0018" id="entity_LODGE"><rect fill="#FF0000" height="60.3516" rx="4.1667" ry="4.1667" style="stroke:#304D6D;stroke-width:1.0417;" width="162.2742" x="135.5313" y="824.5729"/><text fill="#FFFFFF" font-family="'Verdana'" font-size="12.5" lengthAdjust="spacing" textLength="131.0242" x="151.1563" y="851.8007">Lodging Connections</text><text fill="#FFFFFF" font-family="'Verdana'" font-size="12.5" lengthAdjust="spacing" textLength="76.5259" x="151.1563" y="866.3515">(Hospitality)</text></g><!--entity ULOR--><g class="entity" data-entity="ULOR" data-source-line="36" data-uid="ent0019" id="entity_ULOR"><rect fill="#FF0000" height="60.3516" rx="4.1667" ry="4.1667" style="stroke:#304D6D;stroke-width:1.0417;" width="129.7485" x="351.7917" y="701.7188"/><text fill="#FFFFFF" font-family="'Verdana'" font-size="12.5" lengthAdjust="spacing" textLength="52.0386" x="367.4167" y="728.9465">Ulor LLC</text><text fill="#FFFFFF" font-family="'Verdana'" font-size="12.5" lengthAdjust="spacing" textLength="98.4985" x="367.4167" y="743.4973">(PA Acquisition)</text></g><!--link PR to DT--><!--link PR to DT--><g class="link" data-entity-1="PR" data-entity-2="DT" data-source-line="52" data-uid="lnk28" id="link_PR_DT"><path d="M635.8021,121.2708 C635.8021,140.1771 635.8021,158.0729 635.8021,176.8958" fill="none" id="PR-to-DT" style="stroke:#446E9B;stroke-width:3.125;"/><polygon fill="#446E9B" points="635.8021,183.1458,639.9688,173.7708,635.8021,177.9375,631.6354,173.7708,635.8021,183.1458" style="stroke:#446E9B;stroke-width:3.125;"/></g><!--link DT to PNR--><!--link DT to PNR--><g class="link" data-entity-1="DT" data-entity-2="PNR" data-source-line="53" data-uid="lnk29" id="link_DT_PNR"><path d="M639.7604,244 C639.7604,268.875 639.7604,297.5729 639.7604,322.4479" fill="none" id="DT-to-PNR" style="stroke:#446E9B;stroke-width:3.125;"/><polygon fill="#446E9B" points="639.7604,328.6979,643.9271,319.3229,639.7604,323.4896,635.5938,319.3229,639.7604,328.6979" style="stroke:#446E9B;stroke-width:3.125;"/></g><!--link PNR to CXI--><!--link PNR to CXI--><g class="link" data-entity-1="PNR" data-entity-2="CXI" data-source-line="59" data-uid="lnk35" id="link_PNR_CXI"><path d="M538.8438,359.9271 C471.3542,359.9271 385.6146,359.9271 385.6146,359.9271 C385.6146,359.9271 385.6146,505.7292 385.6146,572.25" fill="none" id="PNR-to-CXI" style="stroke:#446E9B;stroke-width:3.125;"/><polygon fill="#446E9B" points="385.6146,578.5,389.7813,569.125,385.6146,573.2917,381.4479,569.125,385.6146,578.5" style="stroke:#446E9B;stroke-width:3.125;"/></g><!--link OE to DT--><!--reverse link OE to DT--><g class="link" data-entity-1="OE" data-entity-2="DT" data-source-line="54" data-uid="lnk31" id="link_OE_DT"><path d="M500.1354,224.5104 C519.9792,224.5104 535.5313,224.5104 555.2917,224.5104" fill="none" id="OE-backto-DT" style="stroke:#446E9B;stroke-width:3.125;stroke-dasharray:7.2917,7.2917;"/><polygon fill="#446E9B" points="493.8854,224.5104,503.2604,228.6771,499.0938,224.5104,503.2604,220.3438,493.8854,224.5104" style="stroke:#446E9B;stroke-width:3.125;"/></g><!--link PNR to CAP--><!--link PNR to CAP--><g class="link" data-entity-1="PNR" data-entity-2="CAP" data-source-line="56" data-uid="lnk32" id="link_PNR_CAP"><path d="M635.5104,389.7708 C635.5104,409.125 635.5104,427.8229 635.5104,447.2083" fill="none" id="PNR-to-CAP" style="stroke:#446E9B;stroke-width:3.125;"/><polygon fill="#446E9B" points="635.5104,453.4583,639.6771,444.0833,635.5104,448.25,631.3438,444.0833,635.5104,453.4583" style="stroke:#446E9B;stroke-width:3.125;"/></g><!--link OBU to CXI--><!--link PNR to OBU--><g class="link" data-entity-1="PNR" data-entity-2="OBU" data-source-line="57" data-uid="lnk33" id="link_PNR_OBU"><path d="M695.3229,389.4688 C695.3229,452.9583 695.3229,594.3021 695.3229,594.3021 C695.3229,594.3021 880.4063,594.3021 993.2708,594.3021" fill="none" id="PNR-to-OBU" style="stroke:#446E9B;stroke-width:3.125;"/><polygon fill="#446E9B" points="999.5208,594.3021,990.1458,590.1354,994.3125,594.3021,990.1458,598.4688,999.5208,594.3021" style="stroke:#446E9B;stroke-width:3.125;"/></g><!--link PNR to TORI--><g class="link" data-entity-1="PNR" data-entity-2="TORI" data-source-line="58" data-uid="lnk34" id="link_PNR_TORI"><path d="M698.7083,359.9271 C882.375,359.9271 1318.75,359.9271 1318.75,359.9271 C1318.75,359.9271 1318.75,410.7292 1318.75,447.5" fill="none" id="PNR-to-TORI" style="stroke:#446E9B;stroke-width:3.125;"/><polygon fill="#446E9B" points="1318.75,453.75,1322.9167,444.375,1318.75,448.5417,1314.5833,444.375,1318.75,453.75" style="stroke:#446E9B;stroke-width:3.125;"/></g><!--link PNR to KW--><g class="link" data-entity-1="PNR" data-entity-2="KW" data-source-line="60" data-uid="lnk36" id="link_PNR_KW"><path d="M692.3958,389.625 C692.3958,496.0521 692.3958,845.3438 692.3958,845.3438 C692.3958,845.3438 567.7292,845.3438 487.6875,845.3438" fill="none" id="PNR-to-KW" style="stroke:#446E9B;stroke-width:3.125;"/><polygon fill="#446E9B" points="481.4375,845.3438,490.8125,849.5104,486.6458,845.3438,490.8125,841.1771,481.4375,845.3438" style="stroke:#446E9B;stroke-width:3.125;"/></g><!--link PNR to NEAT--><g class="link" data-entity-1="PNR" data-entity-2="NEAT" data-source-line="61" data-uid="lnk37" id="link_PNR_NEAT"><path d="M686.5521,389.8333 C686.5521,465.5938 686.5521,655.7604 686.5521,655.7604 C686.5521,655.7604 258.1563,655.7604 258.1563,655.7604 C258.1563,655.7604 258.1563,673.9375 258.1563,695.1146" fill="none" id="PNR-to-NEAT" style="stroke:#446E9B;stroke-width:3.125;"/><polygon fill="#446E9B" points="258.1563,701.3646,262.3229,691.9896,258.1563,696.1563,253.9896,691.9896,258.1563,701.3646" style="stroke:#446E9B;stroke-width:3.125;"/></g><!--link PNR to LODGE--><g class="link" data-entity-1="PNR" data-entity-2="LODGE" data-source-line="62" data-uid="lnk38" id="link_PNR_LODGE"><path d="M689.4688,389.75 C689.4688,471.1354 689.4688,687.0104 689.4688,687.0104 C689.4688,687.0104 293.6354,687.0104 293.6354,687.0104 C293.6354,687.0104 293.6354,769.7813 293.6354,818.125" fill="none" id="PNR-to-LODGE" style="stroke:#446E9B;stroke-width:3.125;"/><polygon fill="#446E9B" points="293.6354,824.375,297.8021,815,293.6354,819.1667,289.4688,815,293.6354,824.375" style="stroke:#446E9B;stroke-width:3.125;"/></g><!--link PNR to ULOR--><g class="link" data-entity-1="PNR" data-entity-2="ULOR" data-source-line="63" data-uid="lnk39" id="link_PNR_ULOR"><path d="M538.9271,374.5104 C485.3646,374.5104 424.5521,374.5104 424.5521,374.5104 C424.5521,374.5104 424.5521,608.75 424.5521,695.1771" fill="none" id="PNR-to-ULOR" style="stroke:#446E9B;stroke-width:3.125;"/><polygon fill="#446E9B" points="424.5521,701.4271,428.7188,692.0521,424.5521,696.2188,420.3854,692.0521,424.5521,701.4271" style="stroke:#446E9B;stroke-width:3.125;"/></g><!--link CXI to KW--><g class="link" data-entity-1="CXI" data-entity-2="KW" data-source-line="65" data-uid="lnk40" id="link_CXI_KW"><path d="M333.7917,639.4583 C333.7917,703.2708 333.7917,845.3438 333.7917,845.3438 C333.7917,845.3438 339.2813,845.3438 354.1354,845.3438" fill="none" id="CXI-to-KW" style="stroke:#446E9B;stroke-width:3.125;stroke-dasharray:7.2917,7.2917;"/><polygon fill="#446E9B" points="360.3854,845.3438,351.0104,841.1771,355.1771,845.3438,351.0104,849.5104,360.3854,845.3438" style="stroke:#446E9B;stroke-width:3.125;"/></g><!--link CXI to NEAT--><g class="link" data-entity-1="CXI" data-entity-2="NEAT" data-source-line="66" data-uid="lnk41" id="link_CXI_NEAT"><path d="M242.5,639.7292 C242.5,658.6354 242.5,676.5208 242.5,695.3542" fill="none" id="CXI-to-NEAT" style="stroke:#446E9B;stroke-width:3.125;stroke-dasharray:7.2917,7.2917;"/><polygon fill="#446E9B" points="242.5,701.6042,246.6667,692.2292,242.5,696.3958,238.3333,692.2292,242.5,701.6042" style="stroke:#446E9B;stroke-width:3.125;"/></g><!--link CXI to LODGE--><g class="link" data-entity-1="CXI" data-entity-2="LODGE" data-source-line="67" data-uid="lnk42" id="link_CXI_LODGE"><path d="M291.5417,639.6667 C291.5417,686.8854 291.5417,770.6667 291.5417,817.8854" fill="none" id="CXI-to-LODGE" style="stroke:#446E9B;stroke-width:3.125;stroke-dasharray:7.2917,7.2917;"/><polygon fill="#446E9B" points="291.5417,824.1354,295.7083,814.7604,291.5417,818.9271,287.375,814.7604,291.5417,824.1354" style="stroke:#446E9B;stroke-width:3.125;"/></g><!--link CXI to ULOR--><g class="link" data-entity-1="CXI" data-entity-2="ULOR" data-source-line="68" data-uid="lnk43" id="link_CXI_ULOR"><path d="M373.9271,639.7292 C373.9271,658.6354 373.9271,676.5208 373.9271,695.3542" fill="none" id="CXI-to-ULOR" style="stroke:#446E9B;stroke-width:3.125;stroke-dasharray:7.2917,7.2917;"/><polygon fill="#446E9B" points="373.9271,701.6042,378.0938,692.2292,373.9271,696.3958,369.7604,692.2292,373.9271,701.6042" style="stroke:#446E9B;stroke-width:3.125;"/></g><!--link TORI to KW--><g class="link" data-entity-1="TORI" data-entity-2="KW" data-source-line="70" data-uid="lnk44" id="link_TORI_KW"><path d="M1348.5833,514.6667 C1348.5833,605.0729 1348.5833,865.1354 1348.5833,865.1354 C1348.5833,865.1354 693.5938,865.1354 487.5938,865.1354" fill="none" id="TORI-to-KW" style="stroke:#446E9B;stroke-width:3.125;stroke-dasharray:7.2917,7.2917;"/><polygon fill="#446E9B" points="481.3438,865.1354,490.7188,869.3021,486.5521,865.1354,490.7188,860.9688,481.3438,865.1354" style="stroke:#446E9B;stroke-width:3.125;"/></g><!--link TORI to NEAT--><g class="link" data-entity-1="TORI" data-entity-2="NEAT" data-source-line="71" data-uid="lnk45" id="link_TORI_NEAT"><path d="M1288.9167,514.6354 C1288.9167,567.6979 1288.9167,671.3854 1288.9167,671.3854 C1288.9167,671.3854 273.8021,671.3854 273.8021,671.3854 C273.8021,671.3854 273.8021,680.0313 273.8021,695.0417" fill="none" id="TORI-to-NEAT" style="stroke:#446E9B;stroke-width:3.125;stroke-dasharray:7.2917,7.2917;"/><polygon fill="#446E9B" points="273.8021,701.2917,277.9688,691.9167,273.8021,696.0833,269.6354,691.9167,273.8021,701.2917" style="stroke:#446E9B;stroke-width:3.125;"/></g><!--link TORI to LODGE--><g class="link" data-entity-1="TORI" data-entity-2="LODGE" data-source-line="72" data-uid="lnk46" id="link_TORI_LODGE"><path d="M1318.75,514.7188 C1318.75,592.9688 1318.75,794.3021 1318.75,794.3021 C1318.75,794.3021 295.7188,794.3021 295.7188,794.3021 C295.7188,794.3021 295.7188,802.9271 295.7188,817.9271" fill="none" id="TORI-to-LODGE" style="stroke:#446E9B;stroke-width:3.125;stroke-dasharray:7.2917,7.2917;"/><polygon fill="#446E9B" points="295.7188,824.1771,299.8854,814.8021,295.7188,818.9688,291.5521,814.8021,295.7188,824.1771" style="stroke:#446E9B;stroke-width:3.125;"/></g><!--link NEAT to KW--><g class="link" data-entity-1="NEAT" data-entity-2="KW" data-source-line="74" data-uid="lnk47" id="link_NEAT_KW"><path d="M289.8333,732.8438 C304.4583,732.8438 315.8021,732.8438 315.8021,732.8438 C315.8021,732.8438 315.8021,865.1354 315.8021,865.1354 C315.8021,865.1354 330.75,865.1354 354.0938,865.1354" fill="none" id="NEAT-to-KW" style="stroke:#446E9B;stroke-width:3.125;stroke-dasharray:7.2917,7.2917;"/><polygon fill="#446E9B" points="360.3438,865.1354,350.9688,860.9688,355.1354,865.1354,350.9688,869.3021,360.3438,865.1354" style="stroke:#446E9B;stroke-width:3.125;"/></g><!--link NEAT to LODGE--><g class="link" data-entity-1="NEAT" data-entity-2="LODGE" data-source-line="75" data-uid="lnk48" id="link_NEAT_LODGE"><path d="M226.0417,762.5833 C226.0417,781.4896 226.0417,799.375 226.0417,818.2083" fill="none" id="NEAT-to-LODGE" style="stroke:#446E9B;stroke-width:3.125;stroke-dasharray:7.2917,7.2917;"/><polygon fill="#446E9B" points="226.0417,824.4583,230.2083,815.0833,226.0417,819.25,221.875,815.0833,226.0417,824.4583" style="stroke:#446E9B;stroke-width:3.125;"/></g><!--reverse link OBU to ULOR--><g class="link" data-entity-1="OBU" data-entity-2="ULOR" data-source-line="78" data-uid="lnk50" id="link_OBU_ULOR"><path d="M993.25,624.5104 C823.8646,624.5104 453.0521,624.5104 453.0521,624.5104 C453.0521,624.5104 453.0521,669.6667 453.0521,701.4167" fill="none" id="OBU-backto-ULOR" style="stroke:#446E9B;stroke-width:3.125;stroke-dasharray:7.2917,7.2917;"/><polygon fill="#446E9B" points="999.5,624.5104,990.125,620.3438,994.2917,624.5104,990.125,628.6771,999.5,624.5104" style="stroke:#446E9B;stroke-width:3.125;"/><text fill="#FFFFFF" font-family="'Verdana'" font-size="12.5" lengthAdjust="spacing" textLength="105.1636" x="577.4063" y="616.3215">Assigns Contract</text></g><!--SRC=[TLNRRjiu47tNLymwm3PviDiaw2BmGm55LcCXYcL8Ij8h2aQQseHbKYNff4An_xv3wc8ds_ffE3n7CsSkz5zcZLi4NRC2A_RWwGqNDLDi2uNSrbAWC9bfAWI5XM5YLU41fE82JLCZI6NMyk12o18rrl3FcmEdOcBJERrNC1wF8GxlmXXEfv0bTs4QHbUB_AEzy2YR3LiXZ3BvY0hvIfW6OjQW6i4l3-ZtUQcuA7ZDAlr57DymGN2bJxu2qx1CMyYi4KmJCLSxRGYLoPrPmunjf64jSfR3qO8zDYq-KNp51OGDsc- -VNDQd4EmPegRfeKd8HnTAKJX_VjSmjaKyZJqizlqHVwvGgPtgaiUZlCrmYNLuMIlOv72N5Ob5oiDSHnGvFj6Rka8FRbJHS2Zoug-t183LXl-Y109mZ1H834lpayV8ELw0pUhhMbvWR_yGzRdLFXb7ENmALc4cKjyd_dIpxBeBdHtSEnhZKR3tp33xwWKgmO1GXf2HuB61QUGqhom2bv3AXjM6MuhcREV5AXOOmaXtRoNQWiN5sTlluWhoQefVRAcuUBCS2b6DkF5jowu2z3rvc6tmQu-ALA8K1j6aMtf0jcrv_AsL-eukLJy1alEEbwqV0RFapGwgCoWt0_olV2aHkKoi-83fjVmlf9FVr2VA6eZesw_Xf0fWUKpyG6vxyTdlUpmPur2KvyxpMtO0yd1XwXBl1tlBTKMid4WLTrrbW0q4JjiyTTFj7KTOzuyA5v2KlTYh-_XACMoHIwG6GYuAgeUx- -Ct3gTBNmH-la18PRboava88MWTy2MmmQHkkRKxc4_ucHs5HxGRYkfkW1B7_pYnuvhlWzo6oTfYnu6qu_f4RW95paSptbPeZXnOxbCOVnvxHnVI_aanhIv7Ytl2oUjY6VNv8MRwkHvjBk3c_PyRTmtdg4xDosCPqVfVtxxcM4sNmOXXjStyRS9j0BJCFRpA5baysYP3Th6xtf1P5aLP4ug_6ucx-ZHyTeqwSgcrjisO6_RKTw3Fkpjw_l1j2qT3gvJmyasmlFiE4qcZjERZjCVMav_QZbkXphIO3lMS6ffdfke3ZdOtTqhiE_YQCxK8sepSYj6RqxXtZTR4QOrcIUUcvZ9hfuu-J05UfVepq7RmJIA5UO_]--></g></svg>