<svg xmlns="http://www.w3.org/2000/svg" xmlns:xlink="http://www.w3.org/1999/xlink" contentStyleType="text/css" data-diagram-type="DESCRIPTION" height="827.0833px" preserveAspectRatio="none" style="width:1519px;height:827px;" version="1.1" viewBox="0 0 1519 827" width="1519.7917px" zoomAndPan="magnify"><defs><linearGradient id="g1ji064gv2vb0d0" x1="50%" x2="50%" y1="0%" y2="100%"><stop offset="0%" stop-color="#B8B8B8"/><stop offset="100%" stop-color="#6B6B6B"/></linearGradient><linearGradient id="g1ji064gv2vb0d1" x1="50%" x2="50%" y1="0%" y2="100%"><stop offset="0%" stop-color="#7C9AB9"/><stop offset="100%" stop-color="#304D6D"/></linearGradient></defs><g><!--cluster Benefit Layer (Tax Free/Deferred)--><g class="cluster" data-entity="Benefit Layer .Tax Free.Deferred." data-source-line="8" data-uid="ent0002" id="cluster_Benefit Layer .Tax Free.Deferred."><path d="M20.8333,149.5521 L267.6921,149.5521 A6.25,6.25 0 0 1 271.8587,153.7188 L279.1504,180.7695 L277.0833,180.7695 A4.1667,4.1667 0 0 1 281.25,184.9362 L281.25,554.5208 A4.1667,4.1667 0 0 1 277.0833,558.6875 L20.8333,558.6875 A4.1667,4.1667 0 0 1 16.6667,554.5208 L16.6667,153.7188 A4.1667,4.1667 0 0 1 20.8333,149.5521" fill="url(#g1ji064gv2vb0d0)" style="stroke:#446E9B;stroke-width:2.0833;"/><line style="stroke:#446E9B;stroke-width:2.0833;" x1="16.6667" x2="279.1504" y1="180.7695" y2="180.7695"/><text fill="#446E9B" font-family="'Verdana'" font-size="12.5" font-weight="bold" lengthAdjust="spacing" textLength="238.5254" x="26.0417" y="168.4465">Benefit Layer (Tax Free/Deferred)</text></g><!--cluster Sovereignty Layer--><g class="cluster" data-entity="Sovereignty Layer" data-source-line="15" data-uid="ent0006" id="cluster_Sovereignty Layer"><path d="M712.5,16.6667 L849.4893,16.6667 A6.25,6.25 0 0 1 853.656,20.8333 L860.9477,47.8841 L1058.3333,47.8841 A4.1667,4.1667 0 0 1 1062.5,52.0508 L1062.5,403.9063 A4.1667,4.1667 0 0 1 1058.3333,408.0729 L712.5,408.0729 A4.1667,4.1667 0 0 1 708.3333,403.9063 L708.3333,20.8333 A4.1667,4.1667 0 0 1 712.5,16.6667" fill="url(#g1ji064gv2vb0d0)" style="stroke:#446E9B;stroke-width:2.0833;"/><line style="stroke:#446E9B;stroke-width:2.0833;" x1="708.3333" x2="860.9477" y1="47.8841" y2="47.8841"/><text fill="#446E9B" font-family="'Verdana'" font-size="12.5" font-weight="bold" lengthAdjust="spacing" textLength="128.656" x="717.7083" y="35.5611">Sovereignty Layer</text></g><!--cluster Treasury Layer--><g class="cluster" data-entity="Treasury Layer" data-source-line="25" data-uid="ent0011" id="cluster_Treasury Layer"><path d="M1319.7917,275.1771 L1433.9233,275.1771 A6.25,6.25 0 0 1 1438.09,279.3438 L1445.3817,306.3945 L1503.125,306.3945 A4.1667,4.1667 0 0 1 1507.2917,310.5612 L1507.2917,561.7917 A4.1667,4.1667 0 0 1 1503.125,565.9583 L1319.7917,565.9583 A4.1667,4.1667 0 0 1 1315.625,561.7917 L1315.625,279.3438 A4.1667,4.1667 0 0 1 1319.7917,275.1771" fill="url(#g1ji064gv2vb0d0)" style="stroke:#446E9B;stroke-width:2.0833;"/><line style="stroke:#446E9B;stroke-width:2.0833;" x1="1315.625" x2="1445.3817" y1="306.3945" y2="306.3945"/><text fill="#446E9B" font-family="'Verdana'" font-size="12.5" font-weight="bold" lengthAdjust="spacing" textLength="105.7983" x="1325" y="294.0715">Treasury Layer</text></g><!--cluster Passive Zone (Schedule E)--><g class="cluster" data-entity="Passive Zone .Schedule E." data-source-line="31" data-uid="ent0014" id="cluster_Passive Zone .Schedule E."><path d="M814.5833,433.0729 L1008.7504,433.0729 A6.25,6.25 0 0 1 1012.9171,437.2396 L1020.2087,464.2904 L1201.0417,464.2904 A4.1667,4.1667 0 0 1 1205.2083,468.457 L1205.2083,561.7917 A4.1667,4.1667 0 0 1 1201.0417,565.9583 L814.5833,565.9583 A4.1667,4.1667 0 0 1 810.4167,561.7917 L810.4167,437.2396 A4.1667,4.1667 0 0 1 814.5833,433.0729" fill="url(#g1ji064gv2vb0d0)" style="stroke:#446E9B;stroke-width:2.0833;"/><line style="stroke:#446E9B;stroke-width:2.0833;" x1="810.4167" x2="1020.2087" y1="464.2904" y2="464.2904"/><text fill="#446E9B" font-family="'Verdana'" font-size="12.5" font-weight="bold" lengthAdjust="spacing" textLength="185.8337" x="819.7917" y="451.9674">Passive Zone (Schedule E)</text></g><!--cluster Active Zone (Ordinary Income)--><g class="cluster" data-entity="Active Zone .Ordinary Income." data-source-line="37" data-uid="ent0017" id="cluster_Active Zone .Ordinary Income."><path d="M310.4167,433.0729 L534.9487,433.0729 A6.25,6.25 0 0 1 539.1154,437.2396 L546.4071,464.2904 L781.25,464.2904 A4.1667,4.1667 0 0 1 785.4167,468.457 L785.4167,810.9167 A4.1667,4.1667 0 0 1 781.25,815.0833 L310.4167,815.0833 A4.1667,4.1667 0 0 1 306.25,810.9167 L306.25,437.2396 A4.1667,4.1667 0 0 1 310.4167,433.0729" fill="url(#g1ji064gv2vb0d0)" style="stroke:#446E9B;stroke-width:2.0833;"/><line style="stroke:#446E9B;stroke-width:2.0833;" x1="306.25" x2="546.4071" y1="464.2904" y2="464.2904"/><text fill="#446E9B" font-family="'Verdana'" font-size="12.5" font-weight="bold" lengthAdjust="spacing" textLength="216.1987" x="315.625" y="451.9674">Active Zone (Ordinary Income)</text></g><!--entity 401K--><g class="entity" data-entity="401K" data-source-line="9" data-uid="ent0003" id="entity_401K"><rect fill="#008000" height="57.9264" rx="4.1667" ry="4.1667" style="stroke:#304D6D;stroke-width:1.0417;" width="152.4048" x="112.3438" y="193.3021"/><text fill="#FFFFFF" font-family="'Verdana'" font-size="12.5" lengthAdjust="spacing" textLength="97.8577" x="127.9688" y="220.5299">Solo 401k Trust</text><text fill="#FFFFFF" font-family="'Verdana'" font-size="10.4167" lengthAdjust="spacing" textLength="121.1548" x="127.9688" y="233.1469">Tax: Exempt (5500-EZ)</text></g><!--entity HSA--><g class="entity" data-entity="HSA" data-source-line="10" data-uid="ent0004" id="entity_HSA"><rect fill="#008000" height="57.9264" rx="4.1667" ry="4.1667" style="stroke:#304D6D;stroke-width:1.0417;" width="165.034" x="45.6042" y="326.1979"/><text fill="#FFFFFF" font-family="'Verdana'" font-size="12.5" lengthAdjust="spacing" textLength="80.5481" x="61.2292" y="353.4257">HSA Account</text><text fill="#FFFFFF" font-family="'Verdana'" font-size="10.4167" lengthAdjust="spacing" textLength="133.784" x="61.2292" y="366.0427">Tax: Exempt (Form 8889)</text></g><!--entity SDIRA--><g class="entity" data-entity="SDIRA" data-source-line="11" data-uid="ent0005" id="entity_SDIRA"><rect fill="#008000" height="57.9264" rx="4.1667" ry="4.1667" style="stroke:#304D6D;stroke-width:1.0417;" width="149.8006" x="83.4375" y="484.0938"/><text fill="#FFFFFF" font-family="'Verdana'" font-size="12.5" lengthAdjust="spacing" textLength="65.1123" x="99.0625" y="511.3215">SDIRA LLC</text><text fill="#FFFFFF" font-family="'Verdana'" font-size="10.4167" lengthAdjust="spacing" textLength="118.5506" x="99.0625" y="523.9385">Tax: Disregarded (IRA)</text></g><!--entity PR--><g class="entity" data-entity="PR" data-source-line="16" data-uid="ent0007" id="entity_PR"><rect fill="url(#g1ji064gv2vb0d1)" height="72.4772" rx="4.1667" ry="4.1667" style="stroke:#304D6D;stroke-width:1.0417;" width="113.5966" x="731.7396" y="60.4167"/><text fill="#FFFFFF" font-family="'Verdana'" font-size="12.5" lengthAdjust="spacing" textLength="59.9976" x="747.3646" y="87.6444">Principals</text><text fill="#FFFFFF" font-family="'Verdana'" font-size="12.5" lengthAdjust="spacing" textLength="71.0571" x="747.3646" y="102.1952">(Managers)</text><text fill="#FFFFFF" font-family="'Verdana'" font-size="10.4167" lengthAdjust="spacing" textLength="82.3466" x="747.3646" y="114.8122">Tax: Form 1040</text></g><!--entity DT--><g class="entity" data-entity="DT" data-source-line="17" data-uid="ent0008" id="entity_DT"><rect fill="#000080" height="72.4772" rx="4.1667" ry="4.1667" style="stroke:#304D6D;stroke-width:1.0417;" width="126.0376" x="824.4792" y="186.0313"/><text fill="#FFFFFF" font-family="'Verdana'" font-size="12.5" lengthAdjust="spacing" textLength="87.5" x="840.1042" y="213.259">Dynasty Trust</text><text fill="#FFFFFF" font-family="'Verdana'" font-size="12.5" lengthAdjust="spacing" textLength="94.7876" x="840.1042" y="227.8098">(South Dakota)</text><text fill="#FFFFFF" font-family="'Verdana'" font-size="10.4167" lengthAdjust="spacing" textLength="82.3466" x="840.1042" y="240.4268">Tax: Form 1041</text></g><!--entity OE--><g class="entity" data-entity="OE" data-source-line="18" data-uid="ent0009" id="entity_OE"><rect fill="#008000" height="72.4772" rx="4.1667" ry="4.1667" style="stroke:#304D6D;stroke-width:1.0417;" width="128.8818" x="916.8125" y="318.9271"/><text fill="#FFFFFF" font-family="'Verdana'" font-size="12.5" lengthAdjust="spacing" textLength="71.2524" x="932.4375" y="346.1549">Origin Eyes</text><text fill="#FFFFFF" font-family="'Verdana'" font-size="12.5" lengthAdjust="spacing" textLength="97.6318" x="932.4375" y="360.7056">(501c3 Charity)</text><text fill="#FFFFFF" font-family="'Verdana'" font-size="10.4167" lengthAdjust="spacing" textLength="75.7192" x="932.4375" y="373.3226">Tax: Form 990</text></g><!--entity SUBT--><g class="entity" data-entity="SUBT" data-source-line="21" data-uid="ent0010" id="entity_SUBT"><rect fill="#000080" height="72.4772" rx="4.1667" ry="4.1667" style="stroke:#304D6D;stroke-width:1.0417;" width="139.3738" x="725.1042" y="318.9271"/><text fill="#FFFFFF" font-family="'Verdana'" font-size="12.5" lengthAdjust="spacing" textLength="108.1238" x="740.7292" y="346.1549">Gen 2 Sub-Trusts</text><text fill="#FFFFFF" font-family="'Verdana'" font-size="12.5" lengthAdjust="spacing" textLength="90.3259" x="740.7292" y="360.7056">(Beneficiaries)</text><text fill="#FFFFFF" font-family="'Verdana'" font-size="10.4167" lengthAdjust="spacing" textLength="82.3466" x="740.7292" y="373.3226">Tax: Form 1041</text></g><!--entity PNR--><g class="entity" data-entity="PNR" data-source-line="26" data-uid="ent0012" id="entity_PNR"><rect fill="#000000" height="72.4772" rx="4.1667" ry="4.1667" style="stroke:#304D6D;stroke-width:1.0417;" width="158.9844" x="1331.9688" y="318.9271"/><text fill="#FFFFFF" font-family="'Verdana'" font-size="12.5" lengthAdjust="spacing" textLength="110.4736" x="1347.5938" y="346.1549">PNR Holdings LLC</text><text fill="#FFFFFF" font-family="'Verdana'" font-size="12.5" lengthAdjust="spacing" textLength="127.7344" x="1347.5938" y="360.7056">(Wyoming Treasury)</text><text fill="#FFFFFF" font-family="'Verdana'" font-size="10.4167" lengthAdjust="spacing" textLength="123.5402" x="1347.5938" y="373.3226">Tax: Partnership (1065)</text></g><!--entity CAP--><g class="entity" data-entity="CAP" data-source-line="27" data-uid="ent0013" id="entity_CAP"><rect fill="#008000" height="72.4772" rx="4.1667" ry="4.1667" style="stroke:#304D6D;stroke-width:1.0417;" width="144.3359" x="1346.5833" y="476.8229"/><text fill="#FFFFFF" font-family="'Verdana'" font-size="12.5" lengthAdjust="spacing" textLength="113.0859" x="1362.2083" y="504.0507">Captive Insurance</text><text fill="#FFFFFF" font-family="'Verdana'" font-size="12.5" lengthAdjust="spacing" textLength="111.2" x="1362.2083" y="518.6015">(831b Risk Mgmt)</text><text fill="#FFFFFF" font-family="'Verdana'" font-size="10.4167" lengthAdjust="spacing" textLength="99.6602" x="1362.2083" y="531.2185">Tax: Form 1120-PC</text></g><!--entity OBU--><g class="entity" data-entity="OBU" data-source-line="32" data-uid="ent0015" id="entity_OBU"><rect fill="#008000" height="72.4772" rx="4.1667" ry="4.1667" style="stroke:#304D6D;stroke-width:1.0417;" width="154.7902" x="826.7708" y="476.8229"/><text fill="#FFFFFF" font-family="'Verdana'" font-size="12.5" lengthAdjust="spacing" textLength="67.2546" x="842.3958" y="504.0507">Obuke LLC</text><text fill="#FFFFFF" font-family="'Verdana'" font-size="12.5" lengthAdjust="spacing" textLength="80.7983" x="842.3958" y="518.6015">(Real Estate)</text><text fill="#FFFFFF" font-family="'Verdana'" font-size="10.4167" lengthAdjust="spacing" textLength="123.5402" x="842.3958" y="531.2185">Tax: Partnership (1065)</text></g><!--entity TORI--><g class="entity" data-entity="TORI" data-source-line="33" data-uid="ent0016" id="entity_TORI"><rect fill="#008000" height="72.4772" rx="4.1667" ry="4.1667" style="stroke:#304D6D;stroke-width:1.0417;" width="154.7902" x="1034.0625" y="476.8229"/><text fill="#FFFFFF" font-family="'Verdana'" font-size="12.5" lengthAdjust="spacing" textLength="88.0676" x="1049.6875" y="504.0507">ToriMedia LLC</text><text fill="#FFFFFF" font-family="'Verdana'" font-size="12.5" lengthAdjust="spacing" textLength="69.7815" x="1049.6875" y="518.6015">(IP HoldCo)</text><text fill="#FFFFFF" font-family="'Verdana'" font-size="10.4167" lengthAdjust="spacing" textLength="123.5402" x="1049.6875" y="531.2185">Tax: Partnership (1065)</text></g><!--entity CXI--><g class="entity" data-entity="CXI" data-source-line="38" data-uid="ent0018" id="entity_CXI"><rect fill="#0000FF" height="72.4772" rx="4.1667" ry="4.1667" style="stroke:#304D6D;stroke-width:1.0417;" width="140.213" x="421.5625" y="476.8229"/><text fill="#FFFFFF" font-family="'Verdana'" font-size="12.5" lengthAdjust="spacing" textLength="47.6074" x="437.1875" y="504.0507">CXI LLC</text><text fill="#FFFFFF" font-family="'Verdana'" font-size="12.5" lengthAdjust="spacing" textLength="92.0959" x="437.1875" y="518.6015">(Management)</text><text fill="#FFFFFF" font-family="'Verdana'" font-size="10.4167" lengthAdjust="spacing" textLength="108.963" x="437.1875" y="531.2185">Tax: S-Corp (1120-S)</text></g><!--entity KW--><g class="entity" data-entity="KW" data-source-line="39" data-uid="ent0019" id="entity_KW"><rect fill="#FF0000" height="72.4772" rx="4.1667" ry="4.1667" style="stroke:#304D6D;stroke-width:1.0417;" width="120.9259" x="433.2917" y="725.9375"/><text fill="#FFFFFF" font-family="'Verdana'" font-size="12.5" lengthAdjust="spacing" textLength="68.3228" x="448.9167" y="753.1653">Kwode LLC</text><text fill="#FFFFFF" font-family="'Verdana'" font-size="12.5" lengthAdjust="spacing" textLength="89.1541" x="448.9167" y="767.7161">(Hybrid OpCo)</text><text fill="#FFFFFF" font-family="'Verdana'" font-size="10.4167" lengthAdjust="spacing" textLength="89.6759" x="448.9167" y="780.333">Tax: Disregarded</text></g><!--entity NEAT--><g class="entity" data-entity="NEAT" data-source-line="40" data-uid="ent0020" id="entity_NEAT"><rect fill="#FF0000" height="72.4772" rx="4.1667" ry="4.1667" style="stroke:#304D6D;stroke-width:1.0417;" width="164.1479" x="604.3854" y="601.375"/><text fill="#FFFFFF" font-family="'Verdana'" font-size="12.5" lengthAdjust="spacing" textLength="95.5811" x="620.0104" y="628.6028">Neat Circle LLC</text><text fill="#FFFFFF" font-family="'Verdana'" font-size="12.5" lengthAdjust="spacing" textLength="132.8979" x="620.0104" y="643.1536">(Automation Agency)</text><text fill="#FFFFFF" font-family="'Verdana'" font-size="10.4167" lengthAdjust="spacing" textLength="89.6759" x="620.0104" y="655.7705">Tax: Disregarded</text></g><!--entity LODGE--><g class="entity" data-entity="LODGE" data-source-line="41" data-uid="ent0021" id="entity_LODGE"><rect fill="#FF0000" height="72.4772" rx="4.1667" ry="4.1667" style="stroke:#304D6D;stroke-width:1.0417;" width="162.2742" x="606.3646" y="725.9375"/><text fill="#FFFFFF" font-family="'Verdana'" font-size="12.5" lengthAdjust="spacing" textLength="131.0242" x="621.9896" y="753.1653">Lodging Connections</text><text fill="#FFFFFF" font-family="'Verdana'" font-size="12.5" lengthAdjust="spacing" textLength="76.5259" x="621.9896" y="767.7161">(Hospitality)</text><text fill="#FFFFFF" font-family="'Verdana'" font-size="10.4167" lengthAdjust="spacing" textLength="89.6759" x="621.9896" y="780.333">Tax: Disregarded</text></g><!--entity ULOR--><g class="entity" data-entity="ULOR" data-source-line="42" data-uid="ent0022" id="entity_ULOR"><rect fill="#FF0000" height="72.4772" rx="4.1667" ry="4.1667" style="stroke:#304D6D;stroke-width:1.0417;" width="120.9259" x="431.2083" y="601.375"/><text fill="#FFFFFF" font-family="'Verdana'" font-size="12.5" lengthAdjust="spacing" textLength="52.0386" x="446.8333" y="628.6028">Ulor LLC</text><text fill="#FFFFFF" font-family="'Verdana'" font-size="12.5" lengthAdjust="spacing" textLength="84.9487" x="446.8333" y="643.1536">(Acquisitions)</text><text fill="#FFFFFF" font-family="'Verdana'" font-size="10.4167" lengthAdjust="spacing" textLength="89.6759" x="446.8333" y="655.7705">Tax: Disregarded</text></g><!--link PR to DT--><!--link PR to DT--><g class="link" data-entity-1="PR" data-entity-2="DT" data-source-line="72" data-uid="lnk38" id="link_PR_DT"><path d="M838.3854,133.3229 C838.3854,149.8333 838.3854,163.0313 838.3854,179.5208" fill="none" id="PR-to-DT" style="stroke:#446E9B;stroke-width:3.125;"/><polygon fill="#446E9B" points="838.3854,185.7708,842.5521,176.3958,838.3854,180.5625,834.2188,176.3958,838.3854,185.7708" style="stroke:#446E9B;stroke-width:3.125;"/><text fill="#FFFFFF" font-family="'Verdana'" font-size="12.5" lengthAdjust="spacing" textLength="54.6082" x="777.9688" y="151.3528">Grantors</text></g><!--link DT to PNR--><!--link DT to PNR--><g class="link" data-entity-1="DT" data-entity-2="PNR" data-source-line="73" data-uid="lnk39" id="link_DT_PNR"><path d="M951.0104,234.875 C1085.1146,234.875 1384.9583,234.875 1384.9583,234.875 C1384.9583,234.875 1384.9583,276.7917 1384.9583,312.1667" fill="none" id="DT-to-PNR" style="stroke:#446E9B;stroke-width:3.125;"/><polygon fill="#446E9B" points="1384.9583,318.4167,1389.125,309.0417,1384.9583,313.2083,1380.7917,309.0417,1384.9583,318.4167" style="stroke:#446E9B;stroke-width:3.125;"/><text fill="#FFFFFF" font-family="'Verdana'" font-size="12.5" lengthAdjust="spacing" textLength="74.2065" x="1129.5521" y="226.6861">Owns 100%</text></g><!--link PNR to CXI--><!--link PNR to CXI--><g class="link" data-entity-1="PNR" data-entity-2="CXI" data-source-line="81" data-uid="lnk45" id="link_PNR_CXI"><path d="M1336.1458,391.75 C1336.1458,412.7083 1336.1458,434.875 1336.1458,434.875 C1336.1458,434.875 515.0313,434.875 515.0313,434.875 C515.0313,434.875 515.0313,450.0417 515.0313,470.4583" fill="none" id="PNR-to-CXI" style="stroke:#446E9B;stroke-width:3.125;"/><polygon fill="#446E9B" points="515.0313,476.7083,519.1979,467.3333,515.0313,471.5,510.8646,467.3333,515.0313,476.7083" style="stroke:#446E9B;stroke-width:3.125;"/></g><!--link 401K to HSA--><!--link HSA to SDIRA--><!--link 401K to PR--><!--link PR to 401K--><g class="link" data-entity-1="PR" data-entity-2="401K" data-source-line="66" data-uid="lnk34" id="link_PR_401K"><path d="M793.5729,133.1354 C793.5729,173.4583 793.5729,232.7917 793.5729,232.7917 C793.5729,232.7917 434.2188,232.7917 271.4167,232.7917" fill="none" id="PR-to-401K" style="stroke:#446E9B;stroke-width:3.125;"/><polygon fill="#446E9B" points="265.1667,232.7917,274.5417,236.9583,270.375,232.7917,274.5417,228.625,265.1667,232.7917" style="stroke:#446E9B;stroke-width:3.125;"/><text fill="#FFFFFF" font-family="'Verdana'" font-size="12.5" lengthAdjust="spacing" textLength="67.4744" x="506.2813" y="224.6028">Participant</text></g><!--link DT to SUBT--><!--link DT to SUBT--><g class="link" data-entity-1="DT" data-entity-2="SUBT" data-source-line="75" data-uid="lnk41" id="link_DT_SUBT"><path d="M851.1458,258.9375 C851.1458,277.5313 851.1458,293.7917 851.1458,312.3646" fill="none" id="DT-to-SUBT" style="stroke:#446E9B;stroke-width:3.125;stroke-dasharray:7.2917,7.2917;"/><polygon fill="#446E9B" points="851.1458,318.6146,855.3125,309.2396,851.1458,313.4063,846.9792,309.2396,851.1458,318.6146" style="stroke:#446E9B;stroke-width:3.125;"/><text fill="#FFFFFF" font-family="'Verdana'" font-size="12.5" lengthAdjust="spacing" textLength="68.0847" x="777.1875" y="280.5819">Distributes</text></g><!--link OE to DT--><!--link DT to OE--><g class="link" data-entity-1="DT" data-entity-2="OE" data-source-line="74" data-uid="lnk40" id="link_DT_OE"><path d="M928.0417,258.9375 C928.0417,277.5313 928.0417,293.7917 928.0417,312.3646" fill="none" id="DT-to-OE" style="stroke:#446E9B;stroke-width:3.125;stroke-dasharray:7.2917,7.2917;"/><polygon fill="#446E9B" points="928.0417,318.6146,932.2083,309.2396,928.0417,313.4063,923.875,309.2396,928.0417,318.6146" style="stroke:#446E9B;stroke-width:3.125;"/><text fill="#FFFFFF" font-family="'Verdana'" font-size="12.5" lengthAdjust="spacing" textLength="70.2942" x="852" y="306.6236">Beneficiary</text></g><!--link PNR to CAP--><!--link PNR to CAP--><g class="link" data-entity-1="PNR" data-entity-2="CAP" data-source-line="78" data-uid="lnk42" id="link_PNR_CAP"><path d="M1442.8021,391.7813 C1442.8021,417.1979 1442.8021,444.6771 1442.8021,470.1146" fill="none" id="PNR-to-CAP" style="stroke:#446E9B;stroke-width:3.125;"/><polygon fill="#446E9B" points="1442.8021,476.3646,1446.9688,466.9896,1442.8021,471.1563,1438.6354,466.9896,1442.8021,476.3646" style="stroke:#446E9B;stroke-width:3.125;"/></g><!--link OBU to CXI--><!--link PR to HSA--><g class="link" data-entity-1="PR" data-entity-2="HSA" data-source-line="67" data-uid="lnk35" id="link_PR_HSA"><path d="M731.375,97.375 C562.7292,97.375 78.9688,97.375 78.9688,97.375 C78.9688,97.375 78.9688,252.4271 78.9688,319.8438" fill="none" id="PR-to-HSA" style="stroke:#446E9B;stroke-width:3.125;"/><polygon fill="#446E9B" points="78.9688,326.0938,83.1354,316.7188,78.9688,320.8854,74.8021,316.7188,78.9688,326.0938" style="stroke:#446E9B;stroke-width:3.125;"/><text fill="#FFFFFF" font-family="'Verdana'" font-size="12.5" lengthAdjust="spacing" textLength="40.8142" x="243.9375" y="89.1861">Owner</text></g><!--link CXI to 401K--><g class="link" data-entity-1="CXI" data-entity-2="401K" data-source-line="68" data-uid="lnk36" id="link_CXI_401K"><path d="M421.1458,514.0417 C349.5,514.0417 248.9896,514.0417 248.9896,514.0417 C248.9896,514.0417 248.9896,331.8229 248.9896,257.8333" fill="none" id="CXI-to-401K" style="stroke:#446E9B;stroke-width:3.125;"/><polygon fill="#446E9B" points="248.9896,251.5833,244.8229,260.9583,248.9896,256.7917,253.1563,260.9583,248.9896,251.5833" style="stroke:#446E9B;stroke-width:3.125;"/><text fill="#FFFFFF" font-family="'Verdana'" font-size="12.5" lengthAdjust="spacing" textLength="101.4709" x="141.6979" y="460.7069">Employer Match</text></g><!--link 401K to SDIRA--><g class="link" data-entity-1="401K" data-entity-2="SDIRA" data-source-line="69" data-uid="lnk37" id="link_401K_SDIRA"><path d="M221.9375,251.75 C221.9375,307.625 221.9375,422.0729 221.9375,477.6771" fill="none" id="401K-to-SDIRA" style="stroke:#446E9B;stroke-width:3.125;"/><polygon fill="#446E9B" points="221.9375,483.9271,226.1042,474.5521,221.9375,478.7188,217.7708,474.5521,221.9375,483.9271" style="stroke:#446E9B;stroke-width:3.125;"/><text fill="#FFFFFF" font-family="'Verdana'" font-size="12.5" lengthAdjust="spacing" textLength="102.3621" x="228.1875" y="359.6549">Funds (Rollover)</text></g><!--link PNR to OBU--><g class="link" data-entity-1="PNR" data-entity-2="OBU" data-source-line="79" data-uid="lnk43" id="link_PNR_OBU"><path d="M1338.2292,391.75 C1338.2292,420.5 1338.2292,455.7083 1338.2292,455.7083 C1338.2292,455.7083 949.1875,455.7083 949.1875,455.7083 C949.1875,455.7083 949.1875,458.9271 949.1875,470.1667" fill="none" id="PNR-to-OBU" style="stroke:#446E9B;stroke-width:3.125;"/><polygon fill="#446E9B" points="949.1875,476.4167,953.3542,467.0417,949.1875,471.2083,945.0208,467.0417,949.1875,476.4167" style="stroke:#446E9B;stroke-width:3.125;"/></g><!--link PNR to TORI--><g class="link" data-entity-1="PNR" data-entity-2="TORI" data-source-line="80" data-uid="lnk44" id="link_PNR_TORI"><path d="M1340.3229,391.6146 C1340.3229,438.5208 1340.3229,514.0417 1340.3229,514.0417 C1340.3229,514.0417 1261.8542,514.0417 1195.5104,514.0417" fill="none" id="PNR-to-TORI" style="stroke:#446E9B;stroke-width:3.125;"/><polygon fill="#446E9B" points="1189.2604,514.0417,1198.6354,518.2083,1194.4688,514.0417,1198.6354,509.875,1189.2604,514.0417" style="stroke:#446E9B;stroke-width:3.125;"/></g><!--link PNR to KW--><g class="link" data-entity-1="PNR" data-entity-2="KW" data-source-line="82" data-uid="lnk46" id="link_PNR_KW"><path d="M1331.625,368.2083 C1306.0729,368.2083 1284.2604,368.2083 1284.2604,368.2083 C1284.2604,368.2083 1284.2604,708.8333 1284.2604,708.8333 C1284.2604,708.8333 512.5104,708.8333 512.5104,708.8333 C512.5104,708.8333 512.5104,709.9271 512.5104,719.1667" fill="none" id="PNR-to-KW" style="stroke:#446E9B;stroke-width:3.125;"/><polygon fill="#446E9B" points="512.5104,725.4167,516.6771,716.0417,512.5104,720.2083,508.3438,716.0417,512.5104,725.4167" style="stroke:#446E9B;stroke-width:3.125;"/></g><!--link PNR to NEAT--><g class="link" data-entity-1="PNR" data-entity-2="NEAT" data-source-line="83" data-uid="lnk47" id="link_PNR_NEAT"><path d="M1342.4063,391.6771 C1342.4063,470.6875 1342.4063,650.5 1342.4063,650.5 C1342.4063,650.5 951.2917,650.5 775.125,650.5" fill="none" id="PNR-to-NEAT" style="stroke:#446E9B;stroke-width:3.125;"/><polygon fill="#446E9B" points="768.875,650.5,778.25,654.6667,774.0833,650.5,778.25,646.3333,768.875,650.5" style="stroke:#446E9B;stroke-width:3.125;"/></g><!--link PNR to LODGE--><g class="link" data-entity-1="PNR" data-entity-2="LODGE" data-source-line="84" data-uid="lnk48" id="link_PNR_LODGE"><path d="M1344.4896,391.6354 C1344.4896,493.6563 1344.4896,774.4583 1344.4896,774.4583 C1344.4896,774.4583 951.25,774.4583 775.3021,774.4583" fill="none" id="PNR-to-LODGE" style="stroke:#446E9B;stroke-width:3.125;"/><polygon fill="#446E9B" points="769.0521,774.4583,778.4271,778.625,774.2604,774.4583,778.4271,770.2917,769.0521,774.4583" style="stroke:#446E9B;stroke-width:3.125;"/></g><!--link PNR to ULOR--><g class="link" data-entity-1="PNR" data-entity-2="ULOR" data-source-line="85" data-uid="lnk49" id="link_PNR_ULOR"><path d="M1331.6875,343.2083 C1285.5521,343.2083 1236.5625,343.2083 1236.5625,343.2083 C1236.5625,343.2083 1236.5625,575.5 1236.5625,575.5 C1236.5625,575.5 511.8229,575.5 511.8229,575.5 C511.8229,575.5 511.8229,581.3542 511.8229,594.875" fill="none" id="PNR-to-ULOR" style="stroke:#446E9B;stroke-width:3.125;"/><polygon fill="#446E9B" points="511.8229,601.125,515.9896,591.75,511.8229,595.9167,507.6563,591.75,511.8229,601.125" style="stroke:#446E9B;stroke-width:3.125;"/></g><!--link CXI to KW--><g class="link" data-entity-1="CXI" data-entity-2="KW" data-source-line="88" data-uid="lnk50" id="link_CXI_KW"><path d="M555.7292,549.6667 C555.7292,619.0938 555.7292,763 555.7292,763 C555.7292,763 561.5938,763 560.8958,763" fill="none" id="CXI-to-KW" style="stroke:#446E9B;stroke-width:3.125;stroke-dasharray:7.2917,7.2917;"/><polygon fill="#446E9B" points="554.6458,763,564.0208,767.1667,559.8542,763,564.0208,758.8333,554.6458,763" style="stroke:#446E9B;stroke-width:3.125;"/><text fill="#FFFFFF" font-family="'Verdana'" font-size="12.5" lengthAdjust="spacing" textLength="56.1646" x="545.0521" y="674.7278">Manages</text></g><!--link CXI to NEAT--><g class="link" data-entity-1="CXI" data-entity-2="NEAT" data-source-line="89" data-uid="lnk51" id="link_CXI_NEAT"><path d="M558.75,549.5313 C558.75,586.4063 558.75,638 558.75,638 C558.75,638 573.1771,638 597.8854,638" fill="none" id="CXI-to-NEAT" style="stroke:#446E9B;stroke-width:3.125;stroke-dasharray:7.2917,7.2917;"/><polygon fill="#446E9B" points="604.1354,638,594.7604,633.8333,598.9271,638,594.7604,642.1667,604.1354,638" style="stroke:#446E9B;stroke-width:3.125;"/><text fill="#FFFFFF" font-family="'Verdana'" font-size="12.5" lengthAdjust="spacing" textLength="56.1646" x="565" y="608.2694">Manages</text></g><!--link CXI to LODGE--><g class="link" data-entity-1="CXI" data-entity-2="LODGE" data-source-line="90" data-uid="lnk52" id="link_CXI_LODGE"><path d="M557.2396,549.6875 C557.2396,614.8854 557.2396,744.25 557.2396,744.25 C557.2396,744.25 573.5313,744.25 599.8646,744.25" fill="none" id="CXI-to-LODGE" style="stroke:#446E9B;stroke-width:3.125;stroke-dasharray:7.2917,7.2917;"/><polygon fill="#446E9B" points="606.1146,744.25,596.7396,740.0833,600.9063,744.25,596.7396,748.4167,606.1146,744.25" style="stroke:#446E9B;stroke-width:3.125;"/><text fill="#FFFFFF" font-family="'Verdana'" font-size="12.5" lengthAdjust="spacing" textLength="56.1646" x="495.7813" y="689.259">Manages</text></g><!--link CXI to ULOR--><g class="link" data-entity-1="CXI" data-entity-2="ULOR" data-source-line="91" data-uid="lnk53" id="link_CXI_ULOR"><path d="M471.5104,549.7604 C471.5104,565.9688 471.5104,578.7396 471.5104,594.9271" fill="none" id="CXI-to-ULOR" style="stroke:#446E9B;stroke-width:3.125;stroke-dasharray:7.2917,7.2917;"/><polygon fill="#446E9B" points="471.5104,601.1771,475.6771,591.8021,471.5104,595.9688,467.3438,591.8021,471.5104,601.1771" style="stroke:#446E9B;stroke-width:3.125;"/><text fill="#FFFFFF" font-family="'Verdana'" font-size="12.5" lengthAdjust="spacing" textLength="56.1646" x="410.0521" y="567.2799">Manages</text></g><!--link TORI to KW--><g class="link" data-entity-1="TORI" data-entity-2="KW" data-source-line="93" data-uid="lnk54" id="link_TORI_KW"><path d="M1111.4583,549.7396 C1111.4583,602.1354 1111.4583,692.1667 1111.4583,692.1667 C1111.4583,692.1667 472.9063,692.1667 472.9063,692.1667 C472.9063,692.1667 472.9063,702.3438 472.9063,719.2813" fill="none" id="TORI-to-KW" style="stroke:#446E9B;stroke-width:3.125;stroke-dasharray:7.2917,7.2917;"/><polygon fill="#446E9B" points="472.9063,725.5313,477.0729,716.1563,472.9063,720.3229,468.7396,716.1563,472.9063,725.5313" style="stroke:#446E9B;stroke-width:3.125;"/><text fill="#FFFFFF" font-family="'Verdana'" font-size="12.5" lengthAdjust="spacing" textLength="68.8354" x="771.7083" y="710.0194">Licenses IP</text></g><!--link TORI to NEAT--><g class="link" data-entity-1="TORI" data-entity-2="NEAT" data-source-line="94" data-uid="lnk55" id="link_TORI_NEAT"><path d="M1072.7604,549.5938 C1072.7604,582.7604 1072.7604,626.5417 1072.7604,626.5417 C1072.7604,626.5417 888.5625,626.5417 775.1042,626.5417" fill="none" id="TORI-to-NEAT" style="stroke:#446E9B;stroke-width:3.125;stroke-dasharray:7.2917,7.2917;"/><polygon fill="#446E9B" points="768.8542,626.5417,778.2292,630.7083,774.0625,626.5417,778.2292,622.375,768.8542,626.5417" style="stroke:#446E9B;stroke-width:3.125;"/><text fill="#FFFFFF" font-family="'Verdana'" font-size="12.5" lengthAdjust="spacing" textLength="68.8354" x="884.2813" y="618.3528">Licenses IP</text></g><!--link TORI to LODGE--><g class="link" data-entity-1="TORI" data-entity-2="LODGE" data-source-line="95" data-uid="lnk56" id="link_TORI_LODGE"><path d="M1150.1563,549.6354 C1150.1563,616.2396 1150.1563,750.5 1150.1563,750.5 C1150.1563,750.5 908.2188,750.5 775.3958,750.5" fill="none" id="TORI-to-LODGE" style="stroke:#446E9B;stroke-width:3.125;stroke-dasharray:7.2917,7.2917;"/><polygon fill="#446E9B" points="769.1458,750.5,778.5208,754.6667,774.3542,750.5,778.5208,746.3333,769.1458,750.5" style="stroke:#446E9B;stroke-width:3.125;"/><text fill="#FFFFFF" font-family="'Verdana'" font-size="12.5" lengthAdjust="spacing" textLength="68.8354" x="985.0833" y="742.3111">Licenses IP</text></g><!--link NEAT to KW--><g class="link" data-entity-1="NEAT" data-entity-2="KW" data-source-line="97" data-uid="lnk57" id="link_NEAT_KW"><path d="M604.0417,656.75 C580.1042,656.75 560.2604,656.75 560.2604,656.75 C560.2604,656.75 560.2604,780.7083 560.2604,780.7083 C560.2604,780.7083 564.3646,780.7083 560.8438,780.7083" fill="none" id="NEAT-to-KW" style="stroke:#446E9B;stroke-width:3.125;stroke-dasharray:7.2917,7.2917;"/><polygon fill="#446E9B" points="554.5938,780.7083,563.9688,784.875,559.8021,780.7083,563.9688,776.5417,554.5938,780.7083" style="stroke:#446E9B;stroke-width:3.125;"/><text fill="#FFFFFF" font-family="'Verdana'" font-size="12.5" lengthAdjust="spacing" textLength="67.9626" x="486.3021" y="717.5299">Automates</text></g><!--link NEAT to LODGE--><g class="link" data-entity-1="NEAT" data-entity-2="LODGE" data-source-line="98" data-uid="lnk58" id="link_NEAT_LODGE"><path d="M687.4479,674.3125 C687.4479,690.5313 687.4479,703.3021 687.4479,719.4896" fill="none" id="NEAT-to-LODGE" style="stroke:#446E9B;stroke-width:3.125;stroke-dasharray:7.2917,7.2917;"/><polygon fill="#446E9B" points="687.4479,725.7396,691.6146,716.3646,687.4479,720.5313,683.2813,716.3646,687.4479,725.7396" style="stroke:#446E9B;stroke-width:3.125;"/><text fill="#FFFFFF" font-family="'Verdana'" font-size="12.5" lengthAdjust="spacing" textLength="67.9626" x="613.4896" y="691.8424">Automates</text></g><!--reverse link OBU to ULOR--><g class="link" data-entity-1="OBU" data-entity-2="ULOR" data-source-line="100" data-uid="lnk60" id="link_OBU_ULOR"><path d="M820.1875,525.5 C725.1667,525.5 583.0833,525.5 583.0833,525.5 C583.0833,525.5 583.0833,620.2917 583.0833,620.2917 C583.0833,620.2917 569.4063,620.2917 552.6354,620.2917" fill="none" id="OBU-backto-ULOR" style="stroke:#446E9B;stroke-width:3.125;stroke-dasharray:7.2917,7.2917;"/><polygon fill="#446E9B" points="826.4375,525.5,817.0625,521.3333,821.2292,525.5,817.0625,529.6667,826.4375,525.5" style="stroke:#446E9B;stroke-width:3.125;"/><text fill="#FFFFFF" font-family="'Verdana'" font-size="12.5" lengthAdjust="spacing" textLength="105.1636" x="648.3958" y="517.3111">Assigns Contract</text></g><!--SRC=[bLRRRjiu47tNLymsMDHvS6etpI8nYW2AhIH67CkGbFJ-m4XJcx1CQacggNUn_xv3qXVPIO3M3xOq79wvd_4VPeOB15sn74ls4EWv5nLJR06vN5HIe32fMPO82dF3nBJ4Xah91PfbXI2LcSd6WP05QgpWfDCGAYRcAs7m6jhjDeoY-sW4dHvSHEFeSfZ1AFmK9T2QeD9Ii18ozXFI6PQ618VsIa1-pjaKuTK52lpE3OpO4XMqhEQbGdmpmE-e51Q7h-3V0EZp9PMbX7UTxXmoLMlpLRpN_1_iTJldTAa7qKzSL0PQ9oUTJZlwVFZ-ZJq-_mPCsritS715kC9ZNQSXX7akQ_4YpgLK2pWzFJtRGR8Ncq3fO9Y4C1hrzs46N2kSCbLW0ItIsK7njrOu_-sciTk3DBwFacXuDSu-xIOhbJzG8PyAi_G9soHdehZ8USLA_LMqRfaWTKhrlbCkfcxdNQVfp2Jn48EbO9g0LzbjfR8sCnYmkJJiHQHk4scGmS6O_LXwl5ZnAHSGBT7wTDBfviVGdp75pV9vkBEp7R_Yg9bfz_KQqlgXxHpKS46DcC-yhIiKyBPnI0PzO-MS3AB-DV_Jkujr17j5UTk3B8d2z2xPgqYcaEbQFId7E85hMHPSJBNlZjQ7fLpGAwnlF75fmfGHLBKPhw3LxVnrijCo5l7WeYIxtaAVLOR_G1WA0gD489auFUu-GCBr76wd2_D2pDstdVQatuJkXvCNUl6Ol0hJT7WV0Vr4MReR_8HfRNtuJFm2hJIVOL4JnKJRcOqVwZck4f0WCK6a3JFucx775tSxGvT9nM-nu6o5F9ouPFVbR-9cSJ9y8V9tFGZxcGqydaH9c0tZyLxmOMwsiSUAIise3OQ2-1Qt2UX_7AwSz4Ev829-ucNQxajb7RIrINTSjFUfx3Lwk9j7OkGLuFNoGV42ukgPk1liqqIx-G072HOUQupCG9-hl5mZXhMH2sQu511EKUJBNyKTHs7MG1x9OcfRlI-5e7L3U7OWhwMkk67bS_F_0kue7bn53U2xKggrh_dVDTVSWVygtDqeJZpQfjhXY6ZsDXfdqBhcHO72hwT90kqlCoVuLiX7qIPk2uZUzeGqb84Tp3qn5StYhrQRXh0aohQL3zmYsjEcbHBOjR8dTZjYnv4IlvksssKMVKDs3VYcXyI-CrAtd6RLNPzkDObSzpKfmfrOLc9YXy0Eu1Ev3z8cCOb6VaAkXnC_9SteBqlvwE9ed_j5xCUIstL5dgnER0Pw43_Ij0QswHlQqQ8gfVrtSCiC4RxF8HtxBKgyLej2GokHPMdtuw7BJcDJDXsW3FNWYWZJIALTlaXemtQsDQs4pfzMV7HqRXTG3xPhPBcMkpNXcime_b0RrDRYPXDuSsDlpsPl_KnPt3nRwjagVTm-ttpOFDgfshouKTYysKwsHkCAbHjOebPdrwRE-aYJtWDFENeZT6FwLEodxAdSZSjM73Ywt82FU8v2euRXP7koil3isTfCyp1m5pQOAm8YOnlv-jRsA71-7TNLaKkfFQCrDANY4TyOnNBpFm00]--></g></svg>