<svg xmlns="http://www.w3.org/2000/svg" xmlns:xlink="http://www.w3.org/1999/xlink" contentStyleType="text/css" data-diagram-type="DESCRIPTION" height="909.375px" preserveAspectRatio="none" style="width:1314px;height:909px;" version="1.1" viewBox="0 0 1314 909" width="1314.5833px" zoomAndPan="magnify"><defs><linearGradient id="gmrhpmh7ercxi0" x1="50%" x2="50%" y1="0%" y2="100%"><stop offset="0%" stop-color="#B8B8B8"/><stop offset="100%" stop-color="#6B6B6B"/></linearGradient><linearGradient id="gmrhpmh7ercxi1" x1="50%" x2="50%" y1="0%" y2="100%"><stop offset="0%" stop-color="#7C9AB9"/><stop offset="100%" stop-color="#304D6D"/></linearGradient></defs><g><!--cluster Sovereignty Layer (The Fortress)--><g class="cluster" data-entity="Sovereignty Layer .The Fortress." data-source-line="8" data-uid="ent0002" id="cluster_Sovereignty Layer .The Fortress."><path d="M20.8333,16.6667 L262.6444,16.6667 A6.25,6.25 0 0 1 266.8111,20.8333 L274.1028,47.8841 L362.5,47.8841 A4.1667,4.1667 0 0 1 366.6667,52.0508 L366.6667,256.1146 A4.1667,4.1667 0 0 1 362.5,260.2812 L20.8333,260.2812 A4.1667,4.1667 0 0 1 16.6667,256.1146 L16.6667,20.8333 A4.1667,4.1667 0 0 1 20.8333,16.6667" fill="url(#gmrhpmh7ercxi0)" style="stroke:#446E9B;stroke-width:2.0833;"/><line style="stroke:#446E9B;stroke-width:2.0833;" x1="16.6667" x2="274.1028" y1="47.8841" y2="47.8841"/><text fill="#446E9B" font-family="'Verdana'" font-size="12.5" font-weight="bold" lengthAdjust="spacing" textLength="233.4778" x="26.0417" y="35.5611">Sovereignty Layer (The Fortress)</text></g><!--cluster Treasury Layer (The Bank)--><g class="cluster" data-entity="Treasury Layer .The Bank." data-source-line="15" data-uid="ent0006" id="cluster_Treasury Layer .The Bank."><path d="M184.375,285.2812 L379.7139,285.2812 A6.25,6.25 0 0 1 383.8806,289.4479 L391.1723,316.4987 L389.5833,316.4987 A4.1667,4.1667 0 0 1 393.75,320.6654 L393.75,524.7396 A4.1667,4.1667 0 0 1 389.5833,528.9063 L184.375,528.9063 A4.1667,4.1667 0 0 1 180.2083,524.7396 L180.2083,289.4479 A4.1667,4.1667 0 0 1 184.375,285.2812" fill="url(#gmrhpmh7ercxi0)" style="stroke:#446E9B;stroke-width:2.0833;"/><line style="stroke:#446E9B;stroke-width:2.0833;" x1="180.2083" x2="391.1723" y1="316.4987" y2="316.4987"/><text fill="#446E9B" font-family="'Verdana'" font-size="12.5" font-weight="bold" lengthAdjust="spacing" textLength="187.0056" x="189.5833" y="304.1757">Treasury Layer (The Bank)</text></g><!--cluster Asset Layer (The Vault)--><g class="cluster" data-entity="Asset Layer .The Vault." data-source-line="21" data-uid="ent0009" id="cluster_Asset Layer .The Vault."><path d="M918.75,408.1354 L1092.9342,408.1354 A6.25,6.25 0 0 1 1097.1008,412.3021 L1104.3925,439.3529 L1297.9167,439.3529 A4.1667,4.1667 0 0 1 1302.0833,443.5195 L1302.0833,524.7396 A4.1667,4.1667 0 0 1 1297.9167,528.9063 L918.75,528.9063 A4.1667,4.1667 0 0 1 914.5833,524.7396 L914.5833,412.3021 A4.1667,4.1667 0 0 1 918.75,408.1354" fill="url(#gmrhpmh7ercxi0)" style="stroke:#446E9B;stroke-width:2.0833;"/><line style="stroke:#446E9B;stroke-width:2.0833;" x1="914.5833" x2="1104.3925" y1="439.3529" y2="439.3529"/><text fill="#446E9B" font-family="'Verdana'" font-size="12.5" font-weight="bold" lengthAdjust="spacing" textLength="165.8508" x="923.9583" y="427.0299">Asset Layer (The Vault)</text></g><!--cluster Operating Layer (The Engines)--><g class="cluster" data-entity="Operating Layer .The Engines." data-source-line="27" data-uid="ent0012" id="cluster_Operating Layer .The Engines."><path d="M497.9167,408.1354 L722.0703,408.1354 A6.25,6.25 0 0 1 726.237,412.3021 L733.5286,439.3529 L885.4167,439.3529 A4.1667,4.1667 0 0 1 889.5833,443.5195 L889.5833,893.2917 A4.1667,4.1667 0 0 1 885.4167,897.4583 L497.9167,897.4583 A4.1667,4.1667 0 0 1 493.75,893.2917 L493.75,412.3021 A4.1667,4.1667 0 0 1 497.9167,408.1354" fill="url(#gmrhpmh7ercxi0)" style="stroke:#446E9B;stroke-width:2.0833;"/><line style="stroke:#446E9B;stroke-width:2.0833;" x1="493.75" x2="733.5286" y1="439.3529" y2="439.3529"/><text fill="#446E9B" font-family="'Verdana'" font-size="12.5" font-weight="bold" lengthAdjust="spacing" textLength="215.8203" x="503.125" y="427.0299">Operating Layer (The Engines)</text></g><!--entity PR--><g class="entity" data-entity="PR" data-source-line="9" data-uid="ent0003" id="entity_PR"><rect fill="url(#gmrhpmh7ercxi1)" height="60.3516" rx="4.1667" ry="4.1667" style="stroke:#304D6D;stroke-width:1.0417;" width="102.3071" x="236.3438" y="60.4167"/><text fill="#FFFFFF" font-family="'Verdana'" font-size="12.5" lengthAdjust="spacing" textLength="59.9976" x="251.9688" y="87.6444">Principals</text><text fill="#FFFFFF" font-family="'Verdana'" font-size="12.5" lengthAdjust="spacing" textLength="71.0571" x="251.9688" y="102.1952">(Managers)</text></g><!--entity DT--><g class="entity" data-entity="DT" data-source-line="10" data-uid="ent0004" id="entity_DT"><rect fill="#000080" height="60.3516" rx="4.1667" ry="4.1667" style="stroke:#304D6D;stroke-width:1.0417;" width="126.0376" x="224.4792" y="183.2604"/><text fill="#FFFFFF" font-family="'Verdana'" font-size="12.5" lengthAdjust="spacing" textLength="87.5" x="240.1042" y="210.4882">Dynasty Trust</text><text fill="#FFFFFF" font-family="'Verdana'" font-size="12.5" lengthAdjust="spacing" textLength="94.7876" x="240.1042" y="225.039">(South Dakota)</text></g><!--entity OE--><g class="entity" data-entity="OE" data-source-line="11" data-uid="ent0005" id="entity_OE"><rect fill="#008000" height="60.3516" rx="4.1667" ry="4.1667" style="stroke:#304D6D;stroke-width:1.0417;" width="128.8818" x="33.4792" y="183.2604"/><text fill="#FFFFFF" font-family="'Verdana'" font-size="12.5" lengthAdjust="spacing" textLength="71.2524" x="49.1042" y="210.4882">Origin Eyes</text><text fill="#FFFFFF" font-family="'Verdana'" font-size="12.5" lengthAdjust="spacing" textLength="97.6318" x="49.1042" y="225.039">(501c3 Charity)</text></g><!--entity PNR--><g class="entity" data-entity="PNR" data-source-line="16" data-uid="ent0007" id="entity_PNR"><rect fill="#000000" height="60.3516" rx="4.1667" ry="4.1667" style="stroke:#304D6D;stroke-width:1.0417;" width="158.9844" x="208.0104" y="329.0312"/><text fill="#FFFFFF" font-family="'Verdana'" font-size="12.5" lengthAdjust="spacing" textLength="110.4736" x="223.6354" y="356.259">PNR Holdings LLC</text><text fill="#FFFFFF" font-family="'Verdana'" font-size="12.5" lengthAdjust="spacing" textLength="127.7344" x="223.6354" y="370.8098">(Wyoming Treasury)</text></g><!--entity CAP--><g class="entity" data-entity="CAP" data-source-line="17" data-uid="ent0008" id="entity_CAP"><rect fill="#008000" height="60.3516" rx="4.1667" ry="4.1667" style="stroke:#304D6D;stroke-width:1.0417;" width="144.3359" x="208.0417" y="451.8854"/><text fill="#FFFFFF" font-family="'Verdana'" font-size="12.5" lengthAdjust="spacing" textLength="113.0859" x="223.6667" y="479.1132">Captive Insurance</text><text fill="#FFFFFF" font-family="'Verdana'" font-size="12.5" lengthAdjust="spacing" textLength="111.2" x="223.6667" y="493.664">(831b Risk Mgmt)</text></g><!--entity OBU--><g class="entity" data-entity="OBU" data-source-line="22" data-uid="ent0010" id="entity_OBU"><rect fill="#008000" height="60.3516" rx="4.1667" ry="4.1667" style="stroke:#304D6D;stroke-width:1.0417;" width="172.6318" x="1112.6458" y="451.8854"/><text fill="#FFFFFF" font-family="'Verdana'" font-size="12.5" lengthAdjust="spacing" textLength="67.2546" x="1128.2708" y="479.1132">Obuke LLC</text><text fill="#FFFFFF" font-family="'Verdana'" font-size="12.5" lengthAdjust="spacing" textLength="141.3818" x="1128.2708" y="493.664">(Parent of Series 1-10)</text></g><!--entity TORI--><g class="entity" data-entity="TORI" data-source-line="23" data-uid="ent0011" id="entity_TORI"><rect fill="#008000" height="60.3516" rx="4.1667" ry="4.1667" style="stroke:#304D6D;stroke-width:1.0417;" width="119.3176" x="930.9688" y="451.8854"/><text fill="#FFFFFF" font-family="'Verdana'" font-size="12.5" lengthAdjust="spacing" textLength="88.0676" x="946.5938" y="479.1132">ToriMedia LLC</text><text fill="#FFFFFF" font-family="'Verdana'" font-size="12.5" lengthAdjust="spacing" textLength="69.7815" x="946.5938" y="493.664">(IP HoldCo)</text></g><!--entity CXI--><g class="entity" data-entity="CXI" data-source-line="28" data-uid="ent0013" id="entity_CXI"><rect fill="#0000FF" height="60.3516" rx="4.1667" ry="4.1667" style="stroke:#304D6D;stroke-width:1.0417;" width="169.2139" x="668.5208" y="451.8854"/><text fill="#FFFFFF" font-family="'Verdana'" font-size="12.5" lengthAdjust="spacing" textLength="47.6074" x="684.1458" y="479.1132">CXI LLC</text><text fill="#FFFFFF" font-family="'Verdana'" font-size="12.5" lengthAdjust="spacing" textLength="137.9639" x="684.1458" y="493.664">(Management S-Corp)</text></g><!--entity KW--><g class="entity" data-entity="KW" data-source-line="29" data-uid="ent0014" id="entity_KW"><rect fill="#FF0000" height="60.3516" rx="4.1667" ry="4.1667" style="stroke:#304D6D;stroke-width:1.0417;" width="169.4458" x="574.6563" y="574.7396"/><text fill="#FFFFFF" font-family="'Verdana'" font-size="12.5" lengthAdjust="spacing" textLength="68.3228" x="590.2813" y="601.9674">Kwode LLC</text><text fill="#FFFFFF" font-family="'Verdana'" font-size="12.5" lengthAdjust="spacing" textLength="138.1958" x="590.2813" y="616.5181">(Hybrid OpCo/HoldCo)</text></g><!--entity NEAT--><g class="entity" data-entity="NEAT" data-source-line="30" data-uid="ent0015" id="entity_NEAT"><rect fill="#FF0000" height="60.3516" rx="4.1667" ry="4.1667" style="stroke:#304D6D;stroke-width:1.0417;" width="142.4438" x="588.1563" y="697.5833"/><text fill="#FFFFFF" font-family="'Verdana'" font-size="12.5" lengthAdjust="spacing" textLength="95.5811" x="603.7813" y="724.8111">Neat Circle LLC</text><text fill="#FFFFFF" font-family="'Verdana'" font-size="12.5" lengthAdjust="spacing" textLength="111.1938" x="603.7813" y="739.3619">(Automation BPA)</text></g><!--entity LODGE--><g class="entity" data-entity="LODGE" data-source-line="31" data-uid="ent0016" id="entity_LODGE"><rect fill="#FF0000" height="60.3516" rx="4.1667" ry="4.1667" style="stroke:#304D6D;stroke-width:1.0417;" width="162.2742" x="518.8646" y="820.4375"/><text fill="#FFFFFF" font-family="'Verdana'" font-size="12.5" lengthAdjust="spacing" textLength="131.0242" x="534.4896" y="847.6653">Lodging Connections</text><text fill="#FFFFFF" font-family="'Verdana'" font-size="12.5" lengthAdjust="spacing" textLength="114.6484" x="534.4896" y="862.2161">(Hospitality OpCo)</text></g><!--entity ULOR--><g class="entity" data-entity="ULOR" data-source-line="32" data-uid="ent0017" id="entity_ULOR"><rect fill="#FF0000" height="60.3516" rx="4.1667" ry="4.1667" style="stroke:#304D6D;stroke-width:1.0417;" width="129.7485" x="743.4583" y="820.4375"/><text fill="#FFFFFF" font-family="'Verdana'" font-size="12.5" lengthAdjust="spacing" textLength="52.0386" x="759.0833" y="847.6653">Ulor LLC</text><text fill="#FFFFFF" font-family="'Verdana'" font-size="12.5" lengthAdjust="spacing" textLength="98.4985" x="759.0833" y="862.2161">(PA Acquisition)</text></g><!--link PR to DT--><!--link PR to DT--><g class="link" data-entity-1="PR" data-entity-2="DT" data-source-line="53" data-uid="lnk28" id="link_PR_DT"><path d="M304.5521,121.2708 C304.5521,140.1771 304.5521,158.0625 304.5521,176.8958" fill="none" id="PR-to-DT-1" style="stroke:#446E9B;stroke-width:3.125;"/><polygon fill="#446E9B" points="304.5521,183.1458,308.7188,173.7708,304.5521,177.9375,300.3854,173.7708,304.5521,183.1458" style="stroke:#446E9B;stroke-width:3.125;"/><text fill="#FFFFFF" font-family="'Verdana'" font-size="12.5" lengthAdjust="spacing" textLength="54.6082" x="244.1354" y="144.0194">Grantors</text></g><!--link DT to PNR--><!--link DT to PNR--><g class="link" data-entity-1="DT" data-entity-2="PNR" data-source-line="54" data-uid="lnk29" id="link_DT_PNR"><path d="M308.5104,244 C308.5104,268.875 308.5104,297.5729 308.5104,322.4375" fill="none" id="DT-to-PNR-1" style="stroke:#446E9B;stroke-width:3.125;"/><polygon fill="#446E9B" points="308.5104,328.6875,312.6771,319.3125,308.5104,323.4792,304.3438,319.3125,308.5104,328.6875" style="stroke:#446E9B;stroke-width:3.125;"/><text fill="#FFFFFF" font-family="'Verdana'" font-size="12.5" lengthAdjust="spacing" textLength="74.2065" x="228.3021" y="278.1549">Owns 100%</text></g><!--link PNR to CXI--><!--link PNR to CXI--><g class="link" data-entity-1="PNR" data-entity-2="CXI" data-source-line="60" data-uid="lnk35" id="link_PNR_CXI"><path d="M362.125,389.7812 C362.125,426.3958 362.125,482.875 362.125,482.875 C362.125,482.875 547.0313,482.875 662.0313,482.875" fill="none" id="PNR-to-CXI-1" style="stroke:#446E9B;stroke-width:3.125;"/><polygon fill="#446E9B" points="668.2813,482.875,658.9063,478.7083,663.0729,482.875,658.9063,487.0417,668.2813,482.875" style="stroke:#446E9B;stroke-width:3.125;"/></g><!--link OE to DT--><!--reverse link OE to DT--><g class="link" data-entity-1="OE" data-entity-2="DT" data-source-line="55" data-uid="lnk31" id="link_OE_DT"><path d="M168.8854,203.7083 C188.7292,203.7083 204.2813,203.7083 224.0417,203.7083" fill="none" id="OE-backto-DT" style="stroke:#446E9B;stroke-width:3.125;stroke-dasharray:7.2917,7.2917;"/><polygon fill="#446E9B" points="162.6354,203.7083,172.0104,207.875,167.8438,203.7083,172.0104,199.5417,162.6354,203.7083" style="stroke:#446E9B;stroke-width:3.125;"/><text fill="#FFFFFF" font-family="'Verdana'" font-size="12.5" lengthAdjust="spacing" textLength="70.2942" x="158.4375" y="221.5611">Beneficiary</text></g><!--link PNR to CAP--><!--link PNR to CAP--><g class="link" data-entity-1="PNR" data-entity-2="CAP" data-source-line="57" data-uid="lnk32" id="link_PNR_CAP"><path d="M304.2604,389.8958 C304.2604,408.8021 304.2604,426.6875 304.2604,445.5208" fill="none" id="PNR-to-CAP" style="stroke:#446E9B;stroke-width:3.125;"/><polygon fill="#446E9B" points="304.2604,451.7708,308.4271,442.3958,304.2604,446.5625,300.0938,442.3958,304.2604,451.7708" style="stroke:#446E9B;stroke-width:3.125;"/></g><!--link OBU to TORI--><!--link CXI to KW--><!--link CXI to KW--><g class="link" data-entity-1="CXI" data-entity-2="KW" data-source-line="67" data-uid="lnk40" id="link_CXI_KW"><path d="M718.9063,512.75 C718.9063,531.6458 718.9063,549.5417 718.9063,568.375" fill="none" id="CXI-to-KW" style="stroke:#446E9B;stroke-width:3.125;stroke-dasharray:7.2917,7.2917;"/><polygon fill="#446E9B" points="718.9063,574.625,723.0729,565.25,718.9063,569.4167,714.7396,565.25,718.9063,574.625" style="stroke:#446E9B;stroke-width:3.125;"/><text fill="#FFFFFF" font-family="'Verdana'" font-size="12.5" lengthAdjust="spacing" textLength="56.1646" x="657.4479" y="535.4986">Manages</text></g><!--link KW to NEAT--><!--link NEAT to KW--><g class="link" data-entity-1="NEAT" data-entity-2="KW" data-source-line="76" data-uid="lnk47" id="link_NEAT_KW"><path d="M683.1146,697.0833 C683.1146,678.1771 683.1146,660.2917 683.1146,641.4583" fill="none" id="NEAT-to-KW" style="stroke:#446E9B;stroke-width:3.125;stroke-dasharray:7.2917,7.2917;"/><polygon fill="#446E9B" points="683.1146,635.2083,678.9479,644.5833,683.1146,640.4167,687.2813,644.5833,683.1146,635.2083" style="stroke:#446E9B;stroke-width:3.125;"/><text fill="#FFFFFF" font-family="'Verdana'" font-size="12.5" lengthAdjust="spacing" textLength="67.9626" x="609.1563" y="657.9569">Automates</text></g><!--link NEAT to LODGE--><!--link NEAT to LODGE--><g class="link" data-entity-1="NEAT" data-entity-2="LODGE" data-source-line="77" data-uid="lnk48" id="link_NEAT_LODGE"><path d="M634.6458,758.4479 C634.6458,777.3542 634.6458,795.2396 634.6458,814.0729" fill="none" id="NEAT-to-LODGE" style="stroke:#446E9B;stroke-width:3.125;stroke-dasharray:7.2917,7.2917;"/><polygon fill="#446E9B" points="634.6458,820.3229,638.8125,810.9479,634.6458,815.1146,630.4792,810.9479,634.6458,820.3229" style="stroke:#446E9B;stroke-width:3.125;"/><text fill="#FFFFFF" font-family="'Verdana'" font-size="12.5" lengthAdjust="spacing" textLength="67.9626" x="560.6875" y="781.1965">Automates</text></g><!--link LODGE to ULOR--><!--link PNR to OBU--><g class="link" data-entity-1="PNR" data-entity-2="OBU" data-source-line="58" data-uid="lnk33" id="link_PNR_OBU"><path d="M367.1875,344.3333 C589.2708,344.3333 1198.9583,344.3333 1198.9583,344.3333 C1198.9583,344.3333 1198.9583,404.6667 1198.9583,445.25" fill="none" id="PNR-to-OBU" style="stroke:#446E9B;stroke-width:3.125;"/><polygon fill="#446E9B" points="1198.9583,451.5,1203.125,442.125,1198.9583,446.2917,1194.7917,442.125,1198.9583,451.5" style="stroke:#446E9B;stroke-width:3.125;"/></g><!--link PNR to TORI--><g class="link" data-entity-1="PNR" data-entity-2="TORI" data-source-line="59" data-uid="lnk34" id="link_PNR_TORI"><path d="M367.4688,359.9583 C551.7604,359.9583 990.625,359.9583 990.625,359.9583 C990.625,359.9583 990.625,409.1458 990.625,445.3125" fill="none" id="PNR-to-TORI" style="stroke:#446E9B;stroke-width:3.125;"/><polygon fill="#446E9B" points="990.625,451.5625,994.7917,442.1875,990.625,446.3542,986.4583,442.1875,990.625,451.5625" style="stroke:#446E9B;stroke-width:3.125;"/></g><!--link PNR to KW--><g class="link" data-entity-1="PNR" data-entity-2="KW" data-source-line="61" data-uid="lnk36" id="link_PNR_KW"><path d="M359.6875,389.4479 C359.6875,455.2917 359.6875,605.7917 359.6875,605.7917 C359.6875,605.7917 479.4479,605.7917 568.0521,605.7917" fill="none" id="PNR-to-KW" style="stroke:#446E9B;stroke-width:3.125;"/><polygon fill="#446E9B" points="574.3021,605.7917,564.9271,601.625,569.0938,605.7917,564.9271,609.9583,574.3021,605.7917" style="stroke:#446E9B;stroke-width:3.125;"/></g><!--link PNR to NEAT--><g class="link" data-entity-1="PNR" data-entity-2="NEAT" data-source-line="62" data-uid="lnk37" id="link_PNR_NEAT"><path d="M357.25,389.7604 C357.25,478.2917 357.25,728.7083 357.25,728.7083 C357.25,728.7083 492.1771,728.7083 581.5208,728.7083" fill="none" id="PNR-to-NEAT" style="stroke:#446E9B;stroke-width:3.125;"/><polygon fill="#446E9B" points="587.7708,728.7083,578.3958,724.5417,582.5625,728.7083,578.3958,732.875,587.7708,728.7083" style="stroke:#446E9B;stroke-width:3.125;"/></g><!--link PNR to LODGE--><g class="link" data-entity-1="PNR" data-entity-2="LODGE" data-source-line="63" data-uid="lnk38" id="link_PNR_LODGE"><path d="M354.8125,389.6458 C354.8125,497 354.8125,851.625 354.8125,851.625 C354.8125,851.625 440.7813,851.625 512.1042,851.625" fill="none" id="PNR-to-LODGE" style="stroke:#446E9B;stroke-width:3.125;"/><polygon fill="#446E9B" points="518.3542,851.625,508.9792,847.4583,513.1458,851.625,508.9792,855.7917,518.3542,851.625" style="stroke:#446E9B;stroke-width:3.125;"/></g><!--link PNR to ULOR--><g class="link" data-entity-1="PNR" data-entity-2="ULOR" data-source-line="64" data-uid="lnk39" id="link_PNR_ULOR"><path d="M367.375,374.5417 C523.8125,374.5417 855.4688,374.5417 855.4688,374.5417 C855.4688,374.5417 855.4688,708.7917 855.4688,813.8646" fill="none" id="PNR-to-ULOR" style="stroke:#446E9B;stroke-width:3.125;"/><polygon fill="#446E9B" points="855.4688,820.1146,859.6354,810.7396,855.4688,814.9063,851.3021,810.7396,855.4688,820.1146" style="stroke:#446E9B;stroke-width:3.125;"/></g><!--link CXI to NEAT--><g class="link" data-entity-1="CXI" data-entity-2="NEAT" data-source-line="68" data-uid="lnk41" id="link_CXI_NEAT"><path d="M775.3125,512.4583 C775.3125,576.2604 775.3125,718.2917 775.3125,718.2917 C775.3125,718.2917 760.9271,718.2917 737.0625,718.2917" fill="none" id="CXI-to-NEAT" style="stroke:#446E9B;stroke-width:3.125;stroke-dasharray:7.2917,7.2917;"/><polygon fill="#446E9B" points="730.8125,718.2917,740.1875,722.4583,736.0208,718.2917,740.1875,714.125,730.8125,718.2917" style="stroke:#446E9B;stroke-width:3.125;"/><text fill="#FFFFFF" font-family="'Verdana'" font-size="12.5" lengthAdjust="spacing" textLength="56.1646" x="713.8542" y="655.4778">Manages</text></g><!--link CXI to LODGE--><g class="link" data-entity-1="CXI" data-entity-2="LODGE" data-source-line="69" data-uid="lnk42" id="link_CXI_LODGE"><path d="M668.2917,497.4583 C611.375,497.4583 546.7604,497.4583 546.7604,497.4583 C546.7604,497.4583 546.7604,728.2917 546.7604,813.9479" fill="none" id="CXI-to-LODGE" style="stroke:#446E9B;stroke-width:3.125;stroke-dasharray:7.2917,7.2917;"/><polygon fill="#446E9B" points="546.7604,820.1979,550.9271,810.8229,546.7604,814.9896,542.5938,810.8229,546.7604,820.1979" style="stroke:#446E9B;stroke-width:3.125;"/><text fill="#FFFFFF" font-family="'Verdana'" font-size="12.5" lengthAdjust="spacing" textLength="56.1646" x="485.3021" y="589.8736">Manages</text></g><!--link CXI to ULOR--><g class="link" data-entity-1="CXI" data-entity-2="ULOR" data-source-line="70" data-uid="lnk43" id="link_CXI_ULOR"><path d="M806.5208,512.5313 C806.5208,581.8646 806.5208,744.4896 806.5208,813.8542" fill="none" id="CXI-to-ULOR" style="stroke:#446E9B;stroke-width:3.125;stroke-dasharray:7.2917,7.2917;"/><polygon fill="#446E9B" points="806.5208,820.1042,810.6875,810.7292,806.5208,814.8958,802.3542,810.7292,806.5208,820.1042" style="stroke:#446E9B;stroke-width:3.125;"/><text fill="#FFFFFF" font-family="'Verdana'" font-size="12.5" lengthAdjust="spacing" textLength="56.1646" x="745.0625" y="684.1757">Manages</text></g><!--link TORI to KW--><g class="link" data-entity-1="TORI" data-entity-2="KW" data-source-line="72" data-uid="lnk44" id="link_TORI_KW"><path d="M960.7917,512.6458 C960.7917,549.2813 960.7917,605.7917 960.7917,605.7917 C960.7917,605.7917 839.9271,605.7917 750.7917,605.7917" fill="none" id="TORI-to-KW" style="stroke:#446E9B;stroke-width:3.125;stroke-dasharray:7.2917,7.2917;"/><polygon fill="#446E9B" points="744.5417,605.7917,753.9167,609.9583,749.75,605.7917,753.9167,601.625,744.5417,605.7917" style="stroke:#446E9B;stroke-width:3.125;"/><text fill="#FFFFFF" font-family="'Verdana'" font-size="12.5" lengthAdjust="spacing" textLength="68.8354" x="824.2396" y="597.6028">Licenses IP</text></g><!--link TORI to NEAT--><g class="link" data-entity-1="TORI" data-entity-2="NEAT" data-source-line="73" data-uid="lnk45" id="link_TORI_NEAT"><path d="M990.625,512.4375 C990.625,580.25 990.625,738.0833 990.625,738.0833 C990.625,738.0833 834.4688,738.0833 737.0938,738.0833" fill="none" id="TORI-to-NEAT" style="stroke:#446E9B;stroke-width:3.125;stroke-dasharray:7.2917,7.2917;"/><polygon fill="#446E9B" points="730.8438,738.0833,740.2188,742.25,736.0521,738.0833,740.2188,733.9167,730.8438,738.0833" style="stroke:#446E9B;stroke-width:3.125;"/><text fill="#FFFFFF" font-family="'Verdana'" font-size="12.5" lengthAdjust="spacing" textLength="68.8354" x="898.5625" y="729.8944">Licenses IP</text></g><!--link TORI to LODGE--><g class="link" data-entity-1="TORI" data-entity-2="LODGE" data-source-line="74" data-uid="lnk46" id="link_TORI_LODGE"><path d="M1020.4583,512.7292 C1020.4583,590.6667 1020.4583,790.1667 1020.4583,790.1667 C1020.4583,790.1667 657.8958,790.1667 657.8958,790.1667 C657.8958,790.1667 657.8958,798.7917 657.8958,813.7917" fill="none" id="TORI-to-LODGE" style="stroke:#446E9B;stroke-width:3.125;stroke-dasharray:7.2917,7.2917;"/><polygon fill="#446E9B" points="657.8958,820.0417,662.0625,810.6667,657.8958,814.8333,653.7292,810.6667,657.8958,820.0417" style="stroke:#446E9B;stroke-width:3.125;"/><text fill="#FFFFFF" font-family="'Verdana'" font-size="12.5" lengthAdjust="spacing" textLength="68.8354" x="887.9583" y="781.9778">Licenses IP</text></g><!--reverse link OBU to ULOR--><g class="link" data-entity-1="OBU" data-entity-2="ULOR" data-source-line="80" data-uid="lnk50" id="link_OBU_ULOR"><path d="M1198.9583,518.8646 C1198.9583,607.4062 1198.9583,851.625 1198.9583,851.625 C1198.9583,851.625 984.9167,851.625 873.7188,851.625" fill="none" id="OBU-backto-ULOR" style="stroke:#446E9B;stroke-width:3.125;stroke-dasharray:7.2917,7.2917;"/><polygon fill="#446E9B" points="1198.9583,512.6146,1194.7917,521.9896,1198.9583,517.8229,1203.125,521.9896,1198.9583,512.6146" style="stroke:#446E9B;stroke-width:3.125;"/><text fill="#FFFFFF" font-family="'Verdana'" font-size="12.5" lengthAdjust="spacing" textLength="185.4553" x="1007.2917" y="836.5507">Assigns Contract (Land Trust)</text></g><!--SRC=[TLNVZ-8s47xFNp5brTxo08LkMrL8FIb0Ta6R9IW9ktUwteC90rW4ExNDhgAg_tl7SG9PhiUJC_x6yyqtF_Z1xF68e0kMOSxMdZvmKJ35Zf39Oo452fEOCaTGc1acTZcs83aNQCe2GIgpbwqB8JUeiO3V1osZOk9G6xqFqElr80oUWn268qYYvo0EvW-BzBEzy8ZDWUqGEebyHOLy9qm98IjHmMswHxYdW0grxdRW7m_ezsMfkCXumNBzbxXzOeAybUv-1QPX6Jl8j1HCqpkfEcb3g4IUp1wcx20DSyXf2ZSBzbewVAJuZWi8IhHl_ZOOPdSmsJF5JUdWKG0t3mfHUF- -p-YN4QHnu2Uh-2gTL27J9_Kkbp79qifZ4SDCvXikTXh2S4AHNqfvf4zedEki27WppkbbvpXXXU6l27D162Oo9Cy_xePhYBa-mDFkQ9pVn5z-X_NT2Fma2T84RYs3YTJTz-nzhT6qgJ-pKsuktAFrwO0rwILJr3eWjv2WugXXs1iEQjd6guP1vPPAnPzmmrdjEb-2Y-_WQHJFlyFurn54oo3sqtcq8DQ1e7hXDUkeGCMC5R35l86UkKy-pUlmhdcEbdtIcqXLrBeHWFG-eSC_lb6BrnwpSgtu1g9Y8dzkCtzyWPiODyvXWSp0XAiiRzpyav57OYO5Z9U-Sra4Vjfo2kLcPvbFf10qVmIrhJYJkk26vTI8LL3d6aRJXw3bkygbQehXWv_zVUAQsoSSV1L6iKEVHVL3ci2dO972Jn3wdwDLIft0DniK47AQNIVi1tX6PNZ6SchTxB2c7U4jO-XzsLVGhnlv9deVQPOy6gThAtMjPpltsaxgMXO99r7zdERTwk_HW9s1D8nxqxFFllElpTJLrjzLE46xS6ogdksrQwnjAC-My_hYySMZabrRRKcygYxNDvNYdjFz-ixAs-WQ1w5hqTbyIMsQo9owvK-8tWJjg3qldAvMmqet6C43JR2HIbSIEjd8IWuqHuF1ZzRSpt5h-X_j4Xh160LkUSQPAZsdZzMKD6dEfCFvNEL_1dswd2d_vbWbtNouF9klTcRdwVD3k0-Z5yfkAer1cnxD_IlFq2LdvUxtRGXYwoPCdusLkD-QdR3VsglElPYzQa6S7myffj2qSERBoqqTuN_lcZ3jIrVlyvlrf5AmixtnkboH96v1fbGylQK-lC_bcritdTb965GTC18wrTRim8o9ZTnkkrwLJ_zKzAiosJUrfWdGTkgDOfc1sv2mxd-h-ny0]--></g></svg>