<svg xmlns="http://www.w3.org/2000/svg" xmlns:xlink="http://www.w3.org/1999/xlink" contentStyleType="text/css" data-diagram-type="DESCRIPTION" height="792px" preserveAspectRatio="none" style="width:1374px;height:792px;background:#FFFFFF;" version="1.1" viewBox="0 0 1374 792" width="1374px" zoomAndPan="magnify"><defs/><g><!--cluster FORTRESS--><g class="cluster" data-entity="FORTRESS" data-source-line="10" data-uid="ent0002" id="cluster_FORTRESS"><path d="M8.5,557 L104.8271,557 A3.75,3.75 0 0 1 107.3271,559.5 L114.3271,579.2969 L411.25,579.2969 A2.5,2.5 0 0 1 413.75,581.7969 L413.75,657.5 A2.5,2.5 0 0 1 411.25,660 L8.5,660 A2.5,2.5 0 0 1 6,657.5 L6,559.5 A2.5,2.5 0 0 1 8.5,557" fill="#F0F8FF" style="stroke:#000000;stroke-width:1.5;"/><line style="stroke:#000000;stroke-width:1.5;" x1="6" x2="114.3271" y1="579.2969" y2="579.2969"/><text fill="#000000" font-family="sans-serif" font-size="14" font-weight="bold" lengthAdjust="spacing" textLength="95.3271" x="10" y="571.9951">Sovereignty</text></g><!--cluster BANK--><g class="cluster" data-entity="BANK" data-source-line="16" data-uid="ent0005" id="cluster_BANK"><path d="M534.25,455 L604.9766,455 A3.75,3.75 0 0 1 607.4766,457.5 L614.4766,477.2969 L724.31,477.2969 A2.5,2.5 0 0 1 726.81,479.7969 L726.81,758.5 A2.5,2.5 0 0 1 724.31,761 L534.25,761 A2.5,2.5 0 0 1 531.75,758.5 L531.75,457.5 A2.5,2.5 0 0 1 534.25,455" fill="#D3D3D3" style="stroke:#000000;stroke-width:1.5;"/><line style="stroke:#000000;stroke-width:1.5;" x1="531.75" x2="614.4766" y1="477.2969" y2="477.2969"/><text fill="#000000" font-family="sans-serif" font-size="14" font-weight="bold" lengthAdjust="spacing" textLength="69.7266" x="535.75" y="469.9951">Treasury</text></g><!--cluster OPS--><g class="cluster" data-entity="OPS" data-source-line="24" data-uid="ent0008" id="cluster_OPS"><path d="M812.31,6 L941.3266,6 A3.75,3.75 0 0 1 943.8266,8.5 L950.8266,28.2969 L1364.71,28.2969 A2.5,2.5 0 0 1 1367.21,30.7969 L1367.21,782.5 A2.5,2.5 0 0 1 1364.71,785 L812.31,785 A2.5,2.5 0 0 1 809.81,782.5 L809.81,8.5 A2.5,2.5 0 0 1 812.31,6" fill="#FFFACD" style="stroke:#000000;stroke-width:1.5;"/><line style="stroke:#000000;stroke-width:1.5;" x1="809.81" x2="950.8266" y1="28.2969" y2="28.2969"/><text fill="#000000" font-family="sans-serif" font-size="14" font-weight="bold" lengthAdjust="spacing" textLength="128.0166" x="813.81" y="20.9951">Operating Layer</text></g><!--cluster Management Core--><g class="cluster" data-entity="Management Core" data-source-line="27" data-uid="ent0009" id="cluster_Management Core"><path d="M846.44,455 L991.6578,455 A3.75,3.75 0 0 1 994.1578,457.5 L1001.1578,477.2969 L1000.83,477.2969 A2.5,2.5 0 0 1 1003.33,479.7969 L1003.33,758.5 A2.5,2.5 0 0 1 1000.83,761 L846.44,761 A2.5,2.5 0 0 1 843.94,758.5 L843.94,457.5 A2.5,2.5 0 0 1 846.44,455" fill="none" style="stroke:#000000;stroke-width:1.5;"/><line style="stroke:#000000;stroke-width:1.5;" x1="843.94" x2="1001.1578" y1="477.2969" y2="477.2969"/><text fill="#000000" font-family="sans-serif" font-size="14" font-weight="bold" lengthAdjust="spacing" textLength="144.2178" x="847.94" y="469.9951">Management Core</text></g><!--cluster Active Business--><g class="cluster" data-entity="Active Business" data-source-line="33" data-uid="ent0012" id="cluster_Active Business"><path d="M1146.96,252 L1271.9776,252 A3.75,3.75 0 0 1 1274.4776,254.5 L1281.4776,274.2969 L1340.71,274.2969 A2.5,2.5 0 0 1 1343.21,276.7969 L1343.21,758.5 A2.5,2.5 0 0 1 1340.71,761 L1146.96,761 A2.5,2.5 0 0 1 1144.46,758.5 L1144.46,254.5 A2.5,2.5 0 0 1 1146.96,252" fill="none" style="stroke:#000000;stroke-width:1.5;"/><line style="stroke:#000000;stroke-width:1.5;" x1="1144.46" x2="1281.4776" y1="274.2969" y2="274.2969"/><text fill="#000000" font-family="sans-serif" font-size="14" font-weight="bold" lengthAdjust="spacing" textLength="124.0176" x="1148.46" y="266.9951">Active Business</text></g><!--cluster Assets & Risk--><g class="cluster" data-entity="Assets . Risk" data-source-line="40" data-uid="ent0016" id="cluster_Assets . Risk"><path d="M836.31,49 L944.5112,49 A3.75,3.75 0 0 1 947.0112,51.5 L954.0112,71.2969 L1009.96,71.2969 A2.5,2.5 0 0 1 1012.46,73.7969 L1012.46,352.5 A2.5,2.5 0 0 1 1009.96,355 L836.31,355 A2.5,2.5 0 0 1 833.81,352.5 L833.81,51.5 A2.5,2.5 0 0 1 836.31,49" fill="none" style="stroke:#000000;stroke-width:1.5;"/><line style="stroke:#000000;stroke-width:1.5;" x1="833.81" x2="954.0112" y1="71.2969" y2="71.2969"/><text fill="#000000" font-family="sans-serif" font-size="14" font-weight="bold" lengthAdjust="spacing" textLength="107.2012" x="837.81" y="63.9951">Assets &amp; Risk</text></g><!--entity PR--><g class="entity" data-entity="PR" data-source-line="11" data-uid="ent0003" id="entity_PR"><rect fill="#F1F1F1" height="52.5938" rx="2.5" ry="2.5" style="stroke:#181818;stroke-width:0.5;" width="99.584" x="22" y="591.7"/><text fill="#000000" font-family="sans-serif" font-size="14" lengthAdjust="spacing" textLength="67.1973" x="32" y="614.6951">Principals</text><text fill="#000000" font-family="sans-serif" font-size="14" lengthAdjust="spacing" textLength="79.584" x="32" y="630.992">(Managers)</text></g><!--entity DT--><g class="entity" data-entity="DT" data-source-line="12" data-uid="ent0004" id="entity_DT"><rect fill="#F1F1F1" height="52.5938" rx="2.5" ry="2.5" style="stroke:#181818;stroke-width:0.5;" width="126.1621" x="271.58" y="591.7"/><text fill="#000000" font-family="sans-serif" font-size="14" lengthAdjust="spacing" textLength="98" x="281.58" y="614.6951">Dynasty Trust</text><text fill="#000000" font-family="sans-serif" font-size="14" lengthAdjust="spacing" textLength="106.1621" x="281.58" y="630.992">(South Dakota)</text></g><!--entity PNR--><g class="entity" data-entity="PNR" data-source-line="18" data-uid="ent0006" id="entity_PNR"><rect fill="#FFFFFF" height="52.5938" rx="2.5" ry="2.5" style="stroke:#181818;stroke-width:0.5;" width="163.0625" x="547.75" y="692.7"/><text fill="#000000" font-family="sans-serif" font-size="14" font-weight="bold" lengthAdjust="spacing" textLength="139.8975" x="557.75" y="715.6951">PNR Holdings LLC</text><text fill="#000000" font-family="sans-serif" font-size="14" lengthAdjust="spacing" textLength="143.0625" x="557.75" y="731.992">(Wyoming Treasury)</text></g><!--entity OE--><g class="entity" data-entity="OE" data-source-line="20" data-uid="ent0007" id="entity_OE"><rect fill="#FFFFFF" height="52.5938" rx="2.5" ry="2.5" style="stroke:#181818;stroke-width:0.5;" width="129.3477" x="564.6" y="489.7"/><text fill="#000000" font-family="sans-serif" font-size="14" lengthAdjust="spacing" textLength="79.8027" x="574.6" y="512.6951">Origin Eyes</text><text fill="#000000" font-family="sans-serif" font-size="14" lengthAdjust="spacing" textLength="109.3477" x="574.6" y="528.992">(501c3 Charity)</text></g><!--entity CXI--><g class="entity" data-entity="CXI" data-source-line="28" data-uid="ent0010" id="entity_CXI"><rect fill="#FFFFFF" height="52.5938" rx="2.5" ry="2.5" style="stroke:#181818;stroke-width:0.5;" width="122.3887" x="861.94" y="489.7"/><text fill="#000000" font-family="sans-serif" font-size="14" lengthAdjust="spacing" textLength="53.3203" x="871.94" y="512.6951">CXI LLC</text><text fill="#000000" font-family="sans-serif" font-size="14" lengthAdjust="spacing" textLength="102.3887" x="871.94" y="528.992">(Mgmt S-Corp)</text></g><!--entity TORI--><g class="entity" data-entity="TORI" data-source-line="29" data-uid="ent0011" id="entity_TORI"><rect fill="#FFFFFF" height="52.5938" rx="2.5" ry="2.5" style="stroke:#181818;stroke-width:0.5;" width="118.6357" x="863.82" y="692.7"/><text fill="#000000" font-family="sans-serif" font-size="14" lengthAdjust="spacing" textLength="98.6357" x="873.82" y="715.6951">ToriMedia LLC</text><text fill="#000000" font-family="sans-serif" font-size="14" lengthAdjust="spacing" textLength="78.1553" x="873.82" y="731.992">(IP HoldCo)</text></g><!--entity LODGE--><g class="entity" data-entity="LODGE" data-source-line="34" data-uid="ent0013" id="entity_LODGE"><rect fill="#FFFFFF" height="52.5938" rx="2.5" ry="2.5" style="stroke:#181818;stroke-width:0.5;" width="166.7471" x="1160.46" y="692.7"/><text fill="#000000" font-family="sans-serif" font-size="14" lengthAdjust="spacing" textLength="146.7471" x="1170.46" y="715.6951">Lodging Connections</text><text fill="#000000" font-family="sans-serif" font-size="14" lengthAdjust="spacing" textLength="85.709" x="1170.46" y="731.992">(Hospitality)</text></g><!--entity NEAT--><g class="entity" data-entity="NEAT" data-source-line="35" data-uid="ent0014" id="entity_NEAT"><rect fill="#FFFFFF" height="52.5938" rx="2.5" ry="2.5" style="stroke:#181818;stroke-width:0.5;" width="127.0508" x="1180.31" y="489.7"/><text fill="#000000" font-family="sans-serif" font-size="14" lengthAdjust="spacing" textLength="107.0508" x="1190.31" y="512.6951">Neat Circle LLC</text><text fill="#000000" font-family="sans-serif" font-size="14" lengthAdjust="spacing" textLength="92.4629" x="1190.31" y="528.992">(Automation)</text></g><!--entity KW--><g class="entity" data-entity="KW" data-source-line="36" data-uid="ent0015" id="entity_KW"><rect fill="#FFFFFF" height="52.5938" rx="2.5" ry="2.5" style="stroke:#181818;stroke-width:0.5;" width="96.5215" x="1195.58" y="286.7"/><text fill="#000000" font-family="sans-serif" font-size="14" lengthAdjust="spacing" textLength="76.5215" x="1205.58" y="309.6951">Kwode LLC</text><text fill="#000000" font-family="sans-serif" font-size="14" lengthAdjust="spacing" textLength="57.1553" x="1205.58" y="325.992">(Hybrid)</text></g><!--entity OBU--><g class="entity" data-entity="OBU" data-source-line="41" data-uid="ent0017" id="entity_OBU"><rect fill="#FFFFFF" height="52.5938" rx="2.5" ry="2.5" style="stroke:#181818;stroke-width:0.5;" width="110.4941" x="867.89" y="83.7"/><text fill="#000000" font-family="sans-serif" font-size="14" lengthAdjust="spacing" textLength="75.3252" x="877.89" y="106.6951">Obuke LLC</text><text fill="#000000" font-family="sans-serif" font-size="14" lengthAdjust="spacing" textLength="90.4941" x="877.89" y="122.992">(Real Estate)</text></g><!--entity CAP--><g class="entity" data-entity="CAP" data-source-line="42" data-uid="ent0018" id="entity_CAP"><rect fill="#FFFFFF" height="52.5938" rx="2.5" ry="2.5" style="stroke:#181818;stroke-width:0.5;" width="146.6563" x="849.81" y="286.7"/><text fill="#000000" font-family="sans-serif" font-size="14" lengthAdjust="spacing" textLength="126.6563" x="859.81" y="309.6951">Captive Insurance</text><text fill="#000000" font-family="sans-serif" font-size="14" lengthAdjust="spacing" textLength="46.5322" x="859.81" y="325.992">(831b)</text></g><!--link PR to DT--><g class="link" data-entity-1="PR" data-entity-2="DT" data-source-line="49" data-uid="lnk19" id="link_PR_DT"><path d="M121.86,618 C164.31,618 219.44,618 265.3,618" fill="none" id="PR-to-DT" style="stroke:#181818;stroke-width:1;"/><polygon fill="#181818" points="271.3,618,262.3,614,266.3,618,262.3,622,271.3,618" style="stroke:#181818;stroke-width:1;"/></g><!--link DT to PNR--><g class="link" data-entity-1="DT" data-entity-2="PNR" data-source-line="50" data-uid="lnk20" id="link_DT_PNR"><path d="M398.15,618 C463.62,618 556.21,618 556.21,618 C556.21,618 556.21,656.54 556.21,686.46" fill="none" id="DT-to-PNR" style="stroke:#181818;stroke-width:1;"/><polygon fill="#181818" points="556.21,692.46,560.21,683.46,556.21,687.46,552.21,683.46,556.21,692.46" style="stroke:#181818;stroke-width:1;"/><text fill="#000000" font-family="sans-serif" font-size="13" lengthAdjust="spacing" textLength="77.1748" x="436.41" y="631.0669">Owns 100%</text></g><!--link DT to OE--><g class="link" data-entity-1="DT" data-entity-2="OE" data-source-line="51" data-uid="lnk21" id="link_DT_OE"><path d="M335.21,591.47 C335.21,561.24 335.21,516 335.21,516 C335.21,516 471.78,516 558.38,516" fill="none" id="DT-to-OE" style="stroke:#181818;stroke-width:1;"/><polygon fill="#181818" points="564.38,516,555.38,512,559.38,516,555.38,520,564.38,516" style="stroke:#181818;stroke-width:1;"/><text fill="#000000" font-family="sans-serif" font-size="13" lengthAdjust="spacing" textLength="73.106" x="338.06" y="529.0669">Beneficiary</text></g><!--link PNR to CXI--><g class="link" data-entity-1="PNR" data-entity-2="CXI" data-source-line="54" data-uid="lnk22" id="link_PNR_CXI"><path d="M708.21,692.46 C708.21,637.44 708.21,516 708.21,516 C708.21,516 792.04,516 855.55,516" fill="none" id="PNR-to-CXI" style="stroke:#181818;stroke-width:1;"/><polygon fill="#181818" points="861.55,516,852.55,512,856.55,516,852.55,520,861.55,516" style="stroke:#181818;stroke-width:1;"/></g><!--link PNR to TORI--><g class="link" data-entity-1="PNR" data-entity-2="TORI" data-source-line="55" data-uid="lnk23" id="link_PNR_TORI"><path d="M711.13,727.77 C759.53,727.77 813.74,727.77 857.61,727.77" fill="none" id="PNR-to-TORI" style="stroke:#181818;stroke-width:1;"/><polygon fill="#181818" points="863.61,727.77,854.61,723.77,858.61,727.77,854.61,731.77,863.61,727.77" style="stroke:#181818;stroke-width:1;"/></g><!--link PNR to LODGE--><g class="link" data-entity-1="PNR" data-entity-2="LODGE" data-source-line="56" data-uid="lnk24" id="link_PNR_LODGE"><path d="M705.21,692.37 C705.21,683.84 705.21,676.57 705.21,676.57 C705.21,676.57 1171.21,676.57 1171.21,676.57 C1171.21,676.57 1171.21,677.84 1171.21,686.37" fill="none" id="PNR-to-LODGE" style="stroke:#181818;stroke-width:1;"/><polygon fill="#181818" points="1171.21,692.37,1175.21,683.37,1171.21,687.37,1167.21,683.37,1171.21,692.37" style="stroke:#181818;stroke-width:1;"/></g><!--link PNR to NEAT--><g class="link" data-entity-1="PNR" data-entity-2="NEAT" data-source-line="57" data-uid="lnk25" id="link_PNR_NEAT"><path d="M703.21,692.46 C703.21,676.96 703.21,660.43 703.21,660.43 C703.21,660.43 1244.21,660.43 1244.21,660.43 C1244.21,660.43 1244.21,590.19 1244.21,548.49" fill="none" id="PNR-to-NEAT" style="stroke:#181818;stroke-width:1;"/><polygon fill="#181818" points="1244.21,542.49,1240.21,551.49,1244.21,547.49,1248.21,551.49,1244.21,542.49" style="stroke:#181818;stroke-width:1;"/></g><!--link PNR to KW--><g class="link" data-entity-1="PNR" data-entity-2="KW" data-source-line="58" data-uid="lnk26" id="link_PNR_KW"><path d="M700.21,692.24 C700.21,617.94 700.21,414.5 700.21,414.5 C700.21,414.5 1244.21,414.5 1244.21,414.5 C1244.21,414.5 1244.21,375.74 1244.21,345.67" fill="none" id="PNR-to-KW" style="stroke:#181818;stroke-width:1;"/><polygon fill="#181818" points="1244.21,339.67,1240.21,348.67,1244.21,344.67,1248.21,348.67,1244.21,339.67" style="stroke:#181818;stroke-width:1;"/></g><!--link PNR to OBU--><g class="link" data-entity-1="PNR" data-entity-2="OBU" data-source-line="59" data-uid="lnk27" id="link_PNR_OBU"><path d="M697.21,692.44 C697.21,575.23 697.21,110 697.21,110 C697.21,110 794.69,110 861.58,110" fill="none" id="PNR-to-OBU" style="stroke:#181818;stroke-width:1;"/><polygon fill="#181818" points="867.58,110,858.58,106,862.58,110,858.58,114,867.58,110" style="stroke:#181818;stroke-width:1;"/></g><!--link PNR to CAP--><g class="link" data-entity-1="PNR" data-entity-2="CAP" data-source-line="60" data-uid="lnk28" id="link_PNR_CAP"><path d="M711.21,710.23 C776.21,710.23 856.21,710.23 856.21,710.23 C856.21,710.23 856.21,434.75 856.21,345.68" fill="none" id="PNR-to-CAP" style="stroke:#181818;stroke-width:1;"/><polygon fill="#181818" points="856.21,339.68,852.21,348.68,856.21,344.68,860.21,348.68,856.21,339.68" style="stroke:#181818;stroke-width:1;"/></g><!--link CXI to NEAT--><g class="link" data-entity-1="CXI" data-entity-2="NEAT" data-source-line="63" data-uid="lnk29" id="link_CXI_NEAT"><path d="M984.59,516 C1040.61,516 1117.05,516 1173.85,516" fill="none" id="CXI-to-NEAT" style="stroke:#181818;stroke-width:1;stroke-dasharray:7,7;"/><polygon fill="#181818" points="1179.85,516,1170.85,512,1174.85,516,1170.85,520,1179.85,516" style="stroke:#181818;stroke-width:1;"/><text fill="#000000" font-family="sans-serif" font-size="13" lengthAdjust="spacing" textLength="58.4111" x="1023.22" y="529.0669">Manages</text></g><!--link CXI to KW--><g class="link" data-entity-1="CXI" data-entity-2="KW" data-source-line="64" data-uid="lnk30" id="link_CXI_KW"><path d="M984.55,502.85 C1017.42,502.85 1051.21,502.85 1051.21,502.85 C1051.21,502.85 1051.21,304.23 1051.21,304.23 C1051.21,304.23 1132.17,304.23 1189.23,304.23" fill="none" id="CXI-to-KW" style="stroke:#181818;stroke-width:1;stroke-dasharray:7,7;"/><polygon fill="#181818" points="1195.23,304.23,1186.23,300.23,1190.23,304.23,1186.23,308.23,1195.23,304.23" style="stroke:#181818;stroke-width:1;"/><text fill="#000000" font-family="sans-serif" font-size="13" lengthAdjust="spacing" textLength="58.4111" x="992.21" y="377.9369">Manages</text></g><!--link TORI to NEAT--><g class="link" data-entity-1="TORI" data-entity-2="NEAT" data-source-line="65" data-uid="lnk31" id="link_TORI_NEAT"><path d="M982.86,710.23 C987.95,710.23 991.21,710.23 991.21,710.23 C991.21,710.23 991.21,529.15 991.21,529.15 C991.21,529.15 1099.25,529.15 1174.09,529.15" fill="none" id="TORI-to-NEAT" style="stroke:#181818;stroke-width:1;stroke-dasharray:7,7;"/><polygon fill="#181818" points="1180.09,529.15,1171.09,525.15,1175.09,529.15,1171.09,533.15,1180.09,529.15" style="stroke:#181818;stroke-width:1;"/><text fill="#000000" font-family="sans-serif" font-size="13" lengthAdjust="spacing" textLength="71.5889" x="992.21" y="542.4969">Licenses IP</text></g><!--link TORI to KW--><g class="link" data-entity-1="TORI" data-entity-2="KW" data-source-line="66" data-uid="lnk32" id="link_TORI_KW"><path d="M982.83,727.77 C1036.25,727.77 1106.21,727.77 1106.21,727.77 C1106.21,727.77 1106.21,321.77 1106.21,321.77 C1106.21,321.77 1149.69,321.77 1189.32,321.77" fill="none" id="TORI-to-KW" style="stroke:#181818;stroke-width:1;stroke-dasharray:7,7;"/><polygon fill="#181818" points="1195.32,321.77,1186.32,317.77,1190.32,321.77,1186.32,325.77,1195.32,321.77" style="stroke:#181818;stroke-width:1;"/><text fill="#000000" font-family="sans-serif" font-size="13" lengthAdjust="spacing" textLength="71.5889" x="1107.21" y="554.9669">Licenses IP</text></g><!--SRC=[PLHHRvim47xdLvnQRKkgPMfMJPhoK8aGsaQb0G5hDsrxSE6IM24siarRDks_xmo49aqU8dp-xkwxk- -iDroKJB4j55oWgKi4gSnQEhg_4397ZIMClvplMHKJcsDh9hUb52XCOke2GM5cc5WLw3WV8C2b0ICXvgkrWMKXdvsYCwd6b7EBvr9Oz6WqWYIyzsD_Vhr8VzYpKx9imrO89ubyGeLy9Knz0ap3LHYdiPyaSEeMFCDfKI7yTO1-FoF5HSPBLkXVOd371FahFVnjlQAuXSngmRIf8LMLDeHAP6NMC6CRQLYBdANElnqfIkGct-8tZ5A5J5UgfJDr5xTm6jYYhXMhEoeVu8g_O0xtNFD7Nd1JJ-1XpGt2LBvyfByYXnHVJ4lgx2nQn713HYvM6eB0EpiZRW-rt981TlcwIWXwsiHgdDi88NML2_1hjAL_EHzd5-2jcQB4hLVexvpwuiB8Zzrq7YuI65mhMPN4b-Qpb2f3e9uRdh42jA6oYSNmi0TXYOePoovWDQgc5M54GmbmAuMtvikb55qpkeuqEM0yWNOoMr8El8Tv18DKbiC6r8VVWtXIuKaNgQdL-pwtBR8ZNcqD92D2b6sLzcglDmqybOhVOSvPvqG9RQSzsRgaONpWG-tPf_jv0Yxfz8a6n__0u8xdUO5loEu0bQQrqlg0R23pbUsI9uLe1My7T2DroGqh-l44uUpQFwA-G4RrSvNHUhNatSh8BRDXMh-5xwP7RhVFjCMTmqtzg7ZUWcyV3Wizciq55Qir6arpYRdUm60g3ILyM-y-vg3QyB7Qx3B7IEhnIJu6EmbElnrHzLZPz6ukIE1CP4YENo_6ZzqutUYGSQzTBrmiVAyLhzKbcVVU2HXTzalZH34XBkrQpzBcooxG1C9deM5yVlvkPwODcS0K1IvvnXavKamBjLUjs6bsCBXY0iBA39tcZYv9S_st5LD_Q6RQd-oa-iFjG_z9NNaDvKOswrmOL8Aw5vQa34vlBmncD0ZCXuvL-ATFRJZOhPBkpJJYLsCZxJrmGC-bqAXfvrxl6e-zc_y0]--></g></svg>