<svg xmlns="http://www.w3.org/2000/svg" xmlns:xlink="http://www.w3.org/1999/xlink" contentStyleType="text/css" data-diagram-type="ACTIVITY" height="1343.75px" preserveAspectRatio="none" style="width:721px;height:1343px;" version="1.1" viewBox="0 0 721 1343" width="721.875px" zoomAndPan="magnify"><title>Family Council Decision Escalation Protocol</title><defs><linearGradient id="g17ovgo6soayjm0" x1="50%" x2="50%" y1="0%" y2="100%"><stop offset="0%" stop-color="#B8B8B8"/><stop offset="100%" stop-color="#999999"/></linearGradient><linearGradient id="g17ovgo6soayjm1" x1="50%" x2="50%" y1="0%" y2="100%"><stop offset="0%" stop-color="#7C9AB9"/><stop offset="100%" stop-color="#304D6D"/></linearGradient><linearGradient id="g17ovgo6soayjm2" x1="50%" x2="50%" y1="0%" y2="100%"><stop offset="0%" stop-color="#B8B8B8"/><stop offset="100%" stop-color="#6B6B6B"/></linearGradient></defs><g><g class="title" data-source-line="31"><rect fill="url(#g17ovgo6soayjm0)" height="47.168" rx="4.1667" ry="4.1667" style="stroke:#6B6B6B;stroke-width:1.0417;" width="533.6995" x="92.7043" y="20.8333"/><text fill="#304D6D" font-family="'Verdana'" font-size="20.8333" font-weight="bold" lengthAdjust="spacing" textLength="510.7829" x="104.1626" y="51.6296">Family Council Decision Escalation Protocol</text></g><ellipse cx="413.8062" cy="89.8763" fill="#3399F3" rx="10.4167" ry="10.4167" style="stroke:#304D6D;stroke-width:1.0417;"/><rect fill="url(#g17ovgo6soayjm1)" height="37.4674" rx="4.1667" ry="4.1667" style="stroke:#304D6D;stroke-width:1.0417;" width="103.1169" x="362.2477" y="121.1263"/><text fill="#FFFFFF" font-family="'Verdana'" font-size="12.5" lengthAdjust="spacing" textLength="80.2002" x="373.7061" y="144.1874">Issue Arrives</text><polygon fill="url(#g17ovgo6soayjm2)" points="129.3376,179.4271,298.7569,179.4271,311.2569,191.9271,298.7569,204.4271,129.3376,204.4271,116.8376,191.9271,129.3376,179.4271" style="stroke:#6B6B6B;stroke-width:1.0417;"/><text fill="#FFFFFF" font-family="'Verdana'" font-size="12.5" lengthAdjust="spacing" textLength="21.8384" x="223.4222" y="221.2382">Yes</text><text fill="#FFFFFF" font-family="'Verdana'" font-size="12.5" lengthAdjust="spacing" textLength="159.0027" x="134.5459" y="196.2545">Financial Impact &lt; $10k?</text><rect fill="url(#g17ovgo6soayjm1)" height="37.4674" rx="4.1667" ry="4.1667" style="stroke:#304D6D;stroke-width:1.0417;" width="134.8979" x="146.5983" y="243.634"/><text fill="#FFFFFF" font-family="'Verdana'" font-size="12.5" lengthAdjust="spacing" textLength="111.9812" x="158.0566" y="266.6951">Manager Decision</text><ellipse cx="214.0472" cy="329.0181" fill="none" rx="11.4583" ry="11.4583" style="stroke:#304D6D;stroke-width:1.0417;"/><ellipse cx="214.0472" cy="329.0181" fill="none" rx="6.25" ry="6.25" style="stroke:#304D6D;stroke-width:1.0417;"/><polygon fill="url(#g17ovgo6soayjm2)" points="344.5903,179.4271,514.0096,179.4271,526.5096,191.9271,514.0096,204.4271,344.5903,204.4271,332.0903,191.9271,344.5903,179.4271" style="stroke:#6B6B6B;stroke-width:1.0417;"/><text fill="#FFFFFF" font-family="'Verdana'" font-size="12.5" lengthAdjust="spacing" textLength="21.8384" x="438.6749" y="221.2382">Yes</text><text fill="#FFFFFF" font-family="'Verdana'" font-size="12.5" lengthAdjust="spacing" textLength="159.0027" x="349.7986" y="196.2545">Financial Impact &lt; $50k?</text><rect fill="url(#g17ovgo6soayjm1)" height="37.4674" rx="4.1667" ry="4.1667" style="stroke:#304D6D;stroke-width:1.0417;" width="157.5175" x="350.5412" y="243.634"/><text fill="#FFFFFF" font-family="'Verdana'" font-size="12.5" lengthAdjust="spacing" textLength="134.6008" x="361.9995" y="266.6951">Executive Committee</text><ellipse cx="429.2999" cy="329.0181" fill="none" rx="11.4583" ry="11.4583" style="stroke:#304D6D;stroke-width:1.0417;"/><ellipse cx="429.2999" cy="329.0181" fill="none" rx="6.25" ry="6.25" style="stroke:#304D6D;stroke-width:1.0417;"/><rect fill="url(#g17ovgo6soayjm1)" height="37.4674" rx="4.1667" ry="4.1667" style="stroke:#304D6D;stroke-width:1.0417;" width="163.4318" x="547.3429" y="263.9628"/><text fill="#FFFFFF" font-family="'Verdana'" font-size="12.5" lengthAdjust="spacing" textLength="140.5151" x="558.8013" y="287.0239">Family Council Review</text><polygon fill="url(#g17ovgo6soayjm2)" points="348.4324,361.3098,479.1799,361.3098,491.6799,373.8098,479.1799,386.3098,348.4324,386.3098,335.9324,373.8098,348.4324,361.3098" style="stroke:#6B6B6B;stroke-width:1.0417;"/><text fill="#FFFFFF" font-family="'Verdana'" font-size="12.5" lengthAdjust="spacing" textLength="120.3308" x="353.6407" y="378.1372">Strategic Decision?</text><text fill="#FFFFFF" font-family="'Verdana'" font-size="12.5" lengthAdjust="spacing" textLength="21.8384" x="308.8857" y="365.6535">Yes</text><polygon fill="url(#g17ovgo6soayjm2)" points="127.6296,396.7265,342.0685,396.7265,354.5685,409.2265,342.0685,421.7265,127.6296,421.7265,115.1296,409.2265,127.6296,396.7265" style="stroke:#6B6B6B;stroke-width:1.0417;"/><text fill="#FFFFFF" font-family="'Verdana'" font-size="12.5" lengthAdjust="spacing" textLength="204.0222" x="132.8379" y="413.5539">Impact &gt; $250k or Constitution?</text><text fill="#FFFFFF" font-family="'Verdana'" font-size="12.5" lengthAdjust="spacing" textLength="21.8384" x="88.0829" y="401.0701">Yes</text><rect fill="url(#g17ovgo6soayjm1)" height="37.4674" rx="4.1667" ry="4.1667" style="stroke:#304D6D;stroke-width:1.0417;" width="186.5092" x="11.4583" y="432.1431"/><text fill="#FFFFFF" font-family="'Verdana'" font-size="12.5" lengthAdjust="spacing" textLength="163.5925" x="22.9167" y="455.2043">Unanimous Vote Required</text><rect fill="url(#g17ovgo6soayjm1)" height="37.4674" rx="4.1667" ry="4.1667" style="stroke:#304D6D;stroke-width:1.0417;" width="188.2609" x="270.8547" y="432.1431"/><text fill="#FFFFFF" font-family="'Verdana'" font-size="12.5" lengthAdjust="spacing" textLength="165.3442" x="282.313" y="455.2043">Super Majority (75%) Vote</text><polygon fill="url(#g17ovgo6soayjm2)" points="234.849,480.0273,247.349,492.5273,234.849,505.0273,222.349,492.5273,234.849,480.0273" style="stroke:#6B6B6B;stroke-width:1.0417;"/><rect fill="url(#g17ovgo6soayjm1)" height="37.4674" rx="4.1667" ry="4.1667" style="stroke:#304D6D;stroke-width:1.0417;" width="204.7953" x="490.3656" y="396.7265"/><text fill="#FFFFFF" font-family="'Verdana'" font-size="12.5" lengthAdjust="spacing" textLength="181.8787" x="501.8239" y="419.7876">Simple Majority (50%+) Vote</text><polygon fill="url(#g17ovgo6soayjm2)" points="413.8062,515.4439,426.3062,527.9439,413.8062,540.4439,401.3062,527.9439,413.8062,515.4439" style="stroke:#6B6B6B;stroke-width:1.0417;"/><rect fill="url(#g17ovgo6soayjm1)" height="37.4674" rx="4.1667" ry="4.1667" style="stroke:#304D6D;stroke-width:1.0417;" width="208.2499" x="309.6812" y="561.2773"/><text fill="#FFFFFF" font-family="'Verdana'" font-size="12.5" lengthAdjust="spacing" textLength="185.3333" x="321.1395" y="584.3384">Decision Recorded in Minutes</text><rect fill="url(#g17ovgo6soayjm1)" height="37.4674" rx="4.1667" ry="4.1667" style="stroke:#304D6D;stroke-width:1.0417;" width="155.2165" x="336.1979" y="619.578"/><text fill="#FFFFFF" font-family="'Verdana'" font-size="12.5" lengthAdjust="spacing" textLength="132.2998" x="347.6563" y="642.6392">Action Item Assigned</text><ellipse cx="413.8062" cy="689.3372" fill="none" rx="11.4583" ry="11.4583" style="stroke:#304D6D;stroke-width:1.0417;"/><ellipse cx="413.8062" cy="689.3372" fill="none" rx="6.25" ry="6.25" style="stroke:#304D6D;stroke-width:1.0417;"/><ellipse cx="413.8062" cy="721.6288" fill="#3399F3" rx="10.4167" ry="10.4167" style="stroke:#304D6D;stroke-width:1.0417;"/><rect fill="url(#g17ovgo6soayjm1)" height="37.4674" rx="4.1667" ry="4.1667" style="stroke:#304D6D;stroke-width:1.0417;" width="103.1169" x="362.2477" y="752.8788"/><text fill="#FFFFFF" font-family="'Verdana'" font-size="12.5" lengthAdjust="spacing" textLength="80.2002" x="373.7061" y="775.9399">Issue Arrives</text><polygon fill="url(#g17ovgo6soayjm2)" points="129.3376,811.1796,298.7569,811.1796,311.2569,823.6796,298.7569,836.1796,129.3376,836.1796,116.8376,823.6796,129.3376,811.1796" style="stroke:#6B6B6B;stroke-width:1.0417;"/><text fill="#FFFFFF" font-family="'Verdana'" font-size="12.5" lengthAdjust="spacing" textLength="21.8384" x="223.4222" y="852.9907">Yes</text><text fill="#FFFFFF" font-family="'Verdana'" font-size="12.5" lengthAdjust="spacing" textLength="159.0027" x="134.5459" y="828.007">Financial Impact &lt; $10k?</text><rect fill="url(#g17ovgo6soayjm1)" height="37.4674" rx="4.1667" ry="4.1667" style="stroke:#304D6D;stroke-width:1.0417;" width="134.8979" x="146.5983" y="875.3866"/><text fill="#FFFFFF" font-family="'Verdana'" font-size="12.5" lengthAdjust="spacing" textLength="111.9812" x="158.0566" y="898.4477">Manager Decision</text><ellipse cx="214.0472" cy="960.7707" fill="none" rx="11.4583" ry="11.4583" style="stroke:#304D6D;stroke-width:1.0417;"/><ellipse cx="214.0472" cy="960.7707" fill="none" rx="6.25" ry="6.25" style="stroke:#304D6D;stroke-width:1.0417;"/><polygon fill="url(#g17ovgo6soayjm2)" points="344.5903,811.1796,514.0096,811.1796,526.5096,823.6796,514.0096,836.1796,344.5903,836.1796,332.0903,823.6796,344.5903,811.1796" style="stroke:#6B6B6B;stroke-width:1.0417;"/><text fill="#FFFFFF" font-family="'Verdana'" font-size="12.5" lengthAdjust="spacing" textLength="21.8384" x="438.6749" y="852.9907">Yes</text><text fill="#FFFFFF" font-family="'Verdana'" font-size="12.5" lengthAdjust="spacing" textLength="159.0027" x="349.7986" y="828.007">Financial Impact &lt; $50k?</text><rect fill="url(#g17ovgo6soayjm1)" height="37.4674" rx="4.1667" ry="4.1667" style="stroke:#304D6D;stroke-width:1.0417;" width="157.5175" x="350.5412" y="875.3866"/><text fill="#FFFFFF" font-family="'Verdana'" font-size="12.5" lengthAdjust="spacing" textLength="134.6008" x="361.9995" y="898.4477">Executive Committee</text><ellipse cx="429.2999" cy="960.7707" fill="none" rx="11.4583" ry="11.4583" style="stroke:#304D6D;stroke-width:1.0417;"/><ellipse cx="429.2999" cy="960.7707" fill="none" rx="6.25" ry="6.25" style="stroke:#304D6D;stroke-width:1.0417;"/><rect fill="url(#g17ovgo6soayjm1)" height="37.4674" rx="4.1667" ry="4.1667" style="stroke:#304D6D;stroke-width:1.0417;" width="163.4318" x="547.3429" y="895.7153"/><text fill="#FFFFFF" font-family="'Verdana'" font-size="12.5" lengthAdjust="spacing" textLength="140.5151" x="558.8013" y="918.7764">Family Council Review</text><polygon fill="url(#g17ovgo6soayjm2)" points="348.4324,993.0623,479.1799,993.0623,491.6799,1005.5623,479.1799,1018.0623,348.4324,1018.0623,335.9324,1005.5623,348.4324,993.0623" style="stroke:#6B6B6B;stroke-width:1.0417;"/><text fill="#FFFFFF" font-family="'Verdana'" font-size="12.5" lengthAdjust="spacing" textLength="120.3308" x="353.6407" y="1009.8897">Strategic Decision?</text><text fill="#FFFFFF" font-family="'Verdana'" font-size="12.5" lengthAdjust="spacing" textLength="21.8384" x="308.8857" y="997.406">Yes</text><polygon fill="url(#g17ovgo6soayjm2)" points="127.6296,1028.479,342.0685,1028.479,354.5685,1040.979,342.0685,1053.479,127.6296,1053.479,115.1296,1040.979,127.6296,1028.479" style="stroke:#6B6B6B;stroke-width:1.0417;"/><text fill="#FFFFFF" font-family="'Verdana'" font-size="12.5" lengthAdjust="spacing" textLength="204.0222" x="132.8379" y="1045.3064">Impact &gt; $250k or Constitution?</text><text fill="#FFFFFF" font-family="'Verdana'" font-size="12.5" lengthAdjust="spacing" textLength="21.8384" x="88.0829" y="1032.8227">Yes</text><rect fill="url(#g17ovgo6soayjm1)" height="37.4674" rx="4.1667" ry="4.1667" style="stroke:#304D6D;stroke-width:1.0417;" width="186.5092" x="11.4583" y="1063.8957"/><text fill="#FFFFFF" font-family="'Verdana'" font-size="12.5" lengthAdjust="spacing" textLength="163.5925" x="22.9167" y="1086.9568">Unanimous Vote Required</text><rect fill="url(#g17ovgo6soayjm1)" height="37.4674" rx="4.1667" ry="4.1667" style="stroke:#304D6D;stroke-width:1.0417;" width="188.2609" x="270.8547" y="1063.8957"/><text fill="#FFFFFF" font-family="'Verdana'" font-size="12.5" lengthAdjust="spacing" textLength="165.3442" x="282.313" y="1086.9568">Super Majority (75%) Vote</text><polygon fill="url(#g17ovgo6soayjm2)" points="234.849,1111.7798,247.349,1124.2798,234.849,1136.7798,222.349,1124.2798,234.849,1111.7798" style="stroke:#6B6B6B;stroke-width:1.0417;"/><rect fill="url(#g17ovgo6soayjm1)" height="37.4674" rx="4.1667" ry="4.1667" style="stroke:#304D6D;stroke-width:1.0417;" width="204.7953" x="490.3656" y="1028.479"/><text fill="#FFFFFF" font-family="'Verdana'" font-size="12.5" lengthAdjust="spacing" textLength="181.8787" x="501.8239" y="1051.5401">Simple Majority (50%+) Vote</text><polygon fill="url(#g17ovgo6soayjm2)" points="413.8062,1147.1965,426.3062,1159.6965,413.8062,1172.1965,401.3062,1159.6965,413.8062,1147.1965" style="stroke:#6B6B6B;stroke-width:1.0417;"/><rect fill="url(#g17ovgo6soayjm1)" height="37.4674" rx="4.1667" ry="4.1667" style="stroke:#304D6D;stroke-width:1.0417;" width="208.2499" x="309.6812" y="1193.0298"/><text fill="#FFFFFF" font-family="'Verdana'" font-size="12.5" lengthAdjust="spacing" textLength="185.3333" x="321.1395" y="1216.0909">Decision Recorded in Minutes</text><rect fill="url(#g17ovgo6soayjm1)" height="37.4674" rx="4.1667" ry="4.1667" style="stroke:#304D6D;stroke-width:1.0417;" width="155.2165" x="336.1979" y="1251.3306"/><text fill="#FFFFFF" font-family="'Verdana'" font-size="12.5" lengthAdjust="spacing" textLength="132.2998" x="347.6563" y="1274.3917">Action Item Assigned</text><ellipse cx="413.8062" cy="1321.0897" fill="none" rx="11.4583" ry="11.4583" style="stroke:#304D6D;stroke-width:1.0417;"/><ellipse cx="413.8062" cy="1321.0897" fill="none" rx="6.25" ry="6.25" style="stroke:#304D6D;stroke-width:1.0417;"/><line style="stroke:#446E9B;stroke-width:3.125;" x1="413.8062" x2="413.8062" y1="100.293" y2="121.1263"/><polygon fill="#446E9B" points="409.6395,110.7096,413.8062,121.1263,417.9728,110.7096,413.8062,114.8763" style="stroke:#446E9B;stroke-width:1.0417;"/><line style="stroke:#446E9B;stroke-width:3.125;" x1="214.0472" x2="214.0472" y1="281.1015" y2="317.5598"/><polygon fill="#446E9B" points="209.8806,307.1431,214.0472,317.5598,218.2139,307.1431,214.0472,311.3098" style="stroke:#446E9B;stroke-width:1.0417;"/><line style="stroke:#446E9B;stroke-width:3.125;" x1="429.2999" x2="429.2999" y1="281.1015" y2="317.5598"/><polygon fill="#446E9B" points="425.1333,307.1431,429.2999,317.5598,433.4666,307.1431,429.2999,311.3098" style="stroke:#446E9B;stroke-width:1.0417;"/><line style="stroke:#446E9B;stroke-width:3.125;" x1="214.0472" x2="214.0472" y1="204.4271" y2="243.634"/><polygon fill="#446E9B" points="209.8806,233.2174,214.0472,243.634,218.2139,233.2174,214.0472,237.384" style="stroke:#446E9B;stroke-width:1.0417;"/><line style="stroke:#446E9B;stroke-width:3.125;" x1="429.2999" x2="429.2999" y1="204.4271" y2="243.634"/><polygon fill="#446E9B" points="425.1333,233.2174,429.2999,243.634,433.4666,233.2174,429.2999,237.384" style="stroke:#446E9B;stroke-width:1.0417;"/><line style="stroke:#446E9B;stroke-width:3.125;" x1="311.2569" x2="332.0903" y1="191.9271" y2="191.9271"/><polygon fill="#446E9B" points="321.6736,187.7604,332.0903,191.9271,321.6736,196.0938,325.8403,191.9271" style="stroke:#446E9B;stroke-width:1.0417;"/><line style="stroke:#446E9B;stroke-width:3.125;" x1="413.8062" x2="413.8062" y1="158.5938" y2="163.8021"/><line style="stroke:#446E9B;stroke-width:3.125;" x1="413.8062" x2="214.0472" y1="163.8021" y2="163.8021"/><line style="stroke:#446E9B;stroke-width:3.125;" x1="214.0472" x2="214.0472" y1="163.8021" y2="179.4271"/><polygon fill="#446E9B" points="209.8806,169.0104,214.0472,179.4271,218.2139,169.0104,214.0472,173.1771" style="stroke:#446E9B;stroke-width:1.0417;"/><line style="stroke:#446E9B;stroke-width:3.125;" x1="526.5096" x2="629.0588" y1="191.9271" y2="191.9271"/><line style="stroke:#446E9B;stroke-width:3.125;" x1="629.0588" x2="629.0588" y1="191.9271" y2="263.9628"/><polygon fill="#446E9B" points="624.8922,253.5461,629.0588,263.9628,633.2255,253.5461,629.0588,257.7128" style="stroke:#446E9B;stroke-width:1.0417;"/><line style="stroke:#446E9B;stroke-width:3.125;" x1="629.0588" x2="629.0588" y1="301.4303" y2="345.6848"/><line style="stroke:#446E9B;stroke-width:3.125;" x1="629.0588" x2="413.8062" y1="345.6848" y2="345.6848"/><line style="stroke:#446E9B;stroke-width:3.125;" x1="413.8062" x2="413.8062" y1="345.6848" y2="361.3098"/><polygon fill="#446E9B" points="409.6395,350.8931,413.8062,361.3098,417.9728,350.8931,413.8062,355.0598" style="stroke:#446E9B;stroke-width:1.0417;"/><line style="stroke:#446E9B;stroke-width:3.125;" x1="115.1296" x2="104.7129" y1="409.2265" y2="409.2265"/><line style="stroke:#446E9B;stroke-width:3.125;" x1="104.7129" x2="104.7129" y1="409.2265" y2="432.1431"/><polygon fill="#446E9B" points="100.5463,421.7265,104.7129,432.1431,108.8796,421.7265,104.7129,425.8931" style="stroke:#446E9B;stroke-width:1.0417;"/><line style="stroke:#446E9B;stroke-width:3.125;" x1="354.5685" x2="364.9851" y1="409.2265" y2="409.2265"/><line style="stroke:#446E9B;stroke-width:3.125;" x1="364.9851" x2="364.9851" y1="409.2265" y2="432.1431"/><polygon fill="#446E9B" points="360.8185,421.7265,364.9851,432.1431,369.1518,421.7265,364.9851,425.8931" style="stroke:#446E9B;stroke-width:1.0417;"/><line style="stroke:#446E9B;stroke-width:3.125;" x1="104.7129" x2="104.7129" y1="469.6106" y2="492.5273"/><line style="stroke:#446E9B;stroke-width:3.125;" x1="104.7129" x2="222.349" y1="492.5273" y2="492.5273"/><polygon fill="#446E9B" points="211.9324,488.3606,222.349,492.5273,211.9324,496.6939,216.099,492.5273" style="stroke:#446E9B;stroke-width:1.0417;"/><line style="stroke:#446E9B;stroke-width:3.125;" x1="364.9851" x2="364.9851" y1="469.6106" y2="492.5273"/><line style="stroke:#446E9B;stroke-width:3.125;" x1="364.9851" x2="247.349" y1="492.5273" y2="492.5273"/><polygon fill="#446E9B" points="257.7657,488.3606,247.349,492.5273,257.7657,496.6939,253.599,492.5273" style="stroke:#446E9B;stroke-width:1.0417;"/><line style="stroke:#446E9B;stroke-width:3.125;" x1="335.9324" x2="234.849" y1="373.8098" y2="373.8098"/><line style="stroke:#446E9B;stroke-width:3.125;" x1="234.849" x2="234.849" y1="373.8098" y2="396.7265"/><polygon fill="#446E9B" points="230.6824,386.3098,234.849,396.7265,239.0157,386.3098,234.849,390.4765" style="stroke:#446E9B;stroke-width:1.0417;"/><line style="stroke:#446E9B;stroke-width:3.125;" x1="491.6799" x2="592.7633" y1="373.8098" y2="373.8098"/><line style="stroke:#446E9B;stroke-width:3.125;" x1="592.7633" x2="592.7633" y1="373.8098" y2="396.7265"/><polygon fill="#446E9B" points="588.5966,386.3098,592.7633,396.7265,596.9299,386.3098,592.7633,390.4765" style="stroke:#446E9B;stroke-width:1.0417;"/><line style="stroke:#446E9B;stroke-width:3.125;" x1="234.849" x2="234.849" y1="505.0273" y2="527.9439"/><line style="stroke:#446E9B;stroke-width:3.125;" x1="234.849" x2="401.3062" y1="527.9439" y2="527.9439"/><polygon fill="#446E9B" points="390.8895,523.7773,401.3062,527.9439,390.8895,532.1106,395.0562,527.9439" style="stroke:#446E9B;stroke-width:1.0417;"/><line style="stroke:#446E9B;stroke-width:3.125;" x1="592.7633" x2="592.7633" y1="434.1939" y2="527.9439"/><line style="stroke:#446E9B;stroke-width:3.125;" x1="592.7633" x2="426.3062" y1="527.9439" y2="527.9439"/><polygon fill="#446E9B" points="436.7228,523.7773,426.3062,527.9439,436.7228,532.1106,432.5562,527.9439" style="stroke:#446E9B;stroke-width:1.0417;"/><line style="stroke:#446E9B;stroke-width:3.125;" x1="413.8062" x2="413.8062" y1="540.4439" y2="561.2773"/><polygon fill="#446E9B" points="409.6395,550.8606,413.8062,561.2773,417.9728,550.8606,413.8062,555.0273" style="stroke:#446E9B;stroke-width:1.0417;"/><line style="stroke:#446E9B;stroke-width:3.125;" x1="413.8062" x2="413.8062" y1="598.7447" y2="619.578"/><polygon fill="#446E9B" points="409.6395,609.1614,413.8062,619.578,417.9728,609.1614,413.8062,613.328" style="stroke:#446E9B;stroke-width:1.0417;"/><line style="stroke:#446E9B;stroke-width:3.125;" x1="413.8062" x2="413.8062" y1="657.0455" y2="677.8788"/><polygon fill="#446E9B" points="409.6395,667.4622,413.8062,677.8788,417.9728,667.4622,413.8062,671.6288" style="stroke:#446E9B;stroke-width:1.0417;"/><line style="stroke:#446E9B;stroke-width:3.125;" x1="413.8062" x2="413.8062" y1="732.0455" y2="752.8788"/><polygon fill="#446E9B" points="409.6395,742.4622,413.8062,752.8788,417.9728,742.4622,413.8062,746.6288" style="stroke:#446E9B;stroke-width:1.0417;"/><line style="stroke:#446E9B;stroke-width:3.125;" x1="214.0472" x2="214.0472" y1="912.854" y2="949.3123"/><polygon fill="#446E9B" points="209.8806,938.8957,214.0472,949.3123,218.2139,938.8957,214.0472,943.0623" style="stroke:#446E9B;stroke-width:1.0417;"/><line style="stroke:#446E9B;stroke-width:3.125;" x1="429.2999" x2="429.2999" y1="912.854" y2="949.3123"/><polygon fill="#446E9B" points="425.1333,938.8957,429.2999,949.3123,433.4666,938.8957,429.2999,943.0623" style="stroke:#446E9B;stroke-width:1.0417;"/><line style="stroke:#446E9B;stroke-width:3.125;" x1="214.0472" x2="214.0472" y1="836.1796" y2="875.3866"/><polygon fill="#446E9B" points="209.8806,864.9699,214.0472,875.3866,218.2139,864.9699,214.0472,869.1366" style="stroke:#446E9B;stroke-width:1.0417;"/><line style="stroke:#446E9B;stroke-width:3.125;" x1="429.2999" x2="429.2999" y1="836.1796" y2="875.3866"/><polygon fill="#446E9B" points="425.1333,864.9699,429.2999,875.3866,433.4666,864.9699,429.2999,869.1366" style="stroke:#446E9B;stroke-width:1.0417;"/><line style="stroke:#446E9B;stroke-width:3.125;" x1="311.2569" x2="332.0903" y1="823.6796" y2="823.6796"/><polygon fill="#446E9B" points="321.6736,819.5129,332.0903,823.6796,321.6736,827.8463,325.8403,823.6796" style="stroke:#446E9B;stroke-width:1.0417;"/><line style="stroke:#446E9B;stroke-width:3.125;" x1="413.8062" x2="413.8062" y1="790.3463" y2="795.5546"/><line style="stroke:#446E9B;stroke-width:3.125;" x1="413.8062" x2="214.0472" y1="795.5546" y2="795.5546"/><line style="stroke:#446E9B;stroke-width:3.125;" x1="214.0472" x2="214.0472" y1="795.5546" y2="811.1796"/><polygon fill="#446E9B" points="209.8806,800.7629,214.0472,811.1796,218.2139,800.7629,214.0472,804.9296" style="stroke:#446E9B;stroke-width:1.0417;"/><line style="stroke:#446E9B;stroke-width:3.125;" x1="526.5096" x2="629.0588" y1="823.6796" y2="823.6796"/><line style="stroke:#446E9B;stroke-width:3.125;" x1="629.0588" x2="629.0588" y1="823.6796" y2="895.7153"/><polygon fill="#446E9B" points="624.8922,885.2987,629.0588,895.7153,633.2255,885.2987,629.0588,889.4653" style="stroke:#446E9B;stroke-width:1.0417;"/><line style="stroke:#446E9B;stroke-width:3.125;" x1="629.0588" x2="629.0588" y1="933.1828" y2="977.4373"/><line style="stroke:#446E9B;stroke-width:3.125;" x1="629.0588" x2="413.8062" y1="977.4373" y2="977.4373"/><line style="stroke:#446E9B;stroke-width:3.125;" x1="413.8062" x2="413.8062" y1="977.4373" y2="993.0623"/><polygon fill="#446E9B" points="409.6395,982.6457,413.8062,993.0623,417.9728,982.6457,413.8062,986.8123" style="stroke:#446E9B;stroke-width:1.0417;"/><line style="stroke:#446E9B;stroke-width:3.125;" x1="115.1296" x2="104.7129" y1="1040.979" y2="1040.979"/><line style="stroke:#446E9B;stroke-width:3.125;" x1="104.7129" x2="104.7129" y1="1040.979" y2="1063.8957"/><polygon fill="#446E9B" points="100.5463,1053.479,104.7129,1063.8957,108.8796,1053.479,104.7129,1057.6457" style="stroke:#446E9B;stroke-width:1.0417;"/><line style="stroke:#446E9B;stroke-width:3.125;" x1="354.5685" x2="364.9851" y1="1040.979" y2="1040.979"/><line style="stroke:#446E9B;stroke-width:3.125;" x1="364.9851" x2="364.9851" y1="1040.979" y2="1063.8957"/><polygon fill="#446E9B" points="360.8185,1053.479,364.9851,1063.8957,369.1518,1053.479,364.9851,1057.6457" style="stroke:#446E9B;stroke-width:1.0417;"/><line style="stroke:#446E9B;stroke-width:3.125;" x1="104.7129" x2="104.7129" y1="1101.3631" y2="1124.2798"/><line style="stroke:#446E9B;stroke-width:3.125;" x1="104.7129" x2="222.349" y1="1124.2798" y2="1124.2798"/><polygon fill="#446E9B" points="211.9324,1120.1131,222.349,1124.2798,211.9324,1128.4465,216.099,1124.2798" style="stroke:#446E9B;stroke-width:1.0417;"/><line style="stroke:#446E9B;stroke-width:3.125;" x1="364.9851" x2="364.9851" y1="1101.3631" y2="1124.2798"/><line style="stroke:#446E9B;stroke-width:3.125;" x1="364.9851" x2="247.349" y1="1124.2798" y2="1124.2798"/><polygon fill="#446E9B" points="257.7657,1120.1131,247.349,1124.2798,257.7657,1128.4465,253.599,1124.2798" style="stroke:#446E9B;stroke-width:1.0417;"/><line style="stroke:#446E9B;stroke-width:3.125;" x1="335.9324" x2="234.849" y1="1005.5623" y2="1005.5623"/><line style="stroke:#446E9B;stroke-width:3.125;" x1="234.849" x2="234.849" y1="1005.5623" y2="1028.479"/><polygon fill="#446E9B" points="230.6824,1018.0623,234.849,1028.479,239.0157,1018.0623,234.849,1022.229" style="stroke:#446E9B;stroke-width:1.0417;"/><line style="stroke:#446E9B;stroke-width:3.125;" x1="491.6799" x2="592.7633" y1="1005.5623" y2="1005.5623"/><line style="stroke:#446E9B;stroke-width:3.125;" x1="592.7633" x2="592.7633" y1="1005.5623" y2="1028.479"/><polygon fill="#446E9B" points="588.5966,1018.0623,592.7633,1028.479,596.9299,1018.0623,592.7633,1022.229" style="stroke:#446E9B;stroke-width:1.0417;"/><line style="stroke:#446E9B;stroke-width:3.125;" x1="234.849" x2="234.849" y1="1136.7798" y2="1159.6965"/><line style="stroke:#446E9B;stroke-width:3.125;" x1="234.849" x2="401.3062" y1="1159.6965" y2="1159.6965"/><polygon fill="#446E9B" points="390.8895,1155.5298,401.3062,1159.6965,390.8895,1163.8631,395.0562,1159.6965" style="stroke:#446E9B;stroke-width:1.0417;"/><line style="stroke:#446E9B;stroke-width:3.125;" x1="592.7633" x2="592.7633" y1="1065.9465" y2="1159.6965"/><line style="stroke:#446E9B;stroke-width:3.125;" x1="592.7633" x2="426.3062" y1="1159.6965" y2="1159.6965"/><polygon fill="#446E9B" points="436.7228,1155.5298,426.3062,1159.6965,436.7228,1163.8631,432.5562,1159.6965" style="stroke:#446E9B;stroke-width:1.0417;"/><line style="stroke:#446E9B;stroke-width:3.125;" x1="413.8062" x2="413.8062" y1="1172.1965" y2="1193.0298"/><polygon fill="#446E9B" points="409.6395,1182.6131,413.8062,1193.0298,417.9728,1182.6131,413.8062,1186.7798" style="stroke:#446E9B;stroke-width:1.0417;"/><line style="stroke:#446E9B;stroke-width:3.125;" x1="413.8062" x2="413.8062" y1="1230.4972" y2="1251.3306"/><polygon fill="#446E9B" points="409.6395,1240.9139,413.8062,1251.3306,417.9728,1240.9139,413.8062,1245.0806" style="stroke:#446E9B;stroke-width:1.0417;"/><line style="stroke:#446E9B;stroke-width:3.125;" x1="413.8062" x2="413.8062" y1="1288.798" y2="1309.6313"/><polygon fill="#446E9B" points="409.6395,1299.2147,413.8062,1309.6313,417.9728,1299.2147,413.8062,1303.3813" style="stroke:#446E9B;stroke-width:1.0417;"/><!--SRC=[xL9DJm8n4BttLum44eWND24cYz4GXOG3YO5euh5s1npjnzfEKVwztO9BWdZmpfwQpPltCM_E-1KDGgYaGYrV11DhXDP46j8Rk7FHAj9mZue2EGlZeAIMN3yVl6Edd6u94LXw5iKqX8WmyfxM68Q2bj2Ta9M9GMgOcYJ1S0tjY_xxRG-IheNkCuQUWFGLCsdb2dqZDSo_0xjAe0xu5zdWADdu2rNaP2CbC8QO4G_ujhY3c7DS4tuE1TgIbY87MB2NZ2jIZR7VSZLkv-W6sfV94ZYVI6r8sunyT2RBFwOyP5mCyEGOa_n798_brchZCaCNiKhBcSatvuatqBqQT7fvQWVEZlV15cIgrECUF-Xtpdy6Tl6AfjKvAkTBB84ipCX6hkihHYhtF6KqC0g1LhQsbZSepavdSpgR_vxDDm00]--></g></svg>