<svg xmlns="http://www.w3.org/2000/svg" xmlns:xlink="http://www.w3.org/1999/xlink" contentStyleType="text/css" data-diagram-type="DESCRIPTION" height="631.25px" preserveAspectRatio="none" style="width:1180px;height:631px;" version="1.1" viewBox="0 0 1180 631" width="1180.2083px" zoomAndPan="magnify"><title>The Financial Truth Engine: Daily Cash Flow Logic</title><defs><linearGradient id="g1n66ckzr2f94k0" x1="50%" x2="50%" y1="0%" y2="100%"><stop offset="0%" stop-color="#B8B8B8"/><stop offset="100%" stop-color="#999999"/></linearGradient><linearGradient id="g1n66ckzr2f94k1" x1="50%" x2="50%" y1="0%" y2="100%"><stop offset="0%" stop-color="#B8B8B8"/><stop offset="100%" stop-color="#6B6B6B"/></linearGradient><linearGradient id="g1n66ckzr2f94k2" x1="50%" x2="50%" y1="0%" y2="100%"><stop offset="0%" stop-color="#7C9AB9"/><stop offset="100%" stop-color="#304D6D"/></linearGradient><linearGradient id="g1n66ckzr2f94k3" x1="50%" x2="50%" y1="0%" y2="100%"><stop offset="0%" stop-color="#70B8F7"/><stop offset="100%" stop-color="#246BAA"/></linearGradient></defs><g><g class="title" data-source-line="4"><rect fill="url(#g1n66ckzr2f94k0)" height="47.168" rx="4.1667" ry="4.1667" style="stroke:#6B6B6B;stroke-width:1.0417;" width="607.8776" x="281.7409" y="20.8333"/><text fill="#304D6D" font-family="'Verdana'" font-size="20.8333" font-weight="bold" lengthAdjust="spacing" textLength="584.9609" x="293.1992" y="51.6296">The Financial Truth Engine: Daily Cash Flow Logic</text></g><!--cluster Inflow--><g class="cluster" data-entity="Inflow" data-source-line="6" data-uid="ent0002" id="cluster_Inflow"><path d="M537.0521,85.7096 L588.7936,85.7096 A6.25,6.25 0 0 1 592.9603,89.8763 L600.252,116.9271 L845.3854,116.9271 A4.1667,4.1667 0 0 1 849.5521,121.0938 L849.5521,187.7617 A4.1667,4.1667 0 0 1 845.3854,191.9284 L537.0521,191.9284 A4.1667,4.1667 0 0 1 532.8854,187.7617 L532.8854,89.8763 A4.1667,4.1667 0 0 1 537.0521,85.7096" fill="url(#g1n66ckzr2f94k1)" style="stroke:#446E9B;stroke-width:2.0833;"/><line style="stroke:#446E9B;stroke-width:2.0833;" x1="532.8854" x2="600.252" y1="116.9271" y2="116.9271"/><text fill="#446E9B" font-family="'Verdana'" font-size="12.5" font-weight="bold" lengthAdjust="spacing" textLength="43.4082" x="542.2604" y="104.6041">Inflow</text></g><!--cluster The One Bank (Primary)--><g class="cluster" data-entity="The One Bank .Primary." data-source-line="11" data-uid="ent0005" id="cluster_The One Bank .Primary."><path d="M314.1354,216.9284 L491.4141,216.9284 A6.25,6.25 0 0 1 495.5807,221.0951 L502.8724,248.1458 L941.2188,248.1458 A4.1667,4.1667 0 0 1 945.3854,252.3125 L945.3854,483.4492 A4.1667,4.1667 0 0 1 941.2188,487.6159 L314.1354,487.6159 A4.1667,4.1667 0 0 1 309.9688,483.4492 L309.9688,221.0951 A4.1667,4.1667 0 0 1 314.1354,216.9284" fill="url(#g1n66ckzr2f94k1)" style="stroke:#446E9B;stroke-width:2.0833;"/><line style="stroke:#446E9B;stroke-width:2.0833;" x1="309.9688" x2="502.8724" y1="248.1458" y2="248.1458"/><text fill="#446E9B" font-family="'Verdana'" font-size="12.5" font-weight="bold" lengthAdjust="spacing" textLength="168.9453" x="319.3438" y="235.8228">The One Bank (Primary)</text></g><!--cluster Allocation Accounts--><g class="cluster" data-entity="Allocation Accounts" data-source-line="14" data-uid="ent0007" id="cluster_Allocation Accounts"><path d="M339.1354,341.8451 L486.5374,341.8451 A6.25,6.25 0 0 1 490.704,346.0117 L497.9957,373.0625 L916.2188,373.0625 A4.1667,4.1667 0 0 1 920.3854,377.2292 L920.3854,458.4492 A4.1667,4.1667 0 0 1 916.2188,462.6159 L339.1354,462.6159 A4.1667,4.1667 0 0 1 334.9688,458.4492 L334.9688,346.0117 A4.1667,4.1667 0 0 1 339.1354,341.8451" fill="url(#g1n66ckzr2f94k1)" style="stroke:#446E9B;stroke-width:2.0833;"/><line style="stroke:#446E9B;stroke-width:2.0833;" x1="334.9688" x2="497.9957" y1="373.0625" y2="373.0625"/><text fill="#446E9B" font-family="'Verdana'" font-size="12.5" font-weight="bold" lengthAdjust="spacing" textLength="139.0686" x="344.3438" y="360.7395">Allocation Accounts</text></g><!--cluster External--><g class="cluster" data-entity="External" data-source-line="22" data-uid="ent0012" id="cluster_External"><path d="M238.0938,512.6159 L305.265,512.6159 A6.25,6.25 0 0 1 309.4316,516.7826 L316.7233,543.8333 L999.5521,543.8333 A4.1667,4.1667 0 0 1 1003.7188,548 L1003.7188,614.668 A4.1667,4.1667 0 0 1 999.5521,618.8346 L238.0938,618.8346 A4.1667,4.1667 0 0 1 233.9271,614.668 L233.9271,516.7826 A4.1667,4.1667 0 0 1 238.0938,512.6159" fill="url(#g1n66ckzr2f94k1)" style="stroke:#446E9B;stroke-width:2.0833;"/><line style="stroke:#446E9B;stroke-width:2.0833;" x1="233.9271" x2="316.7233" y1="543.8333" y2="543.8333"/><text fill="#446E9B" font-family="'Verdana'" font-size="12.5" font-weight="bold" lengthAdjust="spacing" textLength="58.8379" x="243.3021" y="531.5103">External</text></g><!--entity STRIPE--><g class="entity" data-entity="STRIPE" data-source-line="7" data-uid="ent0003" id="entity_STRIPE"><rect fill="url(#g1n66ckzr2f94k2)" height="45.8008" rx="4.1667" ry="4.1667" style="stroke:#304D6D;stroke-width:1.0417;" width="131.427" x="549.4583" y="129.4596"/><text fill="#FFFFFF" font-family="'Verdana'" font-size="12.5" lengthAdjust="spacing" textLength="100.177" x="565.0833" y="156.6874">Stripe/Merchant</text></g><!--entity WIRES--><g class="entity" data-entity="WIRES" data-source-line="8" data-uid="ent0004" id="entity_WIRES"><rect fill="url(#g1n66ckzr2f94k2)" height="45.8008" rx="4.1667" ry="4.1667" style="stroke:#304D6D;stroke-width:1.0417;" width="115.6006" x="717.7917" y="129.4596"/><text fill="#FFFFFF" font-family="'Verdana'" font-size="12.5" lengthAdjust="spacing" textLength="84.3506" x="733.4167" y="156.6874">Checks/Wires</text></g><!--entity INCOME--><g class="entity" data-entity="INCOME" data-source-line="12" data-uid="ent0006" id="entity_INCOME"><rect fill="#90EE90" height="60.3516" rx="4.1667" ry="4.1667" style="stroke:#304D6D;stroke-width:1.0417;" width="190.332" x="600.2188" y="260.6784"/><text fill="#FFFFFF" font-family="'Verdana'" font-size="12.5" lengthAdjust="spacing" textLength="116.2415" x="615.8438" y="287.9062">INCOME ACCOUNT</text><text fill="#FFFFFF" font-family="'Verdana'" font-size="12.5" lengthAdjust="spacing" textLength="159.082" x="615.8438" y="302.4569">(All Revenue Lands Here)</text></g><!--entity PROFIT--><g class="entity" data-entity="PROFIT" data-source-line="15" data-uid="ent0008" id="entity_PROFIT"><rect fill="#FFD700" height="60.3516" rx="4.1667" ry="4.1667" style="stroke:#304D6D;stroke-width:1.0417;" width="106.9946" x="351.2604" y="385.5951"/><text fill="#FFFFFF" font-family="'Verdana'" font-size="12.5" lengthAdjust="spacing" textLength="75.7446" x="366.8854" y="412.8228">PROFIT Acct</text><text fill="#FFFFFF" font-family="'Verdana'" font-size="12.5" lengthAdjust="spacing" textLength="57.9529" x="366.8854" y="427.3736">(10-15%)</text></g><!--entity TAX--><g class="entity" data-entity="TAX" data-source-line="16" data-uid="ent0009" id="entity_TAX"><rect fill="#FF0000" height="60.3516" rx="4.1667" ry="4.1667" style="stroke:#304D6D;stroke-width:1.0417;" width="89.2029" x="494.5313" y="385.5951"/><text fill="#FFFFFF" font-family="'Verdana'" font-size="12.5" lengthAdjust="spacing" textLength="55.9204" x="510.1563" y="412.8228">TAX Acct</text><text fill="#FFFFFF" font-family="'Verdana'" font-size="12.5" lengthAdjust="spacing" textLength="57.9529" x="510.1563" y="427.3736">(15-25%)</text></g><!--entity OWNER--><g class="entity" data-entity="OWNER" data-source-line="17" data-uid="ent0010" id="entity_OWNER"><rect fill="#ADD8E6" height="60.3516" rx="4.1667" ry="4.1667" style="stroke:#304D6D;stroke-width:1.0417;" width="151.416" x="619.6771" y="385.5951"/><text fill="#FFFFFF" font-family="'Verdana'" font-size="12.5" lengthAdjust="spacing" textLength="120.166" x="635.3021" y="412.8228">OWNER COMP Acct</text><text fill="#FFFFFF" font-family="'Verdana'" font-size="12.5" lengthAdjust="spacing" textLength="57.9529" x="635.3021" y="427.3736">(20-30%)</text></g><!--entity OPEX--><g class="entity" data-entity="OPEX" data-source-line="18" data-uid="ent0011" id="entity_OPEX"><rect fill="#D3D3D3" height="60.3516" rx="4.1667" ry="4.1667" style="stroke:#304D6D;stroke-width:1.0417;" width="96.2585" x="807.6771" y="385.5951"/><text fill="#FFFFFF" font-family="'Verdana'" font-size="12.5" lengthAdjust="spacing" textLength="65.0085" x="823.3021" y="412.8228">OPEX Acct</text><text fill="#FFFFFF" font-family="'Verdana'" font-size="12.5" lengthAdjust="spacing" textLength="57.9529" x="823.3021" y="427.3736">(30-55%)</text></g><!--entity DISTRO--><g class="entity" data-entity="DISTRO" data-source-line="23" data-uid="ent0013" id="entity_DISTRO"><rect fill="url(#g1n66ckzr2f94k2)" height="45.8008" rx="4.1667" ry="4.1667" style="stroke:#304D6D;stroke-width:1.0417;" width="173.822" x="250.1354" y="556.3659"/><text fill="#FFFFFF" font-family="'Verdana'" font-size="12.5" lengthAdjust="spacing" textLength="142.572" x="265.7604" y="583.5937">Quarterly Distributions</text></g><!--entity GOV--><g class="entity" data-entity="GOV" data-source-line="24" data-uid="ent0014" id="entity_GOV"><rect fill="url(#g1n66ckzr2f94k2)" height="45.8008" rx="4.1667" ry="4.1667" style="stroke:#304D6D;stroke-width:1.0417;" width="157.4219" x="460.4271" y="556.3659"/><text fill="#FFFFFF" font-family="'Verdana'" font-size="12.5" lengthAdjust="spacing" textLength="126.1719" x="476.0521" y="583.5937">IRS / State Agencies</text></g><!--entity HOME--><g class="entity" data-entity="HOME" data-source-line="25" data-uid="ent0015" id="entity_HOME"><rect fill="url(#g1n66ckzr2f94k2)" height="45.8008" rx="4.1667" ry="4.1667" style="stroke:#304D6D;stroke-width:1.0417;" width="158.5754" x="654.6354" y="556.3659"/><text fill="#FFFFFF" font-family="'Verdana'" font-size="12.5" lengthAdjust="spacing" textLength="127.3254" x="670.2604" y="583.5937">Household Accounts</text></g><!--entity BILLS--><g class="entity" data-entity="BILLS" data-source-line="26" data-uid="ent0016" id="entity_BILLS"><rect fill="url(#g1n66ckzr2f94k2)" height="45.8008" rx="4.1667" ry="4.1667" style="stroke:#304D6D;stroke-width:1.0417;" width="137.1338" x="849.7396" y="556.3659"/><text fill="#FFFFFF" font-family="'Verdana'" font-size="12.5" lengthAdjust="spacing" textLength="105.8838" x="865.3646" y="583.5937">Vendors / Payroll</text></g><g class="entity" data-entity="GMN27" data-source-line="44" data-uid="ent0028" id="entity_GMN27"><path d="M962.1146,262.7826 L962.1146,287.5846 L790.6146,291.7513 L962.1146,295.918 L962.1146,318.9349 A4.1667,4.1667 0 0 0 966.2813,323.1016 L1164.0677,323.1016 A4.1667,4.1667 0 0 0 1168.2344,318.9349 L1168.2344,269.0326 L1157.8177,258.6159 L966.2813,258.6159 A4.1667,4.1667 0 0 0 962.1146,262.7826" fill="url(#g1n66ckzr2f94k3)" style="stroke:#246BAA;stroke-width:1.0417;"/><path d="M1157.8177,258.6159 L1157.8177,266.9492 A2.0833,2.0833 0 0 0 1159.901,269.0326 L1168.2344,269.0326 L1157.8177,258.6159" fill="url(#g1n66ckzr2f94k3)" style="stroke:#246BAA;stroke-width:1.0417;"/><text fill="#FFFFFF" font-family="'Verdana'" font-size="12.5" font-weight="bold" lengthAdjust="spacing" textLength="120.3491" x="973.5729" y="280.6353">The Golden Rule:</text><text fill="#FFFFFF" font-family="'Verdana'" font-size="12.5" lengthAdjust="spacing" textLength="163.8123" x="973.5729" y="295.1861">Nothing is paid from here.</text><text fill="#FFFFFF" font-family="'Verdana'" font-size="12.5" lengthAdjust="spacing" textLength="173.8281" x="973.5729" y="309.7369">Funds strictly allocated out.</text></g><g class="entity" data-entity="GMN30" data-source-line="50" data-uid="ent0031" id="entity_GMN30"><path d="M16.6667,551.1888 L16.6667,607.3411 A4.1667,4.1667 0 0 0 20.8333,611.5078 L209.5194,611.5078 A4.1667,4.1667 0 0 0 213.6861,607.3411 L213.6861,557.4388 L203.2694,547.0221 L20.8333,547.0221 A4.1667,4.1667 0 0 0 16.6667,551.1888" fill="url(#g1n66ckzr2f94k3)" style="stroke:#246BAA;stroke-width:1.0417;"/><path d="M203.2694,547.0221 L203.2694,555.3555 A2.0833,2.0833 0 0 0 205.3528,557.4388 L213.6861,557.4388 L203.2694,547.0221" fill="url(#g1n66ckzr2f94k3)" style="stroke:#246BAA;stroke-width:1.0417;"/><text fill="#FFFFFF" font-family="'Verdana'" font-size="12.5" font-weight="bold" lengthAdjust="spacing" textLength="62.677" x="28.125" y="569.0416">Purpose:</text><text fill="#FFFFFF" font-family="'Verdana'" font-size="12.5" lengthAdjust="spacing" textLength="164.7278" x="28.125" y="583.5924">Accumulate cash reserves</text><text fill="#FFFFFF" font-family="'Verdana'" font-size="12.5" lengthAdjust="spacing" textLength="133.6121" x="28.125" y="598.1431">&amp; Quarterly Bonuses.</text></g><!--link STRIPE to INCOME--><g class="link" data-entity-1="STRIPE" data-entity-2="INCOME" data-source-line="30" data-uid="lnk17" id="link_STRIPE_INCOME"><path d="M640.5521,175.543 C640.5521,198.8034 640.5521,228.4909 640.5521,254.0638" fill="none" id="STRIPE-to-INCOME" style="stroke:#446E9B;stroke-width:3.125;"/><polygon fill="#446E9B" points="640.5521,260.3138,644.7188,250.9388,640.5521,255.1055,636.3854,250.9388,640.5521,260.3138" style="stroke:#446E9B;stroke-width:3.125;"/><text fill="#FFFFFF" font-family="'Verdana'" font-size="12.5" lengthAdjust="spacing" textLength="104.8828" x="530.1354" y="209.7395">Daily Settlement</text></g><!--link WIRES to INCOME--><g class="link" data-entity-1="WIRES" data-entity-2="INCOME" data-source-line="31" data-uid="lnk18" id="link_WIRES_INCOME"><path d="M754.1667,175.543 C754.1667,198.8034 754.1667,228.4909 754.1667,254.0638" fill="none" id="WIRES-to-INCOME" style="stroke:#446E9B;stroke-width:3.125;"/><polygon fill="#446E9B" points="754.1667,260.3138,758.3333,250.9388,754.1667,255.1055,750,250.9388,754.1667,260.3138" style="stroke:#446E9B;stroke-width:3.125;"/><text fill="#FFFFFF" font-family="'Verdana'" font-size="12.5" lengthAdjust="spacing" textLength="47.7844" x="701.0417" y="209.7395">Deposit</text></g><!--link INCOME to PROFIT--><g class="link" data-entity-1="INCOME" data-entity-2="PROFIT" data-source-line="33" data-uid="lnk19" id="link_INCOME_PROFIT"><path d="M599.8229,291.7513 C515.1146,291.7513 404.7604,291.7513 404.7604,291.7513 C404.7604,291.7513 404.7604,342.1367 404.7604,378.8659" fill="none" id="INCOME-to-PROFIT" style="stroke:#446E9B;stroke-width:3.125;"/><polygon fill="#446E9B" points="404.7604,385.1159,408.9271,375.7409,404.7604,379.9076,400.5938,375.7409,404.7604,385.1159" style="stroke:#446E9B;stroke-width:3.125;"/><text fill="#FFFFFF" font-family="'Verdana'" font-size="12.5" lengthAdjust="spacing" textLength="157.0374" x="293.1042" y="283.5624">1. Allocation (1st &amp; 15th)</text></g><!--link INCOME to TAX--><g class="link" data-entity-1="INCOME" data-entity-2="TAX" data-source-line="34" data-uid="lnk20" id="link_INCOME_TAX"><path d="M609.0313,321.3346 C609.0313,358.5951 609.0313,416.7513 609.0313,416.7513 C609.0313,416.7513 603.9688,416.7513 590.4375,416.7513" fill="none" id="INCOME-to-TAX" style="stroke:#446E9B;stroke-width:3.125;"/><polygon fill="#446E9B" points="584.1875,416.7513,593.5625,420.918,589.3958,416.7513,593.5625,412.5846,584.1875,416.7513" style="stroke:#446E9B;stroke-width:3.125;"/><text fill="#FFFFFF" font-family="'Verdana'" font-size="12.5" lengthAdjust="spacing" textLength="157.0374" x="446.5313" y="373.2708">2. Allocation (1st &amp; 15th)</text></g><!--link INCOME to OWNER--><g class="link" data-entity-1="INCOME" data-entity-2="OWNER" data-source-line="35" data-uid="lnk21" id="link_INCOME_OWNER"><path d="M695.3854,321.418 C695.3854,340.7721 695.3854,359.4701 695.3854,378.8451" fill="none" id="INCOME-to-OWNER" style="stroke:#446E9B;stroke-width:3.125;"/><polygon fill="#446E9B" points="695.3854,385.0951,699.5521,375.7201,695.3854,379.8867,691.2188,375.7201,695.3854,385.0951" style="stroke:#446E9B;stroke-width:3.125;"/><text fill="#FFFFFF" font-family="'Verdana'" font-size="12.5" lengthAdjust="spacing" textLength="157.0374" x="701.6354" y="345.0728">3. Allocation (1st &amp; 15th)</text></g><!--link INCOME to OPEX--><g class="link" data-entity-1="INCOME" data-entity-2="OPEX" data-source-line="36" data-uid="lnk22" id="link_INCOME_OPEX"><path d="M780.8229,321.3346 C780.8229,358.5951 780.8229,416.7513 780.8229,416.7513 C780.8229,416.7513 786.7083,416.7513 801.2188,416.7513" fill="none" id="INCOME-to-OPEX" style="stroke:#446E9B;stroke-width:3.125;"/><polygon fill="#446E9B" points="807.4688,416.7513,798.0938,412.5846,802.2604,416.7513,798.0938,420.918,807.4688,416.7513" style="stroke:#446E9B;stroke-width:3.125;"/><text fill="#FFFFFF" font-family="'Verdana'" font-size="12.5" lengthAdjust="spacing" textLength="195.2881" x="787.0729" y="374.177">4. Remainder (Operating Cash)</text></g><!--link PROFIT to DISTRO--><g class="link" data-entity-1="PROFIT" data-entity-2="DISTRO" data-source-line="38" data-uid="lnk23" id="link_PROFIT_DISTRO"><path d="M399.7292,446.1471 C399.7292,477.9076 399.7292,520.8346 399.7292,549.6888" fill="none" id="PROFIT-to-DISTRO" style="stroke:#446E9B;stroke-width:3.125;"/><polygon fill="#446E9B" points="399.7292,555.9388,403.8958,546.5638,399.7292,550.7305,395.5625,546.5638,399.7292,555.9388" style="stroke:#446E9B;stroke-width:3.125;"/><text fill="#FFFFFF" font-family="'Verdana'" font-size="12.5" lengthAdjust="spacing" textLength="190.4175" x="203.8958" y="492.8541">Quarterly Bonus (50% of Acct)</text></g><!--link TAX to GOV--><g class="link" data-entity-1="TAX" data-entity-2="GOV" data-source-line="39" data-uid="lnk24" id="link_TAX_GOV"><path d="M539.1354,446.1471 C539.1354,477.9076 539.1354,520.8346 539.1354,549.6888" fill="none" id="TAX-to-GOV" style="stroke:#446E9B;stroke-width:3.125;"/><polygon fill="#446E9B" points="539.1354,555.9388,543.3021,546.5638,539.1354,550.7305,534.9688,546.5638,539.1354,555.9388" style="stroke:#446E9B;stroke-width:3.125;"/><text fill="#FFFFFF" font-family="'Verdana'" font-size="12.5" lengthAdjust="spacing" textLength="124.8596" x="408.9271" y="492.8541">Quarterly Estimates</text></g><!--link OWNER to HOME--><g class="link" data-entity-1="OWNER" data-entity-2="HOME" data-source-line="40" data-uid="lnk25" id="link_OWNER_HOME"><path d="M712.8646,446.1471 C712.8646,477.9076 712.8646,520.8346 712.8646,549.6888" fill="none" id="OWNER-to-HOME" style="stroke:#446E9B;stroke-width:3.125;"/><polygon fill="#446E9B" points="712.8646,555.9388,717.0313,546.5638,712.8646,550.7305,708.6979,546.5638,712.8646,555.9388" style="stroke:#446E9B;stroke-width:3.125;"/><text fill="#FFFFFF" font-family="'Verdana'" font-size="12.5" lengthAdjust="spacing" textLength="93.2861" x="613.9063" y="492.8541">Monthly Salary</text></g><!--link OPEX to BILLS--><g class="link" data-entity-1="OPEX" data-entity-2="BILLS" data-source-line="41" data-uid="lnk26" id="link_OPEX_BILLS"><path d="M876.8333,446.1471 C876.8333,477.9076 876.8333,520.8346 876.8333,549.6888" fill="none" id="OPEX-to-BILLS" style="stroke:#446E9B;stroke-width:3.125;"/><polygon fill="#446E9B" points="876.8333,555.9388,881,546.5638,876.8333,550.7305,872.6667,546.5638,876.8333,555.9388" style="stroke:#446E9B;stroke-width:3.125;"/><text fill="#FFFFFF" font-family="'Verdana'" font-size="12.5" lengthAdjust="spacing" textLength="128.1799" x="742.4583" y="492.8541">Bi-Weekly Payments</text></g><!--link PROFIT to GMN30--><g class="link" data-entity-1="PROFIT" data-entity-2="GMN30" data-source-line="50" data-uid="lnk32" id="link_PROFIT_GMN30"><path d="M375.5,446.3867 C375.5,486.5951 375.5,552.168 375.5,552.168 C375.5,552.168 287.6042,552.168 213.9583,552.168" fill="none" id="PROFIT-GMN30" style="stroke:#446E9B;stroke-width:3.125;stroke-dasharray:7.2917,7.2917;"/></g><!--SRC=[ZLJ1RXen4BtxAwQ9sW8I199ouL09o98W4POkD5HgUt2M2MlXjLUsDosgykyTUnT2SWe73ZDlvetVczaFBiCSmHOyHSaVcDq9LN33SqXrNcY5oYtTNY8OJ1rNMuad42aKkds1e8tBD7F24V1ibI5CXE8g5Lp2ofGkWqXj2Jk0Qoxa7iRSPZ2H-W_Cz5QaPumH_OvlgNYg7Yb-1lyOqE_dqXbHuCKTcZJZolq6Rc6vIgQBgCgFCqntzc8j3DgGN4-JQCcUJphwSMA5CE9g1us54Jat- -QHOJeVntSH3CVZ-FjyzKirXb92Wa-eIeGPLniBjsYm6RhNuFEPs6RknY2gq2Jy7GcfWKwv4rh1C4rrgPmzi0N6HH9FfYkVSqJNwxPx_OzL-pfpVgFbvWM_6luuWlljomFOXyyJF076wtcK04suEE0lk-shReslijNe8rdYITqYEZ9STTlz0qE87zxAzw7W-PMsqL-7Hd5vLFDRoGs5oEDhOScxXzBhK5bpFINdubhrP0aNi7JS8GotIAjI-tSJtrU8MrrQp4Y8euWXVqlwLu1xL1jjBBLPyBtHKeRyQ3gR1Vy_auaok60pKLXMRGsqsryFBXwsSOcEzZQdJMTXUzvWiD1MECRgY4_MFWsWru4Jjnizw-0JzFekQvx2lLC3k7mNjd9f05VlGtk71l2bGu_DkL0RDD282pHKfhRXpfgCrUFwWie3AdanQgHLQQ7Hxtu4_HZMeCdyn1vERhp2HjRH-JYqh9hJOsuhdUwqSfbNaqkwBnOcy-bW2EL7ehr6t162xF9YMyQK9lkDtozFNRsBp6sr_Ctw8q05IIbnq6fHUAvTvbybBDsQsC2ZqJbaT9iTIavAVwb-vL977BpI3ZUWIzTXj2hWoMhA1-qSrH9d9KtWN9I6dAwvI8OoBwLVpzH_hEZpWkQ9tWramnljqBuG_0S0]--></g></svg>