<svg xmlns="http://www.w3.org/2000/svg" xmlns:xlink="http://www.w3.org/1999/xlink" contentStyleType="text/css" data-diagram-type="STATE" height="781px" preserveAspectRatio="none" style="width:549px;height:781px;background:#FFFFFF;" version="1.1" viewBox="0 0 549 781" width="549px" zoomAndPan="magnify"><title>The Heir Development Pathway</title><defs/><g><g class="title" data-source-line="6"><text fill="#000000" font-family="sans-serif" font-size="14" font-weight="bold" lengthAdjust="spacing" textLength="249.3408" x="140.0469" y="22.9951">The Heir Development Pathway</text></g><path d="M19.5,44.2969 L523.9347,44.2969 A12.5,12.5 0 0 1 536.4347,56.7969 L536.4347,70.5938 L7,70.5938 L7,56.7969 A12.5,12.5 0 0 1 19.5,44.2969" fill="#ADD8E6"/><rect fill="none" height="98.2969" rx="12.5" ry="12.5" style="stroke:#181818;stroke-width:0.5;" width="529.4347" x="7" y="44.2969"/><line style="stroke:#181818;stroke-width:0.5;" x1="7" x2="536.4347" y1="70.5938" y2="70.5938"/><text fill="#000000" font-family="sans-serif" font-size="14" lengthAdjust="spacing" textLength="178.3154" x="182.5596" y="62.292">Phase 1: Child (Age 0-12)</text><g id="P1.S1"><rect fill="#F1F1F1" height="50" rx="12.5" ry="12.5" style="stroke:#181818;stroke-width:0.5;" width="196.3057" x="19" y="82.5938"/><line style="stroke:#181818;stroke-width:0.5;" x1="19" x2="215.3057" y1="108.8906" y2="108.8906"/><text fill="#000000" font-family="sans-serif" font-size="14" lengthAdjust="spacing" textLength="176.3057" x="29" y="100.5889">Financial Literacy Games</text></g><g id="P1.S2"><rect fill="#F1F1F1" height="50" rx="12.5" ry="12.5" style="stroke:#181818;stroke-width:0.5;" width="104.9023" x="233.7" y="82.5938"/><line style="stroke:#181818;stroke-width:0.5;" x1="233.7" x2="338.6023" y1="108.8906" y2="108.8906"/><text fill="#000000" font-family="sans-serif" font-size="14" lengthAdjust="spacing" textLength="84.9023" x="243.7" y="100.5889">Savings Jars</text></g><g id="P1.S3"><rect fill="#F1F1F1" height="50" rx="12.5" ry="12.5" style="stroke:#181818;stroke-width:0.5;" width="170.5547" x="356.88" y="82.5938"/><line style="stroke:#181818;stroke-width:0.5;" x1="356.88" x2="527.4347" y1="108.8906" y2="108.8906"/><text fill="#000000" font-family="sans-serif" font-size="14" lengthAdjust="spacing" textLength="150.5547" x="366.88" y="100.5889">Family Values Stories</text></g><path d="M21.06,202.5869 L522.3719,202.5869 A12.5,12.5 0 0 1 534.8719,215.0869 L534.8719,228.8837 L8.56,228.8837 L8.56,215.0869 A12.5,12.5 0 0 1 21.06,202.5869" fill="#90EE90"/><rect fill="none" height="98.2969" rx="12.5" ry="12.5" style="stroke:#181818;stroke-width:0.5;" width="526.3119" x="8.56" y="202.5869"/><line style="stroke:#181818;stroke-width:0.5;" x1="8.56" x2="534.8719" y1="228.8837" y2="228.8837"/><text fill="#000000" font-family="sans-serif" font-size="14" lengthAdjust="spacing" textLength="228.1904" x="157.6207" y="220.582">Phase 2: Apprentice (Age 12-18)</text><g id="P2.S4"><rect fill="#F1F1F1" height="50" rx="12.5" ry="12.5" style="stroke:#181818;stroke-width:0.5;" width="165.4551" x="20.56" y="240.8837"/><line style="stroke:#181818;stroke-width:0.5;" x1="20.56" x2="186.0151" y1="267.1806" y2="267.1806"/><text fill="#000000" font-family="sans-serif" font-size="14" lengthAdjust="spacing" textLength="145.4551" x="30.56" y="258.8789">Internship (Summer)</text></g><g id="P2.S5"><rect fill="#F1F1F1" height="50" rx="12.5" ry="12.5" style="stroke:#181818;stroke-width:0.5;" width="167.9639" x="204.31" y="240.8837"/><line style="stroke:#181818;stroke-width:0.5;" x1="204.31" x2="372.2739" y1="267.1806" y2="267.1806"/><text fill="#000000" font-family="sans-serif" font-size="14" lengthAdjust="spacing" textLength="147.9639" x="214.31" y="258.8789">Junior Board Member</text></g><g id="P2.S6"><rect fill="#F1F1F1" height="50" rx="12.5" ry="12.5" style="stroke:#181818;stroke-width:0.5;" width="135.1719" x="390.7" y="240.8837"/><line style="stroke:#181818;stroke-width:0.5;" x1="390.7" x2="525.8719" y1="267.1806" y2="267.1806"/><text fill="#000000" font-family="sans-serif" font-size="14" lengthAdjust="spacing" textLength="115.1719" x="400.7" y="258.8789">Investment Club</text></g><path d="M35.27,360.8869 L508.1668,360.8869 A12.5,12.5 0 0 1 520.6668,373.3869 L520.6668,387.1838 L22.77,387.1838 L22.77,373.3869 A12.5,12.5 0 0 1 35.27,360.8869" fill="#FFC0CB"/><rect fill="none" height="98.2969" rx="12.5" ry="12.5" style="stroke:#181818;stroke-width:0.5;" width="497.8968" x="22.77" y="360.8869"/><line style="stroke:#181818;stroke-width:0.5;" x1="22.77" x2="520.6668" y1="387.1838" y2="387.1838"/><text fill="#000000" font-family="sans-serif" font-size="14" lengthAdjust="spacing" textLength="210.5059" x="166.4654" y="378.882">Phase 3: Explorer (Age 18-25)</text><g id="P3.S7"><rect fill="#F1F1F1" height="50" rx="12.5" ry="12.5" style="stroke:#181818;stroke-width:0.5;" width="144.626" x="34.77" y="399.1838"/><line style="stroke:#181818;stroke-width:0.5;" x1="34.77" x2="179.396" y1="425.4806" y2="425.4806"/><text fill="#000000" font-family="sans-serif" font-size="14" lengthAdjust="spacing" textLength="124.626" x="44.77" y="417.1789">University / Trade</text></g><g id="P3.S8"><rect fill="#F1F1F1" height="50" rx="12.5" ry="12.5" style="stroke:#181818;stroke-width:0.5;" width="167.2393" x="197.46" y="399.1838"/><line style="stroke:#181818;stroke-width:0.5;" x1="197.46" x2="364.6993" y1="425.4806" y2="425.4806"/><text fill="#000000" font-family="sans-serif" font-size="14" lengthAdjust="spacing" textLength="147.2393" x="207.46" y="417.1789">Outside Employment</text></g><g id="P3.S9"><rect fill="#F1F1F1" height="50" rx="12.5" ry="12.5" style="stroke:#181818;stroke-width:0.5;" width="129.1768" x="382.49" y="399.1838"/><line style="stroke:#181818;stroke-width:0.5;" x1="382.49" x2="511.6668" y1="425.4806" y2="425.4806"/><text fill="#000000" font-family="sans-serif" font-size="14" lengthAdjust="spacing" textLength="109.1768" x="392.49" y="417.1789">Travel / Mission</text></g><path d="M67.28,519.1869 L476.1474,519.1869 A12.5,12.5 0 0 1 488.6474,531.6869 L488.6474,545.4838 L54.78,545.4838 L54.78,531.6869 A12.5,12.5 0 0 1 67.28,519.1869" fill="#FFD700"/><rect fill="none" height="98.2969" rx="12.5" ry="12.5" style="stroke:#181818;stroke-width:0.5;" width="433.8674" x="54.78" y="519.1869"/><line style="stroke:#181818;stroke-width:0.5;" x1="54.78" x2="488.6474" y1="545.4838" y2="545.4838"/><text fill="#000000" font-family="sans-serif" font-size="14" lengthAdjust="spacing" textLength="218.9072" x="162.2601" y="537.182">Phase 4: Associate (Age 25-30)</text><g id="P4.S10"><rect fill="#F1F1F1" height="50" rx="12.5" ry="12.5" style="stroke:#181818;stroke-width:0.5;" width="133.1279" x="66.78" y="557.4838"/><line style="stroke:#181818;stroke-width:0.5;" x1="66.78" x2="199.9079" y1="583.7806" y2="583.7806"/><text fill="#000000" font-family="sans-serif" font-size="14" lengthAdjust="spacing" textLength="113.1279" x="76.78" y="575.4789">Junior Executive</text></g><g id="P4.S11"><rect fill="#F1F1F1" height="50" rx="12.5" ry="12.5" style="stroke:#181818;stroke-width:0.5;" width="106.7822" x="217.95" y="557.4838"/><line style="stroke:#181818;stroke-width:0.5;" x1="217.95" x2="324.7322" y1="583.7806" y2="583.7806"/><text fill="#000000" font-family="sans-serif" font-size="14" lengthAdjust="spacing" textLength="86.7822" x="227.95" y="575.4789">Project Lead</text></g><g id="P4.S12"><rect fill="#F1F1F1" height="50" rx="12.5" ry="12.5" style="stroke:#181818;stroke-width:0.5;" width="136.6074" x="343.04" y="557.4838"/><line style="stroke:#181818;stroke-width:0.5;" x1="343.04" x2="479.6474" y1="583.7806" y2="583.7806"/><text fill="#000000" font-family="sans-serif" font-size="14" lengthAdjust="spacing" textLength="116.6074" x="353.04" y="575.4789">First Distribution</text></g><path d="M42.59,677.4769 L500.8465,677.4769 A12.5,12.5 0 0 1 513.3465,689.9769 L513.3465,703.7738 L30.09,703.7738 L30.09,689.9769 A12.5,12.5 0 0 1 42.59,677.4769" fill="#FFFFFF"/><rect fill="none" height="98.2969" rx="12.5" ry="12.5" style="stroke:#181818;stroke-width:0.5;" width="483.2565" x="30.09" y="677.4769"/><line style="stroke:#181818;stroke-width:0.5;" x1="30.09" x2="513.3465" y1="703.7738" y2="703.7738"/><text fill="#000000" font-family="sans-serif" font-size="14" lengthAdjust="spacing" textLength="192.2813" x="175.5776" y="695.472">Phase 5: Partner (Age 30+)</text><g id="P5.S13"><rect fill="#F1F1F1" height="50" rx="12.5" ry="12.5" style="stroke:#181818;stroke-width:0.5;" width="172.0791" x="42.09" y="715.7738"/><line style="stroke:#181818;stroke-width:0.5;" x1="42.09" x2="214.1691" y1="742.0706" y2="742.0706"/><text fill="#000000" font-family="sans-serif" font-size="14" lengthAdjust="spacing" textLength="152.0791" x="52.09" y="733.7689">Family Council Voting</text></g><g id="P5.S14"><rect fill="#F1F1F1" height="50" rx="12.5" ry="12.5" style="stroke:#181818;stroke-width:0.5;" width="146.2256" x="232.02" y="715.7738"/><line style="stroke:#181818;stroke-width:0.5;" x1="232.02" x2="378.2456" y1="742.0706" y2="742.0706"/><text fill="#000000" font-family="sans-serif" font-size="14" lengthAdjust="spacing" textLength="126.2256" x="242.02" y="733.7689">Senior Leadership</text></g><g id="P5.S15"><rect fill="#F1F1F1" height="50" rx="12.5" ry="12.5" style="stroke:#181818;stroke-width:0.5;" width="108.4365" x="395.91" y="715.7738"/><line style="stroke:#181818;stroke-width:0.5;" x1="395.91" x2="504.3465" y1="742.0706" y2="742.0706"/><text fill="#000000" font-family="sans-serif" font-size="14" lengthAdjust="spacing" textLength="88.4365" x="405.91" y="733.7689">Trustee Role</text></g><!--link P1 to P2--><g class="link" data-entity-1="P1" data-entity-2="P2" data-source-line="39" data-uid="lnk2" id="link_P1_P2"><path d="M271.72,142.6569 C271.72,161.6269 271.72,177.2869 271.72,196.2769" fill="none" id="P1-to-P2" style="stroke:#181818;stroke-width:1;"/><polygon fill="#181818" points="271.72,202.2769,275.72,193.2769,271.72,197.2769,267.72,193.2769,271.72,202.2769" style="stroke:#181818;stroke-width:1;"/><text fill="#000000" font-family="sans-serif" font-size="13" lengthAdjust="spacing" textLength="45.8174" x="225.72" y="168.5338">Age 12</text></g><!--link P2 to P3--><g class="link" data-entity-1="P2" data-entity-2="P3" data-source-line="40" data-uid="lnk3" id="link_P2_P3"><path d="M271.72,300.9569 C271.72,319.9269 271.72,335.5869 271.72,354.5769" fill="none" id="P2-to-P3" style="stroke:#181818;stroke-width:1;"/><polygon fill="#181818" points="271.72,360.5769,275.72,351.5769,271.72,355.5769,267.72,351.5769,271.72,360.5769" style="stroke:#181818;stroke-width:1;"/><text fill="#000000" font-family="sans-serif" font-size="13" lengthAdjust="spacing" textLength="112.9375" x="158.72" y="326.8338">High School Grad</text></g><!--link P3 to P4--><g class="link" data-entity-1="P3" data-entity-2="P4" data-source-line="41" data-uid="lnk4" id="link_P3_P4"><path d="M271.72,459.2569 C271.72,478.2169 271.72,493.8769 271.72,512.8669" fill="none" id="P3-to-P4" style="stroke:#181818;stroke-width:1;"/><polygon fill="#181818" points="271.72,518.8669,275.72,509.8669,271.72,513.8669,267.72,509.8669,271.72,518.8669" style="stroke:#181818;stroke-width:1;"/><text fill="#000000" font-family="sans-serif" font-size="13" lengthAdjust="spacing" textLength="140.5752" x="130.72" y="485.1338">2 Years Outside Work</text></g><!--link P4 to P5--><g class="link" data-entity-1="P4" data-entity-2="P5" data-source-line="42" data-uid="lnk5" id="link_P4_P5"><path d="M271.72,617.5469 C271.72,636.5169 271.72,652.1769 271.72,671.1669" fill="none" id="P4-to-P5" style="stroke:#181818;stroke-width:1;"/><polygon fill="#181818" points="271.72,677.1669,275.72,668.1669,271.72,672.1669,267.72,668.1669,271.72,677.1669" style="stroke:#181818;stroke-width:1;"/><text fill="#000000" font-family="sans-serif" font-size="13" lengthAdjust="spacing" textLength="131.625" x="139.72" y="643.4238">Proven Competence</text></g><!--SRC=[RPD1Rzim38Nl_XL4SrY7mLXinrsMmu0sxT8LAHRCNOiT5OU8jSYI8T5fZMB_VOoj37Qpd0BoYVxq-EHsKbV2YXAKr4XDXM0i5IPm_nhQRD1X1HVZNj4AlJifvgQiZ4PD6JKAmM9EGcyL1W59ui93WN2Bqi8rxb6PgcGfh0GLpw890aU24CvMXN08qGpcXLGREB_S8ep3A7v_1iB1AeBHKcuBkb8rmci0_FC7lqejT2w5WgKaj29lO25ATEsvBEfBCx6NUklWJbZVZWUJH2bL0u-2ly4zCbOUnoJ1dpUayGmkgyhoLMIE7MuKXz7KyyQUTs4HzH3ucsPCxGfPmNbMboNQxamswQlkQYsDXIiZx0RkiLoZxLJfSDOU7RM6pbMzxXGN9x3936vUAcKiMeyw3UFKeoOmMacz6qB-r7AFrabgu2CyMB71RlQdlkXxJKvk46vAdjqSA3hHj2_Ymxnrdd8ldPD6TvBF9umJDjGvmviaxsUSXidOGqvWj32SYzV_U7JpWdbDpEjNFkvhLjRyva324iN6zwDXVAmZk9QEh5ppb2DW59yGfZDEhILzD34PV_1qAOoU2axVcsHsUPgRclEfuD4GfyzFJmQvnFOU1qJsd8FXHPEXZxKZHFXXrF6YwG7ntM4zcZV5w2xWXnA6NmxvOplRJ0RyloqbNBhbJ4AM5yOeMF1M0wwspGatO_Y5_3BWkDOdOtS1Trf1oWBsSizfdlDxHqATury0]--></g></svg>