<svg xmlns="http://www.w3.org/2000/svg" xmlns:xlink="http://www.w3.org/1999/xlink" contentStyleType="text/css" data-diagram-type="DESCRIPTION" height="432px" preserveAspectRatio="none" style="width:1802px;height:432px;background:#FFFFFF;" version="1.1" viewBox="0 0 1802 432" width="1802px" zoomAndPan="magnify"><defs/><g><!--cluster Sovereignty Layer--><g class="cluster" data-entity="Sovereignty Layer" data-source-line="4" data-uid="ent0002" id="cluster_Sovereignty Layer"><rect fill="none" height="292.89" rx="2.5" ry="2.5" style="stroke:#181818;stroke-width:1;" width="322" x="1474.5463" y="125.1016"/><text fill="#000000" font-family="sans-serif" font-size="14" font-weight="bold" lengthAdjust="spacing" textLength="144.0947" x="1563.4989" y="140.0967">Sovereignty Layer</text></g><!--cluster Wealth Accumulation Layer--><g class="cluster" data-entity="Wealth Accumulation Layer" data-source-line="9" data-uid="ent0005" id="cluster_Wealth Accumulation Layer"><rect fill="none" height="122.59" rx="2.5" ry="2.5" style="stroke:#181818;stroke-width:1;" width="413" x="883.5463" y="303.5516"/><text fill="#000000" font-family="sans-serif" font-size="14" font-weight="bold" lengthAdjust="spacing" textLength="216.7607" x="981.6659" y="318.5467">Wealth Accumulation Layer</text></g><!--cluster Operational Layer (Risk Zone)--><g class="cluster" data-entity="Operational Layer .Risk Zone." data-source-line="14" data-uid="ent0008" id="cluster_Operational Layer .Risk Zone."><rect fill="none" height="106.3" rx="2.5" ry="2.5" style="stroke:#181818;stroke-width:1;" width="713" x="367.5463" y="125.1016"/><text fill="#000000" font-family="sans-serif" font-size="14" font-weight="bold" lengthAdjust="spacing" textLength="236.8584" x="605.6171" y="140.0967">Operational Layer (Risk Zone)</text></g><!--cluster Personal Layer--><g class="cluster" data-entity="Personal Layer" data-source-line="21" data-uid="ent0013" id="cluster_Personal Layer"><rect fill="none" height="122.6" rx="2.5" ry="2.5" style="stroke:#181818;stroke-width:1;" width="170" x="21.5463" y="116.9516"/><text fill="#000000" font-family="sans-serif" font-size="14" font-weight="bold" lengthAdjust="spacing" textLength="117.5918" x="47.7504" y="131.9467">Personal Layer</text></g><!--entity DT--><g class="entity" data-entity="DT" data-source-line="5" data-uid="ent0003" id="entity_DT"><rect fill="#90EE90" height="36.2969" rx="2.5" ry="2.5" style="stroke:#181818;stroke-width:0.5;" width="118" x="1490.5463" y="179.1016"/><text fill="#000000" font-family="sans-serif" font-size="14" lengthAdjust="spacing" textLength="98" x="1500.5463" y="202.0967">Dynasty Trust</text></g><!--entity ILIT--><g class="entity" data-entity="ILIT" data-source-line="6" data-uid="ent0004" id="entity_ILIT"><rect fill="#90EE90" height="36.2969" rx="2.5" ry="2.5" style="stroke:#181818;stroke-width:0.5;" width="44.6094" x="1549.2463" y="365.6916"/><text fill="#000000" font-family="sans-serif" font-size="14" lengthAdjust="spacing" textLength="24.6094" x="1559.2463" y="388.6867">ILIT</text></g><!--entity CAP--><g class="entity" data-entity="CAP" data-source-line="10" data-uid="ent0006" id="entity_CAP"><rect fill="#FFD700" height="52.5938" rx="2.5" ry="2.5" style="stroke:#181818;stroke-width:0.5;" width="169.4473" x="899.8263" y="357.5516"/><text fill="#000000" font-family="sans-serif" font-size="14" lengthAdjust="spacing" textLength="149.4473" x="909.8263" y="380.5467">Captive Insurance Co</text><text fill="#000000" font-family="sans-serif" font-size="14" lengthAdjust="spacing" textLength="106.8457" x="909.8263" y="396.8436">(831b Election)</text></g><!--entity PPLI--><g class="entity" data-entity="PPLI" data-source-line="11" data-uid="ent0007" id="entity_PPLI"><rect fill="#FFD700" height="52.5938" rx="2.5" ry="2.5" style="stroke:#181818;stroke-width:0.5;" width="176.1738" x="1104.4563" y="357.5516"/><text fill="#000000" font-family="sans-serif" font-size="14" lengthAdjust="spacing" textLength="74.0332" x="1114.4563" y="380.5467">PPLI Policy</text><text fill="#000000" font-family="sans-serif" font-size="14" lengthAdjust="spacing" textLength="156.1738" x="1114.4563" y="396.8436">(Tax-Free Investment)</text></g><!--entity PNR--><g class="entity" data-entity="PNR" data-source-line="15" data-uid="ent0009" id="entity_PNR"><rect fill="#ADD8E6" height="36.2969" rx="2.5" ry="2.5" style="stroke:#181818;stroke-width:0.5;" width="143.7305" x="383.6763" y="179.1016"/><text fill="#000000" font-family="sans-serif" font-size="14" lengthAdjust="spacing" textLength="123.7305" x="393.6763" y="202.0967">PNR Holdings LLC</text></g><!--entity OP1--><g class="entity" data-entity="OP1" data-source-line="16" data-uid="ent0010" id="entity_OP1"><rect fill="#FFC0CB" height="36.2969" rx="2.5" ry="2.5" style="stroke:#181818;stroke-width:0.5;" width="141.8232" x="562.6363" y="179.1016"/><text fill="#000000" font-family="sans-serif" font-size="14" lengthAdjust="spacing" textLength="121.8232" x="572.6363" y="202.0967">OpCo 1: Notroom</text></g><!--entity OP2--><g class="entity" data-entity="OP2" data-source-line="17" data-uid="ent0011" id="entity_OP2"><rect fill="#FFC0CB" height="36.2969" rx="2.5" ry="2.5" style="stroke:#181818;stroke-width:0.5;" width="129.3682" x="739.8663" y="179.1016"/><text fill="#000000" font-family="sans-serif" font-size="14" lengthAdjust="spacing" textLength="109.3682" x="749.8663" y="202.0967">OpCo 2: TaxEar</text></g><!--entity OP3--><g class="entity" data-entity="OP3" data-source-line="18" data-uid="ent0012" id="entity_OP3"><rect fill="#FFC0CB" height="36.2969" rx="2.5" ry="2.5" style="stroke:#181818;stroke-width:0.5;" width="160.3418" x="904.3763" y="179.1016"/><text fill="#000000" font-family="sans-serif" font-size="14" lengthAdjust="spacing" textLength="140.3418" x="914.3763" y="202.0967">OpCo 3: Real Estate</text></g><!--entity YOU--><g class="entity" data-entity="YOU" data-source-line="22" data-uid="ent0014" id="entity_YOU"><rect fill="#FFFFFF" height="52.5938" rx="2.5" ry="2.5" style="stroke:#181818;stroke-width:0.5;" width="138.6992" x="37.1963" y="170.9516"/><text fill="#000000" font-family="sans-serif" font-size="14" lengthAdjust="spacing" textLength="118.6992" x="47.1963" y="193.9467">Primary Principal</text><text fill="#000000" font-family="sans-serif" font-size="14" lengthAdjust="spacing" textLength="36.9141" x="47.1963" y="210.2436">(You)</text></g><!--entity UMB--><g class="entity" data-entity="UMB" data-source-line="31" data-uid="ent0018" id="entity_UMB"><path d="M17.7095,16.0727 C21.2585,9.4253 26.2799,8.5829 30.548,15.3863 C34.4944,10.4032 40.5935,9.9049 43.4849,16.559 C47.0355,9.8382 53.5018,9.7483 57.532,16.0413 C60.7797,10.8352 66.2957,10.1259 70.0319,15.4622 C72.9077,10.0775 78.3513,9.2126 81.492,15.1951 C84.5078,8.1334 89.7531,8.3127 93.9985,13.9878 C97.5117,6.0108 103.681,6 108.9226,12.1636 C113.5707,6.9565 118.6531,7.5454 121.4775,14.1088 C124.3418,8.9565 130.0463,7.0844 133.4979,13.4983 C137.3589,8.16 143.0066,7.0567 146.5202,13.8706 C151.1063,8.1376 156.9504,9.4356 159.3522,16.1266 C163.4733,9.1706 168.514,10.0818 172.6952,16.0646 C176.9182,10.6088 180.6307,11.2641 183.9899,16.9409 C187.3962,10.6717 191.8696,10.1073 196.1761,16.042 C204.9505,17.9976 207.0034,26.239 200.9998,32.5205 C206.88,38.6457 205.4347,45.4215 196.8895,47.6199 C192.9186,55.1204 188.7736,53.9926 183.8048,48.6354 C180.8803,54.0769 175.2774,54.673 171.3435,49.8623 C168.2931,56.039 162.4046,56.19 158.7069,50.5547 C156.0214,56.0328 151.4634,56.4923 147.324,52.259 C144.1378,60.1641 138.9725,59.753 133.3801,54.8861 C129.9224,61.1703 125.0822,61.1265 120.8744,55.686 C117.9154,62.24 111.7798,61.4196 108.1363,56.4422 C102.9678,62.1416 98.6129,62.2858 94.3745,55.4232 C90.6627,61.1411 85.4234,60.0118 82.1336,54.9442 C76.6034,60.4779 73.377,58.322 70.4078,52.3371 C64.9349,58.7063 60.877,57.2751 56.6258,51.005 C52.1331,56.5273 47.9709,56.3499 43.7277,50.7164 C38.7534,57.3836 32.6294,55.9686 30.067,48.4016 C24.9318,54.4495 21.2006,52.5579 17.6528,46.7407 C9.7885,44.6612 6.789,39.682 12.8622,32.8097 C6,24.8143 8.2932,19.3537 17.7095,16.0727" fill="#FFFFE0" style="stroke:#181818;stroke-width:0.5;"/><text fill="#000000" font-family="sans-serif" font-size="14" lengthAdjust="spacing" textLength="165.1631" x="23.9663" y="35.6567">Umbrella Shield ($10M)</text></g><!--entity DO--><g class="entity" data-entity="DO" data-source-line="32" data-uid="ent0019" id="entity_DO"><path d="M343.035,17.7271 C345.2336,12.7784 349.3292,11.4416 353.4957,15.4216 C357.1922,7.7118 362.5362,7.4441 367.1476,14.5804 C370.7393,9.4752 374.8691,9.3166 378.4474,14.595 C381.795,8.962 386.4739,8.437 390.5802,13.7543 C394.8902,8.9399 398.4915,9.7987 401.6471,15.0265 C404.7695,9.4576 408.7463,9.1644 412.5419,14.344 C417.4627,9.1546 422.2663,10.4439 425.1997,16.5676 C428.9961,10.6351 433.8828,10.0541 437.8412,16.4008 C445.8473,18.34 448.4114,24.2322 443.8396,31.2517 C449.0887,39.2301 446.0809,47.6013 435.7152,48.0093 C432.5249,53.7393 428.5864,53.9647 424.8039,48.5912 C422.4237,54.6921 417.1422,56.4921 412.6493,50.7616 C410.8984,55.9799 406.0858,57.2037 402.3698,52.8781 C399.533,60.0262 392.8857,61.0988 388.5779,54.3366 C383.97,58.3066 378.7016,57.8509 377.4759,50.8987 C373.5019,56.159 369.3856,56.5736 365.2214,51.1163 C360.7335,55.3228 356.8454,55.9214 353.8514,49.5157 C350.0127,54.0101 346.0226,54.1441 343.6211,48.1181 C334.0578,45.0769 334.9147,37.1431 341.1776,31.7407 C335.0728,26.6639 336.2695,21.098 343.035,17.7271" fill="#E0FFFF" style="stroke:#181818;stroke-width:0.5;"/><text fill="#000000" font-family="sans-serif" font-size="14" lengthAdjust="spacing" textLength="80.2061" x="348.4463" y="35.6567">D&amp;O Shield</text></g><!--entity CYBER--><g class="entity" data-entity="CYBER" data-source-line="33" data-uid="ent0020" id="entity_CYBER"><path d="M582.319,16.7644 C585.7043,10.0124 591.1754,9.9693 595.8387,15.3389 C599.6423,9.0883 605.486,8.954 608.6405,15.9655 C611.9156,8.4315 615.9342,8.1756 621.5807,13.5968 C626.5007,7.7191 630.6911,6.935 635.5067,13.7117 C640.0246,8.1459 644.2913,9.84 647.1696,15.4264 C650.5863,9.9461 656.105,10.0759 659.3968,15.5656 C663.6322,9.0376 667.764,9.6338 672.2108,15.3443 C676.4992,9.8277 682.9794,9.9267 686.5672,16.1975 C695.1101,19.9871 696.4126,27.2039 687.9582,32.4484 C694.5968,37.7077 693.3551,43.7001 685.7185,46.719 C682.6886,53.2351 678.1775,52.704 673.9637,47.9543 C670.4337,55.5136 665.8557,56.6765 660.1549,50.0704 C657.0501,56.3282 652.9208,57.0571 648.3891,51.4902 C645.9822,58.1858 639.5828,60.0889 635.1151,53.5585 C630.7688,59.0501 625.4941,59.8969 621.7144,52.9482 C616.6469,58.0363 610.9294,56.0233 608.7033,49.7066 C603.995,54.5412 599.6438,54.5181 596.0137,48.4515 C592.4705,54.3879 586.7016,54.4316 583.6252,47.9845 C573.2136,46.771 569.3461,41.1806 574.738,31.4651 C569.8959,22.6188 572.7444,18.1761 582.319,16.7644" fill="#E0FFFF" style="stroke:#181818;stroke-width:0.5;"/><text fill="#000000" font-family="sans-serif" font-size="14" lengthAdjust="spacing" textLength="88.8057" x="589.1463" y="35.6567">Cyber Shield</text></g><!--entity KEY--><g class="entity" data-entity="KEY" data-source-line="34" data-uid="ent0021" id="entity_KEY"><path d="M858.8525,16.9951 C860.6559,12.0437 865.3178,11.7472 868.5357,15.4039 C871.8602,9.5207 878.4323,8.2535 882.2169,14.9016 C885.0947,10.2047 888.9652,9.4966 892.2087,14.5259 C895.8424,9.1546 902.0293,8.0805 905.0524,15.1559 C908.0462,9.556 912.2361,9.8164 915.9556,14.3773 C918.0773,7.9076 922.8571,7.2789 927.0661,12.3716 C931.8083,7.6629 936.2344,7.7302 939.3329,14.1788 C943.0725,8.6822 948.5853,9.4892 951.1747,15.3754 C954.0895,9.8458 959.7474,10.2006 962.8637,15.1505 C966.0366,9.9182 969.6498,10.5331 973.2968,14.6197 C977.238,8.7781 982.792,10.4873 985.4512,15.9928 C988.809,9.916 994.9492,9.2605 998.399,15.899 C1005.452,18.4907 1008.6352,25.6354 1001.7936,31.2914 C1009.1586,37.9617 1005.2545,44.6262 997.3345,46.9415 C994.1016,51.9292 989.7637,52.1862 985.9275,47.6652 C982.9393,53.7115 978.0537,55.2642 973.1218,49.834 C969.894,55.4962 965.3019,55.4941 961.4772,50.4853 C959.6322,56.3827 955.4383,57.342 950.8322,53.5045 C947.5123,58.6337 942.2137,58.7895 939.1858,53.1877 C936.6649,58.7942 931.4292,61.5813 926.7731,55.4445 C922.962,59.5751 916.9153,59.9091 915.1413,53.2486 C911.444,58.1088 907.478,57.1354 905.367,51.7372 C901.3773,57.9981 896.0753,57.0418 893.1941,50.6692 C889.6657,56.5202 884.6011,55.9977 881.817,49.9571 C876.7477,54.7471 871.4508,54.761 868.5111,47.5884 C865.1784,51.862 860.581,50.8511 858.2835,46.3778 C849.151,45.7312 845.6077,41.6971 850.0421,32.8097 C845.156,23.7097 849.1651,17.9762 858.8525,16.9951" fill="#E0FFFF" style="stroke:#181818;stroke-width:0.5;"/><text fill="#000000" font-family="sans-serif" font-size="14" lengthAdjust="spacing" textLength="125.5625" x="863.7663" y="35.6567">Key Person Shield</text></g><!--link DT to PNR--><g class="link" data-entity-1="DT" data-entity-2="PNR" data-source-line="26" data-uid="lnk15" id="link_DT_PNR"><path d="M1490.0763,182.4516 C1401.5163,161.2416 1229.4163,123.1816 1080.5463,108.9516 C959.9863,97.4316 929.1563,108.0216 808.0463,107.7516 C772.9363,107.6716 764.1563,107.6416 729.0463,107.7516 C647.4863,108.0216 620.9463,77.8616 545.5463,108.9516 C511.1463,123.1416 486.2175,152.5276 471.0175,173.9576" fill="none" id="DT-to-PNR" style="stroke:#181818;stroke-width:1;"/><polygon fill="#181818" points="467.5463,178.8516,476.0157,173.8248,470.439,174.7733,469.4905,169.1965,467.5463,178.8516" style="stroke:#181818;stroke-width:1;"/><text fill="#000000" font-family="sans-serif" font-size="13" lengthAdjust="spacing" textLength="77.1748" x="730.0463" y="97.0185">Owns 100%</text></g><!--link DT to CAP--><g class="link" data-entity-1="DT" data-entity-2="CAP" data-source-line="27" data-uid="lnk16" id="link_DT_CAP"><path d="M1490.3563,197.9316 C1417.7263,199.7116 1292.4263,209.9616 1196.5463,255.5516 C1177.2163,264.7416 1180.1163,278.8716 1160.5463,287.5516 C1130.3063,300.9516 1116.9163,282.4316 1086.5463,295.5516 C1054.6663,309.3216 1029.4266,332.2326 1010.4766,352.6626" fill="none" id="DT-to-CAP" style="stroke:#181818;stroke-width:1;"/><polygon fill="#181818" points="1006.3963,357.0616,1015.4494,353.1833,1009.7966,353.3957,1009.5841,347.7429,1006.3963,357.0616" style="stroke:#181818;stroke-width:1;"/><text fill="#000000" font-family="sans-serif" font-size="13" lengthAdjust="spacing" textLength="77.1748" x="1197.5463" y="276.1185">Owns 100%</text></g><!--link CAP to DT--><g class="link" data-entity-1="CAP" data-entity-2="DT" data-source-line="49" data-uid="lnk30" id="link_CAP_DT"><path d="M1005.4163,357.3316 C1024.1863,336.4816 1053.7963,308.4316 1086.5463,295.5516 C1126.4963,279.8416 1237.9463,298.1416 1279.5463,287.5516 C1310.7463,279.6016 1314.4663,267.0416 1344.5463,255.5516 C1392.5263,237.2116 1443.0191,223.3213 1484.4691,213.1513" fill="none" id="CAP-to-DT" style="stroke:#181818;stroke-width:1;"/><polygon fill="#181818" points="1490.2963,211.7216,1480.6024,209.9814,1485.4403,212.913,1482.5087,217.7509,1490.2963,211.7216" style="stroke:#181818;stroke-width:1;"/><text fill="#000000" font-family="sans-serif" font-size="13" lengthAdjust="spacing" textLength="165.0962" x="1345.5463" y="276.1185">Dividends (Capital Gains)</text></g><!--link DT to ILIT--><g class="link" data-entity-1="DT" data-entity-2="ILIT" data-source-line="28" data-uid="lnk17" id="link_DT_ILIT"><path d="M1538.7663,215.8416 C1532.6863,226.8116 1525.6963,241.4916 1522.5463,255.5516 C1519.4363,269.4316 1519.1963,273.7216 1522.5463,287.5516 C1529.5963,316.6616 1543.8653,341.8247 1555.9353,360.2247" fill="none" id="DT-to-ILIT" style="stroke:#181818;stroke-width:1;"/><polygon fill="#181818" points="1559.2263,365.2416,1557.6344,355.5222,1556.4838,361.0608,1550.9452,359.9102,1559.2263,365.2416" style="stroke:#181818;stroke-width:1;"/><text fill="#000000" font-family="sans-serif" font-size="13" lengthAdjust="spacing" textLength="50.0195" x="1523.5463" y="276.1185">Grantor</text></g><!--link ILIT to DT--><g class="link" data-entity-1="ILIT" data-entity-2="DT" data-source-line="50" data-uid="lnk31" id="link_ILIT_DT"><path d="M1575.6463,365.2616 C1580.7363,340.4416 1587.6963,293.8716 1578.5463,255.5516 C1575.1563,241.3416 1570.7215,231.8236 1564.1915,220.8836" fill="none" id="ILIT-to-DT" style="stroke:#181818;stroke-width:1;"/><polygon fill="#181818" points="1561.1163,215.7316,1562.2944,225.5097,1563.679,220.0249,1569.1638,221.4095,1561.1163,215.7316" style="stroke:#181818;stroke-width:1;"/><text fill="#000000" font-family="sans-serif" font-size="13" lengthAdjust="spacing" textLength="161.2686" x="1583.5463" y="276.1185">Death Benefit (Tax-Free)</text></g><!--link UMB to YOU--><g class="link" data-entity-1="UMB" data-entity-2="YOU" data-source-line="37" data-uid="lnk22" id="link_UMB_YOU"><path d="M104.9663,54.3816 C104.3963,63.5516 103.8263,74.2516 103.5463,83.9516 C102.6863,113.7816 103.6262,142.0791 104.7662,164.8391" fill="none" id="UMB-to-YOU" style="stroke:#181818;stroke-width:1;stroke-dasharray:7,7;"/><polygon fill="#181818" points="105.0663,170.8316,108.6111,161.6427,104.8162,165.8378,100.6211,162.0429,105.0663,170.8316" style="stroke:#181818;stroke-width:1;"/><text fill="#000000" font-family="sans-serif" font-size="13" lengthAdjust="spacing" textLength="159.5483" x="104.5463" y="97.0185">Protects Personal Assets</text></g><!--link DO to PNR--><g class="link" data-entity-1="DO" data-entity-2="PNR" data-source-line="38" data-uid="lnk23" id="link_DO_PNR"><path d="M333.0763,52.9616 C311.2263,64.8116 293.6463,81.1916 304.5463,100.9516 C325.5063,138.9616 363.1739,161.5457 398.0139,176.3457" fill="none" id="DO-to-PNR" style="stroke:#181818;stroke-width:1;stroke-dasharray:7,7;"/><polygon fill="#181818" points="403.5363,178.6916,396.8167,171.4911,398.9343,176.7366,393.6888,178.8543,403.5363,178.6916" style="stroke:#181818;stroke-width:1;"/><text fill="#000000" font-family="sans-serif" font-size="13" lengthAdjust="spacing" textLength="121.1387" x="305.5463" y="97.0185">Protects Managers</text></g><!--link DO to OP1--><g class="link" data-entity-1="DO" data-entity-2="OP1" data-source-line="39" data-uid="lnk24" id="link_DO_OP1"><path d="M417.5263,54.1816 C439.0263,69.6716 469.6563,89.4816 499.5463,100.9516 C518.5063,108.2316 526.4863,99.6516 544.5463,108.9516 C577.0563,125.7116 601.7872,153.6288 617.3172,173.8988" fill="none" id="DO-to-OP1" style="stroke:#181818;stroke-width:1;stroke-dasharray:7,7;"/><polygon fill="#181818" points="620.9663,178.6616,618.6679,169.0846,617.9254,174.6926,612.3175,173.9501,620.9663,178.6616" style="stroke:#181818;stroke-width:1;"/><text fill="#000000" font-family="sans-serif" font-size="13" lengthAdjust="spacing" textLength="121.1387" x="500.5463" y="97.0185">Protects Managers</text></g><!--link CYBER to OP1--><g class="link" data-entity-1="CYBER" data-entity-2="OP1" data-source-line="40" data-uid="lnk25" id="link_CYBER_OP1"><path d="M631.9663,54.3816 C631.3963,63.5516 630.8263,74.2516 630.5463,83.9516 C629.5863,117.4816 630.9381,150.6606 632.1481,172.7506" fill="none" id="CYBER-to-OP1" style="stroke:#181818;stroke-width:1;stroke-dasharray:7,7;"/><polygon fill="#181818" points="632.4763,178.7416,635.9781,169.5363,632.2028,173.7491,627.99,169.9738,632.4763,178.7416" style="stroke:#181818;stroke-width:1;"/><text fill="#000000" font-family="sans-serif" font-size="13" lengthAdjust="spacing" textLength="88.4229" x="631.5463" y="97.0185">Protects Data</text></g><!--link KEY to OP1--><g class="link" data-entity-1="KEY" data-entity-2="OP1" data-source-line="41" data-uid="lnk26" id="link_KEY_OP1"><path d="M892.1963,54.3916 C864.1563,72.4016 826.4963,95.4716 809.5463,100.9516 C772.5963,112.9016 757.7763,92.6316 722.5463,108.9516 C688.9663,124.5116 664.0867,153.3948 648.9067,174.0748" fill="none" id="KEY-to-OP1" style="stroke:#181818;stroke-width:1;stroke-dasharray:7,7;"/><polygon fill="#181818" points="645.3563,178.9116,653.9065,174.0233,648.315,174.8809,647.4574,169.2894,645.3563,178.9116" style="stroke:#181818;stroke-width:1;"/><text fill="#000000" font-family="sans-serif" font-size="13" lengthAdjust="spacing" textLength="114.5815" x="842.5463" y="97.0185">Protects Revenue</text></g><!--link KEY to OP1--><g class="link" data-entity-1="KEY" data-entity-2="OP1" data-source-line="51" data-uid="lnk32" id="link_KEY_OP1"><path d="M952.8163,54.2616 C966.7563,68.8116 978.5763,87.4816 965.5463,100.9516 C956.1563,110.6616 734.9663,103.6416 722.5463,108.9516 C688.3163,123.6016 663.3898,153.0863 648.4298,174.0663" fill="none" id="KEY-to-OP1-1" style="stroke:#181818;stroke-width:1;"/><polygon fill="#181818" points="644.9463,178.9516,653.4283,173.946,647.8492,174.8805,646.9147,169.3014,644.9463,178.9516" style="stroke:#181818;stroke-width:1;"/><text fill="#000000" font-family="sans-serif" font-size="13" lengthAdjust="spacing" textLength="161.2686" x="972.5463" y="97.0185">Death Benefit (Tax-Free)</text></g><!--link OP1 to CAP--><g class="link" data-entity-1="OP1" data-entity-2="CAP" data-source-line="44" data-uid="lnk27" id="link_OP1_CAP"><path d="M620.3663,215.7816 C607.5163,235.1716 592.1363,266.4616 608.5463,287.5516 C643.9063,332.9916 793.8474,359.4599 893.4674,372.5499" fill="none" id="OP1-to-CAP" style="stroke:#181818;stroke-width:1;"/><polygon fill="#181818" points="899.4163,373.3316,891.0141,368.1931,894.4589,372.6802,889.9719,376.125,899.4163,373.3316" style="stroke:#181818;stroke-width:1;"/><text fill="#000000" font-family="sans-serif" font-size="13" lengthAdjust="spacing" textLength="173.8877" x="609.5463" y="268.6185">Pays Deductible Premiums</text><text fill="#000000" font-family="sans-serif" font-size="13" lengthAdjust="spacing" textLength="81.4722" x="655.7541" y="283.7513">(Cyber/E&amp;O)</text></g><!--link OP2 to CAP--><g class="link" data-entity-1="OP2" data-entity-2="CAP" data-source-line="45" data-uid="lnk28" id="link_OP2_CAP"><path d="M797.7463,215.7916 C791.5363,234.9016 785.1763,265.6716 798.5463,287.5516 C820.7763,323.9216 856.1736,344.8607 894.0436,359.1707" fill="none" id="OP2-to-CAP" style="stroke:#181818;stroke-width:1;"/><polygon fill="#181818" points="899.6563,361.2916,892.6512,354.3685,894.9791,359.5242,889.8234,361.852,899.6563,361.2916" style="stroke:#181818;stroke-width:1;"/><text fill="#000000" font-family="sans-serif" font-size="13" lengthAdjust="spacing" textLength="173.8877" x="799.5463" y="276.1185">Pays Deductible Premiums</text></g><!--link OP3 to CAP--><g class="link" data-entity-1="OP3" data-entity-2="CAP" data-source-line="46" data-uid="lnk29" id="link_OP3_CAP"><path d="M983.3863,215.7916 C982.6963,227.1316 981.8963,242.2016 981.5463,255.5516 C980.6163,290.9016 981.751,325.7979 982.931,351.4879" fill="none" id="OP3-to-CAP" style="stroke:#181818;stroke-width:1;"/><polygon fill="#181818" points="983.2063,357.4816,986.7891,348.3075,982.9769,352.4868,978.7976,348.6746,983.2063,357.4816" style="stroke:#181818;stroke-width:1;"/><text fill="#000000" font-family="sans-serif" font-size="13" lengthAdjust="spacing" textLength="173.8877" x="982.5463" y="276.1185">Pays Deductible Premiums</text></g><!--SRC=[ZPHDRnen48Rl-oj6eKtXa3Gabuf3fB0GYWBP5I6AwCV1B5EmyDehsqkwglhVExOti4sfMYuWppFZTzuPOxPS5aop70gMRTaQ7smb43HcbicrmCZiWKpbXP8exMiagbFXv47jK2DVIrl1X5MeJ-171FJvFAWaCtGwrwMnNu4P6CoXDU7hZHrfH1ceyMGyzq7tuxVmpyOjJyY4tS1DbfLvAPZbIhwwBMQ5vJk4iJIbPZ93YDKNsVvmrLt2K91mIkduY-AR55eZ9LOXCKqdOqYLu5b5_9nzFxkbwwdE3etDgVUGvR6GrXIM5AYz72Q286ZFkDd29xAjinUNti_W8wLokJOmcSIX8Xs6VlkYn00cHQoWsuDxPRLIkUUIj0kjbCjj0xdi0IaTCbqJbtyGLpsOaMamD9PPhB6h6cjsaA8s1_a7oPhdJ5T0tpBZ1HDapaALmOn5yWYjfmstw4gzevl2JCo65oQYCP-TNVl-Uf0yImFTYuktByVE_YF7Vlmz6D7ihDAkw66I3nkEOcMYJAXo1IUF-LAZ4Am-X_QRxiMKp2PXZzD-xUc22FNyaZ8uJMhQOuEafkAAoHSchfOqlWOLB_h3sH7m3iaMxrgJlXikcYmr42ifm-APo0axFx_splN8L6KfOc1l_eqnQCcwn5F1kZqrPP96fVTXjn77ma7m4MB0B8kSm2En6UvGqlwHu5HZpiiSRiav4pdkCB2KLLG7LoKrjAJ_Wferj1RUkFV3qwGJkKtyTqxaDl4_C99KF_oWoE4kRU0sPS1tV8LoPQ1DRvzRCd74k3IToA_IWKD61VeeyHkti7_W7U-7eu8VVyD-0G00]--></g></svg>