<svg xmlns="http://www.w3.org/2000/svg" xmlns:xlink="http://www.w3.org/1999/xlink" contentStyleType="text/css" data-diagram-type="DESCRIPTION" height="524px" preserveAspectRatio="none" style="width:673px;height:524px;background:#FFFFFF;" version="1.1" viewBox="0 0 673 524" width="673px" zoomAndPan="magnify"><defs/><g><!--cluster The Wild Web (Data Sources)--><g class="cluster" data-entity="The Wild Web .Data Sources." data-source-line="6" data-uid="ent0002" id="cluster_The Wild Web .Data Sources."><path d="M8.5,6 L240.7324,6 A3.75,3.75 0 0 1 243.2324,8.5 L250.2324,28.2969 L663.5,28.2969 A2.5,2.5 0 0 1 666,30.7969 L666,90.79 A2.5,2.5 0 0 1 663.5,93.29 L8.5,93.29 A2.5,2.5 0 0 1 6,90.79 L6,8.5 A2.5,2.5 0 0 1 8.5,6" fill="none" style="stroke:#000000;stroke-width:1.5;"/><line style="stroke:#000000;stroke-width:1.5;" x1="6" x2="250.2324" y1="28.2969" y2="28.2969"/><text fill="#000000" font-family="sans-serif" font-size="14" font-weight="bold" lengthAdjust="spacing" textLength="231.2324" x="10" y="20.9951">The Wild Web (Data Sources)</text></g><!--cluster BRAIN--><g class="cluster" data-entity="BRAIN" data-source-line="13" data-uid="ent0007" id="cluster_BRAIN"><path d="M176.5,117.29 L463.9258,117.29 A3.75,3.75 0 0 1 466.4258,119.79 L473.4258,139.5869 L473.5,139.5869 A2.5,2.5 0 0 1 476,142.0869 L476,394.68 A2.5,2.5 0 0 1 473.5,397.18 L176.5,397.18 A2.5,2.5 0 0 1 174,394.68 L174,119.79 A2.5,2.5 0 0 1 176.5,117.29" fill="#ADD8E6" style="stroke:#000000;stroke-width:1.5;"/><line style="stroke:#000000;stroke-width:1.5;" x1="174" x2="473.4258" y1="139.5869" y2="139.5869"/><text fill="#000000" font-family="sans-serif" font-size="14" font-weight="bold" lengthAdjust="spacing" textLength="286.4258" x="178" y="132.2851">The Intelligence Engine (Databar.ai)</text></g><!--cluster CRM--><g class="cluster" data-entity="CRM" data-source-line="19" data-uid="ent0011" id="cluster_CRM"><path d="M205.5,421.18 L422.0098,421.18 A3.75,3.75 0 0 1 424.5098,423.68 L431.5098,443.4769 L431.5,443.4769 A2.5,2.5 0 0 1 434,445.9769 L434,514.98 A2.5,2.5 0 0 1 431.5,517.48 L205.5,517.48 A2.5,2.5 0 0 1 203,514.98 L203,423.68 A2.5,2.5 0 0 1 205.5,421.18" fill="#90EE90" style="stroke:#000000;stroke-width:1.5;"/><line style="stroke:#000000;stroke-width:1.5;" x1="203" x2="431.5098" y1="443.4769" y2="443.4769"/><text fill="#000000" font-family="sans-serif" font-size="14" font-weight="bold" lengthAdjust="spacing" textLength="215.5098" x="207" y="436.1751">The Asset (SuiteDash CRM)</text></g><!--entity GM--><g class="entity" data-entity="GM" data-source-line="7" data-uid="ent0003" id="entity_GM"><rect fill="#F1F1F1" height="36.2969" rx="2.5" ry="2.5" style="stroke:#181818;stroke-width:0.5;" width="110.6582" x="21.67" y="41"/><text fill="#000000" font-family="sans-serif" font-size="14" lengthAdjust="spacing" textLength="90.6582" x="31.67" y="63.9951">Google Maps</text></g><!--entity LI--><g class="entity" data-entity="LI" data-source-line="8" data-uid="ent0004" id="entity_LI"><rect fill="#F1F1F1" height="36.2969" rx="2.5" ry="2.5" style="stroke:#181818;stroke-width:0.5;" width="79.1719" x="192.41" y="41"/><text fill="#000000" font-family="sans-serif" font-size="14" lengthAdjust="spacing" textLength="59.1719" x="202.41" y="63.9951">LinkedIn</text></g><!--entity COMP--><g class="entity" data-entity="COMP" data-source-line="9" data-uid="ent0005" id="entity_COMP"><rect fill="#F1F1F1" height="36.2969" rx="2.5" ry="2.5" style="stroke:#181818;stroke-width:0.5;" width="137.291" x="331.35" y="41"/><text fill="#000000" font-family="sans-serif" font-size="14" lengthAdjust="spacing" textLength="117.291" x="341.35" y="63.9951">Competitor Sites</text></g><!--entity GOV--><g class="entity" data-entity="GOV" data-source-line="10" data-uid="ent0006" id="entity_GOV"><rect fill="#F1F1F1" height="36.2969" rx="2.5" ry="2.5" style="stroke:#181818;stroke-width:0.5;" width="121.6025" x="528.2" y="41"/><text fill="#000000" font-family="sans-serif" font-size="14" lengthAdjust="spacing" textLength="101.6025" x="538.2" y="63.9951">Gov Registries</text></g><!--entity SCRAPE--><g class="entity" data-entity="SCRAPE" data-source-line="14" data-uid="ent0008" id="entity_SCRAPE"><rect fill="#F1F1F1" height="36.2969" rx="2.5" ry="2.5" style="stroke:#181818;stroke-width:0.5;" width="127.3584" x="252.32" y="152.29"/><text fill="#000000" font-family="sans-serif" font-size="14" lengthAdjust="spacing" textLength="107.3584" x="262.32" y="175.2851">Scraper Agents</text></g><!--entity ENRICH--><g class="entity" data-entity="ENRICH" data-source-line="15" data-uid="ent0009" id="entity_ENRICH"><rect fill="#F1F1F1" height="36.2969" rx="2.5" ry="2.5" style="stroke:#181818;stroke-width:0.5;" width="127.1465" x="252.43" y="248.59"/><text fill="#000000" font-family="sans-serif" font-size="14" lengthAdjust="spacing" textLength="107.1465" x="262.43" y="271.5851">Enrichment API</text></g><!--entity VALID--><g class="entity" data-entity="VALID" data-source-line="16" data-uid="ent0010" id="entity_VALID"><rect fill="#F1F1F1" height="36.2969" rx="2.5" ry="2.5" style="stroke:#181818;stroke-width:0.5;" width="131.5078" x="252.25" y="344.89"/><text fill="#000000" font-family="sans-serif" font-size="14" lengthAdjust="spacing" textLength="111.5078" x="262.25" y="367.8851">Validation Logic</text></g><!--entity DB--><g class="entity" data-entity="DB" data-source-line="20" data-uid="ent0012" id="entity_DB"><path d="M252.67,466.18 C252.67,456.18 318.0035,456.18 318.0035,456.18 C318.0035,456.18 383.337,456.18 383.337,466.18 L383.337,491.4769 C383.337,501.4769 318.0035,501.4769 318.0035,501.4769 C318.0035,501.4769 252.67,501.4769 252.67,491.4769 L252.67,466.18" fill="#F1F1F1" style="stroke:#181818;stroke-width:0.5;"/><path d="M252.67,466.18 C252.67,476.18 318.0035,476.18 318.0035,476.18 C318.0035,476.18 383.337,476.18 383.337,466.18" fill="none" style="stroke:#181818;stroke-width:0.5;"/><text fill="#000000" font-family="sans-serif" font-size="14" lengthAdjust="spacing" textLength="110.667" x="262.67" y="493.1751">Golden Records</text></g><!--link GM to SCRAPE--><g class="link" data-entity-1="GM" data-entity-2="SCRAPE" data-source-line="24" data-uid="lnk13" id="link_GM_SCRAPE"><path d="M77,77.78 C77,109.47 77,170.48 77,170.48 C77,170.48 175.16,170.48 245.95,170.48" fill="none" id="GM-to-SCRAPE" style="stroke:#181818;stroke-width:1;"/><polygon fill="#181818" points="251.95,170.48,242.95,166.48,246.95,170.48,242.95,174.48,251.95,170.48" style="stroke:#181818;stroke-width:1;"/><text fill="#000000" font-family="sans-serif" font-size="13" lengthAdjust="spacing" textLength="69.9956" x="48.13" y="166.5469">Raw Leads</text></g><!--link LI to SCRAPE--><g class="link" data-entity-1="LI" data-entity-2="SCRAPE" data-source-line="25" data-uid="lnk14" id="link_LI_SCRAPE"><path d="M261.95,77.77 C261.95,98.44 261.95,125.58 261.95,146.12" fill="none" id="LI-to-SCRAPE" style="stroke:#181818;stroke-width:1;"/><polygon fill="#181818" points="261.95,152.12,265.95,143.12,261.95,147.12,257.95,143.12,261.95,152.12" style="stroke:#181818;stroke-width:1;"/><text fill="#000000" font-family="sans-serif" font-size="13" lengthAdjust="spacing" textLength="47.709" x="213.95" y="111.0169">Profiles</text></g><!--link COMP to SCRAPE--><g class="link" data-entity-1="COMP" data-entity-2="SCRAPE" data-source-line="26" data-uid="lnk15" id="link_COMP_SCRAPE"><path d="M355.52,77.77 C355.52,98.44 355.52,125.58 355.52,146.12" fill="none" id="COMP-to-SCRAPE" style="stroke:#181818;stroke-width:1;"/><polygon fill="#181818" points="355.52,152.12,359.52,143.12,355.52,147.12,351.52,143.12,355.52,152.12" style="stroke:#181818;stroke-width:1;"/><text fill="#000000" font-family="sans-serif" font-size="13" lengthAdjust="spacing" textLength="49.6006" x="305.52" y="111.0169">Listings</text></g><!--link GOV to SCRAPE--><g class="link" data-entity-1="GOV" data-entity-2="SCRAPE" data-source-line="27" data-uid="lnk16" id="link_GOV_SCRAPE"><path d="M589,77.78 C589,109.47 589,170.48 589,170.48 C589,170.48 466.7,170.48 386.01,170.48" fill="none" id="GOV-to-SCRAPE" style="stroke:#181818;stroke-width:1;"/><polygon fill="#181818" points="380.01,170.48,389.01,174.48,385.01,170.48,389.01,166.48,380.01,170.48" style="stroke:#181818;stroke-width:1;"/><text fill="#000000" font-family="sans-serif" font-size="13" lengthAdjust="spacing" textLength="55.7832" x="474.85" y="166.5469">Licenses</text></g><!--link SCRAPE to ENRICH--><g class="link" data-entity-1="SCRAPE" data-entity-2="ENRICH" data-source-line="29" data-uid="lnk17" id="link_SCRAPE_ENRICH"><path d="M337.19,189.01 C337.19,206.06 337.19,225.19 337.19,242.23" fill="none" id="SCRAPE-to-ENRICH" style="stroke:#181818;stroke-width:1;"/><polygon fill="#181818" points="337.19,248.23,341.19,239.23,337.19,243.23,333.19,239.23,337.19,248.23" style="stroke:#181818;stroke-width:1;"/><text fill="#000000" font-family="sans-serif" font-size="13" lengthAdjust="spacing" textLength="107.9673" x="229.19" y="214.6869">Incomplete Data</text></g><!--link ENRICH to ENRICH--><g class="link" data-entity-1="ENRICH" data-entity-2="ENRICH" data-source-line="30" data-uid="lnk18" id="link_ENRICH_ENRICH"><path d="M294.81,248.33 C294.81,235.06 294.81,219.48 294.81,219.48 C294.81,219.48 222.33,219.48 222.33,219.48 C222.33,219.48 222.33,315.48 222.33,315.48 C222.33,315.48 294.81,315.48 294.81,315.48 C294.81,315.48 294.81,304.97 294.81,291.17" fill="none" id="ENRICH-to-ENRICH" style="stroke:#181818;stroke-width:1;"/><polygon fill="#181818" points="294.81,285.17,290.81,294.17,294.81,290.17,298.81,294.17,294.81,285.17" style="stroke:#181818;stroke-width:1;"/><text fill="#000000" font-family="sans-serif" font-size="13" lengthAdjust="spacing" textLength="163.8394" x="53.33" y="259.2769">Append Email/Phone/Rev</text></g><!--link ENRICH to VALID--><g class="link" data-entity-1="ENRICH" data-entity-2="VALID" data-source-line="31" data-uid="lnk19" id="link_ENRICH_VALID"><path d="M337.19,285.3 C337.19,302.36 337.19,321.49 337.19,338.52" fill="none" id="ENRICH-to-VALID" style="stroke:#181818;stroke-width:1;"/><polygon fill="#181818" points="337.19,344.52,341.19,335.52,337.19,339.52,333.19,335.52,337.19,344.52" style="stroke:#181818;stroke-width:1;"/><text fill="#000000" font-family="sans-serif" font-size="13" lengthAdjust="spacing" textLength="128.3623" x="208.19" y="310.9769">Verify Deliverability</text></g><!--link VALID to DB--><g class="link" data-entity-1="VALID" data-entity-2="DB" data-source-line="32" data-uid="lnk20" id="link_VALID_DB"><path d="M318,381.64 C318,401.84 318,428.13 318,449.89" fill="none" id="VALID-to-DB" style="stroke:#181818;stroke-width:1;"/><polygon fill="#181818" points="318,455.89,322,446.89,318,450.89,314,446.89,318,455.89" style="stroke:#181818;stroke-width:1;"/><text fill="#000000" font-family="sans-serif" font-size="13" lengthAdjust="spacing" textLength="107.6563" x="210" y="414.8269">Clean Lead Data</text></g><!--SRC=[PP91Rvmm48Nl_XMZvD3qaAId7dgen0AbI915K953rSCiJ62qNXlPterMLVzx3IPHDk64tZTlvit8TizgGeC7aAp8dIS2RToeXNq5IlTaQOAlNzw81jN-WzZfmwGLATUuioGmr3bKWoGX9kpsE11S_He97bdsy4Wxk4dG8JJwQ3godw_Whm3__SwqzYOeSR9_02raPT0BLdlgSxM8HHx4sCyanquRQDXHSCJRidhfTOAQ1hREy0gpRIl-lOkKAqTIya2g8qZLu6yHqktGt27xRDwugQFy0QuB7aQtaKTwoTjq1YSo47cx2pEQk8wgDE1K6Ux6WsSGLVc2quSwZty6tABa7Xrh1OKUk5iAsgZ8amyf8sl9mKrpz8icQ4U8wp94ypzhiCmGgJLPlonWlJlJilToJPqslLqioMRk_mb-IFriHLR2xUttDJTyWngVeI3ihIZoIr8P_SIIh9YFV8aAVsPMW- -sRT-JZfJr9h5ACmrNy3HNyykHv0ZccuiLNDH4qqIgX_I0BE-hqJ-p-vfERqkNc_dAbWm_dI4XoISok6F9xYm2dUkIZI-A9Q5QDbn6_WS0]--></g></svg>