<svg xmlns="http://www.w3.org/2000/svg" xmlns:xlink="http://www.w3.org/1999/xlink" contentStyleType="text/css" data-diagram-type="DESCRIPTION" height="753.125px" preserveAspectRatio="none" style="width:1185px;height:753px;" version="1.1" viewBox="0 0 1185 753" width="1185.4167px" zoomAndPan="magnify"><defs><linearGradient id="gof53su8i3gre0" x1="50%" x2="50%" y1="0%" y2="100%"><stop offset="0%" stop-color="#B8B8B8"/><stop offset="100%" stop-color="#6B6B6B"/></linearGradient><linearGradient id="gof53su8i3gre1" x1="50%" x2="50%" y1="0%" y2="100%"><stop offset="0%" stop-color="#7C9AB9"/><stop offset="100%" stop-color="#304D6D"/></linearGradient></defs><g><!--cluster Sovereignty Layer--><g class="cluster" data-entity="Sovereignty Layer" data-source-line="9" data-uid="ent0002" id="cluster_Sovereignty Layer"><path d="M20.8333,16.6667 L157.8227,16.6667 A6.25,6.25 0 0 1 161.9893,20.8333 L169.281,47.8841 L341.6667,47.8841 A4.1667,4.1667 0 0 1 345.8333,52.0508 L345.8333,245.7083 A4.1667,4.1667 0 0 1 341.6667,249.875 L20.8333,249.875 A4.1667,4.1667 0 0 1 16.6667,245.7083 L16.6667,20.8333 A4.1667,4.1667 0 0 1 20.8333,16.6667" fill="url(#gof53su8i3gre0)" style="stroke:#446E9B;stroke-width:2.0833;"/><line style="stroke:#446E9B;stroke-width:2.0833;" x1="16.6667" x2="169.281" y1="47.8841" y2="47.8841"/><text fill="#446E9B" font-family="'Verdana'" font-size="12.5" font-weight="bold" lengthAdjust="spacing" textLength="128.656" x="26.0417" y="35.5611">Sovereignty Layer</text></g><!--cluster Treasury Layer--><g class="cluster" data-entity="Treasury Layer" data-source-line="15" data-uid="ent0006" id="cluster_Treasury Layer"><path d="M175,274.875 L289.1317,274.875 A6.25,6.25 0 0 1 293.2983,279.0417 L300.59,306.0924 L358.3333,306.0924 A4.1667,4.1667 0 0 1 362.5,310.2591 L362.5,512.2396 A4.1667,4.1667 0 0 1 358.3333,516.4063 L175,516.4063 A4.1667,4.1667 0 0 1 170.8333,512.2396 L170.8333,279.0417 A4.1667,4.1667 0 0 1 175,274.875" fill="url(#gof53su8i3gre0)" style="stroke:#446E9B;stroke-width:2.0833;"/><line style="stroke:#446E9B;stroke-width:2.0833;" x1="170.8333" x2="300.59" y1="306.0924" y2="306.0924"/><text fill="#446E9B" font-family="'Verdana'" font-size="12.5" font-weight="bold" lengthAdjust="spacing" textLength="105.7983" x="180.2083" y="293.7694">Treasury Layer</text></g><!--cluster Asset Layer (The Vault)--><g class="cluster" data-entity="Asset Layer .The Vault." data-source-line="20" data-uid="ent0009" id="cluster_Asset Layer .The Vault."><path d="M822.9167,395.6458 L997.1008,395.6458 A6.25,6.25 0 0 1 1001.2675,399.8125 L1008.5592,426.8633 L1168.75,426.8633 A4.1667,4.1667 0 0 1 1172.9167,431.0299 L1172.9167,512.2396 A4.1667,4.1667 0 0 1 1168.75,516.4063 L822.9167,516.4063 A4.1667,4.1667 0 0 1 818.75,512.2396 L818.75,399.8125 A4.1667,4.1667 0 0 1 822.9167,395.6458" fill="url(#gof53su8i3gre0)" style="stroke:#446E9B;stroke-width:2.0833;"/><line style="stroke:#446E9B;stroke-width:2.0833;" x1="818.75" x2="1008.5592" y1="426.8633" y2="426.8633"/><text fill="#446E9B" font-family="'Verdana'" font-size="12.5" font-weight="bold" lengthAdjust="spacing" textLength="165.8508" x="828.125" y="414.5403">Asset Layer (The Vault)</text></g><!--cluster Operating Layer (The Engines)--><g class="cluster" data-entity="Operating Layer .The Engines." data-source-line="25" data-uid="ent0012" id="cluster_Operating Layer .The Engines."><path d="M391.6667,395.6458 L615.8203,395.6458 A6.25,6.25 0 0 1 619.987,399.8125 L627.2786,426.8633 L789.5833,426.8633 A4.1667,4.1667 0 0 1 793.75,431.0299 L793.75,737.1146 A4.1667,4.1667 0 0 1 789.5833,741.2813 L391.6667,741.2813 A4.1667,4.1667 0 0 1 387.5,737.1146 L387.5,399.8125 A4.1667,4.1667 0 0 1 391.6667,395.6458" fill="url(#gof53su8i3gre0)" style="stroke:#446E9B;stroke-width:2.0833;"/><line style="stroke:#446E9B;stroke-width:2.0833;" x1="387.5" x2="627.2786" y1="426.8633" y2="426.8633"/><text fill="#446E9B" font-family="'Verdana'" font-size="12.5" font-weight="bold" lengthAdjust="spacing" textLength="215.8203" x="396.875" y="414.5403">Operating Layer (The Engines)</text></g><!--entity PR--><g class="entity" data-entity="PR" data-source-line="10" data-uid="ent0003" id="entity_PR"><rect fill="url(#gof53su8i3gre1)" height="60.3516" rx="4.1667" ry="4.1667" style="stroke:#304D6D;stroke-width:1.0417;" width="102.3071" x="215.5104" y="60.4167"/><text fill="#FFFFFF" font-family="'Verdana'" font-size="12.5" lengthAdjust="spacing" textLength="59.9976" x="231.1354" y="87.6444">Principals</text><text fill="#FFFFFF" font-family="'Verdana'" font-size="12.5" lengthAdjust="spacing" textLength="71.0571" x="231.1354" y="102.1952">(Managers)</text></g><!--entity DT--><g class="entity" data-entity="DT" data-source-line="11" data-uid="ent0004" id="entity_DT"><rect fill="#000080" height="60.3516" rx="4.1667" ry="4.1667" style="stroke:#304D6D;stroke-width:1.0417;" width="126.0376" x="203.6458" y="172.8542"/><text fill="#FFFFFF" font-family="'Verdana'" font-size="12.5" lengthAdjust="spacing" textLength="87.5" x="219.2708" y="200.0819">Dynasty Trust</text><text fill="#FFFFFF" font-family="'Verdana'" font-size="12.5" lengthAdjust="spacing" textLength="94.7876" x="219.2708" y="214.6327">(South Dakota)</text></g><!--entity OE--><g class="entity" data-entity="OE" data-source-line="12" data-uid="ent0005" id="entity_OE"><rect fill="#008000" height="60.3516" rx="4.1667" ry="4.1667" style="stroke:#304D6D;stroke-width:1.0417;" width="128.8818" x="33.4792" y="172.8542"/><text fill="#FFFFFF" font-family="'Verdana'" font-size="12.5" lengthAdjust="spacing" textLength="71.2524" x="49.1042" y="200.0819">Origin Eyes</text><text fill="#FFFFFF" font-family="'Verdana'" font-size="12.5" lengthAdjust="spacing" textLength="97.6318" x="49.1042" y="214.6327">(501c3 Charity)</text></g><!--entity PNR--><g class="entity" data-entity="PNR" data-source-line="16" data-uid="ent0007" id="entity_PNR"><rect fill="#000000" height="60.3516" rx="4.1667" ry="4.1667" style="stroke:#304D6D;stroke-width:1.0417;" width="158.9844" x="187.1771" y="318.625"/><text fill="#FFFFFF" font-family="'Verdana'" font-size="12.5" lengthAdjust="spacing" textLength="110.4736" x="202.8021" y="345.8528">PNR Holdings LLC</text><text fill="#FFFFFF" font-family="'Verdana'" font-size="12.5" lengthAdjust="spacing" textLength="127.7344" x="202.8021" y="360.4036">(Wyoming Treasury)</text></g><!--entity CAP--><g class="entity" data-entity="CAP" data-source-line="17" data-uid="ent0008" id="entity_CAP"><rect fill="#008000" height="60.3516" rx="4.1667" ry="4.1667" style="stroke:#304D6D;stroke-width:1.0417;" width="144.3359" x="194.5" y="439.3958"/><text fill="#FFFFFF" font-family="'Verdana'" font-size="12.5" lengthAdjust="spacing" textLength="113.0859" x="210.125" y="466.6236">Captive Insurance</text><text fill="#FFFFFF" font-family="'Verdana'" font-size="12.5" lengthAdjust="spacing" textLength="111.2" x="210.125" y="481.1744">(831b Risk Mgmt)</text></g><!--entity OBU--><g class="entity" data-entity="OBU" data-source-line="21" data-uid="ent0010" id="entity_OBU"><rect fill="#008000" height="60.3516" rx="4.1667" ry="4.1667" style="stroke:#304D6D;stroke-width:1.0417;" width="160.8521" x="835.1979" y="439.3958"/><text fill="#FFFFFF" font-family="'Verdana'" font-size="12.5" lengthAdjust="spacing" textLength="67.2546" x="850.8229" y="466.6236">Obuke LLC</text><text fill="#FFFFFF" font-family="'Verdana'" font-size="12.5" lengthAdjust="spacing" textLength="129.6021" x="850.8229" y="481.1744">(Real Estate HoldCo)</text></g><!--entity TORI--><g class="entity" data-entity="TORI" data-source-line="22" data-uid="ent0011" id="entity_TORI"><rect fill="#008000" height="60.3516" rx="4.1667" ry="4.1667" style="stroke:#304D6D;stroke-width:1.0417;" width="119.3176" x="1037.2188" y="439.3958"/><text fill="#FFFFFF" font-family="'Verdana'" font-size="12.5" lengthAdjust="spacing" textLength="88.0676" x="1052.8438" y="466.6236">ToriMedia LLC</text><text fill="#FFFFFF" font-family="'Verdana'" font-size="12.5" lengthAdjust="spacing" textLength="69.7815" x="1052.8438" y="481.1744">(IP HoldCo)</text></g><!--entity CXI--><g class="entity" data-entity="CXI" data-source-line="26" data-uid="ent0013" id="entity_CXI"><rect fill="#0000FF" height="60.3516" rx="4.1667" ry="4.1667" style="stroke:#304D6D;stroke-width:1.0417;" width="169.2139" x="403.9375" y="439.3958"/><text fill="#FFFFFF" font-family="'Verdana'" font-size="12.5" lengthAdjust="spacing" textLength="47.6074" x="419.5625" y="466.6236">CXI LLC</text><text fill="#FFFFFF" font-family="'Verdana'" font-size="12.5" lengthAdjust="spacing" textLength="137.9639" x="419.5625" y="481.1744">(Management S-Corp)</text></g><!--entity KW--><g class="entity" data-entity="KW" data-source-line="27" data-uid="ent0014" id="entity_KW"><rect fill="#FF0000" height="60.3516" rx="4.1667" ry="4.1667" style="stroke:#304D6D;stroke-width:1.0417;" width="169.4458" x="607.9896" y="664.2604"/><text fill="#FFFFFF" font-family="'Verdana'" font-size="12.5" lengthAdjust="spacing" textLength="68.3228" x="623.6146" y="691.4882">Kwode LLC</text><text fill="#FFFFFF" font-family="'Verdana'" font-size="12.5" lengthAdjust="spacing" textLength="138.1958" x="623.6146" y="706.039">(Hybrid OpCo/HoldCo)</text></g><!--entity NEAT--><g class="entity" data-entity="NEAT" data-source-line="28" data-uid="ent0015" id="entity_NEAT"><rect fill="#FF0000" height="60.3516" rx="4.1667" ry="4.1667" style="stroke:#304D6D;stroke-width:1.0417;" width="142.4438" x="571.4896" y="551.8229"/><text fill="#FFFFFF" font-family="'Verdana'" font-size="12.5" lengthAdjust="spacing" textLength="95.5811" x="587.1146" y="579.0507">Neat Circle LLC</text><text fill="#FFFFFF" font-family="'Verdana'" font-size="12.5" lengthAdjust="spacing" textLength="111.1938" x="587.1146" y="593.6015">(Automation BPA)</text></g><!--entity LODGE--><g class="entity" data-entity="LODGE" data-source-line="29" data-uid="ent0016" id="entity_LODGE"><rect fill="#FF0000" height="60.3516" rx="4.1667" ry="4.1667" style="stroke:#304D6D;stroke-width:1.0417;" width="162.2742" x="404.2813" y="664.2604"/><text fill="#FFFFFF" font-family="'Verdana'" font-size="12.5" lengthAdjust="spacing" textLength="131.0242" x="419.9063" y="691.4882">Lodging Connections</text><text fill="#FFFFFF" font-family="'Verdana'" font-size="12.5" lengthAdjust="spacing" textLength="114.6484" x="419.9063" y="706.039">(Hospitality OpCo)</text></g><!--link PR to DT--><!--link PR to DT--><g class="link" data-entity-1="PR" data-entity-2="DT" data-source-line="50" data-uid="lnk23" id="link_PR_DT"><path d="M249.6146,121.0208 C249.6146,137.0208 249.6146,150.3333 249.6146,166.3333" fill="none" id="PR-to-DT" style="stroke:#446E9B;stroke-width:3.125;"/><polygon fill="#446E9B" points="249.6146,172.5833,253.7813,163.2083,249.6146,167.375,245.4479,163.2083,249.6146,172.5833" style="stroke:#446E9B;stroke-width:3.125;"/><text fill="#FFFFFF" font-family="'Verdana'" font-size="12.5" lengthAdjust="spacing" textLength="54.6082" x="189.1979" y="138.6132">Grantors</text></g><!--link DT to PNR--><!--link DT to PNR--><g class="link" data-entity-1="DT" data-entity-2="PNR" data-source-line="51" data-uid="lnk24" id="link_DT_PNR"><path d="M245.6563,233.5938 C245.6563,258.4688 245.6563,287.1667 245.6563,312.0313" fill="none" id="DT-to-PNR" style="stroke:#446E9B;stroke-width:3.125;"/><polygon fill="#446E9B" points="245.6563,318.2813,249.8229,308.9063,245.6563,313.0729,241.4896,308.9063,245.6563,318.2813" style="stroke:#446E9B;stroke-width:3.125;"/><text fill="#FFFFFF" font-family="'Verdana'" font-size="12.5" lengthAdjust="spacing" textLength="74.2065" x="165.4479" y="267.7486">Owns 100%</text></g><!--link OE to DT--><!--reverse link OE to DT--><g class="link" data-entity-1="OE" data-entity-2="DT" data-source-line="52" data-uid="lnk26" id="link_OE_DT"><path d="M168.9271,193.3646 C182.2188,193.3646 189.9479,193.3646 203.1875,193.3646" fill="none" id="OE-backto-DT" style="stroke:#446E9B;stroke-width:3.125;stroke-dasharray:7.2917,7.2917;"/><polygon fill="#446E9B" points="162.6771,193.3646,172.0521,197.5313,167.8854,193.3646,172.0521,189.1979,162.6771,193.3646" style="stroke:#446E9B;stroke-width:3.125;"/><text fill="#FFFFFF" font-family="'Verdana'" font-size="12.5" lengthAdjust="spacing" textLength="70.2942" x="168.6146" y="211.2174">Beneficiary</text></g><!--link PNR to CAP--><!--link PNR to CAP--><g class="link" data-entity-1="PNR" data-entity-2="CAP" data-source-line="55" data-uid="lnk27" id="link_PNR_CAP"><path d="M290.7188,379.2708 C290.7188,397.5833 290.7188,414.5521 290.7188,432.8542" fill="none" id="PNR-to-CAP" style="stroke:#446E9B;stroke-width:3.125;"/><polygon fill="#446E9B" points="290.7188,439.1042,294.8854,429.7292,290.7188,433.8958,286.5521,429.7292,290.7188,439.1042" style="stroke:#446E9B;stroke-width:3.125;"/></g><!--link PNR to OBU--><!--link PNR to OBU--><g class="link" data-entity-1="PNR" data-entity-2="OBU" data-source-line="56" data-uid="lnk28" id="link_PNR_OBU"><path d="M346.4063,349.6146 C514.2917,349.6146 888.8125,349.6146 888.8125,349.6146 C888.8125,349.6146 888.8125,397.1979 888.8125,432.7396" fill="none" id="PNR-to-OBU" style="stroke:#446E9B;stroke-width:3.125;"/><polygon fill="#446E9B" points="888.8125,438.9896,892.9792,429.6146,888.8125,433.7813,884.6458,429.6146,888.8125,438.9896" style="stroke:#446E9B;stroke-width:3.125;"/></g><!--link PNR to CXI--><!--link PNR to CXI--><g class="link" data-entity-1="PNR" data-entity-2="CXI" data-source-line="58" data-uid="lnk30" id="link_PNR_CXI"><path d="M342.5,379.1875 C342.5,417.8958 342.5,479.8229 342.5,479.8229 C342.5,479.8229 365.2083,479.8229 397.3333,479.8229" fill="none" id="PNR-to-CXI" style="stroke:#446E9B;stroke-width:3.125;"/><polygon fill="#446E9B" points="403.5833,479.8229,394.2083,475.6563,398.375,479.8229,394.2083,483.9896,403.5833,479.8229" style="stroke:#446E9B;stroke-width:3.125;"/></g><!--link PNR to TORI--><g class="link" data-entity-1="PNR" data-entity-2="TORI" data-source-line="57" data-uid="lnk29" id="link_PNR_TORI"><path d="M346.6458,328.7813 C554.7188,328.7813 1096.875,328.7813 1096.875,328.7813 C1096.875,328.7813 1096.875,391.3646 1096.875,432.7708" fill="none" id="PNR-to-TORI" style="stroke:#446E9B;stroke-width:3.125;"/><polygon fill="#446E9B" points="1096.875,439.0208,1101.0417,429.6458,1096.875,433.8125,1092.7083,429.6458,1096.875,439.0208" style="stroke:#446E9B;stroke-width:3.125;"/></g><!--link PNR to KW--><g class="link" data-entity-1="PNR" data-entity-2="KW" data-source-line="59" data-uid="lnk31" id="link_PNR_KW"><path d="M346.4167,358.9896 C485.1563,358.9896 756.2604,358.9896 756.2604,358.9896 C756.2604,358.9896 756.2604,574.7188 756.2604,657.5313" fill="none" id="PNR-to-KW" style="stroke:#446E9B;stroke-width:3.125;"/><polygon fill="#446E9B" points="756.2604,663.7813,760.4271,654.4063,756.2604,658.5729,752.0938,654.4063,756.2604,663.7813" style="stroke:#446E9B;stroke-width:3.125;"/></g><!--link PNR to NEAT--><g class="link" data-entity-1="PNR" data-entity-2="NEAT" data-source-line="60" data-uid="lnk32" id="link_PNR_NEAT"><path d="M346.2396,369.4063 C462.9896,369.4063 667,369.4063 667,369.4063 C667,369.4063 667,486.5104 667,545.2917" fill="none" id="PNR-to-NEAT" style="stroke:#446E9B;stroke-width:3.125;"/><polygon fill="#446E9B" points="667,551.5417,671.1667,542.1667,667,546.3333,662.8333,542.1667,667,551.5417" style="stroke:#446E9B;stroke-width:3.125;"/></g><!--link PNR to LODGE--><g class="link" data-entity-1="PNR" data-entity-2="LODGE" data-source-line="61" data-uid="lnk33" id="link_PNR_LODGE"><path d="M340.6667,379.2604 C340.6667,463.8438 340.6667,695.4479 340.6667,695.4479 C340.6667,695.4479 364.9063,695.4479 397.9063,695.4479" fill="none" id="PNR-to-LODGE" style="stroke:#446E9B;stroke-width:3.125;"/><polygon fill="#446E9B" points="404.1563,695.4479,394.7813,691.2813,398.9479,695.4479,394.7813,699.6146,404.1563,695.4479" style="stroke:#446E9B;stroke-width:3.125;"/></g><!--link CXI to KW--><g class="link" data-entity-1="CXI" data-entity-2="KW" data-source-line="64" data-uid="lnk34" id="link_CXI_KW"><path d="M573.3958,460.0313 C644.7083,460.0313 735.0938,460.0313 735.0938,460.0313 C735.0938,460.0313 735.0938,594 735.0938,657.5417" fill="none" id="CXI-to-KW" style="stroke:#446E9B;stroke-width:3.125;stroke-dasharray:7.2917,7.2917;"/><polygon fill="#446E9B" points="735.0938,663.7917,739.2604,654.4167,735.0938,658.5833,730.9271,654.4167,735.0938,663.7917" style="stroke:#446E9B;stroke-width:3.125;"/><text fill="#FFFFFF" font-family="'Verdana'" font-size="12.5" lengthAdjust="spacing" textLength="56.1646" x="673.6354" y="472.8736">Manages</text></g><!--link CXI to NEAT--><g class="link" data-entity-1="CXI" data-entity-2="NEAT" data-source-line="65" data-uid="lnk35" id="link_CXI_NEAT"><path d="M573.3333,479.8229 C598.7813,479.8229 620.0729,479.8229 620.0729,479.8229 C620.0729,479.8229 620.0729,515 620.0729,545.0938" fill="none" id="CXI-to-NEAT" style="stroke:#446E9B;stroke-width:3.125;stroke-dasharray:7.2917,7.2917;"/><polygon fill="#446E9B" points="620.0729,551.3438,624.2396,541.9688,620.0729,546.1354,615.9063,541.9688,620.0729,551.3438" style="stroke:#446E9B;stroke-width:3.125;"/><text fill="#FFFFFF" font-family="'Verdana'" font-size="12.5" lengthAdjust="spacing" textLength="56.1646" x="592.4688" y="510.0611">Manages</text></g><!--link CXI to LODGE--><g class="link" data-entity-1="CXI" data-entity-2="LODGE" data-source-line="66" data-uid="lnk36" id="link_CXI_LODGE"><path d="M458.375,499.8958 C458.375,542.8125 458.375,614.5729 458.375,657.625" fill="none" id="CXI-to-LODGE" style="stroke:#446E9B;stroke-width:3.125;stroke-dasharray:7.2917,7.2917;"/><polygon fill="#446E9B" points="458.375,663.875,462.5417,654.5,458.375,658.6667,454.2083,654.5,458.375,663.875" style="stroke:#446E9B;stroke-width:3.125;"/><text fill="#FFFFFF" font-family="'Verdana'" font-size="12.5" lengthAdjust="spacing" textLength="56.1646" x="396.9167" y="573.6965">Manages</text></g><!--link TORI to KW--><g class="link" data-entity-1="TORI" data-entity-2="KW" data-source-line="68" data-uid="lnk37" id="link_TORI_KW"><path d="M1126.7083,500.0313 C1126.7083,561.6875 1126.7083,695.4479 1126.7083,695.4479 C1126.7083,695.4479 910.5729,695.4479 784.1875,695.4479" fill="none" id="TORI-to-KW" style="stroke:#446E9B;stroke-width:3.125;stroke-dasharray:7.2917,7.2917;"/><polygon fill="#446E9B" points="777.9375,695.4479,787.3125,699.6146,783.1458,695.4479,787.3125,691.2813,777.9375,695.4479" style="stroke:#446E9B;stroke-width:3.125;"/><text fill="#FFFFFF" font-family="'Verdana'" font-size="12.5" lengthAdjust="spacing" textLength="68.8354" x="975.0313" y="687.259">Licenses IP</text></g><!--link TORI to NEAT--><g class="link" data-entity-1="TORI" data-entity-2="NEAT" data-source-line="69" data-uid="lnk38" id="link_TORI_NEAT"><path d="M1096.875,500.25 C1096.875,533.8333 1096.875,582.9479 1096.875,582.9479 C1096.875,582.9479 848.3229,582.9479 720.4167,582.9479" fill="none" id="TORI-to-NEAT" style="stroke:#446E9B;stroke-width:3.125;stroke-dasharray:7.2917,7.2917;"/><polygon fill="#446E9B" points="714.1667,582.9479,723.5417,587.1146,719.375,582.9479,723.5417,578.7813,714.1667,582.9479" style="stroke:#446E9B;stroke-width:3.125;"/><text fill="#FFFFFF" font-family="'Verdana'" font-size="12.5" lengthAdjust="spacing" textLength="68.8354" x="871.875" y="574.759">Licenses IP</text></g><!--link TORI to LODGE--><g class="link" data-entity-1="TORI" data-entity-2="LODGE" data-source-line="70" data-uid="lnk39" id="link_TORI_LODGE"><path d="M1067.0417,500.1354 C1067.0417,513.7188 1067.0417,526.6979 1067.0417,526.6979 C1067.0417,526.6979 512.4583,526.6979 512.4583,526.6979 C512.4583,526.6979 512.4583,609.4688 512.4583,657.8125" fill="none" id="TORI-to-LODGE" style="stroke:#446E9B;stroke-width:3.125;stroke-dasharray:7.2917,7.2917;"/><polygon fill="#446E9B" points="512.4583,664.0625,516.625,654.6875,512.4583,658.8542,508.2917,654.6875,512.4583,664.0625" style="stroke:#446E9B;stroke-width:3.125;"/><text fill="#FFFFFF" font-family="'Verdana'" font-size="12.5" lengthAdjust="spacing" textLength="68.8354" x="659.3542" y="518.509">Licenses IP</text></g><!--link NEAT to KW--><g class="link" data-entity-1="NEAT" data-entity-2="KW" data-source-line="72" data-uid="lnk40" id="link_NEAT_KW"><path d="M660.9583,612.4271 C660.9583,628.4271 660.9583,641.7396 660.9583,657.7396" fill="none" id="NEAT-to-KW" style="stroke:#446E9B;stroke-width:3.125;stroke-dasharray:7.2917,7.2917;"/><polygon fill="#446E9B" points="660.9583,663.9896,665.125,654.6146,660.9583,658.7813,656.7917,654.6146,660.9583,663.9896" style="stroke:#446E9B;stroke-width:3.125;"/><text fill="#FFFFFF" font-family="'Verdana'" font-size="12.5" lengthAdjust="spacing" textLength="67.9626" x="587" y="630.0194">Automates</text></g><!--link NEAT to LODGE--><g class="link" data-entity-1="NEAT" data-entity-2="LODGE" data-source-line="73" data-uid="lnk41" id="link_NEAT_LODGE"><path d="M589.7396,612.4063 C589.7396,646.0104 589.7396,695.4479 589.7396,695.4479 C589.7396,695.4479 586.3021,695.4479 572.8333,695.4479" fill="none" id="NEAT-to-LODGE" style="stroke:#446E9B;stroke-width:3.125;stroke-dasharray:7.2917,7.2917;"/><polygon fill="#446E9B" points="566.5833,695.4479,575.9583,699.6146,571.7917,695.4479,575.9583,691.2813,566.5833,695.4479" style="stroke:#446E9B;stroke-width:3.125;"/><text fill="#FFFFFF" font-family="'Verdana'" font-size="12.5" lengthAdjust="spacing" textLength="67.9626" x="515.7813" y="657.3111">Automates</text></g><!--SRC=[RLJHJjim57tFLzo19k2Xh8WXJJmWbP11H9jKQJQG60zkSacjfdPakrJHnB_lEaxICEX35L-VSt9yVMw-c1Lk47J5CYpPqjDhBYgcs0OokQcaG64MfYuH56Q6YQB40QJa0arT8KXbLdAm8MIE6YluFXuK5HDhMxmOUzuHZ4OZ2A8qJCDWOHUUHnRMh40uMCXNLCWBOMgOiXhL0VprW7vFSyL5nYjMwZ_YUCO4mPK-UGQcOPuuo4qjc2PYghRQ46eXjsO5Dsmj3NF8cnGE8_PQEtoiUC4513LQpOlnMNOE_eefRce7ZmCul5M8mdiRU4mLChrL7mn62Tp9CkUYq32T-YJvKCiDBQ5Zj7O9U7XTafmZ-gmo_1KX58HX8aDY_ZW_MqB2zHfcnSOudZ-PVsPdeZKQvmMEqnN2RxOjpKdlArvkrzWQIf2L46Z333PUVTaUzFfN9zrmKgdu37FEMbuuVmTFuoJyp4fSeMB6ddXW9n3KPDHxG_vZsCgwQznGq60nygMgseCIW1gqHOU_tr6aMiPTlLGyXxZovRUXe_i7E4mmTuG8cG6VgwpiQ9EjaHjo9WLSpoUE4WMJT42Qohompdqf1EMTe3OKTr9NtB2I8j6yr56dySrjuBXlNQ0dq_0scb6iuMVusERw2D8Lr_0YLOOQ652s3S_e2fRKiILDs2Lb5qPNDfVqJy7mxFffnVCSnNCkTs94UvxTVb-qq4w-eYYH_23DO2JGS4E9BmRaYni8ZzBSgn1sPHhj_rIwCBOA3SvADDwYv8C2XRANe3OLGZSy5qecx5LrcIXj9ZGiiPIxZthkN1J4pygKYAxFIJ2Tf64SBUx2UVlrE8B1PyFhEte9jpHEHYhjzVsbOhmZZsVZyLTRFRKjEhsoatu9roZmXMUSgRevKpkrpX3nxLcxvzueFTjns8CUzy_t3_sZJLk_QF9ZNz4sXxBcsT2VdbeEEN63iIysMVrOTZdSrxrcC7kLASzGQBhKSBxVQQK-tUlqXfjUG-WrsqcYb_NrZjLl_GC0]--></g></svg>