<svg xmlns="http://www.w3.org/2000/svg" xmlns:xlink="http://www.w3.org/1999/xlink" contentStyleType="text/css" data-diagram-type="DESCRIPTION" height="956.25px" preserveAspectRatio="none" style="width:1557px;height:956px;" version="1.1" viewBox="0 0 1557 956" width="1557.2917px" zoomAndPan="magnify"><defs><linearGradient id="ggiuxqbpjvwn00" x1="50%" x2="50%" y1="0%" y2="100%"><stop offset="0%" stop-color="#B8B8B8"/><stop offset="100%" stop-color="#6B6B6B"/></linearGradient><linearGradient id="ggiuxqbpjvwn01" x1="50%" x2="50%" y1="0%" y2="100%"><stop offset="0%" stop-color="#7C9AB9"/><stop offset="100%" stop-color="#304D6D"/></linearGradient></defs><g><!--cluster Sovereignty Layer (The Fortress)--><g class="cluster" data-entity="Sovereignty Layer .The Fortress." data-source-line="4" data-uid="ent0002" id="cluster_Sovereignty Layer .The Fortress."><path d="M20.8333,16.6667 L262.6444,16.6667 A6.25,6.25 0 0 1 266.8111,20.8333 L274.1028,47.8841 L272.9167,47.8841 A4.1667,4.1667 0 0 1 277.0833,52.0508 L277.0833,460.2292 A4.1667,4.1667 0 0 1 272.9167,464.3958 L20.8333,464.3958 A4.1667,4.1667 0 0 1 16.6667,460.2292 L16.6667,20.8333 A4.1667,4.1667 0 0 1 20.8333,16.6667" fill="url(#ggiuxqbpjvwn00)" style="stroke:#446E9B;stroke-width:2.0833;"/><line style="stroke:#446E9B;stroke-width:2.0833;" x1="16.6667" x2="274.1028" y1="47.8841" y2="47.8841"/><text fill="#446E9B" font-family="'Verdana'" font-size="12.5" font-weight="bold" lengthAdjust="spacing" textLength="233.4778" x="26.0417" y="35.5611">Sovereignty Layer (The Fortress)</text></g><!--cluster Treasury Layer (The Bank)--><g class="cluster" data-entity="Treasury Layer .The Bank." data-source-line="10" data-uid="ent0006" id="cluster_Treasury Layer .The Bank."><path d="M306.25,343.625 L501.5889,343.625 A6.25,6.25 0 0 1 505.7556,347.7917 L513.0473,374.8424 L511.4583,374.8424 A4.1667,4.1667 0 0 1 515.625,379.0091 L515.625,640.3646 A4.1667,4.1667 0 0 1 511.4583,644.5313 L306.25,644.5313 A4.1667,4.1667 0 0 1 302.0833,640.3646 L302.0833,347.7917 A4.1667,4.1667 0 0 1 306.25,343.625" fill="url(#ggiuxqbpjvwn00)" style="stroke:#446E9B;stroke-width:2.0833;"/><line style="stroke:#446E9B;stroke-width:2.0833;" x1="302.0833" x2="513.0473" y1="374.8424" y2="374.8424"/><text fill="#446E9B" font-family="'Verdana'" font-size="12.5" font-weight="bold" lengthAdjust="spacing" textLength="187.0056" x="311.4583" y="362.5194">Treasury Layer (The Bank)</text></g><!--cluster Asset Layer (The Vault)--><g class="cluster" data-entity="Asset Layer .The Vault." data-source-line="15" data-uid="ent0009" id="cluster_Asset Layer .The Vault."><path d="M1108.3333,523.7708 L1282.5175,523.7708 A6.25,6.25 0 0 1 1286.6842,527.9375 L1293.9758,554.9883 L1448.9583,554.9883 A4.1667,4.1667 0 0 1 1453.125,559.1549 L1453.125,640.3646 A4.1667,4.1667 0 0 1 1448.9583,644.5313 L1108.3333,644.5313 A4.1667,4.1667 0 0 1 1104.1667,640.3646 L1104.1667,527.9375 A4.1667,4.1667 0 0 1 1108.3333,523.7708" fill="url(#ggiuxqbpjvwn00)" style="stroke:#446E9B;stroke-width:2.0833;"/><line style="stroke:#446E9B;stroke-width:2.0833;" x1="1104.1667" x2="1293.9758" y1="554.9883" y2="554.9883"/><text fill="#446E9B" font-family="'Verdana'" font-size="12.5" font-weight="bold" lengthAdjust="spacing" textLength="165.8508" x="1113.5417" y="542.6653">Asset Layer (The Vault)</text></g><!--cluster Operating Layer (The Engines)--><g class="cluster" data-entity="Operating Layer .The Engines." data-source-line="20" data-uid="ent0012" id="cluster_Operating Layer .The Engines."><path d="M544.7917,523.7708 L768.9453,523.7708 A6.25,6.25 0 0 1 773.112,527.9375 L780.4036,554.9883 L937.5,554.9883 A4.1667,4.1667 0 0 1 941.6667,559.1549 L941.6667,940.2396 A4.1667,4.1667 0 0 1 937.5,944.4063 L544.7917,944.4063 A4.1667,4.1667 0 0 1 540.625,940.2396 L540.625,527.9375 A4.1667,4.1667 0 0 1 544.7917,523.7708" fill="url(#ggiuxqbpjvwn00)" style="stroke:#446E9B;stroke-width:2.0833;"/><line style="stroke:#446E9B;stroke-width:2.0833;" x1="540.625" x2="780.4036" y1="554.9883" y2="554.9883"/><text fill="#446E9B" font-family="'Verdana'" font-size="12.5" font-weight="bold" lengthAdjust="spacing" textLength="215.8203" x="550" y="542.6653">Operating Layer (The Engines)</text></g><!--entity DT--><g class="entity" data-entity="DT" data-source-line="5" data-uid="ent0003" id="entity_DT"><rect fill="#000080" height="60.3516" rx="4.1667" ry="4.1667" style="stroke:#304D6D;stroke-width:1.0417;" width="126.0376" x="130.7292" y="209.3125"/><text fill="#FFFFFF" font-family="'Verdana'" font-size="12.5" lengthAdjust="spacing" textLength="87.5" x="146.3542" y="236.5403">Dynasty Trust</text><text fill="#FFFFFF" font-family="'Verdana'" font-size="12.5" lengthAdjust="spacing" textLength="94.7876" x="146.3542" y="251.0911">(South Dakota)</text></g><!--entity PR--><g class="entity" data-entity="PR" data-source-line="6" data-uid="ent0004" id="entity_PR"><rect fill="url(#ggiuxqbpjvwn01)" height="60.3516" rx="4.1667" ry="4.1667" style="stroke:#304D6D;stroke-width:1.0417;" width="102.3071" x="142.5938" y="60.4167"/><text fill="#FFFFFF" font-family="'Verdana'" font-size="12.5" lengthAdjust="spacing" textLength="59.9976" x="158.2188" y="87.6444">Principals</text><text fill="#FFFFFF" font-family="'Verdana'" font-size="12.5" lengthAdjust="spacing" textLength="71.0571" x="158.2188" y="102.1952">(Managers)</text></g><!--entity OE--><g class="entity" data-entity="OE" data-source-line="7" data-uid="ent0005" id="entity_OE"><rect fill="#008000" height="60.3516" rx="4.1667" ry="4.1667" style="stroke:#304D6D;stroke-width:1.0417;" width="128.8818" x="131.3958" y="387.375"/><text fill="#FFFFFF" font-family="'Verdana'" font-size="12.5" lengthAdjust="spacing" textLength="71.2524" x="147.0208" y="414.6028">Origin Eyes</text><text fill="#FFFFFF" font-family="'Verdana'" font-size="12.5" lengthAdjust="spacing" textLength="97.6318" x="147.0208" y="429.1536">(501c3 Charity)</text></g><!--entity PNR--><g class="entity" data-entity="PNR" data-source-line="11" data-uid="ent0007" id="entity_PNR"><rect fill="#000000" height="60.3516" rx="4.1667" ry="4.1667" style="stroke:#304D6D;stroke-width:1.0417;" width="158.9844" x="340.3021" y="387.375"/><text fill="#FFFFFF" font-family="'Verdana'" font-size="12.5" lengthAdjust="spacing" textLength="110.4736" x="355.9271" y="414.6028">PNR Holdings LLC</text><text fill="#FFFFFF" font-family="'Verdana'" font-size="12.5" lengthAdjust="spacing" textLength="127.7344" x="355.9271" y="429.1536">(Wyoming Treasury)</text></g><!--entity CAP--><g class="entity" data-entity="CAP" data-source-line="12" data-uid="ent0008" id="entity_CAP"><rect fill="#008000" height="60.3516" rx="4.1667" ry="4.1667" style="stroke:#304D6D;stroke-width:1.0417;" width="144.3359" x="340.3333" y="567.5208"/><text fill="#FFFFFF" font-family="'Verdana'" font-size="12.5" lengthAdjust="spacing" textLength="113.0859" x="355.9583" y="594.7486">Captive Insurance</text><text fill="#FFFFFF" font-family="'Verdana'" font-size="12.5" lengthAdjust="spacing" textLength="111.2" x="355.9583" y="609.2994">(831b Risk Mgmt)</text></g><!--entity OBU--><g class="entity" data-entity="OBU" data-source-line="16" data-uid="ent0010" id="entity_OBU"><rect fill="#008000" height="60.3516" rx="4.1667" ry="4.1667" style="stroke:#304D6D;stroke-width:1.0417;" width="160.8521" x="1120.6146" y="567.5208"/><text fill="#FFFFFF" font-family="'Verdana'" font-size="12.5" lengthAdjust="spacing" textLength="67.2546" x="1136.2396" y="594.7486">Obuke LLC</text><text fill="#FFFFFF" font-family="'Verdana'" font-size="12.5" lengthAdjust="spacing" textLength="129.6021" x="1136.2396" y="609.2994">(Real Estate HoldCo)</text></g><!--entity TORI--><g class="entity" data-entity="TORI" data-source-line="17" data-uid="ent0011" id="entity_TORI"><rect fill="#008000" height="60.3516" rx="4.1667" ry="4.1667" style="stroke:#304D6D;stroke-width:1.0417;" width="119.3176" x="1317.4271" y="567.5208"/><text fill="#FFFFFF" font-family="'Verdana'" font-size="12.5" lengthAdjust="spacing" textLength="88.0676" x="1333.0521" y="594.7486">ToriMedia LLC</text><text fill="#FFFFFF" font-family="'Verdana'" font-size="12.5" lengthAdjust="spacing" textLength="69.7815" x="1333.0521" y="609.2994">(IP HoldCo)</text></g><!--entity CXI--><g class="entity" data-entity="CXI" data-source-line="21" data-uid="ent0013" id="entity_CXI"><rect fill="#0000FF" height="60.3516" rx="4.1667" ry="4.1667" style="stroke:#304D6D;stroke-width:1.0417;" width="169.2139" x="557.0625" y="567.5208"/><text fill="#FFFFFF" font-family="'Verdana'" font-size="12.5" lengthAdjust="spacing" textLength="47.6074" x="572.6875" y="594.7486">CXI LLC</text><text fill="#FFFFFF" font-family="'Verdana'" font-size="12.5" lengthAdjust="spacing" textLength="137.9639" x="572.6875" y="609.2994">(Management S-Corp)</text></g><!--entity KW--><g class="entity" data-entity="KW" data-source-line="22" data-uid="ent0014" id="entity_KW"><rect fill="#FF0000" height="60.3516" rx="4.1667" ry="4.1667" style="stroke:#304D6D;stroke-width:1.0417;" width="169.4458" x="755.9063" y="867.3854"/><text fill="#FFFFFF" font-family="'Verdana'" font-size="12.5" lengthAdjust="spacing" textLength="68.3228" x="771.5313" y="894.6132">Kwode LLC</text><text fill="#FFFFFF" font-family="'Verdana'" font-size="12.5" lengthAdjust="spacing" textLength="138.1958" x="771.5313" y="909.164">(Hybrid OpCo/HoldCo)</text></g><!--entity NEAT--><g class="entity" data-entity="NEAT" data-source-line="23" data-uid="ent0015" id="entity_NEAT"><rect fill="#FF0000" height="60.3516" rx="4.1667" ry="4.1667" style="stroke:#304D6D;stroke-width:1.0417;" width="142.4438" x="776.6979" y="718.4896"/><text fill="#FFFFFF" font-family="'Verdana'" font-size="12.5" lengthAdjust="spacing" textLength="95.5811" x="792.3229" y="745.7174">Neat Circle LLC</text><text fill="#FFFFFF" font-family="'Verdana'" font-size="12.5" lengthAdjust="spacing" textLength="111.1938" x="792.3229" y="760.2681">(Automation BPA)</text></g><!--entity LODGE--><g class="entity" data-entity="LODGE" data-source-line="24" data-uid="ent0016" id="entity_LODGE"><rect fill="#FF0000" height="60.3516" rx="4.1667" ry="4.1667" style="stroke:#304D6D;stroke-width:1.0417;" width="162.2742" x="762.6146" y="567.5208"/><text fill="#FFFFFF" font-family="'Verdana'" font-size="12.5" lengthAdjust="spacing" textLength="131.0242" x="778.2396" y="594.7486">Lodging Connections</text><text fill="#FFFFFF" font-family="'Verdana'" font-size="12.5" lengthAdjust="spacing" textLength="114.6484" x="778.2396" y="609.2994">(Hospitality OpCo)</text></g><!--link PR to DT--><g class="link" data-entity-1="PR" data-entity-2="DT" data-source-line="28" data-uid="lnk17" id="link_PR_DT"><path d="M193.75,121 C193.75,146.6042 193.75,177.3021 193.75,202.8958" fill="none" id="PR-to-DT" style="stroke:#446E9B;stroke-width:3.125;"/><polygon fill="#446E9B" points="193.75,209.1458,197.9167,199.7708,193.75,203.9375,189.5833,199.7708,193.75,209.1458" style="stroke:#446E9B;stroke-width:3.125;"/><text fill="#FFFFFF" font-family="'Verdana'" font-size="12.5" lengthAdjust="spacing" textLength="54.6082" x="200" y="169.8736">Grantors</text></g><!--link DT to PNR--><g class="link" data-entity-1="DT" data-entity-2="PNR" data-source-line="29" data-uid="lnk18" id="link_DT_PNR"><path d="M241.1771,270.125 C255.6458,279.5833 271.4167,290.3542 285.4167,300.9167 C321.8958,328.4375 356.6376,358.7324 383.273,382.8469" fill="none" id="DT-to-PNR" style="stroke:#446E9B;stroke-width:3.125;"/><polygon fill="#446E9B" points="387.9063,387.0417,383.7529,377.6608,384.0452,383.5461,378.1599,383.8384,387.9063,387.0417" style="stroke:#446E9B;stroke-width:3.125;"/><text fill="#FFFFFF" font-family="'Verdana'" font-size="12.5" lengthAdjust="spacing" textLength="74.2065" x="322.9167" y="318.7694">Owns 100%</text></g><!--link DT to OE--><g class="link" data-entity-1="DT" data-entity-2="OE" data-source-line="30" data-uid="lnk19" id="link_DT_OE"><path d="M194.0938,269.9896 C194.4792,302.4688 195.0197,348.1879 195.4051,380.7088" fill="none" id="DT-to-OE" style="stroke:#446E9B;stroke-width:3.125;"/><polygon fill="#446E9B" points="195.4792,386.9583,199.5344,377.5346,195.4174,381.7504,191.2017,377.6334,195.4792,386.9583" style="stroke:#446E9B;stroke-width:3.125;"/><text fill="#FFFFFF" font-family="'Verdana'" font-size="12.5" lengthAdjust="spacing" textLength="70.2942" x="201.0417" y="318.7694">Beneficiary</text></g><!--link PNR to CAP--><g class="link" data-entity-1="PNR" data-entity-2="CAP" data-source-line="32" data-uid="lnk20" id="link_PNR_CAP"><path d="M418.5833,448 C417.2396,480.9896 415.3187,527.9532 413.9645,560.9636" fill="none" id="PNR-to-CAP" style="stroke:#446E9B;stroke-width:3.125;"/><polygon fill="#446E9B" points="413.7083,567.2083,418.2558,558.012,413.9218,562.0044,409.9294,557.6704,413.7083,567.2083" style="stroke:#446E9B;stroke-width:3.125;"/><text fill="#FFFFFF" font-family="'Verdana'" font-size="12.5" lengthAdjust="spacing" textLength="74.2065" x="423.9583" y="498.9153">Owns 100%</text></g><!--link PNR to OBU--><g class="link" data-entity-1="PNR" data-entity-2="OBU" data-source-line="33" data-uid="lnk21" id="link_PNR_OBU"><path d="M499.4271,417.6354 C616.875,418.2708 842.3542,427.2917 1025,481.0625 C1081.1146,497.5833 1131.1102,534.5351 1164.2768,562.983" fill="none" id="PNR-to-OBU" style="stroke:#446E9B;stroke-width:3.125;"/><polygon fill="#446E9B" points="1169.0208,567.0521,1164.6175,557.7859,1165.0675,563.6612,1159.1922,564.1112,1169.0208,567.0521" style="stroke:#446E9B;stroke-width:3.125;"/><text fill="#FFFFFF" font-family="'Verdana'" font-size="12.5" lengthAdjust="spacing" textLength="74.2065" x="1088.5417" y="498.9153">Owns 100%</text></g><!--link PNR to TORI--><g class="link" data-entity-1="PNR" data-entity-2="TORI" data-source-line="34" data-uid="lnk22" id="link_PNR_TORI"><path d="M499.75,420.1979 C638.5938,424.0938 932.8021,437.2396 1177.0833,481.0625 C1232.9167,491.0729 1251.4063,486.1667 1300,515.4375 C1321.9792,528.6771 1337.8692,544.9883 1351.9005,562.3945" fill="none" id="PNR-to-TORI" style="stroke:#446E9B;stroke-width:3.125;"/><polygon fill="#446E9B" points="1355.8229,567.2604,1353.1832,557.3466,1352.5542,563.2055,1346.6953,562.5765,1355.8229,567.2604" style="stroke:#446E9B;stroke-width:3.125;"/><text fill="#FFFFFF" font-family="'Verdana'" font-size="12.5" lengthAdjust="spacing" textLength="74.2065" x="1289.5833" y="498.9153">Owns 100%</text></g><!--link PNR to CXI--><g class="link" data-entity-1="PNR" data-entity-2="CXI" data-source-line="35" data-uid="lnk23" id="link_PNR_CXI"><path d="M466.4063,448.1979 C481.4375,458.2083 497.9479,469.7292 512.5,481.0625 C547.8854,508.6042 581.2916,538.946 606.8332,563.0918" fill="none" id="PNR-to-CXI" style="stroke:#446E9B;stroke-width:3.125;"/><polygon fill="#446E9B" points="611.375,567.3854,607.4247,557.9172,607.5902,563.8074,601.7,563.9729,611.375,567.3854" style="stroke:#446E9B;stroke-width:3.125;"/><text fill="#FFFFFF" font-family="'Verdana'" font-size="12.5" lengthAdjust="spacing" textLength="74.2065" x="548.9583" y="498.9153">Owns 100%</text></g><!--link PNR to KW--><g class="link" data-entity-1="PNR" data-entity-2="KW" data-source-line="36" data-uid="lnk24" id="link_PNR_KW"><path d="M499.5938,419.1042 C733.0938,421.5208 1401.7917,435.4375 1453.125,515.4375 C1523.5417,625.1771 1438.0208,715.6667 1323.9583,778.8438 C1196.0938,849.6771 1032.2529,877.5858 931.6799,888.8462" fill="none" id="PNR-to-KW" style="stroke:#446E9B;stroke-width:3.125;"/><polygon fill="#446E9B" points="925.4688,889.5417,935.2492,892.6393,930.6447,888.9621,934.3219,884.3577,925.4688,889.5417" style="stroke:#446E9B;stroke-width:3.125;"/><text fill="#FFFFFF" font-family="'Verdana'" font-size="12.5" lengthAdjust="spacing" textLength="74.2065" x="1464.5833" y="679.0507">Owns 100%</text></g><!--link PNR to NEAT--><g class="link" data-entity-1="PNR" data-entity-2="NEAT" data-source-line="37" data-uid="lnk25" id="link_PNR_NEAT"><path d="M499.5729,420.7604 C632.6563,426.3229 890.5313,446.0104 942.7083,515.4375 C979.4063,564.2604 966.0833,596.4375 942.7083,652.8646 C931.9271,678.8854 914.9726,697.473 895.0142,714.0668" fill="none" id="PNR-to-NEAT" style="stroke:#446E9B;stroke-width:3.125;"/><polygon fill="#446E9B" points="890.2083,718.0625,900.081,715.2729,894.2133,714.7327,894.7534,708.865,890.2083,718.0625" style="stroke:#446E9B;stroke-width:3.125;"/><text fill="#FFFFFF" font-family="'Verdana'" font-size="12.5" lengthAdjust="spacing" textLength="74.2065" x="970.8333" y="602.5299">Owns 100%</text></g><!--link PNR to LODGE--><g class="link" data-entity-1="PNR" data-entity-2="LODGE" data-source-line="38" data-uid="lnk26" id="link_PNR_LODGE"><path d="M499.5625,432.6458 C567.6771,446.8646 666.7188,472.9167 744.7917,515.4375 C770.1667,529.25 790.6879,545.7521 809.2712,562.8146" fill="none" id="PNR-to-LODGE" style="stroke:#446E9B;stroke-width:3.125;"/><polygon fill="#446E9B" points="813.875,567.0417,809.7873,557.632,810.0385,563.5192,804.1513,563.7703,813.875,567.0417" style="stroke:#446E9B;stroke-width:3.125;"/><text fill="#FFFFFF" font-family="'Verdana'" font-size="12.5" lengthAdjust="spacing" textLength="74.2065" x="735.4167" y="498.9153">Owns 100%</text></g><!--link TORI to KW--><g class="link" data-entity-1="TORI" data-entity-2="KW" data-source-line="41" data-uid="lnk27" id="link_TORI_KW"><path d="M1350.7396,628.3854 C1333.2083,646.9167 1308.9583,670.375 1284.375,687.2396 C1167.6146,767.375 1021.2041,829.4599 928.7979,864.7099" fill="none" id="TORI-to-KW" style="stroke:#446E9B;stroke-width:3.125;stroke-dasharray:7.2917,7.2917;"/><polygon fill="#446E9B" points="922.9583,866.9375,933.2027,867.4891,927.8246,865.0812,930.2326,859.7031,922.9583,866.9375" style="stroke:#446E9B;stroke-width:3.125;"/><text fill="#FFFFFF" font-family="'Verdana'" font-size="12.5" lengthAdjust="spacing" textLength="68.8354" x="1240.625" y="753.4986">Licenses IP</text></g><!--link TORI to NEAT--><g class="link" data-entity-1="TORI" data-entity-2="NEAT" data-source-line="42" data-uid="lnk28" id="link_TORI_NEAT"><path d="M1343.2292,628.3438 C1330.5,637.8229 1315.375,647.3021 1300,652.8646 C1257.625,668.2083 1243.4271,653.9375 1198.9583,661.1979 C1100.9271,677.2083 995.9708,704.7412 925.5125,724.7412" fill="none" id="TORI-to-NEAT" style="stroke:#446E9B;stroke-width:3.125;stroke-dasharray:7.2917,7.2917;"/><polygon fill="#446E9B" points="919.5,726.4479,929.6565,727.8962,924.5104,725.0257,927.3809,719.8796,919.5,726.4479" style="stroke:#446E9B;stroke-width:3.125;"/><text fill="#FFFFFF" font-family="'Verdana'" font-size="12.5" lengthAdjust="spacing" textLength="68.8354" x="1205.2083" y="679.0507">Licenses IP</text></g><!--link NEAT to KW--><g class="link" data-entity-1="NEAT" data-entity-2="KW" data-source-line="43" data-uid="lnk29" id="link_NEAT_KW"><path d="M846.4583,779.0729 C845.1875,804.6771 843.6641,835.3827 842.3933,860.9764" fill="none" id="NEAT-to-KW" style="stroke:#446E9B;stroke-width:3.125;stroke-dasharray:7.2917,7.2917;"/><polygon fill="#446E9B" points="842.0833,867.2188,846.7098,858.0619,842.3416,862.0168,838.3867,857.6486,842.0833,867.2188" style="stroke:#446E9B;stroke-width:3.125;"/><text fill="#FFFFFF" font-family="'Verdana'" font-size="12.5" lengthAdjust="spacing" textLength="67.9626" x="851.0417" y="827.9465">Automates</text></g><!--link CXI to KW--><g class="link" data-entity-1="CXI" data-entity-2="KW" data-source-line="44" data-uid="lnk30" id="link_CXI_KW"><path d="M643.9583,628.1979 C648.1146,665.9167 659.5521,731.9896 690.625,778.8438 C715.1354,815.8125 749.8096,842.9688 782.32,863.6458" fill="none" id="CXI-to-KW" style="stroke:#446E9B;stroke-width:3.125;"/><polygon fill="#446E9B" points="787.5938,867,781.9193,858.4529,783.199,864.2049,777.4471,865.4846,787.5938,867" style="stroke:#446E9B;stroke-width:3.125;"/><text fill="#FFFFFF" font-family="'Verdana'" font-size="12.5" lengthAdjust="spacing" textLength="56.1646" x="696.875" y="753.4986">Manages</text></g><!--link CXI to NEAT--><g class="link" data-entity-1="CXI" data-entity-2="NEAT" data-source-line="45" data-uid="lnk31" id="link_CXI_NEAT"><path d="M682.4167,628.1563 C718.4583,654.1667 765.7145,688.2781 801.8291,714.3615" fill="none" id="CXI-to-NEAT" style="stroke:#446E9B;stroke-width:3.125;"/><polygon fill="#446E9B" points="806.8958,718.0208,801.7354,709.154,802.6736,714.9714,796.8562,715.9096,806.8958,718.0208" style="stroke:#446E9B;stroke-width:3.125;"/><text fill="#FFFFFF" font-family="'Verdana'" font-size="12.5" lengthAdjust="spacing" textLength="56.1646" x="769.7917" y="679.0507">Manages</text></g><!--SRC=[RLF1Qjj04BthAwOnfSaXQK8eb1mAjkpO9eubPBKfj3sCvQcyMDeLkwi44VhldTNAiGBoJM_UctqpR_p1xgaaC1LcLE0sC0SXAzHOGgRAIacITcERWa1JPb7c1GK1Sm-O4vnjr3Df4hcq3Qom8GtdwPxWNcchoPYBCtWDW7-_fer4mwHKryR-bkSRLTizJF6WB5xy0JGmJM6qnkV6ysCjP2OgB0oJ7r7oQzfuOfnuIgH5BYJC6dASBzStsIs4UzJ2DfuOpM0qrqGo-DUpd6f2K-jtVYSe3oUlyJg1XIfsGkO6LgkGkpyrgkHFE8ex9qmSJGhkx8KXLbOy4ombSr1cnCgljpTRI8Gvm6DUMgyBn_6Gix4nPFksVc1Ts9ElQ5iVg3EK41OmCnOjjLv3rSqy-NvitMfIfSKZxGHskcNyZfv6oNB8IbIHHkicxjcPITutzK8DVowxjZwXacy5DfUXqbKtA1DuGJLv_iEBsXq7M3HRBNOGLQ7wt7Vqy0IZX7PUi2Qq40gT5KVPkBQgP6TAmYGUUybwDavxefNQvSvvgAJaasMgku-5CfMmMF1rj8zwwIgQpcTUo-D_WeJ_0grYBoeJn0bSNdvpbta7SmxKAcq2_dAWo_uEeXTfuERw-kCHvfkxWmb9-YioWRe90aTq5HTwNt34NM93U1lDKC4jTGZdpGt1xNQ62dxsVeKNq0Ml99_NVQ5UJD3wkBhg-gz4HjAGWMLygdHFz6ijzARgKYCJEFDlPltLdC2kJmV_1m00]--></g></svg>