<svg xmlns="http://www.w3.org/2000/svg" xmlns:xlink="http://www.w3.org/1999/xlink" contentStyleType="text/css" data-diagram-type="DESCRIPTION" height="487.5px" preserveAspectRatio="none" style="width:1118px;height:487px;" version="1.1" viewBox="0 0 1118 487" width="1118.75px" zoomAndPan="magnify"><title>North Star Tech Stack Architecture</title><defs><linearGradient id="g16hek1mi4oylo0" x1="50%" x2="50%" y1="0%" y2="100%"><stop offset="0%" stop-color="#B8B8B8"/><stop offset="100%" stop-color="#999999"/></linearGradient><linearGradient id="g16hek1mi4oylo1" x1="50%" x2="50%" y1="0%" y2="100%"><stop offset="0%" stop-color="#B8B8B8"/><stop offset="100%" stop-color="#6B6B6B"/></linearGradient></defs><g><g class="title" data-source-line="4"><rect fill="url(#g16hek1mi4oylo0)" height="47.168" rx="4.1667" ry="4.1667" style="stroke:#6B6B6B;stroke-width:1.0417;" width="435.1379" x="337.5174" y="20.8333"/><text fill="#304D6D" font-family="'Verdana'" font-size="20.8333" font-weight="bold" lengthAdjust="spacing" textLength="412.2213" x="348.9757" y="51.6296">North Star Tech Stack Architecture</text></g><!--cluster Central Nervous System--><g class="cluster" data-entity="Central Nervous System" data-source-line="6" data-uid="ent0002" id="cluster_Central Nervous System"><path d="M366.6667,85.7096 L545.3613,85.7096 A6.25,6.25 0 0 1 549.528,89.8763 L556.8197,116.9271 L560.4167,116.9271 A4.1667,4.1667 0 0 1 564.5833,121.0938 L564.5833,325.1576 A4.1667,4.1667 0 0 1 560.4167,329.3242 L366.6667,329.3242 A4.1667,4.1667 0 0 1 362.5,325.1576 L362.5,89.8763 A4.1667,4.1667 0 0 1 366.6667,85.7096" fill="url(#g16hek1mi4oylo1)" style="stroke:#446E9B;stroke-width:2.0833;"/><line style="stroke:#446E9B;stroke-width:2.0833;" x1="362.5" x2="556.8197" y1="116.9271" y2="116.9271"/><text fill="#446E9B" font-family="'Verdana'" font-size="12.5" font-weight="bold" lengthAdjust="spacing" textLength="170.3613" x="371.875" y="104.6041">Central Nervous System</text></g><!--cluster Revenue Engines--><g class="cluster" data-entity="Revenue Engines" data-source-line="11" data-uid="ent0005" id="cluster_Revenue Engines"><path d="M548.9583,354.3242 L678.1352,354.3242 A6.25,6.25 0 0 1 682.3018,358.4909 L689.5935,385.5417 L1090.625,385.5417 A4.1667,4.1667 0 0 1 1094.7917,389.7083 L1094.7917,470.9284 A4.1667,4.1667 0 0 1 1090.625,475.0951 L548.9583,475.0951 A4.1667,4.1667 0 0 1 544.7917,470.9284 L544.7917,358.4909 A4.1667,4.1667 0 0 1 548.9583,354.3242" fill="url(#g16hek1mi4oylo1)" style="stroke:#446E9B;stroke-width:2.0833;"/><line style="stroke:#446E9B;stroke-width:2.0833;" x1="544.7917" x2="689.5935" y1="385.5417" y2="385.5417"/><text fill="#446E9B" font-family="'Verdana'" font-size="12.5" font-weight="bold" lengthAdjust="spacing" textLength="120.8435" x="554.1667" y="373.2187">Revenue Engines</text></g><!--cluster Data Factory--><g class="cluster" data-entity="Data Factory" data-source-line="17" data-uid="ent0009" id="cluster_Data Factory"><path d="M852.0833,85.7096 L951.2492,85.7096 A6.25,6.25 0 0 1 955.4159,89.8763 L962.7075,116.9271 L1004.1667,116.9271 A4.1667,4.1667 0 0 1 1008.3333,121.0938 L1008.3333,325.1576 A4.1667,4.1667 0 0 1 1004.1667,329.3242 L852.0833,329.3242 A4.1667,4.1667 0 0 1 847.9167,325.1576 L847.9167,89.8763 A4.1667,4.1667 0 0 1 852.0833,85.7096" fill="url(#g16hek1mi4oylo1)" style="stroke:#446E9B;stroke-width:2.0833;"/><line style="stroke:#446E9B;stroke-width:2.0833;" x1="847.9167" x2="962.7075" y1="116.9271" y2="116.9271"/><text fill="#446E9B" font-family="'Verdana'" font-size="12.5" font-weight="bold" lengthAdjust="spacing" textLength="90.8325" x="857.2917" y="104.6041">Data Factory</text></g><!--cluster Operations & Content--><g class="cluster" data-entity="Operations . Content" data-source-line="22" data-uid="ent0012" id="cluster_Operations . Content"><path d="M20.8333,354.3242 L182.5968,354.3242 A6.25,6.25 0 0 1 186.7635,358.4909 L194.0552,385.5417 L515.625,385.5417 A4.1667,4.1667 0 0 1 519.7917,389.7083 L519.7917,470.9284 A4.1667,4.1667 0 0 1 515.625,475.0951 L20.8333,475.0951 A4.1667,4.1667 0 0 1 16.6667,470.9284 L16.6667,358.4909 A4.1667,4.1667 0 0 1 20.8333,354.3242" fill="url(#g16hek1mi4oylo1)" style="stroke:#446E9B;stroke-width:2.0833;"/><line style="stroke:#446E9B;stroke-width:2.0833;" x1="16.6667" x2="194.0552" y1="385.5417" y2="385.5417"/><text fill="#446E9B" font-family="'Verdana'" font-size="12.5" font-weight="bold" lengthAdjust="spacing" textLength="153.4302" x="26.0417" y="373.2187">Operations &amp; Content</text></g><!--entity SD--><g class="entity" data-entity="SD" data-source-line="7" data-uid="ent0003" id="entity_SD"><rect fill="#0000FF" height="60.3516" rx="4.1667" ry="4.1667" style="stroke:#304D6D;stroke-width:1.0417;" width="168.2007" x="379.4375" y="129.4596"/><text fill="#FFFFFF" font-family="'Verdana'" font-size="12.5" lengthAdjust="spacing" textLength="63.6414" x="395.0625" y="156.6874">SuiteDash</text><text fill="#FFFFFF" font-family="'Verdana'" font-size="12.5" lengthAdjust="spacing" textLength="136.9507" x="395.0625" y="171.2382">(CRM / Portal / Billing)</text></g><!--entity BUS--><g class="entity" data-entity="BUS" data-source-line="8" data-uid="ent0004" id="entity_BUS"><rect fill="#FFA500" height="60.3516" rx="4.1667" ry="4.1667" style="stroke:#304D6D;stroke-width:1.0417;" width="140.7898" x="385.8542" y="252.3034"/><text fill="#FFFFFF" font-family="'Verdana'" font-size="12.5" lengthAdjust="spacing" textLength="79.0588" x="401.4792" y="279.5312">Activepieces</text><text fill="#FFFFFF" font-family="'Verdana'" font-size="12.5" lengthAdjust="spacing" textLength="109.5398" x="401.4792" y="294.0819">(Automation Bus)</text></g><!--entity BD--><g class="entity" data-entity="BD" data-source-line="12" data-uid="ent0006" id="entity_BD"><rect fill="#008000" height="60.3516" rx="4.1667" ry="4.1667" style="stroke:#304D6D;stroke-width:1.0417;" width="155.7983" x="922.1042" y="398.0742"/><text fill="#FFFFFF" font-family="'Verdana'" font-size="12.5" lengthAdjust="spacing" textLength="120.2271" x="937.7292" y="425.302">Brilliant Directories</text><text fill="#FFFFFF" font-family="'Verdana'" font-size="12.5" lengthAdjust="spacing" textLength="124.5483" x="937.7292" y="439.8528">(Directory Platform)</text></g><!--entity MKT--><g class="entity" data-entity="MKT" data-source-line="13" data-uid="ent0007" id="entity_MKT"><rect fill="#008000" height="60.3516" rx="4.1667" ry="4.1667" style="stroke:#304D6D;stroke-width:1.0417;" width="180.5237" x="561.8229" y="398.0742"/><text fill="#FFFFFF" font-family="'Verdana'" font-size="12.5" lengthAdjust="spacing" textLength="43.75" x="577.4479" y="425.302">VBOUT</text><text fill="#FFFFFF" font-family="'Verdana'" font-size="12.5" lengthAdjust="spacing" textLength="149.2737" x="577.4479" y="439.8528">(Marketing Automation)</text></g><!--entity RPA--><g class="entity" data-entity="RPA" data-source-line="14" data-uid="ent0008" id="entity_RPA"><rect fill="#008000" height="60.3516" rx="4.1667" ry="4.1667" style="stroke:#304D6D;stroke-width:1.0417;" width="106.842" x="778.875" y="398.0742"/><text fill="#FFFFFF" font-family="'Verdana'" font-size="12.5" lengthAdjust="spacing" textLength="75.592" x="794.5" y="425.302">ElectroNeek</text><text fill="#FFFFFF" font-family="'Verdana'" font-size="12.5" lengthAdjust="spacing" textLength="66.1377" x="794.5" y="439.8528">(RPA Bots)</text></g><!--entity HEX--><g class="entity" data-entity="HEX" data-source-line="18" data-uid="ent0010" id="entity_HEX"><rect fill="#FFFF00" height="60.3516" rx="4.1667" ry="4.1667" style="stroke:#304D6D;stroke-width:1.0417;" width="127.832" x="864.2083" y="129.4596"/><text fill="#FFFFFF" font-family="'Verdana'" font-size="12.5" lengthAdjust="spacing" textLength="67.218" x="879.8333" y="156.6874">Hexomatic</text><text fill="#FFFFFF" font-family="'Verdana'" font-size="12.5" lengthAdjust="spacing" textLength="96.582" x="879.8333" y="171.2382">(Web Scraping)</text></g><!--entity OUT--><g class="entity" data-entity="OUT" data-source-line="19" data-uid="ent0011" id="entity_OUT"><rect fill="#FFFF00" height="60.3516" rx="4.1667" ry="4.1667" style="stroke:#304D6D;stroke-width:1.0417;" width="99.6338" x="868.9375" y="252.3034"/><text fill="#FFFFFF" font-family="'Verdana'" font-size="12.5" lengthAdjust="spacing" textLength="68.3838" x="884.5625" y="279.5312">Autobound</text><text fill="#FFFFFF" font-family="'Verdana'" font-size="12.5" lengthAdjust="spacing" textLength="67.7002" x="884.5625" y="294.0819">(Outreach)</text></g><!--entity DRIVE--><g class="entity" data-entity="DRIVE" data-source-line="23" data-uid="ent0013" id="entity_DRIVE"><rect fill="#ADD8E6" height="60.3516" rx="4.1667" ry="4.1667" style="stroke:#304D6D;stroke-width:1.0417;" width="128.0518" x="32.8542" y="398.0742"/><text fill="#FFFFFF" font-family="'Verdana'" font-size="12.5" lengthAdjust="spacing" textLength="81.3782" x="48.4792" y="425.302">Google Drive</text><text fill="#FFFFFF" font-family="'Verdana'" font-size="12.5" lengthAdjust="spacing" textLength="96.8018" x="48.4792" y="439.8528">(Asset Storage)</text></g><!--entity SLACK--><g class="entity" data-entity="SLACK" data-source-line="24" data-uid="ent0014" id="entity_SLACK"><rect fill="#ADD8E6" height="60.3516" rx="4.1667" ry="4.1667" style="stroke:#304D6D;stroke-width:1.0417;" width="127.3804" x="197.7708" y="398.0742"/><text fill="#FFFFFF" font-family="'Verdana'" font-size="12.5" lengthAdjust="spacing" textLength="33.1787" x="213.3958" y="425.302">Slack</text><text fill="#FFFFFF" font-family="'Verdana'" font-size="12.5" lengthAdjust="spacing" textLength="96.1304" x="213.3958" y="439.8528">(Team Comms)</text></g><!--entity MEDIA--><g class="entity" data-entity="MEDIA" data-source-line="25" data-uid="ent0015" id="entity_MEDIA"><rect fill="#800080" height="60.3516" rx="4.1667" ry="4.1667" style="stroke:#304D6D;stroke-width:1.0417;" width="141.2415" x="361.6667" y="398.0742"/><text fill="#FFFFFF" font-family="'Verdana'" font-size="12.5" lengthAdjust="spacing" textLength="109.9915" x="377.2917" y="425.302">Zebracat/FlexClip</text><text fill="#FFFFFF" font-family="'Verdana'" font-size="12.5" lengthAdjust="spacing" textLength="95.8313" x="377.2917" y="439.8528">(Video Factory)</text></g><!--link SD to BUS--><g class="link" data-entity-1="SD" data-entity-2="BUS" data-source-line="29" data-uid="lnk16" id="link_SD_BUS"><path d="M456.25,196.5638 C456.25,215.4701 456.25,227.1055 456.25,245.9388" fill="none" id="SD-BUS" style="stroke:#446E9B;stroke-width:3.125;"/><polygon fill="#446E9B" points="456.25,190.3138,452.0833,199.6888,456.25,195.5221,460.4167,199.6888,456.25,190.3138" style="stroke:#446E9B;stroke-width:3.125;"/><polygon fill="#446E9B" points="456.25,252.1888,460.4167,242.8138,456.25,246.9805,452.0833,242.8138,456.25,252.1888" style="stroke:#446E9B;stroke-width:3.125;"/><text fill="#FFFFFF" font-family="'Verdana'" font-size="12.5" lengthAdjust="spacing" textLength="96.8872" x="353.125" y="213.0624">Webhooks / API</text></g><!--link BUS to DRIVE--><g class="link" data-entity-1="BUS" data-entity-2="DRIVE" data-source-line="30" data-uid="lnk17" id="link_BUS_DRIVE"><path d="M385.6771,273.0117 C281.0208,273.0117 96.875,273.0117 96.875,273.0117 C96.875,273.0117 96.875,346.0951 96.875,391.3346" fill="none" id="BUS-to-DRIVE" style="stroke:#446E9B;stroke-width:3.125;"/><polygon fill="#446E9B" points="96.875,397.5846,101.0417,388.2096,96.875,392.3763,92.7083,388.2096,96.875,397.5846" style="stroke:#446E9B;stroke-width:3.125;"/><text fill="#FFFFFF" font-family="'Verdana'" font-size="12.5" lengthAdjust="spacing" textLength="91.3696" x="82.1146" y="264.8228">Create Folders</text></g><!--link BUS to SLACK--><g class="link" data-entity-1="BUS" data-entity-2="SLACK" data-source-line="31" data-uid="lnk18" id="link_BUS_SLACK"><path d="M385.375,292.8034 C329.6771,292.8034 261.4583,292.8034 261.4583,292.8034 C261.4583,292.8034 261.4583,351.668 261.4583,391.6055" fill="none" id="BUS-to-SLACK" style="stroke:#446E9B;stroke-width:3.125;"/><polygon fill="#446E9B" points="261.4583,397.8555,265.625,388.4805,261.4583,392.6471,257.2917,388.4805,261.4583,397.8555" style="stroke:#446E9B;stroke-width:3.125;"/><text fill="#FFFFFF" font-family="'Verdana'" font-size="12.5" lengthAdjust="spacing" textLength="78.2349" x="186.5208" y="284.6145">Notifications</text></g><!--link BUS to MKT--><g class="link" data-entity-1="BUS" data-entity-2="MKT" data-source-line="32" data-uid="lnk19" id="link_BUS_MKT"><path d="M514.7813,312.8971 C514.7813,355.8867 514.7813,429.2617 514.7813,429.2617 C514.7813,429.2617 529.6875,429.2617 555.3958,429.2617" fill="none" id="BUS-to-MKT" style="stroke:#446E9B;stroke-width:3.125;"/><polygon fill="#446E9B" points="561.6458,429.2617,552.2708,425.0951,556.4375,429.2617,552.2708,433.4284,561.6458,429.2617" style="stroke:#446E9B;stroke-width:3.125;"/><text fill="#FFFFFF" font-family="'Verdana'" font-size="12.5" lengthAdjust="spacing" textLength="70.8618" x="437.6979" y="386.3228">Sync Leads</text></g><!--link HEX to BD--><g class="link" data-entity-1="HEX" data-entity-2="BD" data-source-line="34" data-uid="lnk20" id="link_HEX_BD"><path d="M980.3021,189.9284 C980.3021,241.5117 980.3021,339.6159 980.3021,391.4076" fill="none" id="HEX-to-BD" style="stroke:#446E9B;stroke-width:3.125;"/><polygon fill="#446E9B" points="980.3021,397.6576,984.4688,388.2826,980.3021,392.4492,976.1354,388.2826,980.3021,397.6576" style="stroke:#446E9B;stroke-width:3.125;"/><text fill="#FFFFFF" font-family="'Verdana'" font-size="12.5" lengthAdjust="spacing" textLength="114.2456" x="986.5521" y="285.6041">Import Data (CSV)</text></g><!--link HEX to OUT--><g class="link" data-entity-1="HEX" data-entity-2="OUT" data-source-line="35" data-uid="lnk21" id="link_HEX_OUT"><path d="M918.75,190.3138 C918.75,209.2201 918.75,227.1055 918.75,245.9388" fill="none" id="HEX-to-OUT" style="stroke:#446E9B;stroke-width:3.125;"/><polygon fill="#446E9B" points="918.75,252.1888,922.9167,242.8138,918.75,246.9805,914.5833,242.8138,918.75,252.1888" style="stroke:#446E9B;stroke-width:3.125;"/><text fill="#FFFFFF" font-family="'Verdana'" font-size="12.5" lengthAdjust="spacing" textLength="81.6528" x="831.25" y="213.0624">Export Leads</text></g><!--link OUT to BD--><g class="link" data-entity-1="OUT" data-entity-2="BD" data-source-line="36" data-uid="lnk22" id="link_OUT_BD"><path d="M945.3333,313.043 C945.3333,337.918 945.3333,366.6159 945.3333,391.4805" fill="none" id="OUT-to-BD" style="stroke:#446E9B;stroke-width:3.125;"/><polygon fill="#446E9B" points="945.3333,397.7305,949.5,388.3555,945.3333,392.5221,941.1667,388.3555,945.3333,397.7305" style="stroke:#446E9B;stroke-width:3.125;"/><text fill="#FFFFFF" font-family="'Verdana'" font-size="12.5" lengthAdjust="spacing" textLength="168.5913" x="771.375" y="347.1978">drive "Claim Listing" traffic</text></g><!--link RPA to SD--><g class="link" data-entity-1="RPA" data-entity-2="SD" data-source-line="38" data-uid="lnk23" id="link_RPA_SD"><path d="M821.5417,398.0638 C821.5417,328.043 821.5417,160.5117 821.5417,160.5117 C821.5417,160.5117 660.0208,160.5117 554.1771,160.5117" fill="none" id="RPA-to-SD" style="stroke:#446E9B;stroke-width:3.125;stroke-dasharray:7.2917,7.2917;"/><polygon fill="#446E9B" points="547.9271,160.5117,557.3021,164.6784,553.1354,160.5117,557.3021,156.3451,547.9271,160.5117" style="stroke:#446E9B;stroke-width:3.125;"/><text fill="#FFFFFF" font-family="'Verdana'" font-size="12.5" lengthAdjust="spacing" textLength="170.8557" x="626.4271" y="152.3228">Sync Legacy Data (Invoice)</text></g><!--SRC=[PLDTR-8m47pFhzW3wQvzQ7b7fqeaeIqg1KGez_rWp48i73koDnoeklz-woHDEHrFE3kpEvuTVw0S2mHV2ebQR29_KAOKJXGWRL5QWuOoEci4XvA4sMkyW6XbaCubWdMKsuWKCR0t2oV8I3XOeQp_oGECdCmLSPFAOI-AUDv1x1cTy0GdDCpG7Mtb8Jjxmg87hn7mxqTMCIaLFlzfhfBbCmnWmUqPFu1OQHQml_u5Wcafz6DTOSCQIL97B1LAz4mSLMGBGSeQY2lV4EAN3FfpnrV2wC-5dYKUqLG8OxFds_bEIEp2E648KXMyi4xLlTzEPrXeGJlhYhO_2tfmYAQXh-FvouhXpy8Ta5Wsl8jg2CzFgtyOOyrzdPqX7fYtN8mWjjIA3wSMUwaz5IJWNjHoEk6FUAhdIExo1JUGIIVAphV7yLVeVqEjxU_MEfQriPNPCdnUaKCXymRA5-YWbrFd9Rhw7Xu-Gc8DyKQxwG_MScOWTRoFi0dlaJWHrZ6rQPik9-inzATgdzFx1ZFDxPcmGivPOekYlNas7ILF_w6_uyO9AMXmh_6KQ5KoSwssQD_SQ2qUfnCsRb6vKjTR_nJq6lOvg8yuGvzlRkxgQ0o1lSgjFNXEscWnYSB7K6pa3Y5XPmZXtkejEj-L6tr3c5bIEoKRNxfgsF6G8suaJ55iVHG5_-kPAHSc_E8S1ooiyIh9rjTTENW_XF6fhZVKyAbZReE__9YqK0LCbGy9wm4_h1sBYAAGbzlRk_1Akl5x8S_jg8avMYNn-Yy0]--></g></svg>