<svg xmlns="http://www.w3.org/2000/svg" xmlns:xlink="http://www.w3.org/1999/xlink" contentStyleType="text/css" data-diagram-type="ACTIVITY" height="1073.9583px" preserveAspectRatio="none" style="width:1242px;height:1073px;" version="1.1" viewBox="0 0 1242 1073" width="1242.7083px" zoomAndPan="magnify"><title>Notroom Services: Premium Mobile Notary Flow</title><defs><linearGradient id="g7zq6u437ytkr0" x1="50%" x2="50%" y1="0%" y2="100%"><stop offset="0%" stop-color="#B8B8B8"/><stop offset="100%" stop-color="#999999"/></linearGradient><linearGradient id="g7zq6u437ytkr1" x1="50%" x2="50%" y1="0%" y2="100%"><stop offset="0%" stop-color="#7C9AB9"/><stop offset="100%" stop-color="#304D6D"/></linearGradient><linearGradient id="g7zq6u437ytkr2" x1="50%" x2="50%" y1="0%" y2="100%"><stop offset="0%" stop-color="#B8B8B8"/><stop offset="100%" stop-color="#6B6B6B"/></linearGradient></defs><g><g class="title" data-source-line="2"><rect fill="url(#g7zq6u437ytkr0)" height="47.168" rx="4.1667" ry="4.1667" style="stroke:#6B6B6B;stroke-width:1.0417;" width="586.8205" x="326.5935" y="20.8333"/><text fill="#304D6D" font-family="'Verdana'" font-size="20.8333" font-weight="bold" lengthAdjust="spacing" textLength="563.9038" x="338.0519" y="51.6296">Notroom Services: Premium Mobile Notary Flow</text></g><rect fill="url(#g7zq6u437ytkr0)" height="24.9674" style="stroke:url(#g7zq6u437ytkr0);stroke-width:1.0417;" width="1208.7575" x="15.625" y="80.5013"/><ellipse cx="122.2646" cy="121.0938" fill="#3399F3" rx="10.4167" ry="10.4167" style="stroke:#304D6D;stroke-width:1.0417;"/><rect fill="url(#g7zq6u437ytkr1)" height="37.4674" rx="4.1667" ry="4.1667" style="stroke:#304D6D;stroke-width:1.0417;" width="200.7792" x="21.875" y="152.3438"/><text fill="#FFFFFF" font-family="'Verdana'" font-size="12.5" lengthAdjust="spacing" textLength="177.8625" x="33.3333" y="175.4049">Contact via Phone/Text/Web</text><rect fill="url(#g7zq6u437ytkr1)" height="37.4674" rx="4.1667" ry="4.1667" style="stroke:#304D6D;stroke-width:1.0417;" width="116.2272" x="64.151" y="210.6445"/><text fill="#FFFFFF" font-family="'Verdana'" font-size="12.5" lengthAdjust="spacing" textLength="93.3105" x="75.6093" y="233.7056">Request Quote</text><rect fill="url(#g7zq6u437ytkr1)" height="37.4674" rx="4.1667" ry="4.1667" style="stroke:#304D6D;stroke-width:1.0417;" width="107.7128" x="68.4082" y="385.5469"/><text fill="#FFFFFF" font-family="'Verdana'" font-size="12.5" lengthAdjust="spacing" textLength="84.7961" x="79.8665" y="408.608">Accept Quote</text><rect fill="url(#g7zq6u437ytkr1)" height="37.4674" rx="4.1667" ry="4.1667" style="stroke:#304D6D;stroke-width:1.0417;" width="126.4689" x="59.0302" y="443.8477"/><text fill="#FFFFFF" font-family="'Verdana'" font-size="12.5" lengthAdjust="spacing" textLength="103.5522" x="70.4885" y="466.9088">Pay Booking Fee</text><line style="stroke:#3399F3;stroke-width:2.0833;" x1="15.625" x2="15.625" y1="80.5013" y2="1062.3047"/><rect fill="url(#g7zq6u437ytkr1)" height="37.4674" rx="4.1667" ry="4.1667" style="stroke:#304D6D;stroke-width:1.0417;" width="281.1442" x="233.0709" y="268.9453"/><text fill="#FFFFFF" font-family="'Verdana'" font-size="12.5" lengthAdjust="spacing" textLength="258.2275" x="244.5292" y="292.0064">Calculate Fee (Travel + Stamps + Surge)</text><rect fill="url(#g7zq6u437ytkr1)" height="37.4674" rx="4.1667" ry="4.1667" style="stroke:#304D6D;stroke-width:1.0417;" width="194.0776" x="276.6042" y="327.2461"/><text fill="#FFFFFF" font-family="'Verdana'" font-size="12.5" lengthAdjust="spacing" textLength="171.1609" x="288.0625" y="350.3072">Send Quote &amp; Booking Link</text><line style="stroke:#3399F3;stroke-width:2.0833;" x1="226.8209" x2="226.8209" y1="80.5013" y2="1062.3047"/><rect fill="url(#g7zq6u437ytkr1)" height="37.4674" rx="4.1667" ry="4.1667" style="stroke:#304D6D;stroke-width:1.0417;" width="131.2907" x="558.7718" y="502.1484"/><text fill="#FFFFFF" font-family="'Verdana'" font-size="12.5" lengthAdjust="spacing" textLength="108.374" x="570.2301" y="525.2096">Receive Dispatch</text><rect fill="url(#g7zq6u437ytkr1)" height="37.4674" rx="4.1667" ry="4.1667" style="stroke:#304D6D;stroke-width:1.0417;" width="199.5707" x="524.6318" y="560.4492"/><text fill="#FFFFFF" font-family="'Verdana'" font-size="12.5" lengthAdjust="spacing" textLength="176.6541" x="536.0901" y="583.5103">Print Documents (if needed)</text><rect fill="url(#g7zq6u437ytkr1)" height="37.4674" rx="4.1667" ry="4.1667" style="stroke:#304D6D;stroke-width:1.0417;" width="135.496" x="556.6691" y="618.75"/><text fill="#FFFFFF" font-family="'Verdana'" font-size="12.5" lengthAdjust="spacing" textLength="112.5793" x="568.1274" y="641.8111">Travel to Location</text><line style="stroke:#3399F3;stroke-width:2.0833;" x1="518.3818" x2="518.3818" y1="80.5013" y2="1062.3047"/><rect fill="url(#g7zq6u437ytkr1)" height="37.4674" rx="4.1667" ry="4.1667" style="stroke:#304D6D;stroke-width:1.0417;" width="171.2626" x="738.382" y="677.0508"/><text fill="#FFFFFF" font-family="'Verdana'" font-size="12.5" lengthAdjust="spacing" textLength="148.3459" x="749.8403" y="700.1119">Verify ID (Journal Entry)</text><rect fill="url(#g7zq6u437ytkr1)" height="37.4674" rx="4.1667" ry="4.1667" style="stroke:#304D6D;stroke-width:1.0417;" width="123.8566" x="762.085" y="735.3516"/><text fill="#FFFFFF" font-family="'Verdana'" font-size="12.5" lengthAdjust="spacing" textLength="100.9399" x="773.5433" y="758.4127">Execute Signing</text><rect fill="url(#g7zq6u437ytkr1)" height="37.4674" rx="4.1667" ry="4.1667" style="stroke:#304D6D;stroke-width:1.0417;" width="178.7882" x="734.6191" y="793.6523"/><text fill="#FFFFFF" font-family="'Verdana'" font-size="12.5" lengthAdjust="spacing" textLength="155.8716" x="746.0775" y="816.7135">Collect Balance Payment</text><line style="stroke:#3399F3;stroke-width:2.0833;" x1="728.3691" x2="728.3691" y1="80.5013" y2="1062.3047"/><polygon fill="url(#g7zq6u437ytkr2)" points="1013.8143,851.9531,1111.6272,851.9531,1124.1272,864.4531,1111.6272,876.9531,1013.8143,876.9531,1001.3143,864.4531,1013.8143,851.9531" style="stroke:#6B6B6B;stroke-width:1.0417;"/><text fill="#FFFFFF" font-family="'Verdana'" font-size="12.5" lengthAdjust="spacing" textLength="87.3962" x="1019.0226" y="868.7805">Loan Signing?</text><text fill="#FFFFFF" font-family="'Verdana'" font-size="12.5" lengthAdjust="spacing" textLength="21.8384" x="974.2676" y="856.2968">Yes</text><text fill="#FFFFFF" font-family="'Verdana'" font-size="12.5" lengthAdjust="spacing" textLength="16.9983" x="1129.3355" y="856.2968">No</text><rect fill="url(#g7zq6u437ytkr1)" height="37.4674" rx="4.1667" ry="4.1667" style="stroke:#304D6D;stroke-width:1.0417;" width="122.2575" x="923.8241" y="887.3698"/><text fill="#FFFFFF" font-family="'Verdana'" font-size="12.5" lengthAdjust="spacing" textLength="99.3408" x="935.2824" y="910.4309">Scan Back Docs</text><rect fill="url(#g7zq6u437ytkr1)" height="37.4674" rx="4.1667" ry="4.1667" style="stroke:#304D6D;stroke-width:1.0417;" width="111.8815" x="929.012" y="945.6706"/><text fill="#FFFFFF" font-family="'Verdana'" font-size="12.5" lengthAdjust="spacing" textLength="88.9648" x="940.4704" y="968.7317">Drop at FedEx</text><rect fill="url(#g7zq6u437ytkr1)" height="37.4674" rx="4.1667" ry="4.1667" style="stroke:#304D6D;stroke-width:1.0417;" width="147.1476" x="1066.9149" y="887.3698"/><text fill="#FFFFFF" font-family="'Verdana'" font-size="12.5" lengthAdjust="spacing" textLength="124.231" x="1078.3732" y="910.4309">Hand Docs to Client</text><polygon fill="url(#g7zq6u437ytkr2)" points="1062.7207,993.5547,1075.2207,1006.0547,1062.7207,1018.5547,1050.2207,1006.0547,1062.7207,993.5547" style="stroke:#6B6B6B;stroke-width:1.0417;"/><ellipse cx="1062.7207" cy="1050.8464" fill="none" rx="11.4583" ry="11.4583" style="stroke:#304D6D;stroke-width:1.0417;"/><ellipse cx="1062.7207" cy="1050.8464" fill="none" rx="6.25" ry="6.25" style="stroke:#304D6D;stroke-width:1.0417;"/><line style="stroke:#3399F3;stroke-width:2.0833;" x1="917.5741" x2="917.5741" y1="80.5013" y2="1062.3047"/><line style="stroke:#3399F3;stroke-width:2.0833;" x1="1218.2292" x2="1218.2292" y1="80.5013" y2="1062.3047"/><line style="stroke:#446E9B;stroke-width:3.125;" x1="122.2646" x2="122.2646" y1="131.5104" y2="152.3438"/><polygon fill="#446E9B" points="118.0979,141.9271,122.2646,152.3438,126.4313,141.9271,122.2646,146.0938" style="stroke:#446E9B;stroke-width:1.0417;"/><line style="stroke:#446E9B;stroke-width:3.125;" x1="122.2646" x2="122.2646" y1="189.8112" y2="210.6445"/><polygon fill="#446E9B" points="118.0979,200.2279,122.2646,210.6445,126.4313,200.2279,122.2646,204.3945" style="stroke:#446E9B;stroke-width:1.0417;"/><line style="stroke:#446E9B;stroke-width:3.125;" x1="122.2646" x2="122.2646" y1="423.0143" y2="443.8477"/><polygon fill="#446E9B" points="118.0979,433.431,122.2646,443.8477,126.4313,433.431,122.2646,437.5977" style="stroke:#446E9B;stroke-width:1.0417;"/><line style="stroke:#446E9B;stroke-width:3.125;" x1="373.643" x2="373.643" y1="306.4128" y2="327.2461"/><polygon fill="#446E9B" points="369.4763,316.8294,373.643,327.2461,377.8097,316.8294,373.643,320.9961" style="stroke:#446E9B;stroke-width:1.0417;"/><line style="stroke:#446E9B;stroke-width:3.125;" x1="624.4171" x2="624.4171" y1="539.6159" y2="560.4492"/><polygon fill="#446E9B" points="620.2504,550.0326,624.4171,560.4492,628.5838,550.0326,624.4171,554.1992" style="stroke:#446E9B;stroke-width:1.0417;"/><line style="stroke:#446E9B;stroke-width:3.125;" x1="624.4171" x2="624.4171" y1="597.9167" y2="618.75"/><polygon fill="#446E9B" points="620.2504,608.3333,624.4171,618.75,628.5838,608.3333,624.4171,612.5" style="stroke:#446E9B;stroke-width:1.0417;"/><line style="stroke:#446E9B;stroke-width:3.125;" x1="824.0133" x2="824.0133" y1="714.5182" y2="735.3516"/><polygon fill="#446E9B" points="819.8466,724.9349,824.0133,735.3516,828.1799,724.9349,824.0133,729.1016" style="stroke:#446E9B;stroke-width:1.0417;"/><line style="stroke:#446E9B;stroke-width:3.125;" x1="824.0133" x2="824.0133" y1="772.819" y2="793.6523"/><polygon fill="#446E9B" points="819.8466,783.2357,824.0133,793.6523,828.1799,783.2357,824.0133,787.4023" style="stroke:#446E9B;stroke-width:1.0417;"/><line style="stroke:#446E9B;stroke-width:3.125;" x1="984.9528" x2="984.9528" y1="924.8372" y2="945.6706"/><polygon fill="#446E9B" points="980.7861,935.2539,984.9528,945.6706,989.1195,935.2539,984.9528,939.4206" style="stroke:#446E9B;stroke-width:1.0417;"/><line style="stroke:#446E9B;stroke-width:3.125;" x1="1001.3143" x2="984.9528" y1="864.4531" y2="864.4531"/><line style="stroke:#446E9B;stroke-width:3.125;" x1="984.9528" x2="984.9528" y1="864.4531" y2="887.3698"/><polygon fill="#446E9B" points="980.7861,876.9531,984.9528,887.3698,989.1195,876.9531,984.9528,881.1198" style="stroke:#446E9B;stroke-width:1.0417;"/><line style="stroke:#446E9B;stroke-width:3.125;" x1="1124.1272" x2="1140.4887" y1="864.4531" y2="864.4531"/><line style="stroke:#446E9B;stroke-width:3.125;" x1="1140.4887" x2="1140.4887" y1="864.4531" y2="887.3698"/><polygon fill="#446E9B" points="1136.322,876.9531,1140.4887,887.3698,1144.6554,876.9531,1140.4887,881.1198" style="stroke:#446E9B;stroke-width:1.0417;"/><line style="stroke:#446E9B;stroke-width:3.125;" x1="984.9528" x2="984.9528" y1="983.138" y2="1006.0547"/><line style="stroke:#446E9B;stroke-width:3.125;" x1="984.9528" x2="1050.2207" y1="1006.0547" y2="1006.0547"/><polygon fill="#446E9B" points="1039.8041,1001.888,1050.2207,1006.0547,1039.8041,1010.2214,1043.9707,1006.0547" style="stroke:#446E9B;stroke-width:1.0417;"/><line style="stroke:#446E9B;stroke-width:3.125;" x1="1140.4887" x2="1140.4887" y1="924.8372" y2="1006.0547"/><line style="stroke:#446E9B;stroke-width:3.125;" x1="1140.4887" x2="1075.2207" y1="1006.0547" y2="1006.0547"/><polygon fill="#446E9B" points="1085.6374,1001.888,1075.2207,1006.0547,1085.6374,1010.2214,1081.4707,1006.0547" style="stroke:#446E9B;stroke-width:1.0417;"/><line style="stroke:#446E9B;stroke-width:3.125;" x1="1062.7207" x2="1062.7207" y1="1018.5547" y2="1039.388"/><polygon fill="#446E9B" points="1058.5541,1028.9714,1062.7207,1039.388,1066.8874,1028.9714,1062.7207,1033.138" style="stroke:#446E9B;stroke-width:1.0417;"/><line style="stroke:#446E9B;stroke-width:3.125;" x1="122.2646" x2="122.2646" y1="248.112" y2="253.3203"/><line style="stroke:#446E9B;stroke-width:3.125;" x1="122.2646" x2="373.643" y1="253.3203" y2="253.3203"/><line style="stroke:#446E9B;stroke-width:3.125;" x1="373.643" x2="373.643" y1="253.3203" y2="268.9453"/><polygon fill="#446E9B" points="369.4763,258.5286,373.643,268.9453,377.8097,258.5286,373.643,262.6953" style="stroke:#446E9B;stroke-width:1.0417;"/><line style="stroke:#446E9B;stroke-width:3.125;" x1="373.643" x2="373.643" y1="364.7135" y2="369.9219"/><line style="stroke:#446E9B;stroke-width:3.125;" x1="373.643" x2="122.2646" y1="369.9219" y2="369.9219"/><line style="stroke:#446E9B;stroke-width:3.125;" x1="122.2646" x2="122.2646" y1="369.9219" y2="385.5469"/><polygon fill="#446E9B" points="118.0979,375.1302,122.2646,385.5469,126.4313,375.1302,122.2646,379.2969" style="stroke:#446E9B;stroke-width:1.0417;"/><line style="stroke:#446E9B;stroke-width:3.125;" x1="122.2646" x2="122.2646" y1="481.3151" y2="486.5234"/><line style="stroke:#446E9B;stroke-width:3.125;" x1="122.2646" x2="624.4171" y1="486.5234" y2="486.5234"/><line style="stroke:#446E9B;stroke-width:3.125;" x1="624.4171" x2="624.4171" y1="486.5234" y2="502.1484"/><polygon fill="#446E9B" points="620.2504,491.7318,624.4171,502.1484,628.5838,491.7318,624.4171,495.8984" style="stroke:#446E9B;stroke-width:1.0417;"/><line style="stroke:#446E9B;stroke-width:3.125;" x1="624.4171" x2="624.4171" y1="656.2174" y2="661.4258"/><line style="stroke:#446E9B;stroke-width:3.125;" x1="624.4171" x2="824.0133" y1="661.4258" y2="661.4258"/><line style="stroke:#446E9B;stroke-width:3.125;" x1="824.0133" x2="824.0133" y1="661.4258" y2="677.0508"/><polygon fill="#446E9B" points="819.8466,666.6341,824.0133,677.0508,828.1799,666.6341,824.0133,670.8008" style="stroke:#446E9B;stroke-width:1.0417;"/><line style="stroke:#446E9B;stroke-width:3.125;" x1="824.0133" x2="824.0133" y1="831.1198" y2="836.3281"/><line style="stroke:#446E9B;stroke-width:3.125;" x1="824.0133" x2="1062.7207" y1="836.3281" y2="836.3281"/><line style="stroke:#446E9B;stroke-width:3.125;" x1="1062.7207" x2="1062.7207" y1="836.3281" y2="851.9531"/><polygon fill="#446E9B" points="1058.5541,841.5365,1062.7207,851.9531,1066.8874,841.5365,1062.7207,845.7031" style="stroke:#446E9B;stroke-width:1.0417;"/><text fill="#304D6D" font-family="'Verdana'" font-size="12.5" lengthAdjust="spacing" textLength="36.1877" x="103.1291" y="97.3124">Client</text><text fill="#304D6D" font-family="'Verdana'" font-size="12.5" lengthAdjust="spacing" textLength="111.9995" x="316.6016" y="97.3124">Admin/Dispatcher</text><text fill="#304D6D" font-family="'Verdana'" font-size="12.5" lengthAdjust="spacing" textLength="42.0959" x="602.3275" y="97.3124">Notary</text><text fill="#304D6D" font-family="'Verdana'" font-size="12.5" lengthAdjust="spacing" textLength="50.3967" x="797.7732" y="97.3124">Meeting</text><text fill="#304D6D" font-family="'Verdana'" font-size="12.5" lengthAdjust="spacing" textLength="81.5063" x="1027.1484" y="97.3124">Post-Meeting</text><!--SRC=[JP51Rnen48Nl-okcELIBgehxxg4AWQYjI4IxKQCU1-y3BBmUQizIaFZn7Oi4rIVBVlFccpSVT8S1b0_i47XTgTS0kdiMJI83TKX7xv0RMYKCVXpeITRU52RWTAR787_lgkho43oYNgfihrer3nALdTBHCwrs4Z5zmKcdhrYtLVCJVqPafH-ZA5ehlky77wTpRn3gTaWNC-3Wni0AUWIeVabyHA1Fr2aFXrmkOzfYOcuTOd-reeyq4zdxkAMbZ_lsFwpctZaSRYsR5PzlMcjGfDU1BWNFmHz1xpn5ddnKceiR1xFBLFiDHQ17NmZUu5HeAOxLIon-Ju2QlHd-GlARCtsRK_rTnXGvq29gEfVQnGbkDFJERwEfsn9T2B3ePXmuEf2XbgR5SYLPFzzyZQ5U2iVtsYyJibr6gdyZJogoqtJElcVizeKzjzV7UP83iThS_UBKLWZP0dwMjvAlR74MTPdd6fzfOkytjbiv_0C0]--></g></svg>