<svg xmlns="http://www.w3.org/2000/svg" xmlns:xlink="http://www.w3.org/1999/xlink" contentStyleType="text/css" data-diagram-type="SEQUENCE" height="650px" preserveAspectRatio="none" style="width:1462px;height:650px;" version="1.1" viewBox="0 0 1462 650" width="1462.5px" zoomAndPan="magnify"><title>-&gt; TITLE : Closing Costs ($3k)</title><defs><linearGradient id="g1en6icj6q55r30" x1="50%" x2="50%" y1="0%" y2="100%"><stop offset="0%" stop-color="#B8B8B8"/><stop offset="100%" stop-color="#999999"/></linearGradient><linearGradient id="g1en6icj6q55r31" x1="50%" x2="50%" y1="0%" y2="100%"><stop offset="0%" stop-color="#7C9AB9"/><stop offset="100%" stop-color="#304D6D"/></linearGradient><linearGradient id="g1en6icj6q55r32" x1="50%" x2="50%" y1="0%" y2="100%"><stop offset="0%" stop-color="#707070"/><stop offset="100%" stop-color="#242424"/></linearGradient><linearGradient id="g1en6icj6q55r33" x1="50%" x2="50%" y1="0%" y2="100%"><stop offset="0%" stop-color="#70B8F7"/><stop offset="100%" stop-color="#246BAA"/></linearGradient></defs><g><rect fill="url(#g1en6icj6q55r30)" height="47.168" rx="4.1667" ry="4.1667" style="stroke:#6B6B6B;stroke-width:1.0417;" width="369.576" x="545.137" y="20.8333"/><text fill="#304D6D" font-family="'Verdana'" font-size="20.8333" font-weight="bold" lengthAdjust="spacing" textLength="346.6593" x="556.5954" y="51.6296">-&gt; TITLE : Closing Costs ($3k)</text><g><title>Seller</title><rect fill="#000000" fill-opacity="0.00000" height="385.1563" width="8.3333" x="37.4919" y="167.9688"/><line style="stroke:#999999;stroke-width:1.0417;stroke-dasharray:5.2083,5.2083;" x1="40.625" x2="40.625" y1="167.9688" y2="553.125"/></g><g><title>Land Trust</title><rect fill="#000000" fill-opacity="0.00000" height="385.1563" width="8.3333" x="259.2692" y="167.9688"/><line style="stroke:#999999;stroke-width:1.0417;stroke-dasharray:5.2083,5.2083;" x1="262.4451" x2="262.4451" y1="167.9688" y2="553.125"/></g><g><title>Obuke LLC</title><rect fill="#000000" fill-opacity="0.00000" height="385.1563" width="8.3333" x="525.2055" y="167.9688"/><line style="stroke:#999999;stroke-width:1.0417;stroke-dasharray:5.2083,5.2083;" x1="528.9317" x2="528.9317" y1="167.9688" y2="553.125"/></g><g><title>Title Company</title><rect fill="#000000" fill-opacity="0.00000" height="385.1563" width="8.3333" x="729.2857" y="167.9688"/><line style="stroke:#999999;stroke-width:1.0417;stroke-dasharray:5.2083,5.2083;" x1="732.9376" x2="732.9376" y1="167.9688" y2="553.125"/></g><g><title>Original Lender</title><rect fill="#000000" fill-opacity="0.00000" height="385.1563" width="8.3333" x="941.4561" y="167.9688"/><line style="stroke:#999999;stroke-width:1.0417;stroke-dasharray:5.2083,5.2083;" x1="945.4254" x2="945.4254" y1="167.9688" y2="553.125"/></g><g><title>Servicing Co</title><rect fill="#000000" fill-opacity="0.00000" height="385.1563" width="8.3333" x="1147.4131" y="167.9688"/><line style="stroke:#999999;stroke-width:1.0417;stroke-dasharray:5.2083,5.2083;" x1="1151.0284" x2="1151.0284" y1="167.9688" y2="553.125"/></g><g><title>Insurance Co</title><rect fill="#000000" fill-opacity="0.00000" height="385.1563" width="8.3333" x="1346.0948" y="167.9688"/><line style="stroke:#999999;stroke-width:1.0417;stroke-dasharray:5.2083,5.2083;" x1="1350.0478" x2="1350.0478" y1="167.9688" y2="553.125"/></g><g class="participant participant-head" data-participant="Seller"><text fill="#FFFFFF" font-family="'Verdana'" font-size="12.5" lengthAdjust="spacing" textLength="35.4004" x="20.8333" y="159.8124">Seller</text><ellipse cx="41.6585" cy="88.8346" fill="url(#g1en6icj6q55r31)" rx="8.3333" ry="8.3333" style="stroke:#304D6D;stroke-width:1.0417;"/><path d="M41.6585,97.168 L41.6585,125.293 M28.1169,105.5013 L55.2002,105.5013 M41.6585,125.293 L28.1169,140.918 M41.6585,125.293 L55.2002,140.918" fill="none" style="stroke:#304D6D;stroke-width:1.0417;"/></g><g class="participant participant-tail" data-participant="Seller"><text fill="#FFFFFF" font-family="'Verdana'" font-size="12.5" lengthAdjust="spacing" textLength="35.4004" x="20.8333" y="568.8944">Seller</text><ellipse cx="41.6585" cy="586.4258" fill="url(#g1en6icj6q55r31)" rx="8.3333" ry="8.3333" style="stroke:#304D6D;stroke-width:1.0417;"/><path d="M41.6585,594.7591 L41.6585,622.8841 M28.1169,603.0924 L55.2002,603.0924 M41.6585,622.8841 L28.1169,638.5091 M41.6585,622.8841 L55.2002,638.5091" fill="none" style="stroke:#304D6D;stroke-width:1.0417;"/></g><g class="participant participant-head" data-participant="TRUST"><rect fill="url(#g1en6icj6q55r31)" height="39.5508" rx="4.1667" ry="4.1667" style="stroke:#304D6D;stroke-width:1.0417;" width="91.5649" x="217.6534" y="127.3763"/><text fill="#FFFFFF" font-family="'Verdana'" font-size="12.5" lengthAdjust="spacing" textLength="66.5649" x="230.1534" y="151.4791">Land Trust</text></g><g class="participant participant-tail" data-participant="TRUST"><rect fill="url(#g1en6icj6q55r31)" height="39.5508" rx="4.1667" ry="4.1667" style="stroke:#304D6D;stroke-width:1.0417;" width="91.5649" x="217.6534" y="552.0833"/><text fill="#FFFFFF" font-family="'Verdana'" font-size="12.5" lengthAdjust="spacing" textLength="66.5649" x="230.1534" y="576.1861">Land Trust</text></g><g class="participant participant-head" data-participant="BUYER"><rect fill="url(#g1en6icj6q55r31)" height="54.1016" rx="4.1667" ry="4.1667" style="stroke:#304D6D;stroke-width:1.0417;" width="105.0476" x="476.8483" y="112.8255"/><text fill="#FFFFFF" font-family="'Verdana'" font-size="12.5" lengthAdjust="spacing" textLength="67.2546" x="495.7448" y="136.9283">Obuke LLC</text><text fill="#FFFFFF" font-family="'Verdana'" font-size="12.5" lengthAdjust="spacing" textLength="80.0476" x="489.3483" y="151.4791">(Beneficiary)</text></g><g class="participant participant-tail" data-participant="BUYER"><rect fill="url(#g1en6icj6q55r31)" height="54.1016" rx="4.1667" ry="4.1667" style="stroke:#304D6D;stroke-width:1.0417;" width="105.0476" x="476.8483" y="552.0833"/><text fill="#FFFFFF" font-family="'Verdana'" font-size="12.5" lengthAdjust="spacing" textLength="67.2546" x="495.7448" y="576.1861">Obuke LLC</text><text fill="#FFFFFF" font-family="'Verdana'" font-size="12.5" lengthAdjust="spacing" textLength="80.0476" x="489.3483" y="590.7369">(Beneficiary)</text></g><g class="participant participant-head" data-participant="TITLE"><rect fill="url(#g1en6icj6q55r31)" height="39.5508" rx="4.1667" ry="4.1667" style="stroke:#304D6D;stroke-width:1.0417;" width="115.6128" x="675.646" y="127.3763"/><text fill="#FFFFFF" font-family="'Verdana'" font-size="12.5" lengthAdjust="spacing" textLength="90.6128" x="688.146" y="151.4791">Title Company</text></g><g class="participant participant-tail" data-participant="TITLE"><rect fill="url(#g1en6icj6q55r31)" height="39.5508" rx="4.1667" ry="4.1667" style="stroke:#304D6D;stroke-width:1.0417;" width="115.6128" x="675.646" y="552.0833"/><text fill="#FFFFFF" font-family="'Verdana'" font-size="12.5" lengthAdjust="spacing" textLength="90.6128" x="688.146" y="576.1861">Title Company</text></g><g class="participant participant-head" data-participant="BANK"><rect fill="url(#g1en6icj6q55r31)" height="39.5508" rx="4.1667" ry="4.1667" style="stroke:#304D6D;stroke-width:1.0417;" width="121.228" x="885.0087" y="127.3763"/><text fill="#FFFFFF" font-family="'Verdana'" font-size="12.5" lengthAdjust="spacing" textLength="96.228" x="897.5087" y="151.4791">Original Lender</text></g><g class="participant participant-tail" data-participant="BANK"><rect fill="url(#g1en6icj6q55r31)" height="39.5508" rx="4.1667" ry="4.1667" style="stroke:#304D6D;stroke-width:1.0417;" width="121.228" x="885.0087" y="552.0833"/><text fill="#FFFFFF" font-family="'Verdana'" font-size="12.5" lengthAdjust="spacing" textLength="96.228" x="897.5087" y="576.1861">Original Lender</text></g><g class="participant participant-head" data-participant="Servicing Co"><rect fill="url(#g1en6icj6q55r31)" height="39.5508" rx="4.1667" ry="4.1667" style="stroke:#304D6D;stroke-width:1.0417;" width="103.186" x="1099.9868" y="127.3763"/><text fill="#FFFFFF" font-family="'Verdana'" font-size="12.5" lengthAdjust="spacing" textLength="78.186" x="1112.4868" y="151.4791">Servicing Co</text></g><g class="participant participant-tail" data-participant="Servicing Co"><rect fill="url(#g1en6icj6q55r31)" height="39.5508" rx="4.1667" ry="4.1667" style="stroke:#304D6D;stroke-width:1.0417;" width="103.186" x="1099.9868" y="552.0833"/><text fill="#FFFFFF" font-family="'Verdana'" font-size="12.5" lengthAdjust="spacing" textLength="78.186" x="1112.4868" y="576.1861">Servicing Co</text></g><g class="participant participant-head" data-participant="Insurance Co"><rect fill="url(#g1en6icj6q55r31)" height="39.5508" rx="4.1667" ry="4.1667" style="stroke:#304D6D;stroke-width:1.0417;" width="106.6772" x="1296.9228" y="127.3763"/><text fill="#FFFFFF" font-family="'Verdana'" font-size="12.5" lengthAdjust="spacing" textLength="81.6772" x="1309.4228" y="151.4791">Insurance Co</text></g><g class="participant participant-tail" data-participant="Insurance Co"><rect fill="url(#g1en6icj6q55r31)" height="39.5508" rx="4.1667" ry="4.1667" style="stroke:#304D6D;stroke-width:1.0417;" width="106.6772" x="1296.9228" y="552.0833"/><text fill="#FFFFFF" font-family="'Verdana'" font-size="12.5" lengthAdjust="spacing" textLength="81.6772" x="1309.4228" y="576.1861">Insurance Co</text></g><rect fill="url(#g1en6icj6q55r32)" height="3.125" rx="4.1667" ry="4.1667" style="stroke:url(#g1en6icj6q55r32);stroke-width:1.0417;" width="1440.0584" x="10.4167" y="204.4108"/><line style="stroke:#333333;stroke-width:1.0417;" x1="10.4167" x2="1450.4751" y1="204.4108" y2="204.4108"/><line style="stroke:#333333;stroke-width:1.0417;" x1="10.4167" x2="1450.4751" y1="207.5358" y2="207.5358"/><rect fill="url(#g1en6icj6q55r32)" height="33.3008" rx="4.1667" ry="4.1667" style="stroke:#333333;stroke-width:2.0833;" width="154.8035" x="653.0441" y="188.8021"/><text fill="#EEEEEE" font-family="'Verdana'" font-size="12.5" font-weight="bold" lengthAdjust="spacing" textLength="125.4517" x="664.5025" y="209.7799">Acquisition Phase</text><g class="message" data-participant-1="Seller" data-participant-2="TRUST"><polygon fill="#446E9B" points="250.9359,262.6953,261.3525,266.862,250.9359,271.0286,255.1025,266.862" style="stroke:#446E9B;stroke-width:1.0417;"/><line style="stroke:#446E9B;stroke-width:3.125;" x1="41.6585" x2="257.1859" y1="266.862" y2="266.862"/><text fill="#FFFFFF" font-family="'Verdana'" font-size="12.5" font-weight="bold" lengthAdjust="spacing" textLength="8.6975" x="54.1585" y="256.6223">1</text><text fill="#FFFFFF" font-family="'Verdana'" font-size="12.5" lengthAdjust="spacing" textLength="163.0798" x="77.4394" y="256.6223">Warranty Deed to Trustee</text></g><path d="M267.7083,241.8945 L267.7083,267.9362 A4.1667,4.1667 0 0 0 271.875,272.1029 L378.125,272.1029 A4.1667,4.1667 0 0 0 382.2917,267.9362 L382.2917,248.1445 L371.875,237.7279 L271.875,237.7279 A4.1667,4.1667 0 0 0 267.7083,241.8945" fill="url(#g1en6icj6q55r33)" style="stroke:#246BAA;stroke-width:1.0417;"/><path d="M371.875,237.7279 L371.875,246.0612 A2.0833,2.0833 0 0 0 373.9583,248.1445 L382.2917,248.1445 L371.875,237.7279" fill="url(#g1en6icj6q55r33)" style="stroke:#246BAA;stroke-width:1.0417;"/><text fill="#FFFFFF" font-family="'Verdana'" font-size="12.5" lengthAdjust="spacing" textLength="83.2458" x="279.1667" y="259.7473">Title Transfer</text><g class="message" data-participant-1="TRUST" data-participant-2="BUYER"><polygon fill="#446E9B" points="516.8722,308.4961,527.2888,312.6628,516.8722,316.8294,521.0388,312.6628" style="stroke:#446E9B;stroke-width:1.0417;"/><line style="stroke:#446E9B;stroke-width:3.125;" x1="263.4359" x2="523.1222" y1="312.6628" y2="312.6628"/><text fill="#FFFFFF" font-family="'Verdana'" font-size="12.5" font-weight="bold" lengthAdjust="spacing" textLength="8.6975" x="275.9359" y="302.4231">2</text><text fill="#FFFFFF" font-family="'Verdana'" font-size="12.5" lengthAdjust="spacing" textLength="207.2388" x="299.2167" y="302.4231">Assignment of Beneficial Interest</text></g><path d="M534.375,287.6953 L534.375,313.737 A4.1667,4.1667 0 0 0 538.5417,317.9036 L663.5417,317.9036 A4.1667,4.1667 0 0 0 667.7083,313.737 L667.7083,293.9453 L657.2917,283.5286 L538.5417,283.5286 A4.1667,4.1667 0 0 0 534.375,287.6953" fill="url(#g1en6icj6q55r33)" style="stroke:#246BAA;stroke-width:1.0417;"/><path d="M657.2917,283.5286 L657.2917,291.862 A2.0833,2.0833 0 0 0 659.375,293.9453 L667.7083,293.9453 L657.2917,283.5286" fill="url(#g1en6icj6q55r33)" style="stroke:#246BAA;stroke-width:1.0417;"/><text fill="#FFFFFF" font-family="'Verdana'" font-size="12.5" lengthAdjust="spacing" textLength="101.532" x="545.8333" y="305.5481">Control Transfer</text><g class="message" data-participant-1="BUYER" data-participant-2="TITLE"><polygon fill="#446E9B" points="720.9524,351.1719,731.369,355.3385,720.9524,359.5052,725.119,355.3385" style="stroke:#446E9B;stroke-width:1.0417;"/><line style="stroke:#446E9B;stroke-width:3.125;" x1="529.3722" x2="727.2024" y1="355.3385" y2="355.3385"/><text fill="#FFFFFF" font-family="'Verdana'" font-size="12.5" font-weight="bold" lengthAdjust="spacing" textLength="8.6975" x="541.8722" y="345.0989">3</text><text fill="#FFFFFF" font-family="'Verdana'" font-size="12.5" lengthAdjust="spacing" textLength="124.0173" x="565.153" y="345.0989">Closing Funds ($9k)</text></g><rect fill="url(#g1en6icj6q55r32)" height="3.125" rx="4.1667" ry="4.1667" style="stroke:url(#g1en6icj6q55r32);stroke-width:1.0417;" width="1440.0584" x="10.4167" y="389.6973"/><line style="stroke:#333333;stroke-width:1.0417;" x1="10.4167" x2="1450.4751" y1="389.6973" y2="389.6973"/><line style="stroke:#333333;stroke-width:1.0417;" x1="10.4167" x2="1450.4751" y1="392.8223" y2="392.8223"/><rect fill="url(#g1en6icj6q55r32)" height="33.3008" rx="4.1667" ry="4.1667" style="stroke:#333333;stroke-width:2.0833;" width="146.5149" x="657.1884" y="374.0885"/><text fill="#EEEEEE" font-family="'Verdana'" font-size="12.5" font-weight="bold" lengthAdjust="spacing" textLength="117.1631" x="668.6467" y="395.0663">Operation Phase</text><g class="message" data-participant-1="BUYER" data-participant-2="Servicing Co"><polygon fill="#446E9B" points="1139.0798,444.8568,1149.4965,449.0234,1139.0798,453.1901,1143.2465,449.0234" style="stroke:#446E9B;stroke-width:1.0417;"/><line style="stroke:#446E9B;stroke-width:3.125;" x1="529.3722" x2="1145.3298" y1="449.0234" y2="449.0234"/><text fill="#FFFFFF" font-family="'Verdana'" font-size="12.5" font-weight="bold" lengthAdjust="spacing" textLength="8.6975" x="541.8722" y="438.7838">4</text><text fill="#FFFFFF" font-family="'Verdana'" font-size="12.5" lengthAdjust="spacing" textLength="109.3079" x="565.153" y="438.7838">Monthly Payment</text></g><g class="message" data-participant-1="Servicing Co" data-participant-2="BANK"><polygon fill="#446E9B" points="957.0811,487.5326,946.6644,491.6992,957.0811,495.8659,952.9144,491.6992" style="stroke:#446E9B;stroke-width:1.0417;"/><line style="stroke:#446E9B;stroke-width:3.125;" x1="950.8311" x2="1150.5381" y1="491.6992" y2="491.6992"/><text fill="#FFFFFF" font-family="'Verdana'" font-size="12.5" font-weight="bold" lengthAdjust="spacing" textLength="8.6975" x="968.5394" y="481.4596">5</text><text fill="#FFFFFF" font-family="'Verdana'" font-size="12.5" lengthAdjust="spacing" textLength="118.9514" x="991.8203" y="481.4596">Mortgage Payment</text></g><path d="M1156.25,466.7318 L1156.25,492.7734 A4.1667,4.1667 0 0 0 1160.4167,496.9401 L1355.2083,496.9401 A4.1667,4.1667 0 0 0 1359.375,492.7734 L1359.375,472.9818 L1348.9583,462.5651 L1160.4167,462.5651 A4.1667,4.1667 0 0 0 1156.25,466.7318" fill="url(#g1en6icj6q55r33)" style="stroke:#246BAA;stroke-width:1.0417;"/><path d="M1348.9583,462.5651 L1348.9583,470.8984 A2.0833,2.0833 0 0 0 1351.0417,472.9818 L1359.375,472.9818 L1348.9583,462.5651" fill="url(#g1en6icj6q55r33)" style="stroke:#246BAA;stroke-width:1.0417;"/><text fill="#FFFFFF" font-family="'Verdana'" font-size="12.5" lengthAdjust="spacing" textLength="171.2646" x="1167.7083" y="484.5846">Loan stays in Seller's name</text><g class="message" data-participant-1="BUYER" data-participant-2="Insurance Co"><polygon fill="#446E9B" points="1337.7614,530.2083,1348.1781,534.375,1337.7614,538.5417,1341.9281,534.375" style="stroke:#446E9B;stroke-width:1.0417;"/><line style="stroke:#446E9B;stroke-width:3.125;" x1="529.3722" x2="1344.0114" y1="534.375" y2="534.375"/><text fill="#FFFFFF" font-family="'Verdana'" font-size="12.5" font-weight="bold" lengthAdjust="spacing" textLength="8.6975" x="541.8722" y="524.1353">6</text><text fill="#FFFFFF" font-family="'Verdana'" font-size="12.5" lengthAdjust="spacing" textLength="196.3745" x="565.153" y="524.1353">Add Trust as Additional Insured</text></g><!--SRC=[NP91Yzim48Nl-XLJiz3iOKzB3msaa7Mp4EfsbyHBAVGoiIUsklOebSO5__kEB1EI72Mz-VJUapv8Ipr1E6557HwCMEa8ifV3y4wm8-nW4mI5bh0V3d-eaeVIGUcH0rPY7MS61t4yz0VonkYUyx2dhjFL2RtOofwG1R82kTQv8KW66A3SlUtBQqMwiYZotxnu8gQZdg0VxoVzqzklpUvQNqvESzVhSapGRLbiRg3UDfOrHK5Saq-izOzlngnMiAx-3ZRO60DUMmm4gvL9vk7XI_88I_Y9NlFA25-9QX2NOX0PTaAW5xIoXEHcAkOOcqZ3IfcSAsKTWcsu9tNbZd0EsC6MXJm5kSBbZiMxxWAOED5MJAd0l7F1SWFF0zS15dUVt-zDEbFHd49L6DheUTvOt7swbDsoSXSaiXvL51jwEP77wtxEFh8z-NyQOHhB5F9TFRVT2AyunfZcHX2xqEOdePS66pehBvCN3Xdqouq1BC-sFmPWxEcYX6pBOT1kAfelNzVpzuelh8lfLQTsLKVrVm00]--></g></svg>