<svg xmlns="http://www.w3.org/2000/svg" xmlns:xlink="http://www.w3.org/1999/xlink" contentStyleType="text/css" data-diagram-type="SEQUENCE" height="750px" preserveAspectRatio="none" style="width:1234px;height:750px;" version="1.1" viewBox="0 0 1234 750" width="1234.375px" zoomAndPan="magnify"><defs><linearGradient id="got173sqmwlt20" x1="50%" x2="50%" y1="0%" y2="100%"><stop offset="0%" stop-color="#7C9AB9"/><stop offset="100%" stop-color="#304D6D"/></linearGradient><linearGradient id="got173sqmwlt21" x1="50%" x2="50%" y1="0%" y2="100%"><stop offset="0%" stop-color="#707070"/><stop offset="100%" stop-color="#242424"/></linearGradient><linearGradient id="got173sqmwlt22" x1="50%" x2="50%" y1="0%" y2="100%"><stop offset="0%" stop-color="#70B8F7"/><stop offset="100%" stop-color="#246BAA"/></linearGradient></defs><g><g><title>Client</title><rect fill="#000000" fill-opacity="0.00000" height="553.8086" width="8.3333" x="37.8855" y="98.9258"/><line style="stroke:#999999;stroke-width:1.0417;stroke-dasharray:5.2083,5.2083;" x1="41.6667" x2="41.6667" y1="98.9258" y2="652.7344"/></g><g><title>Neat Circle</title><rect fill="#000000" fill-opacity="0.00000" height="553.8086" width="8.3333" x="255.9275" y="98.9258"/><line style="stroke:#999999;stroke-width:1.0417;stroke-dasharray:5.2083,5.2083;" x1="259.1298" x2="259.1298" y1="98.9258" y2="652.7344"/></g><g><title>ToriMedia</title><rect fill="#000000" fill-opacity="0.00000" height="553.8086" width="8.3333" x="469.9076" y="98.9258"/><line style="stroke:#999999;stroke-width:1.0417;stroke-dasharray:5.2083,5.2083;" x1="473.5586" x2="473.5586" y1="98.9258" y2="652.7344"/></g><g><title>CXI LLC</title><rect fill="#000000" fill-opacity="0.00000" height="553.8086" width="8.3333" x="669.5964" y="98.9258"/><line style="stroke:#999999;stroke-width:1.0417;stroke-dasharray:5.2083,5.2083;" x1="673.5484" x2="673.5484" y1="98.9258" y2="652.7344"/></g><g><title>PNR Holdings</title><rect fill="#000000" fill-opacity="0.00000" height="553.8086" width="8.3333" x="876.3163" y="98.9258"/><line style="stroke:#999999;stroke-width:1.0417;stroke-dasharray:5.2083,5.2083;" x1="880.2277" x2="880.2277" y1="98.9258" y2="652.7344"/></g><g><title>Obuke LLC</title><rect fill="#000000" fill-opacity="0.00000" height="553.8086" width="8.3333" x="1070.6156" y="98.9258"/><line style="stroke:#999999;stroke-width:1.0417;stroke-dasharray:5.2083,5.2083;" x1="1074.4883" x2="1074.4883" y1="98.9258" y2="652.7344"/></g><g class="participant participant-head" data-participant="Client"><text fill="#FFFFFF" font-family="'Verdana'" font-size="12.5" lengthAdjust="spacing" textLength="36.1877" x="20.8333" y="90.7694">Client</text><ellipse cx="42.0522" cy="19.7917" fill="url(#got173sqmwlt20)" rx="8.3333" ry="8.3333" style="stroke:#304D6D;stroke-width:1.0417;"/><path d="M42.0522,28.125 L42.0522,56.25 M28.5105,36.4583 L55.5939,36.4583 M42.0522,56.25 L28.5105,71.875 M42.0522,56.25 L55.5939,71.875" fill="none" style="stroke:#304D6D;stroke-width:1.0417;"/></g><g class="participant participant-tail" data-participant="Client"><text fill="#FFFFFF" font-family="'Verdana'" font-size="12.5" lengthAdjust="spacing" textLength="36.1877" x="20.8333" y="668.5038">Client</text><ellipse cx="42.0522" cy="686.0352" fill="url(#got173sqmwlt20)" rx="8.3333" ry="8.3333" style="stroke:#304D6D;stroke-width:1.0417;"/><path d="M42.0522,694.3685 L42.0522,722.4935 M28.5105,702.7018 L55.5939,702.7018 M42.0522,722.4935 L28.5105,738.1185 M42.0522,722.4935 L55.5939,738.1185" fill="none" style="stroke:#304D6D;stroke-width:1.0417;"/></g><g class="participant participant-head" data-participant="OP"><rect fill="#FF0000" height="54.1016" rx="4.1667" ry="4.1667" style="stroke:#304D6D;stroke-width:1.0417;" width="145.6787" x="187.2548" y="43.7826"/><text fill="#FFFFFF" font-family="'Verdana'" font-size="12.5" lengthAdjust="spacing" textLength="68.9514" x="225.6185" y="67.8853">Neat Circle</text><text fill="#FFFFFF" font-family="'Verdana'" font-size="12.5" lengthAdjust="spacing" textLength="120.6787" x="199.7548" y="82.4361">(Automation OpCo)</text></g><g class="participant participant-tail" data-participant="OP"><rect fill="#FF0000" height="54.1016" rx="4.1667" ry="4.1667" style="stroke:#304D6D;stroke-width:1.0417;" width="145.6787" x="187.2548" y="651.6927"/><text fill="#FFFFFF" font-family="'Verdana'" font-size="12.5" lengthAdjust="spacing" textLength="68.9514" x="225.6185" y="675.7955">Neat Circle</text><text fill="#FFFFFF" font-family="'Verdana'" font-size="12.5" lengthAdjust="spacing" textLength="120.6787" x="199.7548" y="690.3463">(Automation OpCo)</text></g><g class="participant participant-head" data-participant="IP"><rect fill="#008000" height="54.1016" rx="4.1667" ry="4.1667" style="stroke:#304D6D;stroke-width:1.0417;" width="94.7815" x="426.6836" y="43.7826"/><text fill="#FFFFFF" font-family="'Verdana'" font-size="12.5" lengthAdjust="spacing" textLength="61.438" x="443.3553" y="67.8853">ToriMedia</text><text fill="#FFFFFF" font-family="'Verdana'" font-size="12.5" lengthAdjust="spacing" textLength="69.7815" x="439.1836" y="82.4361">(IP HoldCo)</text></g><g class="participant participant-tail" data-participant="IP"><rect fill="#008000" height="54.1016" rx="4.1667" ry="4.1667" style="stroke:#304D6D;stroke-width:1.0417;" width="94.7815" x="426.6836" y="651.6927"/><text fill="#FFFFFF" font-family="'Verdana'" font-size="12.5" lengthAdjust="spacing" textLength="61.438" x="443.3553" y="675.7955">ToriMedia</text><text fill="#FFFFFF" font-family="'Verdana'" font-size="12.5" lengthAdjust="spacing" textLength="69.7815" x="439.1836" y="690.3463">(IP HoldCo)</text></g><g class="participant participant-head" data-participant="MGMT"><rect fill="#0000FF" height="54.1016" rx="4.1667" ry="4.1667" style="stroke:#304D6D;stroke-width:1.0417;" width="117.0959" x="615.215" y="43.7826"/><text fill="#FFFFFF" font-family="'Verdana'" font-size="12.5" lengthAdjust="spacing" textLength="47.6074" x="649.9593" y="67.8853">CXI LLC</text><text fill="#FFFFFF" font-family="'Verdana'" font-size="12.5" lengthAdjust="spacing" textLength="92.0959" x="627.715" y="82.4361">(Management)</text></g><g class="participant participant-tail" data-participant="MGMT"><rect fill="#0000FF" height="54.1016" rx="4.1667" ry="4.1667" style="stroke:#304D6D;stroke-width:1.0417;" width="117.0959" x="615.215" y="651.6927"/><text fill="#FFFFFF" font-family="'Verdana'" font-size="12.5" lengthAdjust="spacing" textLength="47.6074" x="649.9593" y="675.7955">CXI LLC</text><text fill="#FFFFFF" font-family="'Verdana'" font-size="12.5" lengthAdjust="spacing" textLength="92.0959" x="627.715" y="690.3463">(Management)</text></g><g class="participant participant-head" data-participant="HOLD"><rect fill="#000000" height="54.1016" rx="4.1667" ry="4.1667" style="stroke:#304D6D;stroke-width:1.0417;" width="108.844" x="826.061" y="43.7826"/><text fill="#FFFFFF" font-family="'Verdana'" font-size="12.5" lengthAdjust="spacing" textLength="83.844" x="838.561" y="67.8853">PNR Holdings</text><text fill="#FFFFFF" font-family="'Verdana'" font-size="12.5" lengthAdjust="spacing" textLength="64.8499" x="848.0581" y="82.4361">(Treasury)</text></g><g class="participant participant-tail" data-participant="HOLD"><rect fill="#000000" height="54.1016" rx="4.1667" ry="4.1667" style="stroke:#304D6D;stroke-width:1.0417;" width="108.844" x="826.061" y="651.6927"/><text fill="#FFFFFF" font-family="'Verdana'" font-size="12.5" lengthAdjust="spacing" textLength="83.844" x="838.561" y="675.7955">PNR Holdings</text><text fill="#FFFFFF" font-family="'Verdana'" font-size="12.5" lengthAdjust="spacing" textLength="64.8499" x="848.0581" y="690.3463">(Treasury)</text></g><g class="participant participant-head" data-participant="ASSET"><rect fill="#008000" height="54.1016" rx="4.1667" ry="4.1667" style="stroke:#304D6D;stroke-width:1.0417;" width="92.2546" x="1028.655" y="43.7826"/><text fill="#FFFFFF" font-family="'Verdana'" font-size="12.5" lengthAdjust="spacing" textLength="67.2546" x="1041.155" y="67.8853">Obuke LLC</text><text fill="#FFFFFF" font-family="'Verdana'" font-size="12.5" lengthAdjust="spacing" textLength="50.4333" x="1049.5656" y="82.4361">(Assets)</text></g><g class="participant participant-tail" data-participant="ASSET"><rect fill="#008000" height="54.1016" rx="4.1667" ry="4.1667" style="stroke:#304D6D;stroke-width:1.0417;" width="92.2546" x="1028.655" y="651.6927"/><text fill="#FFFFFF" font-family="'Verdana'" font-size="12.5" lengthAdjust="spacing" textLength="67.2546" x="1041.155" y="675.7955">Obuke LLC</text><text fill="#FFFFFF" font-family="'Verdana'" font-size="12.5" lengthAdjust="spacing" textLength="50.4333" x="1049.5656" y="690.3463">(Assets)</text></g><rect fill="url(#got173sqmwlt21)" height="3.125" rx="4.1667" ry="4.1667" style="stroke:url(#got173sqmwlt21);stroke-width:1.0417;" width="1211.5601" x="10.4167" y="135.3678"/><line style="stroke:#333333;stroke-width:1.0417;" x1="10.4167" x2="1221.9767" y1="135.3678" y2="135.3678"/><line style="stroke:#333333;stroke-width:1.0417;" x1="10.4167" x2="1221.9767" y1="138.4928" y2="138.4928"/><rect fill="url(#got173sqmwlt21)" height="33.3008" rx="4.1667" ry="4.1667" style="stroke:#333333;stroke-width:2.0833;" width="137.1216" x="547.6359" y="119.7591"/><text fill="#EEEEEE" font-family="'Verdana'" font-size="12.5" font-weight="bold" lengthAdjust="spacing" textLength="107.7698" x="559.0942" y="140.7369">Revenue Phase</text><g class="message" data-participant-1="Client" data-participant-2="OP"><polygon fill="#446E9B" points="247.5942,193.6523,258.0109,197.819,247.5942,201.9857,251.7609,197.819" style="stroke:#446E9B;stroke-width:1.0417;"/><line style="stroke:#446E9B;stroke-width:3.125;" x1="42.0522" x2="253.8442" y1="197.819" y2="197.819"/><text fill="#FFFFFF" font-family="'Verdana'" font-size="12.5" font-weight="bold" lengthAdjust="spacing" textLength="8.6975" x="54.5522" y="187.5793">1</text><text fill="#FFFFFF" font-family="'Verdana'" font-size="12.5" lengthAdjust="spacing" textLength="159.3445" x="77.833" y="187.5793">Pay for Service ($10,000)</text></g><path d="M264.5833,172.8516 L264.5833,198.8932 A4.1667,4.1667 0 0 0 268.75,203.0599 L386.4583,203.0599 A4.1667,4.1667 0 0 0 390.625,198.8932 L390.625,179.1016 L380.2083,168.6849 L268.75,168.6849 A4.1667,4.1667 0 0 0 264.5833,172.8516" fill="url(#got173sqmwlt22)" style="stroke:#246BAA;stroke-width:1.0417;"/><path d="M380.2083,168.6849 L380.2083,177.0182 A2.0833,2.0833 0 0 0 382.2917,179.1016 L390.625,179.1016 L380.2083,168.6849" fill="url(#got173sqmwlt22)" style="stroke:#246BAA;stroke-width:1.0417;"/><text fill="#FFFFFF" font-family="'Verdana'" font-size="12.5" lengthAdjust="spacing" textLength="94.4702" x="276.0417" y="190.7043">Gross Revenue</text><rect fill="url(#got173sqmwlt21)" height="3.125" rx="4.1667" ry="4.1667" style="stroke:url(#got173sqmwlt21);stroke-width:1.0417;" width="1211.5601" x="10.4167" y="235.3027"/><line style="stroke:#333333;stroke-width:1.0417;" x1="10.4167" x2="1221.9767" y1="235.3027" y2="235.3027"/><line style="stroke:#333333;stroke-width:1.0417;" x1="10.4167" x2="1221.9767" y1="238.4277" y2="238.4277"/><rect fill="url(#got173sqmwlt21)" height="33.3008" rx="4.1667" ry="4.1667" style="stroke:#333333;stroke-width:2.0833;" width="224.8901" x="503.7516" y="219.694"/><text fill="#EEEEEE" font-family="'Verdana'" font-size="12.5" font-weight="bold" lengthAdjust="spacing" textLength="195.5383" x="515.21" y="240.6718">Expense Phase (The Shield)</text><g class="message" data-participant-1="OP" data-participant-2="IP"><polygon fill="#446E9B" points="461.5743,290.4622,471.991,294.6289,461.5743,298.7956,465.741,294.6289" style="stroke:#446E9B;stroke-width:1.0417;"/><line style="stroke:#446E9B;stroke-width:3.125;" x1="260.0942" x2="467.8243" y1="294.6289" y2="294.6289"/><text fill="#FFFFFF" font-family="'Verdana'" font-size="12.5" font-weight="bold" lengthAdjust="spacing" textLength="8.6975" x="272.5942" y="284.3892">2</text><text fill="#FFFFFF" font-family="'Verdana'" font-size="12.5" lengthAdjust="spacing" textLength="122.4854" x="295.875" y="284.3892">Pay IP Royalty (5%)</text></g><g class="message" data-participant-1="OP" data-participant-2="MGMT"><polygon fill="#446E9B" points="661.263,330.013,671.6797,334.1797,661.263,338.3464,665.4297,334.1797" style="stroke:#446E9B;stroke-width:1.0417;"/><line style="stroke:#446E9B;stroke-width:3.125;" x1="260.0942" x2="667.513" y1="334.1797" y2="334.1797"/><text fill="#FFFFFF" font-family="'Verdana'" font-size="12.5" font-weight="bold" lengthAdjust="spacing" textLength="8.6975" x="272.5942" y="323.94">3</text><text fill="#FFFFFF" font-family="'Verdana'" font-size="12.5" lengthAdjust="spacing" textLength="130.4199" x="295.875" y="323.94">Pay Mgmt Fee (20%)</text></g><g class="message" data-participant-1="OP" data-participant-2="OP"><line style="stroke:#446E9B;stroke-width:3.125;" x1="260.0942" x2="303.8442" y1="373.7305" y2="373.7305"/><line style="stroke:#446E9B;stroke-width:3.125;" x1="303.8442" x2="303.8442" y1="373.7305" y2="387.2721"/><line style="stroke:#446E9B;stroke-width:3.125;" x1="261.1359" x2="303.8442" y1="387.2721" y2="387.2721"/><polygon fill="#446E9B" points="271.5525,383.1055,261.1359,387.2721,271.5525,391.4388,267.3859,387.2721" style="stroke:#446E9B;stroke-width:1.0417;"/><text fill="#FFFFFF" font-family="'Verdana'" font-size="12.5" font-weight="bold" lengthAdjust="spacing" textLength="8.6975" x="272.5942" y="363.4908">4</text><text fill="#FFFFFF" font-family="'Verdana'" font-size="12.5" lengthAdjust="spacing" textLength="127.8015" x="295.875" y="363.4908">Pay Direct Expenses</text></g><rect fill="url(#got173sqmwlt21)" height="3.125" rx="4.1667" ry="4.1667" style="stroke:url(#got173sqmwlt21);stroke-width:1.0417;" width="1211.5601" x="10.4167" y="421.6309"/><line style="stroke:#333333;stroke-width:1.0417;" x1="10.4167" x2="1221.9767" y1="421.6309" y2="421.6309"/><line style="stroke:#333333;stroke-width:1.0417;" x1="10.4167" x2="1221.9767" y1="424.7559" y2="424.7559"/><rect fill="url(#got173sqmwlt21)" height="33.3008" rx="4.1667" ry="4.1667" style="stroke:#333333;stroke-width:2.0833;" width="131.2195" x="550.587" y="406.0221"/><text fill="#EEEEEE" font-family="'Verdana'" font-size="12.5" font-weight="bold" lengthAdjust="spacing" textLength="101.8677" x="562.0453" y="426.9999">Harvest Phase</text><g class="message" data-participant-1="OP" data-participant-2="HOLD"><polygon fill="#446E9B" points="867.983,479.9154,878.3997,484.082,867.983,488.2487,872.1497,484.082" style="stroke:#446E9B;stroke-width:1.0417;"/><line style="stroke:#446E9B;stroke-width:3.125;" x1="260.0942" x2="874.233" y1="484.082" y2="484.082"/><text fill="#FFFFFF" font-family="'Verdana'" font-size="12.5" font-weight="bold" lengthAdjust="spacing" textLength="8.6975" x="272.5942" y="473.8424">5</text><text fill="#FFFFFF" font-family="'Verdana'" font-size="12.5" lengthAdjust="spacing" textLength="215.3992" x="295.875" y="473.8424">Sweep Excess Profit (Cash Sweep)</text></g><path d="M885.4167,459.1146 L885.4167,485.1563 A4.1667,4.1667 0 0 0 889.5833,489.3229 L1014.5833,489.3229 A4.1667,4.1667 0 0 0 1018.75,485.1563 L1018.75,465.3646 L1008.3333,454.9479 L889.5833,454.9479 A4.1667,4.1667 0 0 0 885.4167,459.1146" fill="url(#got173sqmwlt22)" style="stroke:#246BAA;stroke-width:1.0417;"/><path d="M1008.3333,454.9479 L1008.3333,463.2813 A2.0833,2.0833 0 0 0 1010.4167,465.3646 L1018.75,465.3646 L1008.3333,454.9479" fill="url(#got173sqmwlt22)" style="stroke:#246BAA;stroke-width:1.0417;"/><text fill="#FFFFFF" font-family="'Verdana'" font-size="12.5" lengthAdjust="spacing" textLength="101.0437" x="896.875" y="476.9674">Liability Firewall</text><rect fill="url(#got173sqmwlt21)" height="3.125" rx="4.1667" ry="4.1667" style="stroke:url(#got173sqmwlt21);stroke-width:1.0417;" width="1211.5601" x="10.4167" y="521.5658"/><line style="stroke:#333333;stroke-width:1.0417;" x1="10.4167" x2="1221.9767" y1="521.5658" y2="521.5658"/><line style="stroke:#333333;stroke-width:1.0417;" x1="10.4167" x2="1221.9767" y1="524.6908" y2="524.6908"/><rect fill="url(#got173sqmwlt21)" height="33.3008" rx="4.1667" ry="4.1667" style="stroke:#333333;stroke-width:2.0833;" width="156.0852" x="538.1541" y="505.957"/><text fill="#EEEEEE" font-family="'Verdana'" font-size="12.5" font-weight="bold" lengthAdjust="spacing" textLength="126.7334" x="549.6124" y="526.9348">Investment Phase</text><g class="message" data-participant-1="HOLD" data-participant-2="ASSET"><polygon fill="#446E9B" points="1062.2823,576.7253,1072.699,580.8919,1062.2823,585.0586,1066.449,580.8919" style="stroke:#446E9B;stroke-width:1.0417;"/><line style="stroke:#446E9B;stroke-width:3.125;" x1="880.483" x2="1068.5323" y1="580.8919" y2="580.8919"/><text fill="#FFFFFF" font-family="'Verdana'" font-size="12.5" font-weight="bold" lengthAdjust="spacing" textLength="8.6975" x="892.983" y="570.6523">6</text><text fill="#FFFFFF" font-family="'Verdana'" font-size="12.5" lengthAdjust="spacing" textLength="125.415" x="916.2638" y="570.6523">Capital Contribution</text></g><g class="message" data-participant-1="ASSET" data-participant-2="ASSET"><line style="stroke:#446E9B;stroke-width:3.125;" x1="1074.7823" x2="1118.5323" y1="620.4427" y2="620.4427"/><line style="stroke:#446E9B;stroke-width:3.125;" x1="1118.5323" x2="1118.5323" y1="620.4427" y2="633.9844"/><line style="stroke:#446E9B;stroke-width:3.125;" x1="1075.824" x2="1118.5323" y1="633.9844" y2="633.9844"/><polygon fill="#446E9B" points="1086.2406,629.8177,1075.824,633.9844,1086.2406,638.151,1082.074,633.9844" style="stroke:#446E9B;stroke-width:1.0417;"/><text fill="#FFFFFF" font-family="'Verdana'" font-size="12.5" font-weight="bold" lengthAdjust="spacing" textLength="8.6975" x="1087.2823" y="610.203">7</text><text fill="#FFFFFF" font-family="'Verdana'" font-size="12.5" lengthAdjust="spacing" textLength="98.9136" x="1110.5632" y="610.203">Buy Real Estate</text></g><!--SRC=[LP91Rvj048Nl_8fft4fOIYHQgHTBhkGGnxPaOcGuzD3BW2TcbVKksXsSykyxWAd54SryxxrvonUkw4BWQon9On5WmzOqbu9S4639ra6i5HaEQdIiIbMZONXu8sI8bIir_J7XIfWBih863dLivm-07Wufp8vqcdAvTIgXaqAXTYbihJwD-_8vspWYCoNYtplOxsFPJz3WMR8Q7e1aa-GmUzODJOdqxTWBAtFsWkMEq3Uk7Q3jOV_IGLX-JAb3qNpGpMdbFR4VW5MMhVCnMR1Smf6kP1g2j49Fi5m6Gp_mz4jENa2ABRnBQncvgoe9mg_VeySeYkQ1iKpWrBdY1MoSzNwKwcNNVsioVfGDyueWgnJfqxppa395VtVJbwgEjaNDBOG_lyrlqwwFOPwSBmol938_el_ZCToBSbJowETxyoswAtc-tpGWNLaBo3w9QjalIIAdphuhXZ16NmsJwM5xXONIIfAzYiydQjqRx4odtxtTtQD_2d7f6rv0ZBLYr11RmquLJVSx1KFxzwNdffNMP6lj6Pd-0G00]--></g></svg>