<svg xmlns="http://www.w3.org/2000/svg" xmlns:xlink="http://www.w3.org/1999/xlink" contentStyleType="text/css" data-diagram-type="DESCRIPTION" height="439px" preserveAspectRatio="none" style="width:1011px;height:439px;background:#FFFFFF;" version="1.1" viewBox="0 0 1011 439" width="1011px" zoomAndPan="magnify"><defs/><g><!--cluster The Empire (Current State)--><g class="cluster" data-entity="The Empire .Current State." data-source-line="6" data-uid="ent0002" id="cluster_The Empire .Current State."><path d="M280.5,6 L495.916,6 A3.75,3.75 0 0 1 498.416,8.5 L505.416,28.2969 L665.5,28.2969 A2.5,2.5 0 0 1 668,30.7969 L668,187.09 A2.5,2.5 0 0 1 665.5,189.59 L280.5,189.59 A2.5,2.5 0 0 1 278,187.09 L278,8.5 A2.5,2.5 0 0 1 280.5,6" fill="none" style="stroke:#000000;stroke-width:1.5;"/><line style="stroke:#000000;stroke-width:1.5;" x1="278" x2="505.416" y1="28.2969" y2="28.2969"/><text fill="#000000" font-family="sans-serif" font-size="14" font-weight="bold" lengthAdjust="spacing" textLength="214.416" x="282" y="20.9951">The Empire (Current State)</text></g><!--cluster Ohu Labs (The Hedge)--><g class="cluster" data-entity="Ohu Labs .The Hedge." data-source-line="12" data-uid="ent0006" id="cluster_Ohu Labs .The Hedge."><path d="M8.5,215.71 L185.2383,215.71 A3.75,3.75 0 0 1 187.7383,218.21 L194.7383,238.0069 L411.5,238.0069 A2.5,2.5 0 0 1 414,240.5069 L414,300.51 A2.5,2.5 0 0 1 411.5,303.01 L8.5,303.01 A2.5,2.5 0 0 1 6,300.51 L6,218.21 A2.5,2.5 0 0 1 8.5,215.71" fill="none" style="stroke:#000000;stroke-width:1.5;"/><line style="stroke:#000000;stroke-width:1.5;" x1="6" x2="194.7383" y1="238.0069" y2="238.0069"/><text fill="#000000" font-family="sans-serif" font-size="14" font-weight="bold" lengthAdjust="spacing" textLength="175.7383" x="10" y="230.7051">Ohu Labs (The Hedge)</text></g><!--cluster The Disruptors (Future State)--><g class="cluster" data-entity="The Disruptors .Future State." data-source-line="17" data-uid="ent0009" id="cluster_The Disruptors .Future State."><path d="M271.5,329.13 L507.123,329.13 A3.75,3.75 0 0 1 509.623,331.63 L516.623,351.4269 L642.5,351.4269 A2.5,2.5 0 0 1 645,353.9269 L645,430.22 A2.5,2.5 0 0 1 642.5,432.72 L271.5,432.72 A2.5,2.5 0 0 1 269,430.22 L269,331.63 A2.5,2.5 0 0 1 271.5,329.13" fill="none" style="stroke:#000000;stroke-width:1.5;"/><line style="stroke:#000000;stroke-width:1.5;" x1="269" x2="516.623" y1="351.4269" y2="351.4269"/><text fill="#000000" font-family="sans-serif" font-size="14" font-weight="bold" lengthAdjust="spacing" textLength="234.623" x="273" y="344.1251">The Disruptors (Future State)</text></g><!--entity OLD1--><g class="entity" data-entity="OLD1" data-source-line="7" data-uid="ent0003" id="entity_OLD1"><rect fill="#ADD8E6" height="36.2969" rx="2.5" ry="2.5" style="stroke:#181818;stroke-width:0.5;" width="144.5371" x="507.73" y="41"/><text fill="#000000" font-family="sans-serif" font-size="14" lengthAdjust="spacing" textLength="124.5371" x="517.73" y="63.9951">Notroom Services</text></g><!--entity OLD2--><g class="entity" data-entity="OLD2" data-source-line="8" data-uid="ent0004" id="entity_OLD2"><rect fill="#ADD8E6" height="36.2969" rx="2.5" ry="2.5" style="stroke:#181818;stroke-width:0.5;" width="133.5859" x="294.21" y="41"/><text fill="#000000" font-family="sans-serif" font-size="14" lengthAdjust="spacing" textLength="113.5859" x="304.21" y="63.9951">TaxEar Advisory</text></g><!--entity PROFIT--><g class="entity" data-entity="PROFIT" data-source-line="9" data-uid="ent0005" id="entity_PROFIT"><rect fill="#90EE90" height="36.2969" rx="2.5" ry="2.5" style="stroke:#181818;stroke-width:0.5;" width="93.3906" x="304.3" y="137.3"/><text fill="#000000" font-family="sans-serif" font-size="14" lengthAdjust="spacing" textLength="73.3906" x="314.3" y="160.2951">Net Profits</text></g><!--entity LABS--><g class="entity" data-entity="LABS" data-source-line="13" data-uid="ent0007" id="entity_LABS"><rect fill="#FFD700" height="36.2969" rx="2.5" ry="2.5" style="stroke:#181818;stroke-width:0.5;" width="133.2578" x="22.37" y="250.71"/><text fill="#000000" font-family="sans-serif" font-size="14" lengthAdjust="spacing" textLength="113.2578" x="32.37" y="273.7051">Innovation Fund</text></g><!--entity REDTEAM--><g class="entity" data-entity="REDTEAM" data-source-line="14" data-uid="ent0008" id="entity_REDTEAM"><rect fill="#FFA500" height="36.2969" rx="2.5" ry="2.5" style="stroke:#181818;stroke-width:0.5;" width="162.3584" x="235.82" y="250.71"/><text fill="#000000" font-family="sans-serif" font-size="14" lengthAdjust="spacing" textLength="142.3584" x="245.82" y="273.7051">Red Team / Analysis</text></g><!--entity NEW1--><g class="entity" data-entity="NEW1" data-source-line="18" data-uid="ent0010" id="entity_NEW1"><rect fill="#FFC0CB" height="52.5938" rx="2.5" ry="2.5" style="stroke:#181818;stroke-width:0.5;" width="153.8818" x="475.06" y="364.13"/><text fill="#000000" font-family="sans-serif" font-size="14" lengthAdjust="spacing" textLength="133.8818" x="485.06" y="387.1251">Blockchain Identity</text><text fill="#000000" font-family="sans-serif" font-size="14" lengthAdjust="spacing" textLength="102.1768" x="485.06" y="403.422">(Kills Notaries)</text></g><!--entity NEW2--><g class="entity" data-entity="NEW2" data-source-line="19" data-uid="ent0011" id="entity_NEW2"><rect fill="#FFC0CB" height="52.5938" rx="2.5" ry="2.5" style="stroke:#181818;stroke-width:0.5;" width="109.4619" x="285.27" y="364.13"/><text fill="#000000" font-family="sans-serif" font-size="14" lengthAdjust="spacing" textLength="89.4619" x="295.27" y="387.1251">AI Tax Agent</text><text fill="#000000" font-family="sans-serif" font-size="14" lengthAdjust="spacing" textLength="78.6064" x="295.27" y="403.422">(Kills CPAs)</text></g><g class="entity" data-entity="GMN22" data-source-line="37" data-uid="ent0023" id="entity_GMN22"><path d="M801.82,233.59 L801.82,304.1213 L1004.1789,304.1213 L1004.1789,243.59 L994.1789,233.59 L801.82,233.59" fill="#FEFFDD" style="stroke:#181818;stroke-width:0.5;"/><path d="M994.1789,233.59 L994.1789,243.59 L1004.1789,243.59 L994.1789,233.59" fill="#FEFFDD" style="stroke:#181818;stroke-width:1;"/><text fill="#000000" font-family="sans-serif" font-size="13" font-weight="bold" lengthAdjust="spacing" textLength="139.5342" x="807.82" y="250.6569">The Survival Logic:</text><text fill="#000000" font-family="sans-serif" font-size="13" lengthAdjust="spacing" textLength="159.4722" x="807.82" y="265.7897">If New Tech kills Old Biz,</text><text fill="#000000" font-family="sans-serif" font-size="13" lengthAdjust="spacing" textLength="181.3589" x="807.82" y="280.9225">Empire owns the New Tech.</text><text fill="#000000" font-family="sans-serif" font-size="13" lengthAdjust="spacing" textLength="134.2021" x="807.82" y="296.0553">Wealth is preserved.</text></g><!--link OLD1 to PROFIT--><g class="link" data-entity-1="OLD1" data-entity-2="PROFIT" data-source-line="23" data-uid="lnk12" id="link_OLD1_PROFIT"><path d="M548.13,77.77 C548.13,105.83 548.13,155.72 548.13,155.72 C548.13,155.72 462.28,155.72 403.97,155.72" fill="none" id="OLD1-to-PROFIT" style="stroke:#181818;stroke-width:1;"/><polygon fill="#181818" points="397.97,155.72,406.97,159.72,402.97,155.72,406.97,151.72,397.97,155.72" style="stroke:#181818;stroke-width:1;"/></g><!--link OLD2 to PROFIT--><g class="link" data-entity-1="OLD2" data-entity-2="PROFIT" data-source-line="24" data-uid="lnk13" id="link_OLD2_PROFIT"><path d="M351,77.72 C351,94.77 351,113.9 351,130.94" fill="none" id="OLD2-to-PROFIT" style="stroke:#181818;stroke-width:1;"/><polygon fill="#181818" points="351,136.94,355,127.94,351,131.94,347,127.94,351,136.94" style="stroke:#181818;stroke-width:1;"/></g><!--link PROFIT to LABS--><g class="link" data-entity-1="PROFIT" data-entity-2="LABS" data-source-line="25" data-uid="lnk14" id="link_PROFIT_LABS"><path d="M303.86,155.72 C228.43,155.72 89,155.72 89,155.72 C89,155.72 89,212.37 89,244.43" fill="none" id="PROFIT-to-LABS" style="stroke:#181818;stroke-width:1;"/><polygon fill="#181818" points="89,250.43,93,241.43,89,245.43,85,241.43,89,250.43" style="stroke:#181818;stroke-width:1;"/><text fill="#000000" font-family="sans-serif" font-size="13" lengthAdjust="spacing" textLength="97.1128" x="51.07" y="151.7869">10% Allocation</text></g><!--link LABS to REDTEAM--><g class="link" data-entity-1="LABS" data-entity-2="REDTEAM" data-source-line="28" data-uid="lnk15" id="link_LABS_REDTEAM"><path d="M155.87,269.72 C180.83,269.72 203.46,269.72 229.59,269.72" fill="none" id="LABS-to-REDTEAM" style="stroke:#181818;stroke-width:1;"/><polygon fill="#181818" points="235.59,269.72,226.59,265.72,230.59,269.72,226.59,273.72,235.59,269.72" style="stroke:#181818;stroke-width:1;"/><text fill="#000000" font-family="sans-serif" font-size="13" lengthAdjust="spacing" textLength="134.5005" x="128.73" y="282.7869">Investment Mandate</text></g><!--link REDTEAM to NEW1--><g class="link" data-entity-1="REDTEAM" data-entity-2="NEW1" data-source-line="29" data-uid="lnk16" id="link_REDTEAM_NEW1"><path d="M398.58,269.72 C443.97,269.72 491.4,269.72 491.4,269.72 C491.4,269.72 491.4,322.08 491.4,357.64" fill="none" id="REDTEAM-to-NEW1" style="stroke:#181818;stroke-width:1;"/><polygon fill="#181818" points="491.4,363.64,495.4,354.64,491.4,358.64,487.4,354.64,491.4,363.64" style="stroke:#181818;stroke-width:1;"/><text fill="#000000" font-family="sans-serif" font-size="13" lengthAdjust="spacing" textLength="56.2593" x="434.4" y="266.3369">Acquires</text></g><!--link REDTEAM to NEW2--><g class="link" data-entity-1="REDTEAM" data-entity-2="NEW2" data-source-line="30" data-uid="lnk17" id="link_REDTEAM_NEW2"><path d="M340,287.32 C340,307.65 340,334.5 340,357.65" fill="none" id="REDTEAM-to-NEW2" style="stroke:#181818;stroke-width:1;"/><polygon fill="#181818" points="340,363.65,344,354.65,340,358.65,336,354.65,340,363.65" style="stroke:#181818;stroke-width:1;"/><text fill="#000000" font-family="sans-serif" font-size="13" lengthAdjust="spacing" textLength="56.2593" x="283" y="321.5569">Acquires</text></g><!--reverse link OLD1 to NEW1--><g class="link" data-entity-1="OLD1" data-entity-2="NEW1" data-source-line="33" data-uid="lnk19" id="link_OLD1_NEW1"><path d="M588.54,83.43 C588.54,138.77 588.54,298.67 588.54,363.78" fill="none" id="OLD1-backto-NEW1" style="stroke:#181818;stroke-width:1;stroke-dasharray:7,7;"/><polygon fill="#181818" points="588.54,77.43,584.54,86.43,588.54,82.43,592.54,86.43,588.54,77.43" style="stroke:#181818;stroke-width:1;"/><text fill="#FF0000" font-family="sans-serif" font-size="13" lengthAdjust="spacing" textLength="65.5967" x="522.54" y="216.6669">Threatens</text></g><!--reverse link OLD2 to NEW2--><g class="link" data-entity-1="OLD2" data-entity-2="NEW2" data-source-line="34" data-uid="lnk21" id="link_OLD2_NEW2"><path d="M412.99,83.45 C412.99,152.96 412.99,390.72 412.99,390.72 C412.99,390.72 405.31,390.72 394.94,390.72" fill="none" id="OLD2-backto-NEW2" style="stroke:#181818;stroke-width:1;stroke-dasharray:7,7;"/><polygon fill="#181818" points="412.99,77.45,408.99,86.45,412.99,82.45,416.99,86.45,412.99,77.45" style="stroke:#181818;stroke-width:1;"/><text fill="#FF0000" font-family="sans-serif" font-size="13" lengthAdjust="spacing" textLength="65.5967" x="346.99" y="239.1769">Threatens</text></g><!--link LABS to GMN22--><g class="link" data-entity-1="LABS" data-entity-2="GMN22" data-source-line="37" data-uid="lnk24" id="link_LABS_GMN22"><path d="M89,287.22 C89,291.94 89,295.72 89,295.72 C89,295.72 583.35,295.72 801.55,295.72" fill="none" id="LABS-GMN22" style="stroke:#181818;stroke-width:1;stroke-dasharray:7,7;"/></g><!--SRC=[XPDDRzf048Rl-oj6GLK1DIJXK5LMX6I-KbG745ZAeUrXQm_soikkkxk6qAh_lUCrf6vwg6-UUUTZdvcnXL0bDtmFKYXqfn916vThPbySIgTeiOGFjosZuQgeZU_RnaJlIwrGkQqxIGI3YUCgayXOoPE2PmXNSOumsvV287GdbJ4aXgtZ3djNy9C1VP-NsXcjzx15Sn09sg_0BQoYwHrq8f7bRYmhR9GnVvvn0s5w45QRqqKu_4UuH0ThetV2DTdMczLy4Pzb3mPHiL-j9bTv1H7_Pg5Rj_iHqwpLta8fVU1EQ0NpIgK-NnIEjz1vq39jD1jC8KOYSWEXul9aHLDtCvl6i_0HEYlYb-5VHUjIKs5DLJfjgFIySXLHUWLdB7LI93aN2XOfmHFkz4LrFmafBH0uRWJQdg-rd3qHiRLGHHCPBe1uGPXHr4l8P1t-aG_FSkhgBKoupM4kzH6c-gYOvtzzFJgZOnvpw_zCjBPu607StRw1K5AxdbMTiaskJXmcHblBl9xYBd024XxGkdsz6uzSfGI0NPnr0V-oWCA_LxH7zhLlsFPHsHfid1la3hfJxHpD9g9Tjptc4msgmQXPhm3k4osr2GoceoO2bRs_ySOHywalwk7_r4nfHoTGBnZedOT2S-Ztwsws5MtsWKk8T2QIeDydps87IppIrYGv57usAvd2MFnuHyxpnT0WB3XAS54EoFU4NBeSX8MI7amtW-c0eKgXRk0t]--></g></svg>