<svg xmlns="http://www.w3.org/2000/svg" xmlns:xlink="http://www.w3.org/1999/xlink" contentStyleType="text/css" data-diagram-type="SEQUENCE" height="395px" preserveAspectRatio="none" style="width:1215px;height:395px;background:#FFFFFF;" version="1.1" viewBox="0 0 1215 395" width="1215px" zoomAndPan="magnify"><defs/><g><g><title>Trust Protector</title><rect fill="#FFFFFF" height="263.0625" style="stroke:#181818;stroke-width:1;" width="10" x="87.6436" y="62.5938"/></g><g><title>Dead Man.s Switch</title><rect fill="#FFFFFF" height="272.0625" style="stroke:#181818;stroke-width:1;" width="10" x="299.981" y="62.5938"/></g><g><title>Operations Team</title><rect fill="#FFFFFF" height="83.2656" style="stroke:#181818;stroke-width:1;" width="10" x="935.5342" y="251.3906"/></g><g><title>Trust Protector</title><rect fill="#000000" fill-opacity="0.00000" height="291.0625" width="8" x="88.6436" y="52.5938"/><line style="stroke:#181818;stroke-width:0.5;stroke-dasharray:5,5;" x1="92" x2="92" y1="52.5938" y2="343.6563"/></g><g><title>Dead Man.s Switch</title><rect fill="#000000" fill-opacity="0.00000" height="291.0625" width="8" x="300.981" y="52.5938"/><line style="stroke:#181818;stroke-width:0.5;stroke-dasharray:5,5;" x1="304.6211" x2="304.6211" y1="52.5938" y2="343.6563"/></g><g><title>The Digital Vault</title><rect fill="#000000" fill-opacity="0.00000" height="291.0625" width="8" x="518.2144" y="52.5938"/><line style="stroke:#181818;stroke-width:0.5;stroke-dasharray:5,5;" x1="521.8389" x2="521.8389" y1="52.5938" y2="343.6563"/></g><g><title>Mercenary Devs</title><rect fill="#000000" fill-opacity="0.00000" height="291.0625" width="8" x="711.3477" y="52.5938"/><line style="stroke:#181818;stroke-width:0.5;stroke-dasharray:5,5;" x1="714.5103" x2="714.5103" y1="52.5938" y2="343.6563"/></g><g><title>Operations Team</title><rect fill="#000000" fill-opacity="0.00000" height="291.0625" width="8" x="936.5342" y="52.5938"/><line style="stroke:#181818;stroke-width:0.5;stroke-dasharray:5,5;" x1="940.1353" x2="940.1353" y1="52.5938" y2="343.6563"/></g><g class="participant participant-head" data-participant="PROT"><rect fill="#E2E2F0" height="46.5938" rx="2.5" ry="2.5" style="stroke:#181818;stroke-width:0.5;" width="175.2871" x="5" y="5"/><text fill="#000000" font-family="sans-serif" font-size="14" lengthAdjust="spacing" textLength="104.7881" x="40.2495" y="24.9951">Trust Protector</text><text fill="#000000" font-family="sans-serif" font-size="14" lengthAdjust="spacing" textLength="161.2871" x="12" y="41.292">(Commonwealth Trust)</text></g><g class="participant participant-tail" data-participant="PROT"><rect fill="#E2E2F0" height="46.5938" rx="2.5" ry="2.5" style="stroke:#181818;stroke-width:0.5;" width="175.2871" x="5" y="342.6563"/><text fill="#000000" font-family="sans-serif" font-size="14" lengthAdjust="spacing" textLength="104.7881" x="40.2495" y="362.6514">Trust Protector</text><text fill="#000000" font-family="sans-serif" font-size="14" lengthAdjust="spacing" textLength="161.2871" x="12" y="378.9482">(Commonwealth Trust)</text></g><g class="participant participant-head" data-participant="DMS"><rect fill="#E2E2F0" height="46.5938" rx="2.5" ry="2.5" style="stroke:#181818;stroke-width:0.5;" width="146.7197" x="231.6211" y="5"/><text fill="#000000" font-family="sans-serif" font-size="14" lengthAdjust="spacing" textLength="132.7197" x="238.6211" y="24.9951">Dead Man's Switch</text><text fill="#000000" font-family="sans-serif" font-size="14" lengthAdjust="spacing" textLength="120.2988" x="244.8315" y="41.292">(Google Inactive)</text></g><g class="participant participant-tail" data-participant="DMS"><rect fill="#E2E2F0" height="46.5938" rx="2.5" ry="2.5" style="stroke:#181818;stroke-width:0.5;" width="146.7197" x="231.6211" y="342.6563"/><text fill="#000000" font-family="sans-serif" font-size="14" lengthAdjust="spacing" textLength="132.7197" x="238.6211" y="362.6514">Dead Man's Switch</text><text fill="#000000" font-family="sans-serif" font-size="14" lengthAdjust="spacing" textLength="120.2988" x="244.8315" y="378.9482">(Google Inactive)</text></g><g class="participant participant-head" data-participant="VAULT"><rect fill="#E2E2F0" height="46.5938" rx="2.5" ry="2.5" style="stroke:#181818;stroke-width:0.5;" width="130.751" x="456.8389" y="5"/><text fill="#000000" font-family="sans-serif" font-size="14" lengthAdjust="spacing" textLength="116.751" x="463.8389" y="24.9951">The Digital Vault</text><text fill="#000000" font-family="sans-serif" font-size="14" lengthAdjust="spacing" textLength="108.8145" x="467.8071" y="41.292">(Synology/NAS)</text></g><g class="participant participant-tail" data-participant="VAULT"><rect fill="#E2E2F0" height="46.5938" rx="2.5" ry="2.5" style="stroke:#181818;stroke-width:0.5;" width="130.751" x="456.8389" y="342.6563"/><text fill="#000000" font-family="sans-serif" font-size="14" lengthAdjust="spacing" textLength="116.751" x="463.8389" y="362.6514">The Digital Vault</text><text fill="#000000" font-family="sans-serif" font-size="14" lengthAdjust="spacing" textLength="108.8145" x="467.8071" y="378.9482">(Synology/NAS)</text></g><g class="participant participant-head" data-participant="DEVS"><rect fill="#E2E2F0" height="46.5938" rx="2.5" ry="2.5" style="stroke:#181818;stroke-width:0.5;" width="127.6748" x="651.5103" y="5"/><text fill="#000000" font-family="sans-serif" font-size="14" lengthAdjust="spacing" textLength="113.6748" x="658.5103" y="24.9951">Mercenary Devs</text><text fill="#000000" font-family="sans-serif" font-size="14" lengthAdjust="spacing" textLength="95.7852" x="667.4551" y="41.292">(Toptal/XRay)</text></g><g class="participant participant-tail" data-participant="DEVS"><rect fill="#E2E2F0" height="46.5938" rx="2.5" ry="2.5" style="stroke:#181818;stroke-width:0.5;" width="127.6748" x="651.5103" y="342.6563"/><text fill="#000000" font-family="sans-serif" font-size="14" lengthAdjust="spacing" textLength="113.6748" x="658.5103" y="362.6514">Mercenary Devs</text><text fill="#000000" font-family="sans-serif" font-size="14" lengthAdjust="spacing" textLength="95.7852" x="667.4551" y="378.9482">(Toptal/XRay)</text></g><g class="participant participant-head" data-participant="OPS"><rect fill="#E2E2F0" height="46.5938" rx="2.5" ry="2.5" style="stroke:#181818;stroke-width:0.5;" width="134.7979" x="873.1353" y="5"/><text fill="#000000" font-family="sans-serif" font-size="14" lengthAdjust="spacing" textLength="120.7979" x="880.1353" y="24.9951">Operations Team</text><text fill="#000000" font-family="sans-serif" font-size="14" lengthAdjust="spacing" textLength="114.2627" x="883.4028" y="41.292">(EOS Integrator)</text></g><g class="participant participant-tail" data-participant="OPS"><rect fill="#E2E2F0" height="46.5938" rx="2.5" ry="2.5" style="stroke:#181818;stroke-width:0.5;" width="134.7979" x="873.1353" y="342.6563"/><text fill="#000000" font-family="sans-serif" font-size="14" lengthAdjust="spacing" textLength="120.7979" x="880.1353" y="362.6514">Operations Team</text><text fill="#000000" font-family="sans-serif" font-size="14" lengthAdjust="spacing" textLength="114.2627" x="883.4028" y="378.9482">(EOS Integrator)</text></g><g><title>Trust Protector</title><rect fill="#FFFFFF" height="263.0625" style="stroke:#181818;stroke-width:1;" width="10" x="87.6436" y="62.5938"/></g><g><title>Dead Man.s Switch</title><rect fill="#FFFFFF" height="272.0625" style="stroke:#181818;stroke-width:1;" width="10" x="299.981" y="62.5938"/></g><g><title>Operations Team</title><rect fill="#FFFFFF" height="83.2656" style="stroke:#181818;stroke-width:1;" width="10" x="935.5342" y="251.3906"/></g><g class="message" data-participant-1="DMS" data-participant-2="PROT"><polygon fill="#181818" points="108.6436,82.7266,98.6436,86.7266,108.6436,90.7266,104.6436,86.7266" style="stroke:#181818;stroke-width:1;"/><line style="stroke:#181818;stroke-width:1;" x1="102.6436" x2="298.981" y1="86.7266" y2="86.7266"/><text fill="#000000" font-family="sans-serif" font-size="13" lengthAdjust="spacing" textLength="178.3374" x="114.6436" y="81.6606">1. Verification of Incapacity</text></g><path d="M314,67.5938 L314,92.5938 L538,92.5938 L538,77.5938 L528,67.5938 L314,67.5938" fill="#FEFFDD" style="stroke:#181818;stroke-width:0.5;"/><path d="M528,67.5938 L528,77.5938 L538,77.5938 L528,67.5938" fill="#FEFFDD" style="stroke:#181818;stroke-width:0.5;"/><text fill="#000000" font-family="sans-serif" font-size="13" lengthAdjust="spacing" textLength="203.1123" x="320" y="84.6606">Triggered after 30 days silence</text><g class="message" data-participant-1="DMS" data-participant-2="DMS"><line style="stroke:#181818;stroke-width:1;" x1="309.981" x2="351.981" y1="118.8594" y2="118.8594"/><line style="stroke:#181818;stroke-width:1;" x1="351.981" x2="351.981" y1="118.8594" y2="131.8594"/><line style="stroke:#181818;stroke-width:1;" x1="310.981" x2="351.981" y1="131.8594" y2="131.8594"/><polygon fill="#181818" points="320.981,127.8594,310.981,131.8594,320.981,135.8594,316.981,131.8594" style="stroke:#181818;stroke-width:1;"/><text fill="#000000" font-family="sans-serif" font-size="13" lengthAdjust="spacing" textLength="156.749" x="316.981" y="113.7935">2. Release "Master Key"</text></g><g class="message" data-participant-1="DMS" data-participant-2="VAULT"><polygon fill="#181818" points="510.2144,156.9922,520.2144,160.9922,510.2144,164.9922,514.2144,160.9922" style="stroke:#181818;stroke-width:1;"/><line style="stroke:#181818;stroke-width:1;" x1="309.981" x2="516.2144" y1="160.9922" y2="160.9922"/><text fill="#000000" font-family="sans-serif" font-size="13" lengthAdjust="spacing" textLength="188.2334" x="316.981" y="155.9263">3. Unlock Critical Credentials</text></g><g class="message" data-participant-1="DMS" data-participant-2="DEVS"><polygon fill="#181818" points="703.3477,186.125,713.3477,190.125,703.3477,194.125,707.3477,190.125" style="stroke:#181818;stroke-width:1;"/><line style="stroke:#181818;stroke-width:1;" x1="309.981" x2="709.3477" y1="190.125" y2="190.125"/><text fill="#000000" font-family="sans-serif" font-size="13" lengthAdjust="spacing" textLength="163.1411" x="316.981" y="185.0591">4. Send "Code Red" Alert</text></g><g class="message" data-participant-1="DEVS" data-participant-2="VAULT"><polygon fill="#181818" points="533.2144,215.2578,523.2144,219.2578,533.2144,223.2578,529.2144,219.2578" style="stroke:#181818;stroke-width:1;"/><line style="stroke:#181818;stroke-width:1;" x1="527.2144" x2="714.3477" y1="219.2578" y2="219.2578"/><text fill="#000000" font-family="sans-serif" font-size="13" lengthAdjust="spacing" textLength="169.1333" x="539.2144" y="214.1919">5. Access Read-Only Docs</text></g><g class="message" data-participant-1="DEVS" data-participant-2="OPS"><polygon fill="#181818" points="923.5342,247.3906,933.5342,251.3906,923.5342,255.3906,927.5342,251.3906" style="stroke:#181818;stroke-width:1;"/><line style="stroke:#181818;stroke-width:1;" x1="715.3477" x2="929.5342" y1="251.3906" y2="251.3906"/><text fill="#000000" font-family="sans-serif" font-size="13" lengthAdjust="spacing" textLength="172.2754" x="722.3477" y="246.3247">6. Establish Admin Control</text></g><path d="M950,232.2578 L950,257.2578 L1208,257.2578 L1208,242.2578 L1198,232.2578 L950,232.2578" fill="#FEFFDD" style="stroke:#181818;stroke-width:0.5;"/><path d="M1198,232.2578 L1198,242.2578 L1208,242.2578 L1198,232.2578" fill="#FEFFDD" style="stroke:#181818;stroke-width:0.5;"/><text fill="#000000" font-family="sans-serif" font-size="13" lengthAdjust="spacing" textLength="237.7578" x="956" y="249.3247">"Keep the Lights On" Protocol Active</text><g class="message" data-participant-1="DEVS" data-participant-2="DEVS"><line style="stroke:#181818;stroke-width:1;" x1="715.3477" x2="757.3477" y1="283.5234" y2="283.5234"/><line style="stroke:#181818;stroke-width:1;" x1="757.3477" x2="757.3477" y1="283.5234" y2="296.5234"/><line style="stroke:#181818;stroke-width:1;" x1="716.3477" x2="757.3477" y1="296.5234" y2="296.5234"/><polygon fill="#181818" points="726.3477,292.5234,716.3477,296.5234,726.3477,300.5234,722.3477,296.5234" style="stroke:#181818;stroke-width:1;"/><text fill="#000000" font-family="sans-serif" font-size="13" lengthAdjust="spacing" textLength="211.1865" x="722.3477" y="278.4575">7. Freeze Non-Essential Updates</text></g><g class="message" data-participant-1="OPS" data-participant-2="PROT"><polygon fill="#181818" points="103.6436,321.6563,93.6436,325.6563,103.6436,329.6563,99.6436,325.6563" style="stroke:#181818;stroke-width:1;"/><line style="stroke:#181818;stroke-width:1;" x1="97.6436" x2="934.5342" y1="325.6563" y2="325.6563"/><text fill="#000000" font-family="sans-serif" font-size="13" lengthAdjust="spacing" textLength="177.9375" x="109.6436" y="320.5903">8. Confirm System Stability</text></g><!--SRC=[NL9BRzim3BxxLn2-R3l4tTOz2Xy664us36tg87Q27dRX9COMfaY6nBRmVlrekslINYnOvFVWH_KOs2ZJesD8ct0V6JR1CodsuPTxM_hZqRj7GiiTJELtAM24pRPgaluSkoJKi4Rt9aBzQ5XrWlxXVMi9VZfKR1veXYxNzKjaqn4iJMiOBUpnth8Wwy5vwzlXuhQePzY-sDsyabnJKEGm3B2aXoYenlT2Sd6tnU59QxL_9LRr592DTn4QmgE0LbKj3fbQkVTXnbMREaacqyWq3_lyD_fFv0EBRrCbXmyPx2cOWr4JC_Y342hiKHaU4YTfGZ1jnxaaQDgM0cd00rE0o_UWSOWGZIMdw9bNZXm-Ph0bInX9HiKuzb_JaFxlcGB9uJA3dRDU_O4o69bJGYn5W1mRjF74A4day2c3cfo6jFIQX5sdK5WAd8pbCzBF6HHAKOpIWtfHEIiPUpNIFJLAGZbyoM0L6NzR4piezD4uABtZuEqfhZ7AymZIQw8UM7P-Crv8rYwTdfnNtehg-51EChFjhnby3qH_2MwzMwnYdAU3NQz5Gbo9o6aTLzdeuc324Uf1OfD3F1exBaFJYwt-0m00]--></g></svg>