<svg xmlns="http://www.w3.org/2000/svg" xmlns:xlink="http://www.w3.org/1999/xlink" contentStyleType="text/css" data-diagram-type="DESCRIPTION" height="413px" preserveAspectRatio="none" style="width:875px;height:413px;background:#FFFFFF;" version="1.1" viewBox="0 0 875 413" width="875px" zoomAndPan="magnify"><defs/><g><!--cluster The Public Internet (The Wild)--><g class="cluster" data-entity="The Public Internet .The Wild." data-source-line="3" data-uid="ent0002" id="cluster_The Public Internet .The Wild."><rect fill="none" height="97.3" rx="2.5" ry="2.5" style="stroke:#181818;stroke-width:1;" width="442" x="69.85" y="7"/><text fill="#000000" font-family="sans-serif" font-size="14" font-weight="bold" lengthAdjust="spacing" textLength="237.9453" x="171.8773" y="21.9951">The Public Internet (The Wild)</text></g><!--cluster The Iron Dome (Defense Layer)--><g class="cluster" data-entity="The Iron Dome .Defense Layer." data-source-line="9" data-uid="ent0006" id="cluster_The Iron Dome .Defense Layer."><rect fill="none" height="97.3" rx="2.5" ry="2.5" style="stroke:#181818;stroke-width:1;" width="556" x="143.85" y="153.3"/><text fill="#000000" font-family="sans-serif" font-size="14" font-weight="bold" lengthAdjust="spacing" textLength="246.7158" x="298.4921" y="168.2951">The Iron Dome (Defense Layer)</text></g><!--cluster The Core (Protected)--><g class="cluster" data-entity="The Core .Protected." data-source-line="15" data-uid="ent0010" id="cluster_The Core .Protected."><rect fill="none" height="97.3" rx="2.5" ry="2.5" style="stroke:#181818;stroke-width:1;" width="383" x="259.85" y="309.71"/><text fill="#000000" font-family="sans-serif" font-size="14" font-weight="bold" lengthAdjust="spacing" textLength="165.3271" x="368.6864" y="324.7051">The Core (Protected)</text></g><!--entity SOC--><g class="entity" data-entity="SOC" data-source-line="4" data-uid="ent0003" id="entity_SOC"><path d="M251.0227,51.1028 C254.378,44.3976 259.8091,44.3506 264.4425,49.6773 C268.2188,43.4769 274.017,43.3459 277.1442,50.3039 C280.3845,42.8217 284.3728,42.5623 289.9845,47.9352 C294.8695,42.1 299.0299,41.3218 303.8105,48.0501 C308.2974,42.5366 312.5262,44.2218 315.3734,49.7649 C318.7627,44.3297 324.2363,44.4589 327.5006,49.904 C331.7021,43.4264 335.8018,44.0174 340.2147,49.6827 C344.4755,44.2062 350.9108,44.3072 354.4711,50.536 C363.0139,54.3255 364.3165,61.5423 355.8621,66.7868 C362.5007,72.0462 361.259,78.0385 353.6224,81.0574 C350.6238,87.5214 346.1502,86.9988 341.9676,82.2928 C338.4707,89.8024 333.9263,90.962 328.2587,84.4089 C325.1862,90.6174 321.0923,91.3443 316.5929,85.8286 C314.2114,92.4777 307.8612,94.3742 303.4189,87.8969 C299.1031,93.3462 293.8673,94.1848 290.1182,87.2866 C285.0782,92.3287 279.4056,90.32 277.2071,84.045 C272.5317,88.8383 268.2145,88.812 264.6174,82.7899 C261.1009,88.6774 255.3785,88.719 252.3289,82.323 C241.9173,81.1094 238.0498,75.519 243.4417,65.8035 C238.5996,56.9572 241.4481,52.5145 251.0227,51.1028" fill="#F1F1F1" style="stroke:#181818;stroke-width:0.5;"/><text fill="#000000" font-family="sans-serif" font-size="14" lengthAdjust="spacing" textLength="88.0059" x="257.85" y="69.9951">Social Media</text></g><!--entity NEWS--><g class="entity" data-entity="NEWS" data-source-line="5" data-uid="ent0004" id="entity_NEWS"><path d="M95.0447,51.7214 C99.0395,44.9848 102.9009,44.7315 107.8743,50.736 C110.1157,44.3142 116.0306,42.7353 120.2313,48.7964 C124.4132,42.165 129.558,42.9069 133.9721,48.5361 C137.9404,40.7526 143.3413,41.2156 148.775,46.9288 C153.8483,41.9603 157.5414,42.1236 160.7163,48.8648 C165.9917,42.8622 172.0449,42.5367 175.79,50.5148 C178.6403,45.1484 184.399,44.8159 187.5625,50.171 C191.9212,43.2197 198.6216,44.8015 201.6566,51.5343 C209.8336,54.529 209.4555,59.8141 204.044,65.1852 C210.5545,70.2348 209.5478,77.855 201.4466,80.4123 C198.9959,89.1582 193.3168,89.8398 187.0897,84.1743 C184.1063,89.1656 178.6567,89.2796 175.7735,84.0633 C172.9966,92.5847 167.0287,93.0366 161.0842,87.3347 C157.8325,94.5648 152.6013,94.2468 148.0887,88.6079 C143.9021,93.7894 137.6921,93.1179 134.6584,87.2113 C129.352,92.0157 125.1285,92.468 121.2887,85.5402 C115.5048,91.851 110.6854,89.9895 106.8589,83.3578 C102.2756,87.8675 97.2553,86.9596 94.5109,81.1562 C86.3109,77.7923 84.6256,73.5272 91.202,66.7657 C85.5096,61.111 86.6434,53.7761 95.0447,51.7214" fill="#F1F1F1" style="stroke:#181818;stroke-width:0.5;"/><text fill="#000000" font-family="sans-serif" font-size="14" lengthAdjust="spacing" textLength="92.9482" x="100.38" y="69.9951">News Outlets</text></g><!--entity DARK--><g class="entity" data-entity="DARK" data-source-line="6" data-uid="ent0005" id="entity_DARK"><path d="M405.2998,50.9154 C408.231,43.5172 415.1012,43.4077 419.2559,49.665 C422.8708,43.8358 427.6276,43.4696 432.1154,48.6451 C436.7218,41.3426 442.4414,41.4111 447.3864,48.2802 C451.4266,42.2752 456.1329,42.9749 459.9188,48.5553 C465.2609,41.9112 469.9886,42.4813 473.9702,49.9133 C478.919,42.8913 485.8284,45.324 488.77,52.0708 C496.7744,54.4774 499.6942,60.0397 494.0204,67.1948 C499.4951,73.3939 498.1513,80.944 488.9225,82.1214 C484.9697,89.1875 479.427,90.1801 474.689,82.9005 C470.279,89.4101 464.7102,89.2648 459.8241,83.4758 C456.881,90.159 451.7915,91.9487 446.7088,85.6349 C441.7197,91.3968 437.2729,91.1706 433.1326,84.6934 C428.103,90.1706 422.2808,89.9378 419.7035,82.2012 C415.217,89.6513 408.4381,88.4308 404.6066,81.5131 C396.5582,76.8383 396.7649,71.5417 402.7664,65.2748 C396.114,59.377 397.3298,54.2334 405.2998,50.9154" fill="#F1F1F1" style="stroke:#181818;stroke-width:0.5;"/><text fill="#000000" font-family="sans-serif" font-size="14" lengthAdjust="spacing" textLength="69.0156" x="411.35" y="69.9951">Dark Web</text></g><!--entity SEO--><g class="entity" data-entity="SEO" data-source-line="10" data-uid="ent0007" id="entity_SEO"><rect fill="#90EE90" height="46.2969" rx="2.5" ry="2.5" style="stroke:#181818;stroke-width:0.5;" width="127.3223" x="160.19" y="188.3"/><rect fill="#90EE90" height="10" style="stroke:#181818;stroke-width:0.5;" width="15" x="267.5123" y="193.3"/><rect fill="#90EE90" height="2" style="stroke:#181818;stroke-width:0.5;" width="4" x="265.5123" y="195.3"/><rect fill="#90EE90" height="2" style="stroke:#181818;stroke-width:0.5;" width="4" x="265.5123" y="199.3"/><text fill="#000000" font-family="sans-serif" font-size="14" lengthAdjust="spacing" textLength="87.3223" x="175.19" y="221.2951">SEO Firewall</text></g><!--entity ID--><g class="entity" data-entity="ID" data-source-line="11" data-uid="ent0008" id="entity_ID"><rect fill="#ADD8E6" height="46.2969" rx="2.5" ry="2.5" style="stroke:#181818;stroke-width:0.5;" width="172.9727" x="511.37" y="188.3"/><rect fill="#ADD8E6" height="10" style="stroke:#181818;stroke-width:0.5;" width="15" x="664.3427" y="193.3"/><rect fill="#ADD8E6" height="2" style="stroke:#181818;stroke-width:0.5;" width="4" x="662.3427" y="195.3"/><rect fill="#ADD8E6" height="2" style="stroke:#181818;stroke-width:0.5;" width="4" x="662.3427" y="199.3"/><text fill="#000000" font-family="sans-serif" font-size="14" lengthAdjust="spacing" textLength="132.9727" x="526.37" y="221.2951">Identity Monitoring</text></g><!--entity LAW--><g class="entity" data-entity="LAW" data-source-line="12" data-uid="ent0009" id="entity_LAW"><rect fill="#FFC0CB" height="46.2969" rx="2.5" ry="2.5" style="stroke:#181818;stroke-width:0.5;" width="153.8457" x="322.93" y="188.3"/><rect fill="#FFC0CB" height="10" style="stroke:#181818;stroke-width:0.5;" width="15" x="456.7757" y="193.3"/><rect fill="#FFC0CB" height="2" style="stroke:#181818;stroke-width:0.5;" width="4" x="454.7757" y="195.3"/><rect fill="#FFC0CB" height="2" style="stroke:#181818;stroke-width:0.5;" width="4" x="454.7757" y="199.3"/><text fill="#000000" font-family="sans-serif" font-size="14" lengthAdjust="spacing" textLength="113.8457" x="337.93" y="221.2951">Legal Takedown</text></g><!--entity FAM--><g class="entity" data-entity="FAM" data-source-line="16" data-uid="ent0011" id="entity_FAM"><rect fill="#F1F1F1" height="46.2969" rx="2.5" ry="2.5" style="stroke:#181818;stroke-width:0.5;" width="167.7705" x="275.97" y="344.71"/><rect fill="#F1F1F1" height="10" style="stroke:#181818;stroke-width:0.5;" width="15" x="423.7405" y="349.71"/><rect fill="#F1F1F1" height="2" style="stroke:#181818;stroke-width:0.5;" width="4" x="421.7405" y="351.71"/><rect fill="#F1F1F1" height="2" style="stroke:#181818;stroke-width:0.5;" width="4" x="421.7405" y="355.71"/><text fill="#000000" font-family="sans-serif" font-size="14" lengthAdjust="spacing" textLength="127.7705" x="290.97" y="377.7051">Family Reputation</text></g><!--entity BIZ--><g class="entity" data-entity="BIZ" data-source-line="17" data-uid="ent0012" id="entity_BIZ"><rect fill="#F1F1F1" height="46.2969" rx="2.5" ry="2.5" style="stroke:#181818;stroke-width:0.5;" width="147.8848" x="478.91" y="344.71"/><rect fill="#F1F1F1" height="10" style="stroke:#181818;stroke-width:0.5;" width="15" x="606.7948" y="349.71"/><rect fill="#F1F1F1" height="2" style="stroke:#181818;stroke-width:0.5;" width="4" x="604.7948" y="351.71"/><rect fill="#F1F1F1" height="2" style="stroke:#181818;stroke-width:0.5;" width="4" x="604.7948" y="355.71"/><text fill="#000000" font-family="sans-serif" font-size="14" lengthAdjust="spacing" textLength="107.8848" x="493.91" y="377.7051">Business Brand</text></g><g class="entity" data-entity="GMN22" data-source-line="32" data-uid="ent0023" id="entity_GMN22"><path d="M719.34,176.18 L719.34,246.7112 L868.3786,246.7112 L868.3786,186.18 L858.3786,176.18 L719.34,176.18" fill="#FEFFDD" style="stroke:#181818;stroke-width:0.5;"/><path d="M858.3786,176.18 L858.3786,186.18 L868.3786,186.18 L858.3786,176.18" fill="#FEFFDD" style="stroke:#181818;stroke-width:1;"/><text fill="#000000" font-family="sans-serif" font-size="13" lengthAdjust="spacing" textLength="96.1733" x="725.34" y="193.2469">Owned Assets:</text><text fill="#000000" font-family="sans-serif" font-size="13" lengthAdjust="spacing" textLength="128.0386" x="725.34" y="208.3797">- Personal Websites</text><text fill="#000000" font-family="sans-serif" font-size="13" lengthAdjust="spacing" textLength="98.814" x="725.34" y="223.5125">- Charity Pages</text><text fill="#000000" font-family="sans-serif" font-size="13" lengthAdjust="spacing" textLength="115.6099" x="725.34" y="238.6453">- LinkedIn Profiles</text></g><!--link SOC to SEO--><g class="link" data-entity-1="SOC" data-entity-2="SEO" data-source-line="21" data-uid="lnk13" id="link_SOC_SEO"><path d="M289.67,88.7 C275.01,115.81 253.4222,155.7413 238.8122,182.7813" fill="none" id="SOC-to-SEO" style="stroke:#181818;stroke-width:1;"/><polygon fill="#181818" points="235.96,188.06,243.7574,182.0433,238.3368,183.661,236.7191,178.2404,235.96,188.06" style="stroke:#181818;stroke-width:1;"/><text fill="#000000" font-family="sans-serif" font-size="13" lengthAdjust="spacing" textLength="114.1753" x="273.85" y="133.3669">Negative Content</text></g><!--link NEWS to SEO--><g class="link" data-entity-1="NEWS" data-entity-2="SEO" data-source-line="22" data-uid="lnk14" id="link_NEWS_SEO"><path d="M84.89,78.9 C45.75,89.99 6,108.8 25.85,137.3 C55.91,180.45 108.5646,197.2668 154.2346,204.5368" fill="none" id="NEWS-to-SEO" style="stroke:#181818;stroke-width:1;"/><polygon fill="#181818" points="160.16,205.48,151.9007,200.1149,155.2222,204.694,150.6431,208.0154,160.16,205.48" style="stroke:#181818;stroke-width:1;"/><text fill="#000000" font-family="sans-serif" font-size="13" lengthAdjust="spacing" textLength="63.9971" x="26.85" y="133.3669">Bad Press</text></g><!--link DARK to ID--><g class="link" data-entity-1="DARK" data-entity-2="ID" data-source-line="23" data-uid="lnk15" id="link_DARK_ID"><path d="M475.59,88.77 C487.48,98.18 501.12,109.42 512.85,120.3 C536.52,142.23 557.644,164.9342 574.384,183.6842" fill="none" id="DARK-to-ID" style="stroke:#181818;stroke-width:1;"/><polygon fill="#181818" points="578.38,188.16,575.3699,178.7824,575.05,184.4302,569.4022,184.1103,578.38,188.16" style="stroke:#181818;stroke-width:1;"/><text fill="#000000" font-family="sans-serif" font-size="13" lengthAdjust="spacing" textLength="72.6807" x="531.85" y="133.3669">Data Leaks</text></g><!--link SEO to FAM--><g class="link" data-entity-1="SEO" data-entity-2="FAM" data-source-line="26" data-uid="lnk16" id="link_SEO_FAM"><path d="M243.63,234.9 C269.41,264.18 310.2941,310.5876 336.0941,339.8776" fill="none" id="SEO-to-FAM" style="stroke:#181818;stroke-width:1;"/><polygon fill="#181818" points="340.06,344.38,337.1127,334.9825,336.7551,340.628,331.1095,340.2704,340.06,344.38" style="stroke:#181818;stroke-width:1;"/><text fill="#000000" font-family="sans-serif" font-size="13" lengthAdjust="spacing" textLength="119.8501" x="292.85" y="289.7769">Filters Top Results</text></g><!--link ID to FAM--><g class="link" data-entity-1="ID" data-entity-2="FAM" data-source-line="27" data-uid="lnk17" id="link_ID_FAM"><path d="M562.99,235.07 C517.8,264.39 444.5039,311.945 399.4539,341.165" fill="none" id="ID-to-FAM" style="stroke:#181818;stroke-width:1;"/><polygon fill="#181818" points="394.42,344.43,404.1475,342.8884,398.6149,341.7092,399.7941,336.1766,394.42,344.43" style="stroke:#181818;stroke-width:1;"/><text fill="#000000" font-family="sans-serif" font-size="13" lengthAdjust="spacing" textLength="107.7896" x="494.85" y="289.7769">Alerts on Breach</text></g><!--reverse link SOC to LAW--><g class="link" data-entity-1="SOC" data-entity-2="LAW" data-source-line="28" data-uid="lnk19" id="link_SOC_LAW"><path d="M342.5059,91.7885 C355.3759,99.6185 365.02,105.11 378.85,112.3 C386.62,116.33 391.96,113.04 396.85,120.3 C410.24,140.17 408.7,168.49 405.29,188.06" fill="none" id="SOC-backto-LAW" style="stroke:#181818;stroke-width:1;"/><polygon fill="#181818" points="337.38,88.67,342.9898,96.7651,341.6516,91.2688,347.1479,89.9306,337.38,88.67" style="stroke:#181818;stroke-width:1;"/><text fill="#000000" font-family="sans-serif" font-size="13" lengthAdjust="spacing" textLength="98.4775" x="405.85" y="133.3669">Cease &amp; Desist</text></g><!--reverse link NEWS to LAW--><g class="link" data-entity-1="NEWS" data-entity-2="LAW" data-source-line="29" data-uid="lnk21" id="link_NEWS_LAW"><path d="M129.351,93.7918 C121.091,109.3818 117.48,124.35 129.85,137.3 C143.3,151.37 286.4,139.11 304.85,145.3 C331.4,154.2 357.32,172.85 375.37,187.92" fill="none" id="NEWS-backto-LAW" style="stroke:#181818;stroke-width:1;"/><polygon fill="#181818" points="132.16,88.49,124.4119,94.57,129.8191,92.9082,131.481,98.3154,132.16,88.49" style="stroke:#181818;stroke-width:1;"/><text fill="#000000" font-family="sans-serif" font-size="13" lengthAdjust="spacing" textLength="126.75" x="130.85" y="133.3669">Retraction Demand</text></g><!--link SEO to GMN22--><g class="link" data-entity-1="SEO" data-entity-2="GMN22" data-source-line="32" data-uid="lnk24" id="link_SEO_GMN22"><path d="M243.16,188.14 C261.43,168.07 290.83,140.55 323.35,128.8 C360.87,115.25 644.48,116.29 682.35,128.8 C710.96,138.24 738.21,158.17 758.61,176.09" fill="none" id="SEO-GMN22" style="stroke:#181818;stroke-width:1;stroke-dasharray:7,7;"/></g><!--SRC=[PL91Zfj04BpFArfUATaS_04EaS2i8nHieyMIfQnow8Ks7Z6UGJDDB2lAtzC3piRPSAEhwAgk8lJQ3kZn30CsFNPKyzKGU6eORMT8gTiS5liJGJM-6jr0OPcy9OR7E3neqtvQm4y5yZJ6ZIqiQjTeDB2XLkC2C42zMztZMxe4s8riYCE4RvyEzJqXHz_3WLudC4-VlwfVxxmKtbd8tPdWCQSZsK1GufNycvMN-ca7Q-tfWiPydqp8uA7KtOc_U28xiugMB6k-miPPpSvhsqta8hznCpFIJ2sfawFss5FhBdPYbUa17Yfj-__yhPmNQvLtB67ItuHUrdZMvWhFD8oChDsyQ9rkPZWRWxOK0cGURJjXMV4jhly8ARD812LfmZ9wM7wUZafWAzPO_uYoKevb5GDznycmXShBQXK3VGFbq0HoP8IIK9QBpYrG4P8F__34eH3NsaZv0VPka1F2Q3WesV0lAJNaEO0Kb7d2vgHYJCjnY5R4UW8hGkdhWmW57VWEdcmdifazDZ4SePmb1wMi10a-5WBk62-Ik7ONIosa8SXlbCZx4Yhnvgoq9FzEq2mdnEdgX3vMN4axywIKogWjh0JYZjh8b6mBKUCt]--></g></svg>