<svg xmlns="http://www.w3.org/2000/svg" xmlns:xlink="http://www.w3.org/1999/xlink" contentStyleType="text/css" data-diagram-type="DESCRIPTION" height="211px" preserveAspectRatio="none" style="width:1403px;height:211px;background:#FFFFFF;" version="1.1" viewBox="0 0 1403 211" width="1403px" zoomAndPan="magnify"><defs/><g><!--cluster CORE--><g class="cluster" data-entity="CORE" data-source-line="6" data-uid="ent0002" id="cluster_CORE"><path d="M472.5,6 L688.415,6 A3.75,3.75 0 0 1 690.915,8.5 L697.915,28.2969 L882.5,28.2969 A2.5,2.5 0 0 1 885,30.7969 L885,90.79 A2.5,2.5 0 0 1 882.5,93.29 L472.5,93.29 A2.5,2.5 0 0 1 470,90.79 L470,8.5 A2.5,2.5 0 0 1 472.5,6" fill="#ADD8E6" style="stroke:#000000;stroke-width:1.5;"/><line style="stroke:#000000;stroke-width:1.5;" x1="470" x2="697.915" y1="28.2969" y2="28.2969"/><text fill="#000000" font-family="sans-serif" font-size="14" font-weight="bold" lengthAdjust="spacing" textLength="214.915" x="474" y="20.9951">The Brain (SuiteDash Core)</text></g><!--cluster ENGINE--><g class="cluster" data-entity="ENGINE" data-source-line="11" data-uid="ent0005" id="cluster_ENGINE"><path d="M8.5,117.29 L274.0303,117.29 A3.75,3.75 0 0 1 276.5303,119.79 L283.5303,139.5869 L1393.5,139.5869 A2.5,2.5 0 0 1 1396,142.0869 L1396,202.09 A2.5,2.5 0 0 1 1393.5,204.59 L8.5,204.59 A2.5,2.5 0 0 1 6,202.09 L6,119.79 A2.5,2.5 0 0 1 8.5,117.29" fill="#FFFFFF" style="stroke:#000000;stroke-width:1.5;"/><line style="stroke:#000000;stroke-width:1.5;" x1="6" x2="283.5303" y1="139.5869" y2="139.5869"/><text fill="#000000" font-family="sans-serif" font-size="14" font-weight="bold" lengthAdjust="spacing" textLength="264.5303" x="10" y="132.2851">The 6-Cylinder Production Engine</text></g><!--entity PM--><g class="entity" data-entity="PM" data-source-line="7" data-uid="ent0003" id="entity_PM"><rect fill="#F1F1F1" height="36.2969" rx="2.5" ry="2.5" style="stroke:#181818;stroke-width:0.5;" width="165.127" x="486.44" y="41"/><text fill="#000000" font-family="sans-serif" font-size="14" lengthAdjust="spacing" textLength="145.127" x="496.44" y="63.9951">Project Management</text></g><!--entity CRM--><g class="entity" data-entity="CRM" data-source-line="8" data-uid="ent0004" id="entity_CRM"><rect fill="#F1F1F1" height="36.2969" rx="2.5" ry="2.5" style="stroke:#181818;stroke-width:0.5;" width="157.1016" x="711.45" y="41"/><text fill="#000000" font-family="sans-serif" font-size="14" lengthAdjust="spacing" textLength="137.1016" x="721.45" y="63.9951">CRM &amp; Client Portal</text></g><!--entity P1--><g class="entity" data-entity="P1" data-source-line="12" data-uid="ent0006" id="entity_P1"><rect fill="#FFC0CB" height="36.2969" rx="2.5" ry="2.5" style="stroke:#181818;stroke-width:0.5;" width="172.3047" x="719.85" y="152.29"/><text fill="#000000" font-family="sans-serif" font-size="14" lengthAdjust="spacing" textLength="152.3047" x="729.85" y="175.2851">1. Creative &amp; Content</text></g><!--entity P2--><g class="entity" data-entity="P2" data-source-line="13" data-uid="ent0007" id="entity_P2"><rect fill="#FFC0CB" height="36.2969" rx="2.5" ry="2.5" style="stroke:#181818;stroke-width:0.5;" width="180.1592" x="951.92" y="152.29"/><text fill="#000000" font-family="sans-serif" font-size="14" lengthAdjust="spacing" textLength="160.1592" x="961.92" y="175.2851">2. Social &amp; Community</text></g><!--entity P3--><g class="entity" data-entity="P3" data-source-line="14" data-uid="ent0008" id="entity_P3"><rect fill="#FFC0CB" height="36.2969" rx="2.5" ry="2.5" style="stroke:#181818;stroke-width:0.5;" width="188.0479" x="1191.98" y="152.29"/><text fill="#000000" font-family="sans-serif" font-size="14" lengthAdjust="spacing" textLength="168.0479" x="1201.98" y="175.2851">3. Advertising &amp; Growth</text></g><!--entity P4--><g class="entity" data-entity="P4" data-source-line="15" data-uid="ent0009" id="entity_P4"><rect fill="#90EE90" height="36.2969" rx="2.5" ry="2.5" style="stroke:#181818;stroke-width:0.5;" width="144.8105" x="21.59" y="152.29"/><text fill="#000000" font-family="sans-serif" font-size="14" lengthAdjust="spacing" textLength="124.8105" x="31.59" y="175.2851">4. Strategy &amp; Ops</text></g><!--entity P5--><g class="entity" data-entity="P5" data-source-line="16" data-uid="ent0010" id="entity_P5"><rect fill="#D3D3D3" height="36.2969" rx="2.5" ry="2.5" style="stroke:#181818;stroke-width:0.5;" width="159.3369" x="226.33" y="152.29"/><text fill="#000000" font-family="sans-serif" font-size="14" lengthAdjust="spacing" textLength="139.3369" x="236.33" y="175.2851">5. Business Support</text></g><!--entity P6--><g class="entity" data-entity="P6" data-source-line="17" data-uid="ent0011" id="entity_P6"><rect fill="#FFD700" height="36.2969" rx="2.5" ry="2.5" style="stroke:#181818;stroke-width:0.5;" width="214.1816" x="445.91" y="152.29"/><text fill="#000000" font-family="sans-serif" font-size="14" lengthAdjust="spacing" textLength="194.1816" x="455.91" y="175.2851">6. Advanced / Experimental</text></g><!--link CRM to P1--><g class="link" data-entity-1="CRM" data-entity-2="P1" data-source-line="21" data-uid="lnk12" id="link_CRM_P1"><path d="M794.2,77.77 C794.2,98.44 794.2,125.58 794.2,146.12" fill="none" id="CRM-to-P1" style="stroke:#181818;stroke-width:1;"/><polygon fill="#181818" points="794.2,152.12,798.2,143.12,794.2,147.12,790.2,143.12,794.2,152.12" style="stroke:#181818;stroke-width:1;"/><text fill="#000000" font-family="sans-serif" font-size="13" lengthAdjust="spacing" textLength="75.2451" x="718.2" y="111.0169">Intake Brief</text></g><!--link CRM to P2--><g class="link" data-entity-1="CRM" data-entity-2="P2" data-source-line="22" data-uid="lnk13" id="link_CRM_P2"><path d="M869.04,65.59 C942.95,65.59 1042,65.59 1042,65.59 C1042,65.59 1042,116.14 1042,146.18" fill="none" id="CRM-to-P2" style="stroke:#181818;stroke-width:1;"/><polygon fill="#181818" points="1042,152.18,1046,143.18,1042,147.18,1038,143.18,1042,152.18" style="stroke:#181818;stroke-width:1;"/><text fill="#000000" font-family="sans-serif" font-size="13" lengthAdjust="spacing" textLength="115.978" x="882.82" y="61.6569">Calendar Request</text></g><!--link CRM to P3--><g class="link" data-entity-1="CRM" data-entity-2="P3" data-source-line="23" data-uid="lnk14" id="link_CRM_P3"><path d="M868.87,53.59 C1008.81,53.59 1286,53.59 1286,53.59 C1286,53.59 1286,112.98 1286,145.93" fill="none" id="CRM-to-P3" style="stroke:#181818;stroke-width:1;"/><polygon fill="#181818" points="1286,151.93,1290,142.93,1286,146.93,1282,142.93,1286,151.93" style="stroke:#181818;stroke-width:1;"/><text fill="#000000" font-family="sans-serif" font-size="13" lengthAdjust="spacing" textLength="68.0342" x="1057.6" y="49.6569">Ad Budget</text></g><!--link PM to P4--><g class="link" data-entity-1="PM" data-entity-2="P4" data-source-line="24" data-uid="lnk15" id="link_PM_P4"><path d="M479.99,53.59 C343.83,53.59 94,53.59 94,53.59 C94,53.59 94,112.98 94,145.93" fill="none" id="PM-P4" style="stroke:#181818;stroke-width:1;"/><polygon fill="#181818" points="485.99,53.59,476.99,49.59,480.99,53.59,476.99,57.59,485.99,53.59" style="stroke:#181818;stroke-width:1;"/><polygon fill="#181818" points="94,151.93,98,142.93,94,146.93,90,142.93,94,151.93" style="stroke:#181818;stroke-width:1;"/><text fill="#000000" font-family="sans-serif" font-size="13" lengthAdjust="spacing" textLength="88.1118" x="151.83" y="49.6569">KPI Reporting</text></g><!--link PM to P5--><g class="link" data-entity-1="PM" data-entity-2="P5" data-source-line="25" data-uid="lnk16" id="link_PM_P5"><path d="M480.15,65.59 C403.06,65.59 306,65.59 306,65.59 C306,65.59 306,116.14 306,146.18" fill="none" id="PM-P5" style="stroke:#181818;stroke-width:1;"/><polygon fill="#181818" points="486.15,65.59,477.15,61.59,481.15,65.59,477.15,69.59,486.15,65.59" style="stroke:#181818;stroke-width:1;"/><polygon fill="#181818" points="306,152.18,310,143.18,306,147.18,302,143.18,306,152.18" style="stroke:#181818;stroke-width:1;"/><text fill="#000000" font-family="sans-serif" font-size="13" lengthAdjust="spacing" textLength="93.8945" x="258.78" y="61.6569">Hiring/Finance</text></g><!--link PM to P6--><g class="link" data-entity-1="PM" data-entity-2="P6" data-source-line="26" data-uid="lnk17" id="link_PM_P6"><path d="M569,83.77 C569,104.44 569,125.58 569,146.12" fill="none" id="PM-P6" style="stroke:#181818;stroke-width:1;"/><polygon fill="#181818" points="569,77.77,565,86.77,569,82.77,573,86.77,569,77.77" style="stroke:#181818;stroke-width:1;"/><polygon fill="#181818" points="569,152.12,573,143.12,569,147.12,565,143.12,569,152.12" style="stroke:#181818;stroke-width:1;"/><text fill="#000000" font-family="sans-serif" font-size="13" lengthAdjust="spacing" textLength="96.4209" x="472" y="111.0169">Innovation Lab</text></g><!--SRC=[RP9FRzD04CNl_XIZH2hqa9JcZmy88JLk6YAQragGE20EKtjgBrxFcjrrMWlntJksgmI5-lZU_7RUpDWLYYkqM89MJBwf28prkGdSmM2JagCAmW__Y1Qv-4zCJ5aP9lOxtsW2Iub7pZG5GOL9WHd1u5jEiB2e6DxlQkNf6bqEaR5qFW1q4Drlbp2yLLdk5xec-1E0V3zYQtx9Ox11bbTAwV2phOutlHrjDt06aLPYG2pvKNU-wC7Va-RXA6far9GioAjfdNXb69QSoVXTXENTQdqd8Rxd4kyrm64I65oE8RA4NksfxMdOIzCEZ2zX62ikJed967OcKQYx-hAiMVcc9oPl4zCnNALxibuvnPbWAskUVDupqxUPcNJn5ZrbZG3tbUkhPw_RN5aYFcNcOrZKqeASWrrTLRAvdfeVA6nEeR0BXvnG2XUmVAx8glOYg7isXE7AwBHT_3kuqUR91UrzHgFFxOO-mbfAY_OdKFHuT2RYHAY9KxImfTyrENzqf-9UfH8spSW7yGO-TV9CvA_nMkhRwBAgepKNwukoebtSA6xJ7hsmIy5cZztjR_7X1G00]--></g></svg>