<svg xmlns="http://www.w3.org/2000/svg" xmlns:xlink="http://www.w3.org/1999/xlink" contentStyleType="text/css" data-diagram-type="MINDMAP" height="888.5417px" preserveAspectRatio="none" style="width:751px;height:888px;" version="1.1" viewBox="0 0 751 888" width="751.0417px" zoomAndPan="magnify"><defs/><g><rect fill="#999999" height="45.8008" rx="4.1667" ry="4.1667" style="stroke:#EEEEEE;stroke-width:1.0417;" width="123.4253" x="10.4167" y="420.638"/><text fill="#EEEEEE" font-family="'Verdana'" font-size="12.5" lengthAdjust="spacing" textLength="92.1753" x="26.0417" y="447.8658">Tax Iron Dome</text><rect fill="#999999" height="45.8008" rx="4.1667" ry="4.1667" style="stroke:#EEEEEE;stroke-width:1.0417;" width="135.3943" x="185.9253" y="87.4674"/><text fill="#EEEEEE" font-family="'Verdana'" font-size="12.5" lengthAdjust="spacing" textLength="104.1443" x="201.5503" y="114.6952">Deferral Engines</text><rect fill="#999999" height="45.8008" rx="4.1667" ry="4.1667" style="stroke:#EEEEEE;stroke-width:1.0417;" width="253.949" x="373.4029" y="20.8333"/><text fill="#EEEEEE" font-family="'Verdana'" font-size="12.5" lengthAdjust="spacing" textLength="222.699" x="389.0279" y="48.0611">Qualified Opportunity Zones (2026)</text><path d="M321.3196,110.3678 L331.7362,110.3678 C347.3612,110.3678 347.3612,43.7337 362.9862,43.7337 L373.4029,43.7337" fill="none" style="stroke:#446E9B;stroke-width:3.125;"/><rect fill="#999999" height="45.8008" rx="4.1667" ry="4.1667" style="stroke:#EEEEEE;stroke-width:1.0417;" width="219.6167" x="373.4029" y="87.4674"/><text fill="#EEEEEE" font-family="'Verdana'" font-size="12.5" lengthAdjust="spacing" textLength="188.3667" x="389.0279" y="114.6952">1031 Exchanges (Real Estate)</text><path d="M321.3196,110.3678 L331.7362,110.3678 C347.3612,110.3678 347.3612,110.3678 362.9862,110.3678 L373.4029,110.3678" fill="none" style="stroke:#446E9B;stroke-width:3.125;"/><rect fill="#999999" height="45.8008" rx="4.1667" ry="4.1667" style="stroke:#EEEEEE;stroke-width:1.0417;" width="261.1572" x="373.4029" y="154.1016"/><text fill="#EEEEEE" font-family="'Verdana'" font-size="12.5" lengthAdjust="spacing" textLength="229.9072" x="389.0279" y="181.3293">Lodging Connections (STR Loophole)</text><path d="M321.3196,110.3678 L331.7362,110.3678 C347.3612,110.3678 347.3612,177.002 362.9862,177.002 L373.4029,177.002" fill="none" style="stroke:#446E9B;stroke-width:3.125;"/><path d="M133.842,443.5384 L144.2586,443.5384 C159.8836,443.5384 159.8836,110.3678 175.5086,110.3678 L185.9253,110.3678" fill="none" style="stroke:#446E9B;stroke-width:3.125;"/><rect fill="#999999" height="45.8008" rx="4.1667" ry="4.1667" style="stroke:#EEEEEE;stroke-width:1.0417;" width="157.428" x="185.9253" y="320.6868"/><text fill="#EEEEEE" font-family="'Verdana'" font-size="12.5" lengthAdjust="spacing" textLength="126.178" x="201.5503" y="347.9146">Elimination Vehicles</text><rect fill="#999999" height="45.8008" rx="4.1667" ry="4.1667" style="stroke:#EEEEEE;stroke-width:1.0417;" width="128.2166" x="395.4366" y="254.0527"/><text fill="#EEEEEE" font-family="'Verdana'" font-size="12.5" lengthAdjust="spacing" textLength="96.9666" x="411.0616" y="281.2805">Roth Strategies</text><rect fill="#999999" height="45.8008" rx="4.1667" ry="4.1667" style="stroke:#EEEEEE;stroke-width:1.0417;" width="163.0798" x="575.7365" y="220.7357"/><text fill="#EEEEEE" font-family="'Verdana'" font-size="12.5" lengthAdjust="spacing" textLength="131.8298" x="591.3615" y="247.9635">Mega Backdoor 401k</text><path d="M523.6532,276.9531 L534.0698,276.9531 C549.6948,276.9531 549.6948,243.6361 565.3198,243.6361 L575.7365,243.6361" fill="none" style="stroke:#446E9B;stroke-width:3.125;"/><rect fill="#999999" height="45.8008" rx="4.1667" ry="4.1667" style="stroke:#EEEEEE;stroke-width:1.0417;" width="105.835" x="575.7365" y="287.3698"/><text fill="#EEEEEE" font-family="'Verdana'" font-size="12.5" lengthAdjust="spacing" textLength="74.585" x="591.3615" y="314.5976">529-to-Roth</text><path d="M523.6532,276.9531 L534.0698,276.9531 C549.6948,276.9531 549.6948,310.2702 565.3198,310.2702 L575.7365,310.2702" fill="none" style="stroke:#446E9B;stroke-width:3.125;"/><path d="M343.3533,343.5872 L353.7699,343.5872 C369.3949,343.5872 369.3949,276.9531 385.0199,276.9531 L395.4366,276.9531" fill="none" style="stroke:#446E9B;stroke-width:3.125;"/><rect fill="#999999" height="45.8008" rx="4.1667" ry="4.1667" style="stroke:#EEEEEE;stroke-width:1.0417;" width="219.3787" x="395.4366" y="354.0039"/><text fill="#EEEEEE" font-family="'Verdana'" font-size="12.5" lengthAdjust="spacing" textLength="188.1287" x="411.0616" y="381.2317">Health Savings Account (HSA)</text><path d="M343.3533,343.5872 L353.7699,343.5872 C369.3949,343.5872 369.3949,376.9043 385.0199,376.9043 L395.4366,376.9043" fill="none" style="stroke:#446E9B;stroke-width:3.125;"/><rect fill="#999999" height="45.8008" rx="4.1667" ry="4.1667" style="stroke:#EEEEEE;stroke-width:1.0417;" width="212.3718" x="395.4366" y="420.638"/><text fill="#EEEEEE" font-family="'Verdana'" font-size="12.5" lengthAdjust="spacing" textLength="181.1218" x="411.0616" y="447.8658">Augusta Rule (14 Days Rent)</text><path d="M343.3533,343.5872 L353.7699,343.5872 C369.3949,343.5872 369.3949,443.5384 385.0199,443.5384 L395.4366,443.5384" fill="none" style="stroke:#446E9B;stroke-width:3.125;"/><path d="M133.842,443.5384 L144.2586,443.5384 C159.8836,443.5384 159.8836,343.5872 175.5086,343.5872 L185.9253,343.5872" fill="none" style="stroke:#446E9B;stroke-width:3.125;"/><rect fill="#999999" height="45.8008" rx="4.1667" ry="4.1667" style="stroke:#EEEEEE;stroke-width:1.0417;" width="131.3293" x="185.9253" y="553.9063"/><text fill="#EEEEEE" font-family="'Verdana'" font-size="12.5" lengthAdjust="spacing" textLength="100.0793" x="201.5503" y="581.134">Wealth Transfer</text><rect fill="#999999" height="45.8008" rx="4.1667" ry="4.1667" style="stroke:#EEEEEE;stroke-width:1.0417;" width="219.6777" x="369.338" y="487.2721"/><text fill="#EEEEEE" font-family="'Verdana'" font-size="12.5" lengthAdjust="spacing" textLength="188.4277" x="384.963" y="514.4999">Dynasty Trust (No Estate Tax)</text><path d="M317.2546,576.8066 L327.6713,576.8066 C343.2963,576.8066 343.2963,510.1725 358.9213,510.1725 L369.338,510.1725" fill="none" style="stroke:#446E9B;stroke-width:3.125;"/><rect fill="#999999" height="45.8008" rx="4.1667" ry="4.1667" style="stroke:#EEEEEE;stroke-width:1.0417;" width="158.5327" x="369.338" y="553.9063"/><text fill="#EEEEEE" font-family="'Verdana'" font-size="12.5" lengthAdjust="spacing" textLength="127.2827" x="384.963" y="581.134">Life Insurance (PPLI)</text><path d="M317.2546,576.8066 L327.6713,576.8066 C343.2963,576.8066 343.2963,576.8066 358.9213,576.8066 L369.338,576.8066" fill="none" style="stroke:#446E9B;stroke-width:3.125;"/><rect fill="#999999" height="45.8008" rx="4.1667" ry="4.1667" style="stroke:#EEEEEE;stroke-width:1.0417;" width="248.7732" x="369.338" y="620.5404"/><text fill="#EEEEEE" font-family="'Verdana'" font-size="12.5" lengthAdjust="spacing" textLength="217.5232" x="384.963" y="647.7681">Origin Eyes (Charitable Deduction)</text><path d="M317.2546,576.8066 L327.6713,576.8066 C343.2963,576.8066 343.2963,643.4408 358.9213,643.4408 L369.338,643.4408" fill="none" style="stroke:#446E9B;stroke-width:3.125;"/><path d="M133.842,443.5384 L144.2586,443.5384 C159.8836,443.5384 159.8836,576.8066 175.5086,576.8066 L185.9253,576.8066" fill="none" style="stroke:#446E9B;stroke-width:3.125;"/><rect fill="#999999" height="45.8008" rx="4.1667" ry="4.1667" style="stroke:#EEEEEE;stroke-width:1.0417;" width="160.8459" x="185.9253" y="753.8086"/><text fill="#EEEEEE" font-family="'Verdana'" font-size="12.5" lengthAdjust="spacing" textLength="129.5959" x="201.5503" y="781.0364">Business Deductions</text><rect fill="#999999" height="45.8008" rx="4.1667" ry="4.1667" style="stroke:#EEEEEE;stroke-width:1.0417;" width="189.856" x="398.8546" y="687.1745"/><text fill="#EEEEEE" font-family="'Verdana'" font-size="12.5" lengthAdjust="spacing" textLength="158.606" x="414.4796" y="714.4023">Captive Insurance (831b)</text><path d="M346.7712,776.709 L357.1879,776.709 C372.8129,776.709 372.8129,710.0749 388.4379,710.0749 L398.8546,710.0749" fill="none" style="stroke:#446E9B;stroke-width:3.125;"/><rect fill="#999999" height="45.8008" rx="4.1667" ry="4.1667" style="stroke:#EEEEEE;stroke-width:1.0417;" width="179.0527" x="398.8546" y="753.8086"/><text fill="#EEEEEE" font-family="'Verdana'" font-size="12.5" lengthAdjust="spacing" textLength="147.8027" x="414.4796" y="781.0364">ToriMedia Royalties (IP)</text><path d="M346.7712,776.709 L357.1879,776.709 C372.8129,776.709 372.8129,776.709 388.4379,776.709 L398.8546,776.709" fill="none" style="stroke:#446E9B;stroke-width:3.125;"/><rect fill="#999999" height="45.8008" rx="4.1667" ry="4.1667" style="stroke:#EEEEEE;stroke-width:1.0417;" width="213.1897" x="398.8546" y="820.4427"/><text fill="#EEEEEE" font-family="'Verdana'" font-size="12.5" lengthAdjust="spacing" textLength="181.9397" x="414.4796" y="847.6705">Children's Salary (Marketing)</text><path d="M346.7712,776.709 L357.1879,776.709 C372.8129,776.709 372.8129,843.3431 388.4379,843.3431 L398.8546,843.3431" fill="none" style="stroke:#446E9B;stroke-width:3.125;"/><path d="M133.842,443.5384 L144.2586,443.5384 C159.8836,443.5384 159.8836,776.709 175.5086,776.709 L185.9253,776.709" fill="none" style="stroke:#446E9B;stroke-width:3.125;"/><!--SRC=[xHbjKzis-7FoAxJnOPIxT7580lHwkm89BHrqZD3kRjzaMqcqE58coq3Mux_laMJ5bgqah0lVAXztHC-Zv_rDzhjKOY7dbCLpl6Z-8ATaJb2wm159SDWyG7Vu4LqApj20pqdpu00Do9W8WHCqP1FAI0fx1-Zt32TqJ4cCVbiik90PetA9_kG0H_kTTgV_IgC5xSC03H-ZAMOJ1RabYWv888b1kE8n49sWSyuOYIJb3B16TxS0u8ifJpGQ6YOK1COAZBwGAOsIN8nRBgTe90NGcr2pTu2koGIZCnpDOiu5whQ3cTdlTKvQahVK6Ntu0mYZZkDxa215fr74CoRH_eVHgH7kD9ja82kwpHA2zeCk6k1bYcu9arggFypvEu5P2YRIHmPBXbEmn9s0asZ_4y-rLMRDDQPZWYvPci6n2CZUt5nT6iXlWe8jq72fB7K-nO9A70Bd0OapRHhDzInBbHVIOjkOuXml9BrtI1yV1g4XVSS5lIOn1Ltu4gIcYiNbZG6UJsaI2y9-Ii4M2HPBj7-DnOn8CCkhvZi2aP97I_ET4pomqXbb2opm78LWy8a02yRdF06xIsKM086rIbXPIiw8n2Ev1CN6E4b9qwotgThwfOcGu5oYh_0FqavSHrF1BpYJ1h8trallVbWkYBYYR6P1yH49kXe4koJVFMntutwyshs3g9ffkmPw3ooWd16qzQyR7CSgJFlwrsYAO_wWVhTVA_WJ_34U4oErnGrwwfUMFkA24O4wcbXLgRrkjqzEmbOXaQ8NANT2k7_rI6XvZi5IG7OJYcAqW42FLtWrzYTwLUrvU7XoCZvSxHg7XJonyatBDFsyXIeS129n8_yDFZtKQxqCAL519VbQrKf1KP3rCQoHbbGcofyD3QN_4EMynXaNeCYjuQ1TMbh75bvOeh421W2iI8VsmcFrjAm76YNLJKnOYbLFwO1xW7IU3E1FvHL8oeXyu6Ac_cqqwfdXaifZhIRKtb5qWiCJ6unAT21NIXihMAEID9083bVBuAdPI8cur-xVdLoQBXQ2FsYo7hwDUgghCpeVz1d5uNsP0z7BFOcFr5FJjgErpKj43_wrETzJJFBCmqpAadiaJcSxje7NBwl2XJhgAGdNrnPWK3EgHhDYb0bsklqGOv-Xyj9WN5jae7FQXdJzj86qzlgXUlno0EKvXHulOPweEJZdNcHcqBU_T1P3rqnej9wrAwWL0rXAEYS9pJckAvFhv8qIdi8qv3_QxNNQxNL7LRYy_JblVqMdZCaOPubKHpvX6D7C-l4B4J5c-4S_fhP7Nd4wPPG5HVKLW505JhhgQkLbUdI1LUvdvTfNODp0X40Zke3ujv47grjcTSOVIo2x71GF75QlX76gqZylfSMoJQEa5_H8mYKC1NcREAyvo1JY75XEnJmw5E2qthUZCEf5ET19u0xkT4tVkgoTYgCkwSOvqAdkxRPoY08CQwT8S69F3TrJ9hOKu5EzOBJ3u_5H3YoVofFxgMGcf-Dfj4OjO8hIL13pODcSiX6fKGgytNTIXtkbgpwLXzI4J62SLLgkpM-V_yk9cxS9XspwGES9DfN3ZOIyM5NLWR9yf-ozVIRGQFN-zkJCtXZk0VVg0hQchdzRUpd3goDHsEk0uKTg-g-eDgpr1MXwSyxYDLdMAf9gXUbDEGkjw-CgloZgpMxrBnMoklzg3iXxuAwuL-ZRKQSG0GnTQVtR39MIlpCrZjUYr1Aenjfg2DqmiZinOGyCAtSRnUzn8nK5TnD7Lt6rNxyGD0OamKlFlhfRgzxkcvehG2SNLw2gKqmm5iEA6YSMNa4rn2FI- -82vXbY3BrdSJKqDXfn04N0WmDjG3qjgFhgqUt0edfKgO7BfYe1wpMnSMjlV1l5BB1yXbn1FSQyTM-K7eDMCBQQThGQ3fvLPl8hkJzz_cFckEGZdYJs1TZBrP48g0gUl207q6pNZSXb42f4zPBg1Qij30dIEoJ4tQDUkrrXaizcZNh0kcJjpQkQLO5FFZsvjLQtCD_qjhNWguWTGslogb9KM8UohX3-USU9e_a2xcOxxhWk3yeWDq5yuXD_DIuxdD1U5BVrLMkRB-1gAS3DcvmC4uXlqjvgzVnDe4zatuXfQ-TMaoSyyq-k5vsByujXQqN98M-0smqIOub3d9ANB3u9JdTRt7o4rXH-Uz9MPc_XTotePEYfb8A6cVIXEp3pIYAewCx3lqYqu_dKguARrbjLi18yGuKi9T6k0yHtCVAgbRlDbKY0IJ6R9BkMQSl5vVy9lG3gwofF_ORqx45ZomLbp1Fp2lu_CxKjhyJKxO8Rc0hrukeRUDffpZFWRUDflhRjEC-US-lzdza5LxFiHOil5lxkiPD9OqmJlwEhy_OtjJxmQJJRiMs-V-Z-_g5xmuVkcmGp-Vdw2jqJaIfl1A_1sRtNGH0IYNlxdzcCyGUc1s4L- -hRmQlc_lkRAvJoJ81GCKrDqcjzFk9xPLwcyDv0A17sSV2htO20kwSGYNDrBVpuvRf0w7TRPrIYaVc2zkMwEJ3l-k54nDNxyJVeyzr5wxXv1N6NGLjv0nUmvhbohrW2RFGl]--></g></svg>