<svg xmlns="http://www.w3.org/2000/svg" xmlns:xlink="http://www.w3.org/1999/xlink" contentStyleType="text/css" data-diagram-type="DESCRIPTION" height="431px" preserveAspectRatio="none" style="width:1875px;height:431px;background:#FFFFFF;" version="1.1" viewBox="0 0 1875 431" width="1875px" zoomAndPan="magnify"><title>The Three Horizon Strategy Map</title><defs/><g><g class="title" data-source-line="6"><text fill="#000000" font-family="sans-serif" font-size="14" font-weight="bold" lengthAdjust="spacing" textLength="256.5527" x="802.2236" y="22.9951">The Three Horizon Strategy Map</text></g><!--cluster H1--><g class="cluster" data-entity="H1" data-source-line="8" data-uid="ent0002" id="cluster_H1"><path d="M8.5,43.2969 L275.2129,43.2969 A3.75,3.75 0 0 1 277.7129,45.7969 L284.7129,65.5938 L599.5,65.5938 A2.5,2.5 0 0 1 602,68.0938 L602,218.3569 A2.5,2.5 0 0 1 599.5,220.8569 L8.5,220.8569 A2.5,2.5 0 0 1 6,218.3569 L6,45.7969 A2.5,2.5 0 0 1 8.5,43.2969" fill="#90EE90" style="stroke:#000000;stroke-width:1.5;"/><line style="stroke:#000000;stroke-width:1.5;" x1="6" x2="284.7129" y1="65.5938" y2="65.5938"/><text fill="#000000" font-family="sans-serif" font-size="14" font-weight="bold" lengthAdjust="spacing" textLength="265.7129" x="10" y="58.292">Horizon 1: The Engine (Years 0-3)</text></g><!--cluster H2--><g class="cluster" data-entity="H2" data-source-line="15" data-uid="ent0009" id="cluster_H2"><path d="M628.5,131.5769 L937.6504,131.5769 A3.75,3.75 0 0 1 940.1504,134.0769 L947.1504,153.8738 L1214.5,153.8738 A2.5,2.5 0 0 1 1217,156.3738 L1217,331.6369 A2.5,2.5 0 0 1 1214.5,334.1369 L628.5,334.1369 A2.5,2.5 0 0 1 626,331.6369 L626,134.0769 A2.5,2.5 0 0 1 628.5,131.5769" fill="#ADD8E6" style="stroke:#000000;stroke-width:1.5;"/><line style="stroke:#000000;stroke-width:1.5;" x1="626" x2="947.1504" y1="153.8738" y2="153.8738"/><text fill="#000000" font-family="sans-serif" font-size="14" font-weight="bold" lengthAdjust="spacing" textLength="308.1504" x="630" y="146.572">Horizon 2: The Asset Base (Years 3-10)</text></g><!--cluster H3--><g class="cluster" data-entity="H3" data-source-line="22" data-uid="ent0016" id="cluster_H3"><path d="M1243.5,244.8569 L1540.9336,244.8569 A3.75,3.75 0 0 1 1543.4336,247.3569 L1550.4336,267.1538 L1865.5,267.1538 A2.5,2.5 0 0 1 1868,269.6538 L1868,421.9069 A2.5,2.5 0 0 1 1865.5,424.4069 L1243.5,424.4069 A2.5,2.5 0 0 1 1241,421.9069 L1241,247.3569 A2.5,2.5 0 0 1 1243.5,244.8569" fill="#FFD700" style="stroke:#000000;stroke-width:1.5;"/><line style="stroke:#000000;stroke-width:1.5;" x1="1241" x2="1550.4336" y1="267.1538" y2="267.1538"/><text fill="#000000" font-family="sans-serif" font-size="14" font-weight="bold" lengthAdjust="spacing" textLength="296.4336" x="1245" y="259.852">Horizon 3: The Legacy (Years 10-365)</text></g><!--entity CF--><g class="entity" data-entity="CF" data-source-line="9" data-uid="ent0003" id="entity_CF"><rect fill="#F1F1F1" height="36.2969" rx="2.5" ry="2.5" style="stroke:#181818;stroke-width:0.5;" width="135.8623" x="246.07" y="78.2969"/><text fill="#000000" font-family="sans-serif" font-size="14" lengthAdjust="spacing" textLength="115.8623" x="256.07" y="101.292">Cash Flow Focus</text></g><!--entity SVC--><g class="entity" data-entity="SVC" data-source-line="10" data-uid="ent0004" id="entity_SVC"><rect fill="#F1F1F1" height="36.2969" rx="2.5" ry="2.5" style="stroke:#181818;stroke-width:0.5;" width="153.834" x="432.08" y="78.2969"/><text fill="#000000" font-family="sans-serif" font-size="14" lengthAdjust="spacing" textLength="133.834" x="442.08" y="101.292">Service Businesses</text></g><!--entity OPS--><g class="entity" data-entity="OPS" data-source-line="11" data-uid="ent0005" id="entity_OPS"><rect fill="#F1F1F1" height="36.2969" rx="2.5" ry="2.5" style="stroke:#181818;stroke-width:0.5;" width="174.2393" x="21.88" y="78.2969"/><text fill="#000000" font-family="sans-serif" font-size="14" lengthAdjust="spacing" textLength="154.2393" x="31.88" y="101.292">Operational Efficiency</text></g><g class="entity" data-entity="GMN6" data-source-line="12" data-uid="ent0007" id="entity_GMN6"><path d="M21.63,164.5969 L21.63,204.8625 A0,0 0 0 0 21.63,204.8625 L204.3619,204.8625 A0,0 0 0 0 204.3619,204.8625 L204.3619,174.5969 L194.3619,164.5969 L113,164.5969 L109,114.7369 L105,164.5969 L21.63,164.5969 A0,0 0 0 0 21.63,164.5969" fill="#FEFFDD" style="stroke:#181818;stroke-width:0.5;"/><path d="M194.3619,164.5969 L194.3619,174.5969 L204.3619,174.5969 L194.3619,164.5969" fill="#FEFFDD" style="stroke:#181818;stroke-width:0.5;"/><text fill="#000000" font-family="sans-serif" font-size="13" lengthAdjust="spacing" textLength="161.7319" x="27.63" y="181.6638">60% Resource Allocation</text><text fill="#000000" font-family="sans-serif" font-size="13" lengthAdjust="spacing" textLength="161.2432" x="27.63" y="196.7966">Goal: Survival &amp; Funding</text></g><!--entity ASSET--><g class="entity" data-entity="ASSET" data-source-line="16" data-uid="ent0010" id="entity_ASSET"><rect fill="#F1F1F1" height="36.2969" rx="2.5" ry="2.5" style="stroke:#181818;stroke-width:0.5;" width="158.3594" x="830.82" y="166.5769"/><text fill="#000000" font-family="sans-serif" font-size="14" lengthAdjust="spacing" textLength="138.3594" x="840.82" y="189.572">Asset Accumulation</text></g><!--entity RE--><g class="entity" data-entity="RE" data-source-line="17" data-uid="ent0011" id="entity_RE"><rect fill="#F1F1F1" height="36.2969" rx="2.5" ry="2.5" style="stroke:#181818;stroke-width:0.5;" width="162.1123" x="1038.94" y="166.5769"/><text fill="#000000" font-family="sans-serif" font-size="14" lengthAdjust="spacing" textLength="142.1123" x="1048.94" y="189.572">Real Estate Portfolio</text></g><!--entity DIR--><g class="entity" data-entity="DIR" data-source-line="18" data-uid="ent0012" id="entity_DIR"><rect fill="#F1F1F1" height="36.2969" rx="2.5" ry="2.5" style="stroke:#181818;stroke-width:0.5;" width="138.9111" x="641.54" y="166.5769"/><text fill="#000000" font-family="sans-serif" font-size="14" lengthAdjust="spacing" textLength="118.9111" x="651.54" y="189.572">Directory Empire</text></g><g class="entity" data-entity="GMN13" data-source-line="19" data-uid="ent0014" id="entity_GMN13"><path d="M642.17,277.8769 L642.17,318.1425 A0,0 0 0 0 642.17,318.1425 L847.8233,318.1425 A0,0 0 0 0 847.8233,318.1425 L847.8233,287.8769 L837.8233,277.8769 L692.27,277.8769 L688.27,203.1769 L684.27,277.8769 L642.17,277.8769 A0,0 0 0 0 642.17,277.8769" fill="#FEFFDD" style="stroke:#181818;stroke-width:0.5;"/><path d="M837.8233,277.8769 L837.8233,287.8769 L847.8233,287.8769 L837.8233,277.8769" fill="#FEFFDD" style="stroke:#181818;stroke-width:0.5;"/><text fill="#000000" font-family="sans-serif" font-size="13" lengthAdjust="spacing" textLength="161.7319" x="648.17" y="294.9438">30% Resource Allocation</text><text fill="#000000" font-family="sans-serif" font-size="13" lengthAdjust="spacing" textLength="184.6533" x="648.17" y="310.0766">Goal: Wealth &amp; Appreciation</text></g><!--entity GEN--><g class="entity" data-entity="GEN" data-source-line="23" data-uid="ent0017" id="entity_GEN"><rect fill="#F1F1F1" height="36.2969" rx="2.5" ry="2.5" style="stroke:#181818;stroke-width:0.5;" width="173.3711" x="1510.31" y="279.8569"/><text fill="#000000" font-family="sans-serif" font-size="14" lengthAdjust="spacing" textLength="153.3711" x="1520.31" y="302.852">Generational Transfer</text></g><!--entity TRUST--><g class="entity" data-entity="TRUST" data-source-line="24" data-uid="ent0018" id="entity_TRUST"><rect fill="#F1F1F1" height="36.2969" rx="2.5" ry="2.5" style="stroke:#181818;stroke-width:0.5;" width="118" x="1734" y="279.8569"/><text fill="#000000" font-family="sans-serif" font-size="14" lengthAdjust="spacing" textLength="98" x="1744" y="302.852">Dynasty Trust</text></g><!--entity PHIL--><g class="entity" data-entity="PHIL" data-source-line="25" data-uid="ent0019" id="entity_PHIL"><rect fill="#F1F1F1" height="36.2969" rx="2.5" ry="2.5" style="stroke:#181818;stroke-width:0.5;" width="203.5791" x="1257.21" y="279.8569"/><text fill="#000000" font-family="sans-serif" font-size="14" lengthAdjust="spacing" textLength="183.5791" x="1267.21" y="302.852">Philanthropy (Origin Eyes)</text></g><g class="entity" data-entity="GMN20" data-source-line="26" data-uid="ent0021" id="entity_GMN20"><path d="M1264.17,368.1369 L1264.17,408.4025 A0,0 0 0 0 1264.17,408.4025 L1453.8209,408.4025 A0,0 0 0 0 1453.8209,408.4025 L1453.8209,378.1369 L1443.8209,368.1369 L1363,368.1369 L1359,316.2769 L1355,368.1369 L1264.17,368.1369 A0,0 0 0 0 1264.17,368.1369" fill="#FEFFDD" style="stroke:#181818;stroke-width:0.5;"/><path d="M1443.8209,368.1369 L1443.8209,378.1369 L1453.8209,378.1369 L1443.8209,368.1369" fill="#FEFFDD" style="stroke:#181818;stroke-width:0.5;"/><text fill="#000000" font-family="sans-serif" font-size="13" lengthAdjust="spacing" textLength="161.7319" x="1270.17" y="385.2038">10% Resource Allocation</text><text fill="#000000" font-family="sans-serif" font-size="13" lengthAdjust="spacing" textLength="168.6509" x="1270.17" y="400.3366">Goal: Perpetuity &amp; Impact</text></g><!--link CF to ASSET--><g class="link" data-entity-1="CF" data-entity-2="ASSET" data-source-line="30" data-uid="lnk23" id="link_CF_ASSET"><path d="M314,115.0869 C314,127.0669 314,140.4069 314,140.4069 C314,140.4069 910,140.4069 910,140.4069 C910,140.4069 910,148.0469 910,160.1869" fill="none" id="CF-to-ASSET" style="stroke:#181818;stroke-width:1;"/><polygon fill="#181818" points="910,166.1869,914,157.1869,910,161.1869,906,157.1869,910,166.1869" style="stroke:#181818;stroke-width:1;"/><text fill="#000000" font-family="sans-serif" font-size="13" lengthAdjust="spacing" textLength="38.981" x="573.23" y="136.4738">Funds</text></g><!--link SVC to RE--><g class="link" data-entity-1="SVC" data-entity-2="RE" data-source-line="31" data-uid="lnk24" id="link_SVC_RE"><path d="M586.38,97.4069 C750.8,97.4069 1120,97.4069 1120,97.4069 C1120,97.4069 1120,134.5769 1120,160.2069" fill="none" id="SVC-to-RE" style="stroke:#181818;stroke-width:1;"/><polygon fill="#181818" points="1120,166.2069,1124,157.2069,1120,161.2069,1116,157.2069,1120,166.2069" style="stroke:#181818;stroke-width:1;"/><text fill="#000000" font-family="sans-serif" font-size="13" lengthAdjust="spacing" textLength="97.0366" x="789.59" y="93.4738">Diversifies into</text></g><!--link OPS to DIR--><g class="link" data-entity-1="OPS" data-entity-2="DIR" data-source-line="32" data-uid="lnk25" id="link_OPS_DIR"><path d="M196.49,97.4069 C213,97.4069 225.22,97.4069 225.22,97.4069 C225.22,97.4069 225.22,185.4069 225.22,185.4069 C225.22,185.4069 500.71,185.4069 635.14,185.4069" fill="none" id="OPS-to-DIR" style="stroke:#181818;stroke-width:1;"/><polygon fill="#181818" points="641.14,185.4069,632.14,181.4069,636.14,185.4069,632.14,189.4069,641.14,185.4069" style="stroke:#181818;stroke-width:1;"/><text fill="#000000" font-family="sans-serif" font-size="13" lengthAdjust="spacing" textLength="70.6812" x="303.82" y="181.4738">Automates</text></g><!--link ASSET to GEN--><g class="link" data-entity-1="ASSET" data-entity-2="GEN" data-source-line="34" data-uid="lnk26" id="link_ASSET_GEN"><path d="M918.5,203.1569 C918.5,215.4669 918.5,229.4069 918.5,229.4069 C918.5,229.4069 1597,229.4069 1597,229.4069 C1597,229.4069 1597,253.3069 1597,273.6269" fill="none" id="ASSET-to-GEN" style="stroke:#181818;stroke-width:1;"/><polygon fill="#181818" points="1597,279.6269,1601,270.6269,1597,274.6269,1593,270.6269,1597,279.6269" style="stroke:#181818;stroke-width:1;"/><text fill="#000000" font-family="sans-serif" font-size="13" lengthAdjust="spacing" textLength="51.7524" x="1217.74" y="225.4738">Secures</text></g><!--link RE to TRUST--><g class="link" data-entity-1="RE" data-entity-2="TRUST" data-source-line="35" data-uid="lnk27" id="link_RE_TRUST"><path d="M1201.51,185.4069 C1380.69,185.4069 1793,185.4069 1793,185.4069 C1793,185.4069 1793,241.4369 1793,273.4169" fill="none" id="RE-to-TRUST" style="stroke:#181818;stroke-width:1;"/><polygon fill="#181818" points="1793,279.4169,1797,270.4169,1793,274.4169,1789,270.4169,1793,279.4169" style="stroke:#181818;stroke-width:1;"/><text fill="#000000" font-family="sans-serif" font-size="13" lengthAdjust="spacing" textLength="78.7109" x="1465.26" y="181.4738">Protected in</text></g><!--link DIR to PHIL--><g class="link" data-entity-1="DIR" data-entity-2="PHIL" data-source-line="36" data-uid="lnk28" id="link_DIR_PHIL"><path d="M734.36,203.0369 C734.36,223.6769 734.36,254.4069 734.36,254.4069 C734.36,254.4069 1359,254.4069 1359,254.4069 C1359,254.4069 1359,261.6369 1359,273.5169" fill="none" id="DIR-to-PHIL" style="stroke:#181818;stroke-width:1;"/><polygon fill="#181818" points="1359,279.5169,1363,270.5169,1359,274.5169,1355,270.5169,1359,279.5169" style="stroke:#181818;stroke-width:1;"/><text fill="#000000" font-family="sans-serif" font-size="13" lengthAdjust="spacing" textLength="38.981" x="994.55" y="250.4738">Funds</text></g><!--SRC=[VP9DQzj048Rl-ok6XARDmM3790SV2h8jVu3R2CbjAMqFs_LOMhpQ5VlXefJ-zuvMTbfmY611p3lxpZmxumvIDzpo6fJKwDi6mLXV6UQU1MrswB21- -5_GSlruI8eJDqOZTeNlbK85eNdkbJ8c9UU0jkgEnOHLiRA9wEXy9PxB5lum1l66YuEl4IuEikZIRoJwfAQWtTVaLi7my7uzWguWzK8hZUohFoIB3NyPa3Vjnbt5IoK-GKB8uBxqMNE5hrMe3rAWJ0DZWoTmrukFizw_R51waSQpHMa-xqK4hLeOyvZLiGSRJp2J-EzgIVmC7m3EJeJB9acIXaHRt_NIyFL18f0vOxaTGEBe7TIb-pF2vHtFML2_NYOSlTCEXwCXYVKknFgL0Kya_ON4Y527LGi73jDYYBTzXavTY3Eqnj3HdFT6oLDJChJFcCkkoaPsq9QD_GVnVawlsGTlyxwXKhvYaYJfY5B6SKNSSSzxWPBBjepweYc-d1_WXt3zTAetPbpYVhVMBQqUMwFDZQwJ3-UC5hDdMz93Sv7QPj_Aawla5LISUqhQnggzsWbRHEaBRhRc9cjrfjBtD7hk1dQ1dsGLFC6rZL1-WxsRT-Vx58TcorWC7ZV3mGcSGSSesMBqJobq5mUqJgvb-X0QcyOhLbKQGGa9u5weU4vndgJJY9eaWeKmP90Dbqmub8uimGXFEx8ZdKcdTWHdkl_1G00]--></g></svg>